<?xml version="1.0" encoding="UTF-8" standalone="no"?>
<!-- Created with Inkscape (http://www.inkscape.org/) -->

<svg
   version="1.1"
   id="svg1"
   width="777.16986"
   height="742.36292"
   viewBox="0 0 777.16986 742.36292"
   xmlns="http://www.w3.org/2000/svg"
   xmlns:svg="http://www.w3.org/2000/svg">
  <defs
     id="defs1" />
  <g
     id="g1"
     transform="translate(-946.85809,33.866577)">
    <path
       style="fill:#000000"
       d="m 1182.1914,707.32485 c -8.0666,-0.52938 -27.8666,-1.66287 -44,-2.51888 -16.1333,-0.856 -30.3612,-1.76875 -31.6174,-2.02833 -1.2563,-0.25958 -11.1563,0.058 -22,0.70579 -17.08,1.02029 -19.9198,0.90463 -21.2407,-0.86517 -0.8386,-1.1236 -3.8324,-2.41739 -6.6528,-2.87508 -3.2406,-0.52589 -6.1145,-2.08877 -7.8085,-4.24648 -1.4743,-1.87788 -3.8806,-4.81068 -5.3472,-6.51734 l -2.6667,-3.10301 -8.1073,4.18291 c -5.3561,2.76344 -10.8539,4.43196 -16.2011,4.91682 -8.8595,0.80336 -17.6916,-0.35108 -17.6916,-2.31245 0,-3.40588 20.2908,-10.58785 30,-10.61858 l 5.3333,-0.0169 -8.453,-3.99895 c -4.6492,-2.19942 -9.1492,-4.00481 -10,-4.01197 -3.403,-0.0287 -15.5683,-6.67988 -20.70393,-11.3196 -5.89844,-5.32888 -11.645,-13.64319 -10.33508,-14.95311 3.1394,-3.1394 24.35871,10.09194 30.15871,18.80551 2.2755,3.41858 6.2323,6.48484 12.4683,9.66207 10.8683,5.53743 11.8688,7.27872 -13.7877,-23.99766 l -19.31933,-23.5512 -4.01397,4.60188 c -4.50309,5.16265 -12.15163,10.08594 -15.68063,10.09348 -3.28365,0.007 -2.94468,-1.48425 2.01408,-8.86103 l 4.34742,-6.46732 -12.29802,-0.0173 c -14.80371,-0.0208 -17.9517,-1.78841 -10.21462,-5.73557 2.84137,-1.44956 7.79466,-3.34335 11.00729,-4.20843 l 5.84117,-1.57286 -4.7962,-3.95343 c -6.16933,-5.08528 -10.89959,-11.72222 -9.3984,-13.1867 1.09937,-1.07247 10.61528,0.16325 15.32764,1.99042 1.88225,0.72982 1.79934,-0.20111 -0.63739,-7.15677 -1.5406,-4.39764 -2.38299,-8.41381 -1.87198,-8.92483 0.51102,-0.51101 2.44784,0.066 4.30406,1.28223 l 3.37495,2.21135 v -7.36407 c 0,-6.11955 -0.39433,-7.36627 -2.33334,-7.3771 -3.44329,-0.0192 -16.02296,-6.15543 -20.71785,-10.10592 -4.68183,-3.9395 -11.61548,-12.35015 -11.61548,-14.08979 0,-3.69252 19.39014,5.02931 27.21392,12.24102 l 6.0802,5.60453 -2.65596,-7.81841 c -1.46077,-4.30012 -4.1,-10.5184 -5.86494,-13.8184 -4.71326,-8.81258 -6.42281,-19.96549 -4.63448,-30.23481 0.80759,-4.63752 2.04049,-8.43186 2.73978,-8.43186 4.33097,0 9.57516,23.96184 7.7329,35.33333 -0.85507,5.278 -0.5055,8.40909 1.67822,15.03161 1.51704,4.60072 2.9676,8.1556 3.22347,7.89973 0.25587,-0.25587 1.35859,-14.82009 2.45051,-32.36494 1.09191,-17.54485 2.36774,-36.25464 2.83517,-41.5773 l 0.84989,-9.67757 28.84232,-25.58506 c 15.8633,-14.07178 33.6423,-29.81687 39.509,-34.98909 5.8667,-5.17223 10.9818,-9.82131 11.3671,-10.33131 0.3852,-0.50999 19.2852,-1.14163 42,-1.40364 37.5104,-0.43268 44.1508,-0.86751 72.3761,-4.73941 17.0921,-2.34466 31.908,-4.26302 32.9242,-4.26302 1.0162,0 10.7318,13.14236 21.5901,29.20523 10.8584,16.06288 19.8716,29.08379 20.0294,28.93536 0.1578,-0.14844 -1.2102,-3.97627 -3.04,-8.5063 -1.8297,-4.53003 -4.7132,-13.80094 -6.4077,-20.60202 -3.6001,-14.44969 -8.4376,-24.60899 -14.3481,-30.13288 -4.7812,-4.46836 -4.4898,-8.23272 0.6371,-8.23272 4.5406,0 6.8037,3.05686 4.8986,6.61662 -1.2062,2.25373 -0.9722,3.51649 1.2225,6.59873 4.096,5.75224 7.4127,14.27879 10.1595,26.11798 l 2.4748,10.66667 0.9747,-13.82076 c 0.536,-7.60142 1.3267,-14.73819 1.757,-15.85949 0.4303,-1.1213 -0.2049,-3.12962 -1.4115,-4.46292 -2.711,-2.9956 -1.5593,-6.5235 2.1295,-6.5235 3.4703,0 4.9157,3.5609 2.8125,6.92872 -0.8846,1.41651 -2.2782,10.78703 -3.0969,20.82338 l -1.4884,18.2479 4.8939,10.53732 c 2.6917,5.79553 7.9296,15.58118 11.6398,21.74588 5.5431,9.21024 7.046,13.09479 8.4293,21.78841 0.9259,5.81891 2.0018,10.89813 2.3908,11.28714 1.6018,1.60179 4.0825,-15.83474 3.3076,-23.2486 -0.8738,-8.36002 0.7156,-11.61248 4.8917,-10.00998 3.5303,1.35471 4.2425,6.11702 1.2742,8.52059 -1.7604,1.42547 -2.9011,4.53133 -3.4831,9.48382 -0.4761,4.0503 -1.9604,10.63372 -3.2986,14.62981 -3.9536,11.80634 -2.512,12.6841 6.0643,3.69266 5.2156,-5.468 7.5585,-9.00478 7.6012,-11.47454 0.081,-4.70359 4.2914,-5.69956 5.8848,-1.39216 0.945,2.55466 0.5308,3.46436 -2.3848,5.23744 -4.1115,2.50032 -18.9209,18.52394 -18.2278,19.72223 0.2588,0.44732 3.6807,20.86718 7.6043,45.37746 l 7.1339,44.56414 -40.5837,39.7692 c -33.2893,32.62121 -41.2415,39.76919 -44.2436,39.76919 -2.8372,0 -4.5879,1.34872 -7.788,6 -2.4104,3.5033 -5.0724,5.91478 -6.3974,5.79521 -1.2481,-0.11264 -8.8693,-0.63793 -16.936,-1.16731 z m 21.6464,-5.92811 c 1.6389,-2.5303 2.2389,-4.37633 1.3334,-4.10231 -0.9056,0.27403 -18.7464,1.28688 -39.6464,2.25077 -20.9,0.96389 -36.8,1.9381 -35.3334,2.16492 3.0131,0.46595 57.1333,3.88652 65.3334,4.12927 4.6929,0.13892 5.6911,-0.39456 8.313,-4.44265 z m -129.313,-0.32146 c -2.0167,-0.3055 -5.3167,-0.3055 -7.3334,0 -2.0166,0.3055 -0.3666,0.55545 3.6667,0.55545 4.0333,0 5.6833,-0.24995 3.6667,-0.55545 z m 89,-3.78813 c 23.4666,-1.16739 43.3748,-2.34287 44.2404,-2.61219 0.8655,-0.26931 4.5848,-4.87454 8.265,-10.23384 3.6801,-5.35929 16.622,-23.44113 28.7596,-40.18187 l 22.0683,-30.43769 v -34.49668 c 0,-39.34286 -0.9354,-46.26744 -6.9314,-51.31278 -8.0643,-6.78561 -27.853,-12.41936 -33.9176,-9.65614 -2.6135,1.19078 -3.6742,1.05592 -5.419,-0.68897 -1.7904,-1.79037 -1.8698,-2.53078 -0.4542,-4.23646 2.0971,-2.52679 3.859,-2.61063 6.6172,-0.31487 1.1578,0.96363 6.005,2.49229 10.7717,3.39702 4.7666,0.90474 11.4789,3.00587 14.916,4.66918 l 6.2494,3.0242 -2.5699,-3.60905 c -4.7562,-6.67944 -17.2099,-17.01481 -24.932,-20.69119 -4.2149,-2.00668 -11.8178,-4.74823 -16.8952,-6.09234 -8.5171,-2.25467 -9.4163,-2.27675 -11.617,-0.28515 -2.6361,2.38567 -6.116,1.68085 -7.3307,-1.48479 -1.7448,-4.54685 5.4782,-8.07122 8.667,-4.22896 0.8145,0.98136 4.938,2.54759 9.1633,3.4805 4.2253,0.93291 9.7245,2.53785 12.2205,3.56653 2.4959,1.02869 4.7518,1.65652 5.0132,1.39519 1.2102,-1.21024 -9.2696,-12.89319 -11.5655,-12.89319 -3.0718,0 -5.573,-4.09855 -4.0273,-6.59947 1.4836,-2.40049 5.1008,-0.84776 6.7527,2.89864 0.7358,1.66879 3.7237,6.03416 6.6399,9.70083 2.9162,3.66667 5.3052,7.32036 5.3089,8.11931 0,0.79896 1.3567,2.1398 3.0067,2.97966 1.65,0.83986 4.4702,2.58616 6.267,3.88069 2.5789,1.85787 3.0863,1.93237 2.4087,0.35367 -0.4721,-1.1 -2.4742,-5.89375 -4.4491,-10.65278 -1.9749,-4.75902 -4.5063,-9.32226 -5.6253,-10.14052 -2.6281,-1.92171 -1.0626,-6.22193 2.0471,-5.62306 1.6373,0.31533 2.5805,2.2474 3.1953,6.54528 1.1596,8.10657 8.8797,24.46441 14.9437,31.6639 l 4.8792,5.79282 -0.032,-8.45948 c -0.039,-10.36871 -1.6298,-17.64496 -4.4812,-20.4964 -3.9973,-3.99727 -1.3121,-9.70035 3.384,-7.18711 2.585,1.38346 3.4774,7.89069 1.0821,7.89069 -0.8851,0 -0.805,1.0748 0.2235,2.99646 0.882,1.64806 1.6993,8.80196 1.8162,15.89755 0.1419,8.61303 0.8432,13.85327 2.1099,15.76582 1.6676,2.51779 1.8166,0.20909 1.2307,-19.0626 l -0.6667,-21.92735 -6,-6.68147 c -3.3,-3.6748 -19.5946,-20.50575 -36.2103,-37.40209 l -30.2104,-30.72062 -23.123,-0.58489 c -19.5029,-0.49332 -27.6129,-0.0253 -51.8029,2.98924 l -28.6799,3.57413 -32.6534,21.24188 c -17.9594,11.68303 -37.2669,24.24309 -42.9056,27.91124 -5.6387,3.66815 -11.2643,7.28784 -12.5014,8.04376 -2.07889,1.27032 -2.11576,2.98678 -0.4869,22.66667 l 1.7622,21.29227 1.5106,-8.32701 c 0.8308,-4.57986 1.8322,-8.64858 2.2252,-9.04161 0.9787,-0.97871 4.9599,5.29726 6.8818,10.84847 l 1.5788,4.56038 5.3076,-7.34631 c 2.9192,-4.04047 5.7208,-7.34952 6.2259,-7.35345 1.5773,-0.0123 2.7608,11.70631 1.8175,17.99641 l -0.9002,6.00355 4.7447,-2.79945 c 2.6095,-1.53969 7.4466,-3.61259 10.7489,-4.60644 8.646,-2.60209 7.9929,0.12604 -2.5554,10.6744 l -8.5596,8.55956 4.2263,0.83245 c 5.9422,1.17045 11.5595,3.46276 11.5595,4.7172 0,0.58371 -2.7041,2.09401 -6.0091,3.35621 -5.863,2.23908 -11.564,2.20812 -22.7447,-0.12353 -3.863,-0.80561 -4.1761,-0.55511 -5.7114,4.56919 -3.2347,10.79645 -4.4682,27.71776 -3.112,42.68999 l 1.3067,14.42457 15.0982,25.44194 c 8.3041,13.99307 15.2152,25.32505 15.3581,25.18218 0.1428,-0.14286 -1.1979,-7.43443 -2.9795,-16.20349 -2.3775,-11.70177 -4.0571,-16.84542 -6.3133,-19.3328 -4.7219,-5.20598 -7.1885,-9.70473 -10.1646,-18.53929 -2.8461,-8.44856 -3.6186,-17.51645 -1.4921,-17.51645 1.9973,0 9.2579,9.4552 12.8165,16.69044 2.2749,4.62527 3.6835,10.593 4.5635,19.33334 1.1866,11.7852 3.6769,23.44049 3.9358,18.42009 0.3561,-6.90664 14.0356,-29.11054 17.9346,-29.11054 1.3252,0 1.5077,1.66516 0.7744,7.06865 -1.3576,10.00442 -5.8964,19.70852 -12.0102,25.67848 -2.888,2.82007 -5.2509,6.39673 -5.2509,7.94813 0,6.02887 4.2429,16.53439 11.9205,29.51551 l 8.0106,13.54411 11.0344,0.80382 c 6.069,0.4421 13.4345,1.03385 16.3678,1.315 6.1953,0.59379 15.3893,0.26571 73.3334,-2.61683 z m -135.3334,-65.92354 c 0,-0.73333 0.6354,-1.33333 1.4121,-1.33333 0.7766,0 1.0412,0.6 0.5879,1.33333 -0.4532,0.73334 -1.0886,1.33334 -1.412,1.33334 -0.3234,0 -0.588,-0.6 -0.588,-1.33334 z m 16.6667,-17.33333 c -0.4532,-0.73333 -0.1886,-1.33333 0.588,-1.33333 0.7766,0 1.412,0.6 1.412,1.33333 0,0.73333 -0.2646,1.33333 -0.588,1.33333 -0.3234,0 -0.9588,-0.6 -1.412,-1.33333 z m -30,-6.66667 c 0,-0.73333 0.6,-1.33333 1.3333,-1.33333 0.7334,0 1.3334,0.6 1.3334,1.33333 0,0.73334 -0.6,1.33334 -1.3334,1.33334 -0.7333,0 -1.3333,-0.6 -1.3333,-1.33334 z m 1.3333,-29.33333 c 0,-0.73333 0.6,-1.33333 1.3334,-1.33333 0.7333,0 1.3333,0.6 1.3333,1.33333 0,0.73333 -0.6,1.33333 -1.3333,1.33333 -0.7334,0 -1.3334,-0.6 -1.3334,-1.33333 z m 3.3334,-12 c -0.4533,-0.73333 -0.1887,-1.33333 0.5879,-1.33333 0.7767,0 1.4121,0.6 1.4121,1.33333 0,0.73333 -0.2646,1.33333 -0.588,1.33333 -0.3234,0 -0.9588,-0.6 -1.412,-1.33333 z m 206,-57.33334 c 0,-0.73333 0.6,-1.33333 1.3333,-1.33333 0.7333,0 1.3333,0.6 1.3333,1.33333 0,0.73334 -0.6,1.33334 -1.3333,1.33334 -0.7333,0 -1.3333,-0.6 -1.3333,-1.33334 z m -21.3334,-4 c 0,-0.73333 0.6,-1.33333 1.3334,-1.33333 0.7333,0 1.3333,0.6 1.3333,1.33333 0,0.73334 -0.6,1.33334 -1.3333,1.33334 -0.7334,0 -1.3334,-0.6 -1.3334,-1.33334 z m -192,-6.66666 c 0,-0.73334 0.6,-1.33334 1.3334,-1.33334 0.7333,0 1.3333,0.6 1.3333,1.33334 0,0.73333 -0.6,1.33333 -1.3333,1.33333 -0.7334,0 -1.3334,-0.6 -1.3334,-1.33333 z m 45.1688,194.65894 c -2.1722,-3.86493 -3.336,-4.87831 -4.2111,-3.66667 -0.8493,1.17604 -0.9895,0.98943 -0.4709,-0.62695 1.2066,-3.76089 -17.2193,-33.44959 -27.8114,-44.81098 -8.7835,-9.42153 -23.0643,-20.22101 -26.73943,-20.22101 -4.37225,0 -1.99234,4.71914 9.20063,18.24403 6.7082,8.10577 19.8992,24.11686 29.3133,35.58021 13.7006,16.68286 17.7756,20.84243 20.4187,20.84243 h 3.3021 z m 173.3743,-12.57947 c 8.5013,-8.38963 26.6636,-26.23963 40.3607,-39.66667 l 24.9038,-24.4128 -1.817,-10.66667 c -0.9993,-5.86666 -4.0069,-24.46666 -6.6835,-41.33333 -2.6765,-16.86667 -5.1528,-31.56275 -5.5028,-32.65797 -0.4949,-1.54861 -1.2242,-1.2522 -3.2806,1.33333 -3.9004,4.90422 -4.9021,7.98011 -7.1522,21.96346 -1.265,7.86101 -2.0381,21.46228 -2.0381,35.85398 v 23.18817 l -28.6667,39.72958 c -15.7667,21.85127 -28.6667,40.22305 -28.6667,40.82618 0,3.13376 4.5147,-0.3131 18.5431,-14.15726 z m -204.7083,10.43724 c 9.4018,-3.20351 6.7689,-3.47475 -5.9274,-0.61063 -9.3639,2.11239 -10.3342,2.55454 -5.8116,2.64818 2.9861,0.0618 8.2686,-0.85507 11.739,-2.03755 z m -3.8348,-3.2484 9.3334,-2.51408 -8,0.47402 c -8.3193,0.49294 -20.8041,4.55426 -14,4.55419 1.8333,-2e-5 7.5333,-1.13138 12.6666,-2.51413 z m -9.4233,-18.45606 c 1.1818,-1.91221 -9.0577,-11.26858 -16.78922,-15.3412 l -7.12078,-3.7509 4,3.49071 c 2.2,1.9199 7.45,5.9698 11.6667,8.99979 4.2166,3.02998 7.6666,5.72213 7.6666,5.98254 0,1.63156 -3.5632,-0.43214 -11.9963,-6.94794 -10.6498,-8.22845 -13.29482,-8.98235 -5.64586,-1.6092 7.98206,7.69421 16.48726,11.978 18.21886,9.1762 z m 37.2946,-35.72433 c 6.6385,-13.26386 7.51,-15.88057 3.6421,-10.9344 -3.3409,4.27221 -8.905,15.57396 -10.0977,20.51041 -1.3519,5.5954 -0.5197,4.36093 6.4556,-9.57601 z m 5.576,-2.09773 c 1.1868,-3.57295 1.9192,-6.73487 1.6276,-7.02648 -0.2917,-0.29162 -3.0653,4.69725 -6.1637,11.08637 -5.4156,11.16718 -5.4786,11.43901 -1.6275,7.02648 2.2032,-2.52455 4.9769,-7.51342 6.1636,-11.08637 z m -29.0918,9.34314 c -1.0731,-1.65 -5.6012,-9.3 -10.0623,-17 l -8.1112,-14 -3.2119,-34.70767 c -3.0037,-32.45695 -3.4386,-35.05088 -6.70584,-40 -3.91085,-5.92398 -8.03524,-16.63242 -6.85905,-17.80861 0.42184,-0.42184 2.5852,0.27654 4.80748,1.55195 l 4.04051,2.31893 -0.74795,-6.34397 c -0.41137,-3.48918 -1.09308,-10.84396 -1.51491,-16.34396 -0.42183,-5.5 -1.10298,-12.29751 -1.51367,-15.10557 l -0.7467,-5.10556 -2.99504,2.8137 c -2.68987,2.527 -3.0851,4.54161 -3.87895,19.77223 -0.48614,9.32719 -1.45371,25.35853 -2.15014,35.6252 -0.69642,10.26666 -1.62199,25.56667 -2.0568,34 -0.43482,8.43333 -1.04522,16.58401 -1.35646,18.11261 -0.37355,1.83463 0.78349,4.07207 3.40412,6.58279 l 3.97,3.80351 0.0182,-3.24946 c 0.0294,-5.2375 1.49318,-9.24945 3.37484,-9.24945 3.09205,0 7.53736,14.46647 6.96196,22.65635 -0.2838,4.03901 -0.9555,8.29345 -1.49271,9.45433 -0.73776,1.59429 1.07611,3.44556 7.41381,7.56688 4.6148,3.00091 11.0655,8.2011 14.3349,11.55599 6.5718,6.74378 8.0248,7.63073 5.0779,3.09978 z m -36.35546,-62.33333 c -0.45323,-0.73333 -0.18864,-1.33333 0.58797,-1.33333 0.77661,0 1.41203,0.6 1.41203,1.33333 0,0.73333 -0.26459,1.33333 -0.58798,1.33333 -0.32339,0 -0.9588,-0.6 -1.41202,-1.33333 z m 3.33333,-28.07869 c 0,-0.77661 0.6,-1.0412 1.33333,-0.58798 0.73334,0.45323 1.33334,1.08864 1.33334,1.41202 0,0.32339 -0.6,0.58798 -1.33334,0.58798 -0.73333,0 -1.33333,-0.63541 -1.33333,-1.41202 z m -10.51062,87.30388 c 4.10412,-2.84416 13.13756,-13.89186 11.35904,-13.89186 -3.32143,0 -11.0253,5.18757 -14.18835,9.55404 -6.20591,8.56701 -5.29304,9.96661 2.82931,4.33782 z m 2.51062,-13.08193 6,-1.81625 -6,-1.71834 c -8.36931,-2.39689 -19.04149,-0.96215 -24.70787,3.32165 -2.39606,1.81144 -1.69343,1.98681 8.0412,2.00703 5.86667,0.0122 13.36667,-0.79515 16.66667,-1.79409 z m 45.42193,-7.14326 c -6.0118,-14.99508 -8.6436,-20.66823 -9.0386,-19.48344 -1.0821,3.24627 8.5232,25.81677 10.9868,25.81677 0.325,0 -0.5517,-2.85 -1.9482,-6.33333 z m -36.1099,2.66667 c -0.0341,-1.60298 -6.95709,-8.866 -11.31203,-11.8677 -4.4069,-3.03752 -17.2328,-7.61026 -19.35838,-6.90173 -1.91801,0.63933 5.88633,9.72085 11.14869,12.97317 3.61958,2.23702 7.89354,3.72959 19.20969,6.70851 0.18333,0.0483 0.32375,-0.36225 0.31203,-0.91225 z m 38.1251,-7.99406 c -1.1629,-3.4866 -3.6472,-8.73928 -5.5207,-11.67261 -4.0157,-6.28738 -3.9669,-6.07673 2.0836,8.99525 4.8272,12.02484 7.1613,13.84298 3.4371,2.67736 z M 998.70477,601.2487 c -0.60611,-3.24434 -1.96134,-7.53886 -3.01161,-9.54338 l -1.90959,-3.64459 -0.92421,6.1631 c -0.7194,4.79726 -0.23709,8.04423 2.17631,14.65144 l 3.10053,8.48834 0.83529,-5.10805 c 0.45941,-2.80943 0.33938,-7.76252 -0.26672,-11.00686 z m -7.16751,5.04854 c -3.55732,-7.92676 -13.12354,-18.93369 -14.90616,-17.15107 -1.7335,1.7335 5.04564,13.48126 11.33845,19.6487 3.42204,3.35386 6.42608,5.94966 6.67566,5.76845 0.24958,-0.18122 -1.149,-3.90095 -3.10795,-8.26608 z m -13.43555,-36.12178 c 1.08181,-1.7504 -8.80735,-10.20803 -16.48475,-14.09846 -7.81785,-3.96161 -7.94501,-3.98493 -7.56373,-1.38708 0.51702,3.52271 7.94544,10.26478 14.80487,13.437 7.64297,3.53458 8.243,3.66755 9.24361,2.04854 z m -13.05671,-6.9113 c -5.76388,-3.69533 -10.18195,-7.01661 -9.81794,-7.38062 0.59077,-0.59077 18.38933,10.14317 21.56437,13.00502 3.58506,3.23142 -2.41297,0.35946 -11.74643,-5.6244 z m 46.3353,-14.58369 c 0.81,-2.88298 0.375,-3.56353 -3.1218,-4.88341 l -4.063,-1.53359 0.7347,7.55007 c 0.4041,4.15254 1.0821,9.65007 1.5066,12.21674 0.7665,4.63385 0.7833,4.6151 2.3871,-2.66667 0.8884,-4.03333 2.0387,-8.84075 2.5564,-10.68314 z m 265.1675,-22.7135 3.3209,-8.72998 -2.264,-13.40033 c -1.2452,-7.37019 -3.4226,-15.28814 -4.8386,-17.59546 -1.4161,-2.30733 -14.5747,-21.884 -29.2413,-43.50372 -25.0544,-36.93201 -26.9085,-39.30708 -30.6667,-39.28378 -2.2,0.0136 -14.5,1.43957 -27.3333,3.16874 l -23.3334,3.14394 15.4323,0.13195 15.4322,0.13194 8.5645,9 c 4.7104,4.95001 21.6159,22.265 37.5677,38.47777 l 29.0033,29.47776 0.094,35.18891 0.094,35.1889 2.424,-11.33333 c 1.3332,-6.23334 3.9183,-15.26183 5.7448,-20.06331 z m -5.023,-3.93669 c 0.4532,-0.73334 1.0886,-1.33334 1.412,-1.33334 0.3234,0 0.588,0.6 0.588,1.33334 0,0.73333 -0.6354,1.33333 -1.412,1.33333 -0.7767,0 -1.0413,-0.6 -0.588,-1.33333 z m -230.6667,24.05313 c 2.4778,-1.01537 2.4008,-1.19763 -1.0868,-2.57295 -4.9734,-1.96127 -14.5733,-1.88164 -19.0498,0.158 l -3.5954,1.63818 3.1993,0.89558 c 4.5031,1.26053 17.3481,1.1862 20.5327,-0.11881 z m -69.841,-16.7198 c -1.93215,-11.93239 -2.20198,-12.66105 -2.56804,-6.93498 -0.35038,5.48063 3.11175,22.13063 4.31361,20.74496 0.22738,-0.26215 -0.55813,-6.47665 -1.74557,-13.80998 z m 4.79888,3.66667 c -0.67494,-9.21929 -3.17969,-19.8893 -4.38582,-18.68317 -0.24912,0.24912 0.40122,6.42975 1.44521,13.73473 1.044,7.30497 1.9172,13.73177 1.94045,14.28177 0.0232,0.55 0.42802,1 0.89947,1 0.47146,0 0.51677,-4.65 0.10069,-10.33333 z m 32.23172,4.05141 c -1.3876,-2.72173 -2.5229,-5.65191 -2.5229,-6.51152 0,-1.4348 -9.85691,-11.20656 -11.3042,-11.20656 -2.27402,0 5.69413,14.67163 10.3098,18.98335 5.3843,5.02963 6.5186,4.62159 3.5173,-1.26527 z m 15.463,-8.28893 c 1.1077,-3.2473 2.0141,-9.47077 2.0141,-13.82993 0,-6.83915 -0.27,-7.70166 -1.9694,-6.2913 -5.7148,4.74282 -11.8732,25.36896 -9.4368,31.60631 0.8426,2.15739 1.2929,1.98636 4.1615,-1.5809 1.7691,-2.2 4.1229,-6.65688 5.2306,-9.90418 z m 9.6065,5.25548 c 3.3753,-2.57655 7.6539,-6.6725 9.508,-9.10212 l 3.3711,-4.41748 -6.8254,2.59345 c -8.662,3.2913 -13.4186,7.04288 -17.0618,13.45687 l -2.8867,5.08218 3.8789,-1.46414 c 2.1335,-0.80528 6.6406,-3.57222 10.0159,-6.14876 z m -20.9446,-1.68463 c 0.5373,-11.41164 0.4178,-12.53295 -2.0153,-18.90373 -3.5043,-9.17585 -5.0726,-7.6386 -4.3226,4.23706 0.5243,8.30231 4.0159,21.66667 5.6606,21.66667 0.1913,0 0.4961,-3.15 0.6773,-7 z m 269.3098,-8.93333 c 0.06,-2.74347 -2.114,-0.13546 -3.279,3.93333 -0.9271,3.23804 -0.8945,3.2571 1.1411,0.66667 1.1525,-1.46667 2.1145,-3.53667 2.1379,-4.6 z m -277.7135,-1.65 c -0.4256,-1.06365 -0.7416,-0.7477 -0.8055,0.80555 -0.058,1.40556 0.2572,2.19306 0.7003,1.75 0.443,-0.44305 0.4904,-1.59305 0.1052,-2.55555 z m 27.1009,-67.69656 c 6.2269,-4.00394 21.6058,-14.00412 34.1753,-22.22262 l 22.8537,-14.94274 16.3834,-2.1256 c 9.0109,-1.16908 16.7268,-2.50383 17.1464,-2.9661 0.4195,-0.46227 -1.6372,-0.46217 -4.5705,2.2e-4 -2.9333,0.46239 -14.7121,0.84732 -26.1749,0.85539 l -20.8416,0.0147 -30.4918,26.80898 c -37.4888,32.96097 -39.42647,34.83864 -28.48,27.59804 4.7731,-3.15719 13.7731,-9.0163 20,-13.02024 z m 562.0277,248.07054 c -0.4872,-1.53485 -0.5049,-3.99064 -0.039,-5.45731 0.813,-2.56168 0.2522,-2.66435 -14.2435,-2.60782 -16.5752,0.0646 -26.7671,2.07828 -29.5108,5.83058 -2.4943,3.41112 -7.8967,1.68693 -7.3235,-2.33728 0.3647,-2.56003 1.2766,-2.89883 8.085,-3.00386 4.2207,-0.0651 7.9812,-0.42557 8.3566,-0.80102 1.0023,-1.00224 -50.4142,-2.69648 -55.6089,-1.83239 -2.4319,0.40452 -21.2216,1.64847 -41.7549,2.76435 -20.5334,1.11588 -46.6334,2.60389 -58,3.3067 -11.3667,0.7028 -23.2167,1.29347 -26.3334,1.31261 l -5.6666,0.0348 v -6.00001 -6 h -5.3334 -5.3333 l 0.1161,-9 c 0.064,-4.95 0.5173,-14.2513 1.0076,-20.66957 l 0.8915,-11.66957 -6.6743,-3.27602 c -7.2401,-3.5538 -15.6471,-11.03198 -19.544,-17.38484 -3.9182,-6.38766 -3.2933,-7.5078 2.9579,-5.30225 6.4279,2.2679 12.0803,5.9886 18.9119,12.44866 4.3527,4.11602 5,4.3786 5,2.02827 0,-2.62383 -10.8301,-19.53587 -16.2905,-25.43885 -1.4911,-1.61196 -4.5857,-3.33518 -6.877,-3.82938 -5.2329,-1.1287 -13.4979,-5.27501 -19.2602,-9.66236 -4.855,-3.6965 -12.9502,-14.64397 -11.7306,-15.86362 1.1813,-1.18129 12.856,3.59882 18.9955,7.77756 5.6259,3.82912 18.9294,18.08346 27.6356,29.61077 5.2319,6.92716 6.0943,7.15138 2.7684,0.71975 -4.7967,-9.27567 -5.0414,-24.76178 -0.5766,-36.48855 1.4154,-3.71777 1.6243,-3.81871 2.9608,-1.43058 0.7909,1.41318 2.1951,5.31318 3.1204,8.66667 l 1.6824,6.09725 0.1112,-10.66667 c 0.061,-5.86667 -0.2754,-15.46667 -0.7479,-21.33333 l -0.8592,-10.66667 -6.4721,-5.02496 c -9.5148,-7.38727 -23.8466,-30.69981 -20.7667,-33.77972 1.5295,-1.52944 14.1661,7.55313 20.6853,14.86757 l 6.2983,7.06657 -0.3888,-10.89807 c -0.2139,-5.99393 -1.3477,-15.01657 -2.5195,-20.05031 -1.5616,-6.7076 -1.8774,-11.87171 -1.1825,-19.33333 1.0345,-11.10619 1.0074,-39.50783 -0.041,-43.06915 -0.545,-1.8513 0.7836,-2.37533 7.9745,-3.1454 l 8.6283,-0.92402 0.8645,-5.11689 0.8645,-5.11689 15.5615,0.72942 c 86.3492,4.04743 96.4795,4.02167 180.1353,-0.45809 43.6844,-2.33929 82.808,-4.28929 86.9415,-4.33333 l 7.5153,-0.0801 1.1513,7.66667 1.1514,7.66666 5.8016,0.41659 5.8016,0.4166 -0.7828,11.5834 c -0.4306,6.37088 -1.1076,18.78341 -1.5043,27.58341 -0.3968,8.8 -1.0641,20.60922 -1.4829,26.2427 -0.724,9.74038 -0.6316,10.20876 1.8856,9.55051 1.4558,-0.3807 2.9513,-0.18992 3.3235,0.42397 0.3721,0.61389 0.2201,7.41616 -0.3378,15.11616 -0.5579,7.7 -0.8986,14.14602 -0.7572,14.3245 0.9999,1.26151 7.7787,-12.03105 8.7516,-17.16099 0.6624,-3.49315 2.1017,-8.49865 3.1984,-11.12335 1.0966,-2.6247 1.6911,-5.56134 1.321,-6.52588 -0.8272,-2.1556 2.8077,-5.40093 4.7233,-4.21705 2.0616,1.27413 1.6872,6.00642 -0.5429,6.86218 -1.7526,0.67253 -4.491,6.70904 -6.7864,14.95998 -0.7434,2.6721 0.2304,2.22493 6.7907,-3.11853 4.2121,-3.43086 8.9442,-6.82375 10.5157,-7.53976 1.5715,-0.71602 3.4326,-2.61268 4.1359,-4.21481 1.5563,-3.54529 7.0224,-3.91537 9.1034,-0.61632 2.0732,3.28658 -0.7684,5.65286 -6.3378,5.27778 -3.5063,-0.23613 -6.0858,0.92026 -11.6612,5.22782 -10.7,8.26678 -16.6248,15.37593 -22.5176,27.01882 -6.625,13.08964 -6.9123,16.21697 -0.9748,10.60993 2.3834,-2.25066 7.6012,-6.30312 11.5953,-9.00546 3.994,-2.70233 8.078,-6.07858 9.0756,-7.50276 2.1571,-3.07976 6.7625,-3.41546 7.8535,-0.57246 1.1698,3.04851 -2.0272,5.98302 -6.5183,5.98302 -5.1514,0 -19.7217,10.27396 -25.2347,17.79377 l -4.0612,5.53957 0.6262,21.69014 c 0.5084,17.61144 1.0371,22.14424 2.8116,24.10499 1.2019,1.32816 2.1854,4.0176 2.1854,5.97652 0,2.9014 0.6122,3.56168 3.3026,3.56168 7.008,0 11.2997,14.27112 6.2298,20.71637 -1.5376,1.95479 -3.1638,5.74329 -3.6138,8.4189 -1.3051,7.76038 -1.8048,8.98606 -5.314,13.03502 -2.2516,2.59787 -3.2043,5.11634 -2.9619,7.82971 0.2923,3.27297 -0.192,4.07797 -2.6648,4.42896 -3.0987,0.43985 -6.9779,7.33356 -6.9779,12.40054 0,2.17442 -1.0643,2.50384 -8.089,2.50384 -6.4158,0 -8.9668,0.65149 -12.3333,3.14979 -6.0305,4.47531 -9.2737,4.91783 -18.6335,2.54251 -6.9128,-1.75433 -9.5514,-1.83323 -16.2645,-0.48633 -16.4228,3.29504 -18.9974,3.32743 -19.9737,0.25134 z m 17.8342,-2.1642 c 6.1641,-1.30803 10.3976,-1.46002 15.2158,-0.54627 3.6716,0.69629 6.9012,1.04038 7.1769,0.76465 0.2757,-0.27574 -2.0714,-1.74872 -5.2158,-3.27329 -3.1444,-1.52457 -4.8172,-2.82819 -3.7172,-2.89693 1.1,-0.0687 -0.1,-0.94675 -2.6666,-1.95113 -12.9653,-5.07353 -17.1079,-6.29773 -22,-6.50142 -4.6436,-0.19334 -5.2785,0.12282 -4.909,2.44461 0.2335,1.46667 0.41,5.04768 0.3924,7.9578 -0.034,5.53903 1.8065,7.87524 5.1832,6.58088 1.1,-0.42165 5.8432,-1.58216 10.5403,-2.5789 z m 27.7653,1.23467 c -0.4431,-0.44306 -1.5931,-0.49043 -2.5556,-0.10527 -1.0636,0.42564 -0.7477,0.74158 0.8056,0.80556 1.4056,0.0579 2.1931,-0.25724 1.75,-0.70029 z m -203.8947,-7.23736 c 25.4407,-1.49027 46.8558,-2.89155 47.5891,-3.11395 0.7334,-0.2224 -14.5666,-0.80891 -34,-1.30335 -19.4333,-0.49444 -44.4833,-1.28384 -55.6666,-1.75423 l -20.3334,-0.85525 v 4.86818 4.86818 h 8.0775 c 4.4427,0 28.8927,-1.21931 54.3334,-2.70958 z m 208.0354,0.20737 c 1.0412,-0.66003 -1.1715,-0.8843 -5.3334,-0.54057 -9.7696,0.80689 -11.0968,1.48215 -3.1129,1.58376 3.6667,0.0467 7.4675,-0.42277 8.4463,-1.04319 z m 7.0033,-3.24828 c -1.0438,-1.04379 -1.9161,-0.97956 -3.1162,0.22948 -1.337,1.34687 -1.1618,1.48667 0.8854,0.70675 1.9185,-0.73091 2.2811,-0.53389 1.4606,0.79368 -0.7535,1.21921 -0.5788,1.44917 0.5641,0.74277 1.1922,-0.73679 1.2499,-1.42889 0.2061,-2.47268 z m 15.8838,2.46407 c 0,-2.12767 -5.0527,-2.95135 -8.0219,-1.30774 -3.2328,1.78946 -3.1769,1.83412 2.3552,1.88024 3.1167,0.026 5.6667,-0.23164 5.6667,-0.5725 z m -23.3334,-2.64809 4,-1.81423 -4.7673,0.67774 c -4.1655,0.59218 -20.6591,-2.57769 -22.3832,-4.30178 -1.5116,-1.51158 1.1718,-2.04303 3.6416,-0.72123 1.4956,0.80046 6.497,1.79073 11.1142,2.20059 l 8.3947,0.74522 -6,-2.88337 c -3.3,-1.58585 -8.7,-3.40651 -12,-4.04591 -5.6742,-1.09942 -5.5656,-1.13254 2,-0.61004 l 8,0.5525 -3.3333,-2.54903 c -1.8333,-1.40197 -4.9833,-2.91926 -7,-3.37177 -2.0167,-0.4525 -3.6667,-1.41549 -3.6667,-2.13997 0,-1.99977 5.0253,-0.0329 14.5825,5.7075 9.985,5.99734 14.2262,7.02785 5.0974,1.23855 -3.3965,-2.15402 -7.1363,-5.38272 -8.3105,-7.17489 -1.2618,-1.92571 -6.3413,-5.06733 -12.4189,-7.68094 -5.6561,-2.43235 -13.2352,-6.37635 -16.8426,-8.76445 -7.0844,-4.68997 -8.7745,-4.67028 -8.7745,0.10223 0,3.74194 -4.4169,9.63056 -8.1006,10.79972 -2.3245,0.73775 -2.6425,1.80951 -2.2986,7.74548 l 0.3992,6.88925 11.167,1.0115 c 6.6052,0.59829 13.6861,2.16785 17.3334,3.84215 7.0163,3.22086 17.9021,6.22738 22.8329,6.30616 1.8333,0.0293 5.1333,-0.76315 7.3333,-1.76098 z m -74.6666,-0.73216 c 1.8071,-0.77655 -0.6894,-1.17611 -7.7454,-1.23962 -6.6239,-0.0596 -10.1122,0.39138 -9.588,1.23962 0.9937,1.60771 13.5921,1.60771 17.3334,0 z m 24.6666,-0.66667 c 0,-2.67591 -13.9856,-2.67591 -18.6666,0 -3.0948,1.76915 -2.5462,1.90889 7.6666,1.95276 8.9099,0.0383 11,-0.33278 11,-1.95276 z m -46.0227,-2.02683 c 11.7208,-0.71858 23.1208,-1.35753 25.3333,-1.41989 3.0708,-0.0866 2.2873,-0.5465 -3.3106,-1.94351 -10.5231,-2.62617 -29.7713,-2.49308 -35.5429,0.24575 -4.8416,2.29748 -8.1635,1.10977 -6.8036,-2.43256 0.5009,-1.30468 4.3302,-1.74547 14.8919,-1.71423 13.8016,0.0408 14.1284,-0.0261 11.1695,-2.28721 -4.7035,-3.59419 -13.2265,-6.03881 -31.0307,-8.90044 -3.3808,-0.5434 -5.4674,-1.64269 -5.7321,-3.01997 -0.5741,-2.98664 3.2035,-4.15504 5.6203,-1.73832 2.4684,2.46847 11.9962,5.90388 16.3738,5.90388 3.135,0 3.0503,-0.21738 -1.9469,-5 -2.8734,-2.75 -6.8949,-7.25 -8.9367,-10 -2.0418,-2.75 -4.5201,-5 -5.5072,-5 -3.2184,0 -4.6453,-4.6116 -2.4131,-7.79855 1.6652,-2.3773 2.4901,-2.62354 4.7454,-1.41652 2.0753,1.1107 2.5548,2.33591 2,5.1103 -0.5817,2.90845 0.4045,5.02685 4.8579,10.43454 6.3871,7.75583 16.4716,16.07656 24.2544,20.01233 4.8533,2.45429 18.3701,6.99123 20.8289,6.99123 0.5563,0 -2.2642,-3.09808 -6.268,-6.88463 -4.0037,-3.78655 -8.453,-8.78352 -9.8874,-11.10439 -1.4344,-2.32087 -4.1637,-4.92859 -6.0651,-5.79493 -4.6659,-2.12593 -4.1613,-7.54938 0.7024,-7.54938 2.7734,0 3.4385,0.78617 4.0981,4.84455 1.6039,9.86689 19.9951,27.90634 28.3446,27.80246 0.8689,-0.0108 0.08,-0.77449 -1.7535,-1.69707 -5.7992,-2.91833 -5.347,-15.78583 0.6508,-18.51863 l 3.2439,-1.478 -2.614,-3.32313 c -3.5067,-4.458 -3.3209,-6.45617 1.4961,-16.09587 4.3406,-8.68637 6.8566,-10.86764 12.5351,-10.86764 5.6491,0 11.0385,-3.52459 11.986,-7.83857 1.2239,-5.57228 4.7532,-8.15735 11.9802,-8.77514 3.4762,-0.29715 6.6291,-0.84903 7.0065,-1.2264 0.3774,-0.37737 -0.6253,-2.35337 -2.2282,-4.39112 -3.687,-4.68726 -1.1527,-5.93025 3.3899,-1.66265 2.5262,2.37324 3.6131,2.70124 4.8504,1.46386 1.2374,-1.23738 0.9964,-2.01377 -1.0754,-3.46496 -4.343,-3.04195 -14.3818,-18.10502 -12.0661,-18.10502 1.0957,0 4.1216,2.55 6.7243,5.66666 2.6028,3.11667 6.2257,7.46667 8.0509,9.66667 l 3.3187,4 0.042,-3.79417 c 0.061,-5.50611 -4.1499,-10.58768 -15.0248,-18.13055 -8.6578,-6.00514 -18.5306,-17.58888 -16.6196,-19.49985 0.861,-0.861 24.012,19.68782 27.446,24.36108 l 2.7409,3.73016 -1.3258,-5.97327 c -1.4391,-6.484 -3.4962,-9.54612 -15.2034,-22.63114 -7.6354,-8.53415 -16.5437,-24.66664 -14.6117,-26.46137 0.5531,-0.51382 1.2357,-0.29755 1.5169,0.4806 0.2812,0.77815 3.3933,5.27815 6.9158,10 3.5224,4.72185 8.7011,12.34428 11.5081,16.93873 2.8071,4.59446 5.3554,8.10194 5.6629,7.79439 0.3076,-0.30754 -0.6331,-4.66664 -2.0903,-9.68689 -3.9673,-13.66762 -7.7856,-40.46106 -5.766,-40.46106 2.5451,0 5.6606,11.22598 6.9698,25.11388 0.7373,7.8207 2.031,17.21946 2.875,20.88613 1.355,5.88646 1.6466,6.27656 2.4919,3.33333 0.5265,-1.83333 1.0171,-6.1538 1.0902,-9.60104 0.1812,-8.54313 2.5333,-18.91588 4.9703,-21.91883 1.8196,-2.24211 1.9395,-1.39246 1.2492,8.8532 -0.7632,11.32742 -3.4858,22.86626 -6.1538,26.08099 -1.4982,1.80527 1.0546,17.91901 2.8389,17.91901 0.9764,0 2.7454,-4.20751 5.3254,-12.66666 2.3329,-7.64881 8.0093,-19.33334 9.3923,-19.33334 3.42,0 -2.7136,18.86719 -9.3843,28.86658 -3.9332,5.89585 -5.0315,8.69523 -4.4989,11.46676 0.3876,2.01666 1.1012,3.66666 1.5859,3.66666 0.4847,0 2.5485,-3.82713 4.5863,-8.50474 3.4021,-7.80947 10.2216,-16.59701 10.2216,-13.17155 0,2.68912 -5.4921,14.29941 -8.8412,18.69035 -3.0795,4.03741 -3.1604,4.50812 -1.1248,6.54369 2.0355,2.03556 2.5053,1.84262 6.5308,-2.68221 6.7452,-7.58171 8.5013,-6.11678 2.7779,2.31717 -2.8448,4.19205 -3.0226,5.01382 -1.2332,5.70046 1.1499,0.44126 4.355,0.1239 7.1224,-0.70524 l 5.0317,-1.50753 0.8613,-13.00687 c 1.6275,-24.57716 1.1211,-36.77839 -1.8005,-43.38321 -1.4716,-3.32677 -3.0621,-8.95304 -3.5344,-12.50283 -0.4723,-3.54978 -1.6683,-6.93397 -2.6577,-7.52041 -3.1811,-1.88548 -1.2712,-8.93375 2.4208,-8.93375 2.3087,0 3.8534,5.25232 2.2839,7.7655 -1.2163,1.94775 -1.0819,4.21638 0.6141,10.36404 2.1519,7.79982 2.165,7.6371 1.4624,-18.12954 -0.9977,-36.59441 -3.0972,-86.96147 -3.6477,-87.51202 -0.2545,-0.25451 -39.7184,-1.95911 -87.6976,-3.78801 -81.7935,-3.11785 -89.2309,-3.20753 -119.2349,-1.43771 -17.6,1.03816 -41.3,2.26463 -52.6666,2.72548 -11.3667,0.46085 -22.2703,1.13962 -24.2302,1.50838 -4.1839,0.78718 -4.6005,2.60376 -5.7717,25.17055 -0.7432,14.31869 -0.7073,14.57176 1.5138,10.66667 l 2.2751,-4 2.0661,4.66666 c 3.315,7.48735 2.8604,27.02684 -0.8221,35.33334 -2.052,4.62884 -2.2537,5.66784 -0.6599,3.39906 7.5401,-10.73308 24.7919,-29.44324 31.0042,-33.6252 7.5262,-5.06642 16.6998,-8.80988 18.1167,-7.39293 1.2581,1.25805 -4.4084,9.64339 -9.5924,14.19498 -5.505,4.83353 -16.7324,10.75742 -20.3882,10.75742 -4.9719,0 -21.6696,21.34883 -24.7978,31.70528 -0.6788,2.2474 0.8479,1.27291 5.8633,-3.74249 6.4959,-6.49589 23.2321,-15.93159 25.0441,-14.1196 1.4294,1.42948 -9.0596,15.33684 -14.6902,19.47765 -2.9699,2.18407 -8.1443,4.99957 -11.4986,6.25665 -3.3544,1.25708 -6.4956,2.86567 -6.9806,3.57465 -1.1804,1.72585 -2.1716,9.00074 -3.8396,28.1812 -1.4721,16.92816 -0.3178,67.66801 1.4668,64.47758 0.5572,-0.996 1.7736,-5.4943 2.7033,-9.9962 1.5457,-7.48504 1.4419,-8.94178 -1.2126,-17.028 -1.5966,-4.86349 -2.9029,-12.02121 -2.9029,-15.90605 0,-7.4616 3.3434,-20.88067 5.2025,-20.88067 2.1723,0 5.5907,14.46751 5.6202,23.78584 0.03,9.45446 -1.8698,20.10339 -6.8715,38.51938 -1.4398,5.30121 -2.6178,11.56902 -2.6178,13.92846 0,4.16918 0.096,4.09797 3.3987,-2.53047 5.4532,-10.94316 26.6983,-29.86102 29.125,-25.93457 0.3953,0.63963 -1.3381,5.45469 -3.8519,10.70015 -4.898,10.22043 -13.881,20.81204 -22.9389,27.04671 l -5.6005,3.85484 0.7851,11.64816 c 0.4318,6.4065 1.0029,11.89912 1.2692,12.20584 0.7878,0.9074 133.6925,5.16559 143.1466,4.58633 4.7667,-0.29206 18.2564,-1.11893 29.9773,-1.8375 z m -33.3106,-10.63983 c -0.4532,-0.73334 -0.1886,-1.33334 0.588,-1.33334 0.7766,0 1.412,0.6 1.412,1.33334 0,0.73333 -0.2646,1.33333 -0.588,1.33333 -0.3234,0 -0.9588,-0.6 -1.412,-1.33333 z m 49.3333,0 c -0.4532,-0.73334 -0.1886,-1.33334 0.588,-1.33334 0.7766,0 1.412,0.6 1.412,1.33334 0,0.73333 -0.2645,1.33333 -0.5879,1.33333 -0.3234,0 -0.9588,-0.6 -1.4121,-1.33333 z m -14,-12 c 0,-0.73334 0.6,-1.33334 1.3334,-1.33334 0.7333,0 1.3333,0.6 1.3333,1.33334 0,0.73333 -0.6,1.33333 -1.3333,1.33333 -0.7334,0 -1.3334,-0.6 -1.3334,-1.33333 z m 26.6667,0 c 0,-0.73334 0.6354,-1.33334 1.412,-1.33334 0.7766,0 1.0412,0.6 0.588,1.33334 -0.4532,0.73333 -1.0886,1.33333 -1.412,1.33333 -0.3234,0 -0.588,-0.6 -0.588,-1.33333 z m -71.3333,-13.33334 c -0.4532,-0.73333 -0.1887,-1.33333 0.588,-1.33333 0.7766,0 1.412,0.6 1.412,1.33333 0,0.73334 -0.2646,1.33334 -0.588,1.33334 -0.3234,0 -0.9588,-0.6 -1.412,-1.33334 z m -116.6667,-30.66666 c 0,-0.73334 0.6,-1.33334 1.3333,-1.33334 0.7334,0 1.3334,0.6 1.3334,1.33334 0,0.73333 -0.6,1.33333 -1.3334,1.33333 -0.7333,0 -1.3333,-0.6 -1.3333,-1.33333 z m 220.6667,-8 c 0.4532,-0.73334 1.0886,-1.33334 1.412,-1.33334 0.3234,0 0.588,0.6 0.588,1.33334 0,0.73333 -0.6354,1.33333 -1.412,1.33333 -0.7767,0 -1.0412,-0.6 -0.588,-1.33333 z m 58,-5.41203 c 0,-0.77661 0.6,-1.0412 1.3333,-0.58797 0.7334,0.45322 1.3334,1.08863 1.3334,1.41202 0,0.32339 -0.6,0.58798 -1.3334,0.58798 -0.7333,0 -1.3333,-0.63541 -1.3333,-1.41203 z m -2,-11.92131 c -0.4532,-0.73333 -0.1887,-1.33333 0.588,-1.33333 0.7766,0 1.412,0.6 1.412,1.33333 0,0.73334 -0.2646,1.33334 -0.588,1.33334 -0.3234,0 -0.9588,-0.6 -1.412,-1.33334 z m 3.3333,-18.66666 c 0,-0.73334 0.6354,-1.33334 1.412,-1.33334 0.7767,0 1.0412,0.6 0.588,1.33334 -0.4532,0.73333 -1.0886,1.33333 -1.412,1.33333 -0.3234,0 -0.588,-0.6 -0.588,-1.33333 z m -44,-2.66667 c 0,-0.73333 0.6,-1.33333 1.3333,-1.33333 0.7334,0 1.3334,0.6 1.3334,1.33333 0,0.73333 -0.6,1.33333 -1.3334,1.33333 -0.7333,0 -1.3333,-0.6 -1.3333,-1.33333 z m 22.6667,-1.33333 c 0,-0.73334 0.6354,-1.33334 1.412,-1.33334 0.7766,0 1.0412,0.6 0.588,1.33334 -0.4532,0.73333 -1.0887,1.33333 -1.412,1.33333 -0.3234,0 -0.588,-0.6 -0.588,-1.33333 z m -44,-13.41203 c 0,-0.77661 0.6,-1.0412 1.3333,-0.58798 0.7333,0.45323 1.3333,1.08864 1.3333,1.41203 0,0.32339 -0.6,0.58798 -1.3333,0.58798 -0.7333,0 -1.3333,-0.63542 -1.3333,-1.41203 z m -214.6667,-1.33333 c 0,-0.77661 0.6,-1.0412 1.3333,-0.58798 0.7334,0.45323 1.3334,1.08864 1.3334,1.41202 0,0.32339 -0.6,0.58798 -1.3334,0.58798 -0.7333,0 -1.3333,-0.63541 -1.3333,-1.41202 z m 268,-30.58798 c 0,-0.73333 0.6,-1.33333 1.3333,-1.33333 0.7334,0 1.3334,0.6 1.3334,1.33333 0,0.73333 -0.6,1.33333 -1.3334,1.33333 -0.7333,0 -1.3333,-0.6 -1.3333,-1.33333 z m -254.6667,-18.74536 c 0,-0.77661 0.6,-1.0412 1.3334,-0.58797 0.7333,0.45322 1.3333,1.08863 1.3333,1.41202 0,0.32339 -0.6,0.58798 -1.3333,0.58798 -0.7334,0 -1.3334,-0.63541 -1.3334,-1.41203 z m -30.6666,165.65691 c 0,-10.91193 -2.1089,-25.44214 -3.9736,-27.37719 -0.6001,-0.62278 -1.4754,4.77722 -1.9451,12 -0.4697,7.22277 -1.1864,15.98231 -1.5928,19.46564 l -0.7388,6.33334 h 4.1252 4.1251 z m 268.8821,8.26406 c -2.0815,-1.12803 -4.1186,-1.7169 -4.5269,-1.30859 -0.4083,0.4083 0.6947,1.31722 2.4512,2.01983 4.9886,1.99548 6.2639,1.55849 2.0757,-0.71124 z m 11.0812,-2.70801 c -4.703,-3.13719 -13.2967,-11.45635 -13.2967,-12.87198 0,-0.65809 3.307,1.82586 7.3489,5.51989 4.0418,3.69404 8.4965,6.62998 9.8991,6.52432 3.1151,-0.23465 2.3923,-1.87454 -6.1592,-13.97316 -3.2396,-4.58333 -5.4098,-8.30014 -4.8228,-8.25956 1.509,0.10429 6.4615,6.59694 11.8203,15.49615 2.5192,4.18359 4.5801,7.34183 4.5797,7.01831 0,-1.76932 -5.9602,-15.92544 -8.3848,-19.92157 -2.047,-3.3737 -2.2286,-4.1825 -0.6557,-2.9192 1.1967,0.9611 3.4754,4.2611 5.0639,7.33333 2.0329,3.93194 2.6562,4.53688 2.105,2.04308 -0.4306,-1.94854 -1.1875,-4.59697 -1.6819,-5.8854 -0.5887,-1.53418 -0.3916,-2.02903 0.5713,-1.43395 0.8086,0.49975 2.1265,4.04818 2.9286,7.88539 2.2994,11.00015 3.5692,11.23597 3.7912,0.70409 0.2309,-10.95538 -2.075,-17.15742 -9.618,-25.8685 -4.3611,-5.03644 -4.7702,-5.19824 -13.6407,-5.3947 -5.0297,-0.11139 -11.7416,-0.62886 -14.9154,-1.14995 -5.0344,-0.82657 -6.225,-0.52251 -9.3333,2.38365 -4.2835,4.00486 -10.023,6.98272 -15.8962,8.24752 -2.3833,0.51326 -4.3333,1.40579 -4.3333,1.9834 0,2.28232 15.4989,11.53995 25.8812,15.45904 3.6013,1.35942 8.9934,4.86876 11.9823,7.79853 2.989,2.92978 7.8424,6.70417 10.7855,8.38754 6.1782,3.53379 11.0244,4.25795 5.981,0.89373 z m -6.5481,-12.4676 c -5.2973,-5.86666 -9.0561,-10.66666 -8.3528,-10.66666 1.0889,0 11.5543,11.39197 17.4545,19 4.5015,5.80431 -0.3324,1.37855 -9.1017,-8.33334 z m 32.7913,11.27583 c 1.2404,-3.23234 -0.4903,-3.81588 -2.1454,-0.72335 -1.032,1.92825 -1.0523,2.78086 -0.066,2.78086 0.7821,0 1.7774,-0.92588 2.2116,-2.05751 z m 4.4397,-16.96353 c -0.024,-3.5023 -1.1119,-2.23048 -5.4353,6.35437 l -2.686,5.33333 4.0709,-4.35436 c 2.239,-2.39491 4.0617,-5.69491 4.0504,-7.33334 z m -15.0687,2.77104 c -0.4257,-1.06365 -0.7416,-0.7477 -0.8056,0.80555 -0.058,1.40556 0.2572,2.19306 0.7003,1.75 0.4431,-0.44305 0.4904,-1.59305 0.1053,-2.55555 z m 15.6794,-6.70995 c 1.1347,0.2211 3.023,-1.95415 4.6298,-5.33333 1.4924,-3.1387 3.4347,-6.69213 4.316,-7.89651 3.4211,-4.6748 -5.4097,-19.05679 -9.3032,-15.15144 -0.4947,0.49624 -0.7196,5.99121 -0.4997,12.21106 0.3782,10.69683 0.1798,11.64103 -3.6667,17.44808 -2.2365,3.3766 -4.0477,6.78641 -4.0248,7.57735 0.023,0.79094 1.5245,-0.96193 3.337,-3.89526 1.8125,-2.93334 4.1577,-5.16531 5.2116,-4.95995 z m -2.9831,-20.96676 c 0.2208,-17.43425 -0.6794,-20.07329 -6.8469,-20.07329 -1.9689,0 -7.7454,2.11317 -12.8367,4.69593 -7.4349,3.77165 -10.217,4.53993 -14.1351,3.90338 -4.0306,-0.65484 -5.8328,-0.101 -10.3727,3.18768 l -5.4945,3.98021 4.514,1.48975 c 3.1627,1.04381 5.5953,1.07865 8.1262,0.1164 1.9867,-0.75534 4.4685,-1.37335 5.5151,-1.37335 2.1672,0 7.5443,5.67488 12.9234,13.63914 2.0167,2.98584 3.688,4.58852 3.714,3.5615 0.1099,-4.3437 3.8672,5.273 3.9589,10.13269 l 0.1006,5.33333 2.0737,-3.82788 c 1.161,-2.14329 1.8421,-5.81067 1.5476,-8.33333 -0.5994,-5.13503 0.9739,-6.18189 1.9124,-1.27243 0.3399,1.77816 -0.1811,5.52816 -1.1578,8.33333 -2.5557,7.33991 -2.2676,7.26476 2.2327,-0.58256 3.8132,-6.64901 4.0343,-7.84807 4.2251,-22.9105 z m -87.2481,18.43548 c -0.412,-2.80752 0,-3.88375 1.5385,-3.99677 1.671,-0.12293 1.6236,-0.2798 -0.2309,-0.76444 -1.2833,-0.33537 -2.3241,-1.01577 -2.3129,-1.512 0.03,-1.33871 2.602,-5.08342 2.6258,-3.82354 0.011,0.59328 0.6845,0.66828 1.4961,0.16667 1.03,-0.63659 0.9294,-1.2766 -0.3333,-2.1192 -1.1773,-0.78561 -0.5233,-0.90842 1.8727,-0.35167 3.1102,0.72269 3.5445,0.4979 2.7978,-1.44794 -0.7747,-2.01899 -0.5155,-2.10629 2.0992,-0.70697 1.6406,0.87806 3.3816,1.16572 3.8688,0.63924 0.4872,-0.52648 0.1358,-1.22509 -0.7809,-1.55247 -0.9166,-0.32738 -1.6666,-1.15907 -1.6666,-1.8482 0,-0.68913 1.5,-0.27012 3.3333,0.93113 3.231,2.11702 3.334,2.08726 3.3538,-0.96927 0.016,-2.40967 0.306,-2.70189 1.2317,-1.23908 1.0038,1.58645 1.5712,1.61558 3.3129,0.17007 4.829,-4.00772 1.1833,-8.20326 -4.1128,-4.73311 -1.8868,1.23626 -6.1571,2.63797 -9.4896,3.11493 -5.8723,0.84045 -6.2025,1.14236 -10.7121,9.79415 -4.5175,8.66706 -4.5871,9.02739 -2.3932,12.37582 2.7773,4.23859 5.2636,3.06362 4.5017,-2.12735 z m -204.2037,-9.54793 c 5.9145,-6.48172 14.7818,-20.50694 13.6435,-21.57956 -0.5568,-0.52467 -17.6367,20.11326 -22.1843,26.80564 -2.8518,4.19689 -2.9153,4.55614 -0.5848,3.30889 1.4379,-0.76953 5.5444,-4.61027 9.1256,-8.53497 z m -0.27,-8.08821 c 6.5838,-8.24246 9.9519,-13.30951 7.8327,-11.78358 -8.8915,6.40221 -16.0166,15.18876 -20.2006,24.91095 -2.1374,4.96673 -1.7937,4.6019 12.3679,-13.12737 z m -24.9252,3.21473 c 0.2364,-3.13837 -9.2151,-12.13613 -16.8276,-16.01974 -3.0062,-1.53367 -5.4659,-2.4999 -5.4659,-2.14719 0,0.35271 4.8017,4.36325 10.6704,8.91231 5.8686,4.54906 10.4153,8.52604 10.1036,8.83774 -0.3117,0.3117 -3.99,-2.03665 -8.1739,-5.21854 -12.2129,-9.28799 -13.592,-9.97007 -7.9334,-3.92366 2.9333,3.13436 8.0333,7.1198 11.3333,8.85653 3.3,1.73673 6.0223,3.18563 6.0496,3.21977 0.027,0.0341 0.137,-1.0986 0.2439,-2.51722 z m 5.8837,-20.34805 c -1.1122,-3.85836 -1.285,-3.22521 -1.3903,5.09402 -0.066,5.225 0.3298,11.525 0.8798,14 0.8255,3.71484 1.0681,2.82604 1.3903,-5.09402 0.2146,-5.27672 -0.1813,-11.57672 -0.8798,-14 z m 255.5985,10.90694 c 1.8895,-0.0173 1.929,-0.20716 0.2629,-1.26084 -1.0787,-0.68223 -1.5187,-1.68304 -0.9777,-2.22403 0.5409,-0.54098 1.6936,-0.27361 2.5613,0.59417 0.8678,0.86778 2.1778,1.57778 2.9111,1.57778 0.7408,0 0.6223,-0.71111 -0.2666,-1.6 -2.7233,-2.72326 -1.7589,-4.29041 1.0666,-1.73333 3.0037,2.71829 3.3967,1.88328 1.1394,-2.42099 -1.5125,-2.88406 -1.4998,-2.8879 1.3083,-0.395 3.4837,3.09261 6.9586,1.02104 5.9824,-3.56637 -0.5832,-2.74055 -0.4916,-2.78459 1.2846,-0.61764 1.052,1.28333 2.2525,2.33333 2.6679,2.33333 0.4154,0 1.0356,-1.05 1.3784,-2.33333 0.5277,-1.97609 0.7706,-1.87402 1.5866,0.66666 0.5299,1.65 1.7373,3 2.6831,3 1.0654,0 1.5003,-1.1415 1.143,-3 l -0.5766,-3 1.5719,3 c 1.9096,3.6445 2.6682,3.70244 6.6164,0.50534 l 3.0808,-2.49467 -4.0302,-2.08408 c -2.2166,-1.14625 -4.8099,-3.02365 -5.763,-4.172 -2.5477,-3.06981 -6.7703,-2.55654 -12.7634,1.55144 -3.3191,2.275 -7.7919,3.89953 -11.931,4.33334 -5.4165,0.56768 -6.9842,1.34214 -8.6147,4.2558 -1.7223,3.07745 -1.7397,4.03574 -0.1283,7.04662 1.1075,2.0695 2.6199,3.1951 3.7238,2.7715 1.0223,-0.39231 2.8597,-0.72247 4.083,-0.7337 z m -258.8327,-12.29737 c -0.3189,-1.65855 -0.5919,-0.61555 -0.6067,2.31778 -0.015,2.93334 0.2461,4.29033 0.5798,3.01555 0.3337,-1.27478 0.3458,-3.67478 0.027,-5.33333 z m -2.1012,-29.28407 c -1.1125,-3.85884 -1.2809,-3.25369 -1.3735,4.93519 -0.058,5.13333 0.3378,11.73333 0.8797,14.66666 0.8604,4.65731 1.0346,4.03176 1.3736,-4.93518 0.2135,-5.64768 -0.1824,-12.24768 -0.8798,-14.66667 z m 311.4024,21.35185 c -0.4257,-1.06364 -0.7416,-0.7477 -0.8056,0.80556 -0.058,1.40555 0.2573,2.19305 0.7003,1.75 0.4431,-0.44306 0.4904,-1.59306 0.1053,-2.55556 z m -314.2646,-10.75 c -0.014,-8.45545 -0.4268,-11.70448 -1.3129,-10.33333 -2.0036,3.10038 -1.2843,22.66667 0.8333,22.66667 0.275,0 0.4908,-5.55 0.4796,-12.33334 z m 14.8564,-7.66666 -1.1359,-12.66667 -0.1652,10.66667 c -0.091,5.86666 0.2318,12.15119 0.717,13.96561 1.5336,5.7352 1.7584,1.12928 0.5841,-11.96561 z m 4.7165,0 c -0.3841,-4.76667 -1.3306,-10.16667 -2.1032,-12 -1.1787,-2.79675 -1.3162,-2.26015 -0.8544,3.33333 0.3028,3.66667 0.6308,10.56667 0.729,15.33333 0.1506,7.31351 0.393,8.14622 1.5528,5.33334 0.7558,-1.83334 1.0599,-7.23334 0.6758,-12 z m -42.2192,8.82615 c 0,-0.27895 -4.2153,-3.36113 -9.3675,-6.8493 -8.7303,-5.91069 -11.8925,-8.64352 -10.0017,-8.64352 0.4335,0 5.7189,3.40401 11.7454,7.56446 10.2607,7.08362 10.6605,7.24496 6.2905,2.53821 -4.1165,-4.4337 -16.4125,-12.7228 -18.9234,-12.75683 -2.354,-0.0319 0.6638,6.36968 4.569,9.69207 6.1143,5.20186 15.6877,10.36145 15.6877,8.45491 z m 31.633,-43.80228 c -0.2967,-2.39646 -0.5456,-0.75721 -0.5531,3.64279 -0.01,4.4 0.2353,6.36075 0.5395,4.35721 0.3042,-2.00353 0.3104,-5.60353 0.014,-8 z m 312.084,-21.26398 c 0.4131,-10.03001 0.1653,-15.7599 -0.6815,-15.7599 -1.7227,0 -3.0199,11.01578 -2.9833,25.33334 0.044,17.29186 2.8615,9.93235 3.6648,-9.57344 z m -313.489,9.63453 c -4.3077,-9.96864 -10.3207,-17.7741 -18.8946,-24.52711 -6.2785,-4.9451 -5.223,-3.10459 6.1431,10.7114 7.5668,9.19789 12.6561,16.42128 11.5696,16.42128 -0.3267,0 -5.8667,-6.62904 -12.311,-14.7312 -6.4444,-8.10217 -12.0056,-14.44267 -12.3583,-14.09002 -1.4759,1.47588 7.5168,15.16594 14.6454,22.29557 8.2643,8.2655 13.9418,10.25165 11.2058,3.92008 z m 1.2528,-12.72776 -1.9595,-5.33333 -0.094,5.23867 c -0.052,2.88127 0.656,7.34075 1.5727,9.90997 l 1.6667,4.6713 0.3868,-4.57664 c 0.2128,-2.51715 -0.4949,-6.97664 -1.5727,-9.90997 z m 309.1895,-44.20264 c 2.7803,-52.27452 2.9903,-48.46403 -2.6702,-48.46403 -5.5752,0 -5.1909,-5.94161 -3.2773,50.66667 1.4329,42.38736 2.8733,59.73673 3.5977,43.33333 0.1943,-4.4 1.2517,-24.89119 2.3498,-45.53597 z m -291.6233,45.2598 c 5.6147,-3.53067 11.1195,-8.24192 14.1711,-12.12824 1.571,-2.00069 -2.0064,0.167 -8.2181,4.97977 -6.05,4.68749 -11,8.72565 -11,8.97368 0,0.93631 1.5424,0.37852 5.047,-1.82521 z m 6.134,-9.52012 c 11.3537,-8.85856 11.9964,-10.70705 1.4134,-4.06492 -7.7774,4.88132 -12.297,8.84959 -14.2684,12.52788 -1.1875,2.21565 -1.1104,2.41924 0.4557,1.20371 1.0368,-0.80463 6.6165,-5.15463 12.3993,-9.66667 z m -16.0253,-0.3127 c 1.7547,-7.56577 1.7812,-9.56943 0.1942,-14.66057 l -1.8381,-5.8971 -0.099,6 c -0.054,3.3 -0.4782,10.2 -0.942,15.33333 -1.0204,11.29324 -0.049,11.01267 2.6846,-0.77566 z m -3.273,-21.89101 c 0.8828,-13.93333 2.1641,-32.23333 2.8474,-40.66666 1.8952,-23.38926 2.4981,-21.33334 -6.2562,-21.33334 h -7.5261 l 0.85,9 c 0.4675,4.95 0.8542,10.95 0.8594,13.33334 0,2.48057 0.6418,4.19081 1.4884,4 2.5429,-0.57318 5.4571,9.92236 5.4774,19.72704 0.014,6.71112 -0.805,11.31003 -2.8674,16.10411 -2.7947,6.49654 -2.8209,7.02577 -0.8222,16.60629 1.1354,5.44274 2.0832,10.49589 2.1061,11.22922 0.023,0.73334 0.5358,0.43334 1.1399,-0.66666 0.604,-1.1 1.8205,-13.4 2.7033,-27.33334 z m 7.3176,-23.092 c -0.6918,-1.07723 -3.2003,13.85359 -3.2003,19.04858 0,12.91141 2.0374,9.96588 2.7367,-3.95658 0.4052,-8.06666 0.6138,-14.85807 0.4636,-15.092 z m 3.3727,13.20311 c 0.052,-6.17222 -0.1346,-10.97222 -0.4136,-10.66666 -0.2791,0.30555 -0.8723,6.55555 -1.3182,13.88889 -0.5173,8.5062 -0.3675,12.36791 0.4136,10.66666 0.6735,-1.46666 1.2667,-7.71666 1.3182,-13.88889 z m -14.6958,-6.11111 c 0.045,-3.66666 -0.4996,-7.56666 -1.2105,-8.66666 -0.8948,-1.38465 -1.3044,1.2819 -1.3311,8.66666 -0.021,5.86667 -0.3202,12.16667 -0.6644,14 -0.3442,1.83334 0.2179,0.93334 1.2491,-2 1.0311,-2.93333 1.9117,-8.33333 1.9569,-12 z m -4.1089,-5.33333 c -0.024,-6.59783 -0.3469,-8.35637 -1.1016,-6 -0.5871,1.83333 -1.0522,8.73333 -1.0335,15.33333 0.029,10.17988 0.1959,11.08994 1.1016,6 0.5872,-3.3 1.0522,-10.2 1.0335,-15.33333 z m 45.2867,12.80871 c 5.9928,-3.05734 17.6432,-13.34413 15.1997,-13.42069 -0.96,-0.0301 -1.3745,-0.65469 -0.9213,-1.38802 2.8301,-4.57921 -13.2242,4.87264 -19.3334,11.38239 -4.6498,4.95469 -4.6522,4.96372 -0.6666,2.50118 2.2,-1.3593 7.1659,-4.82328 11.0353,-7.69773 3.8695,-2.87444 7.3734,-4.88827 7.7865,-4.47517 0.6357,0.6357 -9.2158,8.3545 -17.712,13.87759 -3.8619,2.51057 -0.8342,1.99876 4.6118,-0.77955 z m 23.6117,-59.09399 30.6667,-1.69161 -17.3334,-0.83401 c -9.5333,-0.4587 -28.5833,-1.24755 -42.3333,-1.75299 l -25,-0.91899 v 4.26608 4.26608 l 11.6667,-0.82148 c 6.4166,-0.45181 25.4666,-1.5827 42.3333,-2.51308 z m 234,-3.72403 v -6.67598 l -9,0.74753 c -4.95,0.41114 -36.5173,2.18265 -70.1496,3.93668 -33.6323,1.75404 -61.4823,3.52184 -61.8889,3.92845 -0.4066,0.40661 7.3107,0.79907 17.1496,0.87212 9.8389,0.0731 34.6889,0.88433 55.2222,1.80284 20.5334,0.91851 44.3834,1.75873 53,1.86717 l 15.6667,0.19717 z m -309.3333,265.26396 c 0,-0.77661 0.6,-1.0412 1.3333,-0.58798 0.7333,0.45323 1.3333,1.08864 1.3333,1.41202 0,0.32339 -0.6,0.58798 -1.3333,0.58798 -0.7333,0 -1.3333,-0.63541 -1.3333,-1.41202 z M 970.19143,658.03028 c -0.45322,-0.73333 -0.18863,-1.33333 0.58798,-1.33333 0.77661,0 1.41202,0.6 1.41202,1.33333 0,0.73333 -0.26459,1.33333 -0.58797,1.33333 -0.32339,0 -0.9588,-0.6 -1.41203,-1.33333 z m 376.66667,-6.74536 c 0,-0.77661 0.6,-1.0412 1.3333,-0.58797 0.7334,0.45322 1.3334,1.08863 1.3334,1.41202 0,0.32339 -0.6,0.58798 -1.3334,0.58798 -0.7333,0 -1.3333,-0.63541 -1.3333,-1.41203 z m -352,-6.58797 c 0,-0.73334 0.6,-1.33334 1.33334,-1.33334 0.73333,0 1.33333,0.6 1.33333,1.33334 0,0.73333 -0.6,1.33333 -1.33333,1.33333 -0.73334,0 -1.33334,-0.6 -1.33334,-1.33333 z m 335.3333,-9.33334 c 0.4533,-0.73333 1.0887,-1.33333 1.4121,-1.33333 0.3234,0 0.5879,0.6 0.5879,1.33333 0,0.73334 -0.6354,1.33334 -1.412,1.33334 -0.7766,0 -1.0412,-0.6 -0.588,-1.33334 z m 352.6667,-21.33333 c 0,-0.73333 0.6,-1.33333 1.3334,-1.33333 0.7333,0 1.3333,0.6 1.3333,1.33333 0,0.73333 -0.6,1.33333 -1.3333,1.33333 -0.7334,0 -1.3334,-0.6 -1.3334,-1.33333 z m -343.3333,-1.33333 c -0.4532,-0.73334 -0.1887,-1.33334 0.588,-1.33334 0.7766,0 1.412,0.6 1.412,1.33334 0,0.73333 -0.2646,1.33333 -0.588,1.33333 -0.3234,0 -0.9588,-0.6 -1.412,-1.33333 z m -387.33337,-2.66667 c 0,-0.73333 0.63541,-1.33333 1.41203,-1.33333 0.77661,0 1.0412,0.6 0.58797,1.33333 -0.45322,0.73333 -1.08863,1.33333 -1.41202,1.33333 -0.32339,0 -0.58798,-0.6 -0.58798,-1.33333 z m 388.66667,-18.66667 c -0.4532,-0.73333 -0.1886,-1.33333 0.588,-1.33333 0.7766,0 1.412,0.6 1.412,1.33333 0,0.73334 -0.2646,1.33334 -0.588,1.33334 -0.3234,0 -0.9588,-0.6 -1.412,-1.33334 z M 962.19143,580.69695 c -0.45322,-0.73334 -0.18863,-1.33334 0.58798,-1.33334 0.77661,0 1.41202,0.6 1.41202,1.33334 0,0.73333 -0.26459,1.33333 -0.58797,1.33333 -0.32339,0 -0.9588,-0.6 -1.41203,-1.33333 z m 327.99997,-48.00001 c 0.4533,-0.73333 1.0887,-1.33333 1.4121,-1.33333 0.3234,0 0.5879,0.6 0.5879,1.33333 0,0.73334 -0.6354,1.33334 -1.412,1.33334 -0.7766,0 -1.0412,-0.6 -0.588,-1.33334 z m -337.99997,-6.66666 c 0,-0.73334 0.6,-1.33334 1.33334,-1.33334 0.73333,0 1.33333,0.6 1.33333,1.33334 0,0.73333 -0.6,1.33333 -1.33333,1.33333 -0.73334,0 -1.33334,-0.6 -1.33334,-1.33333 z m 398.66667,-14.66667 c 0,-0.73333 0.6354,-1.33333 1.412,-1.33333 0.7766,0 1.0412,0.6 0.588,1.33333 -0.4532,0.73333 -1.0886,1.33333 -1.412,1.33333 -0.3234,0 -0.588,-0.6 -0.588,-1.33333 z m 354.6667,-5.33333 c 0,-0.73334 0.6,-1.33334 1.3333,-1.33334 0.7334,0 1.3334,0.6 1.3334,1.33334 0,0.73333 -0.6,1.33333 -1.3334,1.33333 -0.7333,0 -1.3333,-0.6 -1.3333,-1.33333 z m -413.3334,-2.66667 c 0,-0.73333 0.6355,-1.33333 1.4121,-1.33333 0.7766,0 1.0412,0.6 0.5879,1.33333 -0.4532,0.73333 -1.0886,1.33333 -1.412,1.33333 -0.3234,0 -0.588,-0.6 -0.588,-1.33333 z m 392.6667,-8 c -0.4532,-0.73333 -0.1886,-1.33333 0.588,-1.33333 0.7766,0 1.412,0.6 1.412,1.33333 0,0.73333 -0.2646,1.33333 -0.588,1.33333 -0.3233,0 -0.9588,-0.6 -1.412,-1.33333 z m -387.3333,-13.41202 c 0,-0.77662 0.6,-1.04121 1.3333,-0.58798 0.7333,0.45322 1.3333,1.08863 1.3333,1.41202 0,0.32339 -0.6,0.58798 -1.3333,0.58798 -0.7333,0 -1.3333,-0.63541 -1.3333,-1.41202 z m -22,-19.92131 c 0.4532,-0.73334 1.0886,-1.33334 1.412,-1.33334 0.3234,0 0.588,0.6 0.588,1.33334 0,0.73333 -0.6354,1.33333 -1.412,1.33333 -0.7767,0 -1.0413,-0.6 -0.588,-1.33333 z m -14.6667,-24 c -0.4532,-0.73334 -0.1886,-1.33334 0.588,-1.33334 0.7766,0 1.412,0.6 1.412,1.33334 0,0.73333 -0.2646,1.33333 -0.588,1.33333 -0.3234,0 -0.9588,-0.6 -1.412,-1.33333 z m -12.6667,-21.33334 c 0,-0.73333 0.6,-1.33333 1.3334,-1.33333 0.7333,0 1.3333,0.6 1.3333,1.33333 0,0.73333 -0.6,1.33333 -1.3333,1.33333 -0.7334,0 -1.3334,-0.6 -1.3334,-1.33333 z m -25.3333,-33.33333 c 0,-0.73334 0.6,-1.33334 1.3333,-1.33334 0.7334,0 1.3334,0.6 1.3334,1.33334 0,0.73333 -0.6,1.33333 -1.3334,1.33333 -0.7333,0 -1.3333,-0.6 -1.3333,-1.33333 z m -90.532,-39 c 3.1479,-6.04656 13.3846,-16.87828 22.5378,-23.84797 l 9.3927,-7.15203 -7.1251,-0.39269 c -6.3894,-0.35214 -7.9415,0.14904 -15.0326,4.85426 -20.2419,13.43134 -47.2408,24.32871 -47.2408,19.06745 0,-1.42913 42.0649,-22.83208 45.0993,-22.94687 1.5517,-0.0587 1.2914,-0.46255 -0.8522,-1.32229 -1.6975,-0.68077 -10.7776,-1.82308 -20.1782,-2.53847 -34.601,-2.63319 -58.9312,-10.47891 -80.7356,-26.03463 -37.4964,-26.75088 -55.57373,-76.77055 -47.8246,-132.3302 0.73384,-5.26147 0.53443,-5.7395 -2.94619,-7.06284 -6.80638,-2.58778 -20.38577,-13.25662 -26.63038,-20.92254 -8.02149,-9.84721 -14.83397,-23.03786 -11.89821,-23.03786 3.1125,0 12.42722,4.98233 20.29006,10.8529 6.95,5.18902 20.23319,22.29774 20.46294,26.35621 0.0661,1.16833 0.6631,0.25215 1.32658,-2.03594 1.00297,-3.45882 0.44517,-5.81902 -3.30869,-14 -2.48327,-5.41191 -5.5517,-13.43983 -6.81874,-17.83983 -1.26705,-4.399999 -3.58225,-11.599999 -5.14489,-15.999999 -2.29617,-6.4654 -2.82656,-10.94132 -2.76498,-23.33334 0.0458,-9.21509 0.75057,-16.92939 1.76627,-19.33333 1.64702,-3.898094 1.73999,-3.932063 3.64919,-1.333334 6.02753,8.204424 8.21851,31.730654 4.01502,43.112304 -2.52729,6.84306 -1.67538,12.01676 4.70156,28.552709 4.82287,12.50612 5.59831,12.05206 7.81077,-4.57357 1.33106,-10.00231 1.23357,-12.273149 -0.77016,-17.938409 -3.39752,-9.60598 -4.05792,-27.68749 -1.3513,-36.99793 1.21241,-4.17055 2.74261,-7.25018 3.40043,-6.84362 0.65783,0.40656 2.5105,4.1778 4.11702,8.38053 3.0247,7.91272 4.163,23.61437 2.2937,31.64132 -0.8617,3.70063 -0.7766,3.65074 1.1375,-0.66667 3.6003,-8.12069 11.3341,-20.30412 20.0068,-31.51759 7.7047,-9.96187 8.6079,-11.8388 11.0237,-22.907876 1.4473,-6.631322 4.1046,-15.848405 5.905,-20.482407 1.8004,-4.6340028 3.6802,-10.2060738 4.1775,-12.3823808 1.8653,-8.164666 7.9284,-18.5380362 15.6762,-26.8204672 9.3139,-9.956586 12.4433,-10.998759 11.2673,-3.752377 -1.9614,12.086652 -14.5422,31.1949632 -23.6341,35.8965842 -2.7683,1.431527 -4.3319,4.2329978 -7.1986,12.8976308 -2.0142,6.087887 -4.123,13.973424 -4.6861,17.523415 l -1.024,6.454531 9.7069,-9.642038 c 6.8253,-6.77976 9.951,-10.943969 10.5296,-14.027798 1.6517,-8.804719 9.8338,-22.6077258 18.0425,-30.437492 4.4043,-4.20098 8.5493,-7.303471 9.2111,-6.894425 1.6408,1.014062 -0.5857,10.4777912 -4.4705,19.0019752 -3.0379,6.6657 -13.0899,17.9682048 -21.3795,24.0391688 -2.2,1.611186 3.8,-0.94096 13.3333,-5.671435 20.5723,-10.2080258 38.1983,-15.2655498 57.3334,-16.4509978 15.7561,-0.976118 52.5404,1.492121 64.8776,4.353321 21.8465,5.0665368 39.1464,14.1587398 54.8573,28.8309358 13.2116,12.338182 20.6085,22.906672 31.6174,45.174092 9.5839,19.385019 14.857,34.189719 17.4621,49.027029 0.8809,5.01707 1.8488,8.22194 2.1508,7.12194 1.3492,-4.91447 4.8818,-12 5.9826,-12 0.6653,0 0.9184,0.47102 0.5627,1.0467 -0.3558,0.57569 -1.3276,7.32569 -2.1595,15 -0.8318,7.67432 -3.0173,21.30786 -4.8565,30.29676 -4.6995,22.96846 -3.8897,24.68075 4.1721,8.82122 7.9222,-15.58485 13.437,-24.28084 26.3642,-41.57234 7.9302,-10.60752 9.7123,-12.35353 10.0676,-9.86383 0.8117,5.68741 -9.7943,22.66763 -25.167,40.29216 -7.1275,8.17154 -17.2269,25.31266 -14.914,25.31266 1.8528,0 7.4024,-4.2524 16.4092,-12.57357 11.1429,-10.29455 29.4889,-21.11101 29.1445,-17.18294 -0.1531,1.74554 -20.1276,18.97033 -28.6141,24.67501 -4.2693,2.8699 -10.43,5.93147 -13.6904,6.80348 -4.9726,1.32996 -6.6361,2.69248 -10.3218,8.45419 -5.9975,9.37558 -8.9496,15.26352 -8.0859,16.12721 1.0164,1.01642 7.9684,-2.00081 18.3699,-7.97275 7.1649,-4.1137 28.451,-12.99729 31.1429,-12.99729 2.5253,0 -0.6098,3.40806 -7.3382,7.97723 -9.6705,6.56713 -24.5266,12.67755 -36.2119,14.89423 -8.404,1.59422 -8.7716,1.83601 -12.2425,8.05272 -1.9681,3.52503 -3.2291,6.40915 -2.8022,6.40915 0.4268,0 4.8478,-1.78708 9.8244,-3.9713 14.0986,-6.18792 29.3987,-9.72504 29.3987,-6.79647 0,1.89171 -26.436,11.71556 -34.337,12.75992 -6.1986,0.81934 -7.6139,1.63928 -12.3133,7.13347 -2.9203,3.41424 -4.7306,6.40375 -4.0228,6.64335 0.7078,0.23959 4.6282,-0.53573 8.7121,-1.72295 9.7434,-2.83248 24.6276,-4.24618 24.6276,-2.33912 0,2.3077 -13.1536,5.79086 -24.7661,6.5582 -10.5333,0.69604 -10.8051,0.8018 -12.5636,4.88983 -0.9886,2.29812 -1.7009,5.2284 -1.5829,6.51174 0.2382,2.5911 -1.1846,3.03614 -3.2151,1.00563 -1.6729,-1.67294 -19.7546,16.53262 -21.1825,21.3277 -2.575,8.64669 -9.2043,24 -10.3629,24 -1.6344,0 -0.073,-11.06676 2.3987,-17 0.9928,-2.38333 1.5601,-4.33333 1.2607,-4.33333 -2.372,0 -12.7745,7.89499 -13.9685,10.60148 -2.8603,6.48351 -13.8879,24.06519 -15.0943,24.06519 -1.7321,0 -0.042,-6.04448 4.3349,-15.50154 l 3.7803,-8.1682 -5.0928,2.00053 c -3.5127,1.37983 -5.6134,3.29366 -6.7704,6.16821 -4.4198,10.98078 -25.1755,36.87895 -25.1755,31.41299 0,-2.8428 10.6988,-21.2085 16.4272,-28.19934 l 4.8713,-5.9447 -10.3159,1.87937 c -8.5132,1.55095 -10.7612,2.50323 -12.8639,5.44936 -6.2596,8.77027 -30.8724,30.90332 -34.3656,30.90332 -0.6491,0 -0.4774,-1.35 0.3816,-3 z m 19.1987,-34.33334 c 2.2478,-0.96593 1.9984,-1.16062 -1.588,-1.23962 -2.3401,-0.0515 -4.6255,0.50629 -5.0787,1.23962 -0.9883,1.59915 2.9452,1.59915 6.6667,0 z m 16.6261,-2.05467 c 1.705,-1.70503 1.0775,-1.68248 -4.3155,0.1551 -3.4708,1.18263 -6.3106,2.46884 -6.3106,2.85824 0,1.39871 8.6737,-1.06098 10.6261,-3.01334 z m 19.0316,-0.74713 c 3.3609,-0.87282 5.6192,-2.51069 6.914,-5.01458 l 1.9228,-3.71839 -12.0177,3.45201 c -7.7956,2.2392 -12.5077,4.32735 -13.4121,5.94349 -1.3044,2.33078 -0.9752,2.43157 5.1038,1.56257 3.574,-0.5109 8.7441,-1.51219 11.4892,-2.2251 z m -31.3244,-1.39404 c 6.05,-0.77711 11,-1.65598 11,-1.95304 0,-0.29706 -12.8438,-0.38509 -28.5419,-0.19562 -15.698,0.18948 -28.4094,0.48311 -28.2475,0.65253 0.1619,0.16941 3.8557,1.18017 8.2085,2.24613 8.244,2.01886 17.4558,1.83503 37.5809,-0.75 z m -54.2966,-1.93207 c -22.5673,-7.68541 -47.7017,-23.2432 -64.9671,-40.21356 -22.6367,-22.24981 -39.25645,-54.29781 -44.42157,-85.65853 -0.99154,-6.02021 -1.11513,-4.70709 -0.69026,7.33333 1.74225,49.37297 24.77233,87.30497 65.37553,107.67748 8.7515,4.39101 26.603,9.96707 39.229,12.25347 15.1057,2.73543 16.5306,2.37306 5.4744,-1.39219 z m -33.3701,-9.87209 c 0,-0.73333 0.6,-1.33333 1.3334,-1.33333 0.7333,0 1.3333,0.6 1.3333,1.33333 0,0.73334 -0.6,1.33334 -1.3333,1.33334 -0.7334,0 -1.3334,-0.6 -1.3334,-1.33334 z m 136,7.83498 c 1.8334,-0.67409 4.7324,-3.37905 6.4423,-6.01103 1.7098,-2.63199 2.607,-4.56909 1.9937,-4.30469 -0.6133,0.26441 -3.8446,1.56729 -7.1805,2.89529 -4.4472,1.77033 -6.4717,3.49074 -7.588,6.44818 -1.3546,3.58865 -1.2731,3.93237 0.7383,3.11574 1.2435,-0.50484 3.7609,-1.46941 5.5942,-2.14349 z m -20.4409,-3.50164 8.9453,-3.66667 -10.5855,-1.03632 c -9.0913,-0.89003 -41.177,-8.3996 -49.2317,-11.52251 -4.3729,-1.69546 12.3135,-2.95513 20.6462,-1.55859 4.0333,0.67598 10.3333,2.54866 14,4.1615 16.7083,7.34939 29.6255,8.4497 39.3333,3.35047 5.6493,-2.96741 5.8052,-3.19383 2.6667,-3.87404 -1.8334,-0.39733 -9.9334,-0.97294 -18,-1.27913 -14.4541,-0.54864 -24.1931,-2.72859 -21.0018,-4.70095 0.866,-0.53522 3.669,-0.90363 6.2289,-0.81869 l 4.6544,0.15443 -0.2877,-8.34053 c -0.1582,-4.58729 -0.7011,-8.75398 -1.2064,-9.25931 -0.5053,-0.50533 -2.8992,-1.32142 -5.3198,-1.81353 -4.285,-0.87115 -4.4114,-1.09168 -4.7965,-8.36641 -0.3559,-6.72412 -0.043,-7.74902 3.1285,-10.24368 l 3.5241,-2.77201 -2.7952,-3.5535 c -3.6274,-4.61146 -3.5651,-5.26668 1.3907,-14.62376 4.985,-9.41224 6.9961,-11.23515 12.4023,-11.24176 5.5153,-0.007 12.7451,-4.56528 12.7451,-8.03603 0,-4.85371 5.8431,-9.28935 12.2728,-9.31658 4.1278,-0.0175 7.3658,-1.13457 11.5945,-4 7.1327,-4.83318 9.4469,-4.9416 14.5117,-0.6799 6.0678,5.10569 10.3687,6.29798 16.6335,4.61105 4.5462,-1.22417 6.2412,-1.06572 10.5214,0.98359 4.0254,1.92729 5.1054,3.19609 5.1175,6.01186 0.011,2.65002 1.0782,4.09926 4.1432,5.6283 3.2851,1.63883 3.9855,1.68795 3.4301,0.2406 -0.3839,-1.00028 -1.7378,-7.05493 -3.0088,-13.45479 -1.974,-9.93976 -2.0812,-13.1136 -0.7353,-21.77105 0.8666,-5.57422 2.0749,-10.63415 2.685,-11.24427 0.6101,-0.61013 1.8364,6.27252 2.7251,15.29477 2.282,23.16677 2.8478,24.90411 4.9079,15.07019 5.7192,-27.30098 5.1459,-59.77858 -1.4922,-84.53036 -4.1505,-15.476289 -9.066,-24.853649 -20.4678,-39.046789 -19.9648,-24.852559 -51.6312,-44.921289 -83.5052,-52.921702 -14.3087,-3.5914948 -19.0082,-3.9484658 -34.6667,-2.6332488 -15.5653,1.307394 -18.773,2.177935 -14.3333,3.8899198 4.5022,1.736073 3.673,3.291492 -3.3695,6.321114 -9.7224,4.182448 -22.5541,6.027226 -31.0823,4.468603 -6.946,-1.269461 -7.6069,-1.12129 -17.7322,3.975778 -9.9805,5.024168 -21.4868,12.394938 -28.816,18.459045 l -3.3334,2.757971 3.6723,-1.58647 c 5.3061,-2.292259 6.0116,-0.48928 2.4416,6.24008 -5.7967,10.92704 -19.6676,22.27258 -32.1682,26.31172 -1.8005,0.58175 -17.279,29.435669 -17.279,32.210199 0,0.58205 2.528,-1.3954 5.6177,-4.39433 5.6748,-5.5079 20.6228,-14.391549 21.9622,-13.052149 1.5171,1.51709 -5.5445,13.394359 -12.3051,20.696659 -3.9369,4.25231 -10.0299,9.05895 -13.8044,10.89002 -7.33897,3.56021 -7.99544,4.80931 -10.96228,20.8584 -2.31576,12.5271 1.04672,38.8176 7.31998,57.23292 13.2493,38.89416 44.8624,73.45285 84.3273,92.18476 9.5147,4.51613 11.333,4.93692 19.1779,4.43819 15.6178,-0.99286 36.4343,-0.66396 49.3334,0.77945 19.2085,2.14946 20.6008,2.06274 30.2257,-1.88253 z m -10.8924,-3 c -0.4532,-0.73334 -0.1886,-1.33334 0.588,-1.33334 0.7766,0 1.412,0.6 1.412,1.33334 0,0.73333 -0.2646,1.33333 -0.588,1.33333 -0.3234,0 -0.9588,-0.6 -1.412,-1.33333 z m -29.3333,-5.33334 c 0.4532,-0.73333 1.0886,-1.33333 1.412,-1.33333 0.3234,0 0.588,0.6 0.588,1.33333 0,0.73334 -0.6354,1.33334 -1.4121,1.33334 -0.7766,0 -1.0412,-0.6 -0.5879,-1.33334 z m 48.6666,-2.66666 c 0,-0.73334 0.6,-1.33334 1.3334,-1.33334 0.7333,0 1.3333,0.6 1.3333,1.33334 0,0.73333 -0.6,1.33333 -1.3333,1.33333 -0.7334,0 -1.3334,-0.6 -1.3334,-1.33333 z m -73.3333,-4.00001 c 0,-0.73333 0.6,-1.33333 1.3333,-1.33333 0.7334,0 1.3334,0.6 1.3334,1.33333 0,0.73334 -0.6,1.33334 -1.3334,1.33334 -0.7333,0 -1.3333,-0.6 -1.3333,-1.33334 z m 45.3333,-16 c 0,-0.73333 0.6,-1.33333 1.3334,-1.33333 0.7333,0 1.3333,0.6 1.3333,1.33333 0,0.73334 -0.6,1.33334 -1.3333,1.33334 -0.7334,0 -1.3334,-0.6 -1.3334,-1.33334 z m 86,-85.33333 c -0.4532,-0.73333 -0.1886,-1.33333 0.588,-1.33333 0.7766,0 1.412,0.6 1.412,1.33333 0,0.73333 -0.2645,1.33333 -0.5879,1.33333 -0.3234,0 -0.9588,-0.6 -1.4121,-1.33333 z m -12.6666,-10.66667 c 0,-0.73333 0.6,-1.33333 1.3333,-1.33333 0.7333,0 1.3333,0.6 1.3333,1.33333 0,0.73334 -0.6,1.33334 -1.3333,1.33334 -0.7333,0 -1.3333,-0.6 -1.3333,-1.33334 z m -227.3334,-22.66667 c 0.4533,-0.73333 1.0887,-1.33333 1.4121,-1.33333 0.3233,0 0.5879,0.6 0.5879,1.33333 0,0.73334 -0.6354,1.33334 -1.412,1.33334 -0.7766,0 -1.0412,-0.6 -0.588,-1.33334 z m 268.057,-1.2412 c -0.4219,-0.68266 -0.1573,-1.61807 0.588,-2.07869 0.7453,-0.46061 1.355,0.0979 1.355,1.24121 0,2.34203 -0.8,2.68687 -1.943,0.83748 z m -275.3903,-13.42546 c 0,-0.73334 0.6,-1.33334 1.3333,-1.33334 0.7334,0 1.3334,0.6 1.3334,1.33334 0,0.73333 -0.6,1.33333 -1.3334,1.33333 -0.7333,0 -1.3333,-0.6 -1.3333,-1.33333 z m 63.3333,-90.66667 c -0.4532,-0.733333 -0.1886,-1.333333 0.588,-1.333333 0.7766,0 1.412,0.6 1.412,1.333333 0,0.733333 -0.2646,1.333331 -0.5879,1.333331 -0.3234,0 -0.9588,-0.599998 -1.4121,-1.333331 z m 19.3334,-9.333333 c 0,-0.733334 0.6,-1.333334 1.3333,-1.333334 0.7333,0 1.3333,0.6 1.3333,1.333334 0,0.733333 -0.6,1.333333 -1.3333,1.333333 -0.7333,0 -1.3333,-0.6 -1.3333,-1.333333 z m 141.4998,254.465063 c 2.1084,-1.94423 3.8335,-4.48868 3.8335,-5.65435 0,-1.66996 -1.4844,-1.22405 -7,2.10273 -3.85,2.32217 -7.1012,4.26786 -7.2249,4.32374 -0.1238,0.0559 -0.6601,1.83533 -1.192,3.9543 l -0.9669,3.85269 4.3584,-2.52209 c 2.3971,-1.38714 6.0835,-4.1128 8.1919,-6.05702 z m -22.8332,4.20161 c 1.1,-0.71088 1.4,-1.2925 0.6667,-1.2925 -0.7333,0 -2.2333,0.58162 -3.3333,1.2925 -1.1,0.71087 -1.4,1.2925 -0.6667,1.2925 0.7333,0 2.2333,-0.58163 3.3333,-1.2925 z m 7.4119,-3.40689 c 2.4404,-1.95517 2.3978,-1.98292 -0.7452,-0.48606 -4.0814,1.94375 -4.8378,2.55962 -3.1437,2.55962 0.7154,0 2.4654,-0.9331 3.8889,-2.07356 z m 13.9215,-8.09239 c 0,-0.94738 -7.7693,3.38061 -8.6623,4.82543 -0.4572,0.73981 1.3048,0.0848 3.9155,-1.45555 2.6107,-1.54037 4.7468,-3.05681 4.7468,-3.36988 z m -4.959,-0.0276 4.242,-2.1936 -5.9749,-1.78616 c -6.4279,-1.92162 -14.6127,-2.15868 -19.9748,-0.57855 -2.8864,0.85058 -2.3501,1.19503 4,2.56911 4.0333,0.87276 8.2333,2.16174 9.3333,2.8644 2.7178,1.73603 3.4786,1.65652 8.3744,-0.8752 z m 30.2923,-15.46689 c 0,-1.0387 -6.0448,3.94143 -13.6242,11.22459 -2.04,1.96025 -3.7091,4.34292 -3.7091,5.29481 0,0.9519 3.9,-2.13462 8.6666,-6.85892 4.7667,-4.72429 8.6667,-9.07151 8.6667,-9.66048 z m -18.6667,11.56666 c 0,-0.36667 -1.2,-0.0244 -2.6666,0.76049 -1.4667,0.78494 -2.6667,1.72716 -2.6667,2.09382 0,0.36667 1.2,0.0245 2.6667,-0.76049 1.4666,-0.78493 2.6666,-1.72715 2.6666,-2.09382 z m -39.3715,-1.30945 c 5.7377,-2.3974 17.9585,-3.11104 24.7049,-1.44265 l 4.6666,1.15408 -3.204,-2.82075 c -1.7622,-1.5514 -4.1622,-2.86811 -5.3333,-2.926 -1.6406,-0.0811 -1.7036,-0.27401 -0.2744,-0.84052 1.1394,-0.45167 -0.1462,-1.49278 -3.3334,-2.6993 -15.901,-6.01944 -18.8872,-6.93836 -22.6769,-6.97806 l -4.1553,-0.0435 0.2141,8.08498 c 0.1441,5.43906 0.8495,8.48684 2.1554,9.31292 2.3939,1.51431 1.4424,1.61965 7.2363,-0.80117 z m 35.7302,-0.13797 c -0.9027,-0.36524 -2.7027,-0.38747 -4,-0.0494 -1.2972,0.33806 -0.5587,0.63688 1.6413,0.66406 2.2,0.0272 3.2615,-0.24942 2.3587,-0.61465 z m 6.5778,-7.45682 c 1.2485,-0.13202 2.0037,-0.50625 1.6783,-0.83164 -0.3254,-0.32538 0.1532,-1.5016 1.0635,-2.61381 1.1806,-1.44255 0.5922,-1.33044 -2.053,0.39111 -2.0394,1.32733 -7.1394,2.89664 -11.3333,3.48735 l -7.6253,1.07402 8,-0.6335 c 4.4,-0.34843 9.0214,-0.74152 10.2698,-0.87353 z m -4.9365,-2.90249 c 3.9224,-1.74572 3.8507,-1.78153 -3.6914,-1.84463 -7.5874,-0.0635 -16.4394,-2.13075 -18.9086,-4.41589 -1.6743,-1.54959 -1.2041,-1.48846 6.4786,0.84217 3.5999,1.09207 9.2999,1.96598 12.6667,1.94204 l 6.1214,-0.0435 -7.3333,-2.76353 c -4.0334,-1.51994 -9.8815,-3.06062 -12.9959,-3.42374 -3.1145,-0.36312 -5.3412,-1.18029 -4.9483,-1.81594 0.9628,-1.5579 7.8678,-0.25753 15.7403,2.96424 3.5545,1.45468 6.7498,2.35791 7.1005,2.00719 0.3507,-0.35073 -0.7575,-1.06211 -2.4628,-1.58085 -1.7053,-0.51874 -4.9685,-2.34151 -7.2516,-4.0506 -2.2831,-1.70909 -5.7331,-3.5045 -7.6667,-3.98979 -1.9335,-0.48529 -3.5155,-1.41731 -3.5155,-2.07114 0,-1.89996 0.9722,-1.52526 12.8687,4.95949 6.2035,3.38156 11.5911,5.83634 11.9724,5.45508 0.3812,-0.38127 -0.6705,-1.12601 -2.3371,-1.65498 -1.6666,-0.52897 -6.0754,-3.84172 -9.7972,-7.36166 -3.9775,-3.76172 -10.3272,-7.91627 -15.4036,-10.07844 -4.7501,-2.02319 -11.872,-5.71242 -15.8264,-8.19828 -7.5962,-4.7752 -9.4117,-4.40797 -9.4564,1.91275 -0.012,1.73916 -2.1939,4.69483 -5.4801,7.42454 -5.3747,4.46448 -5.4415,4.62715 -4.294,10.44391 l 1.1657,5.9088 10.9246,0.90907 c 7.2835,0.60608 13.492,2.05765 18.6274,4.35513 6.9287,3.09979 16.297,5.6306 21.7026,5.86291 1.1,0.0473 3.8,-0.71518 6,-1.69433 z m 17.3239,-8.75084 c 0.4672,-0.75581 -0.068,-0.97934 -1.2546,-0.52401 -2.3099,0.88638 -2.7325,1.84207 -0.8146,1.84207 0.69,0 1.6212,-0.59313 2.0692,-1.31806 z m -11.4009,-3.88356 c -5.2226,-3.28079 -10.5896,-9.06777 -10.5896,-11.41814 0,-0.39246 2.3546,1.64101 5.2324,4.51884 2.8778,2.87782 6.6111,5.97025 8.2961,6.87205 3.0652,1.64046 -2.6132,-5.84689 -12.2932,-16.20941 -2.1893,-2.34358 -3.6646,-4.57692 -3.2785,-4.96299 0.3861,-0.38608 2.9537,1.9031 5.7059,5.08706 2.7522,3.18395 7.3082,8.23218 10.1245,11.21828 l 5.1205,5.42926 -3.1094,-5.80306 c -1.7101,-3.19169 -5.1111,-8.14169 -7.5577,-11 -2.4467,-2.85832 -3.9063,-5.19694 -3.2436,-5.19694 1.954,0 6.4818,5.44533 11.5757,13.92157 2.6183,4.35686 4.7606,7.52907 4.7606,7.04936 0,-2.13723 -5.731,-15.11777 -8.2144,-18.60543 -1.5088,-2.1188 -2.4084,-4.1871 -1.9993,-4.59622 0.4091,-0.40912 2.5746,2.1429 4.8121,5.67114 3.7721,5.94802 5.8102,6.30584 2.688,0.47193 -0.8986,-1.67917 -0.9166,-2.57901 -0.051,-2.57901 0.7309,0 1.9843,2.55 2.7854,5.66666 3.1755,12.35395 3.7642,12.7724 3.8743,2.75347 0.126,-11.46024 -1.0306,-14.8563 -8.2432,-24.20516 l -5.4968,-7.12493 -6.9846,0.87267 c -4.8476,0.60566 -8.8667,0.23369 -13.1358,-1.21571 -6.8186,-2.31496 -10.7919,-1.20647 -15.8974,4.43508 -1.3879,1.53363 -6.0251,3.77091 -10.3047,4.97172 -4.2797,1.20081 -7.4203,2.76735 -6.9791,3.48119 1.6288,2.63546 16.8585,11.60966 23.3758,13.77437 4.4142,1.46616 9.7017,4.93005 15.3785,10.07459 7.4717,6.77116 13.1996,10.00079 18.3926,10.37046 0.7333,0.0522 -1.4014,-1.62301 -4.7438,-3.7227 z m 33.4308,-18.64839 c 0.014,-2.40935 0.3672,-2.9363 1.1451,-1.70911 0.7928,1.2506 1.3739,0.52886 1.9687,-2.44554 0.4642,-2.32087 2.0489,-5.91189 3.5215,-7.98004 3.0127,-4.23085 3.3285,-7.46295 1.2609,-12.90136 -1.5925,-4.18853 -3.4629,-5.73026 -6.9883,-5.76019 -2.1528,-0.0183 -2.3948,1.27267 -2.3077,12.31292 0.1416,17.95576 0.09,18.31683 -3.4142,23.86766 -4.5068,7.13928 -3.9953,9.15834 0.7936,3.13234 2.2,-2.76834 4.0092,-6.60085 4.0204,-8.51668 z m -13.7763,8.93334 c -0.4256,-1.06364 -0.7416,-0.7477 -0.8055,0.80556 -0.058,1.40556 0.2572,2.19306 0.7003,1.75 0.443,-0.44306 0.4904,-1.59306 0.1052,-2.55556 z m 8.4659,-5.82013 c 1.6101,-2.60524 2.6009,-5.06338 2.2017,-5.46254 -0.3991,-0.39916 -1.9797,1.7324 -3.5125,4.7368 -3.4268,6.71708 -2.6559,7.14392 1.3108,0.72574 z m -9.7992,-0.84653 c -0.4256,-1.06365 -0.7416,-0.7477 -0.8056,0.80555 -0.058,1.40556 0.2573,2.19306 0.7003,1.75 0.4431,-0.44305 0.4905,-1.59305 0.1053,-2.55555 z m 4.7601,-8.81106 c 0.081,-5.37003 0.2757,-5.78738 1.46,-3.13321 0.9369,2.09962 0.9273,4.70672 -0.03,8.29481 -0.7682,2.87804 -1.2371,5.23279 -1.042,5.23279 0.1951,0 1.8324,-2.55 3.6384,-5.66667 3.0493,-5.26232 3.2672,-6.83878 3.0545,-22.09323 -0.2458,-17.62565 -0.7266,-18.8495 -7.4181,-18.88224 -1.8333,-0.009 -7.5069,2.08585 -12.6079,4.65515 -7.2136,3.63335 -10.2447,4.48948 -13.6399,3.85253 -3.4718,-0.65132 -5.6095,0.005 -10.4437,3.20716 l -6.0783,4.0261 4.1053,0.90167 c 2.2579,0.49591 6.9342,0.51258 10.3919,0.037 5.7159,-0.78615 6.6065,-0.52449 9.8105,2.88226 1.9381,2.0608 4.9556,5.89002 6.7055,8.50939 1.7499,2.61937 3.8606,4.53618 4.6904,4.2596 0.8882,-0.29608 2.1983,2.57901 3.1857,6.99118 1.283,5.73277 1.9647,6.98017 2.9008,5.30749 0.673,-1.20261 1.2658,-4.97443 1.3173,-8.38181 z m -80.0235,-0.8247 c -1.6797,-2.68445 -1.4705,-4.99832 0.3875,-4.28534 1.1884,0.45605 1.5695,0.0251 1.0878,-1.23014 -0.4077,-1.06265 -0.042,-1.9321 0.8133,-1.9321 0.8551,0 1.169,-0.62405 0.6976,-1.38677 -0.5641,-0.91283 0.4342,-1.06509 2.9213,-0.4455 3.4123,0.85006 3.6011,0.72604 1.9485,-1.27989 -1.0799,-1.3108 -1.2488,-2.22117 -0.412,-2.22117 0.7798,0 1.7887,0.6 2.2419,1.33333 0.4532,0.73334 1.7816,1.33334 2.952,1.33334 1.8533,0 1.8165,-0.34422 -0.2853,-2.66667 -1.3273,-1.46667 -1.7557,-2.66667 -0.952,-2.66667 0.8037,0 1.8321,0.6 2.2853,1.33334 1.4766,2.38923 4.6573,1.53157 3.7085,-1 -0.7346,-1.96027 -0.5471,-2.06762 1.1728,-0.67138 1.6736,1.35863 2.4554,1.211 4.2833,-0.80882 1.8612,-2.05663 1.9335,-2.72181 0.4315,-3.96838 -1.3649,-1.13281 -3.0657,-0.85459 -6.9822,1.14215 -2.8478,1.45187 -6.7774,2.63976 -8.7326,2.63976 -4.122,0 -5.4285,1.34192 -9.9137,10.18238 -3.9065,7.69995 -4.0436,9.45365 -1.0017,12.8149 2.2413,2.4766 2.3238,2.44854 3.2766,-1.1141 0.5376,-2.01009 0.5698,-4.30611 0.072,-5.10227 z m 109.0526,-24.11424 c 3.7511,-10.5166 4.4411,-14.63717 5.5812,-33.33334 1.7082,-28.00997 1.493,-33.75198 -1.7898,-47.75667 -3.1572,-13.46863 -4.5954,-14.63631 -2.5574,-2.07632 3.2945,20.30354 1.132,53.58721 -5.1868,79.83299 -5.0966,21.16948 -3.0305,22.91182 3.9528,3.33334 z m -76.9935,1.0673 c -2.5486,-2.09593 -1.9791,-2.03535 4.6268,0.49212 2.024,0.77439 1.9798,0.48351 -0.3333,-2.19402 l -2.6667,-3.08676 2.9124,1.52734 c 4.3042,2.25733 5.1392,1.86437 2.4209,-1.13932 -1.3273,-1.46666 -1.7937,-2.66666 -1.0365,-2.66666 0.7572,0 2.1298,0.90739 3.0502,2.01644 2.1087,2.54086 5.2463,0.33636 5.4743,-3.84637 0.1229,-2.25316 0.2802,-2.35672 0.7645,-0.50341 0.3353,1.28334 1.4657,2.33334 2.512,2.33334 1.0462,0 1.9402,-1.05 1.9867,-2.33334 0.065,-1.78774 0.3665,-1.63186 1.2904,0.66667 1.5003,3.73261 4.5351,4.0158 3.5721,0.33333 -0.3835,-1.46666 -0.2235,-2.66666 0.3557,-2.66666 0.5791,0 1.3677,1.20376 1.7525,2.67503 0.6761,2.58561 0.8333,2.59826 4.701,0.37849 l 4.0016,-2.29656 -3.5456,-2.1624 c -1.95,-1.18932 -4.369,-3.15964 -5.3755,-4.37849 -2.707,-3.27826 -7.3009,-2.70855 -14.3848,1.78393 -4.0092,2.54259 -8.0626,4 -11.1248,4 -5.5802,0 -8.6814,2.05156 -9.7249,6.43333 -1.0705,4.49539 2.3263,7.87982 7.1919,7.1657 3.681,-0.54025 3.7894,-0.71404 1.5791,-2.53173 z M 984.77784,132.78592 c -4.78051,-8.78339 -14.01356,-18.32238 -23.15422,-23.92144 -6.95968,-4.26313 -6.61783,-3.7811 9,12.69015 8.92897,9.41689 16.23448,17.69681 16.23448,18.39983 0,0.70302 -8.12043,-7.09232 -18.0454,-17.32299 -17.85265,-18.40251 -20.7698,-19.26498 -8.08491,-2.39034 5.50035,7.31708 15.78502,16.42617 22.79698,20.19121 4.61224,2.47652 5.10989,-0.56019 1.25307,-7.64642 z m 22.15256,-11.86505 c 6.2004,-3.94978 14.5398,-12.47256 17.3595,-17.74126 0.9085,-1.69762 -3.9919,2.14764 -10.89,8.54502 -6.898,6.39737 -13.1128,11.63325 -13.81077,11.63528 -0.69794,0.002 5.00207,-6.03179 12.66667,-13.4085 9.0199,-8.68112 12.3546,-12.561299 9.4535,-10.999999 -12.398,6.672319 -28.47426,25.745519 -21.7002,25.745519 0.5465,0 3.6611,-1.69923 6.9213,-3.77606 z m -6.0973,-10.22394 c 1.3286,-3.66666 4.1594,-10.26666 6.2906,-14.666659 2.9665,-6.12432 3.2307,-7.21847 1.1268,-4.66667 -3.8034,4.61305 -10.36415,18.371609 -11.44437,23.999999 -1.21064,6.30799 0.96291,3.78914 4.02697,-4.66667 z m -3.98485,-22.333329 c -0.20046,-2.38333 -0.46828,-10.93333 -0.59516,-19 -0.17661,-11.22846 -0.54126,-13.88799 -1.55553,-11.34501 -2.71856,6.81601 -1.0448,34.67834 2.08321,34.67834 0.23757,0 0.26794,-1.95 0.0675,-4.33333 z m 4.41625,-11.66667 c 0.03,-4.76666 -0.7875,-11.06666 -1.81764,-14 l -1.87298,-5.33333 0.64211,8.52892 c 0.35316,4.69091 0.7131,12.79091 0.79986,18 0.20109,12.07252 2.16585,5.78535 2.24865,-7.19559 z m 15.6493,-1.55778 c 6.8362,-10.12296 9.7052,-13.22568 22.6713,-24.5184 13.778,-11.999798 22.6604,-18.35859 35.273,-25.251566 10.1766,-5.561644 10.789,-6.104421 6,-5.317839 -23.3732,3.839014 -54.5621,30.902615 -70.6581,61.312255 -5.4855,10.36369 -2.8192,7.89168 6.7138,-6.22445 z m -39.38903,-8.04222 c 0,-13.02636 -0.3894,-17.2106 -1.49847,-16.10153 -2.56282,2.56282 -1.71879,33.70153 0.9135,33.70153 0.32173,0 0.58497,-7.92 0.58497,-17.6 z m 5.17558,3.99896 c 0.15971,-6.3454 -2.27917,-20.40648 -3.35319,-19.33246 -0.32112,0.32112 -0.14151,8.01252 0.39911,17.09201 0.95205,15.98909 2.57702,17.22151 2.95408,2.24045 z m 55.44535,-5.20431 c 2.5823,-2.26728 6.6159,-6.61359 8.9635,-9.65848 3.3803,-4.38422 3.5902,-4.95777 1.0087,-2.75644 -1.7929,1.52884 -7.7598,6.55474 -13.2598,11.16865 -13.3066,11.16286 -13.5626,11.46076 -7.0371,8.19015 3.0963,-1.55186 7.7424,-4.67661 10.3247,-6.94388 z m -0.9543,-5.78807 c 6.7834,-5.72497 12.3334,-10.64567 12.3334,-10.9349 0,-0.28923 -2.4853,0.74199 -5.5227,2.2916 -6.1648,3.14505 -17.2322,13.02006 -21.5132,19.19544 -3.2853,4.73904 -4.1554,5.36348 14.7025,-10.55214 z m 225.5288,-3.07324 c -16.4634,-22.720521 -37.122,-37.406833 -63.2825,-44.987844 -15.4601,-4.4801838 -18.4884,-4.2036268 -5.2463,0.479122 23.6856,8.375821 43.3118,20.951298 60.6667,38.872262 6.9667,7.19388 12.8356,13.13003 13.0421,13.19145 0.2064,0.0614 -2.1245,-3.33833 -5.18,-7.55499 z M 1118.8581,17.974379 c 4.0333,-1.407802 5.7994,-2.288846 3.9246,-1.957875 -1.8748,0.33097 -10.2748,1.030297 -18.6667,1.55406 -9.7652,0.609481 -14.0579,1.295773 -11.9246,1.906426 6.3201,1.809054 19.2693,1.079396 26.6667,-1.502611 z m -51.4552,-3.984768 c 2.5823,-2.858314 6.1384,-8.0684768 7.9025,-11.5781398 6.6132,-13.1572442 4.8634,-12.5840522 -4.379,1.434424 -5.2515,7.9652628 -9.8689,14.1615048 -10.261,13.7694258 -0.3921,-0.392079 1.6436,-4.209112 4.5238,-8.4822958 2.8801,-4.273184 7.5,-11.369426 10.2664,-15.769426 l 5.0297,-8.0000002 -4.9409,4.6666662 c -6.5321,6.16958 -12.0168,14.202643 -15.1851,22.2407638 -2.494,6.327435 -2.4979,6.550453 -0.1155,6.729909 1.3552,0.102083 4.5768,-2.153014 7.1591,-5.011327 z m 50.1219,0.517227 c 8.0233,-0.672091 10.3598,-1.230911 8,-1.913392 -5.5168,-1.595497 -17.5184,-1.301509 -25.7282,0.630227 -10.5214,2.475679 -11.3282,3.998359 -1.6052,3.029604 4.4,-0.438395 13.1,-1.224293 19.3334,-1.746439 z m 15.3333,-7.7179778 c 11.2581,-1.688491 11.5466,-1.808302 4.6667,-1.937982 -7.5605,-0.142506 -33.2007,3.268949 -34.5254,4.593628 -0.9964,0.9964278 14.9862,-0.425075 29.8587,-2.655646 z m -71.9617,-15.480525 c 4.0968,-5.9116902 9.4112,-19.2525922 7.1004,-17.8244602 -1.1147,0.688932 -1.3248,0.218852 -0.701,-1.568217 1.5531,-4.449042 -11.617,10.651272 -15.2868,17.527206 -4.3289,8.1109052 -6.0378,13.2929412 -3.9604,12.0090182 0.8119,-0.50178003 1.4762,-0.164663 1.4762,0.749149 0,2.142689 6.9548,-4.519181 11.3716,-10.892696 z m -11.3716,8.76781097 c 0,-0.873355 14.7883,-23.75854717 16.3999,-25.37921417 3.0454,-3.062454 -0.8355,4.24239 -7.8727,14.818685 -6.7726,10.17859217 -8.5272,12.3516112 -8.5272,10.56052917 z M 1094.8581,322.03027 c 0,-0.73333 0.6,-1.33333 1.3333,-1.33333 0.7334,0 1.3334,0.6 1.3334,1.33333 0,0.73334 -0.6,1.33334 -1.3334,1.33334 -0.7333,0 -1.3333,-0.6 -1.3333,-1.33334 z m 122,-16 c 0.4532,-0.73333 1.0886,-1.33333 1.412,-1.33333 0.3234,0 0.588,0.6 0.588,1.33333 0,0.73334 -0.6354,1.33334 -1.412,1.33334 -0.7766,0 -1.0412,-0.6 -0.588,-1.33334 z m 134,-11.23234 c 0,-1.08361 5.6451,-11.47607 17.0598,-31.40658 3.9812,-6.9514 7.7098,-13.87823 8.2857,-15.39296 1.9472,-5.12159 -4.2523,-38.10448 -8.0142,-42.63727 -2.0694,-2.49347 -0.1207,-5.99752 3.3354,-5.99752 3.7702,0 5.2181,3.25807 2.6079,5.86826 -1.705,1.70501 -1.6168,3.31631 0.714,13.03858 1.4627,6.10124 2.6636,12.44316 2.6687,14.09316 0.01,1.65 0.6094,3 1.3427,3 0.7333,0 1.3438,-2.25 1.3565,-5 0.035,-7.58346 3.4282,-22.03089 6.6637,-28.37284 2.1756,-4.26468 2.4836,-5.90379 1.2521,-6.66491 -1.0163,-0.62808 -1.3036,-2.32258 -0.7607,-4.4858 0.6962,-2.77376 1.6759,-3.47645 4.8471,-3.47645 3.2807,0 3.9746,0.54592 3.9746,3.12669 0,1.71967 -1.2217,4.23237 -2.715,5.58377 -5.2656,4.7653 -9.5677,17.94256 -11.3036,34.62288 -1.0043,9.65063 -1.0583,9.70955 11.9917,-13.08919 l 9.0187,-15.75585 -0.6348,-10.91082 c -0.7078,-12.16616 -3.9638,-21.72806 -7.8149,-22.95037 -3.1239,-0.99149 -3.4577,-7.0261 -0.4524,-8.17933 2.7175,-1.04283 4.6862,1.00872 4.8173,5.02011 0.057,1.75933 0.9198,5.07421 1.9161,7.36641 0.9963,2.2922 2.5821,8.72988 3.5239,14.30597 1.5551,9.20695 1.8734,9.88055 3.4648,7.33229 0.9639,-1.54332 2.0871,-7.23101 2.4961,-12.6393 0.6457,-8.53692 0.4547,-9.83326 -1.4487,-9.83326 -1.2059,0 -2.1925,-0.58117 -2.1925,-1.29148 0,-0.71032 0.75,-1.01072 1.6667,-0.66755 1.2282,0.4598 1.7478,-2.09433 1.9752,-9.70851 0.1696,-5.68285 1.1754,-13.63246 2.2349,-17.66579 1.1056,-4.20847 1.4003,-7.52272 0.6915,-7.77778 -1.9254,-0.69291 -1.4514,-5.04944 0.7481,-6.8748 4.4782,-3.71661 8.1356,2.05449 4.1495,6.54759 -3.0248,3.40947 -4.8186,11.88024 -5.5281,26.10499 -0.7017,14.06993 -0.041,14.17796 4.0773,0.66667 1.2294,-4.03334 5.1789,-13.07501 8.7767,-20.09261 3.5979,-7.01761 6.5415,-13.99414 6.5415,-15.50341 0,-3.59405 3.0851,-6.0514 6.913,-5.50634 6.0704,0.86437 3.3654,9.70896 -3.2707,10.69453 -3.1245,0.46404 -12.3347,16.88502 -16.3074,29.07449 -1.3144,4.03334 -2.6763,8.10818 -3.0262,9.05522 -0.35,0.94704 2.9581,-2.05296 7.3514,-6.66667 6.7947,-7.13569 10.2991,-12.96873 23.464,-39.05522 26.7887,-53.082059 60.7652,-113.9999968 63.5827,-113.9999968 0.7113,0 1.2932,0.6 1.2932,1.3333328 0,3.168715 2.3723,0.816646 6.0468,-5.9953378 2.1743,-4.03076903 4.3628,-7.330769 4.8634,-7.333334 0.5006,-0.0026 1.3186,1.345338 1.8179,2.99533797 2.4498,8.09627303 33.9216,66.55404883 67.2962,124.99999783 8.5845,15.03334 16.6291,29.13334 17.8768,31.33334 1.2478,2.2 1.8654,2.8 1.3726,1.33333 -2.4801,-7.37982 -3.4008,-11.74943 -3.0234,-14.34812 0.3677,-2.53155 1.2357,-2.03358 7.4164,4.25483 l 7,7.12193 v -4.22381 c 0,-4.90367 3.2731,-13.4715 5.1464,-13.4715 1.7223,0 6.4699,10.15923 7.5487,16.15362 l 0.8676,4.82029 6.1628,-6.58855 c 5.9907,-6.40455 10.6017,-9.836 11.7175,-8.72013 1.1596,1.15956 -3.5326,13.95659 -7.2883,19.87738 l -3.9386,6.20927 4.2165,-1.20927 c 5.4833,-1.57258 14.2341,-1.55599 14.2341,0.027 0,2.21863 -9.3618,9.01683 -14.5631,10.57517 -2.7938,0.83704 -7.26,1.5219 -9.9249,1.5219 -5.2534,0 -5.3161,0.12912 -4.8541,10 0.1876,4.00724 3.3607,10.8035 12.7618,27.33334 6.8816,12.1 13.0555,22.81907 13.7197,23.82015 0.8614,1.2982 2.0895,-0.80475 4.2826,-7.33333 2.4362,-7.25186 3.0926,-12.20047 3.1598,-23.82016 0.087,-15.03945 2.6946,-26.63308 6.7467,-29.99596 1.5034,-1.24774 2.1404,-0.45708 3.4087,4.23072 2.5284,9.34587 0.9417,22.24413 -3.9957,32.48158 -3.8788,8.04246 -8.0749,18.58011 -8.0749,20.27858 0,0.36281 2.5501,-1.42406 5.6667,-3.97083 6.3137,-5.15915 11.9785,-8.31154 20.0591,-11.16254 9.1109,-3.2145 8.9414,-0.28099 -0.5307,9.18353 -6.2797,6.27472 -10.563,9.28187 -16.2451,11.40494 -4.2441,1.58582 -8.6063,2.88332 -9.6937,2.88332 -2.3927,0 -0.8461,3.2621 11.2724,23.77531 4.4759,7.57642 8.138,14.32642 8.138,15 0,0.67358 -1.2408,1.22469 -2.7574,1.22469 h -2.7575 l 2.7575,3.87249 c 1.5166,2.12987 2.7574,4.5429 2.7574,5.36227 0,1.07775 -8.5738,1.26813 -31,0.68835 -74.4487,-1.92471 -124.4066,-2.52936 -143,-1.73076 -34.1809,1.46809 -158,2.96383 -158,1.90864 z m 120,-3.42102 c 2.9086,-0.67237 -6.1328,-1.13064 -24,-1.21647 -45.675,-0.2194 -78.6667,-1.65041 -78.6667,-3.41215 0,-1.35377 23.2655,-51.5673 30.2947,-65.38469 1.4923,-2.93333 3.1343,-7.43333 3.6489,-10 0.972,-4.84763 -11.9782,16.45677 -36.2396,59.61808 l -12.1518,21.61809 12.2239,0.38192 c 22.1059,0.69066 100.1243,-0.50298 104.8906,-1.60478 z m 207.101,-2.34664 c -1.2617,-2.01666 -2.3826,-3.82379 -2.491,-4.01583 -0.1765,-0.31255 -93.7738,4.56028 -101.9433,5.30734 -3.4699,0.31731 47.4002,1.55988 85.0307,2.07699 l 21.6974,0.29817 z m -79.7677,-2.37368 c 38.1334,-1.86241 70.6622,-3.67134 72.2863,-4.01985 4.595,-0.98601 2.4838,-3.99091 -9.414,-13.399 -9.503,-7.51436 -27.492,-17.87414 -31.0372,-17.87414 -0.7146,0 -2.0364,2.03829 -2.9372,4.52953 -3.0101,8.32424 -13.6616,19.43672 -18.6544,19.46169 -2.033,0.0102 -1.3171,-3.25572 2.4392,-11.12757 l 2.451,-5.13636 -3.5668,0.79684 c -8.7954,1.96487 -21.2086,2.46753 -22.1786,0.89808 -1.2026,-1.94588 1.6151,-4.23268 10.998,-8.92584 l 7.0529,-3.52773 -4.3862,-2.6171 c -5.2208,-3.11504 -13.053,-10.37353 -13.053,-12.09689 0,-0.67458 4.1821,-0.98593 9.3334,-0.69486 5.1333,0.29006 9.3333,0.41901 9.3333,0.28656 0,-0.13245 -1.4928,-2.85206 -3.3173,-6.04358 -3.2703,-5.72068 -4.3251,-10.46943 -2.3255,-10.46943 1.3646,0 10.8622,6.34068 14.7168,9.82514 2.5367,2.293 2.919,2.3746 2.1869,0.46678 -1.2948,-3.37409 0.5827,-11.89876 2.4823,-11.27086 0.8746,0.2891 3.3786,3.41181 5.5644,6.93937 3.3786,5.45253 4.0178,7.92395 4.2651,16.49071 l 0.291,10.07697 5.0681,2.08853 c 9.1572,3.77354 16.1891,7.96152 23.8626,14.21167 4.1584,3.38705 7.2608,5.63629 6.8942,4.99831 -0.7222,-1.257 -26.1438,-43.74099 -28.3466,-47.37221 -0.7381,-1.21675 -4.342,-7.35319 -8.0087,-13.63654 -4.8789,-8.36082 -7.2029,-11.199 -8.6666,-10.58417 -9.3297,3.91897 -16.5384,5.68468 -23.3334,5.71533 -8.6025,0.0388 -18,-2.00561 -18,-3.91591 0,-2.68898 15.4312,-7.01146 25.6615,-7.18811 5.6805,-0.0981 10.3305,-0.24307 10.3333,-0.32217 0.03,-0.83822 -16.5346,-9.89756 -20.337,-11.12224 -9.4838,-3.05458 -28.1309,-24.03855 -24.5466,-27.62283 1.4381,-1.43817 11.8973,4.34122 18.6128,10.28487 3.0852,2.73053 7.3619,7.89814 9.5039,11.48357 2.6156,4.37818 6.2564,7.97581 11.0867,10.95521 3.9558,2.43993 7.4064,4.22202 7.6683,3.96021 0.2618,-0.26182 -3.058,-6.17279 -7.3774,-13.1355 -4.3193,-6.96271 -8.8566,-14.45947 -10.0829,-16.65947 -1.2262,-2.2 -14.5268,-24.4 -29.5568,-49.33333 -15.0301,-24.933339 -33.9016,-56.283339 -41.9368,-69.66667 -8.0351,-13.383334 -15.0038,-24.328204 -15.4858,-24.321935 -0.4821,0.0063 -5.0344,7.35627 -10.1164,16.333334 -10.2671,18.136582 -45.4776,78.565711 -59.6203,102.321931 -5.0206,8.43334 -7.7583,13.68334 -6.084,11.66667 2.7919,-3.36253 8.5469,-4.95286 10.577,-2.92279 2.934,2.93406 -4.5061,9.72195 -7.7776,7.09575 -3.3837,-2.71624 -9.0008,4.84458 -18.8783,25.41092 -5.4809,11.4122 -10.2857,21.29216 -10.6772,21.95547 -0.3914,0.6633 -0.019,0.77789 0.8276,0.25464 2.6089,-1.61238 1.7118,0.61776 -2.0167,5.01354 -1.9559,2.30586 -6.3764,10.19247 -9.8233,17.52581 -3.447,7.33333 -8.748,18.43333 -11.78,24.66666 -3.363,6.91386 -4.3418,9.7842 -2.51,7.36072 1.6515,-2.18493 8.3166,-9.90298 14.8112,-17.15122 11.3761,-12.69595 16.7137,-21.42105 17.503,-28.61102 0.4891,-4.45596 4.4253,-7.47677 6.9799,-5.35668 2.8892,2.39789 1.5935,8.34648 -1.9271,8.84689 -2.0798,0.29561 -4.2558,2.83616 -7.2651,8.48205 -2.3627,4.43303 -8.3868,12.44056 -13.3869,17.79452 l -9.0909,9.73448 10.356,-5.91014 c 5.6958,-3.25058 12.2787,-6.60871 14.6288,-7.46251 2.6309,-0.95583 4.4241,-2.60543 4.6666,-4.29277 0.4313,-3.00109 4.5642,-4.464 6.668,-2.36024 2.2678,2.26786 -0.1445,6.92592 -3.5868,6.92592 -4.3968,0 -14.0082,4.33348 -26.5941,11.99053 -8.7779,5.3403 -11.6557,7.9703 -15.6232,14.27779 -8.1935,13.02592 -13.5027,23.14344 -12.6121,24.03406 0.6749,0.67492 70.5391,2.65739 146.8087,4.16584 5.8667,0.11603 41.8667,-1.31282 80,-3.17523 z m 51.3334,-35.29299 c 0,-0.73333 0.6,-1.33333 1.3333,-1.33333 0.7333,0 1.3333,0.6 1.3333,1.33333 0,0.73334 -0.6,1.33334 -1.3333,1.33334 -0.7333,0 -1.3333,-0.6 -1.3333,-1.33334 z m -14.6667,-6.66666 c 0,-0.73334 0.6,-1.33334 1.3333,-1.33334 0.7334,0 1.3334,0.6 1.3334,1.33334 0,0.73333 -0.6,1.33333 -1.3334,1.33333 -0.7333,0 -1.3333,-0.6 -1.3333,-1.33333 z m -3.3333,-17.33334 c 0.4532,-0.73333 1.0886,-1.33333 1.412,-1.33333 0.3234,0 0.588,0.6 0.588,1.33333 0,0.73334 -0.6354,1.33334 -1.412,1.33334 -0.7767,0 -1.0412,-0.6 -0.588,-1.33334 z m -218,-29.22129 c 0,-0.67171 2.4487,-3.16068 5.4415,-5.53105 2.9928,-2.37036 5.9938,-5.76238 6.6688,-7.53782 0.8848,-2.32716 2.064,-3.10924 4.2252,-2.80229 3.8369,0.54496 5.0925,6.34701 1.4239,6.57959 -1.3344,0.0846 -3.1153,0.23459 -3.9578,0.33333 -0.8424,0.0987 -3.9663,2.42953 -6.9419,5.17953 -5.5924,5.16832 -6.8597,5.86646 -6.8597,3.77871 z m 18.6666,-0.11204 c 0,-0.73333 0.6,-1.33333 1.3334,-1.33333 0.7333,0 1.3333,0.6 1.3333,1.33333 0,0.73333 -0.6,1.33333 -1.3333,1.33333 -0.7334,0 -1.3334,-0.6 -1.3334,-1.33333 z m 151.3334,-9.33333 c -0.4532,-0.73334 -0.1887,-1.33334 0.588,-1.33334 0.7766,0 1.412,0.6 1.412,1.33334 0,0.73333 -0.2646,1.33333 -0.588,1.33333 -0.3234,0 -0.9588,-0.6 -1.412,-1.33333 z m -2.6667,-38.66667 c -0.4532,-0.73334 -0.1886,-1.33334 0.588,-1.33334 0.7766,0 1.412,0.6 1.412,1.33334 0,0.73333 -0.2646,1.33333 -0.588,1.33333 -0.3234,0 -0.9588,-0.6 -1.412,-1.33333 z m -118,-25.41202 c 0,-0.77662 0.6,-1.04121 1.3333,-0.58798 0.7334,0.45322 1.3334,1.08863 1.3334,1.41202 0,0.32339 -0.6,0.58798 -1.3334,0.58798 -0.7333,0 -1.3333,-0.63541 -1.3333,-1.41202 z m 214.9067,153.07869 c -1.4543,-2.38334 -6.9711,-11.83334 -12.2595,-21 -25.7098,-44.5641 -29.9705,-51.78775 -30.3326,-51.42575 -1.6838,1.6839 9.3422,24.35516 22.6667,46.60598 18.3223,30.59697 18.0188,30.1531 20.6241,30.1531 1.5617,0 1.4239,-0.85468 -0.6987,-4.33333 z m -59.0002,-12.43051 c 3.6171,-4.11969 6.7602,-9.71003 6.7602,-12.02387 0,-0.33775 -1.7953,0.31426 -3.9895,1.44894 -3.4324,1.77495 -11.9603,13.89536 -11.998,17.05235 -0.023,1.90977 4.8933,-1.54126 9.2273,-6.47742 z m -3.2398,-10.04408 8,-3.09883 -7.625,-1.19179 c -7.0246,-1.09793 -8.3109,-0.87086 -16.3334,2.88332 -4.7895,2.24132 -8.7083,4.48879 -8.7083,4.99438 0,1.87194 16.9292,-0.58994 24.6667,-3.58708 z m 7.8749,-9.33027 c -3.9798,-4.39768 -12.5551,-8.79491 -20.2739,-10.39611 -13.0595,-2.70909 -14.3868,-1.18593 -4.8464,5.56178 7.8658,5.56335 13.0468,7.41255 21.1187,7.53775 l 6.54,0.10144 z m -1.4584,-8.09175 c -4.3168,-7.93936 -19.0832,-20.65486 -19.0832,-16.43279 0,2.99758 9.1247,14.09629 14.8847,18.10485 3.9134,2.72349 7.3028,5.01316 7.5319,5.08817 0.2291,0.075 -1.2709,-2.9671 -3.3334,-6.76023 z m 7.0927,0.6714 c -0.4693,-3.42387 -2.4817,-9.57387 -4.472,-13.66667 l -3.6188,-7.44146 -0.4643,5.90657 c -0.3483,4.43235 0.473,7.82549 3.2908,13.59494 2.0653,4.22861 4.2866,7.72065 4.9363,7.7601 0.6497,0.0395 0.7973,-2.72962 0.328,-6.15348 z m 52.71,-3.93875 c 2.6872,-1.85564 5.9872,-4.63101 7.3333,-6.16749 2.8786,-3.28569 1.8911,-2.7728 -10.134,5.26329 -4.7198,3.15416 -9.1898,5.73482 -9.9333,5.73482 -2.0032,0 -0.086,-1.49945 11.8481,-9.26886 10.3681,-6.74958 9.3807,-8.24706 -1.3333,-2.02225 -6.9606,4.04406 -15.152,11.16767 -12.9213,11.23693 0.9599,0.0298 1.3555,0.68499 0.879,1.45596 -1.2404,2.00693 8.4836,-2.2425 14.2615,-6.2324 z m -9.7925,-45.16938 c -0.038,-3.79635 -0.1292,-3.72846 -1.7974,1.33334 -0.9667,2.93333 -1.732,9.53333 -1.7007,14.66666 l 0.057,9.33334 1.7404,-10.66667 c 0.9572,-5.86667 1.7225,-12.46667 1.7007,-14.66667 z m 2.9321,9.75277 c 0.6272,-11.32855 -0.4806,-11.1977 -2.0931,0.24723 -0.9815,6.96667 -1.7585,13.26667 -1.7266,14 0.1237,2.84908 3.5888,-10.0752 3.8197,-14.24723 z m -42.6176,4.22805 c -3.394,-12.18676 -10.725,-24.17672 -16.4525,-26.90796 -4.5885,-2.18808 -4.5677,-2.13673 6.8648,16.94471 6.307,10.52669 11.5862,19.02048 11.7316,18.87509 0.1454,-0.14539 -0.8194,-4.15572 -2.1439,-8.91184 z m -225.8304,-1.56415 c -0.4256,-1.06364 -0.7416,-0.7477 -0.8056,0.80556 -0.058,1.40555 0.2573,2.19305 0.7003,1.75 0.4431,-0.44306 0.4905,-1.59306 0.1053,-2.55556 z m 206.4225,-1.9169 c 3.4274,-1.59473 3.5229,-1.76134 0.6667,-1.16398 -1.8334,0.38344 -8.1334,1.1012 -14,1.59502 -7.7791,0.65481 -9.7643,1.16636 -7.3334,1.88968 4.3593,1.29709 15.6054,0.0342 20.6667,-2.32072 z m -3.4848,-2.48832 c 2.4834,-0.32861 4.8834,-0.99624 5.3334,-1.48363 1.3153,-1.42475 -20.1864,0.42593 -23.8486,2.05267 -2.712,1.20467 -1.7179,1.34532 5.3333,0.75455 4.7667,-0.39937 10.6986,-0.99498 13.1819,-1.32359 z m -195.9556,-7.34478 c 1.4969,-3.14303 1.4691,-3.18557 -0.486,-0.74516 -1.1405,1.42349 -2.0736,3.17349 -2.0736,3.88889 0,1.69406 0.6159,0.93765 2.5596,-3.14373 z m 216.1071,-6 c 0,-3.77778 -0.508,-4.66667 -2.6667,-4.66667 -1.4667,0 -2.6667,0.35743 -2.6667,0.79428 0,0.94393 4.4065,8.53906 4.9542,8.53906 0.2085,0 0.3792,-2.1 0.3792,-4.66667 z m -206.3185,-16 3.9335,-6.66667 -3.6062,3.33334 c -3.69,3.41091 -10.0128,14.54876 -10.0038,17.62234 0,1.68531 1.9184,-1.14029 9.6765,-14.28901 z m 174.1808,8.40934 c -2.3864,-4.459 -12.5379,-14.01278 -17.3854,-16.36178 -3.3975,-1.64632 -1.905,0.24719 6.1897,7.85314 5.8667,5.5124 10.0667,10.02808 9.3334,10.03485 -0.7334,0.007 -4.3598,-2.82595 -8.0589,-6.29495 -3.699,-3.469 -7.8756,-7.20727 -9.2812,-8.30727 -2.2876,-1.79019 -2.2602,-1.58037 0.2618,2 3.5831,5.08679 7.8624,8.99205 13.6507,12.45758 5.2717,3.15614 7.4183,2.59548 5.2899,-1.38157 z m 22.5985,-5.61475 c -7.0426,-6.64 -13.6669,-10.05929 -15.6181,-8.06172 -1.3677,1.4001 11.6955,12.47961 16.279,13.80697 7.1655,2.07509 7.1086,1.58005 -0.6609,-5.74525 z m 27.5392,4.3892 c 2.2,-0.68152 5.5,-2.41334 7.3333,-3.84848 l 3.3333,-2.60935 -5.3333,-3.6e-4 c -5.8205,-4e-4 -14.9628,3.59835 -17.7749,6.99684 -1.5911,1.92279 -1.2457,2.07021 3.3333,1.42276 2.8096,-0.39725 6.9083,-1.27988 9.1083,-1.96141 z m -14.0894,-15.18379 c 0.022,-6.77472 -0.7427,-10.97816 -2.7908,-15.33334 l -2.8216,-6 -1.9018,6 c -2.3111,7.29146 -1.5937,18.39573 1.7194,26.61293 l 2.3975,5.94626 1.6832,-3.94626 c 0.9258,-2.17044 1.6971,-8.14626 1.7141,-13.27959 z m -8.6453,9.37616 c -1.0626,-2.54312 -1.932,-6.08507 -1.932,-7.87101 0,-1.98941 -2.3035,-5.75027 -5.947,-9.70949 -7.0896,-7.70376 -8.0375,-5.46385 -2.6257,6.20434 2.7035,5.82889 10.3951,16 12.0996,16 0.1854,0 -0.5323,-2.08073 -1.5949,-4.62384 z m 22.8234,-13.25069 c 2.5337,-5.06432 4.2436,-9.56432 3.7999,-10 -1.5356,-1.50785 -15.222,14.54126 -15.222,17.8499 0,1.7514 -0.639,4.87342 -1.42,6.93783 -2.8177,7.44773 7.8815,-4.8724 12.8421,-14.78773 z m -38.0887,4.04546 c 0,-0.27266 -3.3704,-6.42266 -7.4897,-13.66667 -29.0775,-51.133609 -62.9796,-112.613489 -71.4732,-129.613222 l -8.2151,-16.44229183 -3.6094,7.10895803 c -1.9851,3.9099268 -3.449,7.4089588 -3.2531,7.7756248 0.349,0.653018 34.5534,57.500572 69.1602,114.943761 12.1512,20.16958 18.2623,29.10787 20.1588,29.48509 4.5585,0.90673 4.7215,0.92084 4.7215,0.40875 z M 1469.4586,89.363601 c 20.9758,-35.78023 42.7328,-74.123884 42.7328,-75.310533 0,-7.2784478 -14.7947,17.568219 -49.83,83.685963 -12.3335,23.275529 -15.1205,29.924769 -5.7106,13.624569 3.1751,-5.5 8.9386,-15.399999 12.8078,-21.999999 z M 1244.1914,284.69694 c 0,-0.73334 0.6,-1.33334 1.3334,-1.33334 0.7333,0 1.3333,0.6 1.3333,1.33334 0,0.73333 -0.6,1.33333 -1.3333,1.33333 -0.7334,0 -1.3334,-0.6 -1.3334,-1.33333 z m 114.6667,-29.33334 c 0,-0.73333 0.6354,-1.33333 1.412,-1.33333 0.7766,0 1.0412,0.6 0.588,1.33333 -0.4532,0.73334 -1.0886,1.33334 -1.412,1.33334 -0.3234,0 -0.588,-0.6 -0.588,-1.33334 z m 296,-32 c 0,-0.73333 0.6,-1.33333 1.3333,-1.33333 0.7334,0 1.3334,0.6 1.3334,1.33333 0,0.73334 -0.6,1.33334 -1.3334,1.33334 -0.7333,0 -1.3333,-0.6 -1.3333,-1.33334 z m 30.6667,-13.33333 c 0,-0.73333 0.6,-1.33333 1.3333,-1.33333 0.7334,0 1.3334,0.6 1.3334,1.33333 0,0.73333 -0.6,1.33333 -1.3334,1.33333 -0.7333,0 -1.3333,-0.6 -1.3333,-1.33333 z m -295.3334,-1.33333 c -0.4532,-0.73334 0.1468,-1.33334 1.3334,-1.33334 1.1865,0 1.7865,0.6 1.3333,1.33334 -0.4532,0.73333 -1.0532,1.33333 -1.3333,1.33333 -0.2801,0 -0.8801,-0.6 -1.3334,-1.33333 z m 259.3334,-2.66667 c 0,-0.73333 0.6,-1.33333 1.3333,-1.33333 0.7333,0 1.3333,0.6 1.3333,1.33333 0,0.73333 -0.6,1.33333 -1.3333,1.33333 -0.7333,0 -1.3333,-0.6 -1.3333,-1.33333 z m -11.3334,-12 c -0.4532,-0.73333 -0.1886,-1.33333 0.588,-1.33333 0.7766,0 1.412,0.6 1.412,1.33333 0,0.73333 -0.2645,1.33333 -0.5879,1.33333 -0.3234,0 -0.9588,-0.6 -1.4121,-1.33333 z m -308,-6.66667 c -0.4532,-0.73333 -0.1886,-1.33333 0.588,-1.33333 0.7766,0 1.412,0.6 1.412,1.33333 0,0.73334 -0.2645,1.33334 -0.5879,1.33334 -0.3234,0 -0.9588,-0.6 -1.4121,-1.33334 z M 978.8581,150.03027 c 0,-0.73334 0.6,-1.33334 1.33333,-1.33334 0.73334,0 1.33334,0.6 1.33334,1.33334 0,0.73333 -0.6,1.33333 -1.33334,1.33333 -0.73333,0 -1.33333,-0.6 -1.33333,-1.33333 z m 368.6667,0 c -0.4532,-0.73334 -0.1887,-1.33334 0.588,-1.33334 0.7766,0 1.412,0.6 1.412,1.33334 0,0.73333 -0.2646,1.33333 -0.588,1.33333 -0.3234,0 -0.9588,-0.6 -1.412,-1.33333 z m 314,-5.33334 c 0,-0.73333 0.6,-1.33333 1.3333,-1.33333 0.7333,0 1.3333,0.6 1.3333,1.33333 0,0.73334 -0.6,1.33334 -1.3333,1.33334 -0.7333,0 -1.3333,-0.6 -1.3333,-1.33334 z m -698.6667,-4 c 0,-0.73333 0.63541,-1.33333 1.41202,-1.33333 0.77662,0 1.04121,0.6 0.58798,1.33333 -0.45322,0.73334 -1.08863,1.33334 -1.41202,1.33334 -0.32339,0 -0.58798,-0.6 -0.58798,-1.33334 z m 456.6667,-1.33333 c 0.4532,-0.73333 1.0886,-1.33333 1.412,-1.33333 0.3234,0 0.588,0.6 0.588,1.33333 0,0.73333 -0.6354,1.33333 -1.412,1.33333 -0.7767,0 -1.0412,-0.6 -0.588,-1.33333 z m 191.3333,-10.66667 c 0,-0.73333 0.6,-1.33333 1.3333,-1.33333 0.7334,0 1.3334,0.6 1.3334,1.33333 0,0.73334 -0.6,1.33334 -1.3334,1.33334 -0.7333,0 -1.3333,-0.6 -1.3333,-1.33334 z m -293.3333,-1.33333 c 0,-0.73333 0.6,-1.33333 1.3333,-1.33333 0.7333,0 1.3333,0.6 1.3333,1.33333 0,0.73333 -0.6,1.33333 -1.3333,1.33333 -0.7333,0 -1.3333,-0.6 -1.3333,-1.33333 z m -342.6667,-20 c 0,-0.73333 0.6,-1.33333 1.33333,-1.33333 0.73334,0 1.33334,0.6 1.33334,1.33333 0,0.73333 -0.6,1.33333 -1.33334,1.33333 -0.73333,0 -1.33333,-0.6 -1.33333,-1.33333 z m 20,-72 c 0,-0.733333 0.6,-1.333333 1.33334,-1.333333 0.73333,0 1.33333,0.6 1.33333,1.333333 0,0.733333 -0.6,1.333333 -1.33333,1.333333 -0.73334,0 -1.33334,-0.6 -1.33334,-1.333333 z m 48.6667,-8 c 0.4532,-0.733334 1.0886,-1.333334 1.412,-1.333334 0.3234,0 0.588,0.6 0.588,1.333334 0,0.733333 -0.6354,1.333333 -1.4121,1.333333 -0.7766,0 -1.0412,-0.6 -0.5879,-1.333333 z"
       id="path1" />
  </g>
</svg>
