<?xml version="1.0" encoding="UTF-8" standalone="no"?>
<!-- Created with Inkscape (http://www.inkscape.org/) -->

<svg
   version="1.1"
   id="svg1"
   width="1126"
   height="1489.9034"
   viewBox="0 0 1126 1489.9034"
   xmlns:xlink="http://www.w3.org/1999/xlink"
   xmlns="http://www.w3.org/2000/svg"
   xmlns:svg="http://www.w3.org/2000/svg">
  <defs
     id="defs1" />
  <g
     id="g1"
     transform="translate(-3883.1411,376.51707)">
    <path
       style="fill:#000000"
       d="m 2164.6134,1012.6625 c 0,-1.9976 0.6667,-2 563,-2 562.3333,0 563,0 563,2 0,1.9976 -0.6667,2 -563,2 -562.3333,0 -563,0 -563,-2 z m 607.5,-27.84187 c -6.6838,-4.086 -8.0811,-8.8329 -5.9513,-20.2186 1.46,-7.805 6.5447,-25.1702 9.5456,-32.5998 1.067,-2.6417 1.0095,-4.2827 -0.3502,-10 -1.6296,-6.852 -1.4128,-10.5265 1.1211,-19.0033 1.4497,-4.8499 8.982,-17.2153 13.4182,-22.028 7.9177,-8.5897 11.4105,-3.6178 5.0681,7.2143 -9.2767,15.8435 -10.476,18.4402 -10.1613,22.0005 l 0.3098,3.5053 8.3219,-10.0376 c 8.7506,-10.5548 17.7131,-18.7272 22.8885,-20.871 7.1867,-2.9768 13.2898,4.8368 14.0776,18.0231 0.399,6.6791 0.1294,8.3576 -2.1374,13.309 -5.1375,11.2217 -21.04,22.7575 -33.3691,24.206 l -5.2184,0.6131 -1.6792,5.6145 c -0.9235,3.0879 -3.7502,13.6827 -6.2815,23.5439 -2.5313,9.8612 -5.0524,18.0719 -5.6024,18.246 -0.55,0.1741 -2.35,-0.5087 -4,-1.5174 z m 34.4716,-64.2304 c 10.4316,-4.7319 14.9659,-10.9797 15.0064,-20.6777 0.029,-6.9789 -1.8077,-6.938 -8.5485,0.1903 -4.1765,4.4166 -13.4295,19.5488 -13.4295,21.9624 0,1.0937 2.4529,0.5747 6.9716,-1.475 z m 260.0474,65.1352 c -1.3645,-0.3542 -3.804,-2.5266 -5.4212,-4.8275 -2.3419,-3.3321 -2.9176,-5.1714 -2.8295,-9.0392 0.1387,-6.0897 4.1913,-22.2228 8.7363,-34.7787 2.9362,-8.1114 3.2848,-9.9261 2.2582,-11.7548 -0.6946,-1.2374 -1.2055,-5.8271 -1.1941,-10.7271 0.019,-8.1508 0.2455,-9.025 4.6921,-18.1046 7.8802,-16.0906 17.709,-24.7381 18.5356,-16.3079 0.2125,2.1665 -0.8505,4.7977 -3.7511,9.2856 -6.0027,9.2872 -8.9263,15.5065 -9.5704,20.3587 l -0.5752,4.3326 3.2651,-4 c 1.7959,-2.2 8.2309,-8.9968 14.3002,-15.1041 12.6775,-12.7568 16.8308,-15.0272 21.3943,-11.695 5.7979,4.2335 8.9259,16.1454 6.7254,25.6116 -3.052,13.1291 -19.7222,27.3183 -34.371,29.2557 -3.3161,0.4385 -5.5964,1.3016 -6.1181,2.3155 -1.2544,2.4377 -6.6408,22.3022 -9.1153,33.6163 -1.203,5.5 -2.7031,10.4966 -3.3337,11.1035 -0.6306,0.607 -2.263,0.8137 -3.6276,0.4594 z m 35.7283,-66.2095 c 8.0105,-3.8272 13.2338,-12.1481 13.2471,-21.1034 0,-3.1323 -0.3368,-3.75 -2.0729,-3.75 -2.1662,0 -8.0676,5.3331 -11.6188,10.5 -1.9915,2.8975 -9.3027,16.5089 -9.3027,17.319 0,0.7409 5.4774,-0.9255 9.7473,-2.9656 z m -533.1515,31.0966 c -4.9615,-4.3562 -6.1097,-8.549 -6.0114,-21.95 0.075,-10.2239 2.4586,-25.7366 4.9537,-32.2388 0.444,-1.1569 -1.017,-2.4322 -5.5613,-4.8542 -10.0072,-5.3338 -14.4883,-13.5838 -10.2328,-18.8392 2.1102,-2.606 4.256,-2.1165 4.256,0.9709 0,2.2477 5.9407,5.5892 13.4866,7.5857 l 4.9866,1.3194 3.5134,-3.3226 c 5.8309,-5.5142 8.1017,-6.6236 13.4859,-6.5879 5.265,0.035 8.2201,1.6553 10.3807,5.6924 1.2707,2.3743 1.5332,11.1871 0.3815,12.8088 -2.1742,3.0613 -6.9535,5.406 -13.1495,6.4511 -6.5824,1.1103 -6.89,1.2881 -7.5001,4.3361 -1.4914,7.4513 -2.772,28.9909 -2.316,38.9567 0.4431,9.6855 0.309,10.877 -1.3223,11.75 -3.1158,1.6676 -5.7518,1.0817 -9.351,-2.0784 z m 24.8391,-67.9252 c 3.2092,-1.2202 3.5873,-5.0248 0.4994,-5.0248 -2.826,0 -5.6773,1.6513 -6.9466,4.0229 -0.9212,1.7214 -0.7387,1.9771 1.412,1.9771 1.3586,0 3.6244,-0.4389 5.0352,-0.9752 z m -217.7174,57.948 c -8.5312,-2.1541 -15.3382,-7.3492 -16.2447,-12.398 -0.3036,-1.6911 -0.1121,-9.1262 0.4255,-16.5223 l 0.9776,-13.4475 -3.3554,-3.714 c -5.248,-5.8089 -5.8036,-7.3263 -4.071,-11.1182 0.8225,-1.8 2.4616,-4.4647 3.6425,-5.9214 1.9213,-2.3701 2.1373,-3.8068 2.054,-13.6637 -0.095,-11.2908 -1.8015,-18.4578 -4.6542,-19.5525 -2.112,-0.8104 -13.4682,8.3174 -17.2498,13.8648 -1.8746,2.75 -4.0676,5.1497 -4.8733,5.3326 -2.2716,0.5157 -4.3687,-1.7944 -4.3687,-4.8125 0,-3.6313 14.1263,-17.2672 26.3326,-25.4183 32.7299,-21.8566 60.9711,-27.0851 82.9686,-15.3606 3.6282,1.9338 7.1714,4.7972 8.9471,7.2303 2.8358,3.8859 2.9253,4.3471 2.5266,13.0285 -0.3671,7.9961 -0.8362,9.8366 -4.2051,16.5 -2.0855,4.125 -4.4985,8.3005 -5.362,9.2789 -1.4441,1.6361 -1.3749,1.9144 0.861,3.465 11.2293,7.7875 18.9312,20.2174 18.9312,30.5526 0,20.127 -15.4432,35.0597 -42.6639,41.2537 -8.1046,1.8441 -35.1918,2.7929 -40.6186,1.4226 z m 36.6684,-15.9436 c 16.1422,-4.1285 28.0888,-12.1043 31.0212,-20.7105 3.7954,-11.1389 1.0407,-20.3091 -7.5797,-25.2324 l -5.1443,-2.9381 -5.5485,4.5198 c -9.272,7.5529 -21.3906,12.9885 -35.7394,16.0301 -11.0041,2.3327 -12.6943,2.9584 -13.4646,4.9843 -1.3336,3.5077 -0.053,8.5902 1.9554,7.7603 3.9334,-1.6253 11.5323,-3.2817 18.0647,-3.9377 5.721,-0.5746 7.5629,-0.3985 9.5672,0.9148 1.3651,0.8945 2.4821,2.031 2.4821,2.5257 0,1.1775 -4.8294,2.6245 -13.5,4.045 -8.7994,1.4416 -14.8406,4.0735 -17.034,7.421 -1.9509,2.9775 -0.8915,5.1627 2.8566,5.8923 6.6974,1.3037 24.7951,0.5843 32.0633,-1.2746 z m -15.2933,-44.0472 c 10.4291,-3.3875 18.9074,-6.9633 18.9074,-7.9743 0,-0.967 -6.2169,-1.9827 -12.2216,-1.9967 -5.9929,-0.014 -19.3563,2.8592 -23.2784,5.0049 -3.2955,1.803 -4.6752,6.6133 -2.3301,8.1238 1.9205,1.2369 9.0617,0.045 18.9227,-3.1577 z m -11.5419,-17.9895 c 12.688,-2.8461 26.3383,-3.5288 34.7979,-1.7404 l 6.8487,1.4479 2.4066,-2.5954 c 5.1277,-5.5301 8.6017,-17.1651 7.0139,-23.4913 -0.7941,-3.164 -4.9905,-7.2249 -9.6178,-9.3074 -4.8855,-2.1986 -24.3376,-2.2028 -32.6863,-0.01 -7.7412,2.036 -21.291,7.2253 -23.8696,9.1414 -1.907,1.4171 -1.8929,1.537 0.7368,6.2767 1.7909,3.2277 3.0861,7.7287 3.9015,13.5574 0.6714,4.7991 1.2878,8.7256 1.3698,8.7256 0.082,0 4.1763,-0.9034 9.0985,-2.0075 z m 148.974,68.5092 -7.7029,-10.4982 -5.3315,0.6266 c -7.183,0.8442 -10.1869,-0.083 -12.4783,-3.8508 -2.3195,-3.8141 -2.6199,-3.1562 -3.4891,7.6436 -0.3507,4.3577 -1.0777,8.7452 -1.6155,9.75 -1.5091,2.8199 -7.0199,2.4016 -9.9831,-0.7576 -2.2403,-2.3886 -2.4086,-3.2802 -2.2173,-11.75 0.2307,-10.2112 5.1226,-31.487 7.6054,-33.0769 1.1589,-0.7421 0.9368,-1.3349 -1.1945,-3.1894 -3.3836,-2.9441 -2.3029,-4.9887 4.4394,-8.399 8.8737,-4.4883 23.2144,-2.882 32.6669,3.6591 9.8041,6.7844 12.3041,21.8059 5.0614,30.4133 -2.361,2.806 -2.4937,3.3595 -1.2657,5.2811 6.2145,9.7245 9.9801,16.7074 9.9801,18.5068 0,2.4069 -3.2747,6.1397 -5.3862,6.1397 -0.7624,0 -4.8525,-4.7242 -9.0891,-10.4983 z m -13.6766,-16.0165 c 0.9086,-0.9086 -1.2153,-2.4852 -3.3481,-2.4852 -2.6312,0 -3.9821,1.411 -2.9499,3.081 0.576,0.9321 5.2083,0.4939 6.298,-0.5958 z m -7.7125,-8.0464 c 3.3754,-1.522 4.6269,-1.6063 8.9698,-0.6038 6.8947,1.5915 6.8084,1.6156 8.4743,-2.3716 1.1397,-2.7276 1.2434,-4.4067 0.4532,-7.3412 -1.2127,-4.5037 -3.0197,-6.3095 -9.0509,-9.0453 -4.7065,-2.1348 -17.3326,-2.9367 -18.4244,-1.1702 -0.3082,0.4987 0.2278,0.725 1.191,0.5029 0.9633,-0.2221 2.5646,0.2257 3.5585,0.9953 1.7114,1.325 1.7247,1.8338 0.25,9.6076 -0.8564,4.5146 -1.5266,9.8462 -1.4894,11.848 0.06,3.2459 0.18,3.4074 1.1064,1.4934 0.5714,-1.1804 2.804,-2.9422 4.9615,-3.9151 z m 160.0387,32.2467 c -1.1959,-1.2729 -2.1743,-3.2219 -2.1743,-4.331 0,-1.1455 -1.1172,-2.6144 -2.5865,-3.4008 -4.8178,-2.5784 -8.4135,-8.2575 -8.4135,-13.2886 0,-2.5009 0.4191,-4.8061 0.9312,-5.1226 0.5122,-0.3166 2.6497,0.5929 4.75,2.0211 l 3.8188,2.5966 0.5881,-8.3301 c 0.6504,-9.2111 2.6907,-14.3166 6.3962,-16.0049 5.0783,-2.3138 5.5157,-1.1541 5.5157,14.6244 v 14.5123 l 2.5794,0.6474 c 3.5135,0.8818 12.9703,-0.3251 16.3855,-2.0912 4.8656,-2.5161 5.3791,-7.801 1.5453,-15.9049 -5.5537,-11.7395 -18.0946,-20.3579 -31.0495,-21.3376 -6.537,-0.4944 -7.4261,-0.3388 -9.0761,1.5881 -2.2423,2.6189 -2.5909,2.6369 -4.1052,0.2121 -1.737,-2.7814 0.8831,-7.5882 4.8994,-8.9883 4.4348,-1.546 15.4104,-1.3455 22.1279,0.4042 8.6517,2.2535 15.0207,5.9001 21.6721,12.4084 12.6431,12.3713 14.373,24.7383 4.9567,35.4358 -4.9582,5.6328 -14.916,10.768 -22.2095,11.4534 -3.4969,0.3286 -6.1613,1.2719 -8.0527,2.8509 -3.5571,2.9695 -5.7409,2.9812 -8.499,0.045 z m 52.4977,0.2712 c -3.7796,-2.9731 -4.3074,-7.6103 -1.7257,-15.1619 1.1837,-3.4621 2.4018,-7.0604 2.7068,-7.9962 0.3491,-1.0708 -0.4749,-2.6557 -2.2232,-4.276 -3.2115,-2.9763 -2.5241,-4.2337 2.5701,-4.7013 3.3271,-0.3054 3.7405,-0.7906 8.3692,-9.8213 4.8468,-9.4564 6.2506,-11.6351 14.422,-22.3823 3.7268,-4.9015 4.5489,-5.506 6.25,-4.5956 2.9175,1.5614 4.5499,4.6547 6.8488,12.9779 3.08,11.1516 5.22,29.9473 4.8957,43 -0.2848,11.4619 -0.2938,11.5 -2.7374,11.5 -3.7615,0 -7.9728,-6.6991 -8.0151,-12.75 l -0.033,-4.75 h -7.8776 c -5.1079,0 -8.2252,0.4395 -8.8665,1.25 -0.5439,0.6875 -2.2205,4.9913 -3.7259,9.5641 -2.1768,6.6126 -3.2407,8.5056 -5.1986,9.25 -3.1101,1.1825 -2.6284,1.2767 -5.6594,-1.1074 z m 29.3143,-37.7067 c -0.017,-5.9243 -0.9095,-9.4155 -2.2028,-8.6162 -1.1827,0.731 -5.7598,10.336 -5.7737,12.1162 -0.01,0.7933 1.4517,1.25 3.9902,1.25 h 4 z m 158.5229,37.3835 c -7.2306,-2.5318 -11.9082,-6.5752 -12.6996,-10.9776 -0.2131,-1.1858 0.012,-8.301 0.4992,-15.8116 l 0.8867,-13.6557 -4.0977,-5.1841 c -2.2538,-2.8513 -4.0978,-6.2342 -4.0978,-7.5177 0,-1.2835 1.6376,-4.479 3.6392,-7.1012 l 3.6392,-4.7676 -0.5636,-11.059 c -0.5337,-10.4721 -2.2744,-17.5508 -4.682,-19.0387 -2.1036,-1.3001 -14.2098,8.7679 -18.6979,15.5498 -2.8809,4.3534 -5.6666,5.0472 -7.3835,1.8392 -1.7392,-3.2499 0.3314,-6.876 8.3844,-14.6832 15.1366,-14.6746 42.6397,-29.9345 60.8585,-33.767 17.9537,-3.7766 38.3442,0.8456 47.5183,10.7717 3.6432,3.9418 4.7504,9.7401 3.41,17.8566 -1.2231,7.4064 -5.6974,17.7446 -9.3842,21.683 l -2.1253,2.2703 2.4435,1.6886 c 5.9465,4.1094 12.8341,11.7059 15.7636,17.3862 2.7222,5.2781 3.1798,7.2192 3.1798,13.4875 0,10.7699 -2.763,17.3338 -10.5969,25.174 -11.5673,11.5767 -27.9884,17.0082 -53.9031,17.8291 -14.0151,0.444 -15.459,0.3145 -21.9908,-1.9726 z m 36.8449,-13.6912 c 14.2916,-2.6419 29.4021,-11.6237 33.6877,-20.0242 2.4588,-4.8197 2.6764,-15.6286 0.403,-20.0248 -1.5706,-3.0373 -9.6381,-8.8933 -12.2518,-8.8933 -0.7785,0 -3.5029,1.7427 -6.0542,3.8726 -8.0716,6.7385 -21.6375,12.8046 -35.3643,15.8133 -6.751,1.4797 -12.6051,3.1682 -13.0092,3.7523 -0.4041,0.584 -0.7416,3.0224 -0.75,5.4188 -0.012,3.5062 0.2839,4.2422 1.5168,3.769 9.2245,-3.5397 27.1646,-5.3266 29.5498,-2.9432 2.4323,2.4305 0.1379,4.1001 -7.2613,5.2838 -15.6981,2.5113 -22.8206,5.8126 -22.8206,10.5774 0,1.8472 0.7473,2.6146 3.25,3.3372 4.5061,1.3011 22.1955,1.3383 29.1041,0.061 z m -12.8834,-44.6335 c 9.239,-2.8986 20.5019,-7.5222 20.5182,-8.4229 0.015,-0.8011 -8.0124,-1.8878 -13.8785,-1.8789 -5.3048,0.01 -20.1093,3.3508 -23.0931,5.2143 -1.8648,1.1645 -2.8946,6.5681 -1.5147,7.9479 1.0343,1.0344 10.2098,-0.4263 17.9681,-2.8604 z m -4.644,-19.3647 c 13.3097,-2.2754 20.2588,-2.4081 29.1015,-0.556 6.2141,1.3016 6.5026,1.272 8.6612,-0.8866 6.1291,-6.1291 9.614,-21.4898 6.0941,-26.8617 -6.1353,-9.3637 -27.6221,-10.9632 -49.6699,-3.6975 -8.659,2.8536 -17.0136,7.2474 -17.0136,8.9478 0,0.4758 0.6503,1.4047 1.4452,2.0644 1.8057,1.4986 4.2478,8.9628 5.0862,15.5455 0.9675,7.5977 1.431,8.7284 3.2863,8.0165 0.9003,-0.3455 6.7544,-1.5031 13.009,-2.5724 z m 80.6465,76.6553 c -1.4891,-2.2725 -3.1506,-6.3011 -7.5579,-18.3244 -2.8953,-7.8986 -2.6204,-18.4673 0.6511,-25.0324 3.5358,-7.0954 12.6867,-15.3746 19.384,-17.5376 10.1555,-3.2798 24.9171,-1.1305 23.7184,3.4534 -0.3344,1.2789 0.3585,1.9083 2.6566,2.4131 7.8961,1.7342 11.1776,6.895 11.0927,17.4453 -0.052,6.4319 -0.4809,8.236 -2.9736,12.5 -3.7561,6.425 -9.6818,12.3284 -15.8153,15.7557 -5.372,3.0018 -16.5354,6.7275 -20.1578,6.7275 -1.2749,0 -3.6549,1.125 -5.289,2.5 -3.6468,3.0685 -3.7625,3.0705 -5.7092,0.099 z m 25.5022,-20.5868 c 8.8252,-4.5023 14.0246,-11.3369 14.0246,-18.4352 0,-4.3698 -2.9286,-6.1886 -8.3327,-5.1748 -5.6585,1.0616 -12.4228,10.3033 -17.6995,24.182 l -1.0246,2.695 4.5316,-0.6211 c 2.4924,-0.3416 6.3176,-1.5323 8.5006,-2.6459 z m -15.547,-20.5126 c 1.0606,-1.65 3.5145,-4.6875 5.4529,-6.75 4.1236,-4.3873 3.4463,-4.7181 -2.5115,-1.2265 -6.5212,3.8216 -10.4841,10.2516 -10.9736,17.8048 l -0.3999,6.1717 3.2518,-6.5 c 1.7886,-3.575 4.1197,-7.85 5.1803,-9.5 z m -553.0234,37.3965 c -2.5143,-2.7764 -3.0455,-15.3732 -1.4504,-34.3965 1.4279,-17.0283 1.9514,-20.728 3.1023,-21.9229 1.3255,-1.3762 5.8181,1.0105 6.886,3.6582 0.9212,2.284 3.0651,34.0641 3.0599,45.3597 0,4.6323 -0.4417,6.4922 -1.8315,7.75 -2.5667,2.3228 -7.4601,2.098 -9.7663,-0.4485 z m 146.8006,1.0559 c -3.1184,-1.2515 -5.2056,-6.7135 -5.2056,-13.6227 0,-5.0784 -0.3606,-6.1065 -3.1516,-8.9861 -2.1803,-2.2495 -3.3645,-4.655 -3.8426,-7.8057 -0.7713,-5.0818 0.3044,-6.7703 3.4942,-5.4846 4.0776,1.6435 4.2964,1.2375 4.6535,-8.635 0.3924,-10.8508 1.3817,-12.4183 7.8376,-12.4183 5.6544,0 5.943,0.7984 5.2893,14.6324 l -0.5844,12.3676 h 7.2672 7.2672 l -0.6056,-5.25 c -0.3331,-2.8875 -0.6766,-8.7731 -0.7633,-13.0792 -0.1435,-7.1261 0.067,-8.0536 2.3417,-10.3286 2.2872,-2.2871 2.8364,-2.4086 6.468,-1.4307 l 3.9687,1.0686 1.3211,19.76 c 2.6961,40.3248 2.701,40.2599 -3.0619,40.2599 -6.2201,0 -8.8985,-3.8821 -8.8997,-12.8992 l -6e-4,-4.6008 -6.9994,-0.1184 -6.9994,-0.1185 v 7.3118 c 0,6.4221 -0.2704,7.5011 -2.2225,8.8684 -2.4881,1.7427 -4.2097,1.8585 -7.5719,0.5091 z m -156.5657,-65.7978 c -0.9185,-1.0149 -1.8222,-3.6024 -2.0081,-5.75 -0.1859,-2.1475 -1.3025,-5.4796 -2.4812,-7.4046 -1.1787,-1.925 -2.1448,-4.5954 -2.1469,-5.9343 -0.011,-6.8924 10.3681,-19.0134 20.1679,-23.5537 9.9824,-4.625 21.2565,-4.1748 26.4888,1.0575 1.3368,1.3368 3.0694,2.4305 3.8503,2.4305 0.7808,0 3.0588,1.4392 5.0622,3.1982 3.3237,2.9182 3.6014,3.5633 3.1723,7.37 -0.6229,5.5264 -5.3751,12.2639 -12.5118,17.7388 -9.3902,7.2036 -14.3652,9.068 -24.3768,9.1351 -6.7706,0.045 -9.0627,0.4371 -10.5787,1.8079 -2.4056,2.1752 -2.5865,2.1715 -4.638,-0.095 z m 32.7365,-16.0192 c 8.0822,-3.9788 9.9308,-6.0774 10.0381,-11.3959 l 0.086,-4.2395 -4.7791,0.1644 c -3.4516,0.1187 -6.127,1.0293 -9.6318,3.2784 -5.2986,3.4001 -15.0891,13.2199 -15.0891,15.1342 0,2.329 12.5363,0.4258 19.3764,-2.9416 z m -16.7858,-16.8781 c -0.195,-0.195 -1.4785,-0.072 -2.8522,0.2722 -3.3741,0.8469 -8.4422,6.2854 -9.2914,9.9705 -0.6407,2.7805 -0.2087,2.5284 5.9035,-3.444 3.6271,-3.5442 6.4352,-6.6036 6.2401,-6.7987 z m 268.7079,-6.2168 c -5.837,-3.5591 -6.8066,-6.8046 -6.7335,-22.5405 0.06,-12.987 0.6761,-17.4674 4.0117,-29.18285 0.5249,-1.8438 -0.132,-2.5681 -4.2276,-4.6614 -6.0927,-3.114 -9.1831,-6.0141 -10.9727,-10.2973 -1.2167,-2.912 -1.204,-3.8353 0.096,-6.9465 1.6524,-3.9547 3.6725,-4.1058 4.5146,-0.3378 0.6463,2.8915 7.868,6.8285 14.0458,7.6571 3.6919,0.4952 4.4589,0.1964 7.7814,-3.0314 8.4562,-8.2151 18.6986,-7.372 22.196,1.827 3.1329,8.2401 -1.4163,14.4511 -11.9423,16.3047 -3.5376,0.623 -6.7608,1.4783 -7.1625,1.9006 -1.4103,1.4828 -2.8998,18.92075 -2.9026,33.98265 0,14.0174 -0.155,15.2963 -1.937,16.25 -2.6067,1.3951 -3.0663,1.3323 -6.7672,-0.9243 z m 22.7498,-65.87845 c 2.9144,-2.36 1.7607,-4.5819 -1.9018,-3.6626 -3.2722,0.8212 -5.1465,2.3228 -5.1465,4.123 0,1.9908 4.374,1.7051 7.0483,-0.4604 z m -188.3578,54.04845 c -0.9733,-1.0755 -2.612,-4.1504 -3.6414,-6.833 -1.0295,-2.6826 -2.8577,-7.3525 -4.0627,-10.3775 -2.8403,-7.1299 -2.468,-19.29885 0.7831,-25.59675 5.1433,-9.9635 17.4674,-17.4052 28.8184,-17.4016 5.6699,0 11.9682,2.7443 11.793,5.1352 -0.078,1.0615 1.2042,2.0215 3.6964,2.7682 4.7615,1.4266 7.4797,4.8023 8.7912,10.9176 3.4485,16.07975 -12.5703,33.91485 -33.7028,37.52405 -4.8237,0.8239 -7.2239,1.7852 -8.6855,3.4789 -1.9985,2.3158 -2.0386,2.3199 -3.7897,0.3849 z m 22.7798,-20.3016 c 7.6617,-3.6013 14.5297,-12.0407 14.5297,-17.85365 0,-1.105 -1.123,-2.7449 -2.4956,-3.6443 -5.2501,-3.44 -12.3601,0.6953 -17.3469,10.08905 -2.1995,4.1433 -6.1575,13.2672 -6.1575,14.1942 0,0.954 7.2718,-0.8117 11.4703,-2.7853 z m -17.719,-12.713 c 1.9473,-4.01725 5.5415,-9.52975 7.9872,-12.24995 5.124,-5.6991 4.327,-6.4027 -1.8853,-1.6644 -7.0053,5.3431 -9.9453,10.3599 -10.4394,17.81385 -0.2336,3.5225 -0.1498,5.7296 0.1862,4.9046 0.336,-0.825 2.2041,-4.7868 4.1513,-8.8041 z m 251.0975,32.3486 c -2.9502,-1.6745 -6.8491,-8.8538 -6.8483,-12.6102 3e-4,-1.3389 0.9035,-4.81 2.0071,-7.7137 1.4014,-3.6872 1.8192,-6.4514 1.3853,-9.1653 -0.5691,-3.5584 -0.3754,-4.013 2.2982,-5.39545 2.7548,-1.4246 5.3089,-5.2635 5.3089,-7.9794 0,-0.6741 -1.4786,-2.0219 -3.2857,-2.9951 -1.8072,-0.9732 -3.8303,-2.6414 -4.4958,-3.7071 -1.0301,-1.6494 -0.8761,-2.1435 1.0357,-3.322 2.9448,-1.8153 18.0701,-3.9692 28.6053,-4.0735 8.3521,-0.083 8.362,-0.08 11.25,3.3795 1.5898,1.9042 2.8905,4.0314 2.8905,4.727 0,2.8551 -5.1521,4.6739 -14.8541,5.244 l -9.6459,0.5668 -0.3104,3.75 -0.3103,3.75 h 6.4785 c 8.5172,0 9.6422,0.5142 9.6422,4.40695 0,4.9246 -1.382,5.593 -11.5641,5.593 h -9.1642 l -1.6358,4.2834 c -2.4867,6.5111 -2.439,6.5586 5.1141,5.0966 10.8584,-2.1017 15.9137,-1.8228 17.7496,0.9791 1.9989,3.0506 1.2107,4.9051 -3.3745,7.9394 -11.5631,7.6521 -22.5849,10.4765 -28.2763,7.246 z m -201.1861,-3.0247 c -0.8141,-0.8141 -1.7779,-3.2419 -2.1417,-5.3952 -0.709,-4.1969 1.6209,-23.3114 3.8724,-31.76805 1.3249,-4.9763 1.2976,-5.1763 -0.8384,-6.1495 -2.4854,-1.1324 -5.8726,-7.288 -4.6716,-8.4899 0.4303,-0.4305 2.995,-1.015 5.6995,-1.2988 2.7044,-0.2837 7.8421,-0.9209 11.4171,-1.4158 21.1939,-2.9343 29.4663,-2.2728 32.6672,2.6124 1.4761,2.2527 1.4617,2.5852 -0.1904,4.4107 -1.5055,1.6636 -3.0927,1.9744 -10.0826,1.9744 -7.9283,0 -18.1452,1.492 -19.5619,2.8568 -0.3673,0.3538 -0.9642,2.6682 -1.3266,5.1432 l -0.6587,4.5 h 11.3265 11.3265 v 4.49015 c 0,4.1798 -0.2073,4.5345 -3,5.1317 -1.65,0.3528 -6.8515,0.6947 -11.5589,0.7598 -12.1557,0.168 -12.4954,0.5225 -12.2246,12.7584 0.1505,6.7992 -0.1545,10.019 -1,10.5563 -2.0428,1.298 -7.4859,0.8913 -9.0538,-0.6766 z m 180.4678,-0.3893 c -1.2451,-1.2451 -2.1067,-4.0842 -2.5796,-8.5 l -0.7101,-6.6305 h -6.8052 -6.8053 l 0.5205,6.4841 c 0.6447,8.0316 -0.3574,9.5159 -6.4243,9.5159 -4.063,0 -4.5421,-0.2718 -5.8045,-3.293 -0.7567,-1.8111 -1.6883,-6.1986 -2.0701,-9.75 -0.526,-4.8926 -1.3001,-7.1067 -3.1949,-9.1389 -2.5605,-2.7461 -4.5117,-9.78785 -3.2691,-11.79845 0.5083,-0.8224 1.4044,-0.798 3.357,0.092 1.4649,0.6675 2.9991,0.8782 3.4093,0.4684 0.4102,-0.4099 0.8938,-4.6455 1.0747,-9.4125 0.2469,-6.504 0.7313,-8.9792 1.9412,-9.9172 1.9627,-1.5218 8.4303,-1.6496 9.8846,-0.1953 0.6793,0.6793 0.8796,5.3067 0.5627,13 l -0.4919,11.94495 h 6.6372 6.6373 l -0.08,-3.74995 c -0.044,-2.0625 -0.3932,-7.5296 -0.7766,-12.1491 -0.6074,-7.3175 -0.459,-8.7019 1.1521,-10.75 1.3718,-1.744 2.8478,-2.3509 5.7176,-2.3509 2.1276,0 4.1591,0.4703 4.5143,1.0451 0.7903,1.2788 3.8701,41.39685 3.742,48.74525 -0.051,2.9098 -0.6372,5.9473 -1.3034,6.75 -1.698,2.046 -6.6079,1.8182 -8.836,-0.4099 z m 283.7762,-24.5919 c -5.4989,-2.8943 -10.4351,-8.27865 -13.2819,-14.48775 -6.0449,-13.1846 1.9543,-53.6047 20.068,-101.4035 l 4.4917,-11.8526 -3.2079,-9.6474 c -3.0895,-9.2912 -3.19,-10.1086 -2.7225,-22.1473 0.5542,-14.2729 2.5036,-21.2213 10.8501,-38.6739 9.495,-19.85421 28.4481,-44.32611 34.3299,-44.32611 5.6253,0 8.4025,6.8811 5.9928,14.8484 -1.3464,4.4515 -3.0278,7.2619 -14.4494,24.1516 -5.9581,8.81061 -13.5402,24.14681 -14.9419,30.22281 -1.1737,5.0878 -1.3433,13.4711 -0.2856,14.1176 0.4125,0.2522 6.0127,-6.1338 12.4449,-14.191 20.9237,-26.2096 41.4383,-46.22791 54.3051,-52.99131 10.4565,-5.4963 19.9516,-3.832 25.8459,4.5303 10.1143,14.3493 13.4909,40.57331 7.4515,57.87161 -9.8057,28.086 -48.5421,56.9068 -79.4837,59.1378 l -8.1864,0.5903 -2.6222,7.6059 c -7.91,22.9432 -14.9888,49.5214 -22.0013,82.606 -3.025,14.27165 -3.7644,15.97565 -7.0418,16.22805 -1.6291,0.1255 -5.029,-0.8598 -7.5553,-2.1895 z m 66.5933,-139.91395 c 16.8168,-4.5461 34.2323,-18.4698 40.8063,-32.6246 2.6389,-5.6818 3.0767,-7.9035 3.4783,-17.6495 0.4345,-10.5465 0.3457,-11.2104 -1.6421,-12.2742 -3.5301,-1.88931 -6.5577,-0.2568 -15.0092,8.0932 -9.1899,9.0795 -16.7709,18.7562 -21.0199,26.8305 -1.5919,3.025 -5.4089,10.225 -8.4824,16 -3.0734,5.775 -5.5977,11.0625 -5.6095,11.75 -0.027,1.579 1.2532,1.5575 7.4785,-0.1254 z m 8.5037,-12.9243 c -0.01,-1.3824 3.1203,-6.9096 3.6239,-6.406 0.2641,0.2641 -0.4424,1.9934 -1.57,3.8429 -1.1276,1.8495 -2.0518,3.003 -2.0539,2.5631 z m 7.9963,-14.6553 c 0,-1.4933 4.3195,-8.0175 5.3181,-8.0326 0.4499,-0.01 -0.1126,1.2946 -1.25,2.892 -1.1375,1.5974 -2.0681,3.3708 -2.0681,3.941 0,0.5701 -0.45,1.3147 -1,1.6546 -0.55,0.3399 -1,0.1352 -1,-0.455 z m 8,-11.274 c 0,-1.4321 11.451,-12.918 11.8088,-11.8447 0.1935,0.5805 -2.3844,3.659 -5.7285,6.8412 -3.3442,3.1822 -6.0803,5.4338 -6.0803,5.0035 z m -54.9211,109.6457 c 0.048,-1.165 0.285,-1.4019 0.6042,-0.6042 0.2889,0.7219 0.2534,1.5844 -0.079,1.9167 -0.3323,0.3323 -0.5686,-0.2584 -0.5252,-1.3125 z m -881.0789,-15.7943 c 0,-0.2076 0.7875,-0.9951 1.75,-1.75 1.586,-1.2438 1.6214,-1.2085 0.3775,0.3776 -1.3063,1.6657 -2.1275,2.1955 -2.1275,1.3724 z m 333,-2.5634 c 0,-0.5175 0.4448,-1.2159 0.9885,-1.5519 0.5669,-0.3504 0.7345,0.051 0.3931,0.941 -0.6648,1.7324 -1.3816,2.0493 -1.3816,0.6109 z m -352.3718,-4.4975 c -4.3004,-4.3004 -7.4731,-12.6357 -8.7688,-23.0376 -0.5497,-4.4131 -1.6388,-12.7489 -2.4201,-18.5239 -3.156,-23.3255 -3.6608,-35.5687 -3.1543,-76.50001 0.4604,-37.2131 0.7919,-43.5177 3.5889,-68.25853 3.6142,-31.96975 5.8178,-45.92476 10.697,-67.74147 6.9693,-31.16288 13.2613,-47.62029 23.5597,-61.62349 11.0289,-14.99647 22.0794,-20.58948 38.9924,-19.73541 6.3374,0.32002 8.3298,0.88923 12.9819,3.70867 6.1881,3.7504 12.3028,11.42152 15.0312,18.85742 0.9673,2.63605 3.1698,10.19281 4.8944,16.79281 1.7247,6.6 4.4224,16.5 5.9949,22 2.9772,10.41346 5.0626,18.14232 9.4436,35 1.4294,5.5 3.6856,13.825 5.0139,18.5 1.3283,4.675 3.5967,13 5.0409,18.5 1.4442,5.5 3.4959,13.15 4.5594,17 3.2046,11.6008 16.8777,62.0969 20.579,76.00001 3.5986,13.5172 4.3244,15.1041 6.5206,14.2582 1.0746,-0.4139 15.8699,-49.85741 23.8664,-79.75821 0.9561,-3.575 8.5613,-30.35 16.9004,-59.5 26.2632,-91.80467 23.5645,-83.32141 27.7564,-87.25218 5.8046,-5.44308 13.6191,-8.24394 24.9563,-8.94477 8.035,-0.4967 9.7074,-0.30247 13.5934,1.57868 11.9143,5.7676 19.9865,24.31007 24.2394,55.6792 l 2.5049,18.47665 v 92.73122 c 0,84.10301 -0.1829,94.91781 -1.9902,116.23121 -1.0959,12.925 -2.475,25.525 -3.0646,28 -1.236,5.1885 -4.3675,9 -7.3942,9 -5.9007,0 -14.7045,-12.9397 -18.4008,-27.0451 -1.6983,-6.4811 -2.1684,-14.5737 -3.5993,-61.9549 -0.9052,-29.97501 -2.0599,-67.32501 -2.566,-83.00001 -0.506,-15.675 -1.4042,-43.8 -1.9959,-62.5 -1.3305,-42.04424 -1.5485,-44.5 -3.95,-44.5 -1.3994,0 -1.9751,1.08649 -2.5166,4.75 -0.3861,2.6125 -6.3236,27.025 -13.1944,54.25 -6.8707,27.225 -15.4002,61.2 -18.9545,75.5 -11.6415,46.83801 -15.0887,57.94111 -23.3745,75.28681 -13.4017,28.0553 -27.0793,37.401 -42.8433,29.2743 -6.3954,-3.2969 -9.8542,-8.1193 -17.9746,-25.0611 -15.7597,-32.8795 -24.3342,-54.75501 -28.153,-71.82451 -6.1183,-27.3482 -25.089,-96.45798 -32.0275,-116.6755 -7.2873,-21.23396 -9.2306,-25.47381 -11.6823,-25.48768 -1.8552,-0.0105 -2.3502,0.84219 -3.3306,5.73768 -0.6333,3.1625 -1.7572,8.225 -2.4976,11.25 -6.6701,27.2517 -15.6351,82.57012 -19.9337,123 -4.4563,41.91311 -9.5493,116.43741 -9.5575,139.85001 0,3.6127 -0.5778,4.9263 -3.4015,7.75 -4.7162,4.7163 -9.2295,4.7038 -13.9718,-0.038 z m 355.3718,1.4385 c 0,-0.55 0.4766,-1 1.059,-1 0.5825,0 0.7809,0.45 0.441,1 -0.3399,0.55 -0.8165,1 -1.059,1 -0.2426,0 -0.441,-0.45 -0.441,-1 z m 2.7151,-1.6519 c -1.1472,-1.8562 1.7107,-4.5698 4.3409,-4.1216 l 2.444,0.4165 -2.6451,1.1139 c -1.4548,0.6126 -2.835,1.6833 -3.0669,2.3792 -0.2775,0.8325 -0.6445,0.905 -1.0729,0.212 z m 550.2849,-0.8141 c 0,-3.6304 1.2075,-4.5342 5.857,-4.3842 2.7749,0.09 3.5699,0.3143 1.976,0.5584 -1.4669,0.2248 -3.8294,1.4859 -5.25,2.8025 -1.6897,1.5659 -2.583,1.9198 -2.583,1.0233 z m -568.3455,-4.2208 c -3.645,-6.0346 -6.6545,-13.6931 -6.6545,-16.9344 0,-1.4009 -1.8324,-5.9058 -4.0721,-10.0109 -12.5087,-22.9276 -15.0096,-50.318 -6.4256,-70.3734 7.5031,-17.52971 20.0019,-30.61561 36.815,-38.54411 9.8525,-4.6462 17.4625,-6.5339 28.918,-7.1731 11.2373,-0.6271 19.5681,0.7086 27.3239,4.3808 10.101,4.7825 7.7819,8.7228 -6.0592,10.2948 -4.95,0.5622 -12.15,1.9503 -16,3.0848 -3.85,1.1344 -8.6583,2.4858 -10.6851,3.0029 -9.1964,2.3466 -17.2395,7.3174 -26.1015,16.13151 -9.6167,9.5645 -14.296,17.7774 -16.7475,29.3939 -1.5199,7.2025 -1.6114,22.4638 -0.1501,25.0543 0.9351,1.6579 1.3164,1.2897 3.2308,-3.1203 8.3494,-19.2335 11.8686,-26.5355 18.1575,-37.6757 3.0441,-5.3924 12.2729,-17.07421 16.2646,-20.58781 10.4689,-9.2151 24.272,-13.6622 40.4667,-13.0376 19.2391,0.7421 27.4319,5.7477 32.0413,19.5765 5.9236,17.77141 2.745,37.88431 -8.7158,55.15081 -5.4739,8.2467 -18.2485,20.5079 -27.4158,26.3139 -14.9382,9.4608 -33.8618,15.8807 -52.3104,17.7464 -4.9754,0.5031 -8.1256,1.2862 -8.3922,2.0861 -0.6694,2.008 -8.2694,9.9274 -9.5271,9.9274 -0.6215,0 -2.4039,-2.1091 -3.9609,-4.6868 z m 46.3455,-41.3454 c 24.9667,-9.6845 45.0151,-29.9197 46.6163,-47.0507 0.9848,-10.5351 -4.6849,-15.9171 -16.7678,-15.9171 -15.4588,0 -24.4693,8.34 -37.8792,35.0604 -5.6755,11.309 -11.9693,26.8452 -11.9693,29.5462 0,1.476 0.8882,1.6093 7.25,1.0883 3.9875,-0.3265 9.725,-1.5537 12.75,-2.7271 z m 1.0306,-27.4678 c 0,-0.55 0.4362,-1.675 0.9694,-2.5 0.5332,-0.825 0.9694,-1.05 0.9694,-0.5 0,0.55 -0.4362,1.675 -0.9694,2.5 -0.5332,0.825 -0.9694,1.05 -0.9694,0.5 z m 2.9797,-5 c 0,-0.55 0.8969,-2.35 1.9897,-4 2.5892,-3.9096 2.5922,-2.5197 0,1.7258 -1.098,1.8008 -1.995,2.8242 -1.9934,2.2742 z m 4.9897,-7.8839 c 0,-0.3625 1.1161,-2.3368 2.4802,-4.3875 3.6286,-5.4551 10.9868,-10.091 17.0198,-10.723 5.4815,-0.5742 5.1746,-0.1713 -1.0946,1.4372 -5.3013,1.3602 -11.4541,5.553 -15.3273,10.4447 -1.693,2.1381 -3.0781,3.591 -3.0781,3.2286 z m 97.0833,83.0577 c 2.1786,-1.7058 9.9167,-6.5018 9.9167,-6.1462 0,0.761 -8.2212,6.4724 -9.3167,6.4724 -0.5592,0 -0.8291,-0.1468 -0.6,-0.3262 z m -122.0833,-1.6832 c 2.475,-0.5148 5.625,-1.2052 7,-1.5341 1.6472,-0.394 2.1589,-0.2619 1.5,0.3875 -0.55,0.542 -3.7,1.2323 -7,1.534 -5.6014,0.5121 -5.701,0.4864 -1.5,-0.3874 z m 322.384,-0.3177 c 1.0361,-0.6451 3.2861,-2.2728 5,-3.6171 l 3.116,-2.4442 -2.8505,3.1039 c -1.5678,1.7071 -3.8178,3.3348 -5,3.6171 -2.013,0.4806 -2.0298,0.4387 -0.2655,-0.6597 z m -123.884,-0.6729 c 0.3399,-0.55 1.068,-1 1.618,-1 0.55,0 0.7219,0.45 0.382,1 -0.3399,0.55 -1.068,1 -1.618,1 -0.55,0 -0.7219,-0.45 -0.382,-1 z m 78.7262,-0.5787 c 0.9494,-0.9912 1.9414,-1.587 2.2045,-1.3239 0.2631,0.2631 -0.5137,1.0741 -1.7262,1.8022 -2.1063,1.2649 -2.1276,1.2436 -0.4783,-0.4783 z m 197.5434,-0.4213 c 1.1807,-1.1 2.4603,-2 2.8436,-2 0.3832,0 -0.1177,0.9 -1.1132,2 -0.9955,1.1 -2.2751,2 -2.8436,2 -0.5684,0 -0.068,-0.9 1.1132,-2 z m 76.0429,1.3169 c 0.7219,-0.2889 1.5844,-0.2534 1.9167,0.079 0.3323,0.3323 -0.2584,0.5687 -1.3125,0.5253 -1.165,-0.048 -1.4019,-0.285 -0.6042,-0.6042 z m 3.6875,0.027 c 0.55,-0.5229 4.2588,-1.9639 8.2419,-3.2023 6.5472,-2.0355 24.0261,-10.3482 25.2581,-12.0123 0.275,-0.3714 1.85,-1.5107 3.5,-2.5317 1.65,-1.0209 4.2375,-3.0072 5.75,-4.4139 1.5125,-1.4067 2.75,-2.0263 2.75,-1.3769 0,0.6495 -1.9125,2.5493 -4.25,4.2218 -2.3375,1.6725 -4.9285,3.6027 -5.7579,4.2892 -3.1832,2.635 -21.7701,11.5762 -27.4921,13.2249 -3.3,0.9509 -6.675,1.9591 -7.5,2.2404 -0.973,0.3318 -1.1487,0.1775 -0.5,-0.4392 z m -544,-1.1037 c 1.0953,-0.9874 12.7035,-4.2781 14.7349,-4.1771 0.6958,0.035 -1.2099,0.8676 -4.2349,1.8511 -7.799,2.5355 -11.6881,3.3971 -10.5,2.326 z m 391.201,-0.886 c 2.3106,-0.8184 5.8661,-3.1454 7.901,-5.171 l 3.7,-3.683 -2.2352,3.2726 c -2.335,3.4188 -8.703,7.284 -11.777,7.1485 -0.9844,-0.043 0.1007,-0.7486 2.4112,-1.5671 z m -193.4539,-1.7994 c 1.5109,-0.7881 3.3109,-1.7244 4,-2.0806 0.6891,-0.3561 0.1279,0.2815 -1.2471,1.417 -1.375,1.1355 -3.175,2.0718 -4,2.0806 -0.825,0.01 -0.2638,-0.6288 1.2471,-1.417 z m -99.9446,-1.7516 c -6.1509,-2.9718 -7.0247,-16.3003 -2.3293,-35.5288 3.0026,-12.2964 11.4837,-38.8819 16.5165,-51.7742 5.7303,-14.67891 13.859,-34.19941 16.2404,-39.00001 6.1569,-12.4113 16.656,-17.9171 23.6602,-12.4076 3.0518,2.4005 4.2559,5.0144 9.6309,20.9076 2.1392,6.325 5.9563,17.35 8.4827,24.50001 5.9806,16.9265 11.1711,33.2506 12.0327,37.8432 1.2569,6.6999 2.7698,4.8962 7.8372,-9.3432 2.0551,-5.775 5.0971,-14.325 6.7598,-19 1.6628,-4.675 3.8491,-10.75 4.8584,-13.5 1.7171,-4.67821 3.5303,-9.72191 9.7063,-27.00001 3.2114,-8.9844 6.9087,-12.5 13.1459,-12.5 13.3507,0 20.0527,13.178 32.7377,64.37111 3.8343,15.4742 7.4033,31.4027 8.9916,40.1289 1.643,9.0275 1.0082,23.742 -1.1604,26.8939 -4.0029,5.8182 -15.1149,7.7717 -19.09,3.3561 -1.1141,-1.2375 -2.2919,-2.7281 -2.6174,-3.3124 -0.7164,-1.286 -7.1258,-30.7333 -13.6987,-62.9376 -2.0361,-9.9761 -2.8441,-12.5 -4.0015,-12.5 -0.8869,0 -4.3882,8.3028 -9.0665,21.5 -1.7547,4.95 -4.5434,12.6 -6.197,17 -1.6537,4.4 -4.0585,11.2821 -5.344,15.2935 -3.6456,11.3757 -8.1237,20.0134 -11.1996,21.6027 -6.2755,3.2423 -11.0294,3.8201 -16.5179,2.0076 -8.9835,-2.9667 -9.2546,-3.3222 -14.1649,-18.5715 -2.4689,-7.6673 -5.2017,-16.7287 -6.0728,-20.1364 -4.623,-18.0839 -13.2296,-42.9336 -14.7001,-42.4435 -1.2159,0.4053 -5.2898,10.3187 -7.7044,18.7476 -2.4263,8.47 -12.3354,42.5442 -14.9501,51.4087 -2.2342,7.5746 -4.6577,10.7959 -10.2984,13.6886 -4.0785,2.0916 -8.1065,2.339 -11.4873,0.7057 z m 198.1975,0.2514 c -1.1,-0.4502 -2.9,-1.8211 -4,-3.0466 -3.0843,-3.4358 -2.6991,-20.0433 0.7886,-34.008 5.9395,-23.7813 20.4311,-63.65291 31.7375,-87.32171 5.0759,-10.6257 11.5505,-16.6783 17.8412,-16.6783 6.6909,0 10.1183,4.3152 14.6938,18.5 1.2419,3.85 4.5828,13.525 7.4243,21.5 6.1025,17.12771 12.3912,36.20521 14.5908,44.26291 0.8653,3.1695 1.9194,5.5488 2.3426,5.2873 0.6607,-0.4084 7.039,-17.4028 15.6882,-41.8002 13.9389,-39.31821 13.8093,-39.00941 17.4236,-41.50001 6.7998,-4.6857 15.4792,-2.0884 21.128,6.3225 6.1413,9.1441 13.9938,34.63631 22.9264,74.42751 5.6007,24.9488 6.1412,28.8195 5.3755,38.5 -0.6779,8.5694 -0.8768,9.1555 -4.1574,12.25 -3.0649,2.891 -4.0812,3.25 -9.2,3.25 -4.6932,0 -6.1328,-0.415 -7.8056,-2.25 -2.7892,-3.0596 -3.5038,-5.6323 -9.2352,-33.25 -7.0201,-33.8277 -8.923,-42.4655 -9.5939,-43.5511 -1.5239,-2.4657 -3.3138,-0.2372 -6.2657,7.8011 -5.0262,13.6866 -9.107,25.1288 -11.6802,32.75 -7.3228,21.6884 -11.8681,31.5896 -15.3039,33.3375 -0.9452,0.4809 -3.9069,1.4085 -6.5816,2.0613 -4.1091,1.0029 -5.6593,0.9239 -10,-0.5095 -10.0684,-3.3247 -9.2133,-1.5152 -23.1015,-48.8893 -6.6773,-22.7769 -10.3469,-32.7229 -11.8926,-32.2332 -1.12,0.3549 -5.9385,13.8559 -10.9686,30.7332 -5.6883,19.0859 -8.5661,28.9277 -10.8105,36.9703 -2.6089,9.3485 -5.1876,13.1339 -10.9498,16.0735 -4.0461,2.0643 -7.113,2.3619 -10.414,1.0108 z m -273.6853,-3.5842 c 8.0474,-3.6557 22.2056,-12.4093 26.5437,-16.4111 6.0284,-5.561 13.6416,-13.2288 13.6416,-13.7394 0,-0.6901 2.7608,-3.3199 3.4853,-3.3199 1.5092,0 -8.787,11.5837 -14.6332,16.4631 -6.2721,5.2348 -15.2827,11.5369 -16.4952,11.5369 -0.7463,0 -1.3569,0.3507 -1.3569,0.7792 0,0.9849 -13.1689,7.2406 -15.0791,7.1632 -0.7815,-0.032 0.9707,-1.1441 3.8938,-2.472 z m 380.1853,-3.4114 c 0,-0.5175 0.4448,-1.2159 0.9885,-1.5519 0.5669,-0.3504 0.7345,0.051 0.3931,0.941 -0.6648,1.7324 -1.3816,2.0493 -1.3816,0.6109 z m 191.9794,-16.538 c 2.4177,-2.4635 4.6012,-4.2737 4.8522,-4.0227 0.5282,0.5282 -7.4821,8.5017 -8.541,8.5017 -0.3888,0 1.2711,-2.0156 3.6888,-4.479 z m -821.7294,-3.2103 c 0.9625,-0.2516 2.5375,-0.2516 3.5,0 0.9625,0.2515 0.175,0.4573 -1.75,0.4573 -1.925,0 -2.7125,-0.2058 -1.75,-0.4573 z m 10.3,-1.1983 c 0.5225,-0.4882 2.075,-1.182 3.45,-1.5417 l 2.5,-0.6541 -2.5,1.5062 c -2.7862,1.6788 -4.9775,2.1167 -3.45,0.6896 z m 10.6412,-7.3717 c 2.3698,-2.3426 5.3213,-5.5532 6.5588,-7.1348 1.2375,-1.5816 2.25,-2.3906 2.25,-1.7978 0,1.3749 -10.8985,13.1919 -12.1665,13.1919 -0.5231,0 0.9878,-1.9167 3.3577,-4.2593 z m 811.4185,0.494 c 0.6104,-0.4041 2.5143,-2.9847 4.231,-5.7347 1.7167,-2.75 3.1298,-4.5894 3.1403,-4.0875 0.034,1.653 -6.1648,10.5878 -7.3352,10.5722 -0.8286,-0.011 -0.8386,-0.2187 -0.036,-0.75 z m -538.5461,-3.7347 c 0,-0.55 0.6607,-1.8735 1.4682,-2.9411 0.8075,-1.0677 1.4682,-1.4912 1.4682,-0.9412 0,0.55 -0.6607,1.8735 -1.4682,2.9412 -0.8075,1.0676 -1.4682,1.4911 -1.4682,0.9411 z m 347.967,0 c 0,-0.55 0.4362,-1.675 0.9694,-2.5 0.5332,-0.825 0.9694,-1.05 0.9694,-0.5 0,0.55 -0.4362,1.675 -0.9694,2.5 -0.5332,0.825 -0.9694,1.05 -0.9694,0.5 z m 4.0483,-11.0833 c 0.048,-1.165 0.285,-1.4019 0.6042,-0.6042 0.2889,0.7219 0.2534,1.5844 -0.079,1.9167 -0.3323,0.3323 -0.5686,-0.2584 -0.5252,-1.3125 z m -612.564,-1.6979 c 0.9658,-1.5297 2.0076,-2.5297 2.315,-2.2222 0.3074,0.3074 -0.4828,1.559 -1.756,2.7812 l -2.315,2.2222 z m 415.7979,-0.051 c 0.3779,-1.0075 0.6872,-2.245 0.6872,-2.75 0,-0.505 0.45,-0.9182 1,-0.9182 1.5949,0 1.1575,2.627 -0.6872,4.1276 -1.4853,1.2081 -1.605,1.1531 -1,-0.4594 z m 197.6872,-1.5498 c 0,-0.55 0.45,-1.2781 1,-1.618 0.55,-0.3399 1,-0.168 1,0.382 0,0.55 -0.45,1.2781 -1,1.618 -0.55,0.3399 -1,0.168 -1,-0.382 z m -610,-4.118 c 0.5887,-1.1 1.2954,-2 1.5704,-2 0.275,0 0.018,0.9 -0.5704,2 -0.5887,1.1 -1.2954,2 -1.5704,2 -0.275,0 -0.018,-0.9 0.5704,-2 z m 528.1863,-0.5 c -0.049,-2.1446 1.6258,-6.7863 1.7434,-4.8318 0.039,0.6425 0.3718,1.9538 0.7402,2.9141 0.4355,1.1347 0.2869,1.5091 -0.4243,1.0695 -0.6018,-0.372 -1.3011,0.1167 -1.5539,1.086 -0.3852,1.4765 -0.4671,1.4379 -0.5054,-0.2378 z m -197.171,-1.191 c 0.01,-0.9949 0.4515,-2.484 0.9847,-3.309 0.7582,-1.1732 0.9727,-0.9138 0.9847,1.191 0.01,1.48 -0.4347,2.9691 -0.9847,3.309 -0.55,0.3399 -0.9931,-0.196 -0.9847,-1.191 z m -325.0153,-12.25 c 0,-0.5175 0.4448,-1.2159 0.9885,-1.5519 0.5669,-0.3504 0.7345,0.051 0.3931,0.941 -0.6648,1.7324 -1.3816,2.0493 -1.3816,0.6109 z m 713.036,-19.1147 c -0.02,-0.3057 1.089,-2.0806 2.464,-3.9443 1.375,-1.8637 2.4978,-2.9636 2.495,-2.4443 -0.01,1.0136 -4.8989,7.3178 -4.959,6.3886 z m 6.1465,-8.6943 c 1.259,-2.70401 5.144,-8.25681 5.5164,-7.88451 0.4755,0.4756 -4.6413,8.63451 -5.4151,8.63451 -0.2478,0 -0.2933,-0.3375 -0.1013,-0.75 z M 2472.7834,464.66257 c 0.016,-0.825 0.3896,-2.625 0.83,-4 0.6436,-2.00973 0.8064,-2.10779 0.83,-0.5 0.016,1.1 -0.3573,2.9 -0.83,4 -0.5265,1.22531 -0.848,1.41898 -0.83,0.5 z m -184.7813,-28.57045 c 0.3362,-0.87622 0.6429,-2.34382 0.6816,-3.26134 0.056,-1.3331 0.2429,-1.26645 0.9297,0.33179 1.2352,2.8745 1.1817,3.2163 -0.6113,3.90435 -1.1794,0.45257 -1.4475,0.19124 -1,-0.9748 z m 429.5193,-15.33123 c -26.282,-5.70336 -45.5382,-15.80614 -58.2266,-30.54862 -8.651,-10.05139 -13.7685,-21.39814 -14.4295,-31.99386 -1.0482,-16.80143 4.2696,-29.36451 18.225,-43.05584 19.6794,-19.307 45.8756,-28.70867 80.0231,-28.71985 26.5747,-0.009 47.7469,5.80521 67.7511,18.60451 17.9123,11.46083 30.7489,32.22634 30.7489,49.74179 0,5.74293 -2.9887,15.96967 -6.9825,23.89273 -9.3574,18.56354 -32.426,33.95171 -61.638,41.11629 -12.7732,3.13276 -43.0504,3.6583 -55.4715,0.96285 z m 49.4828,-8.60724 c 17.2375,-3.00597 32.9333,-10.21836 43.3869,-19.9367 7.4917,-6.96478 11.0726,-11.97434 13.9777,-19.55438 3.1973,-8.34215 3.3714,-9.44483 1.8248,-11.55246 -1.353,-1.84382 -1.533,-1.70788 -3.3792,2.55246 -6.5044,15.00985 -25.1945,30.74514 -45.6746,38.45384 -12.5521,4.72458 -22.3984,6.73268 -35.7764,7.29635 -7.0125,0.29546 -12.75,0.85378 -12.75,1.24069 0,3.15146 23.6273,4.07474 38.3908,1.5002 z m -54.1252,-65.5452 c 16.4058,-3.3433 28.9405,-10.47087 34.8773,-19.83225 3.8969,-6.1448 3.8385,-10.92629 -0.1895,-15.51395 -4.3497,-4.95403 -11.2366,-7.08095 -22.4534,-6.93443 -15.4476,0.20179 -31.3599,5.90782 -41.2353,14.78665 -6.2399,5.61023 -8.6772,10.43589 -7.9624,15.76496 0.8669,6.46352 5.5222,10.13964 15.6977,12.39596 7.7491,1.71828 9.8907,1.65111 21.2656,-0.66694 z m 341.7315,23.80412 c -4.6318,-12.74786 -14.0871,-29.30389 -18.5351,-32.45458 -1.3941,-0.98748 -5.5559,-4.15979 -9.2484,-7.04957 -23.0947,-18.07414 -57.028,-23.61204 -75.3863,-12.30302 -2.57,1.58314 -4.8952,2.65589 -5.1673,2.38388 -0.272,-0.27201 0.388,-3.0443 1.4665,-6.16064 6.0127,-17.37211 11.8591,-43.58788 14.5617,-65.29537 2.4857,-19.96471 2.4968,-72.03275 0.02,-92.80984 -9.1518,-76.768296 -38.2039,-144.289576 -79.1095,-183.861946 -15.6366,-15.12701 -22.1489,-19.34154 -43.3574,-28.05945 -12.8975,-5.30165 -21.16,-7.15018 -31.823,-7.11965 -26.0249,0.0745 -47.6145,10.18992 -69.8488,32.72629 l -8.5218,8.63764 -7.5383,-8.11424 c -31.711,-34.13391 -73.4897,-42.50864 -112.8225,-22.61582 -39.4614,19.95782 -76.3023,71.50172 -96.0239,134.34632 -5.8275,18.569856 -7.8739,26.815486 -11.5405,46.499996 -11.4661,61.55775 -8.1026,129.3126 8.9976,181.2513 1.6752,5.08822 2.8946,9.70518 2.7097,10.2599 -0.1849,0.55473 -1.9097,-0.0531 -3.8329,-1.35067 -6.8483,-4.62059 -13.5131,-6.1629 -26.4967,-6.13161 -14.0285,0.0338 -22.9127,2.14231 -35.3275,8.38435 -11.3612,5.7123 -24.2668,16.50527 -31.7908,26.58673 -2.789,3.73708 -10.2635,19.07535 -11.8662,24.35066 -0.9155,3.01346 -1.705,2.03221 -4.3046,-5.35066 -6.0872,-17.28754 -12.5551,-46.77985 -15.3514,-70 -1.7741,-14.73221 -1.7849,-62.5111 -0.017,-77 4.3087,-35.31788 14.3837,-72.85334 27.0815,-100.89392 1.717,-3.79165 2.9159,-7.09977 2.6643,-7.35136 -0.2516,-0.2516 -3.7493,0.1379 -7.7727,0.86555 -4.5753,0.82747 -14.8065,1.29986 -27.3153,1.26119 -17.8261,-0.0551 -21.3963,-0.35822 -32.846,-2.78873 -43.9779,-9.33552 -80.5454,-32.457566 -107.1827,-67.772686 -22.3227,-29.59505 -35.7495,-65.11979 -39.9043,-105.57917 -1.9403,-18.89451 -1.9455,-22.96873 -0.054,-42.710924 3.8009,-39.67634 16.3586,-76.31409 37.697,-109.98356 22.2049,-35.0366 52.1302,-62.58292 87.9741,-80.9805 22.9573,-11.7833 43.8525,-18.27202 68.2679,-21.19974 27.3861,-3.28394 60.1606,0.70874 83.4291,10.16358 3.3436,1.35865 6.4746,2.47027 6.9578,2.47027 0.4831,0 1.1414,-13.8375 1.4628,-30.75 0.3713,-19.53625 1.1203,-34.03207 2.0538,-39.75 6.3,-38.58519 16.1904,-59.02861 35.8929,-74.1906 6.4444,-4.95932 19.1859,-11.60419 25.2518,-13.16925 20.8625,-5.3827 39.981,1.04975 60.1902,20.25111 17.7879,16.90081 26.5685,29.9456 44.8351,66.60874 18.7522,37.63797 30.084,69.27601 36.9138,103.06286 2.7373,13.54145 5.5357,36.12682 5.5513,44.80377 0.011,5.95837 -0.5644,5.77151 8.0096,2.60283 2.5053,-0.92588 9.3428,-1.95261 15.4252,-2.31627 l 10.9251,-0.65319 3.6926,-10 c 11.2663,-30.51075 32.275,-75.71599 46.0241,-99.03207 30.9668,-52.51385 64.5526,-89.97919 103.433,-115.38062 8.085,-5.2821 28.2512,-14.73427 38.5,-18.04548 13.0773,-4.22505 20.7014,-5.38227 31.6772,-4.80817 8.2388,0.43094 10.2801,0.93532 16.7732,4.14438 12.568,6.21145 20.8849,18.03225 25.4148,36.12196 8.1365,32.49258 4.8407,56.37985 -15.7504,114.15802 -3.3631,9.43691 -6.1148,17.41785 -6.1148,17.73541 0,0.31756 2.3625,-0.37672 5.25,-1.54285 16.5865,-6.69852 30.2372,-10.26094 47.5467,-12.40821 14.757,-1.83062 26.447,-1.82501 42.2094,0.0202 43.8811,5.13702 86.7225,26.04532 120.8454,58.97731 38.4365,37.09498 63.7206,87.45529 71.8253,143.06007 2.3768,16.306384 2.3722,45.748614 -0.01,62.000004 -9.9776,68.07749 -47.9324,122.72408 -104.1185,149.90772 -32.5476,15.747006 -70.8558,21.120436 -106.7702,14.976486 l -3.7215,-0.63665 5.3842,13.0203 c 10.9698,26.5276 18.7487,54.5722 23.2317,83.75524 2.5899,16.86009 2.7615,19.99595 2.7615,50.4769 0,30.32815 -0.1805,33.66946 -2.7016,50 -1.4858,9.625 -4.0664,23.125 -5.7346,30 -3.6387,14.99586 -10.8773,38 -11.9572,38 -0.4252,0 -1.7949,-2.8125 -3.0439,-6.25 z M 2492.0018,12.230354 c 3.3208,-2.8983996 3.9582,-4.1194296 4.3661,-8.3642296 0.6485,-6.74904 -1.201,-11.70268 -6.2569,-16.7586004 -7.6207,-7.62069 -18.046,-8.17668 -27.3221,-1.45711 -5.2173,3.7794 -6.0743,6.8218804 -3.2215,11.4377404 4.3993,7.11829 12.8136,13.4566896 22.546,16.9838496 5.4861,1.98822 5.5043,1.98482 9.8884,-1.84165 z M 2952.6134,1.1625744 c 0.971,-1.16998997 0.9806,-1.81842997 0.044,-2.94737 -1.7411,-2.09792 -9.3108,-4.76823 -12.4249,-4.38306 -2.5818,0.31935 -2.4945,0.47139 2.6049,4.53311 5.689,4.53141 7.829,5.14372 9.7763,2.79732 z m 20.1511,-42.5791504 c 1.5252,-12.69793 0.6277,-28.92085 -1.5999,-28.92085 -1.6075,0 -5.9657,4.79216 -7.9694,8.76282 -1.9003,3.76585 -2.3135,12.52687 -0.7723,16.37609 1.4367,3.58839 7.2035,10.02245 8.5772,9.56969 0.6123,-0.20179 1.4063,-2.80628 1.7644,-5.78775 z m -84.1708,0.0515 c -2.5054,-3.51855 -10.6881,-7.97235 -14.6471,-7.97235 -2.0217,0 -2.4409,0.29233 -1.6102,1.12302 1.3271,1.32708 16.4077,9.74715 17.5951,9.82402 0.4499,0.0291 -0.1521,-1.30947 -1.3378,-2.97467 z m -359.0793,-6.28818 c 17.8727,-11.82757 9.7732,-38.64215 -11.6831,-38.67861 -14.427,-0.0245 -24.687,17.12826 -18.1146,30.28426 5.512,11.03345 19.7491,15.04421 29.7977,8.39435 z m 104.6709,-22.34652 c 6.973,-2.35211 9.1387,-3.98769 12.2024,-9.21554 5.4455,-9.29203 2.665,-20.838444 -6.6227,-27.502234 -3.8255,-2.74468 -5.1484,-3.1199 -11,-3.1199 -8.3729,0 -13.5262,2.50823 -17.6328,8.58224 -4.1144,6.085454 -4.6949,15.546664 -1.3083,21.322704 3.8931,6.63997 10.7113,11.02708 17.8614,11.4927 0.8645,0.0563 3.7895,-0.64569 6.5,-1.55997 z m 191.225,-3.77319 c -1.0254,-12.36492 -13.4466,-20.89004 -25.6495,-17.60414 -4.1855,1.12702 -13.1474,8.50912 -13.1474,10.82972 0,0.62308 1.9125,1.62297 4.25,2.22198 9.5553,2.44866 28.4142,7.86294 30.75,8.82814 4.0459,1.6719 4.2693,1.42041 3.7969,-4.2757 z m 99.1899,-3.07197 c 6.3752,-3.33305 11.0132,-11.04854 11.0132,-18.32071 0,-21.435124 -27.7669,-29.076654 -38.5841,-10.618454 -6.8784,11.737124 -0.3691,27.226244 12.8197,30.504884 3.9906,0.99203 11.3539,0.21047 14.7512,-1.56572 z m -464.3549,-12.1221 c 4.6826,-2.22207 9.8768,-8.54386 11.3536,-13.818554 1.5877,-5.67085 0.5996,-11.23774 -3.0032,-16.91874 -2.7456,-4.32926 -8.355,-8.45719 -9.3358,-6.87015 -1.1233,1.81755 -8.6465,35.206704 -8.6465,38.374574 0,1.44129 5.982,0.96486 9.6319,-0.76713 z m 287.1579,-6.27307 c 7.2111,-3.69803 11.5194,-10.683984 11.4548,-18.573924 -0.1848,-22.57741 -31.0355,-29.02149 -39.6969,-8.29187 -3.2608,7.80433 -1.234,18.10248 4.605,23.396874 6.2165,5.63672 16.4745,7.14215 23.6371,3.46892 z M 2572.3537,-114.6735 c 7.3357,-4.63082 10.9488,-12.80209 9.3581,-21.16393 -1.526,-8.02201 -4.6961,-12.05726 -12.1164,-15.42305 -13.7919,-6.25593 -28.9998,3.78726 -28.9726,19.13321 0.029,16.17667 18.0506,26.08975 31.7309,17.45377 z m 283.7597,-4.56378 c 4.6762,-2.16966 9.9294,-7.41218 11.4387,-11.41525 1.5621,-4.14346 1.2916,-12.39741 -0.5324,-16.2411 -3.6453,-7.68182 -10.1746,-11.76433 -18.9063,-11.82131 -7.7713,-0.0507 -13.2223,2.73311 -17.2457,8.80724 -7.2505,10.94637 -3.9848,23.71084 7.617,29.77169 6.3217,3.30253 11.8414,3.58393 17.6287,0.89873 z m -174.8032,-19.22176 c 3.829,-2.3665 8.1212,-7.27016 9.4725,-10.82202 0.5349,-1.406 0.9727,-4.92172 0.973,-7.81271 7e-4,-6.73812 -3.1577,-12.61252 -8.9784,-16.69926 -3.8757,-2.72106 -5.1144,-3.0444 -11.6639,-3.0444 -6.5342,0 -7.7921,0.32638 -11.6159,3.01384 -11.2532,7.90905 -12.4658,23.07823 -2.5632,32.06504 2.472,2.24338 5.9986,4.58171 7.8368,5.19629 4.4588,1.49069 12.5616,0.56142 16.5391,-1.89678 z m 268.2311,-19.54694 c -5.8175,-15.51139 -6.6408,-17.33145 -7.8399,-17.33145 -1.3901,0 -5.088,9.62196 -5.088,13.23904 0,4.57452 4.5081,13.29632 8.3534,16.16132 4.2636,3.17667 9.0456,4.70806 9.4542,3.02763 0.1692,-0.69579 -2.0267,-7.48924 -4.8797,-15.09654 z m -446.3865,1.78889 c 4.7145,-2.14152 9.8163,-7.7493 9.1292,-10.03462 -1.2719,-4.22995 -10.0784,-26.72719 -10.8554,-27.73111 -1.6534,-2.13638 -7.72,-2.5242 -13.4461,-0.85957 -5.2992,1.5405 -5.6271,1.83753 -8.066,7.30537 -5.2585,11.78909 -6.463,16.38833 -5.1541,19.68062 2.2215,5.58782 5.1236,8.73721 10.2515,11.12494 6.1507,2.86398 12.5676,3.04593 18.1409,0.51437 z m 279.4586,-4.73056 c 0,-0.33561 -1.5712,-5.64321 -3.4915,-11.79466 -2.7904,-8.93869 -8.3861,-20.80604 -11.0813,-23.50129 -1.1948,-1.19475 -5.6751,4.951 -7.0452,9.66412 -1.2703,4.36949 -1.3445,6.22974 -0.4051,10.14559 1.4321,5.96997 6.1171,11.78043 11.4524,14.20365 3.8818,1.76309 10.5707,2.57469 10.5707,1.28259 z m 11.6556,-3.94067 c 1.8394,-1.40299 3.3444,-3.19714 3.3444,-3.987 0,-1.13702 -0.9372,-0.98079 -4.5,0.75015 -2.858,1.3885 -4.5,2.84336 -4.5,3.98701 0,2.48248 1.7158,2.2549 5.6556,-0.75016 z m -279.6349,-13.34003 c -0.9454,-4.98507 -4.6311,-11.83204 -5.7609,-10.7022 -0.2871,0.28711 0.7541,4.36093 2.3137,9.05292 3.0656,9.22214 5.0647,10.17863 3.4472,1.64928 z m 279.4793,1.5344 c 6.8197,-2.23775 7.0079,-2.3897 7.3062,-5.89992 0.8084,-9.51395 -9.3142,-18.94078 -20.5127,-19.10266 -6.1892,-0.0895 -8.425,1.40053 -6.1306,4.08547 2.5186,2.94719 6.5423,10.86456 8.3753,16.47966 1.9955,6.1133 2.3299,6.80475 3.2708,6.76417 0.3801,-0.0164 3.841,-1.06341 7.691,-2.32672 z m -181.8967,-3.55087 c 4.8413,-2.19862 9.046,-6.33249 10.9957,-10.81049 2.0715,-4.75793 1.7629,-12.90306 -0.6801,-17.9497 -2.1638,-4.46976 -3.4446,-5.13916 -13.1689,-6.88266 -3.971,-0.71196 -5.1705,-2.44976 -1.691,-2.44976 1.2576,0 1.7912,-0.43329 1.3711,-1.11314 -0.4253,-0.68817 -2.7215,-0.9445 -6.0146,-0.67141 -11.3852,0.94415 -19.7012,9.83923 -19.7012,21.07306 0,14.66712 15.6161,24.83181 28.889,18.8041 z m 286.1788,-5.64566 c 14.5738,-6.08782 17.7102,-25.30125 5.7408,-35.16749 -10.8513,-8.9445 -25.4085,-5.89495 -31.7729,6.65604 -3.1294,6.17136 -3.4115,9.93821 -1.2112,16.1746 3.9157,11.09828 16.5318,16.81132 27.2433,12.33685 z M 2726.29,-206.91112 c 4.1914,-3.33502 8.8495,-11.30022 7.4354,-12.71426 -0.484,-0.48405 -6.4447,-0.72979 -13.246,-0.54607 -10.9368,0.29542 -13.0306,0.64546 -18.116,3.0287 -6.403,3.0007 -7.0631,4.66011 -3.207,8.06193 5.4577,4.81482 8.5551,5.87756 16.1336,5.53568 6.2315,-0.28111 7.6801,-0.72439 11,-3.36598 z m -178.1766,-17.71035 c 2.2,-1.47901 5.125,-4.34968 6.5,-6.37927 2.1328,-3.14819 2.5,-4.8255 2.5,-11.4206 0,-7.13155 -0.2369,-8.02315 -3.0579,-11.50857 -4.1212,-5.09192 -7.0848,-7.11607 -12.4809,-8.5246 -5.622,-1.4675 -10.4034,-0.63344 -15.5687,2.71582 -6.2516,4.05359 -8.7786,8.5419 -9.2214,16.37861 -0.446,7.89297 1.7828,13.36022 7.0995,17.41552 4.9857,3.80277 7.6696,4.61371 14.2294,4.29955 4.5362,-0.21725 6.9759,-0.9434 10,-2.97646 z m 284.2898,-4.62438 c 18.2292,-9.37665 15.1937,-34.29761 -4.7607,-39.0846 -7.3434,-1.76165 -12.4148,-0.002 -18.2909,6.34772 -8.8947,9.61113 -8.7878,20.1845 0.2973,29.39819 5.3028,5.37787 15.7966,6.9176 22.7543,3.33869 z m -179.5125,-17.15171 c 14.2324,-3.95237 19.4564,-23.38423 9.2076,-34.2499 -6.9396,-7.35721 -18.6806,-8.70358 -26.8052,-3.07382 -5.9214,4.10308 -10.0126,12.26059 -9.311,18.56546 0.7285,6.5477 3.9785,12.358 8.6366,15.44063 6.1189,4.04929 11.8743,5.09429 18.272,3.31763 z m 291.1608,-7.90164 c 2.6179,-1.61793 4.135,-3.86318 6.582,-9.74108 3.7149,-8.92373 3.9379,-12.4989 1.1237,-18.01518 -7.8984,-15.48229 -29.8483,-14.76451 -37.2479,1.21803 -4.925,10.63743 0.6461,23.9681 11.7414,28.09487 5.0572,1.881 13.4222,1.1495 17.8008,-1.55664 z m -177.4381,-18.45785 c 10.9091,-5.38854 14.6477,-22.92602 6.5158,-30.56551 l -2.4261,-2.27924 -6.1478,12.88219 c -7.2361,15.16236 -9.9419,21.24668 -9.9419,22.35517 0,1.38695 7.2915,-0.0669 12,-2.39261 z m -179.2179,-17.13343 c 13.3456,-5.57475 17.4703,-22.92541 7.9202,-33.31565 -3.0226,-3.28844 -11.4642,-7.11176 -15.7023,-7.11176 -1.925,0 -5.8027,1.07218 -8.617,2.38262 -16.1303,7.51066 -16.1303,29.68502 0,37.19568 5.9415,2.76654 11.1619,3.03684 16.3991,0.84911 z m 285.7179,-5.55699 c 5.4271,-1.49096 11.7646,-8.19173 13.4538,-14.22513 3.4007,-12.14582 -5.1168,-24.52071 -18.0692,-26.2524 -7.4716,-0.99893 -8.9621,0.21892 -16.1895,13.22835 -6.5348,11.76264 -6.543,11.78742 -5.0672,15.32046 4.238,10.1457 14.7389,14.98726 25.8721,11.92872 z m 104.5236,-40.38996 c 7.6836,-21.47136 7.8278,-22.22579 4.4896,-23.49496 -3.4807,-1.32336 -8.4088,-1.27355 -12.614,0.12749 -4.1473,1.38178 -10.2901,7.06416 -12.3663,11.43946 -2.9848,6.29001 -1.5307,16.35844 3.1895,22.08436 2.302,2.79247 8.3806,6.4386 10.1765,6.10416 0.8213,-0.15294 3.7632,-6.86719 7.1247,-16.26051 z m -453.395,1.27001 c 5.1209,-3.27677 9.3714,-11.20382 9.3714,-17.47725 0,-13.05811 -12.9565,-23.51007 -25.1298,-20.27219 -10.3726,2.75891 -15.8915,9.53894 -16.1949,19.89538 -0.2363,8.06738 2.7876,13.66344 9.7326,18.0114 4.6137,2.88841 5.7027,3.15485 11.5921,2.83619 4.9116,-0.26575 7.5089,-0.99727 10.6286,-2.99353 z m 282.754,-3.72538 c 8.6968,-3.30652 14.757,-14.46061 12.8119,-23.58078 -1.1291,-5.29391 -5.1061,-11.59875 -7.0811,-11.22574 -1.3813,0.26089 -15.2849,19.96437 -20.4817,29.02556 l -2.732,4.76367 2.3001,0.92294 c 3.0672,1.2307 12.0472,1.2865 15.1828,0.0944 z m -176.4006,-19.12158 c 2.4651,-1.11816 5.3414,-2.79578 6.3917,-3.72804 2.6803,-2.37891 6.6068,-11.11237 6.6068,-14.69501 0,-4.04314 -3.9849,-12.35058 -7.7122,-16.07786 -6.9791,-6.97914 -19.083,-7.0358 -26.9526,-0.12617 -17.7771,15.60852 0.212,44.35868 21.6663,34.62708 z m 285.1188,-5.06115 c 12.6092,-4.22172 18.2891,-19.21324 11.4032,-30.09749 -7.5961,-12.00679 -23.1354,-13.90187 -32.7602,-3.99523 -4.4475,4.57766 -5.7438,7.84574 -5.7438,14.48019 0,14.42288 13.475,24.1746 27.1008,19.61253 z m -351.5922,-37.72688 c 7.2065,-3.27384 12.4802,-11.35972 12.4802,-19.13502 0,-4.96675 -2.0306,-9.57949 -6.0258,-13.68781 -8.6609,-8.90622 -20.781,-9.30719 -29.4333,-0.97375 -8.3284,8.02145 -8.7084,19.00536 -1.007,29.10247 4.6345,6.07616 16.0332,8.30692 23.9859,4.69411 z m 287.0328,-6.01469 c 6.6309,-3.01201 10.8395,-9.33067 11.6662,-17.51544 0.1608,-1.59231 -0.1962,-3.06768 -0.7934,-3.27859 -1.1707,-0.4135 -23.4142,20.26585 -23.4142,21.76779 0,1.58135 8.3423,0.93363 12.5414,-0.97376 z m 109.4603,-24.12119 c 8.2949,-4.23177 12.4093,-11.34821 11.8039,-20.41674 -0.805,-12.05867 -7.482,-17.5824 -21.2533,-17.5824 -9.4483,0 -13.2502,1.92202 -17.2278,8.70928 -4.8418,8.26187 -2.913,19.92322 4.3882,26.53069 5.1576,4.66758 15.9334,6.00153 22.289,2.75917 z m -313.5017,725.43231 c 1.65,-1.37314 5.475,-3.90545 8.5,-5.62737 3.025,-1.72191 5.649,-3.2437 5.831,-3.38177 0.5092,-0.38616 -1.9621,-4.69664 -3.6703,-6.40167 -5.5163,-5.50607 -16.0216,-25.79535 -20.9807,-40.52064 -6.162,-18.29706 -11.0205,-46.19338 -13.2666,-76.1729 -2.3903,-31.90404 2.7857,-72.128926 12.0675,-93.782606 l 1.9334,-4.5104 -4.7071,-2.70803 c -19.04,-10.9537 -37.5447,-30.98032 -46.2044,-50.00446 -2.5959,-5.7026196 -4.9382,-13.4858096 -3.7082,-12.32159957 0.2906,0.275 3.1862,4.54999997 6.4349,9.49999997 12.4876,19.0277296 27.2464,34.3021696 43.2191,44.7292496 l 7.5416,4.92326 2.0049,-2.72211 c 1.1027,-1.49715 4.2846,-5.06056 7.071,-7.91868 l 5.066,-5.19657 -6.407,-6.76272 c -15.3732,-16.22667 -25.5544,-37.12547957 -29.6845,-60.93342 -2.862,-16.49794 -1.7493,-16.58244 3.971,-0.30158 7.8324,22.2920304 21.8038,47.4821 33.0171,59.52908 5.0082,5.38056 5.1593,5.45789 8.4347,4.3161 1.8343,-0.63943 4.7304,-1.1695 6.4358,-1.17792 5.4584,-0.027 5.9568,-1.00741 3.5789,-7.04017 -1.1657,-2.95743 -3.2604,-12.1423 -4.655,-20.41083 -2.1476,-12.7334796 -2.4467,-16.9462296 -1.955,-27.53369 0.5563,-11.97562 3.0948,-26.70643 5.5145,-32 0.8997,-1.96825 1.0232,0.0524 0.5806,9.5 -0.9132,19.49605 1.7695,42.7148904 7.1636,62 3.9762,14.21577 5.17,16.59313 11.4626,22.82744 9.4236,9.33637 16.7891,24.29258 22.813,46.32389 8.6282,31.555936 12.2607,83.981606 8.5511,123.411286 -1.578,16.77293 -5.1412,36.97039 -7.9024,44.79386 -0.8456,2.39606 -1.2851,4.76484 -0.9767,5.26396 0.6999,1.1324 45.5566,-0.0369 46.8491,-1.2212 0.5566,-0.51005 -0.1121,-4.53155 -1.6833,-10.12274 -10.7731,-38.33757 -13.2297,-81.36464 -7.2388,-126.78716 5.8653,-44.469926 14.6568,-71.924116 28.452,-88.849746 3.284,-4.02918 6.1876,-8.07139 6.4525,-8.98269 7.5544,-25.9895296 9.8315,-40.73372 9.8798,-63.97214 0.034,-16.43447 0.2272,-18.87018 1.2948,-16.33116 5.589,13.29235 6.4805,42.2623104 1.9587,63.6464 -3.6173,17.10601 -3.65,15.94864 0.4608,16.2943 1.925,0.16187 5.726,1.01493 8.4467,1.8957 l 4.9467,1.60139 2.9189,-3.3957 c 11.8508,-13.78641 25.0068,-39.46097 35.2483,-68.78882 1.1643,-3.3343 1.3494,0.16335 0.4065,7.68323 -2.8247,22.52742 -13.7943,46.81964 -28.4608,63.02636 l -4.8111,5.31646 3.7441,3.63667 c 2.0593,2.00017 5.1258,5.68276 6.8145,8.18354 1.6887,2.50078 3.1877,4.69969 3.3312,4.88647 0.4317,0.56197 12.5388,-7.87019 18.2634,-12.71978 7.4751,-6.33258 21.8677,-23.2555 28.7222,-33.7718896 6.1999,-9.51194 8.0183,-9.7436 4.3452,-0.55354 -4.73,11.8341796 -14.6685,25.9349996 -25.5575,36.2611096 -6.4701,6.13563 -15.8972,13.32164 -19.8226,15.11019 -3.145,1.43294 -3.1522,2.42993 -0.07,9.75184 3.608,8.57237 6.3203,18.78621 9.1832,34.582466 2.1102,11.64345 2.628,18.21248 3.0765,39.02593 1.2852,59.65822 -8.4571,105.2146 -28.3584,132.60805 -1.8516,2.54868 -3.3666,5.1094 -3.3666,5.69047 0,0.58108 2.25,2.95373 5,5.27256 2.75,2.31884 5,4.55239 5,4.96345 0,0.41107 -2.2614,-0.11187 -5.0253,-1.16207 -8.5321,-3.24193 -23.2949,-6.83509 -36.6789,-8.92739 -42.4205,-6.63149 -89.3379,-1.12743 -133.6316,15.67685 -4.8597,1.84368 -9.1347,3.33597 -9.5,3.31619 -0.3653,-0.0198 0.6858,-1.15944 2.3358,-2.53259 z m 28.7528,-15.01763 c 0.3224,-0.3224 -0.6696,-3.3851 -2.2044,-6.80601 -6.7704,-15.08995 -8.6704,-33.28375 -5.052,-48.37695 2.3225,-9.68756 5.0092,-15.44653 9.3614,-20.06618 4.3829,-4.65231 7.7297,-6.16468 13.6422,-6.16468 7.7459,0 12.583,3.31755 17.9676,12.3232 1.2573,2.10276 2.6376,3.45276 3.0674,3 0.4298,-0.45276 0.9661,-6.4482 1.1917,-13.3232 1.2366,-37.67068 -4.862,-91.813 -13.8263,-122.746746 -2.8087,-9.69237 -10.2124,-24.76993 -14.3246,-29.17207 -5.7207,-6.12405 -17.1107,-5.98686 -25.3605,0.30547 -12.2457,9.34006 -19.8622,26.49472 -24.4056,54.968306 -2.5073,15.71361 -2.5116,66.50972 -0.01,84.64504 5.5487,40.17901 16.0168,72.55133 28.3755,87.75 2.9566,3.63603 4,4.25 7.2223,4.25 2.0715,0 4.0301,-0.26378 4.3525,-0.58618 z m 135.5446,-3.49302 c 8.0228,-2.79679 19.1173,-29.4739 24.088,-57.9208 4.1235,-23.59815 4.6154,-30.68378 4.5814,-66 -0.029,-30.6483 -0.2807,-36.06301 -2.2505,-48.5 -6.7139,-42.389766 -18.9237,-66.247376 -35.3219,-69.017826 -20.9851,-3.54542 -37.6093,44.18297 -41.9774,120.517826 -1.4092,24.62621 -0.1822,55.6666 3.1227,79 0.5064,3.575 0.9296,7.0625 0.9405,7.75 0.011,0.6875 0.4022,1.25 0.8695,1.25 0.4673,0 1.145,-4.3875 1.506,-9.75 1.0724,-15.92989 5.8301,-29.16985 12.9648,-36.07893 7.127,-6.90171 17.6988,-4.63119 24.2262,5.2031 11.9288,17.97214 12.7264,46.64274 1.8499,66.50178 -2.978,5.43748 -3.0062,6.86753 -0.1466,7.41832 1.2375,0.23835 2.2953,0.49465 2.3508,0.56955 0.055,0.0749 1.4939,-0.34946 3.1966,-0.94302 z m -116.8326,-63.85506 c 1.6163,-3.02011 1.2245,-6.48543 -1.0038,-8.87718 -2.5621,-2.75017 -3.4582,-2.74454 -5.4043,0.034 -1.599,2.28283 -2.0238,6.39662 -0.9497,9.1957 0.8801,2.29364 6.0748,2.0448 7.3578,-0.35247 z m 98,-6 c 1.4895,-2.78306 1.274,-6.62269 -0.4521,-8.05517 -1.975,-1.63911 -4.2657,-0.64678 -5.6819,2.46137 -2.3823,5.22857 3.4722,10.56747 6.134,5.5938 z m -536.5059,-603.13227 c -0.3626,-0.58659 -0.4447,-1.281 -0.1826,-1.54313 0.2621,-0.26213 0.7431,0.21781 1.0688,1.06653 0.6762,1.76211 0.1,2.07206 -0.8862,0.4766 z m -18.4589,-13.87445 c 0,-0.51755 0.4448,-1.21592 0.9885,-1.55194 0.5669,-0.35034 0.7345,0.0511 0.393,0.94098 -0.6647,1.73242 -1.3815,2.04939 -1.3815,0.61096 z"
       id="path1" />
    <use
       x="0"
       y="0"
       xlink:href="#path1"
       id="use2"
       transform="translate(1718.5276,98.723927)" />
  </g>
</svg>
