<?xml version="1.0" encoding="UTF-8" standalone="no"?>
<!-- Created with Inkscape (http://www.inkscape.org/) -->

<svg
   version="1.1"
   id="svg1"
   width="997.58228"
   height="745.52417"
   viewBox="0 0 997.58228 745.52417"
   xmlns="http://www.w3.org/2000/svg"
   xmlns:svg="http://www.w3.org/2000/svg">
  <defs
     id="defs1" />
  <g
     id="g1"
     transform="translate(-1251.4761,-427.56039)">
    <path
       style="fill:#000000"
       d="m 1395.4667,1171.2212 c -3.8543,-0.9409 -9.3338,-2.6415 -12.1767,-3.779 -10.9903,-4.3975 -75.8814,-33.2403 -83.2633,-37.0089 -4.2795,-2.1849 -14.1346,-6.3589 -21.9,-9.2758 -22.2377,-8.3528 -28.0647,-14.3486 -26.3781,-27.1422 0.4923,-3.7335 3.8681,-15.5677 7.5019,-26.298 3.6339,-10.7303 7.8084,-25.0143 9.2768,-31.7422 1.4684,-6.7279 3.9258,-15.9486 5.4609,-20.4903 3.3133,-9.8028 17.8873,-40.39691 19.8096,-41.58495 0.7388,-0.45663 1.3433,-1.92136 1.3433,-3.25496 0,-1.33359 0.9,-3.17165 2,-4.08457 1.1,-0.91292 2,-2.80962 2,-4.21489 0,-1.40527 2.25,-4.91109 5,-7.79072 l 5,-5.23569 14,-0.66585 c 7.7,-0.36622 15.95,-1.06193 18.3333,-1.54602 l 4.3334,-0.88016 v -24.21987 c 0,-17.22721 0.5774,-26.43678 2,-31.89839 1.1,-4.22318 2,-9.65388 2,-12.06822 0,-2.41434 0.8271,-7.13796 1.838,-10.49694 1.1961,-3.97438 1.3832,-6.56203 0.5357,-7.40951 -1.8961,-1.89613 -0.6421,-37.41844 1.4713,-41.67544 1.6397,-3.30297 2.1753,-3.43949 13.9301,-3.55088 26.5928,-0.25201 86.8438,-4.63056 89.5215,-6.50571 1.4466,-1.01294 3.5789,-1.84171 4.7385,-1.84171 1.1596,0 4.1761,-2.14351 6.7033,-4.76336 5.7922,-6.0046 22.9507,-19.23664 24.9449,-19.23664 0.8246,0 2.5625,-1.8 3.8621,-4 1.2996,-2.2 2.8483,-4 3.4417,-4 1.416,0 3.8958,-6.57141 3.0166,-7.99389 -0.375,-0.6069 -2.4493,-0.43635 -4.6094,0.37899 -3.2604,1.23066 -4.3663,1.08525 -6.5115,-0.85617 -2.2451,-2.03179 -2.6121,-4.35881 -2.7973,-17.73703 -0.2217,-16.0092 1.356,-21.7919 5.9452,-21.7919 1.0831,0 1.9693,-0.65 1.9693,-1.44444 0,-2.96078 -3.5018,-0.0805 -11.3044,9.29804 -10.0372,12.06456 -14.1577,14.7929 -22.3585,14.80428 -5.4059,0.008 -7.1082,-0.69473 -11.6666,-4.81303 -2.9355,-2.652 -5.3372,-4.34741 -5.3372,-3.76758 0,0.57983 -1.5,-0.35494 -3.3333,-2.07727 -1.8334,-1.72232 -3.3334,-3.89884 -3.3334,-4.83669 0,-0.93785 -2.55,-2.83714 -5.6666,-4.22063 -7.3412,-3.25876 -21.4082,-19.4954 -24.9413,-28.78814 -1.7265,-4.54116 -0.6308,-6.27987 5.9153,-9.3862 4.0447,-1.9193 4.4482,-2.59584 3.8513,-6.45615 l -0.6667,-4.31219 30.754,-13.90083 c 27.0333,-12.21906 30.754,-14.26789 30.754,-16.93475 0,-2.34144 1.9021,-4.0851 8.3334,-7.6395 4.5833,-2.53308 11.6333,-5.65742 15.6666,-6.94297 4.0334,-1.28555 10.1446,-3.44239 13.5805,-4.79299 3.436,-1.35059 7.5833,-2.45562 9.2162,-2.45562 1.6329,0 7.6633,-2.75209 13.4008,-6.11575 12.9307,-7.58075 20.4216,-9.62887 39.2548,-10.73282 l 14.7856,-0.86668 3.5477,7.11941 c 1.9513,3.91568 3.5478,7.90161 3.5478,8.85763 0,2.28602 0.5031,2.21596 6.6666,-0.92846 2.8749,-1.46667 6.0463,-2.66667 7.0475,-2.66667 3.0388,0 21.3183,16.51367 33.3961,30.17002 17.8048,20.13186 23.5612,33.66165 23.5515,55.35578 0,11.40238 -0.8997,14.00532 -7.5785,22.05244 -1.3291,1.60136 -8.7166,5.32371 -16.4166,8.27187 -7.7,2.94817 -18.2,7.09768 -23.3333,9.22113 -5.1333,2.12346 -12.4917,4.66668 -16.3518,5.6516 -6.4758,1.6523 -7.5403,1.57033 -13.766,-1.05994 l -6.7474,-2.85071 -20.2341,7.08299 -20.234,7.08299 -0.2381,15.39301 c -0.2474,15.98834 -1.9004,22.08149 -6.7229,24.78026 -3.3484,1.87385 -9.5576,1.08577 86.961,11.03724 23.0949,2.38118 41.7905,4.89771 42.3695,5.70315 0.5699,0.79283 1.3949,3.09151 1.8333,5.10817 0.4385,2.01667 1.0006,3.66667 1.2492,3.66667 0.2486,0 9.9347,-3.54006 21.5245,-7.86679 11.5898,-4.32673 22.5614,-8.08641 24.3813,-8.35483 2.7613,-0.40727 1.1589,-1.76527 -9.6834,-8.20645 -14.4054,-8.5579 -16.3456,-10.75167 -13.8463,-15.65637 1.2582,-2.46913 2.6471,-3.20501 5.787,-3.06607 3.3422,0.14789 4.2454,-0.41272 4.7274,-2.93418 0.3277,-1.71434 0.2347,-2.99661 -0.2067,-2.84948 -0.4414,0.14713 -0.8025,-0.3325 -0.8025,-1.06583 0,-0.73333 0.4406,-1.18648 0.979,-1.007 0.5384,0.17948 3.5384,-2.46109 6.6667,-5.86793 10.5796,-11.52197 23.5968,-14.11469 39.021,-7.77206 4.69,1.9286 8.1888,2.72809 8.4564,1.93232 0.4059,-1.20696 2.691,-4.11991 14.7061,-18.74704 4.0161,-4.88913 5.2232,-14.21794 2.5121,-19.41443 -3.9079,-7.49062 -5.7217,-10.56048 -8.6746,-14.68179 -3.9131,-5.46147 -3.7837,-7.40734 0.6666,-10.01845 3.1363,-1.84013 20.1803,-6.11095 34.5237,-8.65079 l 4.1903,-0.742 -3.0988,-6.84875 c -1.7043,-3.76681 -3.5027,-8.94875 -3.9966,-11.51541 -0.7002,-3.63983 -2.2606,-5.54682 -7.0915,-8.66667 -10.925,-7.05552 -8.463,-14.62794 4.4967,-13.83098 6.4584,0.39716 6.4697,0.3873 15.4737,-13.50235 l 4.7538,-7.33334 -9.459,-0.0129 c -6.9908,-0.01 -10.4157,-0.65836 -13.1256,-2.48668 -3.6614,-2.47026 -5.1546,-7.91137 -2,-7.28801 0.9167,0.18114 3.5869,-0.69256 5.9338,-1.94155 5.9725,-3.17845 11.2003,-2.83221 17.0365,1.12834 2.7549,1.86958 5.3887,2.98743 5.8527,2.48412 0.464,-0.5033 0.1788,-1.1546 -0.6339,-1.44731 -0.8127,-0.29272 -2.6127,-1.41641 -4,-2.49709 -2.4244,-1.88853 -2.3541,-2.11062 1.8109,-5.71569 5.0205,-4.3456 5.4452,-7.78353 1.5699,-12.71012 -2.8953,-3.68083 -5.472,-4.66778 -4.9032,-1.87813 0.1833,0.89925 -1.0611,1.84681 -2.7655,2.10567 -2.7004,0.41017 -3.0432,-0.0142 -2.6666,-3.30168 0.3335,-2.91191 1.209,-3.86284 3.8383,-4.1691 3.8592,-0.44953 10.2102,3.93242 11.9537,8.24758 0.9209,2.27938 1.1538,2.3713 1.2222,0.48251 0.098,-2.70693 0.6567,-2.83454 4.1722,-0.95308 4.4565,2.38507 3.4587,10.64791 -2.0877,17.28642 -6.1273,7.3339 -5.9065,8.09714 0.6331,2.18899 7.9646,-7.19551 8.0637,-7.20375 38.9357,-3.23805 1.2295,0.15793 1.9697,0.71712 1.6449,1.24264 -0.3248,0.52552 0.019,1.33236 0.7646,1.79297 0.7453,0.46062 1.3551,1.92358 1.3551,3.25101 0,1.71213 -1.3188,2.62753 -4.5379,3.14993 -2.4959,0.40502 -8.7621,2.59036 -13.9248,4.85632 -13.0535,5.72921 -19.9814,6.50308 -26.7295,2.98576 l -5.3339,-2.78014 -7.4598,10.64597 c -4.1029,5.85529 -7.7713,11.45754 -8.1519,12.44946 -0.4102,1.0691 1.1876,2.96514 3.9239,4.65629 2.5388,1.56904 4.9899,3.82744 5.4471,5.01865 1.2974,3.3812 -3.0317,7.11353 -8.2511,7.11353 -4.357,0 -4.5552,0.19709 -3.6856,3.66667 0.5055,2.01666 2.1625,6.55863 3.6822,10.09326 2.2837,5.31133 3.2484,6.30935 5.5589,5.75094 5.5054,-1.33053 24.3205,-3.36882 34.7957,-3.76952 l 10.6667,-0.40802 -0.2447,10 c -0.1345,5.5 -0.3013,10.9 -0.3705,12 -0.5891,9.35838 5.3278,36.15261 7.938,35.94654 0.3724,-0.0294 5.5575,-10.0794 11.5223,-22.33333 12.6572,-26.00254 23.241,-44.74028 28.2607,-50.03345 l 3.5596,-3.75358 -4.6941,-4.24642 c -13.0628,-11.8169 -26.4978,-37.38088 -31.7659,-60.44342 -7.4039,-32.41287 -8.3131,-44.37851 -4.8117,-63.32238 6.3975,-34.61265 24.0949,-64.67557 48.3521,-82.13661 25.7184,-18.5129 39.5885,-24.37405 70.4656,-29.77704 23.4561,-4.10443 46.8583,-3.84237 64.536,0.72269 22.8468,5.89991 38.6899,15.1641 55.5788,32.49951 11.7012,12.01048 19.3331,22.1087 25.5291,33.77881 9.3458,17.60305 10.1537,21.48843 10.071,48.43202 -0.069,22.29891 -0.3345,24.85054 -3.7531,36 -3.0473,9.93875 -6.9003,20.27649 -11.0267,29.58534 -0.4456,1.00533 1.1673,1.8962 4.4087,2.43501 2.8113,0.46731 9.9114,2.03095 15.7781,3.47474 5.8667,1.44379 13.5068,2.83526 16.9782,3.09216 13.7058,1.0143 25.976,12.75891 41.4506,39.67499 15.0699,26.21211 32.1826,82.00428 39.7934,129.73776 2.2474,14.09495 2.2638,58.62136 0.026,70.53012 -2.6995,14.36617 -9.6339,26.13654 -15.3981,26.13654 -1.4768,0 -4.5985,-1.31107 -6.9371,-2.91349 -6.9422,-4.75689 -10.9453,-12.5628 -29.9596,-58.41984 -3.8009,-9.16667 -7.9948,-19.06667 -9.3197,-22 l -2.409,-5.33333 -0.1123,8.20651 c -0.3135,22.89306 -8.2029,67.21233 -17.0527,95.79349 -6.9496,22.44464 -20.2473,47.47125 -32.4424,61.05761 -12.7138,14.16423 -37.498,28.19556 -49.4837,28.01475 -37.0562,-0.55898 -72.7862,-26.76231 -108.7295,-79.73899 -8.3519,-12.30972 -16.9421,-25.91076 -21.4738,-34 -5.399,-9.63725 -24.8037,-54.97808 -29.5795,-69.1153 -3.602,-10.66262 -3.7925,-10.93412 -4.6773,-6.66666 -0.5074,2.44674 -3.3246,13.44863 -6.2606,24.44863 -6.0772,22.769 -13.4625,39.48706 -20.8954,47.30058 -4.3196,4.5409 -5.9343,5.36608 -10.5002,5.36608 -7.6895,0 -17.3301,-8.86436 -23.6775,-21.77118 -4.9067,-9.97751 -8.3319,-28.13792 -6.7837,-35.96738 0.6853,-3.46528 0.46,-3.70668 -3.0814,-3.30227 -2.1014,0.23997 -6.5289,2.82232 -9.8389,5.73857 -9.5999,8.45786 -10.7148,9.26505 -15.5769,11.27841 -5.4776,2.26824 -30.0313,2.56035 -49.7312,0.59164 -11.2885,-1.12812 -13.0915,-1.02893 -13.6565,0.75129 -0.358,1.12805 -2.3055,3.0559 -4.3277,4.28411 -2.9278,1.7782 -3.6768,3.21877 -3.6768,7.07169 v 4.83859 l -45.3334,14.63667 c -24.9333,8.05017 -46.721,15.21395 -48.4171,15.91952 -4.2518,1.76876 -3.7496,9.71675 0.6536,10.34372 5.1542,0.73389 6.0458,3.55629 6.7708,21.43291 l 0.6976,17.1999 7.1476,8.02401 c 3.9311,4.4132 7.1475,8.74146 7.1475,9.61834 0,0.87689 1.4239,2.71438 3.1642,4.08331 1.7404,1.36892 4.1685,4.60528 5.3959,7.19189 1.2275,2.58661 2.7421,4.70293 3.3658,4.70293 1.4754,0 16.0741,22.52775 16.0741,24.8044 0,0.95758 1.4756,3.21665 3.2791,5.02016 1.8036,1.80352 3.7051,4.97615 4.2257,7.05025 0.5205,2.0742 2.6867,6.1735 4.8136,9.1096 2.433,3.3587 3.654,6.4529 3.2926,8.3436 -0.316,1.653 -0.049,3.0053 0.5935,3.0053 1.8471,0 6.4517,8.353 6.4572,11.7136 0,1.6758 0.9424,4.4775 2.0881,6.2261 1.392,2.1245 2.0293,5.9794 1.9211,11.6198 -0.089,4.6423 -0.1383,10.2405 -0.1092,12.4405 0.079,5.9895 -3.5752,15.9014 -7.0741,19.1885 -2.3971,2.2519 -8.4561,3.949 -26.9565,7.5502 -36.7139,7.1465 -40.3979,7.5331 -50.8427,5.336 -8.1731,-1.7193 -29.503,-9.9001 -32.9687,-12.6447 -0.7625,-0.6039 -13.0888,-7.1414 -27.3918,-14.5278 l -26.0054,-13.43 -33.0371,6.1968 -33.0371,6.1967 -14.2908,-4.954 c -7.8599,-2.7248 -14.7691,-4.9446 -15.3536,-4.9329 -0.5846,0.012 0.7277,2.2712 2.9162,5.0212 2.1884,2.75 4.4013,6.8 4.9174,9 0.5161,2.2 2.0301,5.0513 3.3645,6.3362 1.3343,1.285 3.1232,4.885 3.9753,8 0.8522,3.1151 2.6996,9.1847 4.1054,13.488 2.0152,6.1687 2.4185,10.2925 1.9062,19.4907 -0.7234,12.9899 -1.8207,18.6851 -3.6001,18.6851 -0.6538,0 -1.1888,1.2575 -1.1888,2.7943 0,5.3563 -4.3099,10.3145 -11.9114,13.7031 -25.1122,11.1941 -49.7814,18.2779 -62.7552,18.0201 -4.0334,-0.08 -10.4868,-0.9156 -14.3411,-1.8566 z m 23.8604,-2.7486 c 29.6813,-5.559 61.1473,-19.0049 61.1473,-26.1293 0,-0.8169 -0.9734,-0.9954 -2.3333,-0.428 -1.2833,0.5355 -17.3167,6.6445 -35.6296,13.5755 -42.6732,16.1509 -43.9637,16.8735 -23.1844,12.9818 z m -29.8104,-7.7516 c -4.0008,-5.3392 -4.4499,-5.5962 -5.2427,-3 -1.5271,5.0006 -1.2063,5.9236 2.5338,7.2896 6.6326,2.4225 7.1384,1.6216 2.7089,-4.2896 z m 9.6244,1.1906 c 0,-4.0825 -0.5883,-4.8946 -4.8295,-6.6667 -2.6562,-1.1098 -5.0679,-2.0179 -5.3592,-2.0179 -0.2913,0 1.71,3 4.4475,6.6667 2.7374,3.6666 5.149,6.6666 5.3591,6.6666 0.2102,0 0.3821,-2.0919 0.3821,-4.6487 z m 46,-11.414 c 19.8,-7.4048 36.7159,-14.1699 37.5909,-15.0336 0.8749,-0.8637 2.0037,-4.7313 2.5083,-8.5947 l 0.9175,-7.0243 -10.5084,4.5262 c -33.7492,14.5366 -66.9097,29.3213 -69.5083,30.9904 -2.1606,1.3877 -3,3.2161 -3,6.5342 0,4.2658 0.2224,4.5131 3,3.3362 1.65,-0.6991 19.2,-7.3296 39,-14.7344 z m -64.6667,6.2086 c 0,-4.1739 -0.358,-4.5626 -4.6666,-5.0656 -4.295,-0.5014 -4.6667,-0.2638 -4.6667,2.9837 0,2.3416 1.0091,4.0152 3,4.9754 5.1194,2.469 6.3333,1.9144 6.3333,-2.8935 z m -12.5153,-2.4671 c -0.102,-2.0138 -1.6728,-3.7318 -4.818,-5.2693 -6.0661,-2.9655 -6.6667,-2.9374 -6.6667,0.3119 0,1.9177 1.6734,3.4648 5.6667,5.2391 3.1167,1.3848 5.7348,2.5602 5.818,2.612 0.083,0.052 0.083,-1.2504 0,-2.8937 z m 30.1555,-10.3454 0.509,-7.3334 -5.7413,-0.1656 c -3.7905,-0.1093 -5.7412,0.4004 -5.7412,1.5 0,0.9161 -0.3737,3.534 -0.8304,5.8175 -0.7799,3.8998 -0.4765,4.3034 5,6.6496 3.2067,1.3738 5.9349,2.1305 6.0626,1.6815 0.1277,-0.449 0.4613,-4.1163 0.7413,-8.1496 z m 15.8881,3.452 c 5.3928,-2.5014 14.9051,-6.7691 21.1384,-9.4838 54.8779,-23.9004 50.6667,-21.6867 50.6667,-26.6333 0,-3.6239 -2.1553,-12.23 -3.4611,-13.8203 -0.2192,-0.267 -10.4802,4.8061 -22.8021,11.2736 -12.3219,6.4674 -30.2035,15.7811 -39.7368,20.6972 l -17.3334,8.9383 -0.403,6.7881 c -0.2216,3.7335 0.1661,6.7882 0.8616,6.7882 0.6956,0 5.6769,-2.0466 11.0697,-4.548 z m -61.5283,-0.6299 c 0,-1.3811 -1.05,-2.813 -2.3333,-3.182 -1.2833,-0.369 -3.3059,-1.0735 -4.4946,-1.5655 -3.9713,-1.6437 -4.0829,3.0392 -0.1236,5.1881 4.9235,2.6723 6.9515,2.5438 6.9515,-0.4406 z m 29.4654,-1.7354 c 1.0393,-1.942 1.3299,-7.4041 0.8716,-16.3831 -0.5606,-10.9845 -1.4696,-15.4285 -4.9267,-24.0867 -5.7204,-14.3264 -24.9897,-51.4865 -39.3839,-75.9503 -6.4723,-11 -14.826,-25.7495 -18.5637,-32.77667 -3.7378,-7.02718 -7.846,-14.22718 -9.1293,-16 l -2.3334,-3.22331 -2.2145,3.07813 c -2.1609,3.00365 -4.9006,8.92365 -17.3956,37.58855 -8.3419,19.1373 -21.7322,65.1522 -21.7182,74.6332 0.01,5.8574 4.4054,11.1561 12.1071,14.5909 3.9717,1.7713 19.8212,9.2009 35.2212,16.5104 54.0247,25.6421 63.816,28.8378 67.4654,22.0189 z m -42.7987,-3.7263 c 0,-1.7263 -1.801,-3.5584 -5.2053,-5.2951 -4.5768,-2.3349 -5.3013,-2.4055 -6,-0.5848 -0.4371,1.139 -0.7947,2.3512 -0.7947,2.6937 0,0.5011 10.4415,5.6889 11.6667,5.7965 0.1833,0.016 0.3333,-1.1585 0.3333,-2.6103 z m -14.6667,-7.3516 c 0,-2.1164 -15.7306,-10.3327 -17.5865,-9.1857 -2.7465,1.6974 -0.4879,4.6139 5.9199,7.6442 8.1618,3.8599 11.6666,4.3229 11.6666,1.5415 z m 75.282,-3.0088 c -0.2576,-1.2834 -0.8078,-4.4728 -1.2228,-7.0878 -0.7526,-4.7424 -0.7687,-4.7524 -6.4068,-3.9701 -5.5028,0.7635 -5.643,0.9069 -5.2993,5.421 0.5618,7.3785 1.1171,7.9702 7.4803,7.9702 4.9248,0 5.8384,-0.3913 5.4486,-2.3333 z m 46.718,-19.6803 c 26.534,-13.9281 31.9862,-16.889 33.1691,-18.0133 1.5744,-1.4965 0.087,-6.9504 -2.9036,-10.6431 l -2.4351,-3.0072 -26.5819,13.7759 c -14.62,7.5767 -30.7818,16.0349 -35.9151,18.7961 l -9.3334,5.0203 0.3389,6.3758 c 0.5681,10.6873 0.3407,10.6478 15.3306,2.668 7.5151,-4.0006 20.2639,-10.7382 28.3305,-14.9725 z m -143.5824,12.3065 c 0.4302,-2.2175 -8.3389,-7.6262 -12.3644,-7.6262 -4.2939,0 -2.0132,4.828 3.6135,7.6497 6.302,3.1604 8.1343,3.1555 8.7509,-0.024 z m -18.4176,-5.5172 c 0,-0.3067 0.3368,-1.4352 0.7484,-2.5077 1.1863,-3.0914 -7.0365,-5.5036 -9.6958,-2.8444 -2.3288,2.3288 -2.1682,2.6342 2.3296,4.4296 3.5115,1.4017 6.6178,1.8347 6.6178,0.9225 z m 111.4825,-3.9217 c -0.3534,-0.8364 -1.388,-3.809 -2.2991,-6.6058 -1.48,-4.5434 -2.022,-4.995 -5.0866,-4.239 -5.1324,1.2661 -5.7594,2.4828 -4.222,8.1924 1.3742,5.1033 1.5108,5.1972 6.8262,4.6903 3.4001,-0.3242 5.1842,-1.0846 4.7815,-2.0379 z m -124.0706,-2.788 c 2.5277,-1.8889 2.5103,-1.99 -0.7452,-4.3334 -1.8333,-1.3196 -3.7833,-2.3393 -4.3333,-2.2659 -0.55,0.073 -2.8354,0.2233 -5.0787,0.3333 -4.7693,0.2339 -4.2036,1.9202 1.8908,5.6364 5.0277,3.0657 5.0082,3.0643 8.2664,0.6296 z m 164.7402,-16.3993 c 22.7221,-11.6311 35.8196,-19.0645 35.8267,-20.3334 0.014,-2.4375 -4.8746,-10.6858 -6.2925,-10.6176 -0.5608,0.027 -16.6196,7.9779 -35.6863,17.6687 -32.2121,16.3721 -34.6422,17.8555 -34.3213,20.9509 0.391,3.7728 2.9661,10.6647 3.9847,10.6647 0.3703,0 16.7902,-8.25 36.4887,-18.3333 z m -171.4677,4.5317 c -0.2539,-0.8425 -0.8052,-3.11 -1.2251,-5.0391 -0.8384,-3.8517 -6.002,-6.1529 -7.7245,-3.4425 -1.1226,1.7665 -1.4477,9.4592 -0.4422,10.4647 1.3032,1.3031 9.8391,-0.4992 9.3918,-1.9831 z m 124.301,-0.1173 c 0.2607,-0.2242 -4.8978,-13.6192 -5.859,-15.214 -0.1546,-0.2564 -2.396,0.2318 -4.9809,1.0849 l -4.6999,1.5511 3.5749,7.289 c 3.3941,6.9205 3.7789,7.2454 7.6105,6.426 2.2196,-0.4746 4.1791,-0.9863 4.3544,-1.137 z m 39.0245,-20.7527 c 36.761,-18.391 37.4429,-18.9256 32.276,-25.3064 l -2.3807,-2.9401 -7.2859,3.4072 c -4.0073,1.8739 -19.8859,8.753 -35.2859,15.2867 -27.5355,11.6825 -27.9931,11.9416 -27.5794,15.6203 0.4193,3.7282 3.7364,11.2706 4.9568,11.2706 0.3533,0 16.2379,-7.8023 35.2991,-17.3383 z m 237.2804,12.7174 c 1.6987,-1.8081 4.1639,-6.4581 5.4783,-10.3333 2.2305,-6.5759 2.2401,-7.1063 0.144,-7.9521 -3.4532,-1.3935 -4.2459,-1.2512 -4.2459,0.7621 0,1.0206 -2.7,4.8588 -6,8.5292 -5.7109,6.3519 -7.0863,9.4176 -5.1111,11.3927 1.9252,1.9253 6.8014,0.7238 9.7347,-2.3986 z m -14.6236,0.063 c 0,-1.04 0.3496,-2.802 0.7769,-3.9156 0.5838,-1.5211 -0.9492,-2.5372 -6.1645,-4.086 -7.5475,-2.2414 -9.2791,-1.904 -9.2791,1.808 0,3.0915 2.1466,4.8385 8,6.5108 6.4253,1.8357 6.6667,1.8242 6.6667,-0.3172 z m 45.4561,-2.9374 c 13.8288,-2.6557 26.1971,-5.599 27.485,-6.5407 2.7772,-2.0308 4.464,-2.274 -28.8482,4.1607 -12.7823,2.4691 -23.8523,5.1011 -24.6,5.8489 -1.8917,1.8916 -2.0871,1.9177 25.9632,-3.4689 z m -431.1656,-8.8383 c 1.2889,-6.0804 1.1921,-7.2279 -0.7367,-8.7351 -1.9774,-1.5452 -2.4747,-0.9093 -4.5436,5.8105 -2.4837,8.0671 -2.2082,9.9246 1.4719,9.9246 1.727,0 2.7061,-1.7995 3.8084,-7 z m 366.6618,5.3334 c 0.035,-0.9167 0.4754,-2.655 0.9789,-3.863 1.2772,-3.0637 -12.2479,-7.8357 -14.0658,-4.9628 -1.8345,2.8989 -0.7965,4.2933 5.5362,7.4375 7.0112,3.481 7.4679,3.5649 7.5507,1.3883 z m 70.7556,-4.2942 c 13.406,-2.5297 24.8822,-4.9131 25.5027,-5.2966 1.3613,-0.8414 4.5081,-12.8017 3.6056,-13.7041 -0.6794,-0.6795 -42.4793,8.0941 -49.8989,10.4734 -4.2922,1.3765 -5.5819,3.2449 -7.3824,10.695 -0.7041,2.9136 -0.4437,3.4421 1.4714,2.9859 1.2799,-0.3048 13.2956,-2.6239 26.7016,-5.1536 z m -321.9657,-0.7679 c 0.5915,-0.489 -0.2413,-3.5995 -1.8509,-6.9124 l -2.9264,-6.0234 -4.1491,2.1656 c -2.282,1.1911 -4.3332,2.2497 -4.5582,2.3524 -0.2249,0.1028 0.8745,2.9174 2.4432,6.2547 2.7286,5.8047 3.0065,6.0025 6.4091,4.5599 1.9562,-0.8293 4.0408,-1.9079 4.6323,-2.3968 z m 280.5353,-3.7829 c 3.5244,-5.2472 3.1508,-12.0753 -1.1277,-20.6105 -1.4122,-2.8171 -2.9341,-7.796 -3.3821,-11.0642 -0.7612,-5.5539 -1.0415,-5.8958 -4.2911,-5.2331 -1.9121,0.39 -18.1766,3.4389 -36.1433,6.7754 -17.9666,3.3365 -33.7772,6.5172 -35.1347,7.0681 -2.4566,0.9971 -1.0306,1.6179 40.4681,17.6162 18.2624,7.0405 29.7664,10.5868 33.2902,10.2625 2.0487,-0.1885 4.4339,-2.0053 6.3206,-4.8144 z m -240.9493,-13.2777 c 18.6281,-7.9508 34.4863,-15.4343 35.2406,-16.63 4.2692,-6.7681 -11.7685,-7.2602 -30.5688,-0.938 -15.3747,5.1703 -40.2177,15.3249 -42.8631,17.5204 -2.5171,2.089 -2.2547,4.7922 0.9719,10.0129 1.5264,2.4699 2.9047,4.4907 3.0628,4.4907 0.1581,0 15.5286,-6.5052 34.1566,-14.456 z m 195.1958,12.347 c 0.4451,-1.16 0.8093,-2.3175 0.8093,-2.5721 0,-0.4617 -13.6961,-4.6522 -15.2052,-4.6522 -0.4371,0 -0.7948,0.825 -0.7948,1.8335 0,1.0084 2.85,3.0599 6.3334,4.5587 7.8832,3.3922 7.8752,3.3914 8.8573,0.8321 z m -23.2852,-11.6425 c -7.7044,-3.4524 -9.5578,-2.0355 -2.5026,1.9131 3.8999,2.1827 6.2675,2.8374 6.9147,1.9121 0.5897,-0.843 -1.1789,-2.3764 -4.4121,-3.8252 z m 80.9968,2.7515 c -0.3961,-1.65 -1.1254,-5.2367 -1.6207,-7.9705 -0.804,-4.4376 -1.1819,-4.8199 -3.5246,-3.5661 -2.2287,1.1927 -2.4839,2.2431 -1.6939,6.9705 0.9348,5.5937 2.393,7.5079 5.7481,7.5457 1.2056,0.014 1.5704,-0.9828 1.0911,-2.9796 z m 32.945,-3.7648 c 22.7155,-4.7123 25.3656,-6.2007 25.0694,-14.0792 -0.3422,-9.1013 -0.7416,-9.1396 -30.0931,-2.8862 l -26.3942,5.6234 0.9074,7.2624 c 1.3092,10.4789 1.5195,10.7951 6.2735,9.4317 2.2463,-0.6443 13.1529,-3.0527 24.237,-5.3521 z m -436.2636,-1.8348 c 1.6274,-5.847 1.6864,-7.3952 0.3021,-7.9264 -1.9555,-0.7504 -6.6263,11.5824 -5.2376,13.8294 1.6875,2.7305 2.9541,1.2156 4.9355,-5.903 z m 102.6601,3.6497 c 2.0834,-1.8273 1.9559,-2.4357 -1.7846,-8.5147 l -4.0283,-6.5469 -4.2154,2.3391 c -2.3185,1.2865 -4.4236,2.4472 -4.678,2.5794 -0.2544,0.1322 1.2437,3.2756 3.3291,6.9854 4.0016,7.1187 6.1735,7.7215 11.3772,3.1577 z m 122.537,-38.8178 c -0.7995,-18.8278 -1.4523,-35.66017 -1.4505,-37.40533 0,-2.54376 -1.319,-1.35952 -6.6636,5.97145 -3.6667,5.02946 -6.6667,10.54158 -6.6667,12.24928 0,10.3796 -8.0715,24.7244 -16.8145,29.8829 -4.1561,2.4521 -4.5597,3.1812 -3.7647,6.8006 1.572,7.1574 6.2798,10.6005 21.5903,15.7903 11.6466,3.9479 14.4064,4.4895 14.7728,2.899 0.2478,-1.0757 -0.2036,-17.3604 -1.0031,-36.1882 z m 87.2192,23.0781 c 41.0667,-7.7341 76.2673,-14.6952 78.2235,-15.4691 3.2334,-1.2792 3.4339,-1.7596 2.2052,-5.2841 -1.0587,-3.0371 -1.9737,-3.7341 -4.2234,-3.2174 -19.1599,4.4009 -138.8586,28.4138 -139.5392,27.9931 -0.5039,-0.3114 -1.2994,-8.1291 -1.7679,-17.3727 -0.4685,-9.2436 -1.1977,-17.3661 -1.6203,-18.05 -0.4227,-0.684 -3.1832,-1.2435 -6.1343,-1.2435 -7.1539,0 -6.2337,-3.2864 0.9681,-3.4573 9.2709,-0.2201 9.4331,0.08 10.505,19.4618 0.85,15.3693 1.2252,17.3476 3.1737,16.7332 2.0713,-0.6531 82.3401,-17.3438 123.3853,-25.6561 l 18.5089,-3.7483 -0.9286,-27.33334 c -0.5107,-15.03334 -1.4774,-36.03334 -2.1481,-46.66667 -0.6708,-10.63333 -1.232,-25.25247 -1.2471,-32.48696 l -0.027,-13.15364 -7.6667,0.85928 c -17.2414,1.93242 -17.7716,2.09392 -16.244,4.94821 1.1927,2.22867 0.1335,3.90933 -7.3478,11.65867 -4.8079,4.98003 -8.7415,9.72227 -8.7415,10.53831 0,5.57054 -13.5321,21.63613 -18.2242,21.63613 -3.6103,0 -11.7928,-6.87606 -14.5674,-12.24152 -1.1477,-2.21941 -2.6156,-3.4582 -3.4712,-2.9294 -0.9063,0.56012 -1.1071,0.30874 -0.5166,-0.64672 0.5457,-0.88296 -0.9269,-4.01819 -3.3845,-7.20601 -2.3928,-3.10366 -4.4381,-5.79637 -4.5452,-5.9838 -0.1071,-0.18744 -4.3414,-1.48145 -9.4095,-2.8756 -5.0681,-1.39414 -13.2765,-3.71347 -18.2408,-5.15406 l -9.0261,-2.61925 -3.3717,4.00702 -3.3716,4.00702 2.731,2.9071 c 1.5021,1.5989 2.6865,3.76842 2.6319,4.82115 -0.1627,3.14123 -11.0342,17.80968 -14.2524,19.23024 -1.6399,0.7239 -2.9873,1.6239 -2.9942,2 -0.01,0.37611 -5.4382,7.88383 -12.0696,16.68383 l -12.0571,16 0.7613,29.33331 c 0.4187,16.1334 1.1295,35.2136 1.5794,42.4005 l 0.8182,13.0672 3.4901,-0.7143 c 1.9196,-0.3929 37.0902,-7.0422 78.1568,-14.7763 z m -19.4452,-28.2045 c -0.751,-7.4256 -0.2933,-12.9544 1.1119,-13.4303 1.0396,-0.3521 1.6667,0.6904 1.6667,2.7709 0,1.8345 0.3628,4.281 0.8064,5.4368 1.3651,3.5576 3.1936,0.9075 3.1936,-4.6287 0,-2.89 0.6,-5.2546 1.3333,-5.2546 0.7333,0 1.3333,2.4 1.3333,5.3333 0,3.8519 0.5556,5.3334 2,5.3334 1.4445,0 2,-1.4815 2,-5.3334 0,-3.8518 0.5556,-5.3333 2,-5.3333 1.5051,0 2,1.6131 2,6.5183 0,6.4903 -0.021,6.5219 -5,7.3789 -2.75,0.4734 -6.65,1.1878 -8.6666,1.5877 -2.0167,0.3998 -3.717,0.2293 -3.7786,-0.379 z m 22.4362,-3.8927 c -0.545,-0.5451 -0.991,-3.8542 -0.991,-7.3537 v -6.3628 l 6.0616,-0.909 c 3.3339,-0.4999 6.2794,-0.6867 6.5457,-0.415 1.4144,1.4434 1.1533,12.3515 -0.3073,12.8384 -0.8983,0.2995 -1.6333,-0.1055 -1.6333,-0.9 0,-2.5141 -4.9311,-1.5603 -6.8464,1.3243 -1.0111,1.5228 -2.2843,2.3228 -2.8293,1.7778 z m 9.009,-10.1323 c 0.8646,-0.834 -0.037,-1.1328 -2.5638,-0.8502 -2.1434,0.2398 -4.1644,1.2489 -4.4911,2.2425 -0.441,1.3415 0.219,1.5604 2.5639,0.8502 1.7367,-0.5261 3.7577,-1.5352 4.491,-2.2425 z m 7.597,0.024 c 0.5029,-8.60325 3.7364,-10.71773 3.7364,-2.4433 0,5.433 0.082,5.5324 3.873,4.6997 2.2247,-0.4886 4.245,-0.2489 4.7469,0.5632 1.016,1.6439 -4.6182,4.0756 -9.4431,4.0756 -3.1571,0 -3.2969,-0.3307 -2.9132,-6.8952 z m 40.1474,5.549 c -11.1826,-4.5044 -9.1268,-25.60771 2.785,-28.58752 9.7944,-2.45014 18.0146,6.82185 16.0992,18.15902 -1.6666,9.8645 -9.519,14.2009 -18.8842,10.4285 z m 11.056,-3.6742 c 2.4411,-1.63 4.533,-6.5734 4.533,-10.71216 0,-9.78798 -11.9263,-15.02265 -16.9072,-7.42088 -3.3892,5.17255 -2.977,13.60964 0.8149,16.68014 3.0994,2.5097 8.8871,3.2372 11.5593,1.4529 z m -11.6013,-6.5658 c -0.5991,-10.76814 -0.789,-10.24722 4.1013,-11.24987 2.5486,-0.52252 5.0986,-0.66276 5.6667,-0.31164 1.7896,1.10606 1.1244,2.92825 -1.3004,3.56191 -2.2222,0.58073 -2.2222,0.61713 0,0.76443 3.8427,0.25472 2.6408,2.65633 -2,3.9963 l -4.3333,1.2512 4.4444,0.12026 c 6.0921,0.16483 4.826,3.32881 -1.5475,3.86741 -3.9521,0.334 -4.9228,-0.052 -5.0312,-2 z m -24.9726,1.5659 c 0.517,-8.6368 2.9296,-10.39442 3.5051,-2.5535 0.3804,5.1829 0.5747,5.4003 4.3334,4.8487 5.2258,-0.767 5.0414,1.7452 -0.2639,3.5946 -7.5305,2.6252 -8.0598,2.2136 -7.5746,-5.8898 z m 11.2928,-1.5715 c -1.5935,-1.5936 -0.8609,-4.40821 1.1474,-4.40821 1.1,0 2,0.86459 2,1.92131 0,2.2275 -1.903,3.7312 -3.1474,2.4869 z m -234.1859,51.5304 c 15.1042,-6.6307 42.0948,-15.8914 46.3961,-15.919 2.9934,-0.019 2.9657,-0.1406 -1.2231,-5.353 -2.5833,-3.2145 -5.4154,-5.3333 -7.1289,-5.3333 -1.5636,0 -12.1131,2.95 -23.4435,6.5556 -40.5,12.888 -39.6654,12.3653 -34.0197,21.3086 1.975,3.1287 4.3023,5.3765 5.1717,4.9951 0.8694,-0.3814 7.2807,-3.1957 14.2474,-6.254 z m 182.6666,4.0614 c -2.5666,-1.4052 -5.2666,-2.5549 -6,-2.5549 -0.7333,0 0.7667,1.1497 3.3334,2.5549 2.5666,1.4052 5.2666,2.5549 6,2.5549 0.7333,0 -0.7667,-1.1497 -3.3334,-2.5549 z m 91.0738,-6.0849 c 1.6639,-0.6385 1.5354,-1.7916 -0.854,-7.6666 -3.557,-8.7459 -3.278,-8.4335 -5.509,-6.1691 -1.5121,1.5346 -1.618,3.1934 -0.527,8.2539 1.3334,6.1841 2.6149,7.2223 6.89,5.5818 z m -306.2311,-3.3572 c 2.4699,-1.5265 4.4907,-3.0665 4.4907,-3.4223 0,-0.3558 -1.6258,-2.8568 -3.6128,-5.5579 -1.987,-2.7011 -3.7127,-5.0868 -3.8349,-5.3015 -0.1222,-0.2148 -2.3782,0.6376 -5.0133,1.8942 l -4.7911,2.2847 3.5046,6.4391 c 1.9275,3.5415 3.7884,6.4391 4.1353,6.4391 0.3469,0 2.6516,-1.2489 5.1215,-2.7754 z m -86.9325,-1.2246 c 0.4161,-1.4666 1.0969,-3.8666 1.513,-5.3333 0.5716,-2.0149 0.1198,-2.6667 -1.8486,-2.6667 -1.9151,0 -2.7799,1.1479 -3.2645,4.3334 -0.3625,2.3833 -0.3952,4.7833 -0.073,5.3333 1.0849,1.8495 2.9102,1.0211 3.6727,-1.6667 z m 425.4232,-4.5976 c 12.4666,-2.6127 23.9843,-5.0504 25.5947,-5.4171 2.6301,-0.5988 2.7857,-1.0751 1.529,-4.6801 -2.77,-7.9461 -3.694,-8.0073 -32.7326,-2.171 -14.5151,2.9174 -26.5562,5.4207 -26.758,5.563 -0.2017,0.1423 0.8448,3.0852 2.3256,6.5398 2.0517,4.7864 3.2494,6.1186 5.0335,5.5984 1.2876,-0.3755 12.5411,-2.8203 25.0078,-5.433 z m -304.1407,-8.6758 c 13.2774,-4.3671 26.6907,-8.5902 29.8073,-9.3848 3.1167,-0.7945 5.6667,-1.7298 5.6667,-2.0785 0,-1.6475 -6.1658,-9.8989 -7.4078,-9.9134 -0.7742,-0.01 -4.9742,1.1462 -9.3333,2.5672 -4.3591,1.4211 -17.8256,5.6895 -29.9256,9.4854 -12.1,3.7959 -22.2106,7.0938 -22.4679,7.3287 -0.8168,0.7453 6.7239,9.9355 8.1521,9.9355 0.7523,0 12.2311,-3.5731 25.5085,-7.9401 z m 63.1938,1.3955 c 9.7151,-4.9972 15.8883,-14.2694 17.2171,-25.8604 0.7293,-6.3609 2.5253,-9.2906 21.9275,-35.76916 11.6232,-15.86245 23.0837,-30.34278 25.4677,-32.17852 2.384,-1.83574 5.4185,-5.20737 6.7433,-7.49252 l 2.4087,-4.15481 h -4.7592 c -4.6817,0 -5.2065,0.60198 -32.2563,37 -15.1234,20.35 -28.0894,37.75031 -28.8133,38.66721 -0.9765,1.2371 -0.2417,1.8822 2.8476,2.5 2.2901,0.4581 4.1638,1.3766 4.1638,2.0413 0,2.0339 -3.3555,2.6372 -6.9876,1.2563 -3.2665,-1.2419 -3.9136,-0.6798 -12.3333,10.7145 -5.0407,6.8214 -8.5708,12.8464 -8.1577,13.9229 1.0189,2.6553 6.6801,2.3631 12.5317,-0.6468 z m -5.4019,-4.4554 c -1.0208,-2.6829 1.1817,-7.0795 5.0842,-10.1492 3.9573,-3.1129 5.6181,-3.4303 8.4773,-1.6202 1.5608,0.988 1.5945,1.8778 0.1985,5.2479 -2.7021,6.5235 -12.0701,10.9633 -13.76,6.5215 z m 9.568,-6.4064 2.1141,-3.2603 -3.2603,2.1141 c -1.7931,1.1628 -3.5181,2.8878 -3.8333,3.8334 -0.9345,2.8036 2.6859,0.8498 4.9795,-2.6872 z m -183.9002,6.783 c 1.414,-4.2843 1.4235,-5.6786 0.05,-7.3334 -2.633,-3.1725 -3.4808,-2.5055 -4.9444,3.8903 -0.9382,4.1001 -0.9253,6.3661 0.042,7.3333 2.2749,2.2749 3.0128,1.6833 4.8522,-3.8902 z m 73.9516,1.076 c 1.8678,-0.851 3.3935,-1.901 3.3903,-2.3333 0,-0.4323 -1.6814,-3.3116 -3.7295,-6.3985 l -3.7239,-5.6126 -4.7848,2.9459 -4.7848,2.9459 3.2004,5 c 3.4205,5.3437 5.078,5.8922 10.4323,3.4526 z m 108.5041,-26.1193 c 10.2611,-13.74998 27.396,-36.69998 38.0776,-50.99998 10.6816,-14.3 19.4157,-26.3 19.4091,-26.66666 -0.01,-0.36667 -5.5431,-6.56665 -12.3033,-13.77774 l -12.2915,-13.11106 -6.6666,9.4676 c -3.6667,5.20718 -8.9059,12.60716 -11.6427,16.4444 -2.7368,3.83724 -14.5526,20.4768 -26.2573,36.9768 -11.7047,16.5 -22.5075,31.5 -24.0061,33.33333 -1.4987,1.83333 -2.7329,3.75131 -2.7427,4.26201 -0.021,1.0692 18.554,29.0713 19.2838,29.0713 0.2657,0 8.8786,-11.25 19.1397,-25 z m 234.1256,19.9456 c 15.7535,-3.2598 24.1069,-5.5769 24.5063,-6.7978 0.3641,-1.1129 0.011,-1.4844 -0.885,-0.9308 -0.9325,0.5763 -1.2084,0.1849 -0.7366,-1.0446 1.0226,-2.6648 -4.3336,-7.8276 -7.1866,-6.9271 -1.2458,0.3932 -10.2144,2.7733 -19.9301,5.289 -18.456,4.7789 -25.6683,7.3674 -25.6683,9.2122 0,2.2597 2.8205,6.2515 4.3802,6.1991 0.8909,-0.03 12.3749,-2.2799 25.5201,-5 z m -303.2337,-8.074 c 24.9023,-7.8938 28.6218,-9.4231 28.3246,-11.646 -0.1882,-1.4074 -0.4659,-3.6089 -0.6171,-4.8922 -0.1512,-1.28338 -0.8232,-2.33338 -1.4933,-2.33338 -1.3194,0 -65.2666,16.25808 -65.9807,16.77498 -1.188,0.8601 7.0834,11.2222 8.9437,11.2044 1.1859,-0.011 15.0562,-4.1099 30.8228,-9.1078 z m -105.9652,-4.6139 c 2.1621,-5.8092 2.1905,-6.6039 0.3032,-8.4911 -2.8961,-2.8961 -4.4409,-1.4853 -7.0828,6.4687 -2.185,6.5785 -2.1782,6.9464 0.1598,8.6559 2.9614,2.1655 3.573,1.5526 6.6198,-6.6335 z m 56.7491,3.3558 4.681,-2.3865 -4.7743,-6.0274 c -4.7115,-5.948 -4.8309,-6.0043 -9.0658,-4.2763 -2.3603,0.9631 -4.2914,1.9738 -4.2914,2.2459 0,1.3344 7.0176,12.8308 7.832,12.8308 0.5156,0 3.0439,-1.0739 5.6185,-2.3865 z m 369.17,-12.2801 c -0.021,-1.1 -0.8774,-3.107 -1.9025,-4.45992 -2.256,-2.97762 -3.8302,-2.70056 -24.8093,4.36672 -14.5494,4.9012 -15.2604,5.3136 -15.6446,9.0763 l -0.4026,3.9417 21.3988,-5.4624 c 15.7847,-4.0293 21.3887,-5.9872 21.3602,-7.4624 z m -322.7503,-2.0994 c 18.7527,-4.82129 34.8464,-9.38878 35.7635,-10.14997 1.3081,-1.08558 1.0765,-2.21404 -1.0739,-5.23399 -1.5078,-2.11751 -3.7348,-3.85002 -4.9489,-3.85002 -2.1361,0 -66.45,13.64378 -74.021,15.70309 l -3.7435,1.0182 4.0852,5.63939 c 2.6278,3.6275 5.1121,5.6393 6.9638,5.6393 1.5833,0 18.222,-3.9447 36.9748,-8.766 z m 298.1298,-2.59834 c 8.8,-2.75106 16.4062,-5.63403 16.9026,-6.4066 1.0518,-1.63676 -1.7957,-7.6505 -4.805,-10.14801 -1.7358,-1.44061 -4.5062,-0.87546 -16.8162,3.43044 -12.9879,4.54305 -14.6536,5.47185 -14.0279,7.82187 0.3905,1.46666 0.7183,4.65207 0.7283,7.07874 0.01,2.4266 0.4682,4.145 1.0182,3.8187 0.55,-0.3263 8.2,-2.8441 17,-5.59514 z m -394,-2.26678 c 0,-1.37179 -5.6128,-3.61712 -7,-2.80028 -1.8021,1.06108 -1.0483,4.76787 1.3333,6.5563 1.9651,1.4756 2.5963,1.406 4,-0.4412 0.9167,-1.20636 1.6667,-2.69801 1.6667,-3.31482 z m 42.3423,1.34705 c 1.2641,-1.04916 1.312,-1.85919 0.1897,-3.21146 -0.8255,-0.99463 -2.026,-1.48386 -2.6678,-1.08718 -0.6419,0.39668 -0.8908,-0.0599 -0.5532,-1.01468 0.3377,-0.95476 -0.1736,-2.76988 -1.1362,-4.03361 -1.5007,-1.97037 -2.3501,-2.07118 -5.9624,-0.70768 -4.9842,1.88132 -5.0975,2.59183 -1.3743,8.61616 2.4148,3.90712 3.3585,4.46162 6.3259,3.71682 1.9182,-0.4814 4.2485,-1.5067 5.1783,-2.27837 z m 28.3243,-8.29671 c 42.8548,-8.92511 48.8891,-10.28804 51.6023,-11.65507 2.7911,-1.40631 2.8343,-1.67488 0.8782,-5.45754 -2.0128,-3.89227 -2.2202,-3.95931 -9.5742,-3.09499 -4.1342,0.4859 -13.5294,2.04732 -20.8782,3.46982 -7.3488,1.4225 -22.0489,4.13864 -32.667,6.03587 -10.6181,1.89724 -19.5924,3.73624 -19.9428,4.08668 -1.1572,1.15717 3.6162,7.83258 6.7758,9.47582 1.706,0.88721 4.3102,1.32504 5.7872,0.97295 1.477,-0.35209 9.5854,-2.07718 18.0187,-3.83354 z m -65.9543,-3.52047 c 2.0979,-4.65226 2.175,-5.60902 0.5358,-6.64625 -3.4034,-2.15357 -4.7972,-1.35439 -7.2938,4.18213 -2.0979,4.65226 -2.175,5.60902 -0.5358,6.64625 3.4034,2.15357 4.7972,1.35439 7.2938,-4.18213 z m 385.3954,-4.66882 c 5.8074,-1.97144 11,-3.97572 11.539,-4.45395 1.3578,-1.20453 -4.56,-9.39125 -6.809,-9.41958 -1.0058,-0.0127 -5.9558,1.5889 -11,3.55906 l -9.1711,3.58211 v 6.46481 c 0,5.85244 0.2313,6.34106 2.4411,5.1584 1.3425,-0.71852 7.1925,-2.9194 13,-4.89085 z m 413.2963,1.91767 c 9.9901,-3.67134 25.7915,-14.45482 33.1509,-22.62342 6.8492,-7.60227 9.6223,-11.62578 16.8724,-24.48042 l 4.4874,-7.95626 -4.624,3.51912 c -6.007,4.57163 -11.3338,5.90123 -14.1914,3.54229 -5.2618,-4.34359 -6.8222,-11.70659 -7.7314,-36.48222 -0.7916,-21.57118 -3.6476,-69.87794 -7.5281,-127.33333 -1.4726,-21.8023 -0.9183,-35.6698 2.2083,-55.24869 2.5858,-16.19246 5.0008,-22.81997 11.3813,-31.23335 4.8353,-6.37592 5.3281,-7.70082 4.5585,-12.25627 l -0.863,-5.10757 -6.3374,4.55297 c -8.5351,6.13191 -39.3103,20.79425 -54.1209,25.78503 -26.4315,8.90674 -51.7185,15.52519 -75.3333,19.7172 -13.6714,2.42689 -50.7533,3.28597 -58.3333,1.3514 -3.9615,-1.01102 -4.3357,-0.83938 -4.3612,2 -0.015,1.70827 -2.9477,17.71733 -6.5166,35.5757 -6.2406,31.22811 -6.4208,32.76117 -4.7109,40.09061 2.328,9.97923 6.0103,19.90995 14.6244,39.43963 3.8814,8.8 8.9155,20.5 11.1869,26 4.2638,10.32459 24.0597,42.29325 38.1107,61.54558 10.972,15.0335 35.3149,39.39145 46.9652,46.99413 12.011,7.83804 23.6255,12.64261 35.7015,14.76859 10.5191,1.8519 15.6797,1.41297 25.404,-2.16072 z M 1947.1411,797.11911 c -6.5204,-2.95156 -13.3333,-8.75372 -13.3333,-11.35522 0,-2.12728 20.5538,-3.90305 29.0801,-2.5124 8.2929,1.35259 21.514,1.38403 25.2532,0.0601 2.4593,-0.87077 3,-0.58595 3,1.58013 0,4.14717 -5.1868,9.70059 -11.6461,12.46939 -8.2849,3.55131 -24.2376,3.43201 -32.3539,-0.24195 z m 26.2921,-1.90442 c 3.7269,-1.10676 8.1569,-3.13032 9.8444,-4.49679 l 3.0682,-2.4845 -6.8342,0.65669 c -3.9704,0.38151 -9.2514,-0.10872 -12.6024,-1.16987 -3.8626,-1.22315 -9.452,-1.60633 -16.9193,-1.1599 -10.4459,0.6245 -10.9941,0.80341 -8.6667,2.82867 3.7816,3.29065 8.0381,5.21886 14.2133,6.4387 8.3893,1.65721 10.495,1.58509 17.8967,-0.613 z m -6.3947,-17.88514 c -5.0937,-5.09371 -5.3538,-12.10074 -0.6247,-16.82983 4.6112,-4.6112 9.3946,-4.20544 14.8606,1.2606 3.3911,3.39111 4.5334,5.68419 4.5334,9.10092 0,9.94672 -11.3719,13.86572 -18.7693,6.46831 z m 13.1693,-1.70256 c 4.0503,-4.0503 -1.0646,-14.4 -7.1166,-14.4 -5.5819,0 -8.0208,8.8353 -3.7434,13.56168 2.5059,2.76899 8.469,3.22931 10.86,0.83832 z m -45.0667,-2.4 c 0,-2.0082 0.6962,-2.72812 2.3333,-2.41284 1.2834,0.24715 2.3334,1.33293 2.3334,2.41284 0,1.07991 -1.05,2.16569 -2.3334,2.41284 -1.6371,0.31528 -2.3333,-0.40464 -2.3333,-2.41284 z m 9.5872,0.33333 c 0.2471,-1.28333 1.3329,-2.33333 2.4128,-2.33333 1.0799,0 2.1657,1.05 2.4128,2.33333 0.3153,1.63714 -0.4046,2.33334 -2.4128,2.33334 -2.0082,0 -2.7281,-0.6962 -2.4128,-2.33334 z m 9.72,0.95765 c -0.5178,-0.83783 -0.3141,-2.15072 0.4527,-2.91753 1.7919,-1.79187 5.9695,-0.22892 5.2405,1.96058 -0.7421,2.22892 -4.5152,2.86311 -5.6932,0.95695 z m -21.4453,-12.17909 c -2.1193,-3.43683 9.6926,-16.70078 18.7978,-21.10853 6.0539,-2.93065 17.1452,-5.33669 24.6008,-5.33669 7.7034,0 9.4577,2.16109 11.1199,13.69888 1.5898,11.0356 0.7384,13.90015 -2.8049,9.43725 -5.197,-6.54572 -15.5895,-7.91006 -20.7725,-2.72704 -1.6916,1.69166 -3.3144,3.73437 -3.606,4.53935 -0.5782,1.59574 -26.4021,3.00978 -27.3351,1.49678 z m 25.6387,-5.84671 c 4.4751,-6.82988 14.6433,-9.26012 22.2166,-5.30984 l 3.7171,1.93892 -0.891,-4.94713 c -1.4249,-7.91118 -2.6429,-8.67935 -12.6299,-7.96478 -10.859,0.77695 -21.3475,5.39828 -28.3731,12.50138 l -5.1263,5.18294 5.793,0.79974 c 11.4735,1.58395 12.953,1.371 15.2936,-2.20123 z m -633.531,228.25529 c 2.4018,-1.75624 2.3884,-1.95981 -0.428,-6.51678 -4.6112,-7.46106 -6.5529,-8.59447 -9.5264,-5.56062 -2.4543,2.50408 -2.4362,2.67407 0.8748,8.2236 3.6142,6.05795 5.165,6.71618 9.0796,3.8538 z m 120.3481,-21.01619 14.7001,-20.82906 0.5236,-22.83761 c 0.2881,-12.56069 0.319,-22.83761 0.069,-22.83761 -3.5138,0 -100.5238,-15.99525 -101.8023,-16.78542 -2.3049,-1.42448 0.3456,-3.11854 3.9105,-2.49943 1.9882,0.34529 13.2149,2.12988 24.9483,3.96575 60.5874,9.4799 74.7729,11.88392 75.9086,12.86425 0.695,0.59993 1.0902,10.03342 0.8975,21.42147 -0.1894,11.19219 -0.055,20.05333 0.298,19.69141 0.3533,-0.36192 3.9994,-5.34449 8.1024,-11.07238 l 7.4601,-10.41435 v -18.50395 -18.50396 l -5.6666,-0.77747 c -3.1167,-0.42761 -26.6667,-3.72092 -52.3334,-7.31847 -67.2782,-9.42999 -62.6061,-9.08351 -65.3809,-4.84858 -1.2732,1.94319 -2.788,7.86388 -3.3663,13.1571 -0.5782,5.29322 -1.6533,11.72403 -2.3892,14.2907 -1.5366,5.3593 -2.9426,40.18571 -1.9278,47.75133 l 0.6795,5.06631 9.4823,-1.1325 c 5.2152,-0.62287 9.9195,-1.83999 10.4539,-2.70471 1.0651,-1.72347 10.5834,-1.66853 24.7585,0.14291 4.0904,0.52272 19.0234,17.857 19.0234,22.08248 0,1.17013 0.5924,2.12751 1.3166,2.12751 1.6902,0 8.0167,9.9752 8.0167,12.64017 0,1.11457 0.6129,2.0265 1.3619,2.0265 0.7491,0 2.0528,1.51627 2.8972,3.3695 0.8444,1.85322 1.9455,2.90322 2.4469,2.33333 0.5014,-0.56989 7.5267,-10.40924 15.6117,-21.86522 z m -102.9844,13.6056 c 3.6667,-0.75693 19.2667,-3.55906 34.6667,-6.22697 15.4,-2.6679 29.05,-5.40409 30.3333,-6.0804 3.1525,-1.66135 2.9476,-3.1751 -1.1582,-8.55814 -2.448,-3.20952 -4.5607,-4.5777 -7.0687,-4.5777 -3.863,0 -76.1541,14.26997 -77.1042,15.22005 -0.3161,0.3161 1.4291,3.27751 3.8782,6.58091 3.1924,4.30594 5.2078,5.86639 7.1196,5.51233 1.4667,-0.27162 5.6667,-1.11316 9.3333,-1.87008 z m -37.8829,-1.81895 c 2.5275,-1.93918 1.9186,-4.48791 -1.5106,-6.32316 -3.3059,-1.76928 -6.3803,3.09164 -3.8691,6.11746 1.9071,2.29788 2.6174,2.32503 5.3797,0.2057 z m 8.4096,-11.34989 c -1.5437,-1.25091 -3.1749,-3.32437 -3.6248,-4.60771 -1.1478,-3.27339 -3.3664,-2.9024 -5.0755,0.84871 -1.2401,2.72171 -0.9096,3.7884 2.2847,7.37347 l 3.7346,4.19143 2.7438,-2.76577 2.7439,-2.76576 z m 365.0874,3.39908 c 4.2456,-1.64626 7.7193,-3.66535 7.7193,-4.48685 0,-0.82151 -1.2118,-3.03414 -2.6928,-4.91696 -2.6622,-3.3844 -2.7607,-3.40018 -8.6651,-1.38834 -3.2848,1.11924 -6.3022,2.56861 -6.7052,3.22082 -0.8842,1.43062 0.6941,10.56454 1.8255,10.56454 0.4395,0 4.2727,-1.34694 8.5183,-2.99321 z m -318.2716,-12.30618 c 20.3688,-4.01467 37.3008,-7.56606 37.6267,-7.89198 1.3039,-1.3039 -5.2235,-3.53455 -9.945,-3.39856 -2.7633,0.0796 -6.6952,-0.27908 -8.7375,-0.79705 -2.5312,-0.64194 -4.4414,-0.29866 -6,1.07827 -1.2577,1.111 -6.7867,2.68293 -12.2867,3.49315 -5.5,0.81023 -13,2.0901 -16.6666,2.84415 -3.6667,0.75405 -9.4122,1.3312 -12.7677,1.28256 -3.3556,-0.0486 -7.7056,0.5216 -9.6667,1.2672 -2.3038,0.8759 -4.7453,0.90715 -6.899,0.0883 -3.7566,-1.42826 -4.2462,-0.22582 -1.8004,4.42099 1.9297,3.66596 3.7176,4.86608 7.2879,4.89193 1.5515,0.0112 19.4862,-3.26432 39.855,-7.27898 z m 316.423,-4.66379 c 0.6447,-1.93403 -4.9223,-8.03682 -7.3312,-8.03682 -1.2299,0 -1.7676,2.00832 -1.7676,6.6023 v 6.60231 l 4.2893,-1.80352 c 2.3591,-0.99193 4.5234,-2.50585 4.8095,-3.36427 z m -77.2491,-9.70348 c -5.415,-10.29774 -15.0277,-23.68866 -16.1788,-22.53761 -1.3517,1.35171 3.2968,9.07467 11.9604,19.87094 5.014,6.24838 6.6433,7.27835 4.2184,2.66667 z m 13.8653,-4.51908 c 2.7234,-4.1355 4.9517,-8.49502 4.9517,-9.68783 0,-2.54825 -10.1435,-20.29947 -12.431,-21.75436 -0.863,-0.54884 -1.1105,-1.00709 -0.5501,-1.01832 0.5604,-0.0112 -0.5854,-2.44465 -2.5462,-5.4076 -1.9607,-2.96295 -3.9826,-4.91295 -4.4929,-4.33333 -0.5104,0.57962 -3.2036,5.33489 -5.985,10.56727 l -5.0571,9.51343 7.7897,12.48657 c 8.1766,13.10676 11.1319,17.15325 12.5275,17.15325 0.4629,0 3.0699,-3.38359 5.7934,-7.51908 z m 531.2431,-7.02903 c 10.4639,-7.58001 16.9469,-20.64058 23.5542,-47.45189 7.4706,-30.31492 10.115,-47.31708 12.2427,-78.71671 l 0.8166,-12.05005 -8.9724,-21.28329 c -17.4578,-41.41128 -32.5992,-80.65575 -32.5992,-84.4929 0,-2.16605 -1.9784,-1.76579 -4.3313,0.87628 -6.6584,7.47701 -10.4155,20.84534 -13.087,46.56686 -1.5437,14.86223 -1.1183,27.69591 2.821,85.09981 0.7045,10.26666 2.1099,37.86666 3.1231,61.33333 1.7401,40.30287 2.655,47.79975 6.3813,52.28964 2.1174,2.55134 4.1328,2.11599 10.051,-2.17108 z M 1533.38,922.82429 c -1.5242,-1.68424 -3.5341,-2.24396 -6.7215,-1.87184 -2.5009,0.29196 -5.9654,-0.20825 -7.6989,-1.1116 l -3.1518,-1.64244 3.2324,3.51429 c 2.6617,2.89378 4.405,3.51429 9.8733,3.51429 6.3133,0 6.5336,-0.11855 4.4665,-2.4027 z m 96.7162,-10.06985 4.8531,-5.80589 -5.2911,-10.87349 c -4.1764,-8.58259 -10.1753,-18.86097 -14.0013,-23.98948 -0.1948,-0.26112 -3.6162,2.0729 -7.6031,5.18669 l -7.2488,5.66145 9.6327,14.8133 c 5.298,8.14732 10.3448,16.1633 11.215,17.8133 0.8702,1.65 2.0341,3 2.5863,3 0.5522,0 3.188,-2.61265 5.8572,-5.80588 z m -111.5754,0.33443 c -2.5922,-2.27597 -4.713,-4.97597 -4.713,-6 0,-1.02404 -0.9,-1.86188 -2,-1.86188 -1.1,0 -2,0.53018 -2,1.17818 0,1.57152 10.3003,10.82182 12.0502,10.82182 0.7567,0 -0.745,-1.86216 -3.3372,-4.13812 z m 56.2094,-0.89318 c 0.2263,-3.26748 -0.6181,-4.1042 -7.3333,-7.26687 -29.2817,-13.7907 -37.9557,-16.83067 -40.945,-14.34981 -2.1411,1.77695 -1.305,4.80626 2.4891,9.01906 2.5005,2.77637 11.0269,5.85977 38.8668,14.05539 3.6666,1.0794 6.6666,2.02383 6.6666,2.09873 0,0.0749 0.1151,-1.52553 0.2558,-3.5565 z m -40.9703,-0.55779 2.7226,-2.92243 -5.9814,-3.28934 c -3.2897,-1.80913 -6.3483,-4.44534 -6.7967,-5.85825 -0.7845,-2.4716 -0.9369,-2.45478 -4.0227,0.44418 -4.2787,4.01963 -4.0613,5.52213 1.5058,10.41014 5.5657,4.88673 8.8559,5.20488 12.5724,1.2157 z m 48.0479,1.58909 c 0,-0.73333 -0.9,-1.33333 -2,-1.33333 -1.1,0 -2,0.6 -2,1.33333 0,0.73333 0.9,1.33333 2,1.33333 1.1,0 2,-0.6 2,-1.33333 z m 8.4906,-13.35304 c 2.7785,-5.14417 4.8141,-10.06613 4.5236,-10.93768 -0.4633,-1.3898 -11.6809,17.29348 -11.6809,19.45486 0,2.89363 2.7825,-0.41753 7.1573,-8.51718 z m -98.0022,-19.31363 c -0.057,-9.53333 -0.4906,-22.73333 -0.9629,-29.33333 -0.8253,-11.53123 -0.9891,-12.01625 -4.1922,-12.41603 -3.2915,-0.41082 -59.2155,-9.35649 -97.9446,-15.66735 -23.7349,-3.86757 -32.0897,-4.15428 -33.2461,-1.1409 -0.4451,1.15997 -0.8093,9.24854 -0.8093,17.97459 0,18.17869 -1.7748,16.12652 16,18.50049 26.7447,3.57198 107.6918,14.94458 110.3333,15.50119 2.9199,0.61526 3,1.0832 3,17.51093 v 16.87878 l 3.9629,-5.23751 c 3.9392,-5.20617 3.9623,-5.3413 3.8589,-22.57086 z m 14.687,26.33334 c -0.4591,-2.90751 0.4571,-4.53955 3.1579,-5.62512 2.3577,-0.94769 1.4479,-1.22395 -4.2494,-1.29037 l -7.2495,-0.0845 3.8322,4 c 3.9832,4.15755 4.7747,4.6842 4.5088,3 z m 78.0158,-10.59691 5.9487,-10.26357 -10.2366,-4.37717 c -5.6302,-2.40745 -11.3935,-5.06065 -12.8074,-5.89601 -2.1859,-1.29144 -3.0842,-0.89638 -6,2.6387 l -3.4293,4.15753 -8.6666,-2.65443 c -11.6837,-3.5785 -15.1906,-3.44213 -17.9021,0.69618 -2.4079,3.67489 -1.82,5.96234 1.5322,5.96234 2.3573,0 38.135,15.40817 42.3332,18.23138 1.4465,0.97274 2.7761,1.76862 2.9546,1.76862 0.1785,0 3.0015,-4.6186 6.2733,-10.26357 z m -62.2499,-7.76578 c 5.2203,-9.38314 12.5135,-18.81529 16.0587,-20.76846 1.65,-0.90904 3,-2.76333 3,-4.12066 0,-3.28205 5.7613,-12.26206 11.0656,-17.24766 l 4.2677,-4.01134 -6,0.71103 c -3.3,0.39106 -16.8,1.71611 -30,2.94455 -13.2,1.22844 -24.4761,2.65456 -25.0581,3.16916 -0.582,0.5146 -0.6403,11.22948 -0.1295,23.81085 l 0.9286,22.87522 h 8.3841 c 4.6406,0 8.7874,0.65247 9.2873,1.46128 1.2353,1.99877 3.5773,-0.52273 8.1956,-8.82397 z m 132.2809,7.85577 c 1.3468,-1.19539 -16.763,-0.31137 -18.5556,0.90577 -1.3912,0.94463 1.044,1.08851 8,0.47266 5.5,-0.48694 10.25,-1.10724 10.5556,-1.37843 z m -4.344,-4.9906 c 0.4624,-0.36971 2.9088,-57.49321 2.4806,-57.92145 -0.467,-0.467 -68.4323,5.93152 -76.3771,7.19045 -4.1747,0.66151 -3.7952,0.98576 9.3333,7.9733 7.5267,4.00606 16.6993,8.83576 20.3834,10.73266 6.9537,3.58038 16.8617,15.64973 23.2213,28.2871 l 2.901,5.76454 8.923,-0.92873 c 4.9076,-0.5108 9.0181,-1.00484 9.1345,-1.09787 z m -54.2116,-7.35983 c 0,-0.65488 -0.9848,-1.56861 -2.1886,-2.03052 -1.8299,-0.70223 -1.9124,-0.50712 -0.5034,1.19068 1.9202,2.31366 2.692,2.55445 2.692,0.83984 z m 641.3028,-7.64247 c 9.1388,-14.41043 8.5895,-32.40164 -2.641,-86.50018 -3.9768,-19.15653 -10.4542,-40.56925 -20.6936,-68.40799 -9.1841,-24.96946 -31.2844,-66.66218 -40.8784,-77.11802 -2.5578,-2.78755 -1.404,-5.64961 1.5433,-3.82812 3.0093,1.8599 19.1343,27.97956 27.3151,44.24568 18.7858,37.35286 31.126,76.18421 42.5122,133.77511 0.3625,1.83334 0.3474,-2.66666 -0.034,-10 -1.2178,-23.44003 -9.7136,-66.13061 -18.0437,-90.66666 -11.735,-34.56552 -19.4688,-51.79864 -31.232,-69.59365 -8.2046,-12.4116 -15.5825,-19.33218 -24.0623,-22.57063 -7.8073,-2.98162 -13.9649,-1.11901 -22.921,6.93336 -9.7431,8.75989 -11.9239,16.20989 -9.7601,33.34218 1.6954,13.42283 3.1675,18.43178 13.8557,47.14482 5.5843,15.00193 21.2397,52.81844 28.4587,68.74392 0.9973,2.2 2.9843,7 4.4156,10.66666 1.4318,3.66667 6.0133,14.76667 10.1817,24.66667 4.1684,9.9 8.3856,20.20841 9.3715,22.90757 4.1646,11.40085 16.4988,35.37024 19.9447,38.7591 5.3251,5.23688 8.1096,4.6874 12.6676,-2.49982 z m -649.4205,2.93767 c -1.4762,-1.47622 -20.4543,-9.97691 -21.0172,-9.41404 -0.9841,0.98407 -0.2709,1.41595 10.4691,6.33996 8.6252,3.95443 12.5815,5.10743 10.5481,3.07408 z m 17.5452,-4.9799 c 6.0585,-5.1086 8.057,-7.88113 5.5725,-7.73076 -1.8271,0.11058 -15.5384,13.27281 -13.8264,13.27281 0.9247,0 4.639,-2.49393 8.2539,-5.54205 z m 90.0977,-8.06261 c 28.6706,-9.29762 37.271,-12.57122 35.4909,-13.5089 -9.5604,-5.03606 -15.8169,-17.41595 -14.6962,-29.07974 0.3471,-3.61248 0.2255,-6.39682 -0.2703,-6.18742 -0.4958,0.20939 -13.9166,5.10325 -29.8239,10.87524 -24.1079,8.74755 -29.0167,10.96708 -29.489,13.33333 -0.3116,1.56135 -0.8924,10.48881 -1.2906,19.83881 -0.5115,12.01146 -0.2893,17 0.7574,17 0.8148,0 18.5095,-5.52209 39.3217,-12.27132 z m -140.8585,9.63539 c 0,-1.6988 -5.2639,-5.04589 -8.6667,-5.51079 -1.4666,-0.20038 -4.1666,0.14547 -6,0.76855 -3.015,1.02471 -2.5694,1.35702 4.6667,3.48032 9.7389,2.85769 10,2.89064 10,1.26192 z m 46.5748,-6.39094 5.908,-5.16973 -18.4135,-9.71833 c -21.5692,-11.3838 -26.5798,-12.59105 -31.3017,-7.54168 -2.743,2.93329 -2.8814,3.45661 -0.9139,3.45661 1.2753,0 5.2798,1.27389 8.8991,2.83086 6.9472,2.98857 8.0615,5.32277 4.4474,9.31622 -2.0028,2.21306 -1.4122,2.71992 9.6667,8.29644 12.9923,6.53965 12.517,6.57185 21.7079,-1.47039 z m -40.2415,2.69354 c 0.9899,-2.96959 -4.8198,-7.00212 -10,-6.94107 l -5,0.0589 5.0674,2.67413 c 2.787,1.47077 5.4109,3.56961 5.8309,4.66409 0.839,2.1865 3.3126,1.91146 4.1017,-0.45608 z m 329.1039,-2 c 10.2364,-12.07257 21.0301,-45.3136 33.4165,-102.91134 8.0311,-37.34563 10.1748,-53.00263 10.3334,-75.4726 0.1253,-17.74645 -0.1928,-21.2358 -2.2178,-24.33333 -1.5175,-2.32111 -3.5454,-3.61606 -5.6629,-3.61606 -3.15,0 -10.7472,5.77728 -17.5335,13.33333 -4.1377,4.60703 -28.6613,50.25423 -35.1313,65.3919 -4.7126,11.02618 -5.3105,13.62721 -5.328,23.1806 -0.011,5.91846 -0.9093,14.53424 -1.9966,19.14618 -1.6868,7.15467 -1.7072,8.81801 -0.1389,11.33333 3.9322,6.3068 3.7722,9.80564 -0.6173,13.49915 -2.2543,1.89686 -4.6098,3.44884 -5.2345,3.44884 -5.4741,0 -6.9826,13.47286 -3.2712,29.21782 2.6124,11.08306 7.6721,20.24321 14.8216,26.83338 7.5448,6.95463 13.2221,7.24484 18.5605,0.9488 z m -327.4775,-7.74198 c -0.8071,-1.50809 -2.1782,-2.95798 -3.0469,-3.22197 -6.3235,-1.92168 -8.8645,-1.83592 -11.6159,0.392 l -2.9765,2.41024 4.6786,-0.5462 c 2.6996,-0.31516 6.2977,0.33095 8.5065,1.52747 5.1831,2.80787 6.1895,2.68099 4.4542,-0.56154 z m 4.65,-4.01682 c -1.2538,-2.02872 -3.2571,-1.40902 -2.4281,0.75114 0.4205,1.09579 1.3114,1.65433 1.9799,1.2412 0.6684,-0.41312 0.8701,-1.30968 0.4482,-1.99234 z m 179.7803,-9.09787 c 0.6311,-0.63111 -1.2555,-1.07718 -4.2264,-0.99928 -10.0736,0.26414 -17.5608,-9.16261 -18.5911,-23.40722 -0.8067,-11.15197 -4.2392,-9.73629 -4.2392,1.74838 0,9.80338 5.9014,19.64654 14,23.35124 3.9955,1.82771 10.9025,1.46104 13.0567,-0.69312 z m -236.39,-6.12844 c 5.5,-0.44157 17.8,-1.64684 27.3333,-2.67837 9.5334,-1.03154 30.5334,-3.14556 46.6667,-4.69783 16.1333,-1.55228 40.6174,-3.981 54.4091,-5.39717 13.7916,-1.41617 25.9416,-2.57485 27,-2.57485 2.1966,0 2.6107,-3.41836 0.5671,-4.68138 -0.7464,-0.46132 -6.8964,-0.18491 -13.6667,0.61424 -6.7702,0.79914 -27.9095,2.94757 -46.9762,4.77428 -19.0666,1.82671 -40.0666,3.91276 -46.6666,4.63567 -6.6,0.72291 -21.9,2.22737 -34,3.34324 -29.9595,2.76289 -30.6667,2.90278 -30.6667,6.06643 0,2.02291 0.694,2.48904 3,2.01513 1.65,-0.33909 7.5,-0.97782 13,-1.41939 z m 234.2312,-2.92979 c 3.9227,-1.23653 8.3782,-3.40906 9.9011,-4.82785 l 2.7689,-2.5796 -5.6468,-2.52816 c -3.1058,-1.39049 -9.152,-4.65742 -13.4361,-7.25985 -4.284,-2.60243 -8.3957,-4.35682 -9.1371,-3.89864 -2.6085,1.61214 -1.4463,11.60668 2.0417,17.55852 1.8642,3.1811 4.0615,5.78381 4.8828,5.78381 0.8213,0 4.7028,-1.0117 8.6255,-2.24823 z m -170.2312,-12.35156 c 37.0333,-3.73232 68.2333,-6.95361 69.3333,-7.15843 1.1,-0.20482 -5.5,-1.12618 -14.6666,-2.04746 -19.7061,-1.98053 -58.7138,-6.09669 -84.1291,-8.87744 -24.2914,-2.65778 -23.0411,-2.79704 -25.0619,2.79143 -1.9871,5.49534 -8.2249,11.95534 -12.6057,13.05487 -13.2522,3.32608 -28.9163,4.43236 -42.2033,2.98061 l -14,-1.52964 -0.414,-6.49205 -0.4139,-6.49205 -10.2527,0.81892 c -5.639,0.45041 -19.7028,1.22433 -31.2528,1.71983 -11.55,0.49549 -21,1.29113 -21,1.7681 0,0.47696 16.35,3.48643 36.3334,6.68771 19.9833,3.20128 42.6333,6.89302 50.3333,8.20386 17.2111,2.93002 16.8973,2.94706 100,-5.42826 z m 87.3333,5.26646 c 2.363,-1.01542 2.2492,-1.15658 -1,-1.23962 -2.0166,-0.0515 -3.6666,0.50629 -3.6666,1.23962 0,1.56495 1.0248,1.56495 4.6666,0 z m 148.7714,-3.92522 c 3.2424,-2.15887 9.1501,-7.23387 13.1282,-11.27778 l 7.2329,-7.35256 -3.3972,-1.29162 c -8.7346,-3.32088 -10.6328,-2.55335 -21.8294,8.82629 -5.5805,5.67184 -10.7134,11.37184 -11.4064,12.66667 -1.1147,2.08289 -0.5894,2.35422 4.5584,2.35422 4.2162,0 7.4415,-1.0808 11.7135,-3.92522 z m 15.8953,-1.50542 c 3.3,-2.07492 8.9774,-6.80186 12.6165,-10.5043 l 6.6166,-6.73173 h -4.5298 c -3.8864,0 -6.1713,1.60627 -16.0872,11.30955 -9.0319,8.83816 -10.799,11.13358 -8.0868,10.5043 1.9089,-0.44287 6.1707,-2.50289 9.4707,-4.57782 z m -39.3333,-1.07499 c 6.8296,-3.27556 19.1151,-13.49437 16.2235,-13.49437 -0.5314,0 -4.3991,1.71364 -8.5949,3.80809 -9.8291,4.90652 -13.6166,5.77038 -24.8607,5.67033 -14.5429,-0.12941 -23.7896,-3.99157 -47.0685,-19.65967 -11.2922,-7.60031 -21.3587,-13.81875 -22.37,-13.81875 -3.7654,0 -3.7034,3.15298 0.1222,6.21406 2.1349,1.70831 4.3736,3.10901 4.9748,3.11265 0.6012,0.004 3.7512,1.83545 7,4.07068 3.2488,2.23523 5.9161,3.58523 5.9273,3 0.011,-0.58523 0.4613,-0.41548 1,0.37723 0.9792,1.44067 17.3001,12.55871 18.4358,12.55871 0.3305,0 2.875,1.50488 5.6544,3.34418 14.0424,9.29285 30.442,11.10647 43.5561,4.81686 z m -293.6667,-2.26089 c 4.2167,-0.48074 7.653,-1.25494 7.6364,-1.72044 -0.017,-0.46551 -1.9667,-1.79344 -4.3333,-2.95097 -6.0765,-2.97195 -10.2672,-11.12289 -10.4807,-20.38502 -0.095,-4.13071 -0.452,-7.51038 -0.7929,-7.51038 -0.3408,0 -4.4561,3.36819 -9.1451,7.48488 l -8.5254,7.48488 3.3472,2.63285 c 4.1739,3.28321 7.2938,9.17347 7.2938,13.77045 0,3.10954 0.4142,3.42429 3.6667,2.78665 2.0166,-0.39535 7.1166,-1.11216 11.3333,-1.5929 z m -19,-2.54578 c 0,-4.73341 -6.616,-11.6877 -11.1192,-11.6877 -5.1264,0 -8.8808,3.85649 -8.8808,9.12217 0,4.7702 0.9915,5.16205 14.3333,5.66445 5.2033,0.19593 5.6667,-0.0575 5.6667,-3.09892 z m 305.601,-3.5202 c 3.8861,-0.82455 9.8889,-2.92106 13.3394,-4.65893 11.9535,-6.02036 28.0619,-11.17476 34.9815,-11.19344 12.5855,-0.034 12.5331,0.0218 11.7519,-12.49919 -0.8909,-14.28024 1.5955,-22.8152 10.5992,-36.38353 3.8075,-5.73783 7.4174,-10.7763 8.022,-11.19661 0.6046,-0.42031 0.1856,-2.95104 -0.9312,-5.62384 -1.1167,-2.6728 -2.0305,-8.15068 -2.0305,-12.17306 0,-4.02239 -0.7165,-8.88611 -1.5923,-10.80829 -1.2343,-2.70892 -1.2343,-4.06827 0,-6.04464 0.8758,-1.40238 1.5923,-5.57589 1.5923,-9.27446 v -6.72468 l -3.6666,2.64119 c -5.7299,4.12738 -26.8224,9.43865 -37.4834,9.43865 -10.3887,0 -10.895,0.46217 -9.409,8.58836 0.5354,2.92812 0.4792,8.34361 -0.1249,12.03441 -0.9714,5.93473 -0.7805,6.95917 1.6512,8.86094 1.6385,1.28147 2.3419,2.81002 1.7407,3.78284 -0.7265,1.17554 -1.4147,1.22675 -2.4585,0.18296 -2.3072,-2.3073 -3.3106,-1.72407 -4.2292,2.45836 -0.4721,2.14932 -1.6841,4.59319 -2.6934,5.43081 -1.0093,0.83762 -1.4865,2.43105 -1.0606,3.54095 0.5469,1.42537 0.034,1.90386 -1.746,1.62933 -3.5599,-0.54902 -8.5203,2.48835 -8.5203,5.21722 0,1.26446 -1.1505,3.01757 -2.5568,3.89579 -1.7412,1.08739 -2.3169,2.51414 -1.8048,4.47253 0.6416,2.45335 0.3317,2.74235 -2.1098,1.96745 -2.3976,-0.76097 -2.8619,-0.37614 -2.8619,2.37221 0,1.80429 -0.9312,3.63785 -2.0692,4.07458 -1.1866,0.45533 -1.7218,0.2318 -1.2547,-0.52402 0.448,-0.72493 0.2146,-1.31806 -0.5187,-1.31806 -2.9754,0 -2.3575,2.28554 1.863,6.89089 2.4489,2.67216 4.7961,4.61487 5.216,4.31713 0.42,-0.29774 0.4813,-0.15908 0.1363,0.30815 -0.345,0.46722 0.6359,2.62342 2.1798,4.79156 2.479,3.48147 3.3702,3.84817 7.6272,3.13847 16.1662,-2.69507 17.8605,-2.56886 23.8203,1.77431 9.1095,6.6385 7.0964,9.5282 -2.304,3.3073 -5.4725,-3.62151 -5.6093,-3.6284 -22.1702,-1.11517 -4.9012,0.74379 -5.7842,0.4365 -8.4369,-2.93578 l -2.9627,-3.76652 0.8783,3.49937 c 0.5059,2.01584 0.2696,3.87554 -0.5575,4.38669 -1.4931,0.9228 -3.3644,-2.62461 -4.716,-8.94001 -0.8756,-4.09117 -8.0191,-12.81275 -9.3799,-11.45197 -0.478,0.47808 -0.1003,2.10038 0.8394,3.60511 0.9397,1.50472 1.2296,3.21315 0.6443,3.7965 -1.0005,0.99703 -3.0039,-0.98983 -7.3654,-7.30469 -5.986,-8.66667 -25.6415,-12.39939 -36.565,-6.94393 -6.3755,3.18409 -14.2377,12.54097 -14.2377,16.94444 0,3.19574 4.509,7.38369 18.0513,16.76599 13.0159,9.01759 21.9426,13.60585 31.4414,16.16057 8.9205,2.39916 12.5112,2.50061 21.4416,0.60576 z m -266.9343,-1.83417 c 1.3884,-1.6729 1.1883,-2 -1.2232,-2 -4.4466,0 -12.7684,-4.77103 -15.4437,-8.85411 -1.3242,-2.02091 -2.7658,-7.00548 -3.2037,-11.0768 l -0.7961,-7.40242 -1.8169,5.47528 c -2.6438,7.96715 0.7711,19.51959 6.8691,23.23772 5.0893,3.10315 13.2837,3.4287 15.6145,0.62033 z m 343.3333,-5.81797 c 7.2365,-3.29183 9.2719,-5.89304 7.379,-9.43013 -1.7783,-3.32275 -1.1067,-3.30676 -8.2095,-0.19542 -3.2099,1.40606 -8.8362,2.98071 -12.5028,3.49921 -3.6667,0.51851 -7.5667,1.45477 -8.6667,2.08058 -1.1824,0.67269 0.5815,0.80437 4.3148,0.32211 6.7231,-0.86851 11.0651,1.09311 9.7877,4.42191 -0.9283,2.41921 1.5201,2.20273 7.8975,-0.69826 z m -342.3333,-1.10113 c -1.2834,-0.33537 -3.3834,-0.33537 -4.6667,0 -1.2833,0.33537 -0.2333,0.60977 2.3333,0.60977 2.5667,0 3.6167,-0.2744 2.3334,-0.60977 z m 8.3333,-6.97263 c 3.3852,-2.39009 9.3333,-10.23233 9.3333,-12.30544 0,-0.62489 -2.1,-1.13616 -4.6666,-1.13616 -3.3258,0 -4.6667,0.59372 -4.6667,2.06621 0,3.81281 -4.0918,10.02788 -8.3981,12.75579 l -4.2686,2.70407 4.6667,-0.8655 c 2.5667,-0.47603 6.1667,-1.92456 8,-3.21897 z m 15.4969,-2.09285 c 1.7434,-1.14229 3.1698,-2.21702 3.1698,-2.38829 0,-0.17127 0.5581,-2.25744 1.2402,-4.63593 1.1966,-4.1722 1.1033,-4.32453 -2.6487,-4.32453 -3.2312,0 -4.2412,0.8427 -5.9706,4.9818 -1.1448,2.74 -3.3422,6.32372 -4.883,7.96384 l -2.8015,2.98204 4.362,-1.25102 c 2.3992,-0.68806 5.7885,-2.18562 7.5318,-3.32791 z m -26.9117,0.44575 c 8.8716,-4.04215 11.1157,-19.00613 3.6957,-24.64344 -3.6958,-2.80787 -8.9471,-2.12119 -12.7334,1.66504 -8.0519,8.05192 -5.1656,21.13596 5.3898,24.43272 0.1488,0.0465 1.7904,-0.60796 3.6479,-1.45432 z m 345.5693,-4.68503 c 1.7656,-1.15684 3.4983,-3.37973 3.8504,-4.93974 2.7756,-12.29705 3.2671,-16.1251 3.2958,-25.66973 0.035,-11.69123 -1.0101,-19.16667 -2.6802,-19.16667 -1.8315,0 -12.9257,17.91336 -15.1479,24.45893 -2.4416,7.19132 -2.8426,22.40223 -0.6964,26.41244 1.616,3.01939 5.6984,2.62643 11.3783,-1.09523 z m -314.1609,-14.26598 c 0.3702,-2.10275 0.3731,-10.50275 0.01,-18.66667 l -0.6663,-14.84349 -7.0921,-9.33333 c -6.7179,-8.84078 -9.618,-11.61054 -9.5398,-9.11111 0.019,0.61111 3.6133,5.85669 7.987,11.65685 6.1521,8.15858 7.6164,10.95039 6.4687,12.33334 -1.8748,2.25895 -11.3205,2.35272 -12.1814,0.12092 -1.107,-2.86959 -18.5317,-23.88844 -19.2271,-23.19302 -0.3635,0.36347 1.3444,2.85415 3.7953,5.53484 11.078,12.11688 11.7894,14.05407 11.7894,32.10359 v 16.37746 l 3.6667,0.58551 c 2.0167,0.32203 6.0638,0.51188 8.9936,0.4219 4.768,-0.14645 5.3976,-0.56474 6,-3.98679 z m -23.2509,-28.17682 c -0.8711,-4.65522 -16.4068,-23.7704 -19.8595,-24.43534 -5.1692,-0.99548 -6.2165,2.01248 -6.2165,17.85324 0,8.41036 0.578,15.44865 1.3057,15.8984 0.7182,0.44386 2.4839,0.17651 3.9239,-0.59411 4.0707,-2.17862 9.8178,0.91234 9.0606,4.87316 -0.4611,2.41227 0.017,3.08145 2.228,3.11856 1.5483,0.026 4.3151,0.88026 6.1484,1.89838 l 3.3334,1.85113 0.4123,-8.23171 c 0.2267,-4.52744 0.075,-10.03171 -0.3363,-12.23171 z m 251.2369,13.66666 c 0.031,-1.50368 -6.3636,-1.20264 -7.3199,0.34461 -1.1882,1.9226 5.0758,4.05775 6.3199,2.1542 0.5388,-0.82434 0.9888,-1.94881 1,-2.49881 z m 4.6301,-5.09213 c -0.9956,-1.61089 -6.8911,-1.60986 -7.8869,10e-4 -0.4224,0.68342 0.8922,1.45485 2.9213,1.71427 4.372,0.55899 6.0196,-0.0103 4.9656,-1.71566 z m -194.0506,-14.80688 3.2258,-1.20665 -5.3086,-5.61384 c -2.9197,-3.0876 -6.9385,-7.84638 -8.9307,-10.57505 -4.1004,-5.61621 -11.543,-20.77583 -11.5445,-23.51477 -7e-4,-1.05511 -0.8294,-1.49146 -1.9882,-1.04678 -1.0929,0.41939 -7.2429,2.32237 -13.6667,4.22885 -6.4237,1.90647 -12.5216,3.74403 -13.5509,4.08347 -1.4838,0.48936 -1.3757,0.97954 0.5218,2.36704 1.874,1.37032 2.1998,2.78019 1.502,6.50007 -0.8134,4.33564 -0.1899,5.68095 7.1449,15.41485 6.7671,8.98061 8.036,11.52279 8.036,16.09917 v 5.43453 l 15.6667,-5.48212 c 8.6166,-3.01516 17.1182,-6.02511 18.8924,-6.68877 z m 199.4286,7.87886 c -1.1995,-0.67125 -3.7874,-0.81268 -5.7509,-0.31429 l -3.5701,0.90617 4,1.6957 c 2.7946,1.18472 4.5276,1.27942 5.7509,0.31428 1.4182,-1.11894 1.3366,-1.61329 -0.4299,-2.60186 z m 8.2532,-8.5167 c -0.3564,-0.35639 -3.1416,0.0992 -6.1895,1.01231 l -5.5415,1.66028 3.675,1.50216 c 3.0928,1.26419 4.0734,1.10382 6.1895,-1.01231 1.383,-1.38296 2.2229,-2.80606 1.8665,-3.16244 z m -256.3404,-0.12981 c -2.0622,-2.75 -5.5958,-7.45611 -7.8526,-10.45802 -3.0011,-3.99216 -4.7417,-5.23403 -6.4808,-4.62399 -2.0355,0.71403 -1.2819,2.21892 5.237,10.45802 4.8142,6.08448 8.5767,9.62399 10.2302,9.62399 2.3969,0 2.3021,-0.41795 -1.1338,-5 z m 90.7662,-2.95319 c 18.5115,-7.10317 34.5118,-13.54348 35.1849,-14.16237 0.285,-0.26208 -0.915,-1.02302 -2.6667,-1.69098 -6.1142,-2.33152 -19.374,-13.41961 -25.7443,-21.52799 -16.6674,-21.21492 -24.0551,-51.7512 -17.6711,-73.04078 1.1615,-3.87309 1.6884,-6.8414 1.1711,-6.59625 -8.6236,4.08663 -10.8614,5.78728 -10.2305,7.77502 0.3845,1.21161 0.7344,8.12649 0.7775,15.3664 0.1714,28.79986 -8.7686,41.49939 -36.4876,51.83167 -3.4833,1.29841 -6.3333,2.70684 -6.3333,3.12983 0,0.42299 2.444,5.70274 5.4311,11.73278 6.306,12.72975 18.4774,26.79077 26.8847,31.05879 7.3116,3.71175 11.2496,3.19754 29.6842,-3.87612 z m -149.9057,-1.44734 c 2.1285,-1.51561 6.5642,-6.25704 9.8572,-10.53652 l 5.9873,-7.78087 -12.8532,3.85896 c -7.0692,2.12243 -14.5554,3.85896 -16.636,3.85896 -2.3243,0 -3.783,0.70823 -3.783,1.83674 0,1.0102 -0.8934,2.57819 -1.9853,3.48441 -2.4296,2.01642 -1.6307,3.45523 3.7975,6.83866 4.8825,3.04333 9.8469,2.54728 15.6155,-1.56034 z m 325.239,-4.74719 c 0,-1.01875 -0.52,-1.85228 -1.1555,-1.85228 -2.5682,0 -14.8445,5.77827 -14.8445,6.98708 0,0.71402 0.8492,0.97234 1.8872,0.57404 1.0379,-0.3983 3.5879,-0.22849 5.6667,0.37735 3.0004,0.87447 4.2604,0.55162 6.1128,-1.56618 1.2833,-1.46725 2.3333,-3.50125 2.3333,-4.52001 z m -348.2667,-2.11895 c 2.5937,-2.59362 1.861,-3.73333 -2.4,-3.73333 -2.2,0 -4,0.48 -4,1.06666 0,1.24503 2.8328,4.26667 4,4.26667 0.44,0 1.52,-0.72 2.4,-1.6 z m 342.9334,-2.35071 c 7.0374,-2.42822 7.375,-2.76276 8.3669,-8.28981 0.5684,-3.16771 0.6591,-8.6311 0.2016,-12.14086 -0.7609,-5.83626 -1.077,-6.29185 -3.7003,-5.33333 -1.5775,0.57642 -6.0182,0.95272 -9.8682,0.83622 -7.9219,-0.23973 -8.2555,0.40209 -4.9616,9.54516 1.0568,2.93333 1.9305,8.18333 1.9415,11.66666 0.011,3.48334 0.1701,6.31375 0.3534,6.28981 0.1833,-0.0239 3.6333,-1.18218 7.6667,-2.57385 z m -345.3334,-6.09667 c 0,-0.39273 -2.7991,-1.91389 -6.2202,-3.38036 -3.4211,-1.46647 -8.0901,-4.64896 -10.3755,-7.07219 -2.9499,-3.12774 -4.8725,-4.15433 -6.6274,-3.53874 -2.2496,0.78912 -2.0971,1.29417 1.6948,5.61288 2.2918,2.61015 6.1232,5.71008 8.5142,6.88873 4.1002,2.02112 13.0141,3.04146 13.0141,1.48968 z m 38.7686,-6.50502 c 9.7805,-3.36285 19.4999,-6.11427 21.5988,-6.11427 8.343,0 58.7142,-15.14249 68.8311,-20.69186 l 3.4682,-1.9024 -4.1368,0.75783 c -8.215,1.50492 -20.9142,-8.02182 -28.6555,-21.4969 -5.3696,-9.34676 -8.4094,-24.01446 -7.4917,-36.14865 l 0.7378,-9.75544 -4.8371,3.06135 c -3.2478,2.05545 -5.2339,4.5588 -6.0445,7.61871 -1.6287,6.14785 -0.2322,25.85121 2.3431,33.05833 2.8396,7.94685 2.6344,10.4039 -1.188,14.22631 -6.5025,6.50251 -14.6536,3.24567 -19.4989,-7.791 -2.5795,-5.87547 -3.0592,-9.32964 -3.1368,-22.58572 -0.1062,-18.14097 1.0867,-17.41114 -15.2613,-9.33745 l -9.8363,4.85783 0.7014,16.06453 c 0.9423,21.5837 5.4333,34.10543 15.3854,42.89707 4.5162,3.98953 1.3479,5.39046 -3.7189,1.64442 -2.2157,-1.63814 -4.0286,-3.47781 -4.0286,-4.08813 0,-0.61033 -2.3473,0.0879 -5.2164,1.55152 -7.2343,3.69067 -22.6322,9.39299 -25.3638,9.39299 -1.454,0 -3.6409,-2.88343 -6.1183,-8.06664 -5.2308,-10.94418 -5.8956,-11.3467 -13.3175,-8.06362 l -6.1747,2.73133 3.7621,6.9132 c 2.0691,3.80226 6.2916,9.60307 9.3833,12.89068 5.5851,5.93899 5.6677,5.97269 12.8263,5.23386 3.9628,-0.40899 15.2072,-3.49504 24.9876,-6.85788 z m 37.2314,5.49937 c 1.8334,-0.92421 3.5251,-3.01537 3.7594,-4.64701 0.4147,-2.88733 0.089,-2.96663 -12.17,-2.96663 -9.6588,0 -12.9895,0.47392 -14.2828,2.03222 -2.0103,2.42232 -1.1823,3.4505 4.4558,5.53301 5.6662,2.09287 14.1375,2.11536 18.2376,0.0484 z m 255.5584,-8.2803 c -1.3695,-5.306 -2.3467,-6.7576 -4.788,-7.1122 -3.4771,-0.50504 -3.5088,-0.65173 1.8963,8.78521 4.6182,8.06305 5.3025,7.66714 2.8917,-1.67301 z m -119.6521,-6.12005 c 0.1137,-10.65612 -3.9946,-27.52254 -8.2175,-33.73717 l -3.0949,-4.55447 0.5088,9.00324 c 0.7373,13.04918 -2.621,18.57226 -12.9768,21.34184 -3.3609,0.89885 -3.359,0.90361 2.8227,7.08537 3.4023,3.40226 9.0807,7.98829 12.6187,10.19118 7.6867,4.78599 8.1945,4.21776 8.339,-9.32999 z m 8.8013,0.92124 c 1.158,-9.26825 -2.1466,-25.57782 -7.3214,-36.13453 -4.5386,-9.25898 -20.7767,-28.29749 -34.4147,-40.34984 -8.6295,-7.62618 -9.487,-8.08841 -9.8948,-5.33333 -0.3444,2.32697 2.6207,6.07329 12.9711,16.38903 27.1166,27.02571 33.2288,38.85144 33.2657,64.36131 0.019,13.07632 0.1272,13.60129 2.2616,10.96544 1.2329,-1.52262 2.6425,-5.97676 3.1325,-9.89808 z m -228.7687,4.41794 c -0.8185,-1.52947 -1.8251,-2.44397 -2.2369,-2.03222 -0.4117,0.41176 0.01,1.66314 0.938,2.78087 2.397,2.88831 3.0454,2.51465 1.2989,-0.74865 z m 564.0611,-3.81658 c 45.9441,-8.5874 97.3423,-27.01131 121.8346,-43.6721 l 7.8346,-5.32946 0.3171,-8.53383 c 0.4984,-13.41506 6.3507,-23.83099 17.1855,-30.58692 l 3.8384,-2.3934 -5.1718,-1.47153 c -2.8444,-0.80934 -9.4744,-2.15909 -14.7332,-2.99946 l -9.5615,-1.52793 -13.679,14.32715 c -24.8382,26.01523 -50.1832,42.55641 -80.7715,52.71475 -29.0067,9.63309 -55.4257,10.62847 -89.2674,3.36328 -3.8383,-0.82401 -4.1298,-0.64384 -3.6231,2.23872 0.3031,1.72416 0.054,8.0543 -0.5527,14.06697 l -1.1038,10.93214 4.7269,1.34756 c 7.8766,2.24548 45.3883,0.76483 62.7269,-2.47594 z m -570.3064,-2.63613 c 0.4583,-1.75242 0.1113,-2.35201 -1.0936,-1.88965 -0.9707,0.37249 -1.4386,1.52759 -1.0398,2.56691 0.961,2.50422 1.3323,2.38636 2.1334,-0.67726 z m 38.5141,-2.08395 c 8.5991,-3.10187 17.1257,-6.96948 17.1257,-7.76812 0,-0.19278 -1.2045,-2.71308 -2.6767,-5.60067 -1.4722,-2.88759 -3.3922,-8.71445 -4.2668,-12.94859 -0.8745,-4.23413 -2.0653,-7.69843 -2.6462,-7.69843 -0.5808,0 -9.136,3.38586 -19.0113,7.52414 -15.5596,6.52023 -17.7911,7.83101 -16.7244,9.82413 0.8296,1.54999 2.305,2.09467 4.5248,1.67033 2.9446,-0.56289 3.7997,0.37474 8.064,8.84254 2.6235,5.20971 5.14,9.4722 5.592,9.4722 0.4521,0 4.9606,-1.49289 10.0189,-3.31753 z m -44.8372,-0.70545 c 2.3936,-1.4793 4.7108,-4.11935 5.1494,-5.86676 0.491,-1.9565 2.3373,-3.71393 4.8054,-4.57434 4.3141,-1.5039 4.4005,-1.62852 3.2345,-4.66701 -0.6735,-1.75521 -1.5498,-1.68312 -6.7772,0.55762 -7.2773,3.11941 -9.2521,3.21221 -10.2991,0.48394 -0.6999,-1.82395 -1.4664,-1.71601 -6.0307,0.84929 -5.7741,3.2452 -5.826,4.39879 -0.5211,11.57357 3.7546,5.07787 4.6533,5.21938 10.4388,1.64369 z m 359.9629,-2.79783 c 5.3179,0.20185 8.5658,-0.56008 18.6666,-4.37904 4.3549,-1.64648 4.7218,-2.02592 2,-2.06811 -4.0155,-0.0623 -34.9272,6.3899 -35.9472,7.50323 -0.3957,0.43184 1.6806,0.32533 4.6139,-0.23669 2.9333,-0.56201 7.7333,-0.93074 10.6667,-0.81939 z m -146.5882,-7.07171 c 1.4235,-1.04089 2.6384,-2.39089 2.6999,-3 0.061,-0.60912 0.8513,-2.90124 1.7551,-5.09361 2.696,-6.53912 -1.187,-19.83392 -8.6507,-29.61944 -3.9872,-5.22746 -12.8982,-10.11808 -16.9852,-9.322 -2.5428,0.4953 -2.4803,0.58665 0.51,0.74599 7.2144,0.38442 18.3136,12.04865 21.1072,22.18158 3.1809,11.53778 1.1352,21.07801 -5.2077,24.2874 -2.9866,1.51111 -3.041,1.67519 -0.5619,1.69294 1.5098,0.0108 3.9098,-0.83198 5.3333,-1.87286 z m 194.4974,-1.07702 c 13.3658,-3.68956 9.6141,-4.70273 -8.8144,-2.38042 -10.0667,1.26858 -12.748,2.03578 -12.1906,3.48812 1.0419,2.71534 8.5993,2.31681 21.005,-1.1077 z m -198.6515,-3.9938 c 2.663,-3.80193 2.6805,-14.34131 0.034,-20.67439 -4.6864,-11.21611 -14.9134,-19.41926 -20.4897,-16.43493 -3.1041,1.6613 -2.2817,6.73932 1.0916,6.73932 3.2772,0 10.6063,8.10419 12.1283,13.41099 1.6438,5.73148 1.657,13.31078 0.028,15.88716 -0.8195,1.29582 -0.699,2.31032 0.3537,2.97958 2.7155,1.72623 4.6946,1.17538 6.854,-1.90773 z m -181.5911,-12.52043 25,-10.46368 v -6.47072 c 0,-3.5589 -0.5129,-6.27072 -1.1398,-6.02628 -12.4476,4.85339 -56.1935,25.85424 -56.1935,26.97651 0,2.60202 4.1852,7.68297 5.805,7.04746 0.8406,-0.32979 12.7783,-5.30827 26.5283,-11.06329 z m 171.6463,3.08422 c 0.023,-5.68262 -2.3271,-11.02498 -6.5179,-14.81765 -5.3757,-4.86493 -5.059,-1.49558 1.5396,16.37729 2.9309,7.93869 4.9425,7.30846 4.9783,-1.55964 z m -47.9044,2.79977 c 2.182,-1.61321 4.8205,-4.23531 5.8634,-5.8269 1.8628,-2.84312 1.7936,-2.88224 -3.9544,-2.23435 -7.6204,0.85893 -15.9322,-3.84229 -22.3726,-12.65415 -10.6002,-14.50337 -11.6251,-29.82431 -2.6379,-39.4319 l 3.693,-3.94781 -4,0.90761 c -2.2,0.49919 -5.5,1.99222 -7.3334,3.31785 -2.9047,2.10032 -3.3846,3.57674 -3.7323,11.48208 -0.4869,11.06953 1.292,19.89442 5.9123,29.33031 4.0965,8.3662 12.457,17.52026 18.3402,20.0811 5.4854,2.38767 5.6265,2.37353 10.2217,-1.02384 z m 421.2581,0.91853 c 21.7946,-2.10477 51.5697,-13.1193 71.3334,-26.38798 16.3085,-10.94897 35.8348,-28.37393 34.399,-30.69709 -0.4461,-0.7218 -0.177,-0.92053 0.5979,-0.44162 2.3979,1.48198 16.1379,-15.22382 21.1188,-25.67726 2.5905,-5.43686 6.5027,-16.83686 8.6936,-25.33333 3.37,-13.06905 3.9923,-18.04678 4.0412,-32.32183 0.09,-26.23498 -3.0917,-36.96 -17.4969,-58.98514 -8.0206,-12.26323 -26.4853,-31.01209 -37.6469,-38.22618 -8.4132,-5.43772 -26.0158,-13.23628 -29.9474,-13.26773 -1.3343,-0.0107 -4.826,-0.84502 -7.7593,-1.8541 -17.9082,-6.16049 -65.4943,-1.91851 -91.0999,8.12093 -15.1467,5.9387 -37.1159,20.09736 -48.2344,31.08591 -21.5721,21.32 -35.0709,51.81903 -36.8833,83.33333 -0.6354,11.04909 -0.1553,16.63471 2.8023,32.60374 4.1384,22.34405 6.8303,30.96746 14.3297,45.90469 10.6255,21.16387 22.6092,34.8568 26.8204,30.64568 0.4652,-0.46525 -1.7509,-2.82865 -4.9247,-5.25201 -8.0303,-6.13159 -18.8185,-21.16913 -22.8266,-31.8175 -5.0272,-13.35617 -5.7167,-26.09528 -2.0632,-38.1235 6.9525,-22.88961 30.7746,-35.88807 73.413,-40.05768 23.1179,-2.26069 49.6846,0.0943 71.8978,6.37345 14.3053,4.04372 31.7456,14.5013 40.5887,24.33777 12.4467,13.84497 15.7046,32.21441 8.2735,46.64981 -5.1946,10.09086 -13.5918,20.88829 -18.5731,23.88197 -31.8124,19.1188 -63.9738,27.68535 -99.4398,26.48689 -9.9442,-0.33604 -19.4376,-1.06286 -21.0964,-1.61517 -2.6293,-0.87542 -2.9563,-0.59901 -2.5498,2.1555 0.397,2.691 1.8333,3.50759 9.6826,5.50503 9.9931,2.54295 31.7173,4.8813 39.2165,4.22117 2.5667,-0.22593 8.5667,-0.78742 13.3333,-1.24775 z m -410,-1.98542 c 1.3274,-1.46667 2.1133,-2.66667 1.7467,-2.66667 -0.3667,0 -1.7527,1.2 -3.08,2.66667 -1.3273,1.46667 -2.1133,2.66667 -1.7466,2.66667 0.3666,0 1.7526,-1.2 3.0799,-2.66667 z m -60.6442,-4.69371 c 1.3694,-1.65001 1.1163,-4.37705 -1.361,-14.66118 -2.3966,-9.94954 -2.8878,-14.90183 -2.3117,-23.30629 0.4338,-6.32989 0.2186,-10.67215 -0.5289,-10.67215 -0.6932,0 -3.609,1.19814 -6.4794,2.66255 -6.3434,3.23614 -7.4089,7.21368 -6.267,23.3944 1.127,15.97066 5.4066,24.60971 12.1909,24.60971 1.6911,0 3.8319,-0.91217 4.7571,-2.02704 z m 56.7795,-9.32553 c 7.2637,-11.08585 0.075,-35.09089 -12.7113,-42.44763 -3.9167,-2.25354 -3.7752,-1.95454 1.6369,3.45753 12.411,12.41103 15.7523,35.95797 5.787,40.78322 l -2.8479,1.37897 2.9693,0.0902 c 1.768,0.0537 3.858,-1.26609 5.166,-3.26233 z m 10.9385,-4.31409 c 3.1174,-6.65204 3.5651,-9.1976 3.3829,-19.23459 -0.2118,-11.66309 -3.0368,-24.56256 -6.5917,-30.09875 -1.6014,-2.49374 -3.1025,-2.99305 -8.8957,-2.95883 -9.0371,0.0534 -25.7415,2.23352 -31.3855,4.09621 -6.8427,2.25828 -4.4311,2.53138 3.7086,0.41997 4.0088,-1.03987 12.5426,-1.89068 18.964,-1.89068 11.4015,0 11.7198,0.0864 13.5804,3.68426 6.4409,12.45545 8.4857,34.36783 4.4152,47.31574 -1.095,3.48333 -1.7165,6.33333 -1.381,6.33333 0.3354,0 2.2267,-3.45 4.2028,-7.66666 z m 396.966,5.70315 c 18.6183,-3.01979 34.3714,-8.12185 50.4145,-16.32813 16.3974,-8.38746 21.9321,-13.25698 29.1638,-25.65884 5.885,-10.09224 7.3161,-17.77144 5.1313,-27.53416 -2.9831,-13.32998 -15.3286,-26.8145 -33.1909,-36.25313 -20.1637,-10.6548 -59.901,-15.99566 -90.9268,-12.22096 -36.4081,4.42953 -58.1716,16.12901 -65.1235,35.00875 -8.0576,21.88242 2.2398,51.35146 23.9459,68.52813 4.313,3.41297 6.0345,4.0758 7.9389,3.0566 6.0637,-3.24517 11.572,-0.61744 14.4226,6.88025 0.9464,2.48904 2.8157,3.90271 6.4262,4.85975 7.7567,2.05611 38.264,1.85688 51.798,-0.33826 z m -50.2721,-37.00391 c -10.4773,-5.44769 -22.4001,-6.54516 -27.7927,-2.55826 -2.1268,1.57246 -4.2219,2.85902 -4.6557,2.85902 -1.3469,0 -4.6526,-9.06298 -4.6526,-12.75567 0,-5.27959 3.5706,-11.74903 7.8939,-14.30292 8.404,-4.96435 25.1384,-1.28086 32.9826,7.25994 4.8624,5.29414 8.6703,13.96474 8.2143,18.70357 -0.5414,5.62545 -2.4546,5.7522 -11.9898,0.79432 z m 7.7001,-5.36051 c -2.0841,-10.42024 -14.7316,-19.67207 -26.8923,-19.67207 -6.1854,0 -7.409,0.48002 -10.4569,4.1023 -3.3194,3.94485 -4.3597,9.31401 -2.6618,13.73853 0.7087,1.84687 1.1248,1.83962 4.0397,-0.0703 4.6325,-3.03534 18.0923,-1.7462 27.3286,2.61744 9.3407,4.41296 9.6631,4.38625 8.6427,-0.71589 z m 26.6275,3.56603 c -4.8023,-4.80223 -0.9359,-23.2775 6.1125,-29.20832 5.3989,-4.54288 17.3588,-7.87636 24.6657,-6.87484 12.7911,1.75322 20.2915,8.44549 21.5021,19.18526 l 0.6593,5.84972 -5.1841,-1.09496 c -2.8512,-0.60223 -9.1956,-1.03422 -14.0985,-0.95999 -10.3808,0.15718 -21.5054,4.80982 -26.9383,11.26649 -3.8441,4.56849 -3.9562,4.59913 -6.7187,1.83664 z m 23.4565,-15.39593 c 9.0656,-2.75358 17.7601,-2.92304 24.0922,-0.46956 2.0521,0.79511 2.1528,0.44233 0.8998,-3.15216 -4.3823,-12.57096 -21.2612,-17.18783 -35.8193,-9.7976 -5.9073,2.99879 -10.7245,11.91526 -10.7245,19.85087 v 5.70867 l 6.0862,-4.64564 c 3.3802,-2.58017 10.2562,-5.91229 15.4656,-7.49458 z m -420.9803,50.0626 c 2.4204,-2.42039 2.7871,-12.02686 0.7405,-19.39494 -1.831,-6.59157 -6.4835,-13.17866 -11.8742,-16.81143 -5.6638,-3.81683 -7.8923,-3.82442 -9.3185,-0.0317 -1.2353,3.28522 1.3271,5.91156 4.0973,4.19949 0.8648,-0.5345 1.1676,-0.36048 0.6972,0.40069 -0.4574,0.74004 0.6014,2.69178 2.3529,4.33719 5.3452,5.02154 9.1584,15.60992 8.2831,23.00026 -0.82,6.92346 0.9139,8.40828 5.0217,4.30047 z m 231.8017,-0.0557 c 0.4497,-0.4497 -2.1326,-3.1497 -5.7385,-6 -4.812,-3.80369 -7.8082,-5.1824 -11.2621,-5.1824 -5.2434,0 -6.1895,2.26143 -2.3726,5.67103 4.9777,4.44648 17.014,7.87059 19.3732,5.51134 z m -240.6218,-6.35619 c 0.4865,-5.78166 -3.4359,-14.8124 -8.5,-19.56993 -2.8607,-2.68749 -3.5864,-2.87872 -4.6345,-1.22134 -4.3142,6.82194 4.9286,28.05682 11.3831,26.15234 0.7334,-0.21638 1.5215,-2.62886 1.7514,-5.36107 z m 20.2852,-20.54364 c -0.8541,-4.92208 -2.678,-11.49924 -4.0531,-14.6159 l -2.5002,-5.66667 -8.4083,0.008 -8.4083,0.008 3.997,2.08411 c 8.2551,4.3043 15.6127,13.90937 18.2725,23.85385 2.3068,8.62505 2.9795,5.15773 1.1004,-5.67182 z m 29.4921,5.05076 c 2.7981,0 2.6738,-0.3047 -1.579,-3.86993 -2.539,-2.12847 -4.7092,-3.77847 -4.8226,-3.66667 -0.1135,0.1118 -0.5636,2.47443 -1.0002,5.2503 -0.7359,4.67771 -0.6052,4.94602 1.7853,3.66666 1.4185,-0.75919 3.946,-1.38036 5.6165,-1.38036 z m -66.4888,-8 c 0.4647,-4.56361 0.3189,-6.32616 -0.3862,-4.66666 -1.0856,2.55526 -1.8319,13.70336 -0.8405,12.55555 0.2639,-0.30555 0.8159,-3.85555 1.2267,-7.88889 z m 294.9601,-7.48221 c 4.4,-1.8804 10.2986,-4.15243 13.1079,-5.04894 6.9587,-2.22068 4.3982,-3.93132 -8.8366,-5.90358 -8.549,-1.27398 -11.1542,-1.21664 -14.6667,0.32282 -4.543,1.99107 -13.9086,9.64363 -12.8826,10.52617 5.2196,4.48926 12.9355,4.52358 23.278,0.10353 z m -34.1975,-3.03415 c 1.4123,-0.89494 1.1316,-1.6121 -1.2967,-3.31292 -3.852,-2.69809 -10.3155,-2.73345 -13.8326,-0.0757 -2.282,1.72444 -2.3767,2.18942 -0.6667,3.27052 2.4878,1.57274 13.3721,1.65409 15.796,0.11807 z m 13.4341,-12.99678 c 1.5199,-1.93223 2.7364,-4.78223 2.7033,-6.33333 -0.051,-2.41724 -0.2897,-2.29153 -1.6667,0.87983 -0.8836,2.03501 -3.4065,4.88106 -5.6065,6.32455 -3.6007,2.36256 -3.7102,2.6254 -1.0968,2.63331 1.5968,0.005 4.1468,-1.57213 5.6667,-3.50436 z"
       id="path1" />
  </g>
</svg>
