<?xml version="1.0" encoding="UTF-8" standalone="no"?>
<!-- Created with Inkscape (http://www.inkscape.org/) -->

<svg
   version="1.1"
   id="svg1"
   width="742.3291"
   height="718.01062"
   viewBox="0 0 742.3291 718.0106"
   xmlns="http://www.w3.org/2000/svg"
   xmlns:svg="http://www.w3.org/2000/svg">
  <defs
     id="defs1" />
  <g
     id="g1"
     transform="translate(-1961.3752,-454.29808)">
    <path
       style="fill:#000000"
       d="m 2398.9792,1170.1429 c -12.1762,-4.2514 -26.3374,-15.0605 -35.5391,-27.1266 -5.615,-7.3628 -9.9348,-9.215 -21.5202,-9.2272 -14.1568,-0.015 -37.5689,-6.8151 -58.9007,-17.1083 -8.5313,-4.1165 -24.6673,-17.0249 -28.7066,-22.9645 -2.2,-3.235 -4.8841,-6.9445 -5.9646,-8.2433 -3.1403,-3.775 -9.3681,-16.148 -9.3685,-18.6126 -10e-5,-1.2401 -0.6003,-2.6255 -1.3336,-3.0787 -0.7333,-0.4532 -1.3333,-1.892 -1.3333,-3.1973 0,-2.5383 -3.3138,-7.362 -14.1073,-20.5353 -10.0814,-12.3042 -24.8229,-39.8886 -28.6451,-53.60084 -0.6132,-2.2 -2.3715,-8.2 -3.9073,-13.3333 -4.9912,-16.6836 -8.007,-36.3658 -8.007,-52.2572 0,-16.8931 -0.6711,-17.8385 -8.5408,-12.0318 -6.7434,4.9756 -25.7285,14.2831 -31.8072,15.5934 -10.1663,2.1916 -17.6037,4.3161 -20.3187,5.8042 -1.4666,0.8039 -11.5033,1.6984 -22.3036,1.9878 -15.2851,0.4095 -21.0471,0.066 -26,-1.5506 -3.4997,-1.1422 -10.863,-3.3542 -16.363,-4.9156 -5.5,-1.5613 -11.5,-3.7246 -13.3334,-4.8072 -1.8333,-1.0827 -5.3674,-2.8789 -7.8535,-3.9917 -7.3713,-3.2994 -18.7695,-12.2519 -30.2141,-23.73116 -16.1316,-16.18042 -27.945,-35.64813 -36.4393,-60.04975 -3.4757,-9.98449 -4.1597,-13.94229 -4.1597,-24.06667 0,-6.9362 -0.6189,-12.73585 -1.4473,-13.56432 -2.6561,-2.65613 -1.5428,-34.78768 1.616,-46.63866 1.5316,-5.74607 3.2998,-13.39699 3.9293,-17.00204 0.6295,-3.60505 1.765,-7.17505 2.5233,-7.93333 0.7582,-0.75829 1.3787,-2.47069 1.3787,-3.80535 0,-3.52336 11.3644,-25.60185 17.642,-34.27442 11.8356,-16.3511 32.3273,-33.95537 45.0246,-38.68029 2.5667,-0.95511 7.0667,-2.63949 10,-3.74306 7.6636,-2.88319 22.8691,-5.67219 30.9344,-5.67402 10.3133,-0.002 33.2326,5.12201 36.999,8.27229 0.6966,0.58271 2.3038,1.05948 3.5714,1.05948 1.2676,0 3.0976,0.77352 4.0666,1.71895 0.9691,0.94542 4.462,3.11104 7.762,4.8125 3.3,1.70145 6.3,3.47961 6.6666,3.95147 0.3667,0.47185 3.1274,2.52597 6.135,4.5647 5.0633,3.43222 24.3847,22.61557 30.5317,30.31352 3.2231,4.03628 10.0133,14.19456 12.1946,18.24334 6.7196,12.47262 10.0741,19.40281 12.4537,25.72885 1.5172,4.03334 3.291,8.53334 3.9418,10.00001 3.134,7.06355 9.3933,41.34693 9.4303,51.65231 0.036,10.06248 1.4659,9.50601 12.2341,-4.76157 15.2535,-20.21061 30.2622,-36.84142 42.701,-47.31602 12.5976,-10.60834 36.5762,-25.54842 52.3778,-32.63444 18.1383,-8.13389 45.4697,-15.60695 57.0797,-15.60695 3.6236,0 6.2655,-0.66536 6.6177,-1.66667 0.5476,-1.55697 -7.3217,-10.16145 -11.5072,-12.58206 -3.4245,-1.98054 -23.7112,-24.96762 -28.6097,-32.41794 -2.6519,-4.03334 -5.2328,-7.63334 -5.7354,-8 -1.9864,-1.4493 -10.7266,-21.56708 -13.9636,-32.14084 -8.2515,-26.95345 -4.753,-58.45207 9.6568,-86.94359 13.8359,-27.35688 44.8567,-55.26478 70.4984,-63.42402 25.6637,-8.16623 51.2067,-8.40947 73.3412,-0.69841 2.9579,1.03044 6.4196,1.87352 7.6927,1.87352 3.5395,0 27.5781,12.3402 38.8328,19.93481 9.2734,6.25764 30.3799,25.9087 38.1222,35.4934 11.735,14.52756 20.3511,31.60515 24.1694,47.90512 2.2292,9.51611 2.9901,43.80014 1.169,52.66667 -2.461,11.98163 -5.6422,21.43214 -10.5474,31.33334 -4.403,8.88757 -11.077,19.67535 -14.0865,22.76924 -0.7682,0.78975 -3.2222,3.51874 -5.4532,6.06442 -3.6764,4.19478 -15.9615,14.76206 -25.5458,21.97375 -2.0521,1.54408 -7.9311,5.09384 -13.0644,7.88835 -5.1333,2.79451 -9.7438,5.70253 -10.2454,6.46226 -1.1908,1.80361 -0.084,3.50865 2.2768,3.50865 2.5309,0 20.4844,10.94326 31.9686,19.48589 9.5822,7.12784 36.2122,33.52035 42.2239,41.84744 8.438,11.68772 15.6153,22.72626 16.415,25.24579 0.4807,1.51482 1.3397,2.75421 1.9087,2.75421 2.863,0 16.722,33.06948 22.6308,54.00001 1.2455,4.41169 5.4883,30.77917 5.4883,34.10757 0,0.53416 3.3298,2.85052 7.3997,5.14732 10.1166,5.7095 14.765,10.1132 19.8754,18.8293 6.5054,11.0953 8.9038,26.8321 6.0835,39.9158 -3.0051,13.9408 -9.1789,32.0275 -13.2587,38.8429 -1.4784,2.46974 -3.6363,6.59044 -4.7953,9.15714 -5.5506,12.292 -26.7269,38.6881 -45.461,56.6667 -28.2728,27.1326 -52.3726,42.903 -95.422,62.4422 -4.8645,2.2079 -11.0325,6.8394 -17.2242,12.9336 -14.8363,14.6027 -33.3584,25.9711 -50.648,31.0865 -9.447,2.795 -27.7357,2.7435 -35.8828,-0.1011 z m 30.9709,-10.2778 c 3.4673,-0.3801 7.3673,-1.2428 8.6666,-1.917 1.2994,-0.6743 5.0597,-2.3376 8.3562,-3.6962 10.3496,-4.2654 23.3934,-13.402 37.0802,-25.9731 3.8906,-3.5734 7.7987,-6.4971 8.6848,-6.4971 1.8547,0 34.2568,-16.0419 40.2413,-19.9231 2.2,-1.4267 5.5569,-3.4353 7.4598,-4.4634 5.7711,-3.1182 30.6914,-22.2923 39.2069,-30.1665 13.2461,-12.2485 32.5135,-32.1776 38.7172,-40.047 7.724,-9.7978 20.415,-29.90044 23.6111,-37.40004 8.3065,-19.4915 8.6243,-20.4253 11.066,-32.5196 1.9613,-9.7146 1.9529,-11.2881 -0.1107,-20.5634 -1.9655,-8.8347 -3.0279,-10.8827 -8.8236,-17.0109 -5.7351,-6.064 -8.0323,-7.4265 -17.7255,-10.513 -9.5125,-3.0289 -13.2115,-3.5104 -25.3675,-3.3017 -8.8153,0.1514 -14.7842,-0.3086 -15.6843,-1.2087 -1.0485,-1.0485 -0.787,-4.6269 0.9394,-12.85341 1.8442,-8.78779 2.2033,-14.52795 1.5672,-25.04817 -0.9651,-15.96119 -2.5872,-27.99304 -4.6386,-34.40555 -0.805,-2.51658 -2.4791,-8.1756 -3.7201,-12.5756 -2.4774,-8.78342 -2.5022,-8.84204 -11.8582,-28 -11.7933,-24.14886 -28.4008,-43.385 -44.5877,-51.64491 -7.1769,-3.66226 -20.8197,-3.22439 -26.8322,0.8612 -10.8946,7.40304 -19.6805,25.93516 -25.8146,54.45038 -0.4338,2.01666 -1.2694,3.66666 -1.8569,3.66666 -0.5875,0 -3.7261,-4.24701 -6.9746,-9.43781 -6.2697,-10.01838 -15.4126,-22.80807 -19.4648,-27.22885 -1.3444,-1.46667 -3.9438,-4.47238 -5.7763,-6.67935 -3.1338,-3.77403 -17.8056,-17.55289 -23.4397,-22.01313 -9.4559,-7.48579 -23.4605,-14.07842 -34.0203,-16.0149 -10.0246,-1.83836 -26.5249,-0.72364 -32.7061,2.20955 -6.9139,3.28082 -14.4156,10.49372 -20.2875,19.50622 -24.9592,38.30885 -29.5349,109.23295 -10.4725,162.32497 2.238,6.2333 5.4245,13.7333 7.081,16.6666 1.6565,2.9334 4.3131,7.7334 5.9036,10.6667 5.4385,10.0306 17.3167,24.3532 26.6323,32.113 5.1208,4.2656 9.3106,8.2352 9.3106,8.8213 0,0.5861 5e-4,1.4668 10e-4,1.957 7e-4,0.4902 -10.9493,1.0076 -24.3334,1.1497 -20.8679,0.2215 -25.5465,0.6644 -32.8416,3.1087 -4.6789,1.5677 -9.5935,2.8503 -10.9213,2.8503 -1.3279,0 -2.744,0.5335 -3.1471,1.1856 -0.403,0.6521 -2.1972,1.5532 -3.9872,2.0025 -4.5172,1.1337 -17.9747,9.3041 -24.4396,14.8378 -12.3152,10.54144 -20.3311,27.88414 -20.3311,43.98714 0,10.3124 4.2564,24.7241 9.3327,31.5997 1.467,1.987 2.6673,4.2414 2.6673,5.0099 0,1.4577 18.6226,20.0441 20.0832,20.0441 0.4594,0 2.4444,1.3826 4.411,3.0725 7.9759,6.8534 34.6574,18.323 49.0387,21.0803 18.0678,3.464 18.4146,3.3896 15.8334,-3.3993 -1.4622,-3.8461 -0.2993,-4.3487 4.388,-1.8966 1.6018,0.838 10.7123,9.4175 20.2457,19.0656 18.8195,19.046 25.0654,23.1039 38,24.6882 7.2305,0.8856 9.1829,0.838 21.6375,-0.5273 z m -24.3042,-10.0498 c -18.9719,-3.66 -30.9924,-18.7662 -46.7094,-58.7003 -3.0305,-7.7 -8.336,-20.3 -11.79,-28 -7.6806,-17.1224 -9.2537,-17.8501 -17.4429,-8.0689 -3.1017,3.7046 -6.5023,6.7356 -7.5571,6.7356 -3.0059,0 -3.6855,-3.7414 -1.2749,-7.0191 1.2057,-1.6395 3.4509,-4.9622 4.9893,-7.3838 2.7091,-4.2644 13.6024,-12.2856 21.785,-16.0414 9.111,-4.1819 30.0369,-7.3618 29.9796,-4.5557 -0.043,2.0988 -2.1037,4.0093 -5.3129,4.9254 -8.1817,2.3353 -21.2655,7.7196 -22.5657,9.2862 -1.0627,1.2805 -0.094,3.7284 3.7929,9.5873 13.5091,20.3613 37.5449,38.3462 60.1061,44.9747 21.5856,6.3418 25.5843,6.8931 50,6.8931 24.3256,0 34.7893,-1.5234 46.8682,-6.8232 2.3108,-1.0139 4.6592,-1.8435 5.2186,-1.8435 1.9236,0 11.2465,-4.514 11.2465,-5.4454 0,-0.5127 1.65,-1.344 3.6667,-1.8472 2.0167,-0.5033 5.5766,-2.3683 7.911,-4.1446 2.3344,-1.7762 4.6481,-3.2295 5.1415,-3.2295 0.4934,0 3.1698,-1.8 5.9475,-4 2.7777,-2.2 5.4596,-4 5.9598,-4 2.0816,0 16.7368,-12.4438 26.1383,-22.194 24.7132,-25.63 34.9172,-46.9271 34.8853,-72.81064 -0.018,-14.2591 -1.7969,-19.1197 -7.2839,-19.8984 -4.8773,-0.6921 -3.5541,-4.2466 2.3005,-6.1798 6.6259,-2.1879 15.5486,-1.0292 18.6748,2.4252 2.946,3.2553 1.7872,6.7031 -1.9266,5.7319 -1.5115,-0.3952 -2.7885,-0.1987 -2.8377,0.4369 -0.049,0.6355 -0.2722,8.6555 -0.4956,17.8221 -0.3482,14.2905 -0.9771,18.3829 -4.4106,28.70444 -4.3175,12.9786 -11.9731,26.572 -20.8029,36.9381 -7.0442,8.2698 -19.2784,20.5273 -25.6418,25.6909 -2.7113,2.2 -5.7035,4.75 -6.6493,5.6666 -0.9459,0.9167 -2.1264,1.6667 -2.6232,1.6667 -0.4969,0 -3.1761,1.8 -5.9538,4 -2.7777,2.2 -5.4559,4 -5.9516,4 -0.4957,0 -3.4094,1.6718 -6.4748,3.7152 -3.0655,2.0434 -7.6736,4.7118 -10.2402,5.9298 -13.4694,6.3922 -22.8806,10.355 -24.5916,10.355 -1.0547,0 -2.2465,0.532 -2.6484,1.1822 -0.4018,0.6502 -2.9665,1.6016 -5.6992,2.1143 -7.3114,1.3716 -10.7155,3.5367 -21.0608,13.3953 -8.3126,7.9214 -21.883,17.8959 -31.3334,23.0305 -11.6326,6.3203 -32.2733,9.4974 -45.3333,6.978 z m 26,-8.5262 c 8.2281,-1.7817 20.1233,-7.0391 25.9897,-11.4868 l 3.323,-2.5194 -2.6591,-3.5615 c -1.4625,-1.9589 -6.4203,-5.5967 -11.0173,-8.084 -7.2095,-3.9009 -9.627,-4.5224 -17.5909,-4.5224 h -9.2326 l -0.4064,6.2291 c -0.2235,3.426 -1.0454,6.439 -1.8263,6.6956 -0.781,0.2565 -3.4277,-2.3966 -5.8817,-5.8958 -10.0144,-14.2798 -29.1925,-27.9888 -37.5098,-26.813 -4.0523,0.5729 -3.7934,2.4696 2.3088,16.914 5.9269,14.0296 12.5377,24.4188 18.0864,28.4236 8.5378,6.1623 21.6265,7.823 36.4162,4.6206 z m 62,-80.6702 c -9.3756,-1.4618 -18.5429,-8.0657 -22.4195,-16.1506 -1.491,-3.1096 -2.2472,-8.0515 -2.2472,-14.6866 0,-9.0729 0.4598,-10.8168 4.9593,-18.8105 14.1364,-25.11434 42.7467,-44.16414 74.0838,-49.32794 20.8376,-3.4337 38.2217,5.0114 43.908,21.3301 3.4364,9.862 1.6658,18.86184 -6.3357,32.20274 -9.4321,15.726 -28.2835,30.4894 -50.9617,39.9103 -9.9371,4.1281 -14.5126,5.2487 -23.6537,5.7931 -6.2333,0.3712 -14.0333,0.2539 -17.3333,-0.2606 z m -40,-72.92414 c 0,-3.973 -1.1537,-5.889 -7.0255,-11.6677 -3.864,-3.8027 -8.4178,-9.6136 -10.1195,-12.9131 -1.7017,-3.2994 -4.5054,-7.499 -6.2304,-9.3323 -4.5908,-4.8791 -14.7759,-25.0139 -18.6971,-36.9622 -4.2885,-13.0677 -6.953,-25.3132 -9.2899,-42.69463 -2.954,-21.97084 1.1207,-42.28654 10.4367,-52.03563 4.3909,-4.59506 12.2866,-7.56036 16.4496,-6.17776 6.1445,2.04071 11.0675,4.75757 13.6441,7.52977 9.969,10.72596 11.3963,13.02449 16.7702,27.00709 1.9729,5.13333 4.1245,10.53333 4.7814,12 1.3485,3.01114 5.5922,21.2801 7.7429,33.33333 2.9678,16.63213 4.5621,38.50693 3.7003,50.76803 -0.8225,11.7005 -0.7117,12.5653 1.6102,12.5653 1.3715,0 4.8336,-1.6531 7.6936,-3.6736 7.4453,-5.2598 15.5719,-8.9896 28.5334,-13.0956 6.2333,-1.9746 12.8333,-5.0165 14.6667,-6.7597 13.5526,-12.8865 16.2613,-15.7755 18.07,-19.2732 2.3888,-4.6195 4.5966,-3.9643 4.5966,1.3641 0,3.5032 -3.2255,8.5258 -10.3192,16.0689 -3.5283,3.7517 -3.2556,4.1996 3.195,5.2481 5.6586,0.9198 7.4375,3.7529 2.8856,4.5956 -1.7021,0.3151 -8.4947,1.5628 -15.0947,2.7726 -24.9739,4.5778 -46.6496,16.7627 -65.9105,37.0513 -4.7175,4.9692 -9.3675,9.0348 -10.3334,9.0348 -1.1242,0 -1.7561,-1.7104 -1.7561,-4.7535 z m 14.6192,-48.5672 c -0.05,-7.7615 -4.1939,-40.0898 -6.58,-51.33408 -5.2146,-24.57392 -16.8901,-51.10854 -25.8706,-58.79547 -8.9177,-7.63324 -17.0145,-5.85528 -21.7846,4.78362 -4.7427,10.57765 -5.4707,24.79781 -2.3891,46.66667 2.5831,18.33086 3.7522,23.59676 8.4688,38.14266 5.0926,15.7058 8.0599,21.5636 9.6505,19.0515 0.6481,-1.0235 1.1875,-2.8186 1.1987,-3.9893 0.036,-3.7659 4.0638,-10.3723 6.8658,-11.2616 4.7952,-1.5219 11.5039,0.6279 15.0276,4.8157 4.2651,5.0687 10.127,16.6621 10.127,20.0286 0,2.2346 0.3466,2.352 2.6667,0.903 2.1538,-1.3451 2.6575,-3.078 2.6192,-9.0113 z m 37.3808,-8.6165 c 0,-2.538 2.8538,-8.9264 4.9844,-11.158 0.9253,-0.969 1.6823,-2.4993 1.6823,-3.4005 0,-2.8456 13.4151,-16.8251 18.7648,-19.55434 2.8209,-1.43912 6.8193,-2.61659 8.8854,-2.61659 4.7991,0 9.6831,3.40073 9.6831,6.74223 0,2.1375 -0.9412,2.5911 -5.3762,2.5911 -2.9569,0 -7.3138,0.8096 -9.6821,1.7992 -5.499,2.2976 -14.0478,10.5043 -18.9596,18.2008 -5.4541,8.5462 -9.9821,11.9012 -9.9821,7.3961 z m -0.4807,-28.3212 c -2.7793,-2.7793 1.701,-18.11335 8.2175,-28.12484 5.2102,-8.00457 9.8539,-10.95005 17.2636,-10.95005 5.6473,0 8.3329,1.8508 8.3329,5.74265 0,1.89862 -0.591,2.29934 -2.3333,1.58206 -6.1216,-2.52015 -7.1593,-2.25796 -12.2521,3.0957 -2.8372,2.98244 -7.6984,10.57338 -10.8027,16.86876 -5.7507,11.66192 -6.9175,13.29402 -8.4259,11.78572 z M 2621.599,765.86928 c 2.705,-5.05432 1.3741,-10.72656 -5.5688,-23.73472 -15.5155,-29.06953 -15.0009,-27.6192 -15.0272,-42.35293 -0.027,-15.19026 1.9569,-20.28052 10.0483,-25.7809 3.7448,-2.54562 5.8734,-3.02071 11.5086,-2.56863 10.9814,0.88096 20.3649,9.13377 24.3594,21.4242 l 1.6493,5.07468 2.6722,-5.07468 c 8.8426,-16.79345 29.2573,-25.4084 41.1762,-17.37628 10.1422,6.83483 13.425,16.91398 9.9471,30.54061 -4.9579,19.42561 -20.038,36.02244 -43.4062,47.77172 -8.1667,4.10616 -35.6316,14.65595 -38.1546,14.65595 -0.3215,0 0.037,-1.16056 0.7957,-2.57902 z m 14.5522,-4.6315 c 32.343,-11.7623 50.138,-24.92798 59.6172,-44.10779 8.1439,-16.47818 7.5839,-29.8992 -1.5837,-37.94838 -4.1096,-3.60837 -5.5736,-4.06665 -12.9908,-4.06665 -6.9301,0 -9.3998,0.65992 -14.4455,3.85977 -7.095,4.49954 -11.8714,10.35148 -15.9209,19.50601 l -2.8984,6.55231 -1.8294,-7.14847 c -3.6072,-14.09507 -9.594,-21.17871 -20.3464,-24.07402 -18.6881,-5.03221 -29.1357,16.52737 -20.5321,42.37011 1.0496,3.1528 5.5856,12.12859 10.08,19.94619 6.4743,11.26137 8.2932,15.67901 8.7566,21.26763 0.3217,3.87959 1.1881,7.05381 1.9252,7.05381 0.7371,0 5.3128,-1.44473 10.1682,-3.21052 z"
       id="path1" />
  </g>
</svg>
