<?xml version="1.0" encoding="UTF-8" standalone="no"?>
<!-- Created with Inkscape (http://www.inkscape.org/) -->

<svg
   version="1.1"
   id="svg1"
   width="399.86511"
   height="399.26883"
   viewBox="0 0 399.86511 399.26883"
   xmlns="http://www.w3.org/2000/svg"
   xmlns:svg="http://www.w3.org/2000/svg">
  <defs
     id="defs1" />
  <g
     id="g1"
     transform="translate(-697.50439,12.139617)">
    <path
       style="fill:#000000"
       d="m 871.99671,385.56766 c -19.78222,-2.84514 -37.59947,-8.07852 -58.76703,-17.26137 l -5,-2.16908 v 5.35123 c 0,2.94317 -0.53967,5.35122 -1.19927,5.35122 -1.62681,0 -19.33683,-23.90835 -18.40228,-24.84289 0.40801,-0.40801 6.33527,-0.0452 13.17169,0.80619 18.75974,2.33635 20.0097,2.98478 13.43911,6.97158 l -3.6574,2.21918 9.27586,4.1618 c 40.77014,18.29232 93.78604,20.7512 138.30046,6.41436 8.79549,-2.83277 9.03164,-3.0299 11.34874,-9.47354 1.40821,-3.9161 3.45081,-6.99193 5.04471,-7.59654 3.77955,-1.43368 3.96012,-0.80704 1.52275,5.28455 -3.2549,8.13477 0.0227,6.51903 3.7158,-1.83179 1.75627,-3.97123 4.44871,-7.89234 5.98319,-8.71357 3.31403,-1.77362 3.46552,-0.67514 0.78997,5.72835 -4.0669,9.73345 -0.48547,7.55354 3.90668,-2.37788 2.65921,-6.01295 6.62937,-9.99152 8.30166,-8.31923 0.27135,0.27133 -0.4226,2.68545 -1.54206,5.36471 -2.2846,5.46782 -1.96905,5.78647 2.70041,2.72694 3.0459,-1.99578 3.3365,-1.97857 4.191,0.24822 0.6066,1.58086 0.1196,2.87392 -1.4353,3.81111 -6.79931,4.09813 -6.84637,4.30862 -1.3559,6.06572 6.9464,2.22305 8.0813,3.47184 4.7672,5.24551 -2.1525,1.15199 -4.2809,0.89246 -9.76256,-1.19041 -4.20236,-1.59677 -7.49506,-2.17843 -8.2212,-1.45229 -0.72615,0.72614 0.99048,1.87093 4.28606,2.85831 3.02354,0.90588 5.49734,2.14064 5.49734,2.74393 0,2.24993 -6.1915,2.53282 -11.8343,0.54072 -6.50053,-2.2949 -10.75154,-2.72528 -8.7657,-0.88744 0.69667,0.64474 3.6182,1.92478 6.49228,2.84453 l 5.22562,1.67226 -3.37013,1.76579 c -2.8996,1.51926 -4.29999,1.41246 -10.03038,-0.76491 l -6.66026,-2.5307 -10.1151,3.21214 c -27.15523,8.62339 -61.71886,11.78037 -87.84166,8.02329 z M 773.47025,346.7279 c -1.2705,-1.53087 -1.36779,-2.72287 -0.35368,-4.33333 1.98845,-3.15777 5.97474,-3.58225 7.97331,-0.84904 3.70086,5.06123 -3.59943,10.02641 -7.61963,5.18237 z m 240.19135,-0.37072 c -1.7078,-3.19097 1.0982,-7.33317 4.5133,-6.6625 3.7359,0.73368 5.5937,4.48739 3.4809,7.03322 -2.3672,2.85223 -6.3687,2.66667 -7.9942,-0.37072 z m -256.09859,-5.2018 c -2.64586,-0.94664 -3.95462,-3.04264 -3.97958,-6.37332 -0.0144,-1.91498 -1.30771,-3.10325 -4.35375,-4 -3.5254,-1.03787 -4.40818,-2.0427 -4.73476,-5.3893 -0.23556,-2.41393 0.40391,-4.78193 1.54769,-5.73118 2.66647,-2.21297 10.41761,-3.32558 15.94462,-2.2887 4.32417,0.81122 4.62151,1.22183 5.45958,7.53954 0.98086,7.3941 -0.77916,12.55792 -5.21713,15.3068 -1.46667,0.90845 -3.56667,1.32972 -4.66667,0.93616 z m 272.61169,-3.04311 c -1.9758,-2.1833 -2.5573,-4.70625 -2.4753,-10.74043 0.059,-4.33775 0.5414,-8.32109 1.0722,-8.85189 0.5308,-0.53079 4.8778,-0.976 9.6599,-0.98935 7.5444,-0.0211 9.0325,0.39224 11.2465,3.12344 1.4034,1.73124 2.5517,3.93839 2.5517,4.90476 0,2.72676 -3.8735,5.94753 -7.1529,5.94753 -2.1916,0 -3.2943,1.1275 -4.2381,4.33333 -1.6071,5.45912 -6.7822,6.56197 -10.664,2.27261 z M 736.99158,310.74443 c -1.15238,-1.15239 -2.09524,-2.60953 -2.09524,-3.2381 0,-1.21693 3.74301,-5.33333 4.84956,-5.33333 2.3529,0 5.81711,3.1761 5.81711,5.33333 0,1.41506 -1.16056,3.19395 -2.57901,3.95309 -3.33541,1.78506 -3.51363,1.76379 -5.99242,-0.71499 z m 314.90472,0.6551 c -3.1988,-1.86318 -2.9328,-6.14519 0.4958,-7.98014 2.3376,-1.25104 3.3075,-1.03572 5.5826,1.23936 2.68,2.68006 2.688,2.8258 0.2976,5.46719 -2.7858,3.07827 -3.152,3.1514 -6.376,1.27359 z M 716.78637,297.54287 c -0.77882,-3.10309 0.37595,-9.29966 3.01439,-16.17532 0.39282,-1.02367 0.17402,-1.86122 -0.48623,-1.86122 -0.66024,0 -2.1273,2.54205 -3.26013,5.64901 -2.00384,5.49586 -2.10396,5.56627 -3.69295,2.59721 -1.32921,-2.48365 -1.22496,-4.28112 0.55994,-9.65496 1.20626,-3.63173 1.91562,-7.35047 1.57634,-8.26387 -0.53939,-1.45215 -1.5748,0.50897 -4.40284,8.33928 -0.60839,1.68449 -1.00571,1.6151 -2.51865,-0.43985 -1.52901,-2.07677 -1.41142,-3.55856 0.79021,-9.95771 2.36455,-6.87266 2.4163,-7.94333 0.60298,-12.47525 -1.09095,-2.72656 -3.46325,-10.84559 -5.27176,-18.04229 -10.68659,-42.52552 -7.49036,-86.36763 9.17773,-125.8892 2.57818,-6.11311 4.68761,-11.582956 4.68761,-12.155226 0,-0.57226 -2.1,-1.04047 -4.66667,-1.04047 -2.56666,0 -4.66666,-0.58413 -4.66666,-1.29807 0,-1.41779 22.36848,-18.701933 24.20333,-18.701933 1.41508,0 1.41628,-0.0612 -0.26323,13.454663 -2.33012,18.751736 -3.11565,20.401876 -6.60677,13.878666 -0.98117,-1.83333 -2.23706,-3.33333 -2.79087,-3.33333 -1.86361,0 -12.08276,28.27669 -15.61378,43.20378 -3.17028,13.4021 -3.50455,17.3716 -3.54771,42.12955 -0.0507,29.09928 0.91655,36.29371 8.01911,59.64523 l 3.33922,10.97856 6.68356,2.87519 c 5.76799,2.48132 9.2438,5.6516 9.2438,8.43126 0,0.42472 -2.17327,-0.13584 -4.8295,-1.24568 -6.03044,-2.51968 -7.97724,-2.59652 -6.01951,-0.2376 0.81263,0.97915 3.92934,2.58946 6.92601,3.57845 2.99668,0.989 6.30527,3.02137 7.35242,4.51639 2.34831,3.35267 2.45379,5.3039 0.23725,4.3886 -0.91667,-0.37853 -3.89792,-1.64295 -6.62501,-2.80981 -4.1295,-1.76692 -4.83616,-1.80318 -4.22746,-0.21691 0.40199,1.04756 3.73565,2.98515 7.40814,4.30576 5.94263,2.13694 10.42648,6.25285 8.69647,7.98286 -0.34682,0.34682 -2.79543,-0.27395 -5.44136,-1.37949 -5.42452,-2.26651 -5.67315,-2.03513 -2.69585,2.5088 2.07897,3.17292 1.6515,6.01172 -0.90525,6.01172 -0.71479,0 -2.59552,-2.19639 -4.17941,-4.88088 l -2.87979,-4.88088 -2.07524,6.11993 c -2.66385,7.85573 -3.73091,8.81133 -4.85188,4.34504 z m 346.10993,-5.98208 c 0,-6.01496 2.8627,-24.57932 3.9791,-25.80424 0.5429,-0.59571 2.1775,0.79695 3.6324,3.09479 l 2.6453,4.17789 3.0607,-7.09478 c 18.0808,-41.91144 21.1492,-90.90511 8.3686,-133.62309 l -3.5489,-11.86163 -6.941,-3.17771 c -6.2396,-2.85658 -9.6902,-6.38272 -7.9495,-8.12343 0.3535,-0.35351 3.1234,0.34985 6.1554,1.56301 3.6048,1.44234 5.3341,1.66987 4.9966,0.65743 -0.2838,-0.85158 -3.6064,-2.80737 -7.3834,-4.34619 -4.0812,-1.66277 -7.4266,-4.02551 -8.246,-5.82386 -1.6232,-3.562506 -0.7475,-3.716456 5.7346,-1.00809 7.796,3.25741 5.6512,-0.354766 -2.2981,-3.870356 -6.1148,-2.70422 -10.1246,-6.67318 -8.4419,-8.35587 0.2714,-0.27133 2.6855,0.42259 5.3648,1.54206 5.4274,2.26774 5.778,1.95612 2.8413,-2.525777 -1.8014,-2.749231 -1.8052,-3.284792 -0.034,-4.754403 1.6719,-1.38755 2.479,-0.836834 4.9761,3.395428 l 2.9805,5.051602 2.854,-6.53624 c 2.66,-6.091825 2.9565,-6.344663 4.3619,-3.718652 1.1881,2.220009 0.9651,4.395533 -1.0518,10.257662 -1.4079,4.09204 -2.0257,7.77013 -1.373,8.17352 0.6527,0.40339 1.9109,-1.68388 2.7961,-4.63838 0.8852,-2.9545 2.0741,-5.37182 2.6419,-5.37182 2.3442,0 2.6022,5.80774 0.5347,12.032586 -1.2141,3.65528 -1.9299,7.39329 -1.5906,8.30669 0.5394,1.45215 1.5748,-0.50897 4.4028,-8.33928 0.6084,-1.684486 1.0057,-1.615096 2.5187,0.43985 1.5288,2.07655 1.4124,3.55564 -0.7819,9.93338 -2.5697,7.46918 -2.5691,7.52073 0.2051,15.85716 11.4015,34.26155 12.0999,79.18479 1.7844,114.78928 -2.8474,9.8282 -4.9827,15.47408 -12.0949,31.98033 -0.499,1.15802 0.7496,1.66667 4.0912,1.66667 3.0463,0 4.8093,0.63261 4.8093,1.72567 0,1.55939 -21.1945,18.27433 -23.1718,18.27433 -0.4555,0 -0.8282,-1.77549 -0.8282,-3.94554 z m -9.9608,-219.194248 c -2.7332,-1.998571 -2.3087,-5.984862 0.8491,-7.973312 1.6104,-1.014114 2.8024,-0.916824 4.3333,0.353682 4.844,4.020195 -0.1211,11.320491 -5.1824,7.61963 z M 736.99158,70.744429 c -1.15238,-1.152381 -2.09524,-2.609524 -2.09524,-3.238095 0,-1.481191 3.85214,-5.333333 5.33334,-5.333333 1.48119,0 5.33333,3.852142 5.33333,5.333333 0,1.481191 -3.85214,5.333333 -5.33333,5.333333 -0.62858,0 -2.08572,-0.942857 -3.2381,-2.095238 z M 1033.563,58.587437 c -4.3923,-0.900352 -5.2923,-2.557787 -5.2933,-9.74777 -10e-4,-8.905809 2.3592,-12.666666 7.9494,-12.666666 4.0205,0 4.7287,0.527278 5.8202,4.333333 0.8923,3.111155 2.0345,4.339092 4.0499,4.35375 10.9067,0.07933 7.3384,12.964368 -3.8616,13.944219 -2.9322,0.256525 -6.8313,0.158936 -8.6646,-0.216866 z M 748.3688,56.486678 c -4.76394,-2.456406 -6.01146,-7.108013 -2.77443,-10.345041 1.44942,-1.449417 3.83531,-2.635303 5.30197,-2.635303 2.06704,0 2.66667,-0.888889 2.66667,-3.953088 0,-5.712395 4.46277,-7.884212 9.09472,-4.425963 4.1797,3.120594 5.71399,8.303895 4.68348,15.822259 -0.58749,4.28623 -1.4667,5.85106 -3.61073,6.426451 -4.73698,1.271258 -11.98528,0.851641 -15.36168,-0.889315 z m 266.5806,-21.583027 c -2.3576,-2.840785 -0.446,-7.397317 3.1035,-7.397317 2.898,0 6.1768,2.214307 6.1768,4.171429 0,1.617458 -4.0732,5.161904 -5.932,5.161904 -0.9578,0 -2.4645,-0.871207 -3.3483,-1.936016 z M 773.88077,33.957428 c -2.79233,-2.792326 -1.92481,-6.331591 1.77986,-7.261403 4.18636,-1.050711 6.27685,0.785146 5.68193,4.989862 -0.50486,3.568257 -4.84411,4.889224 -7.46179,2.271541 z m 21.01557,-4.493919 c 0,-0.39022 0.88629,-2.830683 1.96954,-5.42325 l 1.96953,-4.713759 -4.43165,2.738911 c -2.43741,1.506401 -4.8237,2.346864 -5.30287,1.867695 -1.96115,-1.96115 -0.60037,-4.326623 4.12879,-7.17717 l 5,-3.013799 -6.33334,-2.018659 c -3.48333,-1.110262 -6.33333,-2.5018858 -6.33333,-3.0924978 0,-2.31345 6.88889,-2.658607 12.02733,-0.602612 5.58217,2.2335398 10.47963,2.8741378 8.75089,1.144633 -0.54976,-0.55 -3.49976,-1.992879 -6.55556,-3.206397 l -5.55599,-2.206397 3.73044,-1.451516 c 2.88532,-1.122679 4.8101,-1.000405 8.49616,0.53973 5.38742,2.251008 13.94084,2.803997 9.10673,0.588762 -1.46667,-0.672101 -4.46667,-1.896685 -6.66667,-2.72129702 -3.99191,-1.496262 -3.99382,-1.502157 -0.9478,-2.91479998 2.30962,-1.071125 4.8052,-0.8629196 10.25756,0.855788 7.09992,2.23805298 7.35771,2.22235498 17.61447,-1.07266 46.04585,-14.7923502 95.3954,-12.6536862 139.54144,6.047316 5.02278,2.127735 9.67278,3.534593 10.33333,3.126351 0.66055,-0.408243 1.201,-2.506849 1.201,-4.66357 0,-2.15672102 0.45,-3.920998 1,-3.920616 1.5392,0.0011 19.42796,24.0157568 18.54636,24.8974078 -1.2815,1.281454 -29.29811,-2.782236 -29.80519,-4.323109 -0.25792,-0.783753 1.0448,-2.235141 2.89494,-3.225306 1.85014,-0.990165 3.36389,-2.2553 3.36389,-2.811412 0,-1.332673 -18.23596,-8.3239268 -32.22119,-12.35287482 C 931.365,-5.2045821 920.9212,-6.4995531 896.22968,-6.3925231 c -24.71859,0.1071473 -38.71966,2.2031123 -59.31437,8.8793813 -8.92807,2.894249 -9.44541,3.295964 -12.47409,9.6861428 -3.19485,6.740794 -4.88699,8.609131 -7.83083,8.646249 -1.12647,0.0142 -0.83655,-1.805621 0.95262,-5.979583 1.41455,-3.3 1.98566,-5.9999998 1.26914,-5.9999998 -0.71652,0 -2.73971,3.2491948 -4.49598,7.2204328 -1.75627,3.971237 -4.44871,7.892348 -5.98319,8.713578 -3.38632,1.812304 -3.57202,0.518719 -0.85801,-5.976836 1.0925,-2.614712 1.36159,-4.623841 0.61929,-4.623841 -0.72198,0 -2.51857,2.85 -3.99244,6.333333 -1.47386,3.483333 -3.66722,7.083333 -4.87412,8 -2.27823,1.730356 -4.35136,2.186387 -4.35136,0.957175 z"
       id="path1" />
  </g>
</svg>
