<?xml version="1.0" encoding="UTF-8" standalone="no"?>
<!-- Created with Inkscape (http://www.inkscape.org/) -->

<svg
   version="1.1"
   id="svg1"
   width="839.71045"
   height="1259.5405"
   viewBox="0 0 839.71045 1259.5405"
   xmlns="http://www.w3.org/2000/svg"
   xmlns:svg="http://www.w3.org/2000/svg">
  <defs
     id="defs1" />
  <g
     id="g1"
     transform="translate(-1297.8606,-23.600577)">
    <path
       style="fill:#000000"
       d="m 2012.2372,1281.2198 c 0,-1.0567 0.6,-2.2921 1.3334,-2.7454 0.7333,-0.4532 1.3333,-2.2495 1.3333,-3.9919 0,-1.7423 0.6466,-4.8569 1.4369,-6.9213 l 1.4368,-3.7534 1.7438,4.1232 c 0.9591,2.2679 2.1652,6.6179 2.6803,9.6667 l 0.9366,5.5434 h -5.4505 c -3.8569,0 -5.4506,-0.5618 -5.4506,-1.9213 z m 15.3957,-4.412 c 0.8391,-5.9551 4.9489,-14.7653 9.8684,-21.155 1.1949,-1.5519 4.4,-7.2697 7.1226,-12.7062 2.7226,-5.4364 8.5494,-14.3004 12.9484,-19.6977 4.399,-5.3972 7.9983,-10.3168 7.9983,-10.9324 0,-2.1724 17.8606,-13.1815 19.2045,-11.8375 1.4841,1.4841 -1.6181,5.8944 -16.4904,23.4437 -11.095,13.0921 -18.8099,25.3321 -28.7141,45.5563 -5.5726,11.3791 -7.1725,13.6172 -9.7484,13.6376 -2.9149,0.023 -3.0334,-0.3184 -2.1893,-6.3088 z m 17.9377,-6.1701 c 0,-1.0102 0.9,-2.5837 2,-3.4966 2.1202,-1.7597 2.6023,-0.4544 1.1906,3.2243 -0.9956,2.5945 -3.1906,2.7819 -3.1906,0.2723 z m -370.9072,-37.8793 c -8.0028,-5.8993 -9.6476,-13.3755 -8.4779,-38.5355 0.94,-20.2208 -0.2863,-40.1426 -3.4613,-56.2288 l -1.4107,-7.147 -11.5381,1.147 c -6.346,0.6309 -18.1382,0.9864 -26.2048,0.79 -13.1411,-0.3198 -15.9843,-0.8575 -27.3334,-5.1693 -6.9666,-2.6469 -15.9666,-6.0274 -20,-7.5124 -11.0579,-4.0713 -25.1284,-11.2505 -33.3333,-17.0077 -4.0333,-2.8301 -11.5957,-7.3497 -16.8052,-10.0435 -5.2095,-2.6938 -11.6123,-7.0756 -14.2284,-9.7373 -5.4229,-5.5174 -15.3372,-16.623 -19.0961,-21.3907 -1.3953,-1.7698 -6.2286,-7.5276 -10.7405,-12.7951 -9.4542,-11.0374 -26.3754,-38.423 -28.7279,-46.4937 -0.8806,-3.02132 -3.2495,-8.71539 -5.2641,-12.65349 -2.0146,-3.93811 -4.0627,-9.03811 -4.5514,-11.33334 -1.3922,-6.53996 -12.327,-30.39932 -20.7576,-45.29251 -2.8392,-5.01566 -5.1621,-9.65665 -5.1621,-10.31331 0,-1.52056 -7.9393,-14.46379 -10.6307,-17.33089 -2.8988,-3.0881 -5.6914,-6.70257 -8.2644,-10.69655 -1.2256,-1.90249 -5.6483,-6.70225 -9.8281,-10.66614 -7.3386,-6.9594 -11.4418,-12.39565 -17.2111,-22.80266 -1.5028,-2.71092 -7.5324,-10.72036 -13.3991,-17.79878 -5.8666,-7.07842 -12.8907,-16.2604 -15.6089,-20.40441 -2.7182,-4.144 -6.0295,-8.73455 -7.3585,-10.20122 -9.7782,-10.79163 -14.984,-24.71214 -14.9587,-40 0.014,-8.4979 0.8452,-12.97099 4.0874,-22 2.2383,-6.23333 4.5493,-13.43333 5.1354,-16 1.3673,-5.9869 5.2839,-18.55266 6.8572,-22 1.1904,-2.60827 0.7532,4.45274 -1.0693,17.26814 -0.723,5.08449 -0.086,10.29082 4.4104,36.06519 3.0983,17.75877 5.7065,25.83101 10.9856,34 2.6065,4.03334 6.2065,10.02825 7.9999,13.32203 1.7934,3.29378 6.619,10.96402 10.7235,17.04498 4.1045,6.08096 9.0573,13.843 11.0063,17.24898 5.4087,9.45207 6.4767,10.85742 15.6789,20.6327 7.0822,7.52332 9.8379,9.48182 16,11.37157 4.0943,1.2556 9.608,3.67739 12.2526,5.38175 3.5896,2.31334 8.1522,3.45634 18,4.50925 25.2737,2.70222 31.3903,2.79952 40.4426,0.64328 7.5082,-1.78843 26.3112,-5.76493 37.4156,-7.91276 1.8334,-0.35461 11.0399,-2.20407 20.459,-4.10993 9.4191,-1.90585 19.1396,-3.46518 21.601,-3.46518 6.3455,0 17.94,2.65659 17.94,4.11049 0,0.67256 0.6352,1.22284 1.4115,1.22284 1.5743,0 9.5574,6.10146 17.7952,13.60076 2.981,2.71375 6.8858,5.30199 8.6773,5.75164 1.7916,0.44965 6.9006,2.51817 11.3534,4.59672 11.9323,5.56996 18.393,6.96721 27.468,5.94049 4.3787,-0.4954 7.9613,-1.42322 7.9613,-2.06183 0,-0.63861 1.95,-1.18219 4.3333,-1.20795 8.6426,-0.0934 27.9683,-5.61772 35.7655,-10.22363 4.7781,-2.82246 7.9012,-8.46246 7.9012,-14.26859 0,-2.63685 0.6575,-4.79427 1.4612,-4.79427 1.0255,0 1.2338,-5.46652 0.6985,-18.33334 -0.4195,-10.08333 -1.1442,-27.55345 -1.6104,-38.82248 -0.9129,-22.06784 0.4316,-33.2622 4.9549,-41.25373 2.8467,-5.0295 3.2463,-10.97327 0.8958,-13.32379 -1.8851,-1.88513 -11.5429,-2.04427 -19.0084,-0.31323 -8.1264,1.88428 -53.7744,-0.64795 -63.448,-3.51964 -4.369,-1.29698 -7.9436,-2.82517 -7.9436,-3.39597 0,-0.5708 -0.5699,-1.03782 -1.2665,-1.03782 -0.6966,0 -3.9336,-1.8 -7.1934,-4 -3.2597,-2.2 -6.4957,-4 -7.191,-4 -0.6953,0 -5.4083,-2.91547 -10.4733,-6.47881 -9.1593,-6.44373 -13.0251,-10.36637 -20.8809,-21.18786 -5.8807,-8.10082 -11.0025,-7.73297 -14.6598,1.05288 -2.6739,6.42318 -5.8209,9.28045 -10.2216,9.28045 -5.4629,0 -18.0411,-4.66295 -24.4763,-9.07385 -3.1005,-2.12512 -7.209,-4.81545 -9.1301,-5.97852 -4.3998,-2.66378 -15.8316,-19.47862 -19.2271,-28.28096 -2.1348,-5.53427 -2.5673,-10.06385 -2.546,-26.66667 0.023,-17.85478 0.364,-20.85808 3.1812,-28 4.0193,-10.18949 7.832,-15.81685 13.8044,-20.37444 2.613,-1.99406 7.5776,-6.80543 11.0323,-10.69194 6.9535,-7.8227 12.4773,-11.09614 22.8373,-13.53369 7.3768,-1.73561 9.6787,-1.39284 18.9827,2.82659 3.7633,1.70672 7.3063,2.39783 9.7683,1.90544 2.5153,-0.50305 6.0374,0.22644 10.0948,2.09079 7.887,3.62402 30.3494,10.44392 34.3987,10.44392 1.6865,0 6.2388,1.14904 10.1163,2.55341 3.8775,1.40438 11.8484,2.96948 17.7131,3.478 6.7631,0.58642 12.859,2.01184 16.6667,3.89725 6.2345,3.08706 24.3072,6.86511 26.4638,5.53222 0.6784,-0.41925 3.1478,-0.0949 5.4876,0.72074 2.9001,1.01097 4.6883,1.04882 5.6183,0.11891 0.9299,-0.9299 0.049,-1.65295 -2.7677,-2.27159 -4.4062,-0.96775 -5.6956,-3.37004 -1.7985,-3.35068 1.2834,0.006 5.4834,0.38994 9.3334,0.85238 5.6351,0.67687 7,1.32452 7,3.32175 0,1.36452 0.6354,2.48094 1.412,2.48094 0.7766,0 1.0412,-0.6 0.588,-1.33333 -0.4533,-0.73333 0.1113,-1.33333 1.2546,-1.33333 1.1433,0 2.0787,0.6 2.0787,1.33333 0,0.73333 0.8812,1.33333 1.9581,1.33333 1.1928,0 1.6582,-0.78172 1.1907,-2 -0.8829,-2.30091 1.5707,-2.7386 2.9392,-0.52431 0.6648,1.0758 1.1617,1.07156 1.8337,-0.0157 0.5667,-0.91699 2.598,-1.15609 5.2742,-0.62084 3.081,0.6162 3.8342,1.20504 2.5783,2.01566 -2.7101,1.7492 1.1577,3.76666 7.2686,3.7914 5.0306,0.0204 13.1547,2.75122 16.538,5.55917 1.3134,1.09004 1.3995,1.94674 0.3255,3.24084 -1.5425,1.85858 -0.5088,7.22041 1.392,7.22041 0.6153,0 0.7784,1.3012 0.3625,2.89156 -0.5998,2.2937 -0.2983,2.71587 1.4582,2.04185 2.3102,-0.88652 2.4005,-0.6118 2.7185,8.2756 0.2239,6.25855 3.048,6.79459 3.7579,0.7133 0.4647,-3.97975 -0.2624,-5.95219 -3.9971,-10.84339 -3.0812,-4.03529 -4.1263,-6.4176 -3.2151,-7.32883 0.9113,-0.91123 2.1881,-0.51216 3.9279,1.22769 2.8521,2.85212 7.1299,3.41864 8.7129,1.15388 0.6759,-0.96704 2.0355,-0.30324 4,1.95291 6.0357,6.932 9.6052,12.27249 9.6237,14.39871 0.01,1.20086 1.3405,2.76341 2.9557,3.47232 2.0871,0.91601 3.0515,2.65196 3.3333,6 0.3987,4.73618 1.6273,5.29701 7.3726,3.36547 2.8693,-0.96466 -0.2059,-6.22139 -4.9786,-8.5104 -5.7306,-2.74844 -6.3946,-4.92122 -1.8524,-6.06125 1.977,-0.49619 5.1948,-2.61528 7.1507,-4.70909 l 3.5562,-3.80694 -4.3004,-5.92587 c -2.3652,-3.25924 -5.2468,-6.28904 -6.4035,-6.7329 -3.4695,-1.33137 -0.9696,-4.58237 4.2777,-5.56287 2.6992,-0.50438 5.6782,-1.55386 6.6199,-2.33218 2.402,-1.98515 27.8818,-3.99067 30.8075,-2.42487 1.2873,0.68892 4.0969,3.78305 6.2437,6.87585 3.6439,5.24965 3.9627,6.73883 4.798,22.41303 0.4921,9.23436 1.3201,22.43637 1.84,29.33779 1.2239,16.24717 -0.9981,28.22333 -7.8043,42.063 -8.3328,16.94389 -10.9706,19.76154 -20.6767,22.08683 -3.908,0.93624 -4.5526,0.68983 -5.6337,-2.15367 -1.4007,-3.68406 -5.7409,-4.28055 -8.8106,-1.21086 -1.7777,1.77777 -1.7548,2 0.2064,2 1.2135,0 1.9518,0.75 1.6406,1.66666 -0.9271,2.73136 -11.9078,1.31349 -14.6493,-1.89157 -1.2794,-1.49574 -1.9707,-3.29484 -1.5361,-3.998 0.4346,-0.70315 -0.2948,-2.47728 -1.6208,-3.94251 -2.0367,-2.25054 -2.1153,-2.84672 -0.5067,-3.84092 1.5539,-0.96033 1.2988,-1.7029 -1.3863,-4.03593 -2.4808,-2.15548 -4.3937,-2.6808 -7.7731,-2.13468 -5.34,0.86295 -17.3302,8.68135 -25.1135,16.37561 -3.0778,3.04259 -6.0778,5.74259 -6.6667,6 -0.5888,0.2574 -3.2341,1.93231 -5.8782,3.72202 -4.5073,3.05073 -4.7675,3.6095 -4.1663,8.94418 0.4046,3.58914 -0.1816,7.74702 -1.5875,11.26076 -1.2259,3.06383 -2.4785,9.83895 -2.7835,15.05582 -0.6464,11.05504 -2.9635,31.64711 -4.7432,42.15189 -0.6833,4.03333 -1.6364,18.2462 -2.1179,31.58414 -0.7496,20.76141 -0.5755,24.70869 1.2095,27.43301 1.9739,3.0125 34.711,20.11254 46.8308,24.46176 9.3059,3.33947 10.1527,2.85997 10.2645,-5.81224 0.054,-4.21667 0.5043,-10.36667 1,-13.66667 0.7501,-4.99409 1.4347,-6.07544 4.0837,-6.44999 1.7504,-0.24749 3.6912,0.35251 4.3129,1.33333 0.6217,0.98083 1.1396,8.19079 1.1508,16.02213 l 0.02,14.2388 7.6667,1.43399 c 4.2166,0.78869 9.4666,2.08392 11.6666,2.87829 8.2347,2.97332 13.8657,3.83765 34,5.21882 11.3667,0.77972 21.311,1.63734 22.0984,1.90581 1.9355,0.65989 21.391,-5.12906 27.3953,-8.15144 2.6548,-1.33636 6.49,-4.41768 8.5228,-6.84738 2.0327,-2.4297 8.4663,-8.04915 14.297,-12.48766 9.3346,-7.10581 11.1388,-7.98279 15.1007,-7.33986 3.8945,0.63199 5.3568,-0.0263 10.876,-4.89573 3.5071,-3.09423 10.4265,-8.80502 15.3765,-12.69063 4.95,-3.88562 9,-7.58582 9,-8.22268 0,-0.63686 1.4324,-2.59036 3.1832,-4.34113 5.0151,-5.01505 13.7471,-22.10106 16.1519,-31.60467 1.2062,-4.76667 4.231,-14.66667 6.7218,-22 4.8805,-14.3694 9.3928,-34.20645 11.2878,-49.6245 0.6507,-5.29348 1.8569,-10.88365 2.6805,-12.4226 0.9927,-1.85491 1.3066,-9.39724 0.9311,-22.37549 -0.7071,-24.44176 -2.5874,-41.66021 -7.5254,-68.91074 -2.1261,-11.73334 -4.254,-25.13929 -4.7286,-29.79101 -0.4745,-4.65173 -1.4596,-10.02722 -2.1889,-11.94554 -0.7294,-1.91832 -2.2173,-10.41236 -3.3065,-18.87565 -1.0893,-8.46329 -2.8564,-19.71251 -3.927,-24.99826 -1.0706,-5.28571 -1.9465,-11.79257 -1.9465,-14.45964 0,-2.66708 -1.1484,-8.84237 -2.5519,-13.72288 -1.4035,-4.88051 -3.8378,-16.07365 -5.4097,-24.87365 -6.1323,-34.33226 -11.5614,-53.05435 -17.9788,-62 -2.3674,-3.3 -4.7043,-7.11225 -5.1932,-8.47167 -0.6224,-1.7307 -1.5851,-2.17894 -3.211,-1.49521 -1.2772,0.53706 -3.7372,1.28171 -5.4669,1.65478 -2.7535,0.59394 -3.0526,1.24558 -2.4046,5.23876 0.8492,5.23345 -0.029,8.40667 -2.3274,8.40667 -3.3918,0 -8.6988,-3.4638 -9.3645,-6.11208 -0.3841,-1.52831 -2.512,-5.06082 -4.7286,-7.85001 -4.5547,-5.7314 -5.502,-13.8232 -1.962,-16.76108 2.5099,-2.08306 2.0792,-9.47048 -0.6036,-10.35265 -1.3736,-0.45167 -1.6576,0.19362 -1.0714,2.43494 0.4386,1.67721 -0.066,4.71953 -1.1217,6.76071 -1.0556,2.04119 -1.5593,4.64926 -1.1193,5.79571 0.4399,1.14646 0.1357,2.08446 -0.6761,2.08446 -0.8118,0 -1.476,1.00276 -1.476,2.22835 0,1.22559 -0.9064,3.2299 -2.0142,4.45402 -1.5635,1.72767 -2.0395,6.07235 -2.1271,19.41701 -0.1419,21.60183 -1.3194,24.56729 -9.7548,24.56729 -5.0018,0 -6.4141,-0.66794 -9.9658,-4.71306 -4.8673,-5.54359 -5.2917,-10.56881 -1.983,-23.48377 1.3096,-5.11183 1.8828,-11.0506 1.461,-15.13711 -0.768,-7.44154 -4.8232,-17.98652 -6.9306,-18.02243 -0.7437,-0.0127 -2.6471,-1.39001 -4.2298,-3.06076 -1.5827,-1.67074 -5.5978,-4.43677 -8.9225,-6.14672 -3.3247,-1.70995 -6.326,-3.84162 -6.6696,-4.73705 -0.3436,-0.89543 -3.8285,-3.29632 -7.7442,-5.33531 -9.7356,-5.06957 -19.718,-13.13827 -24.1194,-19.49553 -2.0167,-2.91283 -3.6742,-5.72479 -3.6833,-6.24882 -0.01,-0.52402 -2.4091,-3.52885 -5.3333,-6.67738 -2.9242,-3.14853 -5.3167,-6.86312 -5.3167,-8.25464 0,-1.39152 -0.5654,-2.87944 -1.2563,-3.30648 -0.691,-0.42703 -1.648,-3.38829 -2.1267,-6.58057 -0.7754,-5.17063 -0.3726,-6.51341 3.6903,-12.30226 7.0865,-10.09668 10.7662,-11.969 25.2567,-12.85108 6.8398,-0.41636 17.536,-1.94977 23.7693,-3.40757 6.2333,-1.4578 14.6333,-3.3245 18.6667,-4.1482 4.0333,-0.82371 10.0333,-2.10135 13.3333,-2.83921 3.3448,-0.74788 11.9004,-0.98243 19.3333,-0.53001 7.3334,0.44636 21.0591,0.19997 30.5016,-0.54753 14.9659,-1.18474 17.5829,-1.74871 20.4012,-4.39637 3.0353,-2.85151 4.6764,-3.08604 26.8318,-3.83453 12.9793,-0.43849 24.5688,-1.23869 25.7543,-1.77821 1.2414,-0.56493 3.0276,-4.48357 4.2116,-9.23985 1.1308,-4.54238 3.3594,-13.05888 4.9523,-18.92555 1.8434,-6.78886 3.5209,-19.14937 4.6144,-34 0.9449,-12.83333 2.4945,-29.66101 3.4434,-37.39483 1.3753,-11.20889 1.4079,-18.78256 0.1606,-37.33333 -1.8961,-28.19836 -1.9713,-49.86788 -0.2104,-60.60517 0.7216,-4.4 1.9553,-17.299999 2.7416,-28.666666 1.3969,-20.194986 2.8726,-25.635505 6.3677,-23.475416 3.0797,1.903357 5.3917,14.343328 6.2214,33.475416 0.9044,20.854576 1.646,31.870876 2.8272,41.999996 0.3848,3.3 1.2274,15.9 1.8724,28 0.645,12.1 1.8563,26.8 2.6918,32.66667 2.9461,20.68704 3.577,32.28847 3.2994,60.66666 -0.1726,17.64605 -0.8822,30.46072 -1.8458,33.33334 -0.8609,2.56666 -1.9408,10.20116 -2.3997,16.96554 -0.6732,9.92185 -0.4739,12.39922 1.0311,12.81804 1.026,0.28553 4.851,1.23499 8.5001,2.10991 3.649,0.87492 6.949,2.0757 7.3333,2.6684 0.3843,0.5927 4.0654,2.96898 8.1802,5.28062 9.578,5.3808 18.1204,13.88068 21.5297,21.42257 1.4748,3.26246 3.9506,7.02887 5.5018,8.36979 l 2.8204,2.43804 -3,2.12617 c -1.6889,1.19691 -3,3.52639 -3,5.32988 0,2.26759 -1.0707,3.61078 -3.6643,4.59684 -2.0153,0.76623 -4.5653,2.16926 -5.6666,3.11785 -1.1014,0.9486 -4.9675,2.83229 -8.5915,4.18598 -3.6239,1.3537 -9.3239,4.32972 -12.6666,6.61338 -3.3428,2.28366 -8.7956,5.49856 -12.1174,7.14422 l -6.0396,2.9921 -0.073,8.91033 c -0.04,4.90069 -0.226,15.21034 -0.4132,22.91034 -0.3044,12.52044 1.7621,29.93301 5.9735,50.33333 0.6613,3.20353 0.4205,4.33866 -0.9235,4.35375 -1.3737,0.0154 -1.4199,0.27333 -0.1891,1.05535 2.8132,1.78737 5.2523,17.43919 4.2995,27.5909 -2.6647,28.39466 -5.5306,56.69539 -7.2911,72 -1.0966,9.53333 -1.9886,21.2938 -1.9822,26.13437 0.016,12.3564 -1.8721,17.19896 -6.7068,17.19896 -2.085,0 -4.1514,-0.58327 -4.5919,-1.29616 -1.878,-3.03854 -1.1632,-31.83544 1.0871,-43.79728 1.2857,-6.83473 2.8886,-19.73473 3.5619,-28.66667 0.6733,-8.93194 1.8302,-21.33989 2.5708,-27.57322 2.0496,-17.24928 2.2613,-45.57646 0.4684,-62.66667 -3.1823,-30.33392 -8.5688,-38.6369 -21.9929,-33.90061 -9.6377,3.40038 -10.5157,4.89669 -10.4625,17.83024 0.026,6.27204 -0.4501,25.20371 -1.0574,42.07037 -0.6074,16.86667 -0.8284,43.26667 -0.4913,58.66667 0.5255,24.00426 -0.083,38.04389 -2.9593,68.32369 -0.3037,3.19647 -2.0811,5.88954 -2.0811,3.15318 0,-0.89884 -0.6,-1.26343 -1.3334,-0.8102 -0.7333,0.45322 -1.3333,2.3621 -1.3333,4.24195 0,2.91104 0.3014,3.16779 2.0322,1.73131 1.1177,-0.92763 2.3543,-1.36449 2.748,-0.97079 1.5308,1.53081 3.1711,18.40434 3.2725,33.66419 0.059,8.8 0.6554,19 1.3265,22.66667 4.2878,23.42619 7.0388,86.09357 3.8654,88.05482 -0.7821,0.48338 -1.7872,0.51367 -2.2336,0.0673 -0.4464,-0.44636 -1.2679,-10.25644 -1.8255,-21.80018 -0.5577,-11.54373 -1.3196,-22.48861 -1.6931,-24.32194 -0.3735,-1.83333 -1.3481,-8.13333 -2.1658,-14 -1.5027,-10.7815 -4.3866,-22.02162 -6.7663,-26.37161 -0.7136,-1.30438 -2.2375,-7.30438 -3.3866,-13.33333 -2.3344,-12.24775 -3.4415,-79.23331 -1.6466,-99.62839 1.4406,-16.36913 2.2332,-26.81437 3.2404,-42.70228 0.7606,-11.99652 0.578,-14.29439 -1.2564,-15.81684 -1.8085,-1.5009 -2.2698,-1.45924 -2.9313,0.26476 -0.4319,1.12529 -0.079,3.36562 0.7843,4.9785 1.0096,1.88644 1.2498,5.49078 0.6734,10.10419 -0.7147,5.71984 -1.3876,7.17167 -3.3241,7.17167 -1.3355,0 -2.7735,0.9 -3.1956,2 -0.4221,1.1 -1.6863,2 -2.8093,2 -1.123,0 -2.0418,-0.9 -2.0418,-2 0,-1.1 -0.585,-2 -1.3,-2 -1.8123,0 -0.1083,8.15742 2.2803,10.91598 1.0711,1.23712 1.5919,2.82481 1.1572,3.52818 -2.7466,4.44396 -3.3663,42.4586 -0.8181,50.18112 1.6909,5.12466 2.8566,15.5838 3.3481,30.04138 0.405,11.91497 5.2116,46.30758 7.2673,52 0.662,1.83334 1.5209,6.33334 1.9085,10 0.3876,3.66667 1.3723,11.46667 2.1882,17.33334 3.1976,22.99179 2.2346,56.56539 -1.9785,68.97472 -1.0952,3.22594 -2.1341,9.27633 -2.3085,13.44531 -0.3319,7.93031 -1.7063,9.66112 -3.6371,4.57997 -1.0183,-2.67988 -1.2419,-2.4309 -2.0954,2.33333 -0.5256,2.93333 -1.7933,7.9043 -2.8171,11.0466 -1.0239,3.14229 -1.8616,7.71882 -1.8616,10.17007 0,2.45125 -0.8684,5.17754 -1.9298,6.05843 -1.0615,0.88089 -2.9919,4.40436 -4.29,7.82993 -1.2981,3.42557 -3.5796,8.05408 -5.0702,10.28559 -1.4905,2.23151 -4.1588,7.17348 -5.9296,10.98217 -3.1595,6.79579 -3.1751,7.00746 -0.834,11.35459 2.1747,4.03814 2.2061,4.77636 0.3549,8.35117 -2.4946,4.8175 -18.4725,20.67038 -25.6749,25.47402 -2.9112,1.94161 -8.3043,6.28658 -11.9846,9.65548 -3.6803,3.36891 -13.7054,10.62528 -22.2779,16.12528 l -15.5864,10 -0.055,9.37 c -0.034,5.6843 -0.7745,10.4045 -1.8834,12 -1.0054,1.4465 -2.5225,5.88908 -3.3713,9.8724 -0.8488,3.98331 -2.0496,7.88331 -2.6685,8.66666 -0.6188,0.78335 -1.4558,6.82428 -1.8599,13.42428 -0.7189,11.74203 -3.7365,20.83313 -8.5512,25.76193 -1.191,1.2191 -1.7211,6.1979 -1.7211,16.1629 v 14.401 l 5.3109,0.8493 c 5.712,0.9133 7.836,4.4442 6.0529,10.062 -1.206,3.7999 -8.9615,3.6901 -16.7435,-0.2371 -8.6932,-4.3871 -9.5175,-6.8245 -8.9205,-26.3752 0.495,-16.2087 0.6522,-16.9665 5.2533,-25.3333 4.0193,-7.30887 4.847,-10.27847 5.4244,-19.46235 0.3921,-6.23651 1.5324,-12.18011 2.686,-14 1.1026,-1.73939 2.6849,-6.43801 3.5163,-10.4414 0.8314,-4.00338 2.436,-8.30032 3.5658,-9.54875 1.1298,-1.24843 1.8593,-3.7896 1.621,-5.64704 -0.4096,-3.19217 -0.9913,-2.85169 -10.6195,6.21542 -5.6024,5.27592 -11.5734,11.69259 -13.2691,14.25925 -1.6956,2.56667 -3.4781,4.96667 -3.9611,5.33334 -0.483,0.36666 -1.9456,2.76666 -3.2503,5.33333 -1.3046,2.56667 -2.744,4.96667 -3.1985,5.33333 -0.4545,0.36667 -2.4522,3.1757 -4.4393,6.24229 -1.9871,3.0666 -6.1814,8.53403 -9.3208,12.14988 -3.1394,3.6158 -8.6393,10.6172 -12.2219,15.5586 -3.5826,4.9414 -10.4826,13.5308 -15.3333,19.0876 -10.5137,12.0441 -39.4874,37.7219 -48.0617,42.5946 -6.2843,3.5713 -12.0911,8.7219 -12.0911,10.7248 0,0.6274 -1.8466,2.506 -4.1035,4.1746 -3.8889,2.8751 -4.3247,2.9247 -8.3334,0.9477 -2.6197,-1.2919 -3.3416,-2.0976 -1.8965,-2.1164 2.608,-0.034 2.8864,-1.0913 1.0513,-3.993 -1.0632,-1.6812 -1.3675,-1.6335 -2.1222,0.3334 -0.4846,1.2627 -1.5725,2.2959 -2.4177,2.2959 -3.0866,0 -4.6683,5.0768 -4.2485,13.6367 0.4485,9.1471 2.044,13.5562 5.3667,14.8313 4.2744,1.6402 1.8419,4.9332 -6.732,9.1136 -5.9616,2.9068 -9.3138,3.8716 -10.4708,3.0137 -15.2721,-11.3249 -16.7161,-11.1682 -25.3948,2.7563 l -6.2578,10.0401 -0.6679,17.6375 c -0.3673,9.7006 -0.1396,25.1375 0.5062,34.3042 0.6457,9.1666 0.8471,20.2461 0.4474,24.621 -0.6583,7.2075 -1.1519,8.2403 -5.2571,11 -5.8962,3.9637 -10.3366,3.782 -16.3766,-0.6704 z m 18.9072,-12.3627 c 0,-0.69 -0.6,-1.2546 -1.3334,-1.2546 -0.7333,0 -1.3333,0.9354 -1.3333,2.0787 0,1.1433 0.6,1.7079 1.3333,1.2546 0.7334,-0.4532 1.3334,-1.3886 1.3334,-2.0787 z m -4.1184,-5.4348 c 4.2447,-4.5561 4.3466,-8.9334 0.5542,-23.8198 -2.5923,-10.1759 -3.5942,-17.5512 -3.6679,-27.0007 -0.056,-7.1505 -0.4013,-12.9913 -0.7679,-12.9796 -4.1245,0.1309 -5.7843,7.8715 -5.9999,27.9803 -0.1139,10.6185 -0.8567,17.2951 -2.4156,21.7133 -3.16,8.9555 -2.8571,11 2.0821,14.0535 5.6272,3.4788 7.0167,3.486 10.215,0.053 z m -6.5483,-79.2318 c 0,-1.0567 -0.6,-1.9213 -1.3333,-1.9213 -0.7334,0 -1.3334,1.2354 -1.3334,2.7453 0,1.51 0.6,2.3746 1.3334,1.9213 0.7333,-0.4532 1.3333,-1.6886 1.3333,-2.7453 z m 66.5212,-65.3545 c 1.8219,-5.0384 1.427,-7.108 -0.814,-4.2657 -1.8529,2.35 -3.3329,9.0322 -2.0005,9.0322 0.6,0 1.8665,-2.1449 2.8145,-4.7665 z m 12.0717,-14.2335 c 0.1283,-1.7394 -2.084,-1.0875 -5.0556,1.4897 -4.4055,3.8209 -3.4544,6.1742 1.0556,2.6117 2.1594,-1.7058 3.9594,-3.5514 4,-4.1014 z m -81.6691,-5.2894 c 2.7919,-1.6258 5.2762,-3.4258 5.5206,-4 0.2445,-0.5741 1.2015,-1.0439 2.1267,-1.0439 0.9252,0 2.8028,-1.2382 4.1724,-2.7516 1.3695,-1.5133 5.3625,-3.9872 8.8733,-5.4975 3.5107,-1.5103 6.3832,-3.2721 6.3832,-3.9151 0,-1.5977 -5.6955,-1.4724 -10.156,0.2235 -2.0487,0.7789 -17.8049,1.5787 -35.7534,1.8149 -29.4176,0.3871 -39.4239,1.4682 -39.4239,4.2594 0,0.4765 1.818,0.5028 4.0401,0.058 3.4917,-0.6983 4.2506,-0.3138 5.5911,2.8334 3.6044,8.4621 9.0232,10.7446 13.3927,5.6413 2.4298,-2.8378 6.2048,-3.4063 9.9941,-1.505 15.213,7.633 18.0491,8.0693 25.2391,3.8823 z m -80.9238,-7.7106 c 0,-0.7333 -1.2,-1.3333 -2.6667,-1.3333 -1.4666,0 -2.6666,0.6 -2.6666,1.3333 0,0.7333 1.2,1.3333 2.6666,1.3333 1.4667,0 2.6667,-0.6 2.6667,-1.3333 z m 21.3333,0 c 0,-0.7333 -1.5,-1.3333 -3.3333,-1.3333 -1.8333,0 -3.3333,0.6 -3.3333,1.3333 0,0.7333 1.5,1.3333 3.3333,1.3333 1.8333,0 3.3333,-0.6 3.3333,-1.3333 z m -8,-1.0556 c 0,-0.9448 -13.679,-8.2777 -15.4415,-8.2777 -1.5462,0 1.1923,2.9033 3.9044,4.1395 1.5787,0.7196 4.3705,2.1737 6.2038,3.2314 3.7744,2.1775 5.3333,2.4426 5.3333,0.9068 z m 124,-9.6111 c 0,-0.7333 -1.2,-1.3333 -2.6666,-1.3333 -1.4667,0 -2.6667,0.6 -2.6667,1.3333 0,0.7334 1.2,1.3334 2.6667,1.3334 1.4666,0 2.6666,-0.6 2.6666,-1.3334 z m 10.6667,-2.6666 c 0,-0.7334 -0.6,-1.3334 -1.3333,-1.3334 -0.7334,0 -1.3334,0.6 -1.3334,1.3334 0,0.7333 0.6,1.3333 1.3334,1.3333 0.7333,0 1.3333,-0.6 1.3333,-1.3333 z m 10.6667,-1.3334 c 2.9921,-2.9921 1.7786,-3.4199 -3.2288,-1.1383 -1.8449,0.8405 -3.0377,2.0405 -2.6507,2.6666 1.1272,1.824 3.019,1.3322 5.8795,-1.5283 z m 17.4452,-15.2641 c 0.6718,0.4151 1.2214,-0.1806 1.2214,-1.3238 0,-2.6372 -6.1313,-2.8046 -8.6984,-0.2375 -2.5334,2.5334 -1.0392,3.5798 2.9474,2.0641 1.8195,-0.6918 3.8578,-0.918 4.5296,-0.5028 z m -59.1923,-59.14287 c 3.3311,-0.98537 5.9083,-2.66728 6.3841,-4.16623 0.4388,-1.38256 1.7425,-2.87628 2.8972,-3.31937 1.6975,-0.65139 1.7842,-1.18547 0.4527,-2.78984 -0.9058,-1.09132 -2.3999,-1.98422 -3.3203,-1.98422 -0.9204,0 -2.3565,-0.82306 -3.1914,-1.82901 -0.8349,-1.00596 -3.7143,-2.18542 -6.3987,-2.62104 -4.8115,-0.7808 -44.5111,1.23773 -48.4205,2.46193 -1.4946,0.46803 -1.8901,2.14461 -1.5411,6.53244 0.3999,5.02836 1.0321,6.13587 4.2675,7.47602 2.1241,0.87984 6.0354,1.2158 8.8745,0.76228 2.792,-0.44601 5.774,-0.35456 6.6267,0.20322 2.4814,1.6233 27.2489,1.0843 33.3693,-0.72618 z m -48.5863,-6.47604 c -2.0292,-0.8188 -2.2296,-4.45029 -0.2457,-4.45029 0.7816,0 2.6626,0.66449 4.1802,1.47665 2.213,1.18438 2.3936,1.70814 0.9123,2.64625 -2.0312,1.28638 -2.4072,1.31178 -4.8468,0.32739 z m 16.619,-3.94239 c -2.1919,-2.19195 -0.5951,-3.17457 5.1588,-3.17457 4.292,0 5.9481,0.49612 5.5636,1.66667 -0.6003,1.82729 -9.1944,3.03589 -10.7224,1.5079 z m -59.0805,1.75073 c 1.4512,-1.06119 2.2018,-2.99298 1.9215,-4.9457 -0.3656,-2.54694 -1.5542,-3.42181 -5.7933,-4.26436 -2.9333,-0.58302 -6.5333,-1.59047 -8,-2.23878 -14.8137,-6.5481 -19.7432,-8.14312 -25.1667,-8.14312 -7.2631,0 -7.9323,1.85324 -2.5,6.92304 12.1595,11.34799 32.4525,17.85028 39.5385,12.66892 z m 92.7949,-146.9253 c 0,-1.1 -0.6,-2 -1.3334,-2 -0.7333,0 -1.3333,0.9 -1.3333,2 0,1.1 0.6,2 1.3333,2 0.7334,0 1.3334,-0.9 1.3334,-2 z m 82.6666,-58 c 0,-0.73333 -0.6,-1.33333 -1.3333,-1.33333 -0.7333,0 -1.3333,0.6 -1.3333,1.33333 0,0.73334 0.6,1.33334 1.3333,1.33334 0.7333,0 1.3333,-0.6 1.3333,-1.33334 z m 26.1647,-44.94639 c -1.3415,-1.3415 -3.498,1.20846 -3.498,4.13619 0,4.88892 1.8637,5.34869 3.0544,0.75352 0.6037,-2.32966 0.8033,-4.53003 0.4436,-4.88971 z m -173.552,-4.03998 c 4.3717,-4.71463 4.2675,-5.68029 -0.6127,-5.68029 -2.2,0 -4,0.6 -4,1.33333 0,0.73333 -1.7646,1.33333 -3.9213,1.33333 -2.1567,0 -4.2921,-0.6 -4.7453,-1.33333 -0.4533,-0.73333 -1.4619,-1.33333 -2.2414,-1.33333 -2.9228,0 2.5945,5.88439 7.0157,7.48254 2.5075,0.90635 4.6847,1.69356 4.8384,1.74935 0.1536,0.0558 1.8036,-1.54243 3.6666,-3.5516 z m 23.3873,0.98637 c 0,-0.73333 -1.95,-1.32414 -4.3333,-1.31291 -3.2883,0.0155 -3.851,0.33212 -2.3333,1.31291 2.6206,1.6936 6.6666,1.6936 6.6666,0 z m 14,0 c 0.4532,-0.73333 -0.1113,-1.33333 -1.2546,-1.33333 -1.1433,0 -2.0787,0.6 -2.0787,1.33333 0,0.73334 0.5646,1.33334 1.2546,1.33334 0.6901,0 1.6255,-0.6 2.0787,-1.33334 z m 16.6667,-1.33333 c 0,-0.73333 -0.6,-1.33333 -1.3333,-1.33333 -0.7334,0 -1.3334,0.6 -1.3334,1.33333 0,0.73333 0.6,1.33333 1.3334,1.33333 0.7333,0 1.3333,-0.6 1.3333,-1.33333 z m 121.3333,0 c 0,-0.73333 -0.6,-1.33333 -1.3333,-1.33333 -0.7333,0 -1.3333,0.6 -1.3333,1.33333 0,0.73333 0.6,1.33333 1.3333,1.33333 0.7333,0 1.3333,-0.6 1.3333,-1.33333 z m -38.9222,-7.91376 c -0.8863,-1.41923 -2.1206,-2.26581 -2.7427,-1.88129 -1.2712,0.78565 1.3429,4.46172 3.1728,4.46172 0.6498,0 0.4562,-1.16119 -0.4301,-2.58043 z m 7.1648,-0.75291 c 0.8353,-1.83333 2.0225,-3.33333 2.6381,-3.33333 0.6156,0 1.1193,-0.6 1.1193,-1.33333 0,-3.83699 -7.8513,2.41329 -7.9556,6.33333 -0.077,2.88074 2.6128,1.81305 4.1982,-1.66667 z m 29.0612,0.61144 c -0.7171,-1.33987 -1.3038,-3.33651 -1.3038,-4.43698 0,-1.10047 -0.6422,-3.68992 -1.4271,-5.75432 -1.3235,-3.48114 -1.5296,-3.57022 -2.8405,-1.22783 -1.0673,1.90709 -0.8759,3.43571 0.7816,6.24156 1.395,2.36165 1.7014,4.02101 0.8405,4.55305 -2.3267,1.43798 -1.4883,2.67193 1.9502,2.87019 2.8057,0.16178 3.1066,-0.17627 1.9991,-2.24567 z m -179.0596,-5.5281 c -0.4257,-1.06365 -0.7416,-0.74771 -0.8056,0.80555 -0.058,1.40556 0.2573,2.19306 0.7003,1.75 0.4431,-0.44305 0.4904,-1.59305 0.1053,-2.55555 z m 83.6468,-0.55932 c 1.1599,-0.44513 2.109,-1.65021 2.109,-2.67797 0,-1.53488 -0.4763,-1.57119 -2.6666,-0.20328 -4.0453,2.5263 -3.6632,4.50089 0.5576,2.88125 z m 40.5521,-3.81554 c -0.8248,-1.81034 -2.0136,-2.97393 -2.6417,-2.58575 -1.3722,0.84812 1.0952,5.87727 2.8836,5.87727 0.7229,0 0.6201,-1.39981 -0.2419,-3.29152 z m -124.3646,5.9e-4 c 2.7718,-2.09644 1.7491,-2.49576 -3.0785,-1.20202 -1.65,0.44218 -3,1.33399 -3,1.9818 0,1.80953 3.1975,1.39935 6.0785,-0.77978 z m 156.5882,0.62427 c 0,-0.73334 -0.6,-1.33334 -1.3333,-1.33334 -0.7334,0 -1.3334,0.6 -1.3334,1.33334 0,0.73333 0.6,1.33333 1.3334,1.33333 0.7333,0 1.3333,-0.6 1.3333,-1.33333 z m 10.6667,-4 c -1.6176,-3.02248 -9.9896,-3.95339 -8.9934,-1 0.3092,0.91666 1.805,1.66666 3.324,1.66666 1.5189,0 3.2159,0.45 3.7711,1 2.037,2.01812 3.2842,0.92307 1.8983,-1.66666 z m -78.8521,-6.80753 c 1.8027,-8.72793 1.3423,-11.76292 -0.8363,-5.51322 -0.7316,2.09846 -2.4456,4.93087 -3.809,6.29425 -1.7522,1.75225 -1.9938,2.64056 -0.8241,3.03046 0.9101,0.30338 1.6548,1.40159 1.6548,2.44048 0,1.03889 0.4799,1.88889 1.0666,1.88889 0.5866,0 1.8232,-3.66339 2.748,-8.14086 z m 85.5187,4.14086 c 0,-0.73333 -0.6354,-1.33333 -1.412,-1.33333 -0.7766,0 -1.0412,0.6 -0.588,1.33333 0.4532,0.73333 1.0887,1.33333 1.412,1.33333 0.3234,0 0.588,-0.6 0.588,-1.33333 z m 201.4592,-7.63266 c -1.1353,-1.95026 -1.3852,-1.52559 -1.4186,2.41044 -0.022,2.62778 0.4094,5.23534 0.9594,5.79458 1.5845,1.61106 1.9869,-5.58061 0.4592,-8.20502 z m -204.1258,2.96599 c 0,-1.1 -0.4987,-2 -1.1081,-2 -0.6094,0 -1.9108,-1.5 -2.8919,-3.33333 -0.9812,-1.83333 -2.3854,-3.33333 -3.1204,-3.33333 -0.735,0 -2.4373,-0.99632 -3.7828,-2.21405 -3.2351,-2.92769 -4.5767,-1.39771 -2.0001,2.28089 1.1195,1.59828 1.7165,3.73708 1.3267,4.75289 -0.3898,1.01581 -0.094,1.84693 0.6561,1.84693 0.7507,0 1.5936,-0.68604 1.8731,-1.52453 0.7213,-2.1639 6.3807,1.00381 6.3807,3.57145 0,1.07419 0.6,1.95308 1.3333,1.95308 0.7334,0 1.3334,-0.9 1.3334,-2 z m -18.057,-1.90787 c 0.4219,-0.68266 0.1573,-1.61807 -0.588,-2.07868 -0.7453,-0.46062 -1.355,0.0979 -1.355,1.2412 0,2.34203 0.8,2.68688 1.943,0.83748 z m -60.6097,-9.94441 c 0,-2.5266 -4.8793,-8.37137 -6.0309,-7.22429 -1.3416,1.33635 2.3733,9.07657 4.3564,9.07657 0.921,0 1.6745,-0.83353 1.6745,-1.85228 z m 282.8304,-11.13061 c -0.9633,-1.71361 -1.1932,-0.36355 -0.8486,4.98289 0.6017,9.33463 1.0217,10.09776 1.6603,3.01711 0.2802,-3.10726 -0.085,-6.70726 -0.8117,-8 z m -296.9777,1.55269 c 0.5611,-1.46224 0.1333,-1.96666 -1.4136,-1.66666 -1.22,0.23661 -2.4679,1.1802 -2.7731,2.09686 -0.8162,2.45155 3.2408,2.03467 4.1867,-0.4302 z m -46.5194,-0.5698 c 0.4821,-0.77999 -0.9013,-1.33333 -3.3333,-1.33333 -2.4321,0 -3.8154,0.55334 -3.3333,1.33333 0.4532,0.73334 1.9532,1.33334 3.3333,1.33334 1.3801,0 2.8801,-0.6 3.3333,-1.33334 z M 2002.9039,535.1411 c 0,-0.73333 -0.6,-1.33333 -1.3333,-1.33333 -0.7334,0 -1.3334,0.6 -1.3334,1.33333 0,0.73333 0.6,1.33333 1.3334,1.33333 0.7333,0 1.3333,-0.6 1.3333,-1.33333 z m 0.9037,-21.66667 c 1.4963,-8.83442 1.2861,-10.38981 -1.0838,-8.01995 -1.7342,1.7342 -2.9993,16.35329 -1.4152,16.35329 0.5982,0 1.7227,-3.75 2.499,-8.33334 z m 65.763,-15.66666 c 0,-0.73334 -0.6,-1.33334 -1.3334,-1.33334 -0.7333,0 -1.3333,0.6 -1.3333,1.33334 0,0.73333 0.6,1.33333 1.3333,1.33333 0.7334,0 1.3334,-0.6 1.3334,-1.33333 z m -91.4688,-22.2231 c -1.3292,-3.91063 -2.9137,-7.11024 -3.5209,-7.11024 -0.6073,0 -0.4831,1.16056 0.2761,2.57901 0.7591,1.41846 1.3802,4.0794 1.3802,5.91321 0,1.8338 0.6945,5.02324 1.5432,7.08765 2.7544,6.69942 3.0279,-0.50738 0.3214,-8.46963 z m -68.5312,-6.44357 c 0,-4.03333 -0.6,-7.33333 -1.3334,-7.33333 -0.7333,0 -1.3333,3.3 -1.3333,7.33333 0,4.03333 0.6,7.33333 1.3333,7.33333 0.7334,0 1.3334,-3.3 1.3334,-7.33333 z m -1.3334,-24.58798 c 0,-0.69005 -0.6,-1.62546 -1.3333,-2.07869 -0.7333,-0.45322 -1.3333,0.11137 -1.3333,1.25465 0,1.14328 0.6,2.07869 1.3333,2.07869 0.7333,0 1.3333,-0.56459 1.3333,-1.25465 z m -0.02,-10.49071 c -0.018,-1.94303 -0.199,-1.97823 -1.3129,-0.25464 -1.6875,2.61116 -1.6875,4.37624 0,3.33333 0.7333,-0.45322 1.3242,-1.83864 1.3129,-3.07869 z m 6.0204,-16.25464 c 0.4533,-0.73334 0.1887,-1.33334 -0.5879,-1.33334 -0.7766,0 -1.4121,0.6 -1.4121,1.33334 0,0.73333 0.2646,1.33333 0.588,1.33333 0.3234,0 0.9588,-0.6 1.412,-1.33333 z m -24.6677,-10.33334 c -10e-4,-1.13523 -12.3373,-7.10602 -13.1019,-6.34142 -1.0754,1.07531 1.6281,3.69396 5.5964,5.4209 4.7182,2.0533 7.5071,2.39534 7.5055,0.92052 z m 101.3344,-1.66666 c 0,-0.73334 -0.2646,-1.33334 -0.588,-1.33334 -0.3234,0 -0.9588,0.6 -1.412,1.33334 -0.4532,0.73333 -0.1886,1.33333 0.588,1.33333 0.7766,0 1.412,-0.6 1.412,-1.33333 z m 44.6667,-4 c 1.0095,-3.18089 1.9763,-3.30755 5.4118,-0.70907 3.102,2.34622 6.752,2.60129 8.0136,0.56 1.7546,-2.83899 -2.8567,-3.8101 -18.0921,-3.8101 -10.3858,0 -14.688,0.41704 -13.3333,1.2925 1.1,0.71087 3.5353,1.30169 5.4118,1.31292 1.8765,0.0112 4.5765,0.90133 6,1.97801 3.5755,2.70433 5.5924,2.51322 6.5882,-0.62426 z m -73.3334,-2.10031 c -1.4666,-1.10853 -4.1666,-2.33613 -6,-2.72799 -1.8333,-0.39187 -4.5333,-1.21917 -6,-1.83843 -4.2423,-1.79122 -14,-2.81866 -14,-1.47415 0,0.67319 3,1.63658 6.6667,2.14088 4.2513,0.5847 6.6667,1.5684 6.6667,2.71512 0,1.1466 2.0534,1.98316 5.6666,2.3086 3.1167,0.28072 6.5667,0.59613 7.6667,0.70093 1.4093,0.13426 1.2124,-0.40474 -0.6667,-1.82496 z m 48.6667,-0.56636 c 0,-0.73333 -1.2354,-1.33333 -2.7454,-1.33333 -1.5099,0 -2.3745,0.6 -1.9213,1.33333 0.4532,0.73333 1.6887,1.33333 2.7454,1.33333 1.0567,0 1.9213,-0.6 1.9213,-1.33333 z m 34.788,-9.49703 c 22.011,-2.93892 37.212,-14.95387 37.212,-29.41257 0,-5.67791 -0.5507,-6.827 -5.4487,-11.36999 -11.1729,-10.36291 -14.9989,-10.77752 -21.5741,-2.3379 -4.9633,6.37055 -12.5613,12.62565 -21.38,17.60121 -10.53,5.94107 -34.676,5.34719 -51.5972,-1.26905 -9.8897,-3.86687 -25.4752,-15.75555 -31.0053,-23.65098 -1.7611,-2.51424 -2.3744,-2.58886 -8.7774,-1.06787 -7.0984,1.68618 -9.1703,3.65529 -3.884,3.69126 1.65,0.0112 3.8687,0.57001 4.9305,1.24173 1.5138,0.95773 1.1541,1.41614 -1.6667,2.12412 -3.4195,0.85826 -5.0911,3.2804 -2.2638,3.2804 0.7334,0 1.3334,1.46885 1.3334,3.26412 0,1.96073 2.5985,6.35308 6.5075,11 11.0261,13.10718 15.0116,16.20274 25.5644,19.85583 5.4604,1.89024 12.9281,4.54445 16.5947,5.89826 7.9948,2.95181 37.3983,3.56233 55.4547,1.15143 z m -22.1213,-29.16964 c -0.6342,-1.99812 -0.2389,-2.66791 1.5768,-2.67165 1.3327,-0.003 4.3877,-1.20274 6.7887,-2.66666 2.4011,-1.46393 5.517,-2.66169 6.9244,-2.66169 3.6203,0 6.8163,-5.0738 5.8234,-9.24511 -1.2457,-5.23386 -2.5854,-6.32003 -12.4395,-10.08548 -7.8221,-2.98899 -9.5287,-3.24114 -11.9026,-1.75862 -1.5242,0.95187 -2.7712,2.17415 -2.7712,2.71618 0,1.5218 -10.2095,6.37303 -13.4121,6.37303 -4.7296,0 -12.1968,-4.26109 -14.4597,-8.2513 -1.4069,-2.4809 -2.8061,-3.46653 -4.1282,-2.90806 -1.1,0.46463 -6.1912,2.00669 -11.3136,3.42679 -5.1225,1.4201 -9.5311,2.79949 -9.797,3.0653 -0.2658,0.26582 1.2254,2.62468 3.3137,5.24192 3.6391,4.56092 7.1302,6.23802 7.1302,3.42535 0,-0.73333 -0.6,-1.33333 -1.3333,-1.33333 -0.7334,0 -1.3334,-0.9 -1.3334,-2 0,-2.35078 0.1629,-2.37899 4.4109,-0.7639 1.8329,0.69685 3.6306,2.74747 4.1208,4.70058 1.8957,7.55328 11.6609,13.39184 25.6532,15.33799 5.6651,0.78795 10.5911,1.72348 10.9465,2.07898 0.3555,0.35549 2.0868,0.64635 3.8474,0.64635 2.5942,0 3.0405,-0.50549 2.3546,-2.66667 z m -18.5804,-3.86028 c -0.8855,-1.43282 2.9777,-3.13021 4.7007,-2.06535 0.6671,0.41232 1.213,1.31427 1.213,2.00432 0,1.59782 -4.9324,1.64872 -5.9137,0.061 z m 52.5804,-120.80638 c 0,-1.1 -0.6,-2 -1.3334,-2 -0.7333,0 -1.3333,0.9 -1.3333,2 0,1.1 0.6,2 1.3333,2 0.7334,0 1.3334,-0.9 1.3334,-2 z m -2.6667,-12.66667 c 0,-1.46667 -0.6,-2.66667 -1.3333,-2.66667 -0.7334,0 -1.3334,1.2 -1.3334,2.66667 0,1.46667 0.6,2.66667 1.3334,2.66667 0.7333,0 1.3333,-1.2 1.3333,-2.66667 z m 69.22,952.4789 c 2.9957,-3.4032 5.4467,-6.8138 5.4467,-7.579 0,-2.414 5.5157,-12.8999 6.7856,-12.8999 0.6679,0 1.2144,4.4046 1.2144,9.7881 v 9.7881 l -6.5138,3.5452 c -3.5826,1.9499 -7.8336,3.5453 -9.4467,3.5453 -2.6605,0 -2.427,-0.5747 2.5138,-6.1878 z m -557.22,-50.4789 c -1.3594,-1.638 -1.2683,-2 0.5034,-2 1.1898,0 2.1633,0.9 2.1633,2 0,1.1 -0.2266,2 -0.5035,2 -0.2768,0 -1.2503,-0.9 -2.1632,-2 z m -10.6667,-4 c 0,-1.1 0.6,-2 1.3334,-2 0.7333,0 1.3333,0.556 1.3333,1.2356 0,0.6795 1.05,1.5099 2.3333,1.8453 1.4356,0.3751 0.9226,0.6693 -1.3333,0.7644 -2.4391,0.1029 -3.6667,-0.5149 -3.6667,-1.8453 z m 192,-2 c 0,-0.7333 0.6,-1.3333 1.3334,-1.3333 0.7333,0 1.3333,0.6 1.3333,1.3333 0,0.7333 -0.6,1.3333 -1.3333,1.3333 -0.7334,0 -1.3334,-0.6 -1.3334,-1.3333 z m 4,-8.9998 c 0,-4.0954 3.1872,-9.5908 4.6906,-8.0874 1.0868,1.0868 -1.6935,10.059 -3.4545,11.1473 -0.6799,0.4202 -1.2361,-0.9568 -1.2361,-3.0599 z m -217.6666,-2.4314 c -2.75,-1.8009 -5,-3.906 -5,-4.6781 0,-1.9397 5.1673,-0.1492 8.4822,2.9391 1.478,1.3769 3.1741,2.5035 3.7692,2.5035 0.595,0 1.0819,0.6 1.0819,1.3334 0,2.1562 -2.9845,1.4048 -8.3333,-2.0979 z m -12,-6.1799 c -2.0167,-0.7028 -3.6667,-1.8278 -3.6667,-2.5 0,-1.7258 7.6544,-1.5267 8.7385,0.2273 1.4974,2.4229 -1.1878,3.6262 -5.0718,2.2727 z m 467,-238.3889 c 0,-1.48148 0.8888,-2.66667 2,-2.66667 2.244,0 2.3342,0.2442 1.1906,3.22429 -1.1432,2.9792 -3.1906,2.62137 -3.1906,-0.55762 z m 6.6666,-12 c 0,-0.73333 0.6,-1.33333 1.3334,-1.33333 0.7333,0 1.3333,0.6 1.3333,1.33333 0,0.73333 -0.6,1.33333 -1.3333,1.33333 -0.7334,0 -1.3334,-0.6 -1.3334,-1.33333 z m -648,-192.00847 c 0,-4.86315 3.3487,-27.69534 5.4143,-36.91529 0.6888,-3.07473 1.2524,-7.52298 1.2524,-9.88498 0,-4.33477 2.7073,-21.23083 5.9592,-37.19126 0.9712,-4.76667 3.3604,-12.98287 5.3093,-18.25823 1.9489,-5.27537 4.6804,-13.37537 6.07,-18 1.3896,-4.62464 4.3615,-13.70111 6.6043,-20.16994 2.2428,-6.46883 6.8936,-22.66883 10.3352,-36 6.2333,-24.14487 6.2577,-24.32605 6.3204,-46.90516 0.065,-23.52156 -2.8829,-50.09482 -5.6605,-51.02071 -4.0056,-1.33519 -17.4658,-11.07434 -19.9842,-14.45958 -8.6173,-11.58329 -11.7761,-15.18638 -13.3141,-15.18638 -3.1255,0 -18.0122,-16.557 -21.2855,-23.67382 -1.7725,-3.85393 -4.4341,-7.65542 -5.9146,-8.44776 -1.4805,-0.79233 -4.1886,-4.71001 -6.018,-8.70594 -4.8178,-10.5234 -11.0712,-34.70065 -11.0803,-42.83915 -0.01,-6.00889 -0.37,-7 -2.5655,-7 -6.8286,0 -9.4258,-5.70356 -4.109,-9.0239 3.7267,-2.3274 3.4066,-3.66501 -2.7184,-11.35767 -2.9618,-3.71984 -5.2012,-7.70573 -4.9765,-8.85755 0.6306,-3.23206 16.6659,-2.68811 29.5413,1.00211 7.3793,2.11498 12.1859,2.7623 16.1251,2.17159 3.0866,-0.46287 7.9557,-0.17914 10.8202,0.6305 7.7766,2.198 33.2833,3.47094 34.3684,1.71519 0.4887,-0.79084 -0.4723,-4.02742 -2.1358,-7.19241 -2.9078,-5.53285 -3.023,-7.01288 -2.9905,-38.42119 0.034,-33.08384 1.4682,-50.68916 5.2128,-64 1.1346,-4.03333 3.6448,-13.93333 5.5782,-22 1.9334,-8.06666 4.8686,-17.366663 6.5227,-20.666663 4.1782,-8.336035 5.758,-17.651372 6.6703,-39.333333 0.9428,-22.406821 1.3241,-24.212419 5.3251,-25.2166 12.8246,-3.21878 14.277,17.036262 6.0148,83.883266 -0.6345,5.13333 -2.4202,16.53333 -3.9683,25.33333 -2.1135,12.01411 -2.8583,22.14492 -2.9899,40.66667 -0.1602,22.55199 0.086,25.40966 2.877,33.33333 1.6787,4.76667 3.5782,9.23667 4.2212,9.93333 0.6429,0.69667 1.1729,2.49667 1.1777,4 0,1.50334 1.1892,4.52412 2.6319,6.71287 1.4427,2.18874 3.0012,6.50124 3.4634,9.58334 1.2708,8.47418 7.4093,13.82591 20.877,18.20132 6.0604,1.96891 11.9542,3.57744 13.0974,3.57449 1.1432,-0.003 3.2432,0.87557 4.6667,1.95225 1.4235,1.07667 3.6621,1.97667 4.9746,2 1.3126,0.0233 4.6449,1.19458 7.4053,2.6028 4.7765,2.43683 10.1275,3.65248 29.347,6.66715 6.7048,1.05167 9.929,2.45292 15.4565,6.71733 5.2092,4.01888 8.2122,5.38845 11.8149,5.38845 3.467,0 6.1177,1.13024 9.3912,4.0044 5.3965,4.73822 13.252,8.27518 16.0199,7.21302 1.0837,-0.41585 3.2794,-0.0555 4.8793,0.80069 1.5998,0.85623 6.4385,2.0557 10.7525,2.66547 10.6621,1.50708 16.0468,5.41739 15.6465,11.36219 -0.2351,3.49031 0.4967,5.1106 3.3065,7.32075 8.2094,6.45757 9.5446,9.82571 5.4987,13.87158 -2.6554,2.65539 -2.1649,2.70758 -12.1691,-1.29474 -4.6605,-1.86449 -9.0592,-3.0281 -9.7748,-2.58581 -0.7157,0.44229 -2.5146,3.46779 -3.9977,6.72331 -1.483,3.25553 -3.2231,5.91914 -3.8668,5.91914 -0.6437,0 -3.3905,3.34479 -6.104,7.43287 -3.9417,5.93837 -5.1706,9.35647 -6.1119,17 -1.4103,11.45109 -3.0224,14.88818 -7.9377,16.92419 -5.901,2.44428 -9.2712,-0.119 -9.2965,-7.07064 -0.024,-6.73498 -0.9195,-8.36259 -5.5715,-10.13125 -2.7694,-1.05294 -4.7038,-0.78154 -8.9084,1.24992 -2.954,1.4272 -6.0932,2.59491 -6.9761,2.59491 -0.8829,0 -3.5129,1.4551 -5.8446,3.23355 -3.3055,2.52126 -4.2799,4.31153 -4.4234,8.12723 -0.1012,2.69152 -1.6516,7.98642 -3.4455,11.76645 -2.7128,5.71637 -3.6271,11.02314 -5.4339,31.53944 -1.1947,13.56667 -3.0497,27.96667 -4.1221,32 -1.0723,4.03333 -2.6961,10.88431 -3.6084,15.22439 -0.9123,4.34008 -2.4687,8.16106 -3.4588,8.49108 -1.2992,0.43307 -1.5506,-0.18588 -0.9036,-2.22439 0.6872,-2.1651 0.3308,-2.83133 -1.5268,-2.85406 -2.0713,-0.0253 -1.9597,-0.38597 0.7686,-2.48371 1.7819,-1.37008 2.7778,-3.12383 2.2547,-3.97036 -1.3105,-2.12032 -3.6139,-1.84481 -7.0787,0.8467 -2.9324,2.27786 -2.94,2.37455 -0.6813,8.6257 1.7271,4.77955 2.8236,6.15088 4.4944,5.62059 5.68,-1.80277 2.2033,25.76712 -3.7405,29.66165 -5.199,3.40649 -6.7749,1.51163 -7.7948,-9.37234 -0.846,-9.0281 -0.6728,-10.20464 1.8779,-12.75535 2.7644,-2.76445 3.8124,-6.8099 1.764,-6.8099 -0.5752,0 -2.0231,1.65 -3.2176,3.66667 -1.1945,2.01666 -3.7089,5.45161 -5.5876,7.63321 -2.7334,3.17412 -3.7489,3.63344 -5.0832,2.29917 -1.3343,-1.33427 -1.2077,-2.96154 0.6335,-8.14549 1.2654,-3.56297 2.3008,-7.53971 2.3008,-8.83719 0,-1.29748 1.4406,-5.41695 3.2014,-9.15438 5.1535,-10.93872 7.3537,-26.69399 7.7624,-55.58521 0.2502,-17.68572 -0.1094,-26.72941 -1.1133,-28 -0.8155,-1.03223 -1.8972,-3.60745 -2.4037,-5.72272 -0.9111,-3.80468 -1.0024,-3.83759 -8.5172,-3.06818 -5.4206,0.55499 -8.088,1.51254 -9.3131,3.34317 -1.4038,2.09775 -2.8114,2.44203 -7.7217,1.88858 -7.2946,-0.82222 -9.7884,1.63074 -9.8524,9.69117 -0.023,2.93818 -0.6487,7.43818 -1.3897,10 -0.7411,2.56183 -1.953,10.05787 -2.6931,16.65787 -1.442,12.85851 -7.6423,34.81838 -12.6055,44.64585 -1.6724,3.31145 -6.1517,13.82081 -9.954,23.35415 -3.8023,9.53333 -8.1224,20.33333 -9.6002,24 -12.6786,31.45795 -21.3487,53.69329 -24.4353,62.66666 -2.018,5.86667 -4.411,12.46667 -5.3178,14.66667 -4.7339,11.48528 -7.3801,18.93303 -7.3801,20.77093 0,1.129 -0.881,3.2174 -1.9576,4.6409 -1.0767,1.42349 -1.9767,5.00467 -2,7.95816 -0.023,2.9535 -0.8243,6.5535 -1.7798,8 -0.9556,1.44651 -2.5043,5.93001 -3.4416,9.96334 -4.198,18.06483 -8.1544,27.11757 -8.1544,18.6582 z m 12.9191,-52.99153 c -0.3354,-1.28333 -0.6097,-0.23333 -0.6097,2.33333 0,2.56667 0.2743,3.61667 0.6097,2.33334 0.3354,-1.28334 0.3354,-3.38334 0,-4.66667 z m 7.1214,-21.12275 c 1.1565,-3.50401 1.1842,-5.18589 0.1034,-6.26667 -0.8125,-0.81249 -1.4915,-0.90725 -1.509,-0.21058 -0.018,0.69667 -0.5543,3.51667 -1.1929,6.26667 -1.4812,6.37839 0.5097,6.53973 2.5985,0.21058 z m 111.9595,-85.87725 c 0,-0.73333 -0.6,-1.33333 -1.3333,-1.33333 -0.7333,0 -1.3333,0.6 -1.3333,1.33333 0,0.73333 0.6,1.33333 1.3333,1.33333 0.7333,0 1.3333,-0.6 1.3333,-1.33333 z m 4.4658,-9.9573 c 0.4131,-1.07651 0.1773,-2.31193 -0.524,-2.74536 -0.7013,-0.43343 -1.2751,0.44736 -1.2751,1.9573 0,3.21942 0.7415,3.54421 1.7991,0.78806 z m -0.4658,-136.0427 c 3.1264,-1.78718 2.7538,-1.90471 -6,-1.89261 -8.9714,0.0124 -9.1782,0.0839 -5.3333,1.84446 5.1696,2.36713 7.2611,2.37601 11.3333,0.0482 z m -56.6666,-27.35905 c 2.9333,-0.71248 14.0333,-2.19262 24.6666,-3.28919 22.8233,-2.35367 31.8964,-4.83062 39.8855,-10.88878 3.237,-2.45464 6.6135,-4.46298 7.5034,-4.46298 0.8899,0 2.359,-0.8929 3.2647,-1.98422 1.3458,-1.62155 1.1928,-2.15211 -0.8367,-2.90275 -1.366,-0.50518 -2.9244,-1.56228 -3.4631,-2.34911 -1.7404,-2.54161 -1.094,-8.81938 0.9904,-9.61923 1.8033,-0.69202 11.3225,2.83841 11.3225,4.19926 0,0.30369 -1.3063,1.76921 -2.903,3.2567 -3.4995,3.2603 -2.4891,4.95073 1.4893,2.49173 6.2127,-3.83988 4.7958,-12.65847 -1.9522,-12.15029 -2.0114,0.15148 -5.3824,-0.61674 -7.491,-1.70714 -4.1421,-2.14194 -5.185,-1.84063 -13.7519,3.97306 -2.6594,1.8047 -7.435,3.36869 -11.6198,3.8054 -3.9076,0.4078 -10.8025,2.02521 -15.322,3.59425 -8.8689,3.07905 -25.78,3.44327 -26.7265,0.57562 -0.2761,-0.83658 3.7471,-2.81893 9.2271,-4.54636 14.0016,-4.41372 19.0276,-7.2488 22.109,-12.47138 2.5297,-4.28754 2.5652,-4.74744 0.4989,-6.4662 -3.1859,-2.64997 -9.2,-5.03667 -12.6206,-5.00841 -1.6155,0.0133 -5.6043,1.83127 -8.8639,4.03985 -6.8027,4.60914 -10.7997,5.87798 -15.1092,4.79638 -4.0802,-1.02408 -13.9079,-9.57271 -16.2813,-14.16243 -2.5885,-5.00557 -7.8849,-5.9232 -12.2947,-2.13011 -2.8424,2.44491 -3.2296,3.60131 -2.428,7.25092 1.1764,5.35615 7.2533,11.78056 12.2807,12.98304 2.0675,0.49451 4.3591,1.33365 5.0924,1.86475 0.7334,0.5311 3.0232,1.36981 5.0886,1.86379 4.3964,1.05151 4.5826,5.63574 0.2119,5.21754 -1.4486,-0.13861 -7.3072,-0.64199 -13.019,-1.11862 -13.7064,-1.14376 -19.3828,-5.24294 -26.4413,-19.0944 -2.7422,-5.38137 -5.8369,-10.7782 -6.877,-11.99297 -1.0402,-1.21477 -2.2797,-3.30075 -2.7546,-4.63552 -1.3209,-3.71314 -6.7639,-2.40457 -7.3215,1.76018 -0.3607,2.69426 -0.1178,3.0138 1.2667,1.66667 2.7866,-2.71135 5.4128,-2.00229 4.9383,1.33333 -0.2775,1.95099 -1.2736,2.93004 -2.8487,2.79993 -1.4558,-0.12025 -3.0404,1.20955 -3.9722,3.33334 -0.8526,1.94337 -1.8624,3.8334 -2.244,4.20007 -1.9876,1.90985 -4.2031,7.3637 -4.8395,11.91337 -0.632,4.51852 -0.024,6.0646 5.0872,12.94241 3.1927,4.29599 6.6283,9.4421 7.6347,11.43581 2.4859,4.92506 5.987,7.88972 15.4238,13.06082 12.8684,7.05158 30.9978,9.78 44,6.62187 z m 0.6666,-27.97428 c 0,-0.73334 0.6,-1.33334 1.3334,-1.33334 0.7333,0 1.3333,0.6 1.3333,1.33334 0,0.73333 -0.6,1.33333 -1.3333,1.33333 -0.7334,0 -1.3334,-0.6 -1.3334,-1.33333 z m -84,-32.58798 c 0,-3.55724 -1.9831,-5.59672 -3.3272,-3.42184 -1.0836,1.75319 0.453,6.67648 2.0837,6.67648 0.684,0 1.2435,-1.46459 1.2435,-3.25464 z m 728,144.66667 c 0,-0.69006 0.5931,-1.62122 1.3181,-2.06925 0.7558,-0.46712 0.9793,0.0681 0.524,1.25464 -0.8864,2.30989 -1.8421,2.73252 -1.8421,0.81461 z m 5.3334,-3.06062 c 0,-2.56503 8.322,-10.35141 11.0634,-10.35141 3.248,0 2.811,2.0466 -1.3968,6.54135 -4.2263,4.51462 -9.6666,6.65889 -9.6666,3.81006 z m -247.6945,-1.24582 c -2.5636,-2.56368 -1.9754,-4.94393 1.0278,-4.15859 1.4909,0.38989 2.6667,0.0409 2.6667,-0.79149 0,-0.81886 0.6398,-1.48884 1.4219,-1.48884 0.782,0 1.232,1.64487 1,3.65527 -0.4602,3.9868 -3.5204,5.37957 -6.1164,2.78365 z m -0.8926,-12.59625 c -1.0192,-4.06082 -0.3388,-5.14993 2.5296,-4.04923 2.5877,0.993 2.7631,7.53989 0.202,7.53989 -1.0205,0 -2.2497,-1.5708 -2.7316,-3.49066 z m -17.8241,-33.94267 c 0.2628,-0.78833 1.0478,-1.43333 1.7445,-1.43333 0.6967,0 1.4817,0.645 1.7444,1.43333 0.2628,0.78833 -0.5222,1.43333 -1.7444,1.43333 -1.2222,0 -2.0072,-0.645 -1.7445,-1.43333 z"
       id="path1" />
  </g>
</svg>
