<?xml version="1.0" encoding="UTF-8" standalone="no"?>
<!-- Created with Inkscape (http://www.inkscape.org/) -->

<svg
   version="1.1"
   id="svg1"
   width="743.73145"
   height="1230.6339"
   viewBox="0 0 743.73141 1230.6339"
   xmlns="http://www.w3.org/2000/svg"
   xmlns:svg="http://www.w3.org/2000/svg">
  <defs
     id="defs1" />
  <g
     id="g1"
     transform="translate(-1564.6989,-88.517839)">
    <path
       style="fill:#000000"
       d="m 1886.0324,1318.1934 c -1.9371,-0.46 -3.4938,-1.8876 -3.7163,-3.4082 -0.3574,-2.4415 12.7798,-24.6806 22.2301,-37.632 6.2189,-8.5229 5.1644,-11.1659 -2.0782,-5.2086 -18.6349,15.328 -50.5137,22.8176 -83.6437,19.6512 -7.9978,-0.7644 -14.7722,-1.6205 -15.0542,-1.9025 -0.9294,-0.9294 5.009,-9.9275 7.0749,-10.7203 1.1127,-0.427 1.6126,-1.4404 1.111,-2.2521 -0.6252,-1.0117 0.01,-0.9829 2.0164,0.091 2.7466,1.47 2.8312,1.3854 1.3612,-1.3612 -1.0605,-1.9815 -1.0931,-2.6355 -0.1009,-2.0222 0.82,0.5067 1.4664,0.015 1.4664,-1.1156 0,-1.1121 2.0999,-3.6975 4.6666,-5.7454 2.5666,-2.0479 4.6666,-4.3968 4.6667,-5.2198 0,-0.8229 -2.55,-1.8982 -5.6667,-2.3896 -9.9128,-1.5629 -23.9077,-6.2327 -37.2822,-12.4403 l -12.9768,-6.0231 -7.0372,3.3957 c -23.463,11.3216 -45.2329,14.3342 -68.76,9.5152 -18.2576,-3.7396 -46.9438,-14.5622 -46.9438,-17.7107 0,-1.9817 5.1286,-5.8015 6.5827,-4.9028 0.7795,0.4818 1.4173,0.2405 1.4173,-0.5361 0,-0.7766 0.6574,-1.412 1.4609,-1.412 0.8034,0 3.2247,-1.256 5.3806,-2.7912 2.1559,-1.5351 4.768,-2.4657 5.8046,-2.0679 1.3077,0.5019 1.6321,0.065 1.0594,-1.4275 -0.5497,-1.4326 -0.3044,-1.8289 0.7346,-1.1868 0.8579,0.5303 1.5599,0.3874 1.5599,-0.3175 0,-0.7049 1.8,-1.909 4,-2.676 2.2,-0.7669 4,-1.9904 4,-2.7189 0,-0.7285 -3.6194,-3.2536 -8.0431,-5.6114 -4.4237,-2.3578 -12.0737,-7.6599 -17,-11.7823 -4.9263,-4.1224 -12.5569,-9.502 -16.9569,-11.9546 -32.3284,-18.0203 -50.8609,-43.1574 -60.5525,-82.1326 -1.4589,-5.8666 -3.009,-14.8666 -3.4447,-20 -0.4358,-5.1333 -1.0638,-11.1333 -1.3957,-13.3333 -0.3318,-2.2 -0.1542,-3.4 0.3948,-2.6667 0.5489,0.7334 2.4981,1.5027 4.3314,1.7096 5.401,0.6097 14.3596,5.5278 18.9672,10.4128 2.3575,2.4994 4.9058,4.5443 5.663,4.5443 0.8543,0 1.4201,-5.4392 1.4909,-14.3333 0.063,-7.8834 0.8647,-19.7334 1.7821,-26.3334 3.4511,-24.8296 3.4707,-24.2438 -0.9349,-27.9509 -10.224,-8.6029 -28.3016,-35.4991 -28.3016,-42.10762 0,-1.19004 -0.4112,-2.57491 -0.9138,-3.07749 -3.8544,-3.85443 -9.7529,-37.8419 -9.7529,-56.19707 0,-10.21237 2.0338,-21.45173 4.1144,-22.73763 2.9565,-1.8272 21.219,14.17998 21.219,18.59856 0,2.0812 3.5935,3.88076 5.4536,2.73111 0.6672,-0.41232 1.213,-2.70537 1.213,-5.09565 0,-3.95568 1.064,-8.5481 5.5984,-24.16332 0.8517,-2.93333 2.0354,-5.98854 2.6302,-6.78934 0.5949,-0.80081 0.7804,-1.75722 0.4123,-2.12535 -0.3681,-0.36813 0.2437,-3.25727 1.3597,-6.42029 l 2.0291,-5.75096 -6.8778,-6.79036 c -12.9919,-12.82682 -22.456,-27.60116 -27.0784,-42.27169 -1.2451,-3.95194 -2.7801,-8.38534 -3.4111,-9.85201 -4.022,-9.34844 -6.378,-42.02855 -4.4791,-62.12913 l 0.8309,-8.79581 6.2979,3.0382 c 6.4416,3.10755 11.9065,8.55208 15.4373,15.37992 1.0922,2.11208 3.0712,3.84016 4.3978,3.84016 1.9143,0 2.713,-1.71971 3.8707,-8.33334 1.8339,-10.47692 2.984,-15.78117 3.9751,-18.33333 1.1233,-2.89251 1.1161,-2.86572 2.2616,-8.34806 0.5762,-2.7581 1.5797,-5.34351 2.2299,-5.74536 0.6502,-0.40184 1.1822,-2.49522 1.1822,-4.65194 0,-2.4807 0.6889,-3.92131 1.8752,-3.92131 1.1813,0 1.6317,-0.93099 1.2172,-2.51618 -0.3619,-1.38391 -0.01,-2.91932 0.7915,-3.41203 0.7972,-0.49271 1.4494,-2.02501 1.4494,-3.40512 0,-5.29272 2.4601,-3.61148 6.3905,4.36728 7.4368,15.09696 13.5354,36.44052 13.6103,47.63272 0.068,10.22385 1.6236,10.80441 8.7751,3.27563 3.4528,-3.63493 5.8629,-5.70896 5.3559,-4.60896 -0.5071,1.1 0.079,0.65 1.3025,-1 1.2234,-1.65 3.0512,-3 4.0617,-3 1.756,0 2.0699,-0.5738 2.3707,-4.33334 0.1641,-2.05098 7.443,-6.80242 8.6171,-5.62494 0.4672,0.46864 0.8034,12.65098 0.747,27.07185 -0.089,22.70338 -0.5112,27.8291 -3.1498,38.21976 -5.5308,21.77977 -15.6623,40.30121 -30.3907,55.55718 l -8.583,8.89052 3.3932,10.10281 c 5.2622,15.6677 6.4304,20.67689 7.3306,31.43457 0.6741,8.05548 1.2873,10.07142 3.173,10.43188 1.3277,0.25379 2.7385,-0.6037 3.266,-1.98508 1.3014,-3.40803 5.7299,-7.99732 5.7299,-5.93794 0,0.91489 0.5738,1.30881 1.2751,0.87538 0.7014,-0.43343 0.8994,-1.76727 0.4401,-2.96408 -0.5605,-1.46058 -0.319,-1.85714 0.7343,-1.20612 0.9041,0.55872 1.9301,0.0298 2.4204,-1.24774 1.6004,-4.17077 13.7646,-14.53182 13.8199,-11.77139 0.013,0.63434 0.6149,6.77122 1.3381,13.63752 1.5592,14.80332 -0.2162,38.22724 -4.0905,53.96963 -5.1418,20.8922 -16.522,40.38162 -32.8255,56.216 -5.3782,5.2234 -9.7785,9.8327 -9.7785,10.2427 0,0.4101 3.2216,6.4343 7.1591,13.3871 3.9375,6.9528 8.9813,17.361 11.2084,23.1293 2.2271,5.7683 4.6727,10.6957 5.4347,10.9496 0.7619,0.254 2.5691,-2.1367 4.016,-5.3128 1.4469,-3.176 4.2129,-7.4819 6.1467,-9.5685 1.9339,-2.0867 3.2192,-4.0908 2.8564,-4.4536 -0.3628,-0.3629 0.6539,-2.0672 2.2595,-3.7874 1.6055,-1.7203 3.7739,-4.1434 4.8185,-5.3847 1.7557,-2.0864 1.9895,-2.0157 3.0936,0.9358 2.8366,7.5824 7.6685,30.931 9.0214,43.5923 3.0198,28.2615 -3.5925,57.6714 -17.6749,78.6141 -2.7405,4.0754 -3.328,5.8367 -2.0795,6.2338 3.0242,0.9619 14.6052,2.3118 23.9356,2.7899 4.9494,0.2536 10.2301,1.1201 11.735,1.9255 1.5049,0.8053 2.7361,0.9471 2.7361,0.315 0,-0.6322 1.8,-0.8852 4,-0.5623 4.3918,0.6446 5.5686,-2.0872 2.129,-4.9419 -4.2376,-3.5169 -13.0697,-26.9441 -10.9551,-29.0586 0.3288,-0.3288 1.8097,0.051 3.291,0.8436 1.4812,0.7927 4.2116,1.4413 6.0676,1.4413 3.5782,0 11.6967,2.4985 20.2739,6.2395 2.8565,1.2458 5.4937,2.3444 5.8603,2.4413 2.4013,0.6345 8.8335,4.1633 9.6463,5.2921 0.5387,0.7483 0.9887,0.8922 1,0.3198 0.025,-1.2788 17.5089,10.4888 24.3211,16.3695 10.509,9.0719 22.7387,27.4744 28.3581,42.6712 2.7099,7.3287 2.715,7.3331 8.0264,6.9784 11.5029,-0.768 13.4091,-1.0653 15.9815,-2.4925 1.4666,-0.8137 4.0166,-1.2597 5.6666,-0.9911 1.65,0.2687 3,-0.1007 3,-0.8208 0,-0.72 2.4,-1.693 5.3334,-2.162 6.3664,-1.0181 7.1739,-4.3327 1.8977,-7.7898 -6.6195,-4.3372 -10.2155,-8.1112 -14.0281,-14.7222 -2.1145,-3.6667 -3.8503,-7.4007 -3.8571,-8.2977 -0.016,-2.0785 42.8188,-1.3865 48.3092,0.7803 2.0103,0.7934 4.4996,1.1185 5.5318,0.7224 1.0322,-0.3961 2.2728,-0.079 2.7569,0.7041 0.4842,0.7833 2.353,1.4242 4.153,1.4242 1.8,0 4.3146,0.5562 5.588,1.236 2.0622,1.1009 5.1239,2.2247 7.9959,2.9349 6.0809,1.5036 29.2161,18.5782 34.2418,25.2716 4.3792,5.8326 6.636,6.4966 8.7371,2.5708 0.781,-1.4594 2.1379,-2.5094 3.0153,-2.3334 0.8773,0.1761 1.8011,-1.0299 2.0529,-2.6799 0.4988,-3.2693 2.3191,-3.9854 3.3892,-1.3333 0.4017,0.9956 0.7149,0.7272 0.7778,-0.6667 0.2212,-4.9043 8.1917,-0.3625 10.1407,5.7785 1.2733,4.0118 4.4542,3.9713 8.6289,-0.1096 2.2013,-2.1518 4.0023,-3.6089 4.0023,-3.2381 0,0.3709 0.837,-0.099 1.8601,-1.0449 1.023,-0.9456 1.5478,-2.2335 1.1663,-2.8621 -0.3815,-0.6285 0.6722,-0.7093 2.3417,-0.1794 2.5124,0.7974 2.8831,0.5667 2.1518,-1.339 -0.6498,-1.6934 -0.3505,-2.0978 1.1316,-1.529 1.1219,0.4305 2.0152,0.05 2.0152,-0.8594 0,-0.898 1.8034,-2.431 4.0075,-3.4066 2.284,-1.011 3.6235,-2.3953 3.1146,-3.2188 -0.5676,-0.9184 -0.085,-1.1346 1.3258,-0.5934 1.2203,0.4683 2.2187,0.2298 2.2187,-0.5299 0,-0.8069 1.1928,-1.0028 2.8684,-0.471 2.3093,0.733 2.7021,0.4771 2.0153,-1.3127 -0.4718,-1.2295 -0.2998,-1.8811 0.3848,-1.458 0.6808,0.4208 3.224,-0.4458 5.6514,-1.9258 2.4274,-1.48 5.69,-2.6931 7.2502,-2.6958 1.5602,0 3.5837,-0.905 4.4966,-2.005 0.9248,-1.1143 3.8313,-2 6.5633,-2 2.6968,0 5.5385,-0.6351 6.3147,-1.4113 1.5367,-1.5368 48.1701,-5.985 49.4392,-4.7159 2.4372,2.4371 -11.9754,22.3764 -18.8231,26.0412 -5.0627,2.7094 -4.6528,6.7527 0.6845,6.7527 2.2983,0 6.3483,0.5696 9,1.2659 15.062,3.9547 17.4881,4.7443 17.4881,5.6918 0,0.5733 2.0878,1.0423 4.6395,1.0423 4.0627,0 4.9746,-0.6566 7.3334,-5.2802 1.4815,-2.9042 2.7359,-6.3542 2.7875,-7.6667 0.082,-2.1017 0.2304,-2.0683 1.2396,0.2802 1.076,2.5041 1.1516,2.476 1.2396,-0.4609 0.1369,-4.5692 3.9038,-10.8963 11.5786,-19.4482 1.75,-1.95 3.1818,-3.8388 3.1818,-4.1974 0,-0.3586 3.921,-4.5537 8.7133,-9.3226 5.2985,-5.2724 9.3483,-8.306 10.3334,-7.7403 0.891,0.5117 1.1903,0.4544 0.6652,-0.1272 -1.0912,-1.2084 3.2026,-4.7184 8.6588,-7.0783 2.0373,-0.8811 4.0369,-2.4693 4.4437,-3.5294 0.4068,-1.06 1.5899,-1.601 2.6293,-1.2022 1.0393,0.3988 1.8896,0.061 1.8896,-0.7508 0,-0.8118 0.8572,-1.476 1.9048,-1.476 1.0476,0 2.9547,-1.05 4.2381,-2.3334 1.2833,-1.2833 2.3762,-2.1129 2.4285,-1.8434 0.1897,0.9754 18.6959,-5.2842 20.7025,-7.0026 2.4239,-2.0757 10.6056,-6.154 12.346,-6.154 3.7823,0 -4.0501,24.0713 -9.8366,30.2307 -3.854,4.1024 -2.3057,5.3982 5.8261,4.8762 3.8815,-0.2492 13.0573,-0.6827 20.3906,-0.9633 7.3334,-0.2806 14.661,-1.0326 16.2836,-1.6712 2.564,-1.0091 2.7386,-1.5275 1.3334,-3.9594 -12.8509,-22.2393 -18.0404,-38.4439 -19.203,-59.9624 -0.8773,-16.2387 1.6654,-37.6485 6.4786,-54.5506 1.4618,-5.1333 2.7376,-10.3257 2.835,-11.5387 0.4359,-5.4258 13.4147,9.7344 17.7915,20.7817 1.433,3.617 3.2826,6.802 4.1103,7.0779 0.8277,0.2759 2.4889,-1.7834 3.6915,-4.5763 3.2612,-7.5732 10.5508,-22.3155 11.4114,-23.0779 0.4138,-0.3667 1.538,-2.609 2.4982,-4.9831 0.9601,-2.374 2.3687,-3.9313 3.1303,-3.4606 0.7615,0.4706 1.0226,0.27 0.5801,-0.4459 -0.4424,-0.7159 0.065,-2.9772 1.1274,-5.0251 2.16,-4.1635 2.553,-8.752 0.7495,-8.752 -2.0914,0 -18.6612,-17.4881 -23.5541,-24.85953 -11.4247,-17.21214 -16.4262,-30.24029 -19.9025,-51.84294 -2.5485,-15.83783 -2.7919,-48.62151 -0.3612,-48.65129 1.2838,-0.0157 1.2693,-0.27249 -0.063,-1.11769 -1.3604,-0.86295 -1.2345,-1.49926 0.5893,-2.97958 1.9069,-1.54778 2.1221,-1.55536 1.2108,-0.0427 -0.7681,1.27514 -0.5398,1.64267 0.7441,1.19775 3.1051,-1.07606 12.4426,6.35527 17.8491,14.20536 2.8122,4.08315 5.8173,7.42392 6.6779,7.42392 0.899,0 2.2806,-4.11317 3.2469,-9.66667 0.9251,-5.31667 2.859,-13.86667 4.2975,-19 3.2786,-11.70008 6.4491,-23.3793 6.4424,-23.73172 0,-0.14755 -4.0529,-4.51898 -9,-9.71427 -18.31,-19.22832 -27.9782,-40.56474 -31.7314,-70.02715 -2.6066,-20.46169 -2.1203,-44.74162 0.935,-46.67772 1.3312,-0.8436 1.3664,-1.14697 0.1349,-1.16206 -0.9167,-0.0112 -1.6667,-0.56424 -1.6667,-1.22892 0,-0.66468 1.2,-0.8947 2.6667,-0.51116 1.4666,0.38354 2.6666,1.22737 2.6666,1.87518 0,0.6478 0.7726,1.17782 1.7168,1.17782 1.7612,0 14.2832,12.00828 14.2832,13.69722 0,1.6433 4.5325,6.30278 6.1309,6.30278 0.8892,0 2.4873,-5.20423 3.7874,-12.33333 1.237,-6.78334 2.8114,-13.3752 3.4987,-14.64858 0.6873,-1.27338 1.2497,-3.48797 1.2497,-4.92131 0,-1.43334 0.6,-2.97689 1.3333,-3.43011 0.7334,-0.45323 1.3334,-2.27039 1.3334,-4.03814 0,-1.76775 1.2,-5.35059 2.6666,-7.96186 1.4667,-2.61128 2.6667,-5.25626 2.6667,-5.87773 0,-0.62147 0.9479,-3.3985 2.1064,-6.17119 l 2.1063,-5.04124 2.931,5.21174 c 4.7781,8.49632 13.083,34.53405 14.7613,46.28012 1.2071,8.44809 2.0746,11.01957 3.8317,11.35796 1.2599,0.24263 2.6849,-0.64553 3.2,-1.99445 1.3014,-3.40803 5.73,-7.99732 5.73,-5.93794 0,0.91489 0.6098,1.28657 1.355,0.82595 0.7453,-0.46062 1.0099,-1.39603 0.588,-2.07869 -0.4219,-0.68266 0.2037,-1.2412 1.3903,-1.2412 1.1866,0 1.7866,-0.6 1.3333,-1.33333 -0.4532,-0.73334 0.092,-1.33334 1.2128,-1.33334 1.2628,0 1.7452,-0.7601 1.2694,-2 -0.4221,-1.1 -0.1342,-2 0.6398,-2 0.774,0 3.0624,-1.53391 5.0854,-3.4087 l 3.678,-3.4087 1.0993,2.97177 c 1.6592,4.48512 2.1912,32.34367 0.8627,45.17453 -3.2647,31.53086 -15.1926,56.87903 -36.8047,78.21385 -5.4319,5.36224 -5.5602,5.68119 -3.755,9.3379 2.8663,5.8061 10.0457,34.76333 10.0457,40.51795 0,2.81088 0.5988,5.48078 1.3307,5.93311 1.3698,0.84663 10.5778,-8.28292 10.7566,-10.66504 0.055,-0.73333 0.6158,-0.13333 1.246,1.33333 0.9799,2.28029 1.1595,2.32859 1.2396,0.33334 0.052,-1.28334 1.0579,-2.33334 2.2364,-2.33334 1.3568,0 1.8612,-0.73354 1.3752,-2 -0.4758,-1.23989 0.01,-2 1.2693,-2 1.1203,0 1.7515,-0.46173 1.4027,-1.02608 -0.3488,-0.56434 1.3907,-2.35336 3.8654,-3.97559 l 4.4995,-2.94951 1.5146,4.97559 c 2.413,7.9268 3.0971,26.5013 1.3566,36.83576 -0.8775,5.21024 -2.1951,13.07317 -2.9282,17.47317 -3.8802,23.29136 -15.4927,45.58009 -33.39,64.0878 l -6.5318,6.7545 2.0184,12.4793 c 2.8699,17.7441 3.9893,38.4342 2.3903,44.1804 -0.74,2.6595 -0.9074,5.5443 -0.3719,6.4107 1.2438,2.0126 8.0812,0.4262 7.3343,-1.7017 -0.2981,-0.8494 1.0473,-2.7019 2.9898,-4.1167 3.0986,-2.2568 3.425,-2.294 2.6609,-0.3025 -0.7585,1.9764 -0.4871,2.0664 2.0989,0.6964 1.6335,-0.8654 4.0112,-2.7609 5.2837,-4.2123 2.5424,-2.8995 8.4163,-6.2759 10.9181,-6.2759 3.2973,0 -2.4958,34.1146 -8.8303,52 -6.1769,17.4404 -16.5144,34.2199 -28.3539,46.0227 -7.1532,7.1311 -29.5161,23.2785 -32.3109,23.3305 -0.5885,0.011 -5.87,3.8844 -11.7367,8.6076 -5.8667,4.7233 -14.0988,10.5643 -18.2937,12.9801 -4.1948,2.4158 -7.6448,4.8193 -7.6667,5.341 -0.022,0.5217 2.4085,1.6078 5.4007,2.4135 2.9922,0.8058 7.8102,2.7961 10.7068,4.423 6.4353,3.6147 17.0667,11.8339 17.1358,13.2479 0.028,0.5682 -1.4515,1.604 -3.2872,2.302 -1.8357,0.6979 -5.9063,2.4391 -9.0457,3.8693 -16.7457,7.6285 -34.5177,12.0528 -52.2833,13.0158 -18.1059,0.9815 -29.7002,-1.1735 -47.5824,-8.8437 l -12.6779,-5.438 -9.8699,4.6685 c -13.7404,6.4992 -30.895,12.5053 -38.6599,13.5353 -7.45,0.9883 -8.2769,2.9254 -2.6641,6.241 6.2975,3.72 20.5451,22.3036 18.5949,24.2538 -1.5951,1.5951 -29.2008,3.4007 -39.8074,2.6037 -10.319,-0.7754 -22.5824,-2.9169 -30.3334,-5.2971 -3.3416,-1.0262 -4.0031,0.8311 -1.292,3.6278 1.5995,1.65 4.5808,6.4329 10.4733,16.8025 5.3241,9.3693 2.1956,13.3251 -9.0952,11.5005 l -7.4735,-1.2077 -1.8176,-7.1509 c -3.1251,-12.2952 -13.5791,-30.7236 -21.6599,-38.1825 -3.9725,-3.6666 -9.5039,-8.9166 -12.2921,-11.6666 -5.6498,-5.5724 -7.843,-6.2536 -7.843,-2.4359 0,1.4102 -1.8461,4.4102 -4.1025,6.6666 -3.3278,3.3278 -5.2015,4.1026 -9.9213,4.1026 -3.2003,0 -6.1896,-0.6 -6.6428,-1.3333 -0.4533,-0.7334 -1.3141,-1.3334 -1.913,-1.3334 -1.908,0 -22.7537,42.8265 -22.7537,46.7464 0,2.0696 -0.75,4.2482 -1.6667,4.8412 -2.0015,1.295 -9.7126,1.5252 -14.3333,0.428 z m 41.3333,-134.1853 c -3.3,-2.6458 -12,-8.8514 -19.3333,-13.7903 -31.6908,-21.343 -43.7026,-25.7984 -84.6667,-31.4044 -12.9216,-1.7683 -30.4897,-5.0471 -53.3333,-9.9537 -10.5143,-2.2584 -31.9731,-9.9591 -41.5552,-14.9124 -17.8182,-9.2107 -31.3236,-23.0654 -38.4448,-39.4387 l -3.3334,-7.6641 -0.3525,-222.55323 c -0.2517,-158.88365 -0.7705,-223.05678 -1.8134,-224.31343 -1.136,-1.36885 -10.0918,-1.83878 -40.2785,-2.11347 l -38.8177,-0.35324 0.041,-78.96579 c 0.023,-43.43118 0.3961,-79.32059 0.8298,-79.75425 0.4337,-0.43366 17.4991,-0.95584 37.9231,-1.16039 20.4241,-0.20455 38.1846,-0.82933 39.468,-1.38839 1.2833,-0.55907 2.3665,-2.30229 2.407,-3.87384 0.041,-1.57154 0.061,-9.75734 0.044,-18.19068 -0.037,-19.52849 1.0168,-25.5981 4.5507,-26.20094 1.4655,-0.25001 110.0646,-0.4775 241.3313,-0.50554 131.2667,-0.028 240.7667,-0.53207 243.3333,-1.12009 8.1245,-1.86129 8,-2.24024 8,24.36754 v 24.31875 l 9,1.25136 c 8.3603,1.16242 52.9042,1.40401 65.0001,0.35254 l 5.3333,-0.46362 0.3436,81 0.3437,81 -33.677,0.24425 c -18.5223,0.13434 -35.177,0.12936 -37.0103,-0.0111 -1.8334,-0.14042 -4.6765,0.0594 -6.3181,0.44399 l -2.9847,0.69929 -0.3486,223.64511 -0.3486,223.64507 -4.9627,10.3932 c -16.1935,33.9133 -51.2985,49.8312 -137.3982,62.3014 -14.4984,2.0999 -30.0985,5.1356 -34.6666,6.746 -16.9282,5.9676 -45.47,22.8207 -64.5303,38.1032 -3.0567,2.4509 -6.0567,4.4504 -6.6666,4.4433 -0.6099,-0.01 -3.809,-2.1777 -7.109,-4.8235 z m 91.4292,-140.055 c 4.6095,-1.5607 8.8393,-4.5354 14.1706,-9.9657 9.0657,-9.2339 11.0066,-15.2403 6.7631,-20.9294 -3.6038,-4.8317 -6.3385,-5.0551 -12.1956,-0.9962 -3.6393,2.5221 -6.672,3.4493 -11.2818,3.4493 -8.2194,0 -12.494,-1.8965 -27.7467,-12.3103 -8.3417,-5.69531 -17.6141,-10.55272 -27.2275,-14.26319 -8.0179,-3.09467 -16.5279,-6.54999 -18.9113,-7.6785 l -4.3333,-2.05183 v -69.77395 -69.77395 l 17.4506,-0.40746 c 11.2169,-0.26191 17.8706,0.10024 18.6263,1.0138 0.6466,0.78169 1.3438,9.48169 1.5494,19.33333 l 0.3737,17.91208 11.6822,0.38547 11.6822,0.38547 -0.3489,-52.38547 -0.3488,-52.38547 -12.3334,-0.38337 -12.3333,-0.38337 v 19.07121 19.07121 l -15,-0.41026 c -8.25,-0.22564 -16.0867,-0.53517 -17.4148,-0.68784 -2.2853,-0.2627 -2.415,-3.09855 -2.4174,-52.88371 v -52.60613 l 3.0841,-1.15381 c 1.6962,-0.6346 10.2841,-2.6509 19.0841,-4.48067 18.8033,-3.90976 37.244,-4.34105 49.267,-1.15226 7.8732,2.08816 11.7222,3.99187 37.3996,18.49765 14.7371,8.32532 25.6021,12.83468 30.9242,12.83468 1.9199,0 5.5043,-1.5358 7.9653,-3.4129 9.984,-7.61513 10.9633,-21.09775 2.7835,-38.32205 -8.4427,-17.77787 -24.2407,-35.72749 -36.9294,-41.95913 -6.4758,-3.18033 -8.9235,-3.62679 -19.4102,-3.54041 -10.731,0.0884 -14.1855,0.82366 -32.6667,6.95296 -41.1716,13.6546 -57.5386,16.57716 -92.6667,16.5469 -13.2,-0.0114 -28.2,-0.65373 -33.3333,-1.42745 -5.1334,-0.77372 -11.7334,-1.7708 -14.6667,-2.21574 -13.9559,-2.11687 -37.2064,-9.70766 -44,-14.36502 -2.2,-1.50822 -6.5366,-5.03308 -9.6369,-7.83302 -3.1002,-2.79994 -6.4302,-5.09081 -7.4,-5.09081 -5.6861,0 -6.5174,8.79117 -1.7632,18.6461 10.7981,22.38333 31.9001,38.85146 63.2331,49.34743 13.4002,4.4888 36.0722,8.05737 45.2337,7.11975 l 5.6666,-0.57994 v 135.9034 c 0,107.09913 -0.3532,136.19539 -1.6666,137.28099 -0.9167,0.75768 -5.8667,3.52988 -11,6.16046 -10.2086,5.23142 -18.9075,13.78542 -22.8023,22.42252 -2.412,5.3488 -2.4105,5.3658 0.6736,7.8632 4.4207,3.5796 9.1727,3.1384 24.9758,-2.319 21.4738,-7.4158 30.2647,-5.8016 54.4862,10.0043 27.7236,18.0914 46.4648,23.4442 62.7625,17.9261 z m -223.4292,-91.05472 v -15.94607 l -11,-0.38726 -11,-0.38726 0.2702,-6.77269 c 0.1486,-3.72499 1.3486,-9.94519 2.6667,-13.82268 l 2.3965,-7.04998 31.8899,-10e-4 31.89,-10e-4 2.9164,11.82369 c 1.6041,6.50303 3.1536,12.72369 3.4434,13.82369 0.4284,1.62608 -1.5919,2.12464 -10.8064,2.66667 l -11.3333,0.66667 v 15.3333 15.33333 h 36 36 l 0.3806,-14.55266 c 0.2094,-8.00397 -0.1688,-15.10219 -0.8405,-15.77382 -0.6716,-0.67164 -5.4802,-1.36029 -10.6858,-1.53034 -5.2057,-0.17005 -9.7535,-0.59786 -10.1063,-0.95068 -0.3528,-0.35283 -6.0337,-18.31548 -12.6242,-39.917 -6.5904,-21.60152 -16.5696,-53.3755 -22.1758,-70.60883 -9.5878,-29.47236 -18.2212,-56.95941 -22.9513,-73.0725 -1.5903,-5.41713 -3.0024,-7.55145 -6.0332,-9.11874 -3.5782,-1.85033 -4.5026,-1.83787 -9.6557,0.13011 -6.1379,2.34409 -7.2008,4.0384 -10.4936,16.7278 -1.9555,7.53575 -5.4876,20.36178 -16.1558,58.66666 -3.3699,12.1 -7.2761,26.2 -8.6802,31.33334 -1.4042,5.13333 -7.5939,26.73333 -13.7549,48 l -11.2017,38.66666 -8.0545,0.39377 -8.0544,0.39376 -0.4989,13.60624 c -0.2744,7.48343 -0.2598,14.65623 0.033,15.93957 0.4889,2.14698 3.2343,2.33333 34.3759,2.33333 h 33.8445 z m -7.9947,-73.72059 c 0,-0.18333 3.3564,-12.93333 7.4522,-28.33333 4.0957,-15.4 8.8346,-33.59128 10.5309,-40.42507 1.6962,-6.83379 3.3636,-12.70468 3.7054,-13.04644 0.3417,-0.34175 1.5242,2.84954 2.6277,7.09174 2.853,10.96815 19.7089,70.90738 20.5749,73.16427 0.6046,1.57546 -2.9946,1.88217 -22.0871,1.88217 -12.5451,0 -22.8069,-0.15 -22.804,-0.33334 z m 266.3704,73.33334 0.3756,-15.66667 h -11.5671 -11.5671 l 0.867,-9.32849 c 0.4768,-5.13067 1.7681,-11.58067 2.8694,-14.33334 l 2.0025,-5.00484 31.6553,0.20745 31.6554,0.20744 2.8459,9.90648 c 1.5652,5.44857 3.2574,11.78027 3.7604,14.07045 l 0.9146,4.16397 -11.0938,0.38878 -11.0938,0.38877 -0.3758,15.68817 -0.3758,15.68817 36.3758,-0.35484 36.3758,-0.35484 -0.3622,-15.2725 c -0.2438,-10.28056 -0.8975,-15.60861 -2,-16.30081 -0.9008,-0.56558 -5.2632,-0.68144 -9.6944,-0.25748 -5.9367,0.56801 -8.4163,0.29634 -9.4237,-1.03252 -0.7519,-0.99184 -4.2342,-11.40335 -7.7385,-23.13669 -3.5043,-11.73333 -8.3658,-27.63333 -10.8033,-35.33333 -2.4374,-7.7 -8.1246,-25.7 -12.6381,-40 -4.5135,-14.3 -11.7614,-36.95372 -16.1064,-50.34161 -4.345,-13.38789 -7.9,-24.91538 -7.9,-25.61665 0,-3.89686 -6.0013,-16.41793 -8.7242,-18.20202 -3.6311,-2.3792 -9.0109,-1.63546 -13.5776,1.87707 -3.2333,2.48692 -2.1953,-0.87452 -24.3797,78.94988 -7.4388,26.76666 -15.8959,56.76666 -18.7934,66.66666 -2.8975,9.9 -7.1342,24.42353 -9.4149,32.27451 l -4.1468,14.27451 -8.1484,0.39216 -8.1484,0.39216 -0.3826,13.90986 c -0.2105,7.65042 -0.075,14.71076 0.3003,15.68963 0.5496,1.43239 7.2605,1.71023 34.3826,1.42347 l 33.6997,-0.3563 z m -7.0048,-77.33334 c 0.9825,-4.64782 8.79,-34.67723 11.8732,-45.66666 1.0287,-3.66667 3.2604,-12.21667 4.9593,-19 1.699,-6.78334 3.4227,-12.33334 3.8307,-12.33334 0.4079,0 1.8479,4.05 3.2001,9 4.9711,18.19762 7.3739,26.79263 13.3258,47.66667 3.3455,11.73333 6.0882,22.08333 6.0947,23 0.01,1.2668 -5.2917,1.66667 -22.0939,1.66667 h -22.106 z m 194.9621,-304.33333 c 0.1832,-10.26667 -0.169,-19.44375 -0.7825,-20.39351 -0.9079,-1.40549 -57.9161,-1.71964 -306.333,-1.68808 -167.8696,0.0213 -305.9675,0.0484 -306.8842,0.0602 -1.2604,0.0162 -1.6666,5.03815 -1.6666,20.6036 v 20.58219 l 4.3333,0.41781 c 2.3833,0.22979 140.8334,0.11781 307.6667,-0.24886 l 303.3334,-0.66666 z m -1.104,-47.87424 c 1.0688,-1.28778 1.4328,-7.85888 1.1633,-21 l -0.3922,-19.12576 H 1934.0324 1626.699 l -0.3716,19.27202 c -0.2043,10.59961 -0.073,20.04961 0.2915,21 1.0322,2.6898 611.7428,2.54432 613.9758,-0.14626 z M 1682.0324,325.02784 c 0,-0.63247 1.8,-5.51499 4,-10.85005 2.2,-5.33505 4,-10.81757 4,-12.18338 0,-1.36581 0.5184,-2.48328 1.1521,-2.48328 0.6336,0 1.5073,-2.59171 1.9415,-5.75936 0.4342,-3.16765 1.5248,-7.51765 2.4237,-9.66667 1.8275,-4.36925 2.0505,-5.32997 3.2668,-14.07048 l 0.8577,-6.16317 -6.4876,-4.4155 c -3.5682,-2.42852 -6.7876,-4.7835 -7.1542,-5.23328 -0.3667,-0.44978 -6.6667,-5.43441 -14,-11.07696 -7.3334,-5.64255 -15.4334,-12.02431 -18,-14.18169 l -4.6667,-3.92252 5.3333,0.53475 c 10.7831,1.08117 52.9403,0.56897 55.2578,-0.67136 1.3154,-0.70397 2.6888,-0.98279 3.052,-0.61961 0.8008,0.80085 5.0037,-8.96753 8.9295,-20.75415 1.5877,-4.76667 3.4584,-9.70853 4.1571,-10.98191 0.6987,-1.27338 1.2703,-3.10338 1.2703,-4.06667 0,-0.96328 0.7327,-2.48411 1.6282,-3.37962 0.8955,-0.8955 1.653,-2.6655 1.6833,-3.93333 0.088,-3.69305 3.7031,-17.64007 4.5674,-17.62199 0.4333,0.009 2.0741,3.75906 3.6463,8.33333 1.5722,4.57427 4.7672,13.41685 7.0999,19.65019 2.3327,6.23333 5.7191,15.98333 7.5252,21.66666 1.8062,5.68334 3.7112,10.39911 4.2335,10.47951 0.5222,0.0804 3.0496,0.4718 5.6162,0.8698 2.5667,0.398 16.5167,0.7042 31,0.68044 14.4834,-0.0238 26.3141,0.33483 26.2905,0.79686 -0.024,0.46203 -5.1808,4.74006 -11.4605,9.50673 -6.2797,4.76666 -16.0323,12.26666 -21.6724,16.66666 -5.6402,4.4 -11.6837,8.9405 -13.4302,10.09 -2.9322,1.93003 -3.0649,2.49135 -1.7334,7.33334 3.776,13.73106 12.6762,43.31708 14.9139,49.57666 2.7945,7.81699 1.8551,8.63936 -4.4487,3.89437 -10.2286,-7.69932 -46.1017,-31.56103 -47.4481,-31.56103 -0.8236,0 -5.513,2.82955 -10.4209,6.28789 -12.36,8.70938 -41.7403,28.37877 -42.3896,28.37877 -0.2937,0 -0.5339,-0.51747 -0.5339,-1.14995 z m 396.2914,-9.85005 c 2.2577,-6.05 4.385,-12.65734 4.7272,-14.68298 0.3422,-2.02565 1.153,-4.01106 1.8018,-4.41203 0.6488,-0.40097 1.2059,-2.04362 1.2381,-3.65034 0.032,-1.60672 0.9595,-5.32131 2.0607,-8.25465 2.2256,-5.92878 2.8855,-8.49261 3.9465,-15.33333 0.7128,-4.5963 0.5305,-4.8074 -12.0945,-14 -7.0501,-5.13333 -14.2695,-10.54543 -16.0433,-12.02689 -1.7738,-1.48146 -7.0987,-5.68146 -11.8331,-9.33333 -4.7345,-3.65188 -8.6425,-6.93978 -8.6844,-7.30645 -0.042,-0.36666 13.0393,-0.56936 29.0695,-0.45044 19.9305,0.14786 30.1319,-0.27534 32.2643,-1.33845 2.3818,-1.18746 4.2932,-5.01036 8.0921,-16.18457 2.7356,-8.04643 5.6165,-14.84413 6.4021,-15.10599 0.7855,-0.26185 1.4283,-2.2261 1.4283,-4.36499 0,-2.13889 0.6,-3.88889 1.3333,-3.88889 0.7333,0 1.3333,-1.47624 1.3333,-3.28053 0,-1.80429 1.0203,-6.59376 2.2672,-10.64326 l 2.2672,-7.36273 3.1258,7.64326 c 2.9528,7.2203 11.3092,30.57737 16.0168,44.76867 1.5347,4.62648 3.1137,6.8379 5.5661,7.79529 2.6667,1.04105 34.1239,3.02302 40.7569,2.5679 0.7334,-0.0503 5.8334,-0.40067 11.3334,-0.77855 l 10,-0.68707 -4,3.41967 c -2.2,1.88082 -7.3,5.92224 -11.3334,8.98093 -4.0333,3.05869 -7.6333,5.86467 -8,6.23551 -0.3666,0.37083 -5.7666,4.50702 -12,9.19153 -17.2017,12.92756 -16.3904,11.10619 -11.7796,26.44456 2.1556,7.17098 6.2674,20.50863 9.1373,29.63922 2.8699,9.13058 4.9564,16.86271 4.6366,17.18249 -0.5823,0.58231 -17.0318,-9.72519 -19.837,-12.43022 -4.4356,-4.2771 -32.9884,-22.24003 -34.444,-21.66917 -0.9423,0.36956 -12.7709,8.2418 -26.2858,17.49388 -13.5149,9.25207 -25.023,16.82195 -25.5735,16.82195 -0.5506,0 0.8463,-4.95 3.1041,-11 z m -100.2914,-43.87368 c -10.6333,-7.3062 -25.1145,-17.21093 -32.1803,-22.01052 l -12.847,-8.72654 -26.4864,18.15538 c -34.4086,23.58583 -36.6709,25.04855 -37.4836,24.23585 -0.3766,-0.37656 0.5724,-3.85622 2.1089,-7.73257 1.5364,-3.87635 3.5609,-9.59792 4.4989,-12.71458 0.938,-3.11667 2.1593,-5.66667 2.7141,-5.66667 0.5548,0 1.0087,-1.76459 1.0087,-3.92131 0,-2.15672 0.6098,-4.29818 1.3551,-4.7588 0.7453,-0.46062 1.0494,-1.33214 0.6757,-1.93672 -0.3736,-0.60457 0.2582,-3.71311 1.4041,-6.90786 1.146,-3.19476 3.5206,-11.20864 5.277,-17.80864 l 3.1934,-12 -2.9213,-2 c -3.0792,-2.10804 -29.5628,-22.10376 -32.984,-24.90365 -1.1,-0.90024 -7.3251,-5.86519 -13.8335,-11.03324 -10.6959,-8.49311 -12.2209,-10.25071 -8.2045,-9.45592 3.5317,0.69888 64.7981,0.16279 68.8785,-0.60269 4.9892,-0.936 9.1595,-5.99657 9.1595,-11.11499 0,-1.48447 0.8567,-3.55567 1.9037,-4.60268 1.047,-1.047 2.3259,-4.23985 2.8421,-7.09523 0.5162,-2.85538 1.6068,-6.3916 2.4236,-7.85827 0.8167,-1.46667 1.5457,-3.26667 1.62,-4 0.1784,-1.76115 1.7736,-6.10604 3.2829,-8.94177 0.666,-1.2513 1.601,-4.7146 2.0778,-7.69622 0.4768,-2.98161 1.3881,-5.74322 2.0251,-6.13692 0.637,-0.39369 1.1582,-2.14498 1.1582,-3.89176 0,-1.746773 0.6,-3.546773 1.3333,-3.999998 0.7333,-0.453225 1.3333,-2.188635 1.3333,-3.856467 0,-5.580332 1.848,-4.963313 4.4212,1.476216 4.3223,10.816559 10.0917,26.911449 16.3643,45.650999 3.3022,9.86558 6.5878,18.6407 7.3011,19.50028 0.7134,0.85958 3.6221,1.93464 6.4637,2.38903 6.1866,0.98929 55.4638,1.08857 64.4497,0.12984 7.1589,-0.76378 8.0483,0.61525 2.6667,4.13463 -2.0167,1.31884 -4.3216,3.03784 -5.1222,3.82001 -0.8005,0.78217 -3.434,2.92213 -5.8522,4.75546 -2.4181,1.83334 -10.2119,7.83334 -17.3194,13.33334 -7.1075,5.5 -16.2952,12.4 -20.4171,15.33333 -4.122,2.93333 -7.5233,6.05406 -7.5584,6.93495 -0.085,2.13394 2.48,11.52396 9.9436,36.39838 3.4107,11.36667 6.6939,22.46667 7.2961,24.66667 0.6023,2.2 1.8247,5.98063 2.7165,8.4014 0.8918,2.42076 1.4021,4.61308 1.1339,4.87181 -0.2681,0.25873 -9.1875,-5.50737 -19.8208,-12.81356 z"
       id="path1" />
  </g>
</svg>
