<?xml version="1.0" encoding="UTF-8" standalone="no"?>
<!-- Created with Inkscape (http://www.inkscape.org/) -->

<svg
   version="1.1"
   id="svg1"
   width="983.19714"
   height="657.32037"
   viewBox="0 0 983.1971 657.32038"
   xmlns="http://www.w3.org/2000/svg"
   xmlns:svg="http://www.w3.org/2000/svg">
  <defs
     id="defs1" />
  <g
     id="g1"
     transform="translate(-1147.6948,-56.648361)">
    <path
       style="fill:#000000"
       d="m 1241.7583,711.63334 c -10.7552,-5.4036 -13.2115,-16.72539 -8.0266,-36.99793 1.4667,-5.73461 2.6667,-10.63059 2.6667,-10.87995 0,-0.24936 -1.3621,-0.45339 -3.0268,-0.45339 -5.6547,0 -22.8962,-5.49777 -31.6181,-10.08198 -10.4961,-5.51667 -20.5141,-13.6043 -27.9754,-22.58468 -5.9456,-7.15601 -14.9801,-24.63265 -17.2317,-33.33334 -15.7083,-60.70159 28.1854,-124.77116 91.8585,-134.0814 56.1614,-8.21188 103.2231,29.0958 107.5544,85.26254 l 0.8064,10.45698 20.8163,-0.63591 c 11.449,-0.34975 23.9664,-0.0502 27.8164,0.66559 l 7,1.30149 0.102,-8.15131 c 0.107,-8.54896 0.1236,-8.6833 2.3723,-19.16862 3.7031,-17.26695 12.3258,-32.64276 25.4302,-45.34673 37.3817,-36.23938 100.9634,-33.50075 141.0395,6.07495 23.6098,23.31506 34.963,51.5325 33.3523,82.89463 -1.3078,25.46565 -9.0695,43.06074 -26.8458,60.85741 -12.7482,12.76288 -27.0289,20.57364 -44.1172,24.12977 -5.8667,1.22087 -10.8561,2.35139 -11.0876,2.51227 -0.2316,0.16087 0.3012,2.90306 1.1838,6.09375 6.7442,24.37994 4.911,35.4649 -6.8576,41.46586 -4.2655,2.17499 -13.8222,2.33126 -142.5719,2.33126 -128.7238,0 -138.312,-0.15671 -142.6401,-2.33126 z m 280.3913,-15.04737 c 1.627,-2.32291 1.6424,-3.95634 0.1065,-11.28356 -2.165,-10.32864 -6.4458,-23.31237 -9.9521,-30.18537 -1.4148,-2.77313 -2.5723,-5.24781 -2.5723,-5.49927 0,-0.25146 5.85,-0.52639 13,-0.61095 70.7252,-0.83646 102.6224,-80.45685 55.0437,-137.39774 -38.1407,-45.64584 -106.3485,-46.24563 -137.0048,-1.20475 -9.8296,14.44188 -13.0596,25.46777 -12.9574,44.23107 0.044,8.06667 0.7452,16.91667 1.5584,19.66667 1.7649,5.96858 1.969,5.92906 -11.6399,2.25331 -20.1786,-5.45021 -52.289,-4.82423 -72.3191,1.40983 -6.2915,1.95814 -7.7391,2.07837 -7.1701,0.59555 0.3921,-1.02186 1.4198,-6.91078 2.2838,-13.08649 3.5419,-25.31873 -4.4211,-48.92787 -22.3811,-66.35659 -9.5287,-9.24685 -15.6124,-13.06834 -28.4557,-17.87447 -8.9677,-3.35584 -11.615,-3.72441 -26.6245,-3.70683 -14.6165,0.0171 -17.9787,0.46653 -27.3333,3.6535 -40.119,13.66795 -67.3823,50.11638 -67.3136,89.99214 0.038,22.27515 7.3764,40.70137 22.0543,55.37931 14.7503,14.75032 33.9788,22.44119 56.105,22.44048 l 12.179,-3.8e-4 -3.0934,6.99463 c -3.6641,8.28537 -8.1452,22.80168 -9.7543,31.59916 -0.8721,4.76814 -0.6916,6.94909 0.7449,9 1.8843,2.69013 2.7351,2.70685 137.7448,2.70685 135.1615,0 135.8584,-0.0137 137.7512,-2.7161 z m 231.5613,14.91396 c -10.8061,-5.7424 -13.0971,-16.30678 -7.9587,-36.70003 1.4554,-5.7762 2.6462,-10.64262 2.6462,-10.81428 0,-0.17166 -2.8998,-0.65554 -6.444,-1.07529 -27.3703,-3.24161 -56.018,-24.89448 -67.6968,-51.1674 -5.8452,-13.14946 -7.7179,-22.81743 -7.7043,-39.77419 0.01,-12.39828 0.6713,-18.33676 2.9379,-26.38061 10.51,-37.29931 39.6061,-66.95841 76.2405,-77.71573 l 10,-2.9364 0.8665,-5.98946 c 1.9546,-13.51158 10.4957,-25.22701 22.4669,-30.81679 4.6205,-2.1575 8.6287,-2.80463 17.4338,-2.81466 10.7948,-0.0123 12.078,0.30615 22.9573,5.69705 23.9884,11.88671 52.7218,46.50976 62.9935,75.90557 l 3.0802,8.81502 10.0445,0.118 10.0445,0.11801 3.4633,-9.75021 c 9.0132,-25.37536 33.2248,-56.6641 54.8877,-70.93156 21.5774,-14.21123 44.7508,-13.88487 59.4732,0.83758 5.7993,5.79931 9.0067,12.15148 10.9725,21.73059 l 1.4816,7.21974 7.9173,2.18104 c 29.9298,8.24504 57.9969,31.97108 71.2006,60.1882 9.425,20.14166 12.5793,48.35177 7.5876,67.85795 -6.6134,25.84297 -24.1809,47.66547 -47.5666,59.08767 -6.9796,3.40902 -16.5179,6.89489 -21.3044,7.78591 -4.7666,0.88733 -9.1178,1.98494 -9.6692,2.43913 -0.5514,0.45419 0.2651,5.83871 1.8144,11.96561 4.7652,18.84381 1.9808,30.17757 -8.6537,35.22397 -4.1164,1.95337 -17.9328,2.16438 -141.7138,2.16438 -130.9272,0 -137.3635,-0.11206 -141.7985,-2.46881 z m 278.0607,-14.06211 c 2.3809,-1.74096 2.4409,-2.49756 0.9073,-11.44076 -1.3437,-7.83575 -6.4019,-23.17798 -11.4916,-34.85576 -0.8299,-1.9042 0.136,-2.08763 8.1347,-1.54473 12.272,0.83293 26.6238,-2.36412 39.7431,-8.85333 19.0233,-9.4095 33.2276,-27.07143 38.6899,-48.10783 3.1563,-12.15558 2.1508,-37.32279 -1.9542,-48.91108 -7.5691,-21.36737 -25.0526,-42.08613 -45.0803,-53.42198 -7.5111,-4.25138 -25.1472,-10.73973 -26.0565,-9.58626 -0.2541,0.32229 -1.771,6.58598 -3.3709,13.91931 -1.5999,7.33334 -4.5228,20.7306 -6.4954,29.77171 -2.8871,13.23308 -3.2696,16.87286 -1.9613,18.66667 0.8938,1.22556 3.6948,6.42829 6.2245,11.56162 15.9644,32.39556 9.2716,62.17694 -15.9536,70.98953 -5.3121,1.85582 -10.8729,2.32357 -26.7089,2.2466 -22.3772,-0.10876 -37.2953,-2.90157 -51.0638,-9.55961 -7.262,-3.5117 -19.8098,-14.3304 -22.505,-19.40385 -1.0859,-2.04405 -1.8438,-2.17506 -5.1848,-0.89627 -5.2899,2.02472 -16.3663,2.00755 -22.5552,-0.035 -4.5348,-1.49662 -5.2092,-1.41767 -6.4234,0.75198 -3.8076,6.80378 -12.7339,14.33231 -22.8041,19.23315 -12.9646,6.30943 -26.9671,9.37845 -47.1085,10.32506 -24.2343,1.13899 -37.0835,-2.51438 -46.1671,-13.12657 -12.4577,-14.55398 -12.2431,-38.03776 0.57,-62.39039 2.1611,-4.1074 4.6148,-8.42804 5.4527,-9.60144 1.9452,-2.72419 -10.5414,-61.13018 -13.2984,-62.20308 -0.9649,-0.37547 -5.7762,0.89523 -10.6918,2.8238 -23.3838,9.17433 -41.8396,25.25142 -52.3691,45.61932 -8.5966,16.62907 -11.0458,26.2223 -11.0361,43.22674 0.013,22.41722 6.9772,39.79265 21.9519,54.76736 14.0989,14.09887 39.1465,23.53934 58.8994,22.19927 4.95,-0.33581 9,-0.47367 9,-0.30635 0,0.16732 -1.835,4.35115 -4.0777,9.29739 -4.4568,9.82922 -9.2029,27.01553 -9.2352,33.44234 -0.011,2.23666 0.6995,4.78666 1.5795,5.66666 1.2233,1.22324 33.1878,1.6 135.7452,1.6 112.7943,0 134.551,-0.29671 136.6947,-1.86425 z m -202.5487,-86.01325 c 15.3663,-3.17129 22.7424,-6.43934 30.3396,-13.44221 8.0091,-7.38253 10.7234,-14.61822 9.8818,-26.34257 -1.0461,-14.57288 -6.9543,-22.85607 -22.3487,-31.3324 -5.5268,-3.04309 -5.0945,-7.20293 0.6835,-6.57742 5.6264,0.6091 15.3516,5.13953 19.4428,9.05726 l 3.4901,3.34219 0.825,-3.08034 c 1.4568,-5.43928 0.9187,-17.6333 -1.1241,-25.47608 -2.6002,-9.98318 -8.5045,-21.55653 -18.3372,-35.94411 -22.09,-32.32282 -47.6748,-47.93467 -66.0047,-40.27597 -15.1588,6.33375 -18.3181,20.03199 -11.6726,50.61091 1.8333,8.43603 4.865,22.38824 6.737,31.00491 2.143,9.86393 3.5011,20.60516 3.6667,29 0.2545,12.9036 0.1663,13.34706 -2.737,13.7594 -2.367,0.33617 -3.0043,-0.22651 -3.0205,-2.66667 -0.048,-7.31741 -2.2515,-6.3509 -5.7722,2.53214 -4.8401,12.21177 -6.3457,21.16436 -4.7522,28.25641 2.5214,11.22222 6.508,15.84126 16.0377,18.58196 7.8059,2.24495 31.4948,1.71065 44.665,-1.00741 z m 182.0954,-1.20264 c 4.6854,-2.3079 6.9418,-4.50275 9,-8.7543 4.7577,-9.82812 2.9826,-26.21484 -4.351,-40.16556 l -2.8036,-5.33333 -0.716,4.66666 c -0.543,3.53912 -1.3603,4.66667 -3.3826,4.66667 -5.8304,0 -3.7719,-23.46175 5.4983,-62.66667 3.9376,-16.65271 5.0579,-24.13271 5.1063,-34.09236 0.057,-11.81122 -0.2169,-13.18088 -3.6928,-18.438 -8.7378,-13.21537 -27.084,-14.34443 -44.2677,-2.72432 -19.6506,13.28832 -42.3754,43.68648 -49.5511,66.28286 -3.0829,9.70811 -4.3685,28.69284 -2.0404,30.13166 0.5789,0.35781 3.6155,-1.07072 6.7479,-3.17449 7.4603,-5.01034 18.6228,-8.76197 20.4963,-6.88856 2.2324,2.23248 0.2468,5.18797 -5.2163,7.76392 -2.7943,1.31757 -7.8669,5.17067 -11.2724,8.56245 -4.936,4.91614 -6.526,7.66018 -7.8396,13.52986 -4.6978,20.99233 2.8495,35.23774 22.9764,43.36735 11.9832,4.84023 25.1589,6.85594 43.0551,6.58687 13.7207,-0.2063 16.8908,-0.67936 22.2532,-3.32071 z M 1905.9805,582.4843 c 4.5556,-2.32722 4.6068,-2.42921 5.6199,-11.18223 0.4669,-4.03333 1.1923,-9.22015 1.6121,-11.52627 0.4198,-2.30612 0.092,-5.44692 -0.728,-6.97956 -0.8203,-1.53265 -2.2513,-6.54111 -3.18,-11.12992 -2.0164,-9.96237 -4.7978,-12.09756 -14.684,-11.27229 -8.2779,0.69101 -10.8136,3.33795 -13.643,14.24137 -2.457,9.46867 -2.7885,14.37754 -1.6861,24.96676 0.8509,8.17336 2.5505,10.59026 9.7737,13.89865 5.638,2.58237 10.4348,2.29411 16.9154,-1.01651 z M 1235.4382,349.94194 c -1.628,-0.6551 -3.3477,-2.73557 -3.8215,-4.62327 -1.162,-4.6299 3.822,-25.51006 9.2336,-38.68327 l 4.3819,-10.66667 -13.4169,-0.11923 c -27.1212,-0.24102 -49.4475,-10.6491 -65.8389,-30.69269 -12.9392,-15.82235 -18.9737,-34.54362 -18.2187,-56.52141 0.5906,-17.19267 2.9237,-26.47568 10.5559,-42.00001 14.8882,-30.28361 42.7881,-51.46182 76.4908,-58.06255 12.6368,-2.47494 33.3525,-1.04099 45.378,3.1411 32.4411,11.28188 53.7921,38.91115 56.8664,73.58812 0.739,8.3355 -0.5721,22.9715 -2.7664,30.88016 l -0.799,2.88016 9.3998,-2.46785 c 27.1454,-7.1268 57.6347,-6.8587 83.3185,0.73264 l 6.4701,1.91235 -0.8019,-3.19497 c -4.056,-16.16017 -3.4873,-36.61982 1.4261,-51.31151 6.6137,-19.77587 23.8903,-39.78742 41.769,-48.38123 56.1183,-26.974529 126.2559,9.19909 141.4444,72.95025 3.5474,14.88931 3.0161,35.08381 -1.2808,48.68704 -7.4771,23.67116 -26.5366,43.81396 -49.6824,52.50623 -10.8191,4.06306 -26.9071,6.6561 -36.4082,5.8682 -4.0735,-0.33781 -7.4042,-0.26483 -7.4017,0.16217 0,0.427 1.742,5.03985 3.8655,10.25078 4.9702,12.19625 9.7509,31.30029 9.2148,36.82293 -0.2926,3.01466 -1.4192,4.81224 -3.7516,5.98593 -2.6193,1.31809 -34.3225,1.66352 -148,1.61255 -81.657,-0.0366 -145.9559,-0.58364 -147.6268,-1.25595 z m 511.6269,-0.3566 c -2.3392,-1.17714 -3.4587,-2.97023 -3.7536,-6.01218 -0.552,-5.69494 3.8716,-22.94017 9.4451,-36.82107 l 4.4574,-11.1014 -8.0745,0.63465 c -20.944,1.64616 -48.4534,-8.17904 -63.671,-22.74063 -40.3189,-38.58082 -33.2562,-106.7915 14.9299,-144.19164 9.8113,-7.61516 26.6555,-16.03546 37.5094,-18.75073 l 8.8428,-2.21215 0.5803,-11.544069 c 1.283,-25.52484 15.1612,-40.1669 38.1008,-40.197703 17.8167,-0.02392 31.9208,7.339508 50.9667,26.608478 17.6817,17.888854 36.1097,47.464894 40.7355,65.378494 1.2309,4.76667 2.4426,9.39707 2.6927,10.28977 0.3429,1.22412 1.669,1.11573 5.3946,-0.44094 4.9243,-2.05749 16.5285,-2.02529 22.6278,0.0628 2.5267,0.86498 2.9887,0.11203 4.9984,-8.14594 2.7506,-11.30249 9.0144,-24.17831 19.3449,-39.76569 15.4453,-23.305021 32.2806,-39.765347 49.467,-48.365527 9.3835,-4.6955 10.6259,-4.967804 22.6667,-4.967804 14.2875,0 19.9232,1.939715 27.4214,9.437914 7.3622,7.362138 10.4822,15.649932 11.089,29.456298 l 0.5375,12.227549 9.1489,2.24205 c 31.0336,7.60519 59.7237,33.57544 71.4162,64.6459 5.6705,15.06821 7.6586,27.23908 6.7368,41.24345 -2.7312,41.49765 -30.7378,72.16428 -71.953,78.78705 -5.6882,0.91403 -13.8555,1.34331 -18.1495,0.95394 l -7.8072,-0.70793 4.3354,10.27961 c 5.3042,12.57673 10.2808,31.90458 9.7151,37.73152 -0.2926,3.01466 -1.4192,4.81224 -3.7515,5.98593 -2.6169,1.31688 -34.4275,1.67741 -148,1.67741 -113.5725,0 -145.3832,-0.36053 -148,-1.67741 z m 78.6528,-92.32655 c 18.2055,-4.0099 31.7206,-12.58968 37.7371,-23.95673 3.7363,-7.05897 4.0094,-23.83063 0.5353,-32.87662 -2.6628,-6.93354 -11.3404,-15.63569 -21.4248,-21.48525 -3.5036,-2.03237 -6.1276,-4.43237 -5.8309,-5.33334 1.5065,-4.57558 15.8194,-0.94742 25.5386,6.47379 l 6.0568,4.62471 0.8802,-3.5068 c 1.3749,-5.47818 -0.3028,-24.52544 -2.8096,-31.89649 -3.3582,-9.87469 -5.8096,-14.85462 -13.127,-26.66667 -16.6734,-26.914989 -36.2437,-46.469842 -52.8039,-52.762244 -14.2538,-5.416005 -30.4902,-1.927359 -37.0634,7.963632 -7.4285,11.178093 -7.2218,22.959122 1.0435,59.465282 8.5176,37.62049 11.6026,58.41052 9.8544,66.40998 -1.2666,5.79579 -6.1279,4.43153 -7.6787,-2.15492 l -1.1957,-5.07828 -1.9575,3.74495 c -12.0502,23.05315 -10.529,49.27073 3.2379,55.80353 2.6754,1.26956 6.3997,2.81428 8.2763,3.4327 5.2858,1.74195 39.5857,0.25368 50.7314,-2.20123 z m 196.7196,-0.65944 c 9.0724,-4.61233 12.6276,-11.5868 12.6276,-24.77269 0,-9.98142 -3.2248,-22.59167 -7.9764,-31.19126 -2.2709,-4.11002 -2.6051,-4.30882 -2.8011,-1.66667 -0.1224,1.65 -0.3725,3.6 -0.5559,4.33333 -0.1833,0.73334 -0.4083,1.97507 -0.5,2.7594 -0.092,0.78434 -1.5166,1.23434 -3.1666,1 -2.709,-0.38474 -3.0398,-1.2667 -3.4099,-9.09273 -0.5335,-11.28183 1.6235,-27.11925 6.6249,-48.64242 11.5343,-49.636779 11.8927,-62.40112 2.0664,-73.592637 -5.4631,-6.222097 -10.9343,-8.431613 -20.8783,-8.431613 -14.3976,0 -27.4814,7.423096 -44.4966,25.245181 -11.1079,11.634699 -25.6707,32.833049 -31.6377,46.053619 -5.5525,12.30201 -8.417,25.9176 -7.5984,36.11625 0.3857,4.80387 1.0738,9.10696 1.5293,9.56243 0.4554,0.45546 2.4718,-0.74422 4.4808,-2.66597 4.9461,-4.73123 18.1095,-10.58912 22.6248,-10.06834 6.6942,0.77209 5.2234,4.47431 -3.6582,9.20817 -9.7602,5.20213 -18.0889,14.19714 -20.125,21.735 -2.2327,8.26591 -1.9914,23.35558 0.4643,29.03013 2.8132,6.50079 11.4272,14.93474 19.3583,18.95374 14.2607,7.22643 29.9142,10.0631 53.6944,9.73027 14.967,-0.20947 17.3956,-0.58451 23.3333,-3.60319 z m -114.2503,-31.8136 c 3.1755,-2.26115 4.2112,-4.01513 4.2112,-7.13193 0,-2.27333 0.6627,-7.93866 1.4726,-12.58963 1.232,-7.07461 1.125,-9.32499 -0.6547,-13.77287 -1.17,-2.92411 -2.5116,-8.58703 -2.9814,-12.58427 -0.7696,-6.54826 -1.2857,-7.47249 -5.2135,-9.33635 -6.3431,-3.00998 -14.0764,-2.62051 -19.416,0.97785 -3.7391,2.51977 -4.6788,4.15211 -5.4354,9.44128 -0.5031,3.51714 -1.9457,9.26174 -3.2057,12.76577 -1.8694,5.19864 -2.0096,7.17818 -0.7618,10.75768 0.8411,2.41269 1.5292,6.88492 1.5292,9.93829 0,5.63533 3.0435,9.86851 10,13.90913 4.1487,2.4097 15.6039,1.07971 20.4555,-2.37495 z"
       id="path1" />
  </g>
</svg>
