<?xml version="1.0" encoding="UTF-8" standalone="no"?>
<!-- Created with Inkscape (http://www.inkscape.org/) -->

<svg
   version="1.1"
   id="svg1"
   width="695.82513"
   height="882.00311"
   viewBox="0 0 695.82513 882.00312"
   xmlns="http://www.w3.org/2000/svg"
   xmlns:svg="http://www.w3.org/2000/svg">
  <defs
     id="defs1" />
  <g
     id="g1"
     transform="translate(-877.26631,-66.123763)">
    <path
       style="fill:#000000"
       d="m 1352.3728,946.83362 c -0.4802,-1.25124 0.7855,-3.73893 3.2109,-6.31085 2.2019,-2.335 5.1313,-5.70724 6.5097,-7.49388 1.3784,-1.78663 5.4159,-6.40768 8.9721,-10.26899 3.5562,-3.86131 6.2303,-7.7274 5.9423,-8.5913 -0.45,-1.35018 -7.7776,6.13881 -20.1665,20.61086 -2.8662,3.34817 -6.2417,3.91078 -6.2417,1.04035 0,-0.53174 5.9772,-7.24633 13.2826,-14.92132 9.5249,-10.00668 13.2859,-14.89753 13.2943,-17.28784 0.011,-3.26746 -0.07,-3.24111 -4.1329,1.33333 -17.0763,19.22758 -19.5201,21.64968 -20.9514,20.76509 -1.8232,-1.1268 2.5901,-7.04751 16.1741,-21.69847 5.7056,-6.15375 8.9837,-10.80988 8.9556,-12.7201 l -0.044,-3.01318 -2.3104,2.76255 c -14.1678,16.94024 -22.9342,25.04353 -22.9342,21.19929 0,-0.38766 4.8838,-6.23766 10.8529,-13 12.1664,-13.78324 14.9391,-17.58747 14.2725,-19.58248 -0.2523,-0.75502 -5.5083,4.59964 -11.68,11.89924 -10.1128,11.96107 -13.4454,14.57536 -13.4454,10.54747 0,-0.74244 0.75,-2.10829 1.6667,-3.03524 0.9166,-0.92694 3.7666,-4.27798 6.3333,-7.44674 2.5667,-3.16876 7.5062,-8.81749 10.9767,-12.55274 3.4704,-3.73524 6.2949,-7.99136 6.2764,-9.45802 -0.027,-2.12889 -1.1154,-1.45667 -5.3985,3.33333 -2.9508,3.3 -8.1312,9.6 -11.5119,14 -3.3808,4.4 -6.351,8.26 -6.6004,8.57778 -0.2494,0.31778 -1.1349,-0.10366 -1.9677,-0.93654 -1.1302,-1.13019 0.4819,-3.92206 6.3555,-11.00642 15.0651,-18.17049 19.2032,-24.14698 19.2032,-27.73417 0,-3.1891 -0.442,-2.8753 -4.5566,3.23454 -6.8517,10.17415 -18.2989,25.13893 -19.6152,25.64259 -2.1975,0.84086 -1.1575,-4.02774 1.6163,-7.5669 4.8792,-6.22532 21.227,-29.54421 20.7121,-29.54421 -0.2728,0 -5.1816,5.85 -10.9084,13 -5.7268,7.15 -10.9004,13.57 -11.4969,14.26666 -0.6727,0.78559 -1.693,0.65824 -2.6866,-0.33532 -1.2471,-1.24709 -0.5609,-2.70921 3.0974,-6.6 6.0673,-6.45282 21.7495,-25.73772 23.0386,-28.33134 1.3512,-2.71847 -12.7131,12.4732 -18.8244,20.33333 -4.6269,5.95088 -8.3763,8.14239 -8.3763,4.89589 0,-0.7906 2.9709,-4.8406 6.6021,-9 3.6311,-4.15941 9.9311,-11.38825 14,-16.06411 4.0688,-4.67585 7.3979,-9.36126 7.3979,-10.41202 0,-3.10118 -1.9963,-1.07656 -14.1075,14.30789 -6.3241,8.03312 -11.937,14.60568 -12.4731,14.60568 -3.3163,0 -1.7463,-5.04345 3.1585,-10.1462 7.6835,-7.99365 23.4221,-26.71545 23.4221,-27.86164 0,-1.97539 -4.4302,2.10096 -11.7079,10.77262 -4.3535,5.1873 -9.0335,10.7373 -10.4,12.33334 -1.3666,1.59604 -3.2514,2.90188 -4.1884,2.90188 -4.2466,0 -0.5667,-5.75972 12.3445,-19.32133 7.6735,-8.06007 13.9442,-15.56007 13.9349,-16.66667 -0.01,-1.1066 -5.9542,4.288 -13.211,11.988 -10.3526,10.98504 -13.5494,13.65658 -14.8444,12.40534 -1.6395,-1.58421 1.5272,-5.35593 22.4057,-26.68621 3.1166,-3.18412 5.6443,-6.82351 5.6169,-8.08755 -0.031,-1.41398 -5.5901,3.54772 -14.4495,12.89578 -9.8688,10.41301 -14.6325,14.58793 -15.139,13.26786 -0.7386,-1.92479 0.367,-3.33977 17.4388,-22.31827 9.9129,-11.02008 12.7399,-14.71429 11.9015,-15.55263 -0.3134,-0.31345 -6.1245,5.42535 -12.9134,12.75289 -6.789,7.32754 -13.1937,13.32279 -14.2328,13.32279 -4.3537,0 -2.0425,-3.2145 15.2917,-21.2681 9.9594,-10.37275 12.2121,-13.39856 9.9752,-13.39856 -0.4641,0 -5.3295,4.8 -10.8119,10.66666 -5.4823,5.86667 -10.8026,10.66667 -11.8227,10.66667 -4.3992,0 -0.9463,-5.49151 10.8246,-17.21575 l 12.599,-12.54908 -4.6977,-4.11759 c -6.2931,-5.51586 -7.3132,-11.70614 -2.9826,-18.09816 1.7317,-2.55598 4.485,-5.31354 6.1185,-6.1279 l 2.9699,-1.48067 -3.3433,-3.60746 c -4.4773,-4.83116 -4.4912,-11.43457 -0.033,-15.66345 l 3.3103,-3.13994 0.023,-27.63593 0.023,-27.63593 -3.1985,-2.09574 c -7.417,-4.85985 -7.6652,-16.8895 -0.4203,-20.37182 3.4652,-1.66558 3.6208,-2.17501 3.6643,-12 0.025,-5.64332 0.3774,-58.32578 0.7832,-117.07212 l 0.7378,-106.81154 -3.5197,-2.76858 c -2.1528,-1.69342 -3.8175,-4.60393 -4.2866,-7.49467 -0.6643,-4.09357 -0.1949,-5.26046 3.5075,-8.71898 5.3199,-4.96957 4.8701,-7.82325 -1.7856,-11.32821 -10.4884,-5.52336 -11.5952,-18.10933 -2.1486,-24.43508 2.5667,-1.71873 4.8444,-3.62213 5.0616,-4.22978 0.2173,-0.60766 -2.8468,-7.97768 -6.809,-16.37783 l -7.2041,-15.273 5.5782,-11.20873 c 3.0681,-6.16481 6.8799,-13.30874 8.4708,-15.8754 2.5717,-4.14905 2.8931,-6.5523 2.8975,-21.66667 0,-9.35 -0.311,-17 -0.6972,-17 -0.3862,0 -2.8451,1.95 -5.4642,4.33333 -5.7096,5.19562 -7.9091,5.48445 -7.6151,1 0.2874,-4.38243 3.4925,-13.33333 4.7744,-13.33333 0.5539,0 1.0071,-0.81999 1.0071,-1.8222 0,-1.00221 1.243,-4.81309 2.7621,-8.46863 l 2.7622,-6.64644 -4.0955,-4.09547 c -2.4927,-2.49275 -4.0955,-5.46598 -4.0955,-7.59758 0,-4.89451 3.3771,-10.89576 6.6066,-11.74029 4.0671,-1.06358 4.9724,-4.90934 1.7576,-7.46667 -6.3695,-5.06688 -6.9551,-12.50797 -1.4486,-18.40839 l 2.7179,-2.91234 -3.6,-9.421 c -1.9799,-5.18154 -3.9975,-9.40909 -4.4834,-9.39453 -0.4858,0.0145 -2.6574,3.01455 -4.8256,6.66666 -2.9854,5.0285 -4.7199,6.64021 -7.1459,6.64021 -2.866,0 -3.1315,-0.45677 -2.5188,-4.33333 0.9397,-5.9466 6.1051,-26.83781 12.9394,-52.33334 3.1453,-11.733329 6.6821,-25.771119 7.8597,-31.195079 2.2279,-10.261208 5.6211,-14.82962 8.0828,-10.881978 0.6595,1.05761 4.0078,13.657608 7.4407,27.999998 3.4328,14.342379 8.5276,35.304399 11.3218,46.582259 4.8368,19.52271 5.2959,24.16147 2.3913,24.16147 -1.5661,0 -5.0929,-3.39045 -5.1021,-4.90476 0,-0.60238 -1.5011,-2.89524 -3.3276,-5.09524 -3.0422,-3.66417 -3.469,-3.81058 -5.0839,-1.74389 -0.9696,1.24086 -2.8912,5.57549 -4.2702,9.63251 l -2.5073,7.37641 2.9311,3.12009 c 4.2188,4.49069 4.0218,12.79211 -0.4021,16.94821 -4.3553,4.09154 -4.2062,6.14683 0.6271,8.64623 7.9647,4.11872 9.3455,14.22923 2.7062,19.81584 -2.2,1.85117 -4,3.99485 -4,4.76373 0,0.76887 2.3986,6.95761 5.3302,13.75274 7.7501,17.96405 6.9279,22.55757 -2.5828,14.4291 -2.5223,-2.15569 -5.0723,-3.61887 -5.6667,-3.25151 -0.5944,0.36736 -1.0807,8.08965 -1.0807,17.16066 0,12.44597 0.4632,16.9559 1.8876,18.38034 1.1872,1.18722 6.2839,2.19966 13.736,2.72863 13.0446,0.92593 31.5891,5.77905 41.742,10.92395 3.6002,1.82433 7.1195,3.31696 7.8208,3.31696 0.7012,0 3.5712,-2.31304 6.3776,-5.14009 8.8617,-8.9267 21.2647,-17.07083 32.0292,-21.03117 8.8801,-3.26706 12.3628,-3.82874 23.7401,-3.82874 13.0468,0 13.5908,0.12586 25.3132,5.85634 33.0578,16.16033 45.426,47.34153 33.2598,83.85004 -4.8451,14.53917 -15.5261,31.53272 -26.7469,42.55448 l -8.4101,8.26086 3.3378,7.54736 c 2.581,5.83615 2.9894,7.96711 1.8013,9.3987 -0.8902,1.07262 -1.1313,3.11623 -0.5732,4.85846 0.5298,1.6539 1.15,11.5571 1.3782,22.0071 0.3426,15.69188 0.086,19 -1.4726,19 -1.5086,0 -1.8875,2.82628 -1.8875,14.07869 0,9.11209 -0.4736,13.78593 -1.3427,13.24882 -1.8179,-1.12352 -2.3386,0.96398 -3.1444,12.60695 -0.5373,7.76219 -1.2616,10.38612 -3.3127,12 -1.6164,1.27186 -3.2391,5.13952 -4.2231,10.06554 -2.073,10.37764 -4.7139,16.66667 -6.9989,16.66667 -1.048,0 -2.8336,3.20112 -4.1954,7.52133 -1.304,4.13674 -3.7908,8.94129 -5.5263,10.67678 -1.7355,1.7355 -3.9029,5.65008 -4.8164,8.69908 -1.1821,3.94539 -2.6687,5.92403 -5.1566,6.86309 -1.9226,0.72571 -4.0699,2.57653 -4.7717,4.11293 -0.7018,1.5364 -2.0041,2.64346 -2.8939,2.46012 -0.8898,-0.18333 -2.2929,-0.48333 -3.1179,-0.66666 -3.406,-0.75691 -2.3712,2.99812 1.3577,4.92642 6.7411,3.48591 21.4757,14.19459 21.4757,15.60785 0,0.73046 -3.15,-0.44335 -7,-2.60845 -16.9588,-9.53701 -20.1694,-11.04273 -22.7351,-10.66258 -3.2044,0.4748 -4.7593,3.73676 -1.7811,3.73676 2.674,0 20.9396,9.47616 26.0446,13.51188 4.4506,3.51832 5.1294,5.15478 2.1382,5.15478 -1.1,0 -2,-0.53701 -2,-1.19337 0,-1.44934 -20.4112,-11.55623 -26,-12.87425 -5.5329,-1.30485 -2.8391,1.08463 4.359,3.86658 9.3286,3.60532 16.4082,8.68519 26.9077,19.30728 10.2055,10.32453 11.3707,15.39121 1.2898,5.60798 -11.7036,-11.35794 -31.0909,-23.98921 -36.8898,-24.03453 -3.6537,-0.0285 -1.3569,3.72165 3.6667,5.98698 2.9333,1.32275 5.3333,2.91387 5.3333,3.53583 0,0.62196 0.6052,1.13084 1.3449,1.13084 3.5379,0 31.9884,25.10311 31.9884,28.22481 0,2.1 -1.4477,1.07494 -13.4827,-9.54655 -24.8777,-21.95582 -26.9059,-20.70078 -3.8506,2.38279 8.8,8.81081 16,16.74996 16,17.64256 0,1.83347 -1.3169,0.96244 -9.9237,-6.56402 -2.8914,-2.52843 -5.4605,-3.98708 -5.709,-3.24145 -0.2486,0.74564 1.3671,5.89855 3.5904,11.4509 4.2432,10.59702 4.7775,12.98429 2.9058,12.98429 -0.6251,0 -4.2413,-7.09093 -8.0359,-15.75761 -5.1544,-11.77231 -8.3235,-17.13515 -12.5302,-21.20425 -7.4144,-7.17203 -15.5014,-11.47197 -17.8733,-9.50349 -3.1715,2.63215 -1.8899,4.81488 9.2218,15.70501 11.2308,11.00688 11.9142,15.47565 0.7545,4.93389 -10.1006,-9.54132 -17.0671,-13.78051 -17.0671,-10.38552 0,0.61676 3.2758,4.61326 7.2795,8.88112 9.3218,9.93681 8.1945,12.2603 -1.464,3.01753 -8.6092,-8.23858 -8.9039,-8.39157 -11.0906,-5.75679 -1.3428,1.61791 -1.3457,4.23479 -0.015,13.18064 1.5994,10.75034 1.183,18.22688 -1.2268,22.02713 -0.8837,1.39347 -1.7773,1.46551 -3.9245,0.31637 -2.5269,-1.35237 -2.9072,-1.01629 -4.174,3.68828 -1.8346,6.81287 -6.0624,12.11043 -9.0503,11.3402 -1.4624,-0.37697 -3.9939,1.16392 -6.7762,4.12452 -4.8021,5.10991 -7.4808,5.92212 -8.7368,2.64912 -0.6762,-1.76212 -1.4562,-1.578 -5.1426,1.21392 -5.9792,4.52833 -11.6789,5.24518 -11.6789,1.46886 0,-1.47639 -1.7565,-0.7199 -6.1917,2.66666 -4.2509,3.24575 -7.5945,4.72774 -10.6667,4.72774 -5.4703,0 -5.8644,2.48937 -1.1416,7.21213 2.2938,2.29379 3.3333,4.79801 3.3333,8.02987 0,3.53832 -0.822,5.23515 -3.3333,6.88061 -3.3864,2.21883 -4.415,4.54406 -2.0102,4.54406 2.643,0 8.0481,5.92467 9.1952,10.07902 1.7367,6.28991 0.376,10.77819 -4.5895,15.13791 l -4.4277,3.88756 12.5828,12.6032 c 11.7496,11.76872 15.0546,16.95898 10.799,16.95898 -0.981,0 -6.4262,-5.1 -12.1005,-11.33333 -5.6743,-6.23334 -10.8716,-11.33334 -11.5496,-11.33334 -3.6406,0 0.2037,4.89931 12.6604,16.13513 13.2822,11.98037 16.8626,17.19821 11.8013,17.19821 -1.268,0 -7.2496,-4.91843 -13.2924,-10.92984 -6.0428,-6.0114 -11.3166,-10.60019 -11.7194,-10.19731 -0.4029,0.40289 6.1786,7.76009 14.6257,16.34933 8.447,8.58923 15.3582,16.19685 15.3582,16.90582 0,0.70896 -0.9841,1.66665 -2.1868,2.12819 -2.1798,0.83648 -3.9563,-0.83003 -20.8513,-19.56075 -3.5042,-3.88505 -6.742,-6.69313 -7.1949,-6.24019 -0.6397,0.63968 7.1807,10.30468 11.499,14.21141 5.1221,4.6338 17.3972,20.26023 16.7447,21.31612 -0.4739,0.76673 -1.4201,1.04885 -2.1028,0.62694 -1.707,-1.05495 -1.5544,0.25829 0.3921,3.37509 1.0754,1.72198 1.1834,3.06517 0.3162,3.93235 -1.5234,1.52339 -6.9226,-3.24556 -17.7757,-15.70079 -6.7007,-7.68986 -9.5072,-9.77859 -9.5072,-7.07576 0,0.62734 6.5768,8.27051 14.6152,16.98481 10.0492,10.89428 14.1784,16.26549 13.2171,17.19272 -0.9578,0.9239 -5.5599,-2.98801 -14.6152,-12.42341 -7.2694,-7.57456 -13.2026,-12.97456 -13.185,-12 0.018,0.97456 5.742,7.77193 12.7206,15.10527 13.4741,14.15882 15.9469,17.41026 14.1059,18.54802 -0.9261,0.57237 -10.9567,-8.92641 -24.0173,-22.74383 -1.004,-1.06215 -2.1348,-1.62176 -2.513,-1.24359 -0.7082,0.7082 8.8477,11.12881 20.005,21.81517 5.798,5.55321 7.8693,9.96012 5.3334,11.34713 -0.55,0.30081 -3.4,-2.31181 -6.3334,-5.80584 -2.9333,-3.49402 -6.1682,-6.71847 -7.1886,-7.16544 -2.1707,-0.95087 -2.0141,-0.73413 8.8553,12.25347 6.839,8.17173 8.6847,12.41015 5.3333,12.24721 -0.9166,-0.0446 -3.7666,-2.7247 -6.3333,-5.95586 -2.5667,-3.23116 -5.8667,-7.26868 -7.3333,-8.97228 -1.4667,-1.7036 -4.9167,-5.73147 -7.6667,-8.95081 -2.75,-3.21934 -5,-5.0985 -5,-4.1759 0,0.92259 2.9782,5.08059 6.6183,9.23999 21.0137,24.01166 23.9999,28.22923 19.9878,28.22923 -1.8112,0 -9.1037,-7.79453 -24.0215,-25.67508 -1.8412,-2.20689 -2.5075,-2.45737 -2.5402,-0.95493 -0.065,2.98983 2.7255,6.51773 16.0074,20.2366 6.5715,6.7877 11.9482,12.80301 11.9482,13.36734 0,0.56434 -0.9235,1.02607 -2.0522,1.02607 -1.9933,0 -23.2309,-20.99621 -23.2644,-23.00001 -0.01,-0.55 -0.6167,-1 -1.3501,-1 -0.7333,0 -1.3333,1.1845 -1.3333,2.63222 0,1.59108 5.5486,8.01824 14.028,16.24932 7.7154,7.48941 13.8279,14.21742 13.5833,14.95112 -1.0786,3.23606 -3.7749,1.51619 -14.333,-9.14278 -6.1871,-6.2461 -11.7057,-11.35654 -12.2637,-11.35654 -2.8246,0 0.097,3.98598 11.3187,15.44437 13.081,13.35636 15.6685,17.08719 13.4141,19.34161 -0.932,0.93198 -4.3776,-1.93987 -10.8503,-9.0435 -5.2166,-5.72503 -10.3534,-11.6082 -11.4152,-13.07372 -2.642,-3.64653 -4.3442,-1.50556 -1.8205,2.28963 1.1125,1.67288 6.8756,8.14161 12.8069,14.37494 11.0194,11.58047 12.7795,14.66667 8.3648,14.66667 -1.5222,0 -6.0861,-4.3971 -11.6667,-11.24034 -5.0415,-6.18219 -9.6164,-11.28219 -10.1664,-11.33333 -2.0597,-0.19154 -0.8193,2.067 4.0166,7.31362 2.7409,2.97364 7.3744,8.37364 10.2968,12 2.9224,3.62636 6.3724,7.75652 7.6667,9.17813 1.2943,1.42161 2.3532,3.07161 2.3532,3.66667 0,1.36128 -5.3257,1.44276 -5.3544,0.0819 -0.012,-0.55 -3.3248,-4.6 -7.3627,-9 -4.038,-4.4 -8.6785,-9.9459 -10.3123,-12.32423 -1.6338,-2.37832 -3.5706,-4.32608 -4.3039,-4.32835 -0.7333,-0.002 -4.2283,3.57795 -7.7667,7.95605 -3.5383,4.37811 -8.4744,10.22587 -10.969,12.99503 -2.4947,2.76915 -4.5497,5.42064 -4.5667,5.89218 -0.072,1.98381 -4.1863,2.28931 -4.9244,0.36562 z m 34.9827,-94.93408 c -5.5243,-5.35654 -5.2255,-3.60733 0.4212,2.46545 1.9026,2.04622 3.7361,3.44358 4.0744,3.10525 0.3384,-0.33833 -1.6847,-2.84515 -4.4956,-5.5707 z m 5.653,-32.06727 c -3.1419,-4.40925 -8.8878,-10.88829 -9.6561,-10.88829 -1.8201,0 -0.4009,2.6334 4.1961,7.78614 4.9546,5.5535 8.7389,7.70361 5.46,3.10215 z m -6.4089,-57.55496 c 6.5224,-6.52243 -0.3292,-18.1777 -8.894,-15.12948 -6.8675,2.44413 -9.6255,11.08619 -5.0108,15.70091 2.9791,2.97909 10.6704,2.66301 13.9048,-0.57143 z m -2.9333,-28.26666 c 3.8076,-3.80762 0.9064,-10.4 -4.5768,-10.4 -3.428,0 -5.1506,3.85265 -3.9182,8.76289 0.8931,3.55859 5.6557,4.4764 8.495,1.63711 z m 18.7806,-36.06667 c 4.4472,-5.08603 6.8194,-4.73817 6.8194,1 0,2.56666 0.624,4.66666 1.3867,4.66666 0.7627,0 3.7639,-2.49885 6.6692,-5.55302 5.0481,-5.30667 7.2234,-5.81633 7.2604,-1.70111 0.036,4.03131 2.8463,2.05281 6.435,-4.53065 4.0671,-7.46122 5.7691,-8.41065 7.3613,-4.10634 0.9988,2.69999 1.068,2.68508 2.541,-0.5479 0.8329,-1.8279 1.9183,-5.47689 2.4121,-8.10888 0.9311,-4.96324 2.8266,-5.98353 5.794,-3.11876 1.4093,1.3605 1.641,-0.33456 1.2616,-9.22729 -0.2556,-5.99168 -0.9008,-11.32995 -1.4337,-11.86282 -0.5328,-0.53287 -4.8931,0.31941 -9.6896,1.89396 -4.9775,1.63403 -12.1356,2.86281 -16.6768,2.86281 -5.1762,0 -12.319,1.39759 -20.4432,4 -6.8679,2.2 -14.0751,4 -16.0159,4 h -3.5288 l 0.044,19 c 0.044,18.76432 0.075,18.96279 2.5471,16 3.7131,-4.45094 6.7419,-3.89728 6.7419,1.23242 v 4.23242 l 3.6539,-3.23242 c 2.0096,-1.77783 5.0967,-4.88242 6.86,-6.89908 z m -17.432,-41.05194 c 5.5745,-5.19352 2.5213,-13.2814 -5.0139,-13.2814 -6.495,0 -9.9639,7.77613 -5.7915,12.98234 2.9841,3.72349 7.0101,3.83491 10.8054,0.29906 z m 50.5635,-4.64196 c 3.2707,-0.98432 8.4018,-3.41438 11.4024,-5.40012 l 5.4558,-3.61044 -3.5852,-3.08382 c -1.9718,-1.6961 -3.5851,-3.41259 -3.5851,-3.81444 0,-1.34166 4.7795,-0.75107 6.3103,0.77976 0.8308,0.83071 2.5839,1.09843 3.896,0.59494 1.9921,-0.76445 2.0694,-1.11089 0.4682,-2.10049 -1.5077,-0.93179 -1.1436,-1.4793 1.704,-2.56194 3.9867,-1.51575 5.0144,-6.32539 1.6291,-7.62445 -2.9007,-1.1131 -0.9199,-3.40942 2.1111,-2.44741 3.226,1.02389 4.8634,-2.58112 2.4778,-5.45549 -1.4311,-1.72438 -1.2427,-2.17054 1.1842,-2.8052 1.8773,-0.49093 2.8859,-1.80026 2.8859,-3.74642 0,-1.64545 0.3695,-5.68732 0.8211,-8.98194 0.7406,-5.4034 0.5315,-6.06592 -2.1342,-6.76302 -3.5387,-0.92541 -2.3662,-3.61896 1.5754,-3.61896 2.5542,0 2.71,-0.54898 1.9871,-7 -2.4656,-22.00036 -2.5489,-23.66666 -1.1828,-23.66666 1.1958,0 2.698,5.43809 4.5315,16.40376 0.7018,4.19732 2.9408,3.06542 7.4494,-3.76603 10.6854,-16.19065 17.6017,-35.33916 19.6405,-54.37712 0.5258,-4.91001 1.505,-8.92728 2.1759,-8.92728 2.1857,0 2.5383,3.22785 1.3134,12.02355 -1.9564,14.04872 0.051,12.61431 6.0961,-4.35689 3.8575,-10.82918 6.6776,-13.82035 5.0996,-5.40905 -1.3979,7.45135 -7.2856,21.5467 -12.3456,29.55575 -2.4834,3.93068 -5.6834,10.11033 -7.1112,13.73255 -4.1791,10.60257 -7.7575,16.96836 -14.029,24.95704 -3.237,4.12338 -5.8859,8.59705 -5.8863,9.94149 -10e-4,3.42002 2.4615,2.22373 5.1045,-2.47955 2.761,-4.91346 3.9294,-5.79333 6.7228,-5.06284 1.4863,0.3887 2.684,-0.70829 3.6937,-3.38323 0.9757,-2.58505 2.59,-4.11347 4.6528,-4.40529 2.8125,-0.39789 3.2034,-1.23066 3.5669,-7.59854 0.4066,-7.12222 0.4243,-7.14848 4.2931,-6.37472 3.5852,0.71703 3.9846,0.39446 5.1776,-4.18165 0.7111,-2.72724 1.4792,-6.75862 1.7069,-8.95862 0.3053,-2.94823 1.1044,-4.00086 3.039,-4.00325 3.3486,-0.004 5.7971,-7.6248 5.9394,-18.48552 0.1008,-7.69841 0.1576,-7.81156 3.5914,-7.15514 l 3.4891,0.66697 -0.5754,-12.03428 c -0.5275,-11.03383 -0.3612,-12.09029 2.0012,-12.70806 2.3606,-0.61732 2.5135,-1.57924 1.8238,-11.47726 -0.414,-5.9419 -1.1545,-12.45346 -1.6456,-14.47013 -0.802,-3.29328 -0.5377,-3.66667 2.5958,-3.66667 1.9189,0 3.4888,-0.1898 3.4888,-0.42178 0,-1.12856 -2.9008,-16.53736 -3.4975,-18.57822 -0.458,-1.56648 0.053,-2.33333 1.556,-2.33333 3.2068,0 1.4746,-8.46342 -3.0998,-15.1451 -3.4387,-5.0227 -3.4613,-5.18983 -0.951,-7.02537 2.5379,-1.85576 2.5372,-1.94514 -0.051,-6.8549 -1.4426,-2.73605 -5.3229,-7.91527 -8.6229,-11.50938 -3.7464,-4.08027 -5.374,-6.75124 -4.3334,-7.11112 0.9167,-0.31699 1.6667,-1.24147 1.6667,-2.0544 0,-2.21247 -9.8605,-10.97562 -14.5232,-12.90699 -3.5027,-1.45085 -3.88,-2.06036 -2.6723,-4.317 1.1092,-2.07245 0.891,-3.0339 -1.0324,-4.55048 -3.4052,-2.68486 -15.1025,-8.73076 -19.1054,-9.87486 -1.8334,-0.52401 -3.1944,-1.60169 -3.0245,-2.39486 0.8242,-3.84787 -16.3729,-10.92221 -26.5509,-10.92221 -2.8002,0 -5.0913,-0.63203 -5.0913,-1.40451 0,-2.44543 27.1828,-35.43273 36.7485,-44.59549 16.1824,-15.50094 32.7714,-21.0424 47.4232,-15.84147 9.1931,3.26325 20.6693,14.40785 25.924,25.1748 7.3943,15.15112 5.7318,39.60276 -4.0794,60 -4.4697,9.29224 -8.9617,15.33334 -11.4016,15.33334 -2.4866,0 -1.2338,-5.37053 2.7713,-11.87968 2.229,-3.62252 5.6631,-10.38153 7.6315,-15.02003 3.207,-7.55733 3.5825,-10.09981 3.614,-24.46922 0.032,-14.56057 -0.2739,-16.63614 -3.3247,-22.56439 -4.4263,-8.60118 -6.6401,-9.27894 -6.6401,-2.03287 0,4.99707 -0.777,6.36631 -7.3317,12.92106 -4.1945,4.19454 -8.109,7.03341 -9.1483,6.63459 -0.9992,-0.38341 -3.0287,0.60211 -4.51,2.19005 -1.4814,1.58793 -4.8647,5.09686 -7.5184,7.79762 -2.6537,2.70075 -4.825,5.27654 -4.825,5.72396 0,0.44742 2.4,4.50702 5.3334,9.02132 4.776,7.35012 5.3333,9.07753 5.3333,16.53068 0,4.57757 -0.6,8.69368 -1.3333,9.14691 -2.3564,1.45629 -1.4424,4.50874 3.3454,11.17304 2.8141,3.91692 4.5412,7.76916 4.3334,9.66544 -0.2632,2.40162 0.3847,3.25746 2.7189,3.59172 6.4396,0.92213 26.4245,-24.4546 33.7961,-42.91386 1.9026,-4.76446 2.9499,-11.19961 3.4402,-21.1387 0.9534,-19.32669 -1.7763,-29.81505 -10.8556,-41.71098 -4.8475,-6.35134 -5.9481,-7.31943 -15.3757,-13.52394 -19.5081,-12.83886 -40.1994,-13.91295 -62.0728,-3.22221 -11.3862,5.56501 -21.1858,14.5348 -32.7495,29.9763 -4.1061,5.48301 -6.0463,7.21099 -6.3475,5.65312 -0.2385,-1.23403 0.8138,-4.26219 2.3386,-6.72925 3.4613,-5.60057 3.124,-5.91937 -12.6534,-11.95806 -11.0333,-4.22295 -39.7655,-10.12632 -41.3882,-8.50368 -0.3865,0.38654 1.4361,5.11183 4.0503,10.50063 2.6142,5.3888 4.7531,11.13308 4.7531,12.76508 0,1.63199 -2.7,8.66871 -6,15.63715 -5.9908,12.65048 -7.1418,16.7382 -4.713,16.7382 0.7078,0 3.4078,1.86215 6,4.13812 3.8671,3.39539 4.713,5.06227 4.713,9.28694 0,5.90692 -6.0631,14.03801 -11.4819,15.39803 -4.0126,1.00709 -4.3643,6.45183 -0.5486,8.49389 6.4298,3.44116 6.8581,14.29999 0.675,17.11718 l -3.3112,1.50867 0.041,19.69525 c 0.031,14.85505 0.3972,19.08127 1.492,17.19688 0.8277,-1.42482 1.1077,-5.00563 0.6516,-8.33333 -0.9933,-7.24673 0.4306,-7.42601 4.3,-0.54141 3.9142,6.96439 5.699,7.95523 4.621,2.56541 -1.2177,-6.08859 1.6991,-3.88993 5.2463,3.95459 2.336,5.16582 2.883,5.69152 3.3158,3.18645 0.285,-1.65 0.9322,-3 1.4381,-3 1.6357,0 4.0217,4.87317 4.979,10.16919 0.5134,2.84028 1.7877,6.66414 2.8318,8.49747 1.8768,3.29541 1.8897,3.28105 1.1385,-1.26295 -0.4179,-2.52796 -1.1278,-7.92796 -1.5775,-12 -1.3188,-11.94164 1.3993,-6.4431 5.4507,11.02666 3.6945,15.93049 5.5733,19.08114 4.9058,8.22695 -0.3677,-5.979 2.1332,-15.32399 4.1009,-15.32399 0.586,0 1.1599,5.25 1.2753,11.66667 l 0.2097,11.66666 1.0138,-8.66666 c 2.9295,-25.04359 2.978,-27.57039 0.6181,-32.19046 -8.1557,-15.96688 -7.6104,-28.16051 1.161,-25.95903 4.3709,1.09704 6.1699,7.04063 6.259,20.67974 0.051,7.76728 0.5261,10.79729 1.6334,10.41206 1.0926,-0.3801 1.4717,-5.01004 1.2618,-15.4095 -0.165,-8.17638 0.2353,-14.86615 0.8895,-14.86615 1.6326,0 4.0772,12.03103 4.0772,20.06563 v 6.60104 h 9.3762 c 5.318,0 11.4478,0.86562 14.1628,2 2.6327,1.1 5.0134,2 5.2905,2 0.2771,0 0.5038,-4.2 0.5038,-9.33333 0,-5.13334 0.5646,-9.33334 1.2547,-9.33334 2.056,0 2.4902,1.5798 3.2825,11.94237 0.4157,5.43615 1.2885,10.41667 1.9397,11.06783 1.9362,1.93617 11.6877,-1.41025 19.6384,-6.73929 6.8926,-4.6199 7.3234,-5.22203 6.6952,-9.35883 -0.9521,-6.27017 1.7905,-4.92116 5.6464,2.77726 3.4503,6.88868 5.836,27.644 3.1775,27.644 -1.3267,0 -4.2765,-10.73868 -4.3215,-15.7323 -0.011,-1.24724 -0.5774,-3.14846 -1.2582,-4.22493 -1.0481,-1.65721 -1.6071,-1.53323 -3.6463,0.80875 -3.0898,3.54857 -11.7077,7.87337 -17.9411,9.00349 -5.2279,0.94783 -8.5761,3.8115 -7.1515,6.11654 0.4832,0.78193 -0.1097,4.39722 -1.3176,8.03398 -2.1048,6.337 -2.0849,6.82145 0.4783,11.63671 4.4338,8.32937 8.1902,20.13534 8.1902,25.74111 0,8.02051 -2.0813,6.33253 -4.5827,-3.71669 -2.6522,-10.65502 -8.0251,-23 -10.0102,-23 -1.9346,0 -1.8001,0.96255 1.2602,9.01431 3.0125,7.92592 3.2478,9.65236 1.3154,9.65236 -0.7429,0 -2.6625,-2.7 -4.2657,-6 -3.2102,-6.60751 -4.2775,-7.04865 -8.7414,-3.61287 -2.9329,2.25742 -2.9634,2.50864 -1.0085,8.30369 1.1087,3.28672 2.5204,9.72585 3.137,14.30918 1.7709,13.16265 -1.4121,10.36702 -5.3134,-4.66667 -2.8973,-11.16491 -3.7323,-12.9357 -5.9154,-12.54453 -1.3981,0.25051 -2.742,1.00051 -2.9864,1.66667 -0.2445,0.66616 -1.3033,1.2112 -2.3529,1.2112 -3.6625,0 -7.3077,8.14509 -7.0025,15.64678 0.3518,8.64459 -0.7472,9.94952 -3.8252,4.54224 -1.3062,-2.29469 -2.7772,-4.17596 -3.2688,-4.18059 -1.507,-0.0142 -2.8338,17.18702 -1.9661,25.48847 0.6594,6.30945 0.4451,7.83643 -1.1001,7.83643 -2.8513,0 -3.8267,-7.73592 -3.0476,-24.17205 0.3778,-7.97204 0.3091,-14.45815 -0.1527,-14.41359 -0.4618,0.0446 -2.9397,2.70811 -5.5063,5.91897 -2.5667,3.21087 -5.4289,5.87441 -6.3605,5.91897 -2.4948,0.11936 2.578,-9.21266 8.314,-15.29459 2.5965,-2.75315 4.7131,-6.3824 4.7131,-8.08148 0,-4.88827 -2.8583,-9.87353 -6.1322,-10.69522 -1.6546,-0.41528 -4.0941,-2.20089 -5.4212,-3.96803 -1.3271,-1.76714 -3.0759,-3.21298 -3.8864,-3.21298 -0.8105,0 -2.6181,-2.25 -4.0169,-5 -2.7199,-5.34735 -10.2431,-13.66667 -12.3587,-13.66667 -0.7044,0 -2.8588,-1.87534 -4.7875,-4.16742 -1.9287,-2.29208 -3.632,-3.94208 -3.7852,-3.66667 -6.7854,12.19895 -6.2785,5.81345 -6.2785,79.09825 0,37.07138 0.45,67.42433 1,67.45099 17.6902,0.85752 32.6478,0.51248 33.7187,-0.77784 4.2687,-5.14349 3.5569,-24.23904 -1.4456,-38.77893 -1.5058,-4.37688 -2.136,-8.16214 -1.4697,-8.82843 2.1728,-2.17283 10.246,15.00494 11.1244,23.67006 0.3537,3.48905 0.8739,3.95097 4.0722,3.6162 4.5947,-0.48094 5.0503,3.392 0.8443,7.17715 -1.5524,1.39699 -4.1854,5.61317 -5.8512,9.36929 -1.6658,3.75612 -3.6957,7.24153 -4.5109,7.74536 -0.8152,0.50382 -1.4822,3.31043 -1.4822,6.2369 0,8.73658 -2.9691,12.63928 -13.7012,18.00947 -17.3198,8.66651 -26.8851,19.17267 -21.4151,23.52151 1.1466,0.9116 3.9119,3.59018 6.1452,5.95241 3.6012,3.80911 11.8513,7.46801 22.9711,10.18757 3.7909,0.92713 15.9839,-0.40459 22.9788,-2.50976 z m -27.101,-17.14371 c -1.0791,-2.81225 0.4356,-4.82906 3.627,-4.82906 2.0143,0 2.5748,0.74239 2.2546,2.98638 -0.4972,3.4853 -4.741,4.81487 -5.8816,1.84268 z m 9.3892,0.39699 c -1.1631,-1.88197 -0.1269,-2.74089 5.7399,-4.7578 5.3604,-1.84281 7.5213,-0.86683 6.768,3.05679 -0.3601,1.8758 -1.8267,2.55116 -6.0578,2.78971 -3.0705,0.17312 -5.973,-0.3168 -6.4501,-1.0887 z m 15.9453,-3.0606 c -1.1296,-2.94374 0.3732,-4.44658 2.4099,-2.40989 1.2026,1.20254 1.2077,1.9479 0.022,3.13406 -1.1861,1.18617 -1.7644,1.01394 -2.4314,-0.72417 z m 8.307,-0.42392 c -1.5935,-1.59354 -0.8609,-4.4082 1.1474,-4.4082 1.1,0 2,0.86459 2,1.92131 0,2.22753 -1.9031,3.73121 -3.1474,2.48689 z m 7.7422,-4.52437 c -1.374,-2.22323 1.7163,-4.77268 3.5557,-2.93334 1.5385,1.53857 0.5756,4.38285 -1.4839,4.38285 -0.6467,0 -1.579,-0.65228 -2.0718,-1.44951 z m -29.2615,-5.21716 c -0.9723,-1.57317 0.2889,-4 2.0787,-4 0.69,0 1.2546,1.2 1.2546,2.66667 0,2.81211 -1.9398,3.58805 -3.3333,1.33333 z m 8.0134,-1.31158 c -0.9833,-1.59117 0.2648,-4.02175 2.0653,-4.02175 1.6224,0 1.6329,3.60882 0.013,4.60972 -0.6827,0.42191 -1.6181,0.15732 -2.0787,-0.58797 z m 7.5259,-1.93862 c 0.2534,-1.2232 1.0607,-2.1923 1.794,-2.15356 1.9791,0.10453 1.6155,3.08749 -0.4606,3.77954 -1.1215,0.37383 -1.6213,-0.23569 -1.3334,-1.62598 z m 7.794,-4.08313 c 0,-1.1 0.6,-2 1.3334,-2 0.7333,0 1.3333,0.9 1.3333,2 0,1.1 -0.6,2 -1.3333,2 -0.7334,0 -1.3334,-0.9 -1.3334,-2 z m 6.9723,-0.91667 c 0.8241,-2.4723 3.6944,-2.88235 3.6944,-0.52778 0,1.16111 -0.95,2.11111 -2.1111,2.11111 -1.1611,0 -1.8736,-0.7125 -1.5833,-1.58333 z m 9.0277,-4.41667 c 0,-1.1 0.9,-2 2,-2 1.1,0 2,0.9 2,2 0,1.1 -0.9,2 -2,2 -1.1,0 -2,-0.9 -2,-2 z m -32.6097,-3.2412 c -0.986,-1.59547 1.5222,-3.1763 3.2982,-2.07869 1.4911,0.92158 0.5122,3.31989 -1.3551,3.31989 -0.6468,0 -1.5212,-0.55854 -1.9431,-1.2412 z m 7.582,-1.67546 c 0.8241,-2.4723 3.6944,-2.88235 3.6944,-0.52778 0,1.16111 -0.95,2.11111 -2.1111,2.11111 -1.1611,0 -1.8736,-0.7125 -1.5833,-1.58333 z m 5.9444,-1.94445 c -1.7388,-1.7388 -0.9087,-3.13889 1.8611,-3.13889 1.5517,0 2.5448,0.69889 2.25,1.58334 -0.6495,1.94845 -2.8758,2.79085 -4.1111,1.55555 z m 9.0833,-1.80555 c -0.5322,-0.86113 -0.3676,-2.16569 0.3657,-2.89902 0.8889,-0.88889 1.6559,-0.81144 2.301,0.23235 0.5322,0.86113 0.3677,2.16569 -0.3657,2.89902 -0.8889,0.88889 -1.6559,0.81144 -2.301,-0.23235 z m 8,-4 c -1.0873,-1.75936 0.507,-4.2561 2.0922,-3.2764 1.6195,1.0009 1.6089,4.60973 -0.013,4.60973 -0.6901,0 -1.6255,-0.6 -2.0787,-1.33333 z m -22,-4.66667 c 0,-1.1 0.9,-2 2,-2 1.1,0 2,0.9 2,2 0,1.1 -0.9,2 -2,2 -1.1,0 -2,-0.9 -2,-2 z m 7.5556,-1.55556 c -1.6904,-1.69038 -0.8786,-3.11111 1.7778,-3.11111 1.4815,0 2.6666,0.88889 2.6666,2 0,2.02988 -2.8205,2.73502 -4.4444,1.11111 z m 5.7778,-5.77777 c 0,-1.48149 0.8889,-2.66667 2,-2.66667 1.1111,0 2,1.18518 2,2.66667 0,1.48148 -0.8889,2.66666 -2,2.66666 -1.1111,0 -2,-1.18518 -2,-2.66666 z m 7.4637,-0.98076 c -1.7559,-1.75588 -0.6405,-4.35258 1.8696,-4.35258 1.4667,0 2.6667,0.83581 2.6667,1.85735 0,2.01124 -3.2388,3.79276 -4.5363,2.49523 z m -52.6052,-95.80461 c -4.993,-3.36247 -6.7137,-5.22614 -5.7318,-6.20799 2.1996,-2.19967 14.3638,6.5218 13.3477,9.57007 -0.269,0.80688 -3.6259,-0.67505 -7.6159,-3.36208 z m 10.4748,-8.5964 c -4.7667,-3.63995 -9.7167,-6.95856 -11,-7.37468 -3.2108,-1.04111 -2.9395,-3.24356 0.3996,-3.24356 4.2079,0 10.6929,3.73619 16.9337,9.75594 10.273,9.90909 6.234,10.45902 -6.3333,0.8623 z m 65.4768,-95.39391 c -13.165,-9.18098 -23.6073,-15.18028 -30.7668,-17.67608 -4.5331,-1.58025 -4.9982,-5.20318 -0.5717,-4.45321 11.6593,1.97539 45.9217,24.77701 44.3238,29.49748 -0.2541,0.75088 -6.0975,-2.5648 -12.9853,-7.36819 z m -61.5034,-38.10444 c -5.2744,-10.56999 -9.4226,-17.26964 -12.9295,-20.88179 -2.2014,-2.2675 -2.1884,-4.2381 0.028,-4.2381 1.927,0 8.3318,6.46169 12.6082,12.72024 2.5971,3.80079 8.32,18.8677 8.32,21.90437 0,3.9659 -3.1892,0.18933 -8.0266,-9.50472 z m 60.0266,283.76718 c 0,-0.24545 -1.7753,-2.02809 -3.9452,-3.96142 -4.4728,-3.98532 -6.9403,-2.47782 -2.7701,1.69239 2.2804,2.28043 6.7153,3.77893 6.7153,2.26903 z m -90.1665,-10.62124 2.6625,-3.56604 -3.0354,-3.23095 c -3.2763,-3.48745 -3.3304,-7.25221 -0.1273,-8.84283 5.6017,-2.78166 19.4601,-7.60316 20.3334,-7.07425 2.0895,1.26547 0.8552,5.385 -2.9458,9.83195 -4.9593,5.80196 -5.0725,7.21133 -0.3844,4.78704 7.1766,-3.71118 10.8267,-10.83932 8.1303,-15.87757 -1.1391,-2.12837 -2.3643,-2.4792 -6.6505,-1.9043 -2.8898,0.38761 -6.218,1.50867 -7.3959,2.49126 -1.1779,0.98259 -5.2043,3.02159 -8.9477,4.5311 l -6.806,2.74458 -0.3918,10.38601 c -0.4261,11.29564 0.6056,12.35802 5.5586,5.724 z m 12.1665,-12.93249 c 4.4057,-4.5985 4.0494,-4.79841 -3.3063,-1.85523 -5.2623,2.10555 -6.243,3.19479 -4.4715,4.96634 1.7386,1.73858 3.997,0.83523 7.7778,-3.11111 z m -9.2548,-11.29093 c 2.8561,-2.16023 1.7016,-2.4651 -4.5785,-1.20907 -2.2917,0.45833 -4.1667,1.35833 -4.1667,2 0,1.87725 5.9261,1.34128 8.7452,-0.79093 z m 47.728,-107.70907 c 0.8176,-3.21756 9.3477,-8.96733 17.0986,-11.52535 5.8882,-1.94328 13.955,-10.46479 16.3605,-17.28273 2.9538,-8.37196 0.478,-9.34086 -5.4244,-2.12279 -8.5843,10.49795 -12.5967,13.83149 -17.6753,14.68494 -8.2404,1.38479 -8.9544,1.80573 -11.2588,6.63801 -2.3898,5.01154 -3.0235,12.60792 -1.0517,12.60792 0.6539,0 1.5318,-1.35 1.9511,-3 z m 15.2135,-24.92634 c 6.4948,-4.70477 7.7163,-7.84814 5.467,-14.06844 -2.0941,-5.79107 -3.2407,-5.90373 -4.3362,-0.42605 -1.8923,9.46133 -10.7992,12.56713 -14.446,5.03726 -1.6844,-3.47783 -2.1957,-3.7682 -3.6178,-2.05461 -3.7075,4.46722 2.8489,15.43818 9.2261,15.43818 1.2577,0 4.7258,-1.76686 7.7069,-3.92634 z m -18.3534,2.00503 c 0,-0.32339 -0.6,-0.9588 -1.3333,-1.41203 -0.7333,-0.45322 -1.3333,-0.18863 -1.3333,0.58798 0,0.77661 0.6,1.41202 1.3333,1.41202 0.7333,0 1.3333,-0.26459 1.3333,-0.58797 z m 14.6667,-16 c 0,-3.98447 -2.128,-5.51889 -4.6971,-3.38681 -1.4123,1.17212 -1.5593,2.25 -0.5613,4.11479 1.9513,3.64604 5.2584,3.1882 5.2584,-0.72798 z m 0.9093,-9.5181 c 3.4436,-0.5164 8.1707,-0.27689 10.9157,0.55306 l 4.8417,1.46392 -3.3334,-2.59247 c -5.871,-4.56614 -19.6394,-2.8219 -25.7195,3.25825 -3.9479,3.94794 -2.4793,4.81122 2.4705,1.45219 2.613,-1.77326 7.4843,-3.63398 10.825,-4.13495 z m -18.7538,-18.7008 c -0.9943,-8.45996 -2.9509,-13.0163 -5.036,-11.72763 -0.7774,0.48044 -1.0953,2.74724 -0.7066,5.03734 0.8396,4.94627 4.6067,14.16383 5.7886,14.16383 0.4578,0 0.4371,-3.3631 -0.046,-7.47354 z m -48.2507,-22.6217 c 2.8482,-2.84828 2.6317,-5.37779 -0.6577,-7.68177 -5.4908,-3.84593 -11.1057,1.14617 -7.9407,7.05998 1.7341,3.24018 5.6936,3.52651 8.5984,0.62179 z m 131.4081,-21.94142 c 0.011,-1.8535 -0.9923,-4.81591 -2.2301,-6.58314 -1.5962,-2.27877 -1.79,-3.36668 -0.6667,-3.74112 1.9883,-0.66278 2.0963,-4.30575 0.1275,-4.30575 -0.801,0 -3.051,1.2599 -5,2.79977 l -3.5436,2.79977 -0.4363,-2.8776 c -0.3582,-2.36321 -0.7854,-2.58778 -2.3898,-1.25628 -1.2724,1.05602 -2.408,1.16689 -3.2569,0.31797 -0.8489,-0.84891 0.073,-3.3521 2.6429,-7.17926 2.1705,-3.23176 3.7017,-6.12058 3.4026,-6.41961 -0.299,-0.29903 -2.2129,0.11738 -4.2531,0.92536 -5.9278,2.34761 -11.7094,2.51268 -11.7094,0.33433 0,-1.03889 1.5,-2.31826 3.3333,-2.84304 1.8334,-0.52478 5.8563,-1.64076 8.94,-2.47996 6.7569,-1.8389 13.7267,-7.39052 13.7267,-10.93374 0,-2.51605 -0.1239,-2.51204 -5.3892,0.17412 -6.7993,3.46873 -19.7847,5.99761 -21.5797,4.20259 -1.4392,-1.43916 0.3985,-2.15673 8.9689,-3.50216 6.6097,-1.03762 12.6667,-3.35168 12.6667,-4.83929 0,-0.6161 -2.55,-1.80643 -5.6667,-2.64517 -7.5426,-2.02982 -17.5102,-7.93426 -15.9791,-9.46539 0.7077,-0.70769 4.1521,0.17795 8.4216,2.16539 7.4108,3.44971 10.5575,4.15796 10.5575,2.37626 0,-0.55693 -1.2233,-1.77655 -2.7184,-2.71027 -3.2661,-2.03969 -2.2115,-4.88153 1.1327,-3.0522 1.2388,0.67768 4.5906,3.39105 7.4485,6.02973 2.8578,2.63867 5.4891,4.50456 5.8473,4.14641 0.8299,-0.82998 -3.085,-7.02319 -7.3254,-11.58814 -2.4491,-2.6366 -2.8465,-3.78216 -1.583,-4.56305 1.1,-0.67984 3.42,0.91011 6.6672,4.56922 2.739,3.08652 5.3075,5.08211 5.7076,4.43464 0.4002,-0.64748 0.2388,-4.26945 -0.3587,-8.04882 -0.8357,-5.28718 -0.6891,-6.87158 0.636,-6.87158 2.7569,0 3.7053,2.67465 4.4832,12.64302 l 0.7302,9.35698 2.4188,-3.56339 c 1.3303,-1.95987 2.7299,-7.05987 3.1102,-11.33333 0.3804,-4.27347 0.9741,-8.65313 1.3194,-9.73258 1.0661,-3.33261 3.088,1.18744 3.2636,7.29597 0.1336,4.65013 0.29,4.90633 1.2208,2 0.5871,-1.83334 1.1273,-5.55804 1.2004,-8.27713 0.122,-4.53758 -0.3875,-5.24969 -6.2004,-8.66667 -5.1776,-3.04353 -7.9148,-3.72287 -15,-3.72287 -13.1104,0 -23.1085,5.27111 -36.9026,19.45555 -9.6562,9.92939 -28.4307,32.14415 -28.4307,33.6403 0,0.30833 3.15,0.97741 7,1.48685 8.984,1.18877 16.3043,4.57555 23,10.64104 2.9333,2.65727 8.6333,6.65001 12.6666,8.87277 4.2493,2.34175 9.5366,6.82683 12.5723,10.66459 5.4464,6.88554 7.365,6.85158 7.4073,-0.13109 z m -126.9683,-5.23052 c 4.8215,-4.02186 5.1946,-9.49129 0.9883,-14.49013 -2.913,-3.46201 -4.5484,-4.24269 -8.8873,-4.24269 -9.2336,0 -16.3491,10.09981 -11.4456,16.24606 4.3579,5.46244 14.2524,6.73437 19.3446,2.48676 z m 120.9887,-14.73282 c 0.4533,-0.73334 0.1887,-1.33334 -0.5879,-1.33334 -0.7767,0 -1.4121,0.6 -1.4121,1.33334 0,0.73333 0.2646,1.33333 0.588,1.33333 0.3234,0 0.9588,-0.6 1.412,-1.33333 z m -125.3518,-21.7452 c 1.2737,-3.07348 3.4488,-7.89484 4.8338,-10.71414 3.4767,-7.07752 3.2722,-8.56838 -2.9808,-21.72977 l -5.4988,-11.57405 -2.3827,3.15874 c -1.3104,1.73731 -4.2968,7.0049 -6.6363,11.70575 -4.9355,9.91695 -4.8377,11.21408 1.9496,25.84996 5.3675,11.5743 7.0703,12.09927 10.7152,3.30351 z m -9.4707,-7.2548 c -1.9005,-4.21667 -3.4347,-9.25868 -3.4093,-11.20447 0.051,-3.91534 4.6263,-13.72459 7.1204,-15.26599 1.9145,-1.18323 4.8882,2.9541 8.034,11.17764 2.2455,5.86984 2.2378,5.93707 -1.6513,14.4284 -2.1491,4.6921 -4.5218,8.53108 -5.2728,8.53108 -0.751,0 -2.9204,-3.45 -4.821,-7.66666 z m 5.4892,-87 c 0.9952,0 2.8569,1.04732 4.1369,2.32738 2.2143,2.21428 2.284,2.11024 1.4337,-2.14115 -1.1501,-5.75046 -3.8665,-11.22327 -5.5706,-11.22327 -1.7041,0 -4.4205,5.47281 -5.5706,11.22327 -0.8503,4.25139 -0.7806,4.35543 1.4337,2.14115 1.2801,-1.28006 3.1417,-2.32738 4.1369,-2.32738 z m 7.7698,-25.66667 c 2.8367,-5.84531 0.5507,-9.50009 -6.307,-10.08358 -8.0466,-0.68465 -12.0963,6.55069 -7.1364,12.75025 0.7334,0.91666 3.585,1.66666 6.337,1.66666 4.3248,0 5.2888,-0.58786 7.1064,-4.33333 z m -2.802,-28.67417 c 0.9666,-3.69631 -1.2528,-8.32583 -3.9915,-8.32583 -3.379,0 -5.643,2.589 -5.643,6.45301 0,6.49654 8.0178,8.05509 9.6345,1.87282 z m -0.3981,-30.73319 c 2.172,-5.808 2.5802,-8.56814 1.6348,-11.05479 -1.6524,-4.34611 -4.9963,-7.03095 -7.5409,-6.05452 -2.3183,0.88961 -5.2586,7.18537 -4.7559,10.18333 0.5942,3.54387 5.7212,14.66667 6.7606,14.66667 0.5536,0 2.3092,-3.48331 3.9014,-7.74069 z m -14.1783,-15.74812 c 2.0486,-3.01885 5.1908,-6.86606 6.9826,-8.54936 l 3.2578,-3.06053 3.6841,3.90376 c 2.0262,2.14707 5.3791,6.49933 7.4507,9.67169 2.0716,3.17236 4.0982,5.43619 4.5037,5.03073 0.4055,-0.40546 -0.194,-3.61052 -1.332,-7.12234 -1.1381,-3.51183 -2.7541,-10.20619 -3.5911,-14.87636 -0.837,-4.67017 -2.0426,-9.47017 -2.6792,-10.66666 -0.6365,-1.1965 -1.838,-6.07545 -2.6699,-10.84212 -1.9853,-11.375829 -4.1501,-18.666669 -5.5425,-18.666669 -0.6172,0 -1.1223,1.46459 -1.1223,3.25465 0,1.79005 -0.5212,3.57675 -1.1582,3.97045 -0.637,0.39369 -1.5546,3.19493 -2.0391,6.22497 -0.4845,3.030039 -3.1914,13.993339 -6.0152,24.362879 -7.1734,26.34158 -7.2911,26.90161 -5.1866,24.68145 0.9528,-1.00525 3.4086,-4.2977 5.4572,-7.31654 z m -219.2541,795.15549 c -4.6588,-5.31666 -10.4348,-11.76666 -12.8354,-14.33333 l -4.3648,-4.66667 -4.9686,5.3841 c -2.7327,2.96126 -8.4456,9.20414 -12.6954,13.87307 -5.7453,6.31193 -8.1135,8.10246 -9.2341,6.98184 -1.1206,-1.12062 0.3573,-3.48165 5.7627,-9.2064 10.7994,-11.43739 17.5143,-20.08459 16.9383,-21.81252 -0.2809,-0.84286 -5.2092,3.62885 -10.9516,9.93714 -9.3883,10.31334 -12.7884,12.62759 -12.7884,8.70424 0,-0.72297 5.4473,-6.94527 12.1051,-13.82734 8.8819,-9.18116 11.9883,-13.27386 11.6666,-15.37095 -0.361,-2.35367 -2.2705,-0.72302 -10.8191,9.23936 -10.1343,11.81019 -12.9526,14.0343 -12.9526,10.22182 0,-1.63355 19.8424,-25.40517 23.0451,-27.60848 0.6535,-0.4496 0.9857,-2.147 0.7382,-3.772 -0.3791,-2.48945 -2.0943,-1.04894 -10.8957,9.15078 -9.2684,10.74088 -14.2209,14.54253 -14.2209,10.91621 0,-0.65402 2.85,-4.39718 6.3333,-8.31814 3.4833,-3.92095 7.9379,-8.93584 9.8991,-11.1442 8.0534,-9.06828 9.0997,-10.51585 9.0735,-12.55254 -0.028,-2.13274 -6.7685,4.82875 -16.9301,17.48387 -4.8377,6.02482 -8.3758,8.08117 -8.3758,4.86801 0,-1.43809 9.3466,-12.67421 20.3333,-24.44377 2.75,-2.94596 4.9809,-6.55955 4.9576,-8.03019 -0.038,-2.3955 -0.2131,-2.4497 -1.6821,-0.52055 -0.9018,1.18435 -5.5258,6.51534 -10.2755,11.84664 -4.7497,5.3313 -9.3524,10.66229 -10.2282,11.84664 -1.1331,1.53233 -2.01,1.74232 -3.0406,0.72814 -1.0363,-1.01975 2.3452,-5.7615 11.8853,-16.66667 7.3335,-8.38279 13.3286,-16.14144 13.3225,-17.24144 -0.011,-2.01876 -0.8134,-1.2348 -16.3049,15.93489 -5.297,5.87086 -8.129,8.10355 -9.0766,7.15591 -0.9477,-0.94764 2.8066,-6.0863 12.0325,-16.4697 7.3755,-8.30077 13.41,-15.58629 13.41,-16.19004 0,-2.49335 -2.4644,-0.33338 -11.1659,9.78657 -8.8877,10.33653 -12.089,12.97193 -13.7453,11.31566 -0.8061,-0.80618 3.037,-5.41836 17.1305,-20.55834 4.2794,-4.59711 7.7509,-9.09711 7.7144,-10 -0.037,-0.90289 -5.3201,3.92479 -11.7414,10.72817 -10.0584,10.65709 -13.5498,13.17291 -13.5185,9.74132 0,-0.42778 4.245,-5.27778 9.4248,-10.77778 11.333,-12.03361 16.515,-18.49749 15.5794,-19.43311 -0.8877,-0.88769 -2.6508,0.90573 -13.0692,13.29341 -7.9981,9.50999 -11.9858,12.3471 -11.9092,8.47304 0.018,-0.91667 3.0661,-4.96667 6.7733,-9 12.0961,-13.16032 18.9187,-21.38614 18.2733,-22.03155 -0.3482,-0.34827 -5.6015,4.76636 -11.6739,11.36583 -6.0724,6.59948 -11.5729,11.99905 -12.2232,11.99905 -2.3758,0 -1.0897,-4.0049 2.4842,-7.73569 15.2497,-15.91917 21.6667,-23.38684 21.6667,-25.21436 0,-1.66415 -0.5494,-1.4912 -2.5347,0.79792 -7.6369,8.80535 -20.3025,21.48546 -21.4609,21.48546 -1.9035,0 -1.6594,-3.66172 0.3289,-4.93374 4.0072,-2.56358 23.8364,-25.82592 23.4392,-27.4974 -0.2558,-1.07689 -4.8921,3.06115 -11.1058,9.91236 -9.632,10.62008 -14,13.95618 -14,10.69244 0,-1.30483 5.3946,-7.61975 17.2727,-20.2193 4.4333,-4.70259 8.0606,-9.4091 8.0606,-10.45891 0,-2.37409 -2.8795,-0.005 -13.3521,10.98712 -5.246,5.50603 -8.2153,7.65167 -10.0473,7.26021 -2.1276,-0.45461 -0.236,-2.98203 10.3994,-13.8952 7.2914,-7.48179 13,-14.46277 13,-15.89744 0,-1.84359 -3.0797,0.50576 -11.0278,8.41263 -9.7873,9.73638 -14.3055,12.91264 -14.3055,10.0565 0,-0.50273 1.1877,-2.17839 2.6395,-3.72368 2.633,-2.80272 2.6322,-2.82006 -0.3334,-7.0629 -1.635,-2.3393 -3.3854,-4.26364 -3.8898,-4.27631 -0.5044,-0.0127 -0.7058,7.92696 -0.4476,17.64362 0.6698,25.21235 -2.371,48.91956 -8.8504,69 -3.3374,10.34321 -6.0233,14.01538 -8.6541,11.83204 -0.9886,-0.82054 -1.7976,-2.23411 -1.7976,-3.14127 0,-2.14888 -20.7119,-42.64082 -27.9746,-54.69077 -3.094,-5.13333 -6.6154,-10.97954 -7.8254,-12.99157 -1.21,-2.01203 -2.5664,-3.66203 -3.0142,-3.66666 -0.4479,-0.005 -1.1819,3.09562 -1.6313,6.88947 -1.4632,12.35492 -5.0095,12.16364 -7.482,-0.40358 -2.7897,-14.17988 -7.5095,-22.87944 -28.8418,-53.16099 -3.3579,-4.76667 -7.6418,-11.66667 -9.51977,-15.33333 -1.87796,-3.66667 -6.08336,-9.63961 -9.34533,-13.27321 -11.44307,-12.74674 -16.31234,-27.24093 -16.34585,-48.65613 l -0.0197,-12.59601 -4.04134,5.49538 c -2.22274,3.02246 -4.76532,8.54313 -5.65017,12.26817 -0.88486,3.72503 -2.20307,6.57471 -2.92937,6.33261 -2.54592,-0.84864 -4.90339,-12.36617 -5.37041,-26.23748 -0.65064,-19.32496 -1.80962,-26.01432 -6.17101,-35.61784 -2.06931,-4.55647 -4.14437,-9.80647 -4.61125,-11.66666 -0.46688,-1.86019 -1.2952,-3.38217 -1.84071,-3.38217 -1.16096,0 -3.94437,23.18373 -4.40217,36.66667 -0.2463,7.25405 -0.76116,9.33333 -2.31109,9.33333 -3.85135,0 -6.88519,-14.63123 -9.38945,-45.28233 -1.4826,-18.14651 -0.006,-38.07261 3.98114,-53.71767 1.35489,-5.31667 2.23142,-9.66667 1.94785,-9.66667 -0.86001,0 -10.72975,20.31994 -12.45771,25.6481 -1.58078,4.87431 -3.59145,7.29254 -4.94119,5.9428 -2.09151,-2.09151 -2.59379,-16.65711 -0.85402,-24.76569 1.04144,-4.85386 1.5723,-11.30858 1.17968,-14.34381 -0.39261,-3.03522 -0.1716,-8.85025 0.49114,-12.92227 0.73079,-4.49015 0.70968,-11.76306 -0.0536,-18.48141 -0.69224,-6.09274 -1.64524,-15.79205 -2.11777,-21.55402 -0.63198,-7.70609 -1.1973,-9.87208 -2.13792,-8.19128 -1.51006,2.69832 -6.90273,19.46705 -8.25446,25.66758 -0.65323,2.99639 -1.70953,4.33333 -3.42371,4.33333 -3.37997,0 -4.55712,-8.49735 -3.58328,-25.86613 0.57103,-10.18443 1.62816,-15.67733 4.33674,-22.53399 1.96991,-4.98673 3.2673,-9.38113 2.8831,-9.76534 -0.77022,-0.77021 -18.67857,10.11728 -19.3901,11.78834 -0.49521,1.16301 -5.55555,1.45814 -5.55555,0.32401 0,-1.46634 5.7055,-11.84286 7.49657,-13.63394 2.84086,-2.84086 4.05549,-5.77444 5.03009,-12.14872 0.49075,-3.20967 1.99922,-9.20967 3.35217,-13.33333 1.35295,-4.12366 3.48862,-11.09756 4.74594,-15.49756 5.16374,-18.07062 6.4296,-21.39892 10.60531,-27.88437 2.40176,-3.73027 6.54361,-9.1823 9.20411,-12.11564 5.12462,-5.65016 6.15412,-8.66666 2.95782,-8.66666 -4.07346,0 -30.51689,-17.2068 -32.69342,-21.27368 -1.97417,-3.68876 -1.76614,-4.0575 2.30141,-4.07936 8.61011,-0.0463 33.66666,-7.97692 33.66666,-10.65583 0,-0.55759 -3.89368,-1.43079 -8.65263,-1.94043 -4.75895,-0.50964 -8.95329,-1.41307 -9.32074,-2.00762 -0.36745,-0.59455 -2.32377,-1.49185 -4.34736,-1.994 -7.50063,-1.86124 -16.34593,-6.69888 -16.34593,-8.93985 0,-1.8646 1.28402,-2.20087 7.66666,-2.00781 7.86886,0.23803 18.44834,-3.60084 23.00369,-8.3471 3.39784,-3.54026 21.47989,-13.15399 31.25494,-16.61742 2.39472,-0.84848 2.32464,-1.05706 -0.921,-2.74092 -5.92377,-3.07328 -24.51328,-17.71383 -31.48615,-24.79756 -15.68453,-15.93388 -21.18328,-29.76508 -7.75993,-19.5188 6.97115,5.3212 20.91899,10.25371 28.99479,10.25371 5.73824,0 20.91585,-3.45267 23.247,-5.28834 2.92923,-2.30661 32.70795,-8.49539 43.70418,-9.08283 11.2021,-0.59845 11.6662,-0.74688 10.8187,-3.46038 -2.8937,-9.26564 -18.80212,-34.83731 -27.52288,-44.24112 -13.65545,-14.72501 -9.99914,-14.89647 17.75448,-0.8326 23.9488,12.13577 33.5372,17.38164 44.5788,24.3893 5.5031,3.49255 8.1236,4.52658 8.3959,3.31291 0.3607,-1.60784 -3.2864,-21.71329 -6.3122,-34.79694 -0.6784,-2.93334 -2.5881,-11.18998 -4.2438,-18.34811 -1.9475,-8.41998 -2.5531,-13.47198 -1.7153,-14.30982 1.7259,-1.72586 12.1445,3.85919 25.6964,13.77494 5.8509,4.28103 19.6404,16.58103 30.6434,27.33334 l 20.0055,19.54965 4.7651,-5.22476 c 2.6207,-2.87362 4.765,-5.69634 4.765,-6.27273 0,-0.57638 -1.5,-2.54797 -3.3333,-4.3813 -4.5652,-4.56515 -4.5652,-11.62539 0,-15.21633 1.8333,-1.4421 3.3333,-3.18221 3.3333,-3.8669 0,-1.77605 -6.6914,-18.15234 -7.9601,-19.48121 -0.5828,-0.61045 -3.3802,2.23245 -6.2164,6.31754 -5.1805,7.46148 -8.4982,9.46668 -8.4808,5.12569 0.027,-6.71963 20.8515,-86.401669 24.2555,-92.809817 2.2664,-4.26661 3.2543,-2.07417 11.3293,25.143148 2.6108,8.799999 6.1129,21.099999 7.7823,27.333329 1.6695,6.23334 4.9177,17.87841 7.2182,25.87795 3.061,10.64374 3.7855,14.93495 2.7013,16 -1.5191,1.49242 -2.4004,0.68288 -10.897,-10.01038 -4.3532,-5.47856 -5.0532,-4.94367 -9.6731,7.39103 l -3.4677,9.25859 3.1576,2.74141 c 6.3601,5.52191 5.494,13.2749 -2.1769,19.48639 -2.565,2.07704 -2.5141,2.20077 2.0755,5.0373 8.7878,5.43114 9.5325,16.47385 1.5352,22.76453 l -3.2908,2.58852 6.7751,14.32884 c 8.5693,18.12362 7.8072,22.16504 -2.6221,13.90485 -2.753,-2.18037 -5.3893,-3.58037 -5.8586,-3.11111 -0.4692,0.46926 -0.8532,8.11208 -0.8532,16.98405 0,13.17523 0.4547,16.98231 2.4812,20.77778 9.5835,17.94858 13.5188,26.21473 13.5188,28.39607 0,1.38326 -3.1429,8.55792 -6.9844,15.94369 -5.4957,10.56652 -6.5642,13.56874 -5.0128,14.08587 1.0844,0.36145 3.6274,2.31296 5.6511,4.33668 3.037,3.03702 3.6795,4.84487 3.6795,10.35378 0,5.73835 -0.6092,7.29528 -4.3441,11.10257 -2.3892,2.43554 -5.5392,5.15666 -7,6.04691 -2.6429,1.6107 -2.6423,1.63048 0.1117,4.02552 5.4253,4.71825 7.5872,9.37991 6.6548,14.34995 -0.4821,2.5699 -1.3363,4.67255 -1.8981,4.67255 -0.5618,0 -2.3346,1.22338 -3.9396,2.71861 l -2.9181,2.71861 0.051,114.28139 0.051,114.2814 4.1882,2.66666 c 8.7401,5.565 7.5786,18.84636 -1.9575,22.38404 -2.1174,0.7855 -2.3334,3.37589 -2.3334,27.99004 v 27.12444 l 4,2.95732 c 3.2544,2.4061 4,3.92598 4,8.15411 0,4.23492 -0.7705,5.79983 -4.1632,8.45497 l -4.1632,3.25819 4.0496,2.39214 c 9.3262,5.50909 9.2016,19.33626 -0.2181,24.20737 l -3.9758,2.05596 13.5687,13.3059 c 7.4628,7.31825 13.5687,13.84807 13.5687,14.51072 0,3.19591 -4.317,0.27831 -14,-9.46186 -5.8323,-5.86667 -11.0682,-10.66667 -11.6354,-10.66667 -3.2247,0 0.4431,4.94938 12.3021,16.60059 7.3332,7.20486 13.3332,13.61717 13.3332,14.24958 0,3.0245 -4.2682,0.19916 -14.4171,-9.54346 -6.096,-5.85202 -11.346,-10.64004 -11.6666,-10.64004 -2.5153,0 1.4417,5.36084 12.7941,17.33333 7.3013,7.7 13.2783,14.45 13.2823,15 0.024,3.26192 -5.0108,-0.4076 -14.499,-10.56768 -5.9415,-6.36223 -11.1895,-11.18096 -11.6622,-10.70828 -1.3081,1.30813 2.2212,5.80506 14.7435,18.78597 10.4184,10.79986 13.503,15.48999 10.1876,15.48999 -0.6805,0 -6.1894,-5.4 -12.242,-12 -10.1157,-11.03066 -13.2509,-13.65359 -13.1487,-11 0.021,0.55 6.0137,7.3 13.3167,15 12.0218,12.67536 15.3088,17.33334 12.2315,17.33334 -0.5939,0 -6.3843,-5.40957 -12.8676,-12.02127 -6.4832,-6.61169 -12.079,-11.73003 -12.4349,-11.37408 -0.6172,0.61717 18.7217,22.4706 23.1022,26.1061 3.025,2.51054 4.8383,6.32632 3.4221,7.20153 -1.0963,0.67756 -13.6891,-11.55515 -21.8711,-21.24562 -3.3328,-3.9473 -6.2388,-4.08752 -4.0597,-0.19589 0.6173,1.10227 6.7165,7.74609 13.5539,14.76406 7.4576,7.65458 12.2589,13.63366 12,14.94364 -0.3025,1.53044 -4.124,-1.524 -12.7744,-10.21022 -14.012,-14.07013 -18.6104,-15.50422 -5.3682,-1.67417 17.2012,17.96484 20.9836,23.03925 17.173,23.03925 -0.6626,0 -6.6463,-5.85 -13.2972,-13 -6.6509,-7.15 -12.1088,-12.0862 -12.1287,-10.96934 -0.02,1.11686 6.2499,8.91686 13.9328,17.33333 12.856,14.08357 15.9895,18.63601 12.8274,18.63601 -0.6621,0 -6.436,-5.7 -12.8309,-12.66667 -6.395,-6.96666 -12.1831,-12.66666 -12.8626,-12.66666 -1.9521,0 0.1767,2.83232 11.1316,14.81001 14.2957,15.6303 16.1415,18.13357 14.2386,19.30962 -0.9395,0.58066 -3.1927,-0.85962 -5.5905,-3.57347 -13.2141,-14.95614 -19.6797,-21.52676 -20.4373,-20.76921 -0.7896,0.78957 8.8896,12.46682 21.1835,25.55638 2.7551,2.93334 4.9995,6.53334 4.9876,8 -0.015,1.9183 -3.737,-1.26226 -13.2611,-11.33333 -7.2818,-7.7 -13.2535,-13.4 -13.2704,-12.66667 -0.017,0.73333 5.9354,8.23333 13.2274,16.66667 12.3614,14.29617 15.1939,18.66667 12.0975,18.66667 -0.6913,0 -6.2192,-5.7 -12.2843,-12.66667 -6.065,-6.96667 -11.4994,-12.66667 -12.0764,-12.66667 -3.1332,0 0.041,5.20531 8.7588,14.36345 15.8907,16.69322 18.4795,19.96823 16.6692,21.0871 -1.0326,0.63819 -5.8129,-3.51016 -13.2922,-11.53515 -6.4238,-6.89245 -12.0312,-12.18016 -12.4609,-11.75047 -1.774,1.77396 1.9626,6.93227 14.276,19.70805 7.15,7.41847 13,14.08187 13,14.80757 0,3.15657 -3.4589,0.51972 -15.3221,-11.68055 -6.9524,-7.15 -12.6491,-12.3418 -12.6593,-11.53734 -0.02,1.55555 0.8884,2.68613 13.7044,17.06176 10.6058,11.89659 12.9437,14.91035 12.9437,16.68589 0,3.13478 -2.7282,1.07273 -10.8627,-8.21031 z m -64.2363,-102 c -1.3856,-27.89886 -2.776,-33.64298 -21.6691,-89.52417 -1.0593,-3.13326 -1.897,-0.9418 -3.7807,9.89016 l -1.8092,10.40424 5.15,10.32073 c 9.7052,19.44942 17.4124,45.54895 20.5455,69.57571 1.5664,12.01203 2.4055,6.28749 1.5635,-10.66667 z m 8.8536,1.9791 c 1.4854,-9.93648 2.243,-23.36322 2.2384,-39.66666 -0.01,-27.42697 0.7129,-24.80028 -10.971,-39.9833 -5.7931,-7.52804 -12.1241,-19.14222 -17.8047,-32.66247 l -2.2408,-5.33334 -1.2221,5.33334 c -1.6653,7.26711 -0.9316,10.33845 8.2689,34.6178 13.1418,34.68023 17.4353,53.30466 17.7615,77.04665 0.1184,8.61545 0.5548,15.66545 0.9698,15.66667 0.4151,10e-4 1.7651,-6.75719 3,-15.01869 z m -15.8355,2.68757 c -1.8557,-15.47628 -10.9015,-46.34469 -18.071,-61.66667 l -3.1194,-6.66667 -0.6977,5.33334 c -0.9989,7.6364 -4.1134,6.96635 -6.1974,-1.33334 -1.7589,-7.00482 -12.4262,-30 -13.9167,-30 -0.4774,0 0.2648,5.44922 1.6492,12.10937 2.0815,10.01335 3.6766,13.87902 9.2154,22.33333 9.0434,13.80363 24.0198,44.1125 27.9873,56.64004 1.7772,5.61151 3.4019,10.21351 3.6105,10.22667 0.2086,0.0132 0,-3.12607 -0.4602,-6.97607 z m -9.9642,-8.56798 c -7.2223,-19.79727 -22.7325,-49.76536 -25.7565,-49.76536 -0.7036,0 -0.9115,3.16477 -0.4816,7.33006 0.5276,5.1122 2.0047,9.17955 4.8819,13.44268 2.2689,3.36195 5.4624,8.54478 7.0967,11.51741 1.6342,2.97263 3.5869,6.37343 4.3393,7.55732 0.7524,1.18389 3.9729,6.83208 7.1566,12.55153 3.1836,5.71945 6.0736,10.11387 6.4221,9.76536 0.3485,-0.3485 -1.2978,-5.92805 -3.6585,-12.399 z m -31.232,-43.5925 c -1.7223,-26.58216 -8.0712,-52.71972 -15.4257,-63.50619 -7.7353,-11.34476 -19.4362,-31.768 -22.153,-38.66667 -1.7256,-4.38169 -1.80276,-3.93388 -1.2642,7.33333 0.8839,18.49425 9.4314,46.17557 23.3681,75.67875 3.5476,7.51003 8.1681,18.24716 10.2677,23.86029 2.0997,5.61314 4.3271,9.89092 4.9499,9.50619 0.6228,-0.38473 0.7385,-6.7773 0.2572,-14.2057 z m 70.0267,-13.17286 c -10.1134,-21.60238 -13.8078,-34.91943 -15.4972,-55.86182 -0.7682,-9.52202 -1.5002,-12.19069 -4.2063,-15.33333 -1.802,-2.09267 -3.7795,-4.69985 -4.3945,-5.79374 -2.2766,-4.0491 -2.6684,-0.0563 -1.2461,12.6989 2.9167,26.15688 9.2162,44.61133 23.7585,69.60003 7.6603,13.16323 8.6626,9.80665 1.5856,-5.31004 z m 10.5837,6.29051 c 0,-1.12355 -0.9206,-4.2462 -2.0458,-6.93921 -4.3921,-10.51184 -8.8549,-31.98729 -9.6076,-46.23319 -0.7114,-13.4622 -1.0435,-14.85601 -4.4475,-18.66575 -2.0233,-2.26446 -4.1315,-3.66437 -4.6849,-3.11092 -1.8126,1.81251 -0.5321,22.75966 2.0574,33.65856 2.7692,11.65491 9.0506,29.48416 13.3719,37.95448 2.7833,5.45583 5.3565,7.0584 5.3565,3.33603 z m 8.0753,-6.29051 c 2.993,-3.5878 3.3008,-6.33333 0.7099,-6.33333 -1.0348,0 -3.499,-1.92238 -5.4761,-4.27195 -3.1523,-3.74635 -3.4889,-5.01772 -2.736,-10.33333 1.1653,-8.22784 1.1903,-7.10948 -0.4917,-22.06139 -0.8249,-7.33333 -1.1323,-15.55803 -0.6829,-18.2771 0.9718,-5.88094 -0.2109,-10.38957 -2.7253,-10.38957 -1.4014,0 -1.6417,1.66736 -1.057,7.33334 0.6415,6.21537 0.4236,7.33333 -1.4296,7.33333 -1.6392,0 -2.1846,1.25167 -2.1787,5 0.011,6.99888 3.6497,30.47033 5.8393,37.66667 1.0041,3.3 2.5953,8.55 3.536,11.66667 1.9442,6.44163 3.144,6.91973 6.6921,2.66666 z m 11.3187,-12.27272 c 3.964,-3.96402 4.2097,-9.12363 0.606,-12.72728 -5.5308,-5.53081 -16,-1.56521 -16,6.06061 0,4.10287 5.4807,9.93939 9.3334,9.93939 1.5333,0 4.2606,-1.47272 6.0606,-3.27272 z m -128.9311,-12.39394 c -13.093,-32.64328 -16.39534,-48.8867 -15.37599,-75.63077 0.4703,-12.33902 0.28292,-20.93468 -0.46647,-21.39783 -0.6889,-0.42576 -2.38433,0.30649 -3.76762,1.62724 -6.75393,6.44854 -3.81375,51.54389 4.76399,73.06802 4.01864,10.08401 13.02269,28.00328 15.36809,30.58475 1.2917,1.42161 2.3485,3.07161 2.3485,3.66667 0,0.59505 0.5273,1.08192 1.1719,1.08192 0.6445,0 -1.1746,-5.85 -4.0424,-13 z m 23.1927,-30.04868 c -20.8256,-41.41373 -23.3781,-49.01632 -23.4861,-69.95133 -0.035,-6.78333 -0.1498,-12.33333 -0.2552,-12.33333 -0.1053,0 -1.7068,1.40434 -3.5589,3.12075 -5.8065,5.38126 -6.74184,8.42581 -5.7587,18.74375 1.7924,18.81126 7.0254,30.62369 27.1708,61.33253 4.8599,7.4083 9.4504,14.17784 10.2011,15.04342 0.7506,0.86557 2.8274,4.00294 4.6151,6.97192 1.7876,2.96898 3.5595,5.08888 3.9375,4.71088 0.378,-0.378 -5.4115,-12.81536 -12.8656,-27.63859 z m 17.6268,-4.28466 c -2.6232,-9.53333 -6.5819,-23.93333 -8.7971,-32 -4.57,-16.6413 -6.4473,-41.34062 -4.1043,-54 1.4362,-7.75982 0.6472,-26.66667 -1.1128,-26.66667 -0.5721,0 -2.6544,2.85 -4.6274,6.33334 -3.0733,5.42612 -3.6881,8.35291 -4.2917,20.43219 -0.8983,17.97719 0.7017,26.98032 9.5582,53.78596 7.2548,21.95788 12.6247,40.66955 15.6946,54.68864 l 1.7315,7.90679 0.3592,-6.57346 c 0.2383,-4.36147 -1.2458,-12.40618 -4.4102,-23.90679 z m 33.8178,25.66667 c -2.6422,-8.29517 -5.0183,-21.76444 -6.5271,-37 -1.1292,-11.40275 -2.139,-16.01692 -3.9394,-18 -1.3315,-1.46667 -3.9244,-5.64787 -5.762,-9.29157 -3.2199,-6.38446 -3.3732,-6.49708 -4.2251,-3.10305 -1.0487,4.17828 1.0538,18.73545 4.7507,32.89334 2.7577,10.5614 4.293,14.72472 11.0016,29.83461 4.1345,9.31223 7.1274,12.28304 4.7013,4.66667 z m 45.5665,-0.19068 c 0,-1.02154 -0.9491,-2.22154 -2.109,-2.66667 -3.0592,-1.17392 -3.2243,-1.07882 -3.2243,1.85735 0,1.77778 0.8889,2.66667 2.6666,2.66667 1.4667,0 2.6667,-0.83581 2.6667,-1.85735 z m -86.0302,-19.65376 c -2.6485,-9.06889 -7.1642,-23.44547 -10.035,-31.94795 -8.0354,-23.79902 -10.8838,-37.38102 -11.088,-52.87057 -0.099,-7.51463 -0.5812,-13.66463 -1.0714,-13.66667 -0.4902,-0.002 -2.2902,2.24629 -4,4.99629 -2.8056,4.51247 -3.1087,6.56012 -3.1087,21 0,20.38952 1.9429,26.77828 18.5341,60.94306 6.8705,14.14799 12.9309,26.92361 13.4674,28.39028 0.5366,1.46667 1.2324,1.98667 1.5463,1.15556 0.3139,-0.83111 -1.5962,-8.93111 -4.2447,-18 z m 94.0967,12.05358 c 0.8215,-1.53497 1.1311,-4.23497 0.6881,-6 -0.6558,-2.61325 -1.6585,-3.20914 -5.3998,-3.20914 -6.0724,0 -8.5417,3.99001 -5.4188,8.75608 2.6712,4.07683 8.0621,4.31793 10.1305,0.45306 z M 1061.675,714.3353 c 1.4566,-11.4401 1.4461,-15.52883 -0.063,-24.55827 -0.996,-5.95818 -1.5297,-13.93255 -1.186,-17.72082 0.4689,-5.1684 -0.022,-8.09505 -1.9672,-11.72412 -1.4257,-2.65999 -2.9547,-7.66049 -3.3979,-11.11223 -0.493,-3.84002 -1.9998,-7.56965 -3.8823,-9.60922 -1.6921,-1.83333 -3.9787,-5.08047 -5.0813,-7.21586 l -2.0047,-3.88254 -0.9364,3.73095 c -0.5151,2.05203 -0.5871,10.09917 -0.1601,17.88254 0.7405,13.49701 3.84,28.17973 10.024,47.48491 1.4095,4.4 3.3386,13.25296 4.287,19.67323 0.9483,6.42028 1.926,11.4715 2.1726,11.22494 0.2465,-0.24656 1.2347,-6.62464 2.1958,-14.17351 z m -73.61026,0.95363 c -3.22042,-9.88165 -5.46469,-26.58699 -5.4649,-40.67829 -1.3e-4,-8.25 -0.52676,-15 -1.1703,-15 -3.69814,0 -4.44793,4.4066 -3.91054,22.98249 0.54323,18.77787 0.61418,19.15193 5.6302,29.68418 4.87522,10.23661 7.86765,12.06999 4.91554,3.01162 z m 141.29676,1.65505 c 0.681,0 1.2381,-2.13986 1.2381,-4.75523 0,-4.40091 -0.2732,-4.7238 -3.6667,-4.33333 -2.0166,0.23204 -3.5166,0.87189 -3.3333,1.42189 0.1833,0.55 0.3333,3.44286 0.3333,6.42857 0,4.93507 0.1905,5.2381 2.0953,3.33334 1.1524,-1.15238 2.6524,-2.09524 3.3333,-2.09524 z M 1111.31,689.27731 c 0.7991,-3.55826 4.1157,-3.98168 5.2218,-0.66667 0.4282,1.28334 1.912,3.80376 3.2974,5.60095 2.15,2.78901 2.8303,3.00921 4.6447,1.50341 1.7016,-1.41226 2.5247,-1.43307 4.1257,-0.10436 1.7605,1.46109 2,-0.43539 2,-15.83674 0,-17.24705 -0.043,-17.49701 -3,-17.52587 -1.65,-0.0161 -5.7,-1.27945 -9,-2.80743 -5.0858,-2.35487 -8.3387,-2.7487 -21.3502,-2.58487 -15.4526,0.19456 -20.1731,-0.71324 -31.3922,-6.03704 -2.5774,-1.22309 -5.0067,-1.9034 -5.3983,-1.5118 -0.3916,0.3916 0.5377,3.16168 2.0652,6.15573 2.1076,4.13128 3.4802,5.36789 5.6931,5.1292 2.5245,-0.2723 3.0698,0.58025 4.0624,6.35216 1.4202,8.25758 3.0293,10.12027 4.1033,4.75 0.9453,-4.72622 3.5438,-5.51631 3.5631,-1.08334 0.017,4.00345 5.615,15.8361 10.2527,21.67278 l 3.7342,4.69965 0.6667,-6.91602 c 0.6733,-6.985 3.336,-10.08684 4.779,-5.56728 1.8946,5.93377 5.3358,13.07939 7.8389,16.27726 l 2.7154,3.46923 0.3517,-5.98447 c 0.1934,-3.29146 0.6548,-7.33448 1.0254,-8.98448 z M 985.39477,649.02673 c 23.78893,-21.05521 37.39553,-36.02165 45.73623,-50.30711 5.1661,-8.84806 5.9755,-12.44231 2.8019,-12.44231 -1.1,0 -2,0.54973 -2,1.22163 0,4.32229 -16.4186,24.52721 -34.74003,42.75147 -19.09007,18.98881 -27.92659,29.30023 -27.92659,32.58783 0,0.70138 1.10782,0.1121 2.46183,-1.30951 1.354,-1.42162 7.504,-7.04751 13.66666,-12.502 z m -21.15395,-9.41609 c 2.96091,-9.57463 4.57973,-13.59865 13.4097,-33.33333 11.35565,-25.37947 14.45535,-32.68628 18.78666,-44.28503 7.21672,-19.32566 8.21472,-25.21303 5.68142,-33.51781 -1.1515,-3.77511 -2.47944,-8.51383 -2.95089,-10.5305 -1.05722,-4.52231 -3.23477,-4.82628 -3.23477,-0.45155 0,6.724 -6.97944,32.03706 -18.04664,65.45156 -11.46897,34.62756 -17.1089,55.4248 -18.44069,68 -0.66354,6.26537 -0.62113,6.38576 0.70452,2 0.77581,-2.56667 2.61662,-8.56667 4.09069,-13.33334 z m 173.51638,15.83747 c 3.0105,-1.37167 4.778,-4.60962 4.8242,-8.83747 0.061,-5.61887 -10.9555,-9.16917 -15.2199,-4.90476 -3.1963,3.19627 -2.6882,10.4992 0.9048,13.00553 3.652,2.54756 5.2451,2.67121 9.4909,0.7367 z M 991.14447,629.53067 c 8.86703,-8.84398 18.85873,-19.34398 22.20393,-23.33333 7.5873,-9.04852 17.2512,-22.62189 17.2512,-24.23019 0,-1.78989 -7.9496,-13.02317 -9.2162,-13.02317 -0.5985,0 -2.066,2.55 -3.2611,5.66666 -2.6312,6.86148 -15.1543,28.1567 -16.9234,28.77778 -0.6963,0.24444 -1.26596,1.04238 -1.26596,1.77319 0,1.10703 -14.96437,21.62237 -20.09253,27.54576 -2.49114,2.87745 -11.90871,19.41356 -11.89268,20.88211 0.008,0.74498 1.60332,-0.7455 3.54486,-3.31217 1.94154,-2.56667 10.78488,-11.90265 19.65188,-20.74664 z m 119.91623,19.38564 c 6.2503,-2.20654 9.1268,-4.04325 10.8193,-6.90842 1.268,-2.14654 3.7486,-4.56035 5.5125,-5.36404 2.924,-1.33227 3.2071,-2.25194 3.2071,-10.41978 0,-8.55565 -0.2261,-9.19148 -5.0264,-14.13796 -2.9579,-3.04781 -7.4849,-5.9491 -11,-7.04962 -9.5925,-3.00321 -15.406,-6.70926 -18.6989,-11.92041 -2.921,-4.62255 -7.8357,-8.54381 -20.3796,-16.25998 -5.9182,-3.64049 -6.6672,-6.04875 -1.7727,-5.6999 2.8934,0.20622 2.9763,-0.15218 2.9307,-12.66666 -0.038,-10.51134 0.6284,-14.96233 3.627,-24.21223 3.7198,-11.47479 6.8743,-17.22336 8.5382,-15.5595 0.5019,0.50188 -1.1321,7.05808 -3.6312,14.56934 -5.8814,17.67782 -6.2673,30.47379 -1.1957,39.642 1.821,3.29185 4.313,6.17815 5.5377,6.41402 1.2248,0.23586 3.9167,-1.32392 5.9822,-3.46618 8.0602,-8.35995 16.703,-10.2648 25.4071,-5.59968 10.4225,5.58613 9.6906,9.92859 9.6078,-57 l -0.074,-59.66667 -3.5929,-2.78906 c -4.4893,-3.48493 -12.0104,-5.07755 -14.4433,-3.05842 -0.9911,0.82255 -2.9689,1.19039 -4.3952,0.81742 -1.9185,-0.50172 -3.4861,0.67131 -6.026,4.5093 -1.8881,2.85309 -4.0089,5.18743 -4.713,5.18743 -0.7041,0 -2.236,1.84821 -3.4041,4.10714 l -2.1239,4.10714 7.423,-0.92744 c 5.9852,-0.7478 7.423,-0.55752 7.423,0.9824 0,1.27405 -3.2181,2.66249 -9.6667,4.17072 -13.2432,3.09738 -13.9772,2.99386 -14.9364,-2.10663 -3.0313,-16.11849 -10.6452,-28.61514 -20.7303,-34.0245 -5.1443,-2.7593 -7.2459,-3.12007 -14.7371,-2.52982 -4.8802,0.38453 -12.7062,2.27735 -17.7283,4.28783 -10.874,4.35318 -18.4189,3.99299 -25.9698,-1.2398 -2.7728,-1.92154 -5.45917,-3.49371 -5.96975,-3.49371 -2.28595,0 -0.5672,3.88098 3.20865,7.24531 7.8143,6.96255 17.7775,7.85383 31.2226,2.79309 17.6554,-6.64546 27.064,-5.85798 35.6327,2.9824 11.3108,11.66935 15.4648,36.80548 10.8509,65.65956 -1.2365,7.73218 -3.7396,6.78189 -2.6702,-1.01369 0.4779,-3.48334 1.2406,-10.53334 1.6949,-15.66667 l 0.8261,-9.33333 -5.5668,5.94609 c -3.0618,3.27035 -7.9285,10.17035 -10.815,15.33333 -5.8244,10.41776 -7.2657,8.30591 -2.0205,-2.96044 l 3.2656,-7.01436 -5.8327,-8.34375 c -6.6375,-9.49496 -10.791,-13.67753 -11.8618,-11.94482 -0.4045,0.65438 -1.7554,6.54346 -3.0021,13.08686 -4.1762,21.91877 -5.7201,15.23744 -2.3661,-10.23934 0.7798,-5.92356 0.6754,-6.16527 -3.01,-6.9679 -2.0999,-0.45731 -5.062,-1.18819 -6.5824,-1.62417 -2.4341,-0.69793 -2.9776,0.0952 -4.5463,6.63457 -0.98,4.08499 -2.286,7.42726 -2.9022,7.42726 -1.5022,0 -1.4269,-10.28207 0.1147,-15.65749 1.2409,-4.32673 -0.5268,-7.64594 -2.431,-4.5648 -0.901,1.45783 -3.327,12.51409 -4.8112,21.92601 -0.4943,3.13482 -1.3394,4.70013 -2.2378,4.14489 -2.7339,-1.68962 -0.2167,-19.02728 3.9966,-27.528 3.8482,-7.76386 3.8521,-7.798 1.2908,-11.05426 -1.4131,-1.79649 -3.9412,-3.26635 -5.618,-3.26635 -1.6768,0 -6.3908,-1.68578 -10.4755,-3.74618 l -7.42687,-3.74619 -1.49502,6.07952 c -0.82227,3.34373 -2.68857,9.31573 -4.14734,13.2711 -1.9244,5.21785 -2.4275,8.87719 -1.83314,13.33333 0.93351,6.9989 5.97147,25.33022 7.16268,26.0624 0.43491,0.26732 0.79636,-6.3111 0.80324,-14.6187 0.007,-8.3076 0.41696,-15.50919 0.91129,-16.00352 2.59072,-2.59072 3.74287,1.90527 3.74287,14.60561 0,15.55003 2.66059,32.95413 6.78289,44.36978 2.9253,8.1008 14.3506,32.57882 15.742,33.72619 0.4446,0.36666 1.9633,2.76666 3.3747,5.33333 1.4114,2.56667 2.9373,4.96667 3.3908,5.33333 0.4535,0.36667 2.5749,3.47412 4.7141,6.90545 2.1392,3.43134 4.3633,5.94593 4.9425,5.58798 0.5791,-0.35794 1.053,-3.50703 1.053,-6.99798 0,-5.36167 -0.8477,-7.47141 -5.4595,-13.58797 -6.9381,-9.20188 -14.5083,-25.24081 -11.9133,-25.24081 0.6655,0 4.4355,5.21293 8.3777,11.5843 3.9421,6.37136 7.7719,11.78574 8.5105,12.03195 0.8941,0.29804 0.9332,-2.72805 0.1169,-9.05408 -0.837,-6.4866 -0.7774,-9.95044 0.1879,-10.91574 4.3986,-4.39854 6.1644,19.31628 3.7092,49.81421 -1.8347,22.78944 2.9595,37.77781 15.5459,48.60255 14.4217,12.40314 32.687,15.41241 52.0525,8.57581 z m -26.2389,-6.19456 c -1.6239,-1.6239 -0.9187,-4.44444 1.1111,-4.44444 1.1111,0 2,1.18519 2,2.66667 0,2.65632 -1.4207,3.46816 -3.1111,1.77777 z m 9.3334,-1.33333 c -1.8355,-1.83542 -0.7918,-4.44444 1.7777,-4.44444 1.7778,0 2.6667,0.88889 2.6667,2.66666 0,2.56959 -2.609,3.6132 -4.4444,1.77778 z m -27.5556,-2.55555 c 0,-1.16112 0.7125,-1.87362 1.5833,-1.58334 2.4723,0.8241 2.8824,3.69445 0.5278,3.69445 -1.1611,0 -2.1111,-0.95 -2.1111,-2.11111 z m 7.5918,1.25847 c -1.2443,-1.24433 0.2594,-3.14736 2.4869,-3.14736 1.0567,0 1.9213,0.9 1.9213,2 0,2.0083 -2.8146,2.7409 -4.4082,1.14736 z m -13.5349,-3.05523 c -0.9107,-1.47364 1.1926,-3.06487 2.4238,-1.83366 1.2677,1.26771 1.0314,3.07486 -0.402,3.07486 -0.6901,0 -1.5998,-0.55854 -2.0218,-1.2412 z m -6.6666,-5.33334 c -0.9861,-1.59547 1.5221,-3.1763 3.2981,-2.07869 1.4912,0.92158 0.5122,3.3199 -1.3551,3.3199 -0.6467,0 -1.5211,-0.55854 -1.943,-1.24121 z m 14.5379,-5.54164 c -1.374,-2.22322 1.7163,-4.77268 3.5556,-2.93333 1.5386,1.53857 0.5757,4.38284 -1.4838,4.38284 -0.6468,0 -1.5791,-0.65228 -2.0718,-1.44951 z m 10.0718,0.11618 c -1.5751,-0.97344 -1.6407,-1.55934 -0.3222,-2.87781 1.2876,-1.28763 2.0111,-1.29997 3.2555,-0.0555 1.0204,1.02032 1.1371,2.06295 0.3222,2.87781 -0.784,0.78401 -2.0421,0.80547 -3.2555,0.0555 z m 7.3468,0.0217 c -0.9834,-1.59117 0.2647,-4.02175 2.0652,-4.02175 1.6224,0 1.633,3.60883 0.013,4.60973 -0.6826,0.4219 -1.618,0.15731 -2.0787,-0.58798 z m 8.245,-0.87439 c -1.2443,-1.24432 0.2594,-3.14736 2.4869,-3.14736 1.0567,0 1.9213,0.9 1.9213,2 0,2.00831 -2.8146,2.7409 -4.4082,1.14736 z m -36.3303,-1.9302 c -1.374,-2.22323 1.7163,-4.77268 3.5557,-2.93334 1.5385,1.53857 0.5756,4.38285 -1.4839,4.38285 -0.6467,0 -1.579,-0.65228 -2.0718,-1.44951 z m -6.6666,-1.33334 c -1.1442,-1.8513 1.3919,-4.46138 3.2307,-3.32494 1.5313,0.94637 0.5508,4.77445 -1.2229,4.77445 -0.6116,0 -1.5151,-0.65228 -2.0078,-1.44951 z m 51.4051,-1.88377 c 0,-1.1 0.6,-2 1.3333,-2 0.7334,0 1.3334,0.9 1.3334,2 0,1.1 -0.6,2 -1.3334,2 -0.7333,0 -1.3333,-0.9 -1.3333,-2 z m -56.4082,-2.85264 c -1.0652,-1.06524 0.1389,-3.14736 1.8202,-3.14736 0.6901,0 1.2547,0.9 1.2547,2 0,2.06188 -1.5733,2.64894 -3.0749,1.14736 z m 34.3534,-4.5694 c -1.2271,-1.98553 0.1956,-3.06506 2.7485,-2.08543 1.1781,0.45208 1.7686,1.42621 1.3121,2.16472 -1.0807,1.74872 -2.9534,1.71215 -4.0606,-0.0793 z m 9.1816,-0.63546 c -0.4343,-1.13163 -0.4554,-2.39171 -0.047,-2.80019 1.1676,-1.16761 3.5867,0.81287 3.5867,2.93638 0,2.55847 -2.5434,2.46062 -3.5399,-0.13619 z m 10.42,0.40427 c -2.4064,-2.40633 -1.824,-5.01344 1.1199,-5.01344 1.7507,0 2.6666,0.88889 2.6666,2.58798 0,3.28384 -1.7848,4.42714 -3.7865,2.42546 z m -28.2135,-1.6801 c 0,-1.22223 0.645,-2.00723 1.4334,-1.74445 0.7883,0.26278 1.4333,1.04778 1.4333,1.74445 0,0.69666 -0.645,1.48166 -1.4333,1.74444 -0.7884,0.26278 -1.4334,-0.52222 -1.4334,-1.74444 z m -10.4111,-2.1 c 0.2628,-0.78834 1.0478,-1.43334 1.7445,-1.43334 0.6966,0 1.4816,0.645 1.7444,1.43334 0.2628,0.78833 -0.5222,1.43333 -1.7444,1.43333 -1.2223,0 -2.0073,-0.645 -1.7445,-1.43333 z m -9.5889,-2.67778 c 0,-3.24939 3.1157,-2.79009 3.7645,0.55493 0.2551,1.31569 -0.425,2.22285 -1.6667,2.22285 -1.2368,0 -2.0978,-1.14 -2.0978,-2.77778 z m -5.7777,-3.44445 c -1.6904,-1.69038 -0.8786,-3.11111 1.7777,-3.11111 1.4815,0 2.6667,0.88889 2.6667,2 0,2.02988 -2.8205,2.73502 -4.4444,1.11111 z m 33.3695,-2.63041 c -1.0652,-1.06525 0.139,-3.14736 1.8203,-3.14736 0.69,0 1.2546,0.9 1.2546,2 0,2.06188 -1.5733,2.64893 -3.0749,1.14736 z m -9.5918,-1.81403 c -0.5322,-0.86113 -0.3676,-2.16569 0.3657,-2.89902 0.8889,-0.88889 1.6559,-0.81144 2.301,0.23235 0.5322,0.86113 0.3677,2.16569 -0.3657,2.89902 -0.8889,0.88889 -1.6559,0.81144 -2.301,-0.23235 z m -8.6666,-2.55556 c 0,-1.63778 0.8609,-2.77777 2.0977,-2.77777 1.2417,0 1.9219,0.90716 1.6667,2.22284 -0.6487,3.34503 -3.7644,3.80433 -3.7644,0.55493 z m -9.0778,-2.87777 c 0.2628,-0.78834 1.0478,-1.43334 1.7444,-1.43334 0.6967,0 1.4817,0.645 1.7445,1.43334 0.2628,0.78833 -0.5222,1.43333 -1.7445,1.43333 -1.2222,0 -2.0072,-0.645 -1.7444,-1.43333 z m -6.9222,-7.34445 c 0,-2.35457 2.8703,-1.94452 3.6944,0.52778 0.2903,0.87083 -0.4222,1.58333 -1.5833,1.58333 -1.1611,0 -2.1111,-0.95 -2.1111,-2.11111 z m 40,-104.40363 c 0,-1.60318 8.1037,-5.33932 13.5602,-6.2518 2.4419,-0.40836 5.7898,-1.01437 7.4398,-1.3467 2.0597,-0.41484 3,0.0306 3,1.42117 0,1.11397 -0.45,2.04287 -1,2.06423 -0.55,0.0213 -5.2,1.20388 -10.3334,2.62784 -10.5405,2.92389 -12.6666,3.17319 -12.6666,1.48526 z M 934.5792,633.1262 c 0.0112,-3.19978 1.24831,-10.89718 2.74907,-17.10534 2.39559,-9.90974 2.68041,-14.76428 2.33334,-39.7698 -0.21743,-15.66523 -0.77107,-28.06783 -1.23032,-27.56133 -0.93356,1.02964 -5.77381,16.07348 -7.16015,22.25425 -3.23397,14.41819 -3.1812,45.19847 0.11278,65.77494 1.14189,7.13306 3.16562,4.85761 3.19528,-3.59272 z m 24.00982,-1.18222 c 0.8315,-4.21667 5.02975,-18.76667 9.32945,-32.33334 18.10662,-57.13104 23.95133,-79.60379 23.99358,-92.25464 0.0237,-7.08247 -2.15936,-9.76604 -3.36228,-4.13322 -2.33138,10.91702 -8.75111,32.19474 -17.464,57.88317 -11.9705,35.29289 -14.91882,47.21844 -16.02972,64.83803 -0.97504,15.46451 1.00392,18.82534 3.53297,6 z m 16.20225,0 c 2.37588,-3.48334 4.8047,-6.53334 5.39739,-6.77778 0.59269,-0.24445 1.07762,-0.98759 1.07762,-1.65143 0,-1.10321 2.49168,-4.53811 6.0834,-8.38625 4.99182,-5.34819 21.36832,-31.42672 27.58622,-43.92924 l 3.8516,-7.74469 -2.9958,-5.58864 c -1.6477,-3.07375 -3.9149,-7.53864 -5.0384,-9.92198 -1.1234,-2.38333 -2.3676,-4.3299 -2.7648,-4.32571 -0.3972,0.004 -1.8249,4.60415 -3.1726,10.22215 -1.3477,5.61799 -4.267,14.16456 -6.48729,18.99238 -6.12049,13.30834 -10.15316,22.18859 -16.39867,36.11119 -10.69808,23.84835 -12.66366,28.32283 -12.66366,28.82779 0,1.57916 1.68576,-0.19899 5.52499,-5.82779 z m -24.61008,-29.33334 c -0.15439,-20.25829 0.15906,-23.57216 3.37359,-35.66666 4.81504,-18.11631 6.95864,-25.70557 11.67466,-41.33334 5.32439,-17.64377 8.43883,-30.04245 7.72557,-30.75572 -0.77727,-0.77726 -9.87273,12.56215 -11.42486,16.75572 -0.67856,1.83333 -1.67125,6.30976 -2.20597,9.94761 -0.53472,3.63785 -2.04192,9.63785 -3.34934,13.33333 -9.85457,27.85456 -12.04189,38.22257 -12.04189,57.07903 0,9.57037 0.79032,15.92354 2.87218,23.08845 1.5797,5.43671 3.02385,9.88492 3.20923,9.88492 0.18537,0 0.26045,-10.05 0.16683,-22.33334 z m 6.20955,-7.97045 c 0.44444,-2.76625 5.95675,-20.56814 12.24959,-39.55975 17.30252,-52.21855 20.1203,-66.47078 15.01993,-75.97013 -1.48399,-2.76392 -1.56278,-2.73546 -3.23073,1.167 -0.9403,2.2 -1.73671,6.32908 -1.76978,9.17574 -0.0541,4.65439 -7.1187,34.22229 -8.84348,37.01304 -1.12695,1.82344 -7.0354,21.88211 -11.334,38.47789 -4.20173,16.22184 -6.70618,37.07836 -4.27168,35.57376 0.75465,-0.4664 1.73571,-3.11129 2.18015,-5.87755 z m 174.20886,-3.51117 c 0,-2.59314 -1.314,-3.65115 -7.452,-6 -4.0986,-1.56844 -8.7091,-2.85171 -10.2457,-2.85171 -4.1543,0 -14.3023,5.28765 -14.3023,7.45227 0,2.56426 1.1265,2.33582 7.3333,-1.48705 2.9334,-1.80669 6.5912,-3.28797 8.1285,-3.29172 3.637,-0.009 10.1318,3.2641 13.1959,6.64992 3.074,3.39669 3.3423,3.35881 3.3423,-0.47171 z m -29.6381,-8.10389 c 6.7426,-4.41083 10.6518,-5.16127 17.6817,-3.39436 12.7916,3.21507 12.2566,3.19016 11.7476,0.547 -0.2979,-1.54679 -2.1011,-2.79389 -4.8539,-3.35688 -2.4089,-0.49268 -5.4525,-1.86654 -6.7636,-3.05302 -4.0003,-3.62025 -11.2439,-2.70722 -17.7367,2.23564 -3.1737,2.41608 -5.9621,5.71608 -6.1964,7.33333 -0.5372,3.70736 0.021,3.67893 6.1213,-0.31171 z M 931.54749,544.0456 c 2.19978,-2.80589 4.76758,-6.56383 5.70622,-8.35098 0.93864,-1.78714 2.21642,-3.88714 2.8395,-4.66666 4.75192,-5.94504 7.99231,-10.33017 11.88527,-16.08399 2.48081,-3.66666 5.62551,-7.86666 6.98822,-9.33333 14.32456,-15.41742 31.82056,-55.78616 33.62985,-77.59457 l 0.75265,-9.0721 -2.51473,7.50794 c -4.29672,12.82824 -14.6892,31.64512 -29.35932,53.15873 -26.18406,38.39869 -30.78076,45.60943 -36.16081,56.7246 -5.77612,11.93344 -9.3814,23.82501 -9.3814,30.94337 0,3.98478 0.59665,3.28153 5.80747,-6.84517 3.19411,-6.20741 7.6073,-13.58194 9.80708,-16.38784 z m 19.76298,-12.10163 c 1.71098,-6.05 2.61354,-11 2.00567,-11 -0.60786,0 -2.90664,2.85 -5.1084,6.33334 -3.56472,5.63963 -4.06278,7.72074 -4.54714,19 l -0.54394,12.66667 2.54146,-8 c 1.3978,-4.40001 3.94136,-12.95001 5.65235,-19.00001 z m -26.78188,-3.00059 c 5.48433,-11.01978 9.69649,-17.68929 21.81195,-34.53692 2.42418,-3.37103 5.97044,-8.52915 7.88059,-11.46249 1.91015,-2.93333 6.46883,-9.83333 10.13042,-15.33333 13.3562,-20.06213 26.24806,-48.00237 26.24806,-56.88688 0,-5.51242 -2.51707,-3.34362 -7.42095,6.39419 -6.00243,11.91924 -16.47881,28.20454 -28.89011,44.90902 -5.27848,7.10435 -9.94494,13.217 -10.36991,13.58367 -1.4615,1.26098 -15.66749,24.67146 -17.8001,29.33333 -4.09948,8.96143 -7.39886,20.1091 -8.29436,28.02428 -0.49629,4.38665 -0.53463,7.97572 -0.0852,7.97572 0.44943,0 3.50476,-5.40026 6.78961,-12.00059 z m -3.12405,-21.72654 c 1.31709,-4.92479 11.89838,-23.94165 18.79685,-33.78201 3.15235,-4.4967 8.98321,-12.8967 12.95746,-18.66667 3.97425,-5.76997 7.62259,-10.79085 8.10743,-11.15752 0.48483,-0.36667 4.03438,-5.36546 7.88789,-11.10843 7.02102,-10.4636 8.04927,-14.38223 2.44019,-9.29947 -1.64711,1.49256 -5.85845,4.35996 -9.35852,6.37202 -3.50008,2.01206 -7.03548,4.94324 -7.85644,6.51375 -1.97339,3.77509 -10.79877,17.33993 -11.83376,18.1888 -1.96536,1.61192 -11.939,17.37659 -15.64967,24.73637 -6.16998,12.23764 -11.39703,33.4083 -7.96616,32.26467 0.83842,-0.27947 1.95205,-2.10715 2.47473,-4.06151 z m -15.51258,-23.6062 c 1.94326,-4.76667 6.87422,-14.5399 10.95767,-21.71831 4.08346,-7.1784 7.06492,-13.41119 6.62546,-13.85065 -0.43945,-0.43946 -3.59326,-0.0167 -7.00845,0.93952 -5.71915,1.60127 -6.46612,2.31894 -9.4603,9.0893 -4.27832,9.67406 -6.71883,19.94049 -7.65611,32.20681 -0.85892,11.24081 -0.68754,11.06615 6.54173,-6.66667 z m 18.92449,-10 c 1.90812,-3.66667 7.69828,-12.80832 12.86701,-20.31479 5.16873,-7.50646 9.08348,-13.96233 8.69944,-14.34637 -0.38404,-0.38404 -3.77032,0.57844 -7.52506,2.13884 -7.26799,3.02044 -8.52646,4.63503 -16.34541,20.97078 -3.83074,8.00339 -7.17025,24.63379 -5.51474,27.46283 0.40058,0.68454 1.54308,-1.11546 2.53889,-4 0.99581,-2.88454 3.37175,-8.24462 5.27987,-11.91129 z m 142.59715,15.64625 c 1.8148,-1.20067 5.8527,-8.90073 5.8527,-11.16077 0,-0.90582 -1.3046,-3.03561 -2.8991,-4.73288 -2.1997,-2.34142 -4.371,-3.093 -9,-3.11522 -7.8771,-0.0378 -16.1183,-3.8348 -22.4193,-10.32923 -10.0977,-10.40784 -15.8295,-12.532 -14.3234,-5.30815 1.5886,7.6192 3.9778,9.87139 13.5739,12.79568 10.055,3.06412 17.399,9.03932 21.8617,17.7869 2.5451,4.98881 4.4031,6.01561 7.3535,4.06367 z m 21.186,-26.97958 c 0,-0.97778 -0.75,-2.02778 -1.6667,-2.33334 -0.9914,-0.33048 -1.6666,0.61482 -1.6666,2.33334 0,1.71852 0.6752,2.66381 1.6666,2.33333 0.9167,-0.30556 1.6667,-1.35556 1.6667,-2.33333 z m -22.8499,-5.42741 c 2.9362,-2.30965 3.2736,-3.20195 2.0645,-5.46103 l -1.4451,-2.7003 -2.6034,2.79437 c -1.4318,1.5369 -4.1261,2.79437 -5.9873,2.79437 -4.1129,0 -11.1788,-6.67732 -11.1788,-10.56411 0,-2.91513 -1.922,-3.71947 -3.3534,-1.40336 -1.5588,2.52215 0.9003,9.42736 4.7654,13.38129 4.7665,4.87606 12.38,5.37343 17.7381,1.15877 z m 31.315,-3.69999 c 1.9442,-2.08673 5.5294,-8.68673 7.9672,-14.66666 2.4377,-5.97994 4.9877,-10.87261 5.6666,-10.87261 1.7894,0 1.5184,2.99467 -0.7656,8.46101 -4.8609,11.63386 0.027,11.12431 5.2655,-0.54893 5.0644,-11.285 8.1581,-10.70565 4.0294,0.75459 -2.4783,6.87923 -2.4457,7.33333 0.5274,7.33333 1.7332,0 3.3425,-2.05413 5.3005,-6.76561 1.5761,-3.79248 3.412,-6.39459 4.1778,-5.92131 0.8991,0.55568 1.3661,-3.89146 1.3661,-13.00909 0,-13.45178 -0.098,-13.90565 -3.3693,-15.65658 -4.8084,-2.57336 -5.8776,-8.68677 -2.795,-15.98074 0.4991,-1.18116 -0.5759,-3.6377 -2.6257,-6.00001 -4.134,-4.76433 -8.8363,-13.74315 -12.7288,-24.30507 -3.5128,-9.53161 -4.6728,-11.02826 -8.5476,-11.02826 -1.6902,0 -6.8794,-1.98395 -11.5315,-4.40877 l -8.4583,-4.40878 -6.6386,2.98819 c -6.2626,2.81896 -20.1862,6.00139 -34.2403,7.8261 -6.0566,0.78635 -6.3946,1.07057 -10,8.40856 -2.4182,4.92163 -7.8198,11.68639 -15.3471,19.21994 -15.44104,15.45396 -16.99967,18.85321 -16.77423,36.5833 0.16641,13.08744 1.45845,18.35264 3.15963,12.87597 0.4131,-1.32981 2.6589,-6.58895 4.9906,-11.68697 4.5738,-10.00003 17.7414,-24.59059 29.4826,-32.66874 10.2491,-7.05159 9.7277,-3.8686 -0.8719,5.32238 -11.7101,10.15391 -22.8352,23.79365 -28.0033,34.33296 -4.3737,8.9194 -4.6041,11.70548 -1.1222,13.56895 3.6173,1.93594 3.7723,1.85153 4.7469,-2.5861 1.2225,-5.56594 10.0385,-20.03365 12.2076,-20.03365 0.9899,0 1.7998,0.23476 1.7998,0.52169 0,0.28694 -2.6426,5.83694 -5.8726,12.33334 -3.2299,6.4964 -5.4341,12.27743 -4.8982,12.84673 0.917,0.9742 10.0612,-1.59396 22.1042,-6.20801 2.9333,-1.12386 8.6987,-2.06971 12.812,-2.1019 l 7.4788,-0.0585 0.7505,-11 c 0.8313,-12.18393 4.4741,-24.68454 6.5798,-22.57889 0.8426,0.84257 0.5518,4.90954 -0.8279,11.58136 -1.1696,5.65552 -2.1266,13.18805 -2.1266,16.73896 0,5.75441 0.4847,6.8259 4.4592,9.85738 5.6779,4.33074 7.2727,4.28032 8.3966,-0.26548 0.4987,-2.01666 2.9101,-8.0192 5.3588,-13.33897 2.4486,-5.31978 4.4521,-11.50964 4.4521,-13.75525 0,-3.65932 -0.3769,-4.03915 -3.6332,-3.66103 -4.4355,0.51506 -9.0297,7.97044 -10.3542,16.80249 -1.0679,7.1216 -1.9367,9.61941 -3.3459,9.61941 -2.2475,0 -2.4622,-4.23347 -0.5894,-11.61836 3.4997,-13.8001 7.0457,-18.74909 14.2743,-19.92213 4.0853,-0.66295 5.0383,-0.27939 7.0915,2.85416 2.0836,3.1801 2.1725,4.36561 0.731,9.75512 -0.9025,3.3743 -3.7109,10.49715 -6.2408,15.82855 -2.53,5.3314 -4.6,11.52157 -4.6,13.75593 0,4.45228 6.3224,17.71691 7.9616,16.70381 0.5618,-0.34722 1.4264,-3.19461 1.9213,-6.32753 1.5174,-9.60483 3.7698,-15.69622 5.8042,-15.69622 1.2946,0 1.6339,0.76947 1.0289,2.33334 -1.4852,3.83902 -2.4399,9.66666 -1.5835,9.66666 0.4395,0 1.7993,-1.95 3.0218,-4.33333 3.1754,-6.19037 6.8468,-10.61629 7.6836,-9.26242 0.9129,1.4771 -4.9528,12.78339 -9.9112,19.10437 -2.0891,2.66308 -3.4272,5.21308 -2.9736,5.66667 1.7641,1.76408 4.7931,0.66435 8.1787,-2.96935 z m -36.0651,-4.4726 c 2.4895,-2.48952 1.906,-4.4992 -1.7961,-6.18598 -7.5612,-3.44513 -10.6968,-1.12877 -6.5283,4.82263 2.2836,3.26033 5.8443,3.84348 8.3244,1.36335 z m -150.39999,-9.94314 c 2.56667,-1.09375 12.76667,-4.70312 22.66667,-8.02081 24.30729,-8.14586 42.17077,-17.58042 52.88337,-27.9302 4.64748,-4.49009 8.44996,-8.85616 8.44996,-9.7024 0,-1.54617 -1.62491,-0.81983 -11.7416,5.24852 -9.29901,5.57788 -23.99309,12.85108 -33.59173,16.62707 -5.5,2.16363 -10.79286,4.69596 -11.76191,5.62741 -0.96904,0.93145 -2.46904,1.69483 -3.33333,1.69641 -4.85605,0.009 -35.91151,19.64986 -38.38902,24.27914 -0.98027,1.83164 0.22549,1.37766 4.40033,-1.65676 3.16283,-2.29885 7.85059,-5.07462 10.41726,-6.16838 z m 12.30344,3.68288 c 15.53338,-5.3337 31.1434,-12.3234 33.69656,-15.08831 0.94262,-1.0208 0.55191,-1.13372 -1.33333,-0.38536 -1.46667,0.5822 -8.96667,3.41052 -16.66667,6.28515 -26.47922,9.88547 -32.16171,12.20689 -34.41136,14.0578 -2.07544,1.70758 -2.04264,1.80151 0.41136,1.17775 1.46667,-0.3728 9.70321,-3.09396 18.30344,-6.04703 z m 207.63645,-1.13974 -0.06,-6.33334 -1.7543,4 c -1.1275,2.57088 -1.3274,4.83366 -0.5596,6.33334 1.8951,3.70136 2.4384,2.78582 2.374,-4 z m -235.02907,-4.58334 c -0.42564,-1.06364 -0.74158,-0.7477 -0.80556,0.80556 -0.0579,1.40555 0.25724,2.19305 0.70029,1.75 0.44306,-0.44306 0.49043,-1.59306 0.10527,-2.55556 z m 19.09467,-13.09409 c 4.17734,-8.18827 19.45466,-25.85079 29.65558,-34.28563 12.52522,-10.35674 25.54554,-18.6535 39.67226,-25.27982 9.94756,-4.66602 15.91565,-7.11474 31.02856,-12.73109 5.943,-2.20855 5.4549,-3.46898 -1.3519,-3.49106 -3.9704,-0.0129 -8.8372,1.1696 -13.01,3.1611 -3.66666,1.74992 -9.81559,4.40001 -13.66428,5.88908 -11.5099,4.4532 -24.10814,11.34515 -39.83563,21.79234 -17.91485,11.90018 -40.43315,38.87823 -45.11918,54.05506 -0.95477,3.09226 -0.94445,3.09097 4.59331,-0.57375 3.05262,-2.02013 6.6667,-5.86144 8.03128,-8.53623 z m 1.36356,-21.76861 c 15.78209,-19.65747 42.35357,-38.05565 75.96428,-52.59793 3.20443,-1.38645 3.14538,-1.44571 -1.52705,-1.53246 -10.20054,-0.18939 -37.33584,13.77153 -55.92387,28.77244 -14.56434,11.7537 -25.0892,24.99721 -32.69259,41.13732 -7.18672,15.25562 -6.69015,18.46775 0.75553,4.8873 3.75305,-6.84532 9.79371,-16.14532 13.4237,-20.66667 z m 13.87126,17.7249 c 4.81783,-2.22995 8.75969,-4.63515 8.75969,-5.34487 0,-1.82097 5.82737,-8.55922 15.75629,-18.21916 7.17252,-6.97822 27.33538,-20.66613 44.32352,-30.0898 6.86118,-3.80604 3.61288,-4.05821 -4.49616,-0.34905 -4.07703,1.86488 -7.78903,3.39068 -8.24889,3.39068 -1.85779,0 -19.05683,8.7342 -24.66809,12.52722 -7.30326,4.93674 -20.87301,16.1685 -25.09156,20.76841 -8.34193,9.09606 -17.42938,21.37104 -15.82148,21.37104 0.39984,0 4.66884,-1.82451 9.48668,-4.05447 z m 34.06813,-15.93305 c 29.76752,-14.92201 46.15905,-27.42733 58.52965,-44.65305 5.7659,-8.02891 3.172,-8.64628 -4.6867,-1.11546 -6.8028,6.51902 -14.4741,11.77367 -27.81806,19.05474 -9.96905,5.43956 -28.22906,17.61852 -32.66666,21.78782 -7.39004,6.94324 -12.43296,12.91347 -10.90772,12.91347 0.88846,0 8.78573,-3.59438 17.54949,-7.98752 z m 174.39485,-4.75475 c 1.6547,-1.15897 2.9634,-3.48091 2.9634,-5.25773 0,-3.39082 -4.4093,-7.33333 -8.2015,-7.33333 -5.6997,0 -8.3744,7.68037 -4.2585,12.22834 2.701,2.98459 5.5955,3.09514 9.4966,0.36272 z M 923.99316,380.15383 c 5.81995,-5.93458 10.18729,-11.18458 9.7052,-11.66667 -2.29122,-2.29121 -6.01493,-0.27475 -11.30793,6.12348 -3.18495,3.85 -6.84082,8.16314 -8.12415,9.58475 -1.28334,1.42161 -2.34668,3.22161 -2.36299,4 -0.0163,0.77839 -1.20296,2.91525 -2.63701,4.74858 -3.84169,4.91132 -3.15181,6.67711 0.78138,2 1.85008,-2.2 8.12555,-8.85556 13.9455,-14.79014 z m 206.60644,-0.37132 c 0,-1.37214 -2.1085,-3.92214 -4.6856,-5.66667 -4.893,-3.31223 -8.1794,-11.01278 -6.6954,-15.68846 0.4165,-1.31201 -0.6876,-6.23251 -2.4534,-10.93444 -7.4616,-19.86837 -8.0769,-49.99283 -1.5293,-74.87367 1.8804,-7.14526 3.063,-14.40931 2.628,-16.14235 -0.4656,-1.85501 0.2971,-5.56015 1.8545,-9.00862 10.3205,-22.85331 10.2729,-22.69661 7.5015,-24.72311 -2.3939,-1.75043 -2.9181,-1.1536 -8.1743,9.30676 -11.0685,22.02732 -15.1127,40.44208 -15.1127,68.81385 0,18.75263 2.423,33.8186 8.1784,50.85235 6.5038,19.24855 18.4883,37.44053 18.4883,28.06436 z m 11.5912,-9.71922 c 6.2011,-5.14642 4.5462,-14.15152 -3.2834,-17.86689 -8.6227,-4.09175 -17.3682,2.40603 -15.6396,11.62002 1.5091,8.04428 12.418,11.64554 18.923,6.24687 z m -196.9007,-8.24 c 2.55357,-1.71637 10.25384,-5.91637 17.11171,-9.33333 6.85788,-3.41696 11.95788,-6.2404 11.33334,-6.27431 -23.09188,-1.25378 -31.39674,-1.12589 -39.10083,0.6021 -4.78575,1.07342 -13.09004,2.37229 -18.45396,2.88636 -5.36393,0.51408 -9.26393,1.40058 -8.66667,1.96999 1.96549,1.87388 18.16115,9.66989 23.67805,11.39776 7.60549,2.38201 8.86253,2.27068 14.09836,-1.24857 z m 183.9658,-16.36746 c 0.013,-1.87555 -11.9248,-27.17853 -12.8228,-27.17853 -1.3713,0 2.9532,25.72994 4.9663,29.54884 0.9738,1.84735 1.7228,1.95813 4.507,0.66667 1.8365,-0.85186 3.3437,-2.2185 3.3495,-3.03698 z m -212.33277,-3.86141 c 7.69702,-2.57558 24.74121,-9.47558 37.87597,-15.33333 13.13476,-5.85775 24.22251,-10.65045 24.63944,-10.65045 0.41693,0 2.64874,-0.81568 4.95956,-1.81263 2.31083,-0.99694 5.85151,-2.48408 7.86818,-3.30475 2.01666,-0.82066 3.66666,-2.02701 3.66666,-2.68076 0,-1.65425 -11.77225,-4.78644 -16.60552,-4.41815 -3.80241,0.28973 -27.30535,11.966 -30.06114,14.93438 -1.21911,1.31315 -21.92593,13.91565 -26.66667,16.22976 -5.80244,2.83235 -20.54718,7.71881 -23.29127,7.71881 -2.11809,0 -2.69848,1.56581 -1.15318,3.11112 1.57216,1.57215 4.50064,0.98015 18.76797,-3.794 z m 45.67648,-6.75838 c 8.43334,-2.54098 16.23333,-5.10874 17.33333,-5.70613 2.50493,-1.36039 22.29996,-5.96885 37.57276,-8.74728 6.3916,-1.16275 18.7782,-2.10533 27.6667,-2.10533 8.8516,0 16.0939,-0.35737 16.0939,-0.79417 0,-1.2903 -5.5743,-9.06542 -7.795,-10.87249 -2.9059,-2.36478 -22.1413,-2.11618 -34.548,0.44651 -15.6676,3.23624 -17.037,3.74563 -53.99035,20.08349 -6.05,2.67484 -14.72088,6.55462 -19.26862,8.62173 -4.54774,2.06712 -10.39774,4.648 -13,5.7353 -12.48691,5.21736 -1.02385,2.66644 29.93528,-6.66163 z m 82.08479,6.80655 c 15.6763,-2.11577 23.0924,-3.88303 28.9534,-6.89969 l 3.7048,-1.90687 -3.7177,-3.12819 c -2.0447,-1.72051 -6.1118,-3.79288 -9.0381,-4.60526 -7.7251,-2.14463 -33.9517,-1.82291 -47.2166,0.5792 -14.5933,2.64267 -33.32524,7.04486 -36.77059,8.64147 -1.46667,0.67967 -6.86666,2.37035 -12,3.75706 l -9.33333,2.5213 11.33333,0.85244 c 6.23333,0.46884 13.73333,1.04501 16.66667,1.28038 15.11532,1.21282 44.47932,0.65444 57.41812,-1.09184 z m 44.8894,-9.49227 c -3.515,-3.59683 -8.1721,-8.81959 -10.3492,-11.60615 -5.5175,-7.06207 -15.1234,-22.59301 -15.2153,-24.6002 -0.042,-0.91667 -0.6764,-1.66667 -1.4097,-1.66667 -0.7333,0 -1.3333,-0.59168 -1.3333,-1.31485 0,-1.50756 -12.1011,-22.06333 -17.6718,-30.01848 -2.0541,-2.93333 -6.2418,-8.93333 -9.3061,-13.33333 -5.5498,-7.96898 -10.8675,-14 -12.3441,-14 -1.3884,0 29.7789,59.99262 36.1321,69.54918 7.8026,11.7368 20.9423,24.93305 30.0778,30.20743 3.882,2.24126 7.2275,3.90576 7.4343,3.69889 0.2069,-0.20688 -2.4997,-3.31899 -6.0147,-6.91582 z m 51.3945,-3.59206 c 3.0972,-6.07881 5.6506,-11.92881 5.6741,-13 0.052,-2.37711 -11.0265,-25.21839 -12.2494,-25.25489 -1.8129,-0.0541 -13.1152,20.98584 -13.1357,24.45287 -0.016,2.70465 11.2977,24.80533 12.711,24.83026 0.7528,0.0133 3.9028,-4.94943 7,-11.02824 z m -8.1622,3.48107 c -1.6841,-1.68408 -7.5398,-14.91598 -7.5398,-17.03733 0,-2.34765 6.3445,-15.03492 8.0437,-16.08505 1.4438,-0.89235 5.6411,5.30976 8.4294,12.45572 l 2.2483,5.76203 -4.2132,7.90463 c -4.142,7.77133 -5.1672,8.80118 -6.9684,7 z m -30.2555,2.57131 c -0.1824,-8.68462 -3.8112,-20.33187 -8.0265,-25.76265 -14.7528,-19.00663 -51.5387,-57.87293 -49.7567,-52.57069 0.4929,1.46667 1.9352,3.86667 3.2051,5.33334 2.7272,3.14984 12.213,18.85852 19.3234,32 7.5561,13.96515 17.7734,28.39746 25.6956,36.29593 7.4611,7.43878 9.639,8.51057 9.5591,4.70407 z M 936.08647,321.2773 c 1.74889,-1.28333 5.27981,-3.48814 7.84648,-4.89958 2.56666,-1.41144 4.96666,-2.95865 5.33333,-3.43825 0.36667,-0.4796 3.87893,-2.60403 7.80503,-4.72096 3.9261,-2.11693 6.58675,-4.03284 5.91255,-4.25757 -0.6742,-0.22473 -8.68646,2.01008 -17.80503,4.96626 -9.11857,2.95617 -21.83977,6.07874 -28.26934,6.93903 -6.42956,0.8603 -11.22956,1.95813 -10.66666,2.43963 1.40693,1.20348 17.21798,4.50834 24.5103,5.1232 1.18444,0.0999 3.58444,-0.86842 5.33334,-2.15176 z m 2.32623,-16.62724 c 9.06386,-2.98233 19.86386,-5.7903 24,-6.23992 l 7.52025,-0.8175 -7.75519,-4.47283 c -7.45945,-4.30227 -7.98191,-4.40936 -13.70101,-2.80811 -3.27021,0.9156 -6.26579,2.18243 -6.65684,2.81517 -0.39106,0.63274 -1.64491,1.15043 -2.78634,1.15043 -2.02443,0 -16.43971,9.18429 -23.10063,14.71792 l -3.33333,2.7692 4.66667,-0.84597 c 2.56666,-0.46528 12.08255,-3.28606 21.14642,-6.26839 z m 182.2336,-0.0394 c 1.7783,-3.85 5.0758,-10.3 7.3277,-14.33334 4.0781,-7.30415 4.0919,-7.39873 3.4793,-23.76957 -0.3383,-9.03993 -0.9033,-16.72447 -1.2556,-17.07677 -0.88,-0.87997 -5.4753,5.9696 -7.2767,10.84634 -3.8807,10.50559 -9.01,51.33334 -6.4491,51.33334 0.5176,0 2.3961,-3.15 4.1744,-7 z m -20.7134,-4.7651 c 0,-5.1502 -3.19,-12.25682 -8.3259,-18.5483 -5.1722,-6.33598 -20.0196,-20.84553 -27.6741,-27.04445 -4.0333,-3.26635 -7.6333,-6.28186 -8,-6.70111 -0.3666,-0.41926 -1.9223,-1.6275 -3.457,-2.685 -5.8474,-4.02915 -16.2321,-12.93262 -25.4138,-21.78882 -8.4095,-8.11148 -17.9022,-14.3922 -17.738,-11.73619 0.212,3.4305 7.4855,12.70348 14.7237,18.77127 18.6934,15.67069 24.9073,21.25945 35.021,31.4977 11.7018,11.84594 32.4051,35.35826 36.1018,41.00016 3.0134,4.59907 4.7623,3.58356 4.7623,-2.76526 z m -80.8759,2.54218 c 4.2849,-0.68607 8.127,-1.5837 8.538,-1.99474 1.7243,-1.72422 -12.7228,-6.08389 -43.9411,-13.2601 -19.83439,-4.55936 -43.56415,-16.7181 -53.42204,-27.37257 -2.73107,-2.95176 -4.96558,-5.98155 -4.96558,-6.73285 0,-0.75131 -1.65,-1.76018 -3.66667,-2.24194 -2.01667,-0.48175 -4.39649,-1.44991 -5.28851,-2.15146 -0.89201,-0.70154 -2.255,-1.06448 -3.02887,-0.80652 -1.49808,0.49936 10.32287,13.17384 16.7879,18.00008 2.12455,1.58601 6.71801,5.03601 10.20769,7.66667 3.48968,2.63066 6.93968,4.78301 7.66666,4.78301 0.72699,0 1.3218,0.45354 1.3218,1.00785 0,0.55432 1.81334,1.81052 4.02964,2.79155 2.2163,0.98103 4.78794,2.542 5.71477,3.46882 2.23658,2.23659 25.00932,13.32738 34.25559,16.68318 7.44532,2.70216 9.81612,2.71678 25.79072,0.15902 z m 30.6143,-0.95991 c 0.4672,-0.46722 -0.3328,-2.50985 -1.7778,-4.53916 -1.445,-2.02932 -2.6272,-4.26523 -2.6272,-4.96869 0,-4.91141 -17.7212,-14.81257 -33.9325,-18.95872 -10.6988,-2.73629 -31.19502,-5.33714 -42.3483,-5.37376 -6.12828,-0.0201 -16.13849,-1.73138 -27.71922,-4.73866 -2.72362,-0.70726 -2.42136,-0.22196 1.65246,2.65319 11.98812,8.46077 31.29994,15.40654 61.68086,22.18442 12.6447,2.821 30,9.79965 30,12.06317 0,0.57655 2.85,1.27299 6.3333,1.54765 3.4834,0.27467 6.6834,0.60754 7.1111,0.73972 0.4278,0.13218 1.1601,-0.14194 1.6273,-0.60916 z m 51.595,-23.98352 c 0,-6.31076 -3.0605,-10.00583 -21.7603,-26.27196 -5.7349,-4.98849 -14.4349,-11.65058 -19.3334,-14.80464 -10.7364,-6.91303 -25.4571,-14.65069 -26.2893,-13.8185 -0.331,0.33096 4.262,4.45519 10.2066,9.16493 28.2785,22.40414 32.9146,26.35364 43.3423,36.92317 6.1421,6.22558 11.1674,11.87682 11.1674,12.55831 0,0.6815 0.6,0.86826 1.3333,0.41504 0.7334,-0.45323 1.3334,-2.32808 1.3334,-4.16635 z m -68.6021,-9.15067 c -4.1591,-9.0928 -7.8065,-10.97977 -24.5595,-12.70582 -13.94265,-1.43649 -74.83842,-2.39117 -74.83842,-1.17325 0,0.47724 3.15,2.24319 7,3.92434 5.86465,2.56088 11.26037,3.33572 33.26736,4.77726 25.15569,1.6478 36.77316,3.55996 48.39926,7.96621 9.845,3.73117 12.6661,5.17143 12.772,6.52042 0.058,0.73766 0.3942,0.63218 0.7474,-0.23438 0.3532,-0.86657 -0.9015,-4.95022 -2.7881,-9.07478 z m 72.5274,-10.24884 c 0.8195,-3.82122 0.9638,-7.24159 0.3235,-7.66667 -28.1595,-18.69349 -107.42661,-64.06591 -111.96945,-64.09122 -0.99327,-0.006 -0.2825,1.54041 1.68138,3.65708 1.87111,2.01666 3.73582,4.71666 4.14381,6 0.40799,1.28333 1.30136,2.33333 1.98526,2.33333 0.6839,0 1.2435,0.88363 1.2435,1.96362 0,1.90554 14.4433,9.42879 33.3333,17.36273 4.7667,2.00203 8.9667,4.03483 9.3334,4.51733 0.3666,0.4825 2.4438,1.66011 4.6158,2.61693 11.3656,5.00668 28.886,17.97147 43.9733,32.53939 4.367,4.21667 8.3712,7.66667 8.8983,7.66667 0.527,0 1.6241,-3.10464 2.4379,-6.89919 z m -83.5118,-11.7675 c -1.9023,-3.66666 -4.1236,-6.70905 -4.9362,-6.76085 -8.3228,-0.53059 -24.51045,0.60162 -31.47732,2.20162 -26.99998,6.20075 -27.52989,7.02052 -4.66667,7.21934 11,0.0957 24.49999,0.96072 29.99999,1.92237 15.789,2.76064 15.0488,3.06679 11.0802,-4.58248 z m 88.6593,-4.95334 c 1.4241,-4.64011 1.1718,-5.58864 -3.9893,-15 -6.6183,-12.06863 -16.5493,-26.68477 -24.3028,-35.76832 -3.1234,-3.65909 -6.9279,-8.36752 -8.4545,-10.46318 -1.5265,-2.09565 -3.0631,-3.51138 -3.4146,-3.14605 -0.3514,0.36532 3.2346,6.96422 7.969,14.66422 8.4119,13.68111 20.6368,36.94524 22.5017,42.82099 4.0273,12.68908 7.2155,14.95663 9.6905,6.89234 z m 25.4725,0.24817 c 1.401,0.44464 3.2748,1.68521 4.1642,2.75681 3.7366,4.50238 3.546,1.33884 -0.4415,-7.32666 -4.2041,-9.13611 -5.7255,-10.43373 -7.7918,-6.64562 -2.3301,4.27157 -6.4762,13.82905 -6.4762,14.92854 0,0.64553 1.7996,-0.10773 3.9991,-1.67391 2.4217,-1.72445 5.0037,-2.52874 6.5462,-2.03916 z m -39.8787,-3.85095 c 0,-3.07071 -17.4922,-37.6188 -19.971,-39.44388 -0.498,-0.36667 -2.6052,-3.81967 -4.6828,-7.67335 -4.4339,-8.22471 -6.0225,-8.25346 -2.6874,-0.0486 5.8133,14.30135 10.0176,27.15378 10.7918,32.99032 0.7856,5.92207 1.3099,6.63222 7.6962,10.42431 6.6774,3.96493 8.8532,4.88684 8.8532,3.75123 z m 22.5844,-13.93483 c 1.748,-3.732 2.6897,-7.59516 2.2157,-9.08879 -0.8843,-2.78611 -20.3417,-22.15267 -33.4667,-33.31053 -4.4,-3.74052 -10.4,-9.01758 -13.3334,-11.72681 -8.6104,-7.95255 -11.2515,-8.31507 -3.9242,-0.53862 6.1937,6.5733 12.37,13.66421 18.2297,20.92936 4.6497,5.76487 20.8651,30.46124 23.159,35.2716 1.2995,2.72511 2.7491,4.95474 3.2212,4.95474 0.4722,0 2.2266,-2.92093 3.8987,-6.49095 z m -44.5912,-1.17571 c -0.5273,-1.28334 -1.7105,-5.08186 -2.6291,-8.44117 -3.2704,-11.95852 -13.9812,-39.05283 -15.0254,-38.00862 -0.4703,0.47031 3.6201,29.21528 5.7149,40.16077 0.2854,1.49105 2.79,4.02726 5.566,5.63604 6.1395,3.55814 7.6301,3.71085 6.3736,0.65298 z m 66.7606,-6.27915 c 4.1099,-6.27244 0.016,-14.05419 -7.3934,-14.05419 -4.3287,0 -9.7231,6.06407 -8.6188,9.68887 2.4567,8.06405 11.9016,10.63895 16.0122,4.36532 z m -3.3328,-27.43443 c 1.5951,-0.85368 2.579,-2.78662 2.579,-5.06667 0,-4.28289 -2.1531,-6.88642 -5.6952,-6.88642 -5.7361,0 -8.5142,8.0288 -3.9714,11.47727 2.8602,2.17119 3.8017,2.2344 7.0876,0.47582 z m 1.7611,-34.18742 3.6554,-8.90099 -2.8007,-3.43234 c -1.5404,-1.88779 -3.1552,-4.50688 -3.5885,-5.8202 -1.0948,-3.3184 -2.8227,-2.38385 -7.4804,4.04593 -3.7805,5.21893 -3.9094,5.79651 -2.218,9.94139 2.4902,6.10246 6.6539,13.0672 7.8119,13.0672 0.5307,0 2.6099,-4.00544 4.6203,-8.90099 z m -13.9914,-14.76567 c 7.2369,-11.02796 10.8093,-14.70185 10.8093,-11.11633 0,0.66935 3.9,6.16708 8.6667,12.21718 4.7667,6.0501 8.6551,10.45245 8.6409,9.783 -0.014,-0.66945 -2.7123,-10.81719 -5.996,-22.55052 -3.2836,-11.73333 -7.5704,-27.18333 -9.5261,-34.333329 -3.2122,-11.74332 -5.7855,-16.55873 -5.7855,-10.82647 0,2.24546 -11.0372,48.730259 -13.2553,55.826469 -1.6745,5.35735 -3.2808,14.8343 -2.373,14 0.3991,-0.36667 4.3676,-6.21667 8.819,-13 z"
       id="path1" />
  </g>
</svg>
