<?xml version="1.0" encoding="UTF-8" standalone="no"?>
<!-- Created with Inkscape (http://www.inkscape.org/) -->

<svg
   version="1.1"
   id="svg1"
   width="307.52188"
   height="456.76221"
   viewBox="0 0 307.52188 456.76221"
   xmlns="http://www.w3.org/2000/svg"
   xmlns:svg="http://www.w3.org/2000/svg">
  <defs
     id="defs1" />
  <g
     id="g1"
     transform="translate(-492.74173,16.0982)">
    <path
       style="fill:#000000"
       d="m 661.3397,440.42082 c -1.54977,-1.54977 -1.11052,-6.13399 0.80622,-8.41397 1.39739,-1.66223 1.54963,-5.89106 0.72376,-20.10499 -0.57521,-9.9 -1.41892,-20.62082 -1.87491,-23.82404 l -0.82906,-5.82404 -4.8947,0.87307 c -18.67789,3.33158 -20.92783,3.51257 -27.13018,2.1824 -8.02889,-1.72189 -16.4522,-5.16416 -15.34534,-6.27103 0.45575,-0.45575 2.61166,-0.0901 4.79092,0.81259 2.17925,0.90268 4.58149,1.25853 5.33832,0.79079 0.75682,-0.46774 6.34304,-0.15873 12.41381,0.68671 16.89797,2.35325 19.98204,1.09825 32.24865,-13.12299 7.94145,-9.20688 11.06344,-14.14255 14.95117,-23.6368 6.62695,-16.18372 6.83234,-23.65679 0.83794,-30.48792 -2.38333,-2.71601 -4.33333,-6.11733 -4.33333,-7.55847 0,-3.6465 -3.26462,-3.27454 -5.84665,0.66615 -2.14796,3.27819 -2.87836,11.93947 -1.34403,15.93786 0.47992,1.25067 2.37926,2.10905 4.66666,2.10905 2.12155,0 3.85735,0.64692 3.85735,1.4376 0,0.84555 -2.00731,1.25739 -4.87405,1 -6.07946,-0.54583 -7.49816,2.26749 -2.23432,4.43072 2.95087,1.21268 3.26544,1.6725 1.44088,2.10612 -1.73489,0.41232 -2.12568,1.3854 -1.52212,3.79015 1.25162,4.98687 -1.56047,3.84722 -4.35415,-1.76459 -2.20848,-4.4363 -3.04857,-5 -7.45151,-5 -4.61927,0 -5.0791,0.36877 -6.65023,5.33333 -1.45326,4.59213 -2.27914,5.39059 -5.94255,5.74528 -2.86986,0.27787 -5.11211,-0.44544 -6.88889,-2.22222 -3.49456,-3.49456 -4.17199,-2.48781 -4.28344,6.36583 -0.0679,5.39103 -0.40979,6.70889 -1.23962,4.77778 -0.63025,-1.46667 -1.18808,-4.36434 -1.23962,-6.43928 -0.0861,-3.46676 -0.41095,-3.70293 -4.00685,-2.91313 -4.28173,0.94042 -9.4202,-2.75026 -9.4202,-6.76602 0,-1.75178 -1.32692,-2.02631 -7.66666,-1.58617 -4.21667,0.29274 -8.71667,1.01023 -10,1.59441 -1.35485,0.61674 -2.33334,0.51587 -2.33334,-0.24055 0,-0.71648 2.75738,-2.07472 6.1275,-3.01829 5.2288,-1.46397 5.76658,-1.91268 3.66667,-3.05933 -1.35346,-0.73906 -2.8892,-1.99502 -3.41276,-2.79102 -0.52355,-0.79601 -4.24559,-1.44729 -8.27119,-1.44729 -6.62211,0 -7.26449,0.254 -6.74409,2.66667 4.58218,21.2438 8.86602,37.48903 10.57263,40.09366 1.65888,2.53176 3.2814,3.23967 7.42532,3.23967 5.11783,0 7.07161,1.69364 3.63592,3.15181 -0.91666,0.38905 6.19534,0.35397 15.80446,-0.078 12.6083,-0.56675 17.73842,-0.35284 18.43146,0.76852 0.70141,1.13492 -0.49773,1.32071 -4.44763,0.68909 -2.97438,-0.47562 -10.19938,-0.1194 -16.05555,0.7916 -12.12881,1.88678 -18.35942,1.13657 -22.84094,-2.75024 l -3.11774,-2.704 -1.14659,3.06559 c -3.30309,8.8313 -11.96623,45.3325 -12.24318,51.58523 -0.23429,5.28988 -0.99833,7.73123 -2.85215,9.11366 -1.39268,1.03854 -2.38214,2.44591 -2.1988,3.12748 0.18333,0.68157 -0.26667,1.23923 -1,1.23923 -0.73334,0 -1.32415,-2.25 -1.31292,-5 0.0135,-3.30906 0.40807,-4.38821 1.16667,-3.19099 1.6787,2.64934 2.37991,0.80499 5.54276,-14.57866 3.39,-16.48851 5.64634,-25.44821 9.42443,-37.42346 l 2.79518,-8.85978 -2.88722,-12.67393 -2.88723,-12.67393 -8.25417,-2.90673 c -4.53979,-1.5987 -9.28763,-3.45329 -10.55075,-4.1213 -2.40137,-1.27 -4.23995,1.52469 -23.308,35.42877 -22.50955,40.02327 -24.96139,45.12053 -25.01253,52.00001 -0.0464,6.24615 -0.27791,6.69299 -3.66972,7.08407 -2.93655,0.33859 -3.78213,-0.22792 -4.47788,-3 -0.47174,-1.87957 -0.36489,-5.06741 0.23745,-7.08408 1.04444,-3.4968 1.11703,-3.41959 1.56698,1.66667 0.53425,6.03912 2.23825,8.5887 4.33732,6.48963 1.72197,-1.72198 0.18425,-6.12123 -1.72679,-4.94014 -0.88472,0.54679 -1.13402,-0.16355 -0.67433,-1.9214 0.40112,-1.5339 -0.0951,-3.96591 -1.1027,-5.40448 -3.04948,-4.35374 -9.61212,-25.48429 -11.87315,-38.22945 -1.17029,-6.59679 -2.18919,-19.17164 -2.26422,-27.94412 -0.10497,-12.2722 -0.69317,-17.20856 -2.55094,-21.40836 -5.89074,-13.317 -6.99607,-26.1926 -7.20899,-83.97502 -0.16591,-45.02715 -0.61102,-57.13532 -2.52426,-68.66667 -4.61185,-27.7962 -3.95817,-71.08712 1.31308,-86.960641 2.49546,-7.5147 8.47239,-13.03936 14.10679,-13.03936 5.14683,0 11.04737,5.78735 13.02151,12.77174 1.67043,5.90985 4.81047,25.098721 6.13702,37.503431 l 0.88493,8.27516 4.20917,-0.80002 c 2.31505,-0.44001 4.36311,-0.91777 4.55126,-1.06169 0.18814,-0.14392 -0.88305,-22.10774 -2.38042,-48.808481 -1.49738,-26.70075 -2.36148,-51.277104 -1.92022,-54.614129 1.55911,-11.79092 10.80213,-22.5993494 19.32623,-22.5993494 10.29366,0 19.89368,9.1442954 22.53632,21.4664834 1.70504,7.950313 1.88138,42.422115 0.23035,45.028465 -0.70576,1.11412 -0.46399,3.1974 0.61893,5.33333 0.9774,1.92778 2.11504,4.62313 2.52811,5.98966 0.52907,1.75033 1.57661,2.26871 3.54458,1.75408 1.53646,-0.4018 4.30287,-0.1567 6.14758,0.54466 l 3.35401,1.27519 -0.8856,-27.02926 c -1.1528,-35.18422 0.46529,-61.0320934 4.28893,-68.5124604 2.86672,-5.6082926 9.26031,-9.8501486 14.84678,-9.8501486 4.04526,0 12.17407,3.618715 15.86723,7.0636376 8.77043,8.18092302 10.82518,19.5040654 10.86203,59.8576764 0.015,16.458005 0.56331,29.253135 1.27229,29.691315 2.60347,1.60902 5.8268,16.63961 6.73108,31.387381 0.5171,8.43333 1.03382,12.87931 1.14828,9.87995 0.11445,-2.99936 1.37008,-9.99673 2.7903,-15.54971 1.8865,-7.376171 2.96645,-18.659471 4.00842,-41.879951 0.78442,-17.480997 2.08332,-34.637976 2.88644,-38.126621 1.92308,-8.353658 6.08844,-11.65701 14.6989,-11.65701 12.43178,0 20.65771,11.534078 24.38369,34.189859 1.49438,9.086552 2.09027,30.874312 2.58392,94.476813 0.71393,91.98149 0.61217,90.83075 9.97727,112.83409 2.93635,6.89899 5.76261,14.23209 6.28056,16.29578 1.24591,4.96408 3.98386,5.8076 9.3939,2.89411 6.597,-3.55272 11.18464,-9.18914 25.21776,-30.98273 6.97956,-10.83935 15.05867,-21.95791 17.95356,-24.70791 4.61767,-4.38654 6.068,-5 11.82097,-5 5.82996,0 7.15866,0.58338 11.97554,5.25801 6.74127,6.54218 8.71114,12.84995 7.98076,25.55542 -0.79199,13.77715 -4.87609,22.9045 -26.7674,59.82117 -25.196,42.48956 -25.98572,43.63672 -38.23221,55.53644 -8.19865,7.96651 -11.79844,12.67214 -15.24326,19.92595 -2.48041,5.22305 -7.28155,13.70364 -10.66919,18.84575 -5.06659,7.69061 -7.56838,10.1003 -14.10152,13.58243 -8.2916,4.41938 -12.91226,9.0793 -14.23717,14.35814 -1.0215,4.07001 -2.89381,3.97412 -3.94192,-0.20187 l -0.8329,-3.31857 -5.16403,3.6519 c -3.10492,2.19574 -5.17538,4.74651 -5.1925,6.39706 -0.0346,3.33824 -3.06431,7.77455 -4.3984,6.44047 z m 18.60905,-21.54035 c 3.79818,-2.51041 7.17942,-5.25758 7.51387,-6.10483 1.38599,-3.51106 17.75535,-24.38268 25.8668,-32.98124 7.25924,-7.69518 9.78101,-11.69177 14.98447,-23.74792 9.80768,-22.72393 22.28858,-41.83551 40.31459,-61.73236 12.28501,-13.56001 14.22449,-17.66707 11.15029,-23.61192 -4.11946,-7.96616 -16.23384,-11.24516 -27.70102,-7.49784 -9.62653,3.14583 -18.14141,9.71819 -29.19286,22.53303 -5.13738,5.95712 -12.20976,14.13113 -15.7164,18.16446 -3.50663,4.03334 -7.5823,10.03334 -9.05704,13.33334 -1.47473,3.3 -3.96844,7.14299 -5.54157,8.53998 -1.57314,1.39699 -2.86024,3.20112 -2.86024,4.00917 0,1.96104 -8.33028,23.06853 -11.09685,28.11752 -1.20548,2.2 -5.54002,7.6 -9.63231,12 -6.85419,7.36957 -7.37346,8.36774 -6.58943,12.66666 0.4681,2.56667 1.35255,13.66667 1.96543,24.66667 0.61289,11 1.16807,20.21901 1.23375,20.48668 0.12061,0.49159 1.83685,-0.5652 14.35852,-8.8414 z m 0.42755,5.02139 c 0.78494,-1.46667 1.12716,-2.66667 0.76049,-2.66667 -0.36666,0 -1.30888,1.2 -2.09382,2.66667 -0.78494,1.46667 -1.12716,2.66667 -0.76049,2.66667 0.36667,0 1.30889,-1.2 2.09382,-2.66667 z M 531.0302,407.92714 c 2.16016,-4.27926 9.1252,-16.98555 15.47785,-28.23621 6.35266,-11.25066 14.21267,-25.25574 17.46668,-31.12241 3.25402,-5.86666 7.39581,-11.90535 9.20398,-13.4193 3.23076,-2.70505 3.24323,-2.79276 0.72201,-5.07443 -5.85356,-5.29741 -13.78739,-24.99389 -17.13019,-42.52737 -0.3867,-2.02826 -2.58359,-5.64573 -4.88199,-8.03881 -6.90105,-7.18535 -11.48207,-13.41513 -12.39715,-16.85907 -0.47529,-1.78878 -2.78888,-5.17703 -5.1413,-7.52945 -4.65986,-4.65986 -6.12364,-9.17009 -4.44705,-13.70236 3.01879,-8.16056 12.30341,-3.70129 28.54259,13.70861 l 12.46552,13.36418 3.39924,-3.19342 c 3.05471,-2.86974 3.39924,-4.20232 3.39924,-13.14734 0,-7.90978 -0.47917,-10.32118 -2.33333,-11.74225 -1.81857,-1.39379 -1.95678,-2.03736 -0.6265,-2.91717 1.3682,-0.90489 1.3037,-1.90187 -0.32512,-5.02533 -1.11757,-2.14307 -2.03565,-5.94649 -2.04017,-8.45205 -0.0138,-7.6501 -1.5499,-3.54382 -2.78103,7.4342 -0.773,6.8928 -2.07085,11.60745 -3.86236,14.03059 -1.48398,2.0072 -2.69815,4.97375 -2.69815,6.59233 0,5.20455 -1.81403,1.31788 -2.11186,-4.52476 -0.15822,-3.10391 -1.87937,-19.74347 -3.82478,-36.9768 -3.99337,-35.37507 -8.55353,-59.81338 -12.6649,-67.87233 -2.44563,-4.79383 -3.34623,-5.46101 -7.37161,-5.46101 -8.96958,0 -13.31384,8.25971 -14.84906,28.23236 -1.08717,14.14371 -0.22764,18.4592 3.48331,17.48876 1.49588,-0.39118 2.67223,-0.0434 2.67223,0.79004 0,0.81886 -0.9,1.48884 -2,1.48884 -1.66013,0 -1.99751,2.54904 -1.98533,15 0.008,8.25 0.38529,17.24206 0.83826,19.98234 0.72088,4.36102 1.19972,4.88793 3.83986,4.2253 4.27119,-1.072 5.52002,1.85732 1.4513,3.40425 -5.69338,2.16462 -7.37998,7.62455 -8.33122,26.97015 l -0.87284,17.7513 2.73095,-2.42019 c 1.633,-1.44718 3.06093,-1.88626 3.55173,-1.09213 0.45143,0.73043 0.18669,1.71995 -0.58832,2.19893 -2.50906,1.55069 -8.18049,11.51434 -10.66564,18.73755 -2.43272,7.07081 -4.45889,18.92741 -6.06204,35.47335 l -0.86209,8.89751 3.79962,0.43582 c 2.45226,0.28128 3.96867,1.32624 4.27634,2.94683 0.39409,2.07581 -0.0975,2.36688 -2.83644,1.67946 -2.66955,-0.67002 -3.46867,-0.25127 -4.11377,2.15566 -2.97551,11.10192 2.17265,48.20055 8.83321,63.65388 1.42234,3.3 3.12727,7.38611 3.78874,9.08023 1.61408,4.13389 3.20093,2.84443 7.86158,-6.38828 z m 165.16456,2.5393 c 5.40191,-3.08495 12.67883,-12.79945 19.69179,-26.28803 l 4.64975,-8.94322 -7.4812,8 c -4.11466,4.4 -10.64545,12.2 -14.51288,17.33333 -10.71294,14.21957 -10.83797,14.74675 -2.34746,9.89792 z m -61.46958,-27.48069 c -1.27478,-0.33372 -3.67478,-0.34583 -5.33333,-0.0269 -1.65855,0.31893 -0.61555,0.59197 2.31779,0.60677 2.93333,0.0148 4.29032,-0.24614 3.01554,-0.57986 z m 115.42673,-43.03317 c 23.31362,-38.49118 40.73974,-68.87876 43.95869,-76.65493 2.38226,-5.75493 4.15978,-12.86762 4.58715,-18.35534 0.6127,-7.86747 0.25507,-9.86434 -2.93405,-16.38267 -3.97758,-8.12987 -7.42373,-11.07148 -14.24637,-12.16059 -8.66918,-1.38388 -12.62299,2.97815 -37.59304,41.47441 -4.27087,6.58439 -6.58366,10.90233 -5.13955,9.59542 1.44412,-1.3069 5.69943,-3.54413 9.45625,-4.97161 22.7305,-8.63691 43.38645,6.32203 31.22371,22.61206 -1.96806,2.63589 -6.71955,8.09252 -10.55887,12.12586 -7.75887,8.15093 -20.68697,25.34475 -26.22257,34.87489 -5.08704,8.75789 -13.7927,26.49772 -14.9472,30.45844 -1.46915,5.04019 16.8747,-13.46741 22.41585,-22.61594 z M 626.0762,336.77897 c -0.81889,-4.28372 2.95585,-8.00024 6.30504,-6.20781 1.36753,0.73188 2.88956,1.33069 3.38229,1.33069 1.78019,0 -1.01453,-24.7446 -3.42031,-30.28359 -2.89338,-6.66163 -7.47554,-8.55203 -12.59639,-5.19672 -5.63504,3.69222 -6.29582,6.48069 -2.76651,11.67454 3.93747,5.7945 7.39598,17.24757 7.39598,24.49222 0,4.62566 0.74876,7.31356 2.03733,7.31356 0.14275,0 -0.009,-1.4053 -0.33743,-3.12289 z m 19.12831,0.12288 c -0.26862,-1.65 0.0563,-4.05 0.72194,-5.33333 1.39584,-2.69094 5.90744,-3.12683 6.90014,-0.66667 0.36989,0.91667 0.72808,0.46667 0.79599,-1 0.0679,-1.46666 0.48525,-4.01666 0.92744,-5.66666 0.64093,-2.39164 0.25378,-3 -1.90916,-3 -3.91015,0 -7.03531,-1.41957 -6.17821,-2.80638 0.40573,-0.65649 2.13419,-1.19362 3.84101,-1.19362 2.46828,0 3.23074,-0.86826 3.72607,-4.24311 0.78822,-5.37049 -0.87233,-12.88056 -3.40887,-15.4171 -1.65995,-1.65994 -2.72087,-1.69086 -7.09811,-0.20687 -2.83054,0.95963 -5.69094,2.19679 -6.35643,2.74925 -0.71893,0.59681 -0.52516,5.76221 0.47745,12.72781 0.92809,6.44784 1.97515,13.82335 2.32681,16.39002 0.59033,4.30872 3.6271,10.66667 5.09476,10.66667 0.34516,0 0.40779,-1.35 0.13917,-3.00001 z m 5.83846,-1 c 0,-4.18689 -2.19891,-5.43704 -3.51783,-2 -0.95368,2.48525 0.30147,6.00001 2.14265,6.00001 0.75635,0 1.37518,-1.8 1.37518,-4.00001 z m -18.22191,-2.09748 c -0.40153,-1.04638 -1.23046,-1.90252 -1.84205,-1.90252 -1.80246,0 -2.90151,2.63151 -2.03841,4.88069 0.63139,1.64539 1.20318,1.75219 2.70556,0.50533 1.04773,-0.86954 1.57644,-2.43712 1.1749,-3.4835 z m 3.13273,1.84748 c -0.42564,-1.06364 -0.74158,-0.7477 -0.80556,0.80556 -0.0579,1.40556 0.25724,2.19306 0.70029,1.75 0.44306,-0.44305 0.49043,-1.59306 0.10527,-2.55556 z m -43.71993,-2.75 c -1.85474,-6.23222 -1.86124,-19.92274 -0.0111,-23.37976 1.4495,-2.7084 1.05793,-3.28434 -4.7274,-6.95328 -3.46929,-2.20016 -6.79033,-4.00029 -7.38009,-4.00029 -1.86423,0 -1.1597,-7.28186 1.00331,-10.36999 2.56623,-3.6638 2.83563,-3.68101 -7.51239,0.47991 -12.26086,4.93007 -12.69994,5.52965 -10.67515,14.57738 1.81954,8.13054 8.00301,20.90051 12.39629,25.60055 3.17774,3.39962 12.65594,8.37622 15.95591,8.37777 1.90318,8.9e-4 2.04622,-0.65095 0.95063,-4.33229 z m 29.47577,-3.62482 c 0,-0.71031 -0.9,-0.94612 -2,-0.52401 -1.1,0.42211 -2,1.00328 -2,1.29149 0,0.2882 0.9,0.52401 2,0.52401 1.1,0 2,-0.58117 2,-1.29149 z m 43.07785,-0.37518 c 2.42969,-1.79641 5.57192,-20.8523 4.1679,-25.27597 -0.41733,-1.31488 -0.11835,-2.39069 0.66441,-2.39069 0.78275,0 1.42318,0.7 1.42318,1.55555 0,0.85556 0.34861,1.20695 0.77469,0.78086 1.39257,-1.39256 -2.10404,-6.26587 -5.9067,-8.23231 -2.97998,-1.541 -4.35705,-1.6057 -6.92517,-0.32536 -3.0179,1.50459 -3.20761,2.28722 -3.24085,13.37017 -0.0339,11.2978 0.8219,15.08569 2.4498,10.84343 2.0098,-5.23745 8.08321,0.21309 6.5919,5.91585 -0.63443,2.42606 -1.52153,2.89805 -4.59821,2.44649 -6.09434,-0.89446 -4.73249,1.50965 1.5997,2.82398 0.40984,0.0851 1.75955,-0.59533 2.99935,-1.512 z m -150.19098,-39 c 2.6694,-7.40414 3.70686,-14.03066 5.01916,-32.05883 0.90983,-12.49903 2.20317,-23.7061 2.8741,-24.90461 0.73355,-1.31037 0.74782,-10.05752 0.0358,-21.94116 -0.65124,-10.86914 -1.25124,-28.76207 -1.33333,-39.76207 -0.14538,-19.47912 -0.0493,-20.20356 3.68863,-27.8162 3.64357,-7.42046 3.79071,-8.39934 2.90607,-19.33334 -2.75689,-34.074731 -9.74045,-49.023261 -20.49223,-43.864241 -8.45538,4.05714 -12.25173,18.39712 -12.25173,46.278511 0,17.32816 0.0607,17.69707 2.79526,16.98198 3.98255,-1.04146 6.53807,0.27777 6.53807,3.37515 0,2.26619 -0.70563,2.58751 -4.66667,2.12508 -4.60218,-0.53728 -4.66666,-0.47556 -4.66666,4.46633 0,4.58151 2.04952,21.92468 3.37078,28.52374 0.44613,2.22818 1.36114,2.64323 4.92194,2.23258 2.40567,-0.27743 6.17394,0.22512 8.37394,1.11676 l 4,1.62118 -3.33333,1.01333 c -1.83333,0.55733 -5.43333,1.07278 -8,1.14544 l -4.66667,0.1321 0.32766,50.33414 c 0.33789,51.90778 1.57986,71.30161 5.33812,83.35711 l 2.17506,6.97702 1.84055,-15.33333 c 1.03407,-8.61463 3.31499,-19.42298 5.20549,-24.66667 z m 105.51704,33.85309 c 0.48946,-4.21738 -5.68401,-15.19675 -10.61474,-18.87806 -2.80214,-2.0921 -4.28257,-2.3678 -7.31766,-1.36274 -4.86925,1.61244 -9.80484,8.87594 -9.80484,14.42938 0,4.79333 2.04973,5.91906 8.54178,4.69123 3.48193,-0.65853 3.65253,-0.91733 1.68135,-2.55064 -1.20657,-0.99976 -1.88414,-2.31873 -1.5057,-2.93106 0.37844,-0.61233 3.17574,1.58548 6.21623,4.88402 4.23452,4.59391 6.33216,5.90383 8.96392,5.59773 2.58239,-0.30036 3.53608,-1.26403 3.83966,-3.87986 z m -6.80226,1.97079 c -0.51424,-0.51424 -0.93498,-2.37672 -0.93498,-4.13883 0,-2.55986 0.60301,-3.11821 3,-2.77778 2.19246,0.31138 3,1.31842 3,3.74114 0,3.21817 -3.08697,5.15352 -5.06502,3.17547 z m 4.39835,-3.07852 c 0,-1.57315 -2.60047,-3.25599 -3.55555,-2.30091 -0.95508,0.95508 0.72776,3.55555 2.30091,3.55555 0.69005,0 1.25464,-0.56459 1.25464,-1.25464 z m 45.33334,-0.15738 c 0,-2.78173 -1.96153,-3.47426 -3.3728,-1.19079 -1.20946,1.95694 0.40184,5.61492 2.03005,4.60863 0.73851,-0.45642 1.34275,-1.99445 1.34275,-3.41784 z m 30.81264,-1.58798 2.99422,-4.33333 -3.5701,3.23242 c -1.96355,1.77783 -3.57009,3.72783 -3.57009,4.33333 0,2.01719 1.12432,1.1406 4.14597,-3.23242 z m 1.14882,-6 c 3.82613,-4.60357 4.08489,-5.52857 3.26365,-11.66666 -0.49057,-3.66667 -2.62409,-13.26667 -4.74116,-21.33334 -5.1358,-19.56901 -5.88071,-33.94051 -3.8876,-75.00361 1.82905,-37.68313 0.79638,-60.27815 -3.85047,-84.24956 -3.84554,-19.8377 -7.37334,-26.737001 -15.41289,-30.142951 -6.9265,-2.9344 -10.86622,-1.16726 -14.5959,6.54691 -6.62518,13.702981 -8.48108,40.110281 -5.53232,78.718381 2.30773,30.21504 2.79314,58.89606 1.01537,59.99477 -0.61225,0.3784 -0.59106,4.585 0.0471,9.34802 0.85788,6.40302 2.3515,10.43016 5.73094,15.45199 4.87411,7.24291 6.5457,12.98421 6.62139,22.74215 0.0408,5.25468 0.58597,6.42384 4.04711,8.67882 2.2,1.43333 4.59227,3.95058 5.31617,5.5939 0.72389,1.64332 2.42772,2.98785 3.78627,2.98785 2.8587,0 7.45493,4.99365 7.51986,8.17007 0.0244,1.19354 0.94436,2.91701 2.04436,3.82993 1.1,0.91292 2,2.48639 2,3.49659 0,3.13922 2.30382,2.03973 6.62813,-3.16326 z m 15.40643,-18 c 5.01486,-6.05 11.25862,-13.31849 13.87502,-16.1522 l 4.75709,-5.1522 -4,1.98267 c -3.5966,1.78271 -4.71875,1.74559 -11.12686,-0.36808 -12.56896,-4.14579 -24.0798,-14.64352 -16.05671,-14.64352 1.65657,0 5.90057,2.43571 9.43109,5.4127 3.53053,2.97699 6.41915,4.83587 6.41915,4.13086 0,-0.70501 -2.69631,-7.59397 -5.99179,-15.30879 -3.29549,-7.71483 -6.57935,-16.92372 -7.29747,-20.4642 -2.72075,-13.41387 -4.234,-63.87887 -3.31159,-110.43724 1.34667,-67.972971 -1.28404,-90.375881 -12.09583,-103.007018 -5.46538,-6.385074 -11.6029,-8.296994 -18.05509,-5.624408 -7.88955,3.267957 -7.88879,3.263298 -10.96348,67.478785 l -0.3917,8.1807 3.08161,-2.01915 c 4.45718,-2.92045 13.06068,-1.44601 17.74402,3.04092 5.53585,5.30368 8.97483,14.563101 12.22543,32.916811 3.07793,17.37882 3.73252,46.06056 2.47319,108.36669 -0.56517,27.96276 -0.53223,28.24136 6.44998,54.54662 1.53966,5.80064 2.79938,12.25064 2.79938,14.33334 0,2.08269 0.20624,3.78671 0.45832,3.78671 0.25207,0 4.56138,-4.95 9.57624,-11 z m -110.62667,5.70227 c 2.81557,-1.21494 5.08149,-3.861 7.33334,-8.56357 3.87914,-8.1009 14.17916,-16.93525 23.6785,-20.30912 l 6.4811,-2.30188 -0.11708,-8.28336 -0.11708,-8.28335 -6,-2.15376 c -3.3,-1.18456 -7.61459,-2.15078 -9.58798,-2.14716 -1.97339,0.004 -3.9588,-0.5934 -4.41202,-1.32674 -0.45323,-0.73333 0.31505,-1.33333 1.70729,-1.33333 2.75213,0 5.63697,-5.00488 5.60808,-9.7294 -0.01,-1.6155 -2.69895,-13.43727 -5.9757,-26.2706 -4.90247,-19.2004 -6.56564,-23.86471 -9.38973,-26.33333 -4.48082,-3.91683 -6.47185,-3.78383 -9.98012,0.66666 -2.20827,2.80134 -2.73139,4.859 -2.21664,8.71896 0.99996,7.49834 3.01441,9.27768 9.30111,8.21555 4.11308,-0.6949 5.13386,-0.49344 4.66883,0.92141 -0.32733,0.99591 -2.52443,2.00067 -4.88243,2.23278 l -4.28727,0.42204 0.38996,9.57796 0.38995,9.57797 5.25167,0.0884 c 2.88842,0.0486 5.48105,0.77646 5.76139,1.61749 0.59656,1.78968 -5.43803,3.5947 -8.32025,2.48869 -1.65101,-0.63355 -1.9283,0.7812 -1.66965,8.51852 0.28627,8.56306 0.53536,9.27859 3.23149,9.2826 5.44871,0.008 4.43747,2.39974 -1.25873,2.97696 -3.11442,0.31559 -6.71259,1.04005 -7.99592,1.60992 -1.39035,0.61738 -2.33333,0.47592 -2.33333,-0.35003 0,-0.76237 1.16238,-1.75506 2.58308,-2.20597 2.51095,-0.79694 2.49096,-1.06458 -0.71583,-9.58424 -1.8144,-4.82042 -5.07741,-15.09818 -7.25112,-22.83948 -4.48828,-15.98417 -6.57848,-19.87457 -11.31698,-21.06386 -5.41209,-1.35835 -7.30179,1.39993 -7.27874,10.62431 0.0261,10.42842 1.4235,13.02328 5.18186,9.62201 1.75058,-1.58425 3.53544,-2.09494 5.0814,-1.45391 2.05967,0.85404 1.86918,1.2083 -1.40395,2.61096 -5.03743,2.15874 -5.92697,3.90183 -4.9762,9.7511 0.7502,4.61532 1.86811,5.74669 8.76314,8.86867 0.73334,0.33205 0.14409,1.55938 -1.30944,2.72741 -2.12284,1.70588 -2.74365,4.14878 -3.15554,12.41709 l -0.51277,10.29341 2.83039,-2.54738 c 1.55671,-1.40106 3.14634,-2.23142 3.5325,-1.84526 0.94333,0.94333 -12.82724,13.05931 -14.84271,13.05931 -0.87374,0 -5.9222,-5.1462 -11.21879,-11.436 -10.63629,-12.63078 -18.72389,-19.23067 -23.56554,-19.23067 -5.5639,0 -5.76356,6.80683 -0.38664,13.18173 2.59281,3.07405 2.77293,3.1009 5.32275,0.79335 2.27515,-2.05899 2.63912,-2.09937 2.63912,-0.29284 0,1.15255 -0.69476,2.32713 -1.54392,2.61018 -1.85087,0.61696 -0.74412,5.89395 2.03226,9.68988 1.84493,2.52243 2.05971,2.53835 4.49623,0.33334 2.77254,-2.50912 5.6821,-3.06166 5.6821,-1.07908 0,0.68011 -1.43087,2.36209 -3.17971,3.73772 l -3.17971,2.50117 3.70661,4.54153 c 3.22613,3.95281 3.98817,4.30786 5.8786,2.73894 2.86697,-2.37937 4.43752,-0.658 2.39041,2.61996 -1.96182,3.14137 -1.9937,4.12429 -0.27994,8.6318 l 1.33625,3.51461 3.51022,-2.76114 c 1.93063,-1.51863 4.34249,-2.76115 5.35969,-2.76115 3.42863,0 19.75781,-8.10006 23.79092,-11.80144 7.60526,-6.97972 8.66666,-7.52792 8.66666,-4.47618 0,1.8362 -2.24149,4.09476 -6.92198,6.9747 -10.94748,6.73605 -16.15644,14.51703 -12.04905,17.99849 4.33077,3.67081 11.63675,8.49925 12.30437,8.13183 0.36666,-0.2018 2.50022,-1.1581 4.74122,-2.12513 z m 19.08803,-7.96487 c 2.3038,-0.95427 5.78561,-1.33367 7.82697,-0.85288 7.6573,1.80349 7.55632,1.87581 7.74363,-5.54549 0.11573,-4.58521 0.97861,-7.88058 2.50521,-9.56746 1.28078,-1.41524 2.12609,-3.45351 1.87848,-4.52951 -0.7185,-3.12222 -16.60816,5.12225 -23.87216,12.38624 -7.19357,7.19357 -9.24618,12.76836 -5.66532,15.38675 2.07292,1.51576 2.55901,1.27729 3.90068,-1.9136 0.84296,-2.00482 3.40009,-4.41865 5.68251,-5.36405 z m 16.17075,3.92927 c 0,-0.73333 -0.63541,-1.33333 -1.41202,-1.33333 -0.77662,0 -1.04121,0.6 -0.58798,1.33333 0.45322,0.73333 1.08863,1.33333 1.41202,1.33333 0.32339,0 0.58798,-0.6 0.58798,-1.33333 z m 26.27045,-16.85906 c -0.39814,-7.31407 -1.3541,-10.95151 -4.11736,-15.66666 -3.37763,-5.76349 -4.63556,-6.71449 -8.30856,-6.28132 -2.08506,0.2459 -4.17223,-2.60485 -4.71677,-6.44238 -0.43978,-3.0992 -0.56896,-3.14102 -2.79443,-0.90476 -3.02999,3.04469 -3.11592,14.10199 -0.15803,20.33527 1.19641,2.52126 3.74641,5.43792 5.66667,6.48146 2.69362,1.46382 2.93819,1.90955 1.07037,1.95073 -1.33154,0.0294 -3.68404,-0.62258 -5.22778,-1.44876 -3.90832,-2.09167 -6.59494,1.80575 -6.07709,8.8159 l 0.39253,5.31376 5.33333,-0.38354 c 3.05832,-0.21993 6.41727,0.41434 7.87441,1.48693 2.22889,1.64067 3.09637,1.52639 7.06115,-0.93022 l 4.52009,-2.80068 z m 45.72955,-11.28805 c -5.57804,-4.82747 -10.1421,-7.57352 -8.69445,-5.23118 1.10683,1.79089 11.36456,9.40516 12.56117,9.3241 0.43997,-0.0298 -1.30005,-1.87161 -3.86672,-4.09292 z m -57.33333,-13.68963 c 0,-0.27688 -0.91374,-1.26174 -2.03053,-2.18859 -1.69779,-1.40905 -1.8929,-1.32656 -1.19068,0.5034 0.7172,1.86899 3.22121,3.17897 3.22121,1.68519 z m -10.66667,-4.74008 c 0,-2.63416 5.52532,-2.99609 8.29513,-0.54336 l 2.7707,2.45351 -0.92297,-6.66667 c -0.50763,-3.66666 -1.4423,-16.05308 -2.07705,-27.52537 -1.15475,-20.87068 -2.02053,-24.5299 -7.13151,-30.14129 -3.35019,-3.6782 -4.21805,-3.71626 -7.60097,-0.33334 -1.99656,1.99656 -2.66153,4.42571 -2.64625,9.66667 0.024,8.23522 0.74723,9.62114 5.64625,10.82011 4.8489,1.1867 4.69832,3.51322 -0.22739,3.51322 -3.26125,0 -4.03997,0.66434 -4.79195,4.08807 -1.02916,4.68575 1.4595,11.91193 4.10241,11.91193 0.96776,0 2.15943,0.64702 2.64817,1.43782 0.58364,0.94434 -0.59395,1.28755 -3.43111,1 -4.15725,-0.42135 -4.41199,-0.16197 -6.77239,6.89552 -1.34896,4.03333 -2.46649,7.93333 -2.4834,8.66666 -0.0169,0.73334 2.8162,2.32328 6.29579,3.53321 7.76309,2.6994 8.32654,2.78218 8.32654,1.22331 z m -71.15008,-68.08985 c 0.1027,-30.26386 0.84799,-59.80494 1.69553,-67.2063 1.4509,-12.67031 4.83043,-23.426561 7.97013,-25.366991 2.04118,-1.26153 1.86685,-7.72736 -0.2878,-10.67402 -1.49215,-2.04063 -2.24612,-2.17004 -4.77086,-0.81884 -1.64925,0.88265 -3.91932,1.25152 -5.04461,0.81971 -2.96623,-1.13825 0.31494,-4.75357 4.31421,-4.75357 5.07768,0 6.45841,-6.96586 5.51551,-27.825986 -0.70597,-15.618398 -1.25855,-18.862028 -4.25762,-24.991899 -8.00337,-16.3583054 -25.63002,-17.0501134 -32.78931,-1.286911 -3.13636,6.905601 -3.14747,19.412119 -0.0652,73.438136 1.82298,31.953411 2.72003,40.670551 4.45924,43.333331 5.52859,8.46443 9.62486,28.99116 14.36815,72.00001 1.49622,13.56666 3.09029,27.03283 3.54238,29.92482 l 0.82197,5.25815 2.17252,-3.92482 c 1.8983,-3.42942 2.19565,-10.74082 2.35578,-57.92482 z m 33.115,51 c -0.50318,-5.68333 -1.10403,-14.41509 -1.33521,-19.40391 -0.23119,-4.98882 -1.14119,-9.93915 -2.02223,-11.00073 -1.99968,-2.40948 -3.22543,-12.61842 -2.06849,-17.22802 0.47787,-1.90401 2.4342,-4.17168 4.35324,-5.04605 l 3.48534,-1.58803 -0.78937,-31.36663 c -0.86032,-34.18614 -2.46576,-47.76333 -6.41295,-54.234341 -4.31973,-7.08175 -11.28261,-7.89673 -17.16969,-2.00965 -4.62206,4.62206 -6.08021,9.920781 -7.9187,28.775591 -2.04947,21.01846 -1.91542,76.46366 0.1798,74.36844 4.67724,-4.67724 14.32203,0.31206 16.69672,8.6373 3.71796,13.0345 12.71984,40.42936 13.28497,40.42936 0.3473,0 0.21976,-4.65 -0.28343,-10.33333 z m 27.59963,-7 c 0.76308,0 1.04328,-0.89681 0.62267,-1.99291 -0.42061,-1.09609 -0.86501,-9.51023 -0.98754,-18.69807 -0.19173,-14.37555 0.10979,-17.07268 2.16208,-19.34043 2.63975,-2.9169 6.13837,-3.35339 10.05923,-1.25501 2.30272,1.23238 2.58536,0.91099 2.63828,-3 0.0326,-2.40914 0.58203,-19.38025 1.22096,-37.71358 1.55634,-44.65764 -0.39486,-59.601791 -9.00061,-68.935221 -9.49356,-10.2963 -22.30288,-2.57501 -24.77697,14.93522 -1.33665,9.460111 -4.83599,66.022761 -4.83599,78.168081 0,9.98907 0.254,11.06617 2.80013,11.87428 3.87998,1.23145 6.72788,8.54043 12.7119,32.62431 3.13487,12.61694 5.30312,19.23849 5.56669,17 0.23746,-2.01667 1.05608,-3.66667 1.81917,-3.66667 z m 21.15391,-27.33333 c -0.82813,-13.2 -1.92857,-30.6 -2.44541,-38.66667 l -0.93972,-14.66667 -0.68788,22 c -0.49388,15.79541 -0.21186,23.45742 1,27.16764 0.92833,2.8422 1.69215,8.2422 1.69736,12 0.005,3.7578 0.45196,11.03236 0.99277,16.1657 1.75254,16.63495 1.99169,1.64379 0.38288,-24 z M 507.3763,185.68547 c -0.91667,-0.36988 -2.41667,-0.36988 -3.33334,0 -0.91666,0.36989 -0.16666,0.67252 1.66667,0.67252 1.83333,0 2.58333,-0.30263 1.66667,-0.67252 z m -5,-39.11696 c 0.45322,-0.73333 -0.44678,-1.33333 -2,-1.33333 -1.55323,0 -2.45323,0.6 -2,1.33333 0.45322,0.73334 1.35322,1.33334 2,1.33334 0.64677,0 1.54677,-0.6 2,-1.33334 z M 610.34795,84.468699 c 2.77213,-9.5358 8.41629,-14.34447 15.93426,-13.57555 2.98508,0.30531 6.5244,1.03938 7.86514,1.63127 2.3313,1.02919 2.41861,-0.37238 2,-32.106536 C 635.72775,8.6086716 635.57814,6.9680656 632.53269,0.78202762 628.14768,-8.1250154 620.59936,-13.431493 612.31437,-13.431493 c -5.54213,0 -6.82887,0.569898 -10.35542,4.5864246 -6.39387,7.282207 -7.18829,14.370879 -6.62616,59.1254614 0.47263,37.629706 0.64661,39.935436 3.46102,45.867476 2.17884,4.592451 3.39262,10.946201 4.58477,24.000001 l 1.62141,17.75398 1.65611,-23.21523 c 0.91086,-12.76837 2.5722,-26.366431 3.69185,-30.217921 z M 651.3763,373.09572 c -3.85,-2.24436 -7,-4.97398 -7,-6.06583 0,-1.74154 0.24824,-1.73694 2.02266,0.0375 1.11247,1.11247 4.41247,3.36581 7.33334,5.00743 2.92087,1.64162 5.31067,3.47428 5.31067,4.07258 0,1.46482 0.25533,1.56646 -7.66667,-3.05166 z"
       id="path1" />
  </g>
</svg>
