<?xml version="1.0" encoding="UTF-8" standalone="no"?>
<!-- Created with Inkscape (http://www.inkscape.org/) -->

<svg
   version="1.1"
   id="svg1"
   width="1522.251"
   height="1727.8651"
   viewBox="0 0 1522.251 1727.8651"
   xmlns="http://www.w3.org/2000/svg"
   xmlns:svg="http://www.w3.org/2000/svg">
  <defs
     id="defs1" />
  <g
     id="g1"
     transform="translate(-2218.7849,59.326302)">
    <path
       style="fill:#000000"
       d="m 2489.6936,1664.4397 c -7.6128,-14.7215 -22.8446,-39.4072 -33.3341,-54.0235 -20.5451,-28.6278 -31.5786,-43.0525 -32.9312,-43.0525 -0.7586,0 -1.0088,-0.3706 -0.5558,-0.8236 0.4529,-0.4529 -3.4971,-5.9916 -8.7778,-12.3081 -5.2807,-6.3164 -11.095,-13.2958 -12.9207,-15.5097 -8.866,-10.7516 -40.9558,-40.316 -43.0465,-39.6589 -0.6412,0.2015 -0.8156,-0.2001 -0.3877,-0.8925 0.4279,-0.6924 -0.1321,-2.169 -1.2444,-3.2814 -3.6883,-3.6883 -0.02,-3.3986 13.3953,1.0578 25.1934,8.369 37.7869,14.7471 55.1964,27.9545 1.0599,0.804 -4.2377,-5.9632 -11.7725,-15.0383 -7.5349,-9.0752 -14.0149,-17.3217 -14.4002,-18.3257 -0.3853,-1.004 -1.3876,-1.4327 -2.2274,-0.9527 -0.8399,0.4801 -1.0981,0.3977 -0.5739,-0.1829 1.2304,-1.3629 0.083,-3.477 -12.326,-22.7067 -14.1404,-21.913 -24.3115,-45.0706 -27.3361,-62.2391 -0.4072,-2.3109 -1.0496,-4.7021 -1.4276,-5.3138 -1.3792,-2.2315 3.1219,-1.0401 5.3431,1.4142 1.2575,1.3896 3.6753,2.792 5.3728,3.1165 2.8707,0.5488 2.69,-0.024 -2.5855,-8.1931 -15.561,-24.0971 -23.0101,-44.4039 -24.2534,-66.1165 -0.5765,-10.0669 -0.1556,-13.9331 2.6128,-24 1.8149,-6.6 3.4061,-14.7 3.5358,-18 0.1297,-3.3 0.4468,-7.8 0.7047,-10 0.2579,-2.2 1.2054,-15.1 2.1055,-28.6667 1.551,-23.376 1.0061,-36.9935 -2.0276,-50.6666 -1.5699,-7.0759 -4.6239,-30.2522 -4.6472,-35.2667 -0.039,-8.3081 2.3994,-4.1665 7.5542,12.8332 9.6084,31.6873 10.3639,62.6086 2.4783,101.4335 -0.9397,4.6266 0.055,3.1972 6.494,-9.3334 4.9595,-9.6512 7.2498,-46.9432 4.0534,-66 -0.6466,-3.8551 -0.3981,-5 1.0852,-5 3.0257,0 5.4273,20.6507 4.6693,40.15 -0.3531,9.0842 -1.0922,17.7167 -1.6425,19.1834 -0.5502,1.4666 0.6829,0.5666 2.7402,-2 6.7522,-8.4241 24.3553,-25.966 25.2044,-25.1169 0.4571,0.4571 -2.9546,6.0344 -7.5816,12.3941 -4.6269,6.3597 -9.3126,12.874 -10.4126,14.4762 -1.1,1.6023 -4.9156,6.8132 -8.4792,11.5799 -13.2233,17.6877 -23.3655,42.8792 -20.8742,51.848 0.7362,2.6502 1.3419,7.5585 1.3459,10.9071 0.01,7.4093 2.0914,19.595 4.8834,28.5782 4.4914,14.4508 19.2502,43.6499 24.9378,49.3375 2.1674,2.1675 2.2016,2.548 0.3229,3.5993 -1.259,0.7046 -4.2988,0.5838 -7.5866,-0.3015 -3.0172,-0.8125 -5.7057,-1.2573 -5.9744,-0.9886 -0.8808,0.8807 16.1856,36.1497 21.7848,45.02 3.0089,4.7667 9.2012,14.9667 13.7607,22.6667 4.5594,7.7 10.1474,16.4811 12.4177,19.5136 2.2703,3.0326 5.0279,6.867 6.1279,8.521 6.0649,9.1195 18.429,23.7728 19.3534,22.9368 0.5908,-0.5343 0.6404,-0.2181 0.1104,0.7026 -0.5743,0.9977 1.0315,4.1089 3.9746,7.7005 5.2409,6.3959 5.3263,9.728 0.124,4.8408 -1.7015,-1.5985 -3.4991,-2.6009 -3.9947,-2.2275 -0.4956,0.3734 -0.6191,0.2968 -0.2744,-0.1701 0.9149,-1.2393 -25.0244,-17.5014 -36.206,-22.6986 -10.1136,-4.7008 -12.9592,-5.5352 -9.5003,-2.7858 1.9472,1.5479 6.1666,6.4769 24.8246,29 9.8046,11.8357 9.4226,11.3372 20.454,26.6944 25.402,35.3633 42.9616,64.0499 53.2404,86.9773 1.8917,4.2195 3.801,7.3101 4.243,6.8682 0.442,-0.442 0.4743,0.4557 0.072,1.9949 -1.0304,3.9402 -2.6648,3.4835 -5.2205,-1.4588 z m 735.6887,1.7029 c 0.7089,-1.9479 39.7912,-32.2393 77.1111,-59.7663 15.4845,-11.4214 25.3874,-20.9086 43.3333,-41.5144 56.0596,-64.3688 76.7157,-96.4922 80.4012,-125.0363 0.5127,-3.9707 1.5321,-7.2348 2.2655,-7.2536 2.231,-0.057 4.7157,13.5423 4.3474,23.7948 -0.1911,5.3184 -0.2582,9.6684 -0.1492,9.6667 0.8123,-0.013 22.9784,-35.5651 29.5455,-47.3882 15.9507,-28.7169 21.3476,-45.9736 21.876,-69.9483 0.1859,-8.4333 -0.1429,-16.6833 -0.7307,-18.3333 -0.7711,-2.1646 -0.5637,-3 0.745,-3 1.0242,0 2.9214,3.3376 4.358,7.6667 6.574,19.8095 17.8347,44.7637 25.7215,57 5.4216,8.4114 27.8009,32.2633 29.0756,30.9886 0.2855,-0.2855 -2.4754,-9.6887 -6.1354,-20.896 -8.064,-24.6934 -10.2295,-32.6716 -13.9585,-51.426 -4.7573,-23.926 -6.1288,-34.7766 -7.1233,-56.3564 -0.9432,-20.4669 -0.085,-35.8901 2.5038,-44.9769 2.8127,-9.8739 6.8641,-17.907 9.4441,-18.7259 2.1144,-0.6711 2.4127,-1.6111 1.7062,-5.377 -1.4361,-7.6554 1.1964,-5.1164 5.9836,5.771 17.2364,39.2005 28.2078,58.8971 38.0608,68.3292 l 4.8721,4.664 -2.9078,-6.664 c -1.5993,-3.6652 -3.4084,-7.2978 -4.0203,-8.0725 -5.2103,-6.5967 -22.7338,-60.5858 -25.2005,-77.6416 -2.0695,-14.3086 -1.6054,-59.0708 0.7631,-73.6165 1.1344,-6.9667 2.2643,-13.957 2.5108,-15.534 0.2465,-1.577 0.8877,-4.2519 1.4248,-5.9442 0.5423,-1.7087 -9.3298,7.303 -22.2014,20.2664 -28.0169,28.2169 -46.6572,43.1861 -40.9415,32.8784 0.9149,-1.65 1.5211,-3.4946 1.3472,-4.0991 -0.174,-0.6045 0.1945,-0.7834 0.8188,-0.3975 1.326,0.8195 13.81,-11.7757 25.0617,-25.2848 18.7337,-22.4923 23.8472,-29.0637 23.5029,-30.2039 -0.2015,-0.6671 0.2026,-0.8612 0.898,-0.4314 0.6954,0.4298 2.6273,-1.1756 4.293,-3.5676 1.6657,-2.392 5.5261,-7.349 8.5787,-11.0157 11.8674,-14.2547 32.3836,-44.4034 42.1911,-62 21.0573,-37.78114 28.0542,-49.35734 37.0711,-61.33334 1.9325,-2.5667 5.7229,-7.6146 8.4231,-11.2176 7.7632,-10.3589 24.9586,-30.1887 32.1849,-37.1158 3.6337,-3.4833 5.8774,-6.3333 4.986,-6.3333 -3.8288,0 -29.4608,13.7368 -33.5993,18.0067 -4.4751,4.617 -8.3946,5.9139 -10.0039,3.31 -0.4589,-0.7425 0.6207,-4.4925 2.3991,-8.3333 3.8089,-8.2265 6.2046,-15.3327 11.5687,-34.31672 2.1758,-7.7 6.013,-20.3 8.5273,-28 4.4101,-13.50627 6.6475,-18.67289 22.5197,-52.00226 4.0167,-8.43458 9.8233,-23.43458 12.9035,-33.33334 3.0802,-9.89876 7.0814,-22.19774 8.8915,-27.33108 6.7798,-19.2267 22.2424,-68.01104 21.8634,-68.97892 -0.076,-0.19493 0.8285,-2.66926 2.0106,-5.49853 2.3731,-5.67951 1.8119,-8.23939 -0.7242,-3.30341 -0.88,1.71281 -5.0222,8.2142 -9.2049,14.44753 -4.1828,6.23333 -11.3662,18.08333 -15.9632,26.33333 -11.4385,20.52809 -12.6108,20.16427 -7.5185,-2.33333 5.2636,-23.25423 6.0489,-28.62291 6.9236,-47.33334 1.7403,-37.22169 -4.3886,-76.92295 -15.7,-101.70006 -2.1008,-4.60169 -3.8196,-8.65281 -3.8196,-9.00248 0,-2.85193 -21.8219,-44.6308 -23.3115,-44.6308 -0.1462,0 0.2033,2.85 0.7767,6.33334 1.4284,8.67802 1.4493,19 0.038,19 -0.6396,0 -1.5691,-2.55 -2.0655,-5.66667 -0.7998,-5.02214 -7.6055,-19.23305 -10.057,-21 -0.5087,-0.36667 -4.4776,-6.04628 -8.8197,-12.62136 -9.9675,-15.09309 -20.5204,-26.42492 -36.3552,-39.0385 -11.9352,-9.50722 -18.9766,-13.37692 -41.9152,-23.0351 -9.6153,-4.04849 -10.7726,-4.24956 -15.7964,-2.74438 -2.9816,0.89329 -5.7227,1.3225 -6.0914,0.95379 -2.8868,-2.88677 13.0428,-8.99214 26.2633,-10.06604 l 10,-0.81229 -12.6666,-2.91715 c -18.0269,-4.15159 -31.6911,-4.8672 -45.3334,-2.37413 -17.8859,3.26857 -21.3333,3.64365 -21.3333,2.32104 0,-1.43655 4.4778,-3.64992 14.3242,-7.08035 5.7084,-1.98883 10.3554,-2.37051 25.3333,-2.08081 18.4935,0.3577 27.0456,1.87948 42.774,7.61125 3.904,1.4227 7.804,2.18242 8.6667,1.68828 0.8626,-0.49415 1.1167,-0.40049 0.5645,0.20813 -0.5521,0.60862 1.5479,2.62533 4.6667,4.48159 3.1188,1.85625 6.2706,3.87495 7.0039,4.48599 0.7334,0.61104 2.475,1.8995 3.8704,2.86324 4.4513,3.07435 1.4146,4.74856 -5.072,2.79638 -3.2294,-0.9719 -7.8801,-2.10337 -10.335,-2.51436 -2.4549,-0.41099 -8.0634,-1.35383 -12.4634,-2.09519 -15.9944,-2.69491 -16.4154,-1.2432 -1.3664,4.71254 17.3248,6.85644 31.2002,16.61863 50.1129,35.25743 11.6543,11.48545 14.588,15.41507 24.8615,33.30105 5.9207,10.30776 7.2765,10.0277 3.6183,-0.74739 -5.5157,-16.24615 6.0398,-4.96919 21.0942,20.58572 15.4237,26.18192 24.1389,47.14109 31.1282,74.86062 4.0944,16.23816 4.4352,19.33897 4.4702,40.66667 0.038,23.23935 -1.5145,42.17022 -4.4833,54.66667 -4.3095,18.13939 -4.2474,18.26448 3.3087,6.66667 8.4695,-12.99998 19.9224,-31.38457 19.9224,-31.98028 0,-2.21655 13.9481,-23.35306 15.4109,-23.35306 2.6196,0 2.4184,2.71015 -0.8686,11.69998 -4.872,13.32461 -11.7689,36.42274 -15.9178,53.30941 -2.2084,8.9885 -6.4419,23.0885 -9.4078,31.33334 -2.9659,8.24484 -8.2631,23.99061 -11.7717,34.99061 -7.007,21.96836 -9.0506,27.07658 -23.6562,59.13276 -5.4628,11.98968 -11.1787,24.88968 -12.702,28.66666 -2.6666,6.612 -18.6955,52.13031 -21.1515,60.06571 l -1.1963,3.8651 2.9638,-2.7075 c 3.0869,-2.82 15.4329,-9.6894 17.4141,-9.6894 0.626,0 2.7307,-1.1025 4.6773,-2.4501 7.8137,-5.4094 23.0829,-7.172 23.9182,-2.761 0.221,1.1672 -3.3176,5.9672 -7.8635,10.6667 -4.5459,4.6994 -12.2172,13.3444 -17.0473,19.2111 -4.83,5.8666 -9.5438,11.4669 -10.4749,12.445 -3.2293,3.3922 -25.4314,37.1925 -28.8106,43.8609 -1.868,3.68654 -2.9734,7.17194 -2.4563,7.74554 0.5171,0.5735 0.3124,0.6867 -0.4549,0.2515 -1.2382,-0.7023 -4.5923,4.7836 -21.3821,34.9728 -2.2607,4.065 -8.6997,14.216 -14.3088,22.5578 -5.6092,8.3418 -9.8649,15.7067 -9.4571,16.3664 0.4077,0.6597 0.1907,1.0346 -0.4823,0.8331 -1.992,-0.5964 -17.984,21.4839 -17.1445,23.6717 0.4401,1.1468 -0.017,1.962 -1.0993,1.962 -2.0827,0 -3.1587,3.8446 -5.2245,18.6666 -4.7022,33.7384 -3.4188,76.0906 3.0742,101.4456 4.9764,19.4327 18.6381,60.2386 20.6015,61.534 0.8166,0.5388 1.067,0.9888 0.5565,1 -0.5105,0.011 0.2816,3.4704 1.7603,7.6871 1.4787,4.2167 2.8895,8.5667 3.1351,9.6667 0.2456,1.1 0.6534,2.6 0.9063,3.3333 0.6191,1.7954 -1.5007,1.9506 -5.5402,0.4056 -1.8333,-0.7012 -4.3576,-1.355 -5.6095,-1.453 -1.2518,-0.098 -2.0603,-0.3939 -1.7965,-0.6577 0.2637,-0.2637 -2.1656,-2.9177 -5.3986,-5.8977 -11.4634,-10.5666 -22.6192,-30.7962 -31.2675,-56.6995 -4.0928,-12.2586 -4.7062,-13.3358 -6.0739,-10.6667 -7.5875,14.8073 -8.6039,51.5814 -2.5512,92.3023 2.479,16.6779 9.5636,49.4297 16.7281,77.3334 3.0126,11.7333 6.0086,23.4328 6.6578,25.9988 1.5738,6.221 -0.7914,8.6836 -2.8016,2.917 -0.8147,-2.337 -1.9079,-4.2492 -2.4293,-4.2492 -0.5214,0 -4.5127,-2.1773 -8.8696,-4.8386 -4.3568,-2.6612 -8.6715,-4.8612 -9.5882,-4.8889 -0.9167,-0.028 -1.3812,-0.3357 -1.0323,-0.6847 0.349,-0.3489 -2.7351,-4.2739 -6.8534,-8.7221 -8.5322,-9.2159 -17.5241,-22.7092 -22.7307,-34.11 l -3.5606,-7.7967 -3.0971,11.9559 c -3.7675,14.544 -13.8791,37.5709 -21.2614,48.4185 -2.9945,4.4 -5.5214,8.4523 -5.6154,9.0051 -0.094,0.5528 -1.6029,2.6528 -3.3531,4.6666 -1.7502,2.0139 -6.7962,8.0176 -11.2135,13.3417 -11.0475,13.3154 -22.3872,25.6532 -23.5777,25.6532 -0.5446,0 -0.5679,-1.05 -0.052,-2.3333 0.516,-1.2833 1.0628,-3.066 1.2152,-3.9614 0.1524,-0.8954 0.6944,-2.0454 1.2045,-2.5556 0.5101,-0.5101 0.8759,-3.0774 0.8129,-5.7052 -0.1029,-4.291 -0.219,-4.4382 -1.139,-1.4445 -2.0127,6.549 -11.985,25.0188 -20.1956,37.4044 -9.2263,13.9177 -27.2939,36.1137 -43.4041,53.3215 -5.764,6.1568 -12.28,13.1138 -14.48,15.46 -2.2,2.3462 -6.6648,7.4642 -9.9218,11.3733 -3.257,3.9091 -9.9785,10.661 -14.9366,15.0042 -4.958,4.3432 -8.7696,8.2932 -8.4701,8.7778 0.2995,0.4846 -0.1909,0.8811 -1.0898,0.8811 -2.8136,0 -18.328,12.5703 -17.3892,14.0893 0.5149,0.8332 0.2626,1.0484 -0.6022,0.5139 -0.8187,-0.5059 -5.8614,2.294 -11.2061,6.2221 -20.5111,15.0748 -56.8597,39.6191 -58.6733,39.6191 -0.6966,0 -1.0665,-0.5495 -0.822,-1.2211 z m -557.0499,-66.9073 c -9.8708,-4.805 -19.1796,-7.9712 -34.6667,-11.791 -22.3098,-5.5025 -34.9087,-10.3003 -54.5515,-20.774 -12.7979,-6.8239 -32.4662,-20.92 -41.7193,-29.8998 -3.1467,-3.0538 -6.3316,-5.0924 -7.158,-4.5816 -0.8189,0.5061 -1.1404,0.3563 -0.7146,-0.3328 0.4259,-0.6891 -4.2674,-7.8318 -10.4295,-15.8726 -13.2195,-17.25 -19.016,-28.0514 -20.1327,-37.5162 l -0.8136,-6.8964 5.1734,0.5169 c 2.8454,0.2843 9.3735,0.7941 14.5068,1.133 12.6531,0.8352 28.6668,5.377 40.3333,11.4392 5.3167,2.7627 9.6667,4.7829 9.6667,4.4893 0,-1.1455 -10.3409,-9.5422 -22.5424,-18.3042 -11.6199,-8.3442 -44.3352,-28.8147 -46.051,-28.8147 -2.8585,0 -28.7399,-26.1726 -28.7399,-29.0633 0,-1.6897 0.4187,-1.6377 2.5826,0.3206 1.4205,1.2855 3.1135,2.0092 3.7623,1.6082 0.6488,-0.401 2.9287,0.1784 5.0664,1.2875 3.3071,1.7157 20.2133,5.9685 23.0092,5.788 0.502,-0.032 -1.2832,-1.219 -3.9672,-2.6369 -6.1295,-3.2381 -27.7867,-23.6129 -27.7867,-26.1413 0,-1.2767 0.9631,-1.6467 3,-1.1526 4.0385,0.9795 21,2.9508 21,2.4405 0,-0.2232 -2.85,-1.8552 -6.3333,-3.6267 -8.0775,-4.1078 -25.3339,-17.665 -35.7399,-28.0784 -9.1578,-9.1644 -20.7394,-24.4591 -30.2588,-39.9599 -5.7572,-9.3747 -6.2552,-10.77 -4.4779,-12.5472 5.4993,-5.4994 22.3883,-7.9013 39.008,-5.5477 13.4074,1.8987 20.2519,4.0238 25.89,8.0386 2.1516,1.532 3.9119,2.4315 3.9119,1.9987 0,-1.9636 -8.0857,-18.3236 -12.3541,-24.9961 -5.0733,-7.9309 -15.1772,-18.3987 -17.759,-18.3987 -1.6256,0 -3.4632,-6.5281 -2.3464,-8.3352 3.8207,-6.182 29.1363,-8.7751 54.3277,-5.565 l 5.2016,0.6628 -10.7767,-9.048 c -6.8365,-5.7399 -16.4486,-11.9437 -26.2903,-16.9681 -8.5325,-4.3562 -16.1336,-9.0786 -16.8912,-10.4943 -0.9548,-1.7839 -0.95,-2.3098 0.015,-1.7131 1.7137,1.0592 17.7536,-8.4061 24.9322,-14.7127 3.0235,-2.6562 3.9783,-4.0062 2.2377,-3.1635 -2.6755,1.2951 -9.5387,1.905 -16.6303,1.4777 -4.0302,-0.2429 -2.5692,-4.1753 4.3733,-11.7715 6.7018,-7.3328 15.3566,-19.0358 14.0777,-19.0358 -0.3724,0 -4.4513,2.3943 -9.0641,5.3207 -7.2735,4.6143 -11.7202,6.4693 -11.7202,4.8891 0,-1.0748 14.426,-15.3248 18.987,-18.7554 2.7428,-2.0631 4.6001,-4.377 4.1273,-5.1421 -0.4728,-0.765 -0.235,-1.0049 0.5286,-0.533 1.728,1.068 4.6978,-2.2896 3.3455,-3.7824 -0.5436,-0.6001 -0.3145,-0.7065 0.5092,-0.2364 1.6965,0.9681 12.188,-9.7678 19.3106,-19.7605 7.9687,-11.1799 14.6018,-22.9772 17.4079,-30.9611 1.4679,-4.1765 3.5642,-9.4188 4.6584,-11.6496 l 1.9895,-4.0559 -3.45,4.2328 c -1.8975,2.3281 -7.277,7.2781 -11.9544,11 -7.8246,6.2262 -11.4596,8.0991 -11.4596,5.9045 0,-1.2622 8.656,-11.6195 19.3333,-23.1334 5.1333,-5.5355 10.5333,-11.776 12,-13.8676 1.4667,-2.0917 4.7725,-6.5781 7.3462,-9.9697 9.0718,-11.9547 22.9585,-36.7688 26.7861,-47.8638 2.4689,-7.1566 6.6489,-22.57934 8.5744,-31.63624 2.4831,-11.6798 3.6748,-30.321 2.3632,-36.9676 -2.3097,-11.7038 -8.5858,-33.5764 -10.2108,-35.585 -2.2705,-2.8065 10.8243,-1.0202 17.383,2.3713 5.5486,2.8691 14.761,11.9309 22.1279,21.7662 2.5754,3.4383 5.0457,5.9883 5.4896,5.6666 0.4439,-0.3216 0.5376,-0.2154 0.2083,0.2362 -0.3294,0.4516 0.8264,3.6016 2.5684,7 8.3062,16.2051 11.8342,27.3658 13.3329,42.179 0.7311,7.2259 0.6179,7.7598 -1.1693,5.5175 -1.0882,-1.3653 -2.3866,-5.7477 -2.8852,-9.7386 -0.6181,-4.9468 -3.5844,-12.6435 -9.3207,-24.1842 -9.8311,-19.779 -22.5945,-35.4749 -34.5903,-42.538 -7.8413,-4.6169 -8.4119,-4.6179 -5.4192,-0.01 1.0549,1.6242 3.4549,7.6797 5.3334,13.4566 6.3239,19.448 4.0283,47.3887 -6.4715,78.76714 -2.4848,7.4256 -6.4093,16.7092 -8.7212,20.6302 -2.3119,3.9209 -6.0391,10.7973 -8.2827,15.2808 -4.2937,8.5802 -14.9489,24.9597 -21.3298,32.7888 -2.0786,2.5505 -3.7884,6.1505 -3.7994,8 -0.056,9.42 -9.9896,33.1794 -20.3594,48.6963 -2.9405,4.4 -5.3581,8.7166 -5.3724,9.5925 -0.014,0.876 -0.3759,1.4919 -0.8037,1.3687 -1.3493,-0.3885 -17.4445,17.1801 -17.4445,19.0413 0,0.9768 -2.0572,5.5186 -4.5715,10.0929 -2.5144,4.5744 -4.1644,8.7242 -3.6667,9.2219 0.4977,0.4977 0.2681,0.7049 -0.5102,0.4604 -0.7782,-0.2444 -4.5931,2.4056 -8.4775,5.8889 -5.0387,4.5185 -6.3525,6.3316 -4.5849,6.3272 3.0396,-0.01 16.1357,-5.2562 20.8937,-8.3738 4.3811,-2.8706 7.0602,-2.9076 8.1328,-0.1125 1.4997,3.9081 -18.5349,23.288 -30.9806,29.9683 l -6.4757,3.4758 4.787,1.7259 c 20.143,7.2623 40.6584,21.2875 46.4496,31.7549 3.1941,5.7733 2.2666,8.0272 -2.298,5.5843 -5.1496,-2.756 -49.2547,1.4392 -55.8877,5.316 -1.8876,1.1032 -1.8483,1.2577 0.3285,1.2934 1.3597,0.022 5.881,3.5243 10.0474,7.7823 9.3582,9.5639 19.8603,29.4803 21.0528,39.9249 0.7434,6.5121 0.6003,7 -2.0532,7 -1.5689,0 -2.8524,-0.4974 -2.8524,-1.1054 0,-0.608 -2.85,-2.4063 -6.3334,-3.9963 -14.8766,-6.7904 -37.2425,-9.8178 -50.9857,-6.9013 -4.4508,0.9445 -8.3472,2.1297 -8.6588,2.6339 -1.2397,2.0058 21.9246,30.8882 35.8549,44.7056 13.7885,13.6768 19.1387,17.7125 44.4563,33.534 9.6511,6.0311 12.3376,9.1665 6.6667,7.7804 -1.65,-0.4033 -5.7,-0.2375 -9,0.3685 -3.3,0.606 -8.2677,0.7161 -11.0392,0.2447 l -5.0392,-0.8571 4.3725,3.7395 c 5.9961,5.128 21.0141,12.9706 33.0392,17.2536 6.7293,2.3967 10.1529,4.3382 10.4674,5.936 0.4335,2.2018 -0.6808,2.3215 -15.3333,1.6472 -15.7269,-0.7237 -24.3252,-2.761 -35.2503,-8.3525 l -4.5505,-2.3289 2.6667,3.0072 c 4.2782,4.8245 17.6284,13.7363 32,21.3613 16.5567,8.7843 39.2431,23.5995 51.2282,33.4543 2.5088,2.0628 5.2088,3.3825 6,2.9325 0.7912,-0.4499 1.0181,-0.3515 0.5044,0.2187 -0.5137,0.5702 2.0677,4.7164 5.7365,9.2137 3.6688,4.4974 8.7392,12.44 11.2674,17.6503 6.6658,13.737 6.0628,17.6854 -1.487,9.7375 -6.0157,-6.3329 -24.3734,-20.3079 -32.8398,-24.9997 -9.8087,-5.4356 -33.4466,-12.7034 -40.3658,-12.411 -0.3637,0.015 -2.4723,-0.4914 -4.6859,-1.1263 -4.9702,-1.4254 -4.9893,-0.9519 -0.2073,5.1344 2.0995,2.6722 4.7988,6.7775 5.9986,9.123 4.0639,7.945 10.386,16.4348 11.6545,15.6508 0.6943,-0.4291 1.1764,-0.2855 1.0713,0.319 -0.4153,2.391 0.2546,3.9127 3.2613,7.4087 1.7233,2.0037 3.6187,3.2037 4.2122,2.6667 0.5934,-0.537 0.6306,-0.1993 0.083,0.7503 -1.2731,2.2066 17.3336,20.782 19.4851,19.4523 0.8225,-0.5084 1.1567,-0.3761 0.7426,0.2939 -1.6946,2.742 28.6503,22.3903 50.3409,32.5958 6.6,3.1053 13.1166,6.2069 14.4814,6.8925 1.3647,0.6855 5.2647,1.7674 8.6667,2.4041 14.9961,2.8069 19.8903,4.2702 31.9008,9.5376 7.0179,3.0778 14.766,7.3575 17.2181,9.5104 l 4.4583,3.9145 -1.298,-3.4139 c -4.8301,-12.7041 -14.2382,-25.9043 -29.2934,-41.1002 -8.9657,-9.0495 -10.5225,-14.1281 -4.1296,-13.4719 8.2724,0.8492 21.8993,6.1863 30.2429,11.8449 4.9974,3.3892 9.8098,6.1837 10.6942,6.21 0.8844,0.026 1.3829,0.4121 1.1077,0.8572 -0.2751,0.4452 3.4411,4.6952 8.2583,9.4445 4.8171,4.7492 7.8031,7.135 6.6355,5.3017 -4.8963,-7.6878 -14.653,-35.6306 -15.8289,-45.3334 -0.6666,-5.5 -1.3399,-10.8377 -1.4963,-11.8616 -0.7011,-4.59 3.5506,-2.218 12.1617,6.785 5.1257,5.3588 11.2463,12.1433 13.6015,15.0766 2.8743,3.5799 3.9861,4.3688 3.3818,2.3995 -1.7263,-5.6249 -1.0444,-23.8048 1.2651,-33.7328 3.0756,-13.2214 10.0693,-31.3856 17.39,-45.1657 6.217,-11.7026 14.739,-24.1676 16.5228,-24.1676 0.5758,0 0.7632,5.7388 0.4165,12.7529 -0.3735,7.5588 0.01,15.2972 0.9374,19 1.7612,7.019 21.3918,46.9137 23.0843,46.9137 3.5403,0 9.7266,-26.025 11.0137,-46.3333 0.5228,-8.25 1.4734,-15 2.1124,-15 0.639,0 1.1618,0.6 1.1618,1.3333 0,0.7334 0.6593,1.3334 1.4651,1.3334 0.8059,0 3.5329,0.9812 6.0601,2.1804 8.0447,3.8175 15.4783,17.3792 20.3641,37.1518 l 2.306,9.3321 3.0051,-11.1372 c 2.8314,-10.4932 6.0661,-47.143 5.1362,-58.1938 -0.3007,-3.5727 0.019,-3.9495 2.9967,-3.5269 7.7281,1.0968 22.763,23.2012 32.0833,47.1688 l 1.6947,4.3581 0.7987,-5.3333 c 1.2795,-8.5445 -0.9763,-17.4967 -8.6903,-34.4874 -10.2605,-22.5997 -9.6852,-25.1317 4.4871,-19.7467 6.6748,2.5362 20.2932,11.9278 20.2932,13.9947 0,0.6552 0.9311,0.834 2.0692,0.3973 1.2422,-0.4767 1.7268,-0.2399 1.2124,0.5924 -0.4712,0.7625 0.5476,2.7064 2.2641,4.3198 7.7796,7.3122 31.6675,41.4945 30.096,43.0659 -0.4055,0.4055 -7.2408,-6.9462 -15.1895,-16.3371 -7.9487,-9.391 -18.7812,-21.3307 -24.0722,-26.5327 -9.2551,-9.0993 -23.0467,-18.2847 -23.0467,-15.3492 0,0.7791 0.5295,1.4165 1.1767,1.4165 2.1938,0 12.3327,17.1004 15.5585,26.2413 1.7647,5.0006 3.2212,11.5666 3.2367,14.5911 0.034,6.5897 -3.3061,16.689 -6.0215,18.2086 -1.0727,0.6003 -1.9504,1.9971 -1.9504,3.1039 0,4.1654 -2.8166,-0.1153 -12.7344,-19.354 -8.9886,-17.4361 -21.1806,-35.987 -22.6715,-34.4962 -0.287,0.2871 0.065,2.6462 0.7816,5.2425 0.7169,2.5963 1.0809,10.6626 0.8091,17.925 -0.7935,21.1937 -6.6542,43.596 -12.879,49.2294 -2.3182,2.0979 -2.5177,1.9795 -3.7734,-2.2383 -5.1891,-17.4292 -14.8137,-37.9605 -20.2257,-43.1455 l -4.1048,-3.9326 0.8939,5.59 c 0.4986,3.1184 0.1309,9.5938 -0.8319,14.6457 -0.9491,4.9807 -1.8385,9.9558 -1.9763,11.0558 -0.1379,1.1 -0.5679,2.9 -0.9555,4 -4.2482,12.0543 -5.6269,15.2201 -8.4218,19.3386 -1.784,2.6289 -3.2436,5.6532 -3.2436,6.7206 0,3.9146 -3.5061,1.6908 -10.6169,-6.7341 -13.0065,-15.4099 -22.9069,-37.331 -23.049,-51.034 l -0.073,-7.0423 -6.5004,15.7089 c -8.5283,20.6093 -14.3596,38.9786 -15.0801,47.5038 -0.3194,3.7795 -0.9155,10.8788 -1.3247,15.7762 -0.4542,5.4357 -0.2139,9.232 0.6167,9.7454 1.5927,0.9843 1.8272,3.3502 0.3321,3.3502 -2.6469,0 -16.5945,-10.696 -21.7333,-16.6667 -3.1558,-3.6666 -5.2789,-5.4666 -4.718,-4 3.108,8.1272 11.3596,31.1451 12.1885,34 0.5323,1.8334 3.2226,8.1334 5.9785,14 6.213,13.2261 9.3336,20.6667 8.6678,20.6667 -0.2799,0 -5.7993,-4.5558 -12.2653,-10.1241 -24.0656,-20.7244 -26.5846,-22.8197 -33.8115,-28.1251 -4.0637,-2.9832 -10.6637,-7.0547 -14.6667,-9.0477 l -7.2781,-3.6238 4.0651,3.8069 c 13.4751,12.619 27.4552,38.2082 25.3836,46.4622 -0.458,1.8251 -1.2714,3.2674 -1.8074,3.2052 -0.536,-0.062 -7.047,-3.069 -14.4689,-6.682 z m 655.55,-92.8171 c 3.2694,-3.4534 6.9968,-7.0892 8.2832,-8.0795 3.8876,-2.9929 14.4622,-20.1491 19.2991,-31.3105 6.2041,-14.3166 7.1446,-21.2851 5.3908,-39.9443 -1.2323,-13.1103 -1.7127,-15.1407 -2.9972,-12.6666 -1.8284,3.522 -8.1322,12.3117 -12.7233,17.7409 -4.8385,5.7215 -20.4944,17.8309 -31.975,24.7317 -15.8046,9.4999 -29.0759,15.9689 -29.929,14.5887 -0.4302,-0.6962 0.5099,-2.1708 2.0892,-3.277 2.6745,-1.8733 2.7577,-2.4054 1.2122,-7.7579 -6.9835,-24.1861 -3.9419,-43.2714 9.608,-60.2887 l 4.1474,-5.2087 -7.1611,3.8754 c -3.9386,2.1314 -10.6406,7.0883 -14.8933,11.0153 -9.321,8.6071 -25.5635,30.3217 -24.2591,32.4321 0.5226,0.8457 0.3395,1.141 -0.4175,0.6732 -0.7417,-0.4584 -5.7844,6.6425 -11.206,15.7799 -9.4553,15.9356 -11.8574,18.9167 -11.8574,14.7149 0,-1.0596 -2.6138,-4.3764 -5.8085,-7.3707 -12.25,-11.4817 -17.111,-27.2662 -13.5929,-44.1391 2.176,-10.4361 8.1457,-24.3569 13.6639,-31.8628 5.0738,-6.9015 -19.7639,17.7324 -28.6651,28.4298 -4.1786,5.0219 -9.0032,10.7219 -10.7213,12.6667 -4.9732,5.6292 -10.6503,18.5976 -11.6523,26.6175 -0.816,6.5311 -1.1242,7.1037 -2.6787,4.9779 -1.0694,-1.4626 -2.7772,-2.1354 -4.3657,-1.72 -3.2667,0.8543 -11.1881,-6.9388 -14.0593,-13.8316 -3.6448,-8.7496 -4.0655,-20.8545 -1.0372,-29.8411 l 2.6958,-8 -4.3128,5.1076 c -5.6373,6.676 -15.881,27.1094 -14.6573,29.237 0.5237,0.9105 0.447,1.1964 -0.1706,0.6353 -0.6175,-0.5611 -2.3905,1.4979 -3.9399,4.5754 -1.5495,3.0775 -3.439,5.8028 -4.1989,6.0561 -0.7598,0.2532 -3.0494,-0.8514 -5.0879,-2.4549 -3.3888,-2.6656 -3.6564,-3.5163 -3.1246,-9.9301 0.6338,-7.6425 11.7036,-32.5597 14.4651,-32.5597 0.8434,0 1.2467,0.75 0.8963,1.6666 -2.9499,7.7168 -10.3148,32.1574 -10.3148,34.23 0,5.4044 2.2617,3.7157 3.9685,-2.9632 1.9756,-7.7306 1.8893,-7.5389 8.8272,-19.6001 5.6631,-9.8451 11.8455,-16.2076 18.1878,-18.7177 2.3924,-0.9468 5.3998,-2.6157 6.6832,-3.7085 2.1352,-1.8184 2.3333,-1.6866 2.3333,1.5529 0,1.947 -0.5518,3.54 -1.2262,3.54 -2.6576,0 -6.0066,14.0123 -5.8955,24.6666 0.1231,11.7973 2.1024,17.7664 7.9631,24.014 l 3.7391,3.986 1.0444,-7.0853 c 1.3573,-9.2082 6.5487,-20.0339 14.1025,-29.4078 7.9096,-9.8155 22.9589,-25.7495 31.4883,-33.3395 3.7314,-3.3204 6.6194,-6.561 6.4179,-7.2013 -0.2015,-0.6404 0.1409,-0.8508 0.7609,-0.4676 0.62,0.3832 3.1849,-0.5858 5.6997,-2.1533 9.9428,-6.1973 10.7957,-4.0484 3.8645,9.7371 -7.8954,15.703 -13.3355,31.3083 -14.2213,40.7949 -0.9773,10.4657 1.7182,19.1651 9.4268,30.4231 l 5.6534,8.2565 2.452,-6.1117 c 8.7933,-21.9176 20.4394,-39.6583 35.4462,-53.9957 11.0687,-10.575 19.4885,-15.6688 30.1208,-18.2223 3.5732,-0.8582 7.8988,-2.4333 9.6124,-3.5002 1.7136,-1.067 3.3532,-1.7024 3.6435,-1.4121 0.7647,0.7647 -2.509,9.0186 -3.5771,9.0186 -1.358,0 -15.3174,25.2319 -17.3349,31.3333 -1.8815,5.6904 -2.0244,25.0806 -0.2374,32.2264 l 1.0569,4.2265 18,-13.3187 c 9.9,-7.3253 20.9038,-16.1272 24.4528,-19.5598 8.0847,-7.8193 16.9062,-20.2185 20.5403,-28.8707 1.5315,-3.6463 3.3825,-6.8289 4.1134,-7.0725 2.7605,-0.9202 9.5569,31.1446 9.5457,45.0355 -0.018,21.8676 -17.6772,52.7869 -39.9855,70.0088 -8.4355,6.5121 -9.6165,5.7788 -2.611,-1.621 z m -397.389,2.2643 c 0,-0.7413 -1.1705,-3.8913 -2.601,-7 -5.8971,-12.8149 -11.0966,-27.6094 -14.1434,-40.2435 -5.6392,-23.3843 -7.3953,-56.7106 -3.3345,-63.2811 1.2559,-2.0321 5.4122,-1.0778 5.4122,1.2426 0,0.7997 -0.6,1.0831 -1.3333,0.6299 -0.7334,-0.4533 -1.3334,-0.5033 -1.3334,-0.1112 0,0.3922 4.8274,10.6988 10.7275,22.9036 8.4755,17.5323 12.0865,23.5354 17.201,28.5965 6.2898,6.2239 14.3329,11.4608 15.6221,10.1716 0.3499,-0.3499 -0.6689,-4.7441 -2.264,-9.765 -5.3297,-16.7768 -4.4669,-39.8491 1.962,-52.4622 2.2508,-4.416 11.1194,-14.6669 12.6887,-14.6665 0.4012,10e-5 0.6674,6.3337 0.5916,14.0745 -0.2883,29.4534 5.8066,49.9253 14.8638,49.9253 5.3199,0 25.625,-15.2965 33.1837,-24.9985 5.4448,-6.9887 6.6104,-11.712 5.8473,-23.6958 -0.6753,-10.6064 0.8031,-11.0964 8.9375,-2.962 7.4874,7.4874 9.9583,15.7941 10.8046,36.323 0.7616,18.4751 1.3764,22.4403 3.2953,21.2544 0.7607,-0.4701 1.1335,-1.1042 0.8286,-1.4092 -0.8101,-0.8101 8.8335,-11.7574 20.0702,-22.7834 11.7726,-11.5519 20.0611,-15.8535 34.3068,-17.8047 5.8667,-0.8036 12.3359,-2.096 14.3761,-2.8719 7.0433,-2.6788 5.209,0.1376 -3.902,5.9911 -12.0789,7.7602 -23.9029,17.9789 -27.3365,23.625 -3.0029,4.9379 -3.7211,11.4894 -2.0096,18.332 0.5961,2.3834 0.5862,4.3311 -0.022,4.3284 -1.5012,-0.01 -5.7726,-10.6302 -5.7726,-14.3569 0,-5.58 5.4815,-14.7069 13.3276,-22.1908 4.2942,-4.096 7.5391,-7.4473 7.2108,-7.4473 -0.3283,0 -4.4931,1.7666 -9.255,3.9257 -6.9896,3.1693 -11.93,7.1506 -25.6374,20.6605 -9.3386,9.2042 -17.3603,16.7376 -17.826,16.741 -2.8363,0.021 -5.8219,-8.928 -8.0263,-24.0571 -2.3145,-15.8838 -6.1377,-30.629 -6.3795,-24.6035 -0.2501,6.2353 -6.6418,16.2836 -15.9023,25 -5.2591,4.95 -10.1861,9 -10.9489,9 -0.7629,0 -0.9555,0.75 -0.4279,1.6667 0.5275,0.9167 0.5179,1.2717 -0.021,0.7889 -0.5393,-0.4828 -5.7293,1.4672 -11.5333,4.3333 -10.7876,5.327 -15.2182,6.6489 -12.2129,3.6436 1.2012,-1.2013 0.6512,-2.1249 -2.3532,-3.952 -8.5039,-5.1715 -14.1987,-24.3666 -13.0608,-44.0232 0.653,-11.2798 -0.3697,-11.4038 -3.6348,-0.4409 -3.1057,10.4276 -3.4368,20.039 -1.2625,36.6503 2.5014,19.1102 3.0556,21.6276 4.5573,20.6995 2.5544,-1.5788 2.441,1.6132 -0.1357,3.8194 -2.359,2.0198 -2.9235,2.071 -4.265,0.3864 -0.8505,-1.0679 -3.7707,-2.3308 -6.4895,-2.8065 -5.6202,-0.9835 -15.9734,-8.6503 -21.9819,-16.2782 -5.3162,-6.7489 -10.5832,-17.2974 -15.2228,-30.4873 l -3.752,-10.6666 0.7314,12 c 1.3879,22.7717 6.9014,47.8132 17.1826,78.0413 3.7124,10.9148 3.8857,11.9587 1.986,11.9587 -0.7334,0 -1.3334,-0.6066 -1.3334,-1.3479 z m 439.8464,-47.6521 c -0.7055,-4.5951 11.0383,-37.2419 23.1422,-64.3334 15.3102,-34.268 22.8284,-62.2364 25.0889,-93.3333 3.6725,-50.5219 2.6254,-82.4644 -3.35,-102.185 -1.736,-5.7292 -2.8857,-7.2359 -7.0177,-9.1967 -4.5526,-2.1603 -24.4309,-15.9341 -32.4619,-22.4929 -1.8803,-1.5357 -5.1007,-3.9921 -7.1564,-5.4587 -2.0557,-1.4667 -8.9173,-6.8882 -15.2479,-12.0477 -6.3307,-5.1596 -13.6103,-10.8545 -16.177,-12.6554 -2.5666,-1.8009 -7.6908,-5.9794 -11.387,-9.2856 -13.3112,-11.9068 -21.1275,-18.008 -22.8401,-17.8286 -0.9593,0.1006 -1.4628,-0.2723 -1.119,-0.8287 0.3438,-0.5563 -4.9126,-6.6386 -11.681,-13.5161 -6.7684,-6.8775 -15.0062,-15.7639 -18.3062,-19.7474 -3.3,-3.9835 -7.5414,-9.0835 -9.4254,-11.3333 -1.884,-2.2498 -9.6241,-12.1906 -17.2002,-22.0906 -7.5762,-9.9 -14.9512,-19.05 -16.389,-20.3333 -1.4378,-1.2833 -2.2282,-2.3333 -1.7564,-2.3333 1.6148,0 -23.3941,-29.98684 -38.92,-46.66674 -33.1865,-35.6534 -39.6984,-40.9535 -76.9757,-62.6516 -36.1751,-21.05667 -60.1312,-31.30737 -86,-36.7991 -38.6616,-8.20754 -41.2988,-8.42568 -63.3333,-5.23859 -21.2489,3.07345 -36.7899,6.90381 -65.6352,16.17691 -35.5749,11.43652 -47.3112,17.39438 -90.3102,45.84568 -25.968,17.1824 -56.2375,45.6357 -88.7503,83.42534 -1.8493,2.1494 -6.0493,7.8081 -9.3333,12.5747 -3.2841,4.7667 -6.7738,9.5123 -7.7549,10.5458 -0.9811,1.0335 -4.261,5.2335 -7.2886,9.3333 -3.0276,4.0998 -7.3248,9.5682 -9.5494,12.1518 -6.0747,7.0551 -12.5484,15.0775 -25.2597,31.3025 -22.6986,28.973 -27.6165,34.1047 -59.4517,62.036 -6.754,5.9257 -18.1235,14.3057 -22.377,16.4932 -2.5628,1.318 -3.9971,2.8655 -3.4606,3.7336 0.5721,0.9256 0.3065,1.1056 -0.7071,0.4792 -0.8929,-0.5518 -2.6356,-0.1037 -3.8727,0.9958 -2.3535,2.0918 -56.0334,28.9288 -57.8638,28.9288 -3.828,0 1.4264,-3.8026 32.9478,-23.8449 19.1243,-12.1597 45.2979,-34.055 43.7341,-36.5853 -0.447,-0.7233 -0.2176,-0.9473 0.5099,-0.4977 1.7315,1.0702 11.4553,-8.8972 10.1165,-10.3698 -0.5649,-0.6214 -0.3644,-0.7521 0.4457,-0.2905 1.6263,0.9268 7.6235,-4.7383 6.5393,-6.1774 -0.3733,-0.4956 -0.284,-0.6063 0.1985,-0.2459 1.4062,1.0499 4.5123,-2.1521 3.5687,-3.6789 -0.473,-0.7653 -0.22,-0.9939 0.5639,-0.5095 1.8669,1.1538 14.8458,-13.1802 23.3611,-25.8001 3.7111,-5.5 7.1318,-10.3 7.6016,-10.6666 0.4697,-0.3667 6.1116,-8.1031 12.5374,-17.192 6.4259,-9.0889 12.5812,-17.4231 13.6785,-18.5204 1.0974,-1.0973 2.9878,-3.561 4.2009,-5.4747 1.2132,-1.9138 5.271,-7.3796 9.0174,-12.1463 3.7463,-4.7666 9.4624,-12.5507 12.7024,-17.298 10.1749,-14.9085 16.9519,-22.55614 43.1663,-48.71204 35.2786,-35.1998 43.0765,-41.2741 86.9469,-67.72904 27.1965,-16.40016 34.9158,-19.92299 67.7776,-30.93149 27.2649,-9.13358 33.5611,-10.7968 58,-15.32134 7.7,-1.42555 15.8,-2.92956 18,-3.34225 2.2,-0.41268 10.4026,-1.11871 18.228,-1.56896 16.5499,-0.95222 24.7716,0.36173 45.1053,7.20851 21.4297,7.21582 20.5312,6.78129 18.6667,9.02791 -1.7894,2.15602 0.3461,3.38676 9.2307,5.32009 4.9845,1.08463 30.9769,11.36789 38.6471,15.28976 4.608,2.35612 33.7716,18.95101 44.7889,25.48601 17.4121,10.3283 34.6951,25.6727 58.2485,51.7149 4.8802,5.3959 9.5139,9.4148 10.297,8.9308 0.8522,-0.5267 1.1264,-0.1048 0.683,1.0509 -0.4076,1.062 0.3728,2.7431 1.7342,3.7359 1.3613,0.9927 5.2424,5.405 8.6247,9.805 3.3822,4.4 7.2587,9.2151 8.6144,10.7003 1.3557,1.4852 8.1275,10.18524 15.0486,19.33334 6.921,9.1482 12.921,16.9331 13.3333,17.2997 0.4123,0.3667 4.6128,5.7667 9.3344,12 11.3847,15.0296 28.5606,34.7544 38.9831,44.7681 19.1056,18.3565 57.8577,49.0776 60.1332,47.6713 0.7577,-0.4683 0.9872,-0.2198 0.5101,0.5523 -0.4905,0.7936 9.1985,9.018 22.2938,18.9238 22.6585,17.1399 27.7375,21.7227 36.509,32.9431 4.7282,6.0482 5.3923,8.4748 2.3193,8.4748 -2.6447,0 -2.5224,1.7488 0.5425,7.7565 3.5736,7.0049 9.0654,35.6057 10.0314,52.2435 1.2358,21.2813 -1.3309,65.9761 -4.5813,79.7763 -4.6722,19.8367 -14.6165,48.1655 -23.3165,66.4221 -7.1,14.8993 -16.5607,31.4115 -19.3665,33.8016 -0.4305,0.3666 -4.5712,5.9166 -9.2016,12.3333 -7.6819,10.6454 -10.5079,13.4037 -10.9282,10.6667 z m -269.2128,-7.7535 c -2.986,-7.8539 -0.2315,-20.1793 6.6786,-29.8835 1.4349,-2.0152 2.1767,-4.1425 1.6484,-4.7273 -0.5284,-0.5848 -0.3165,-0.6971 0.4708,-0.2495 0.7872,0.4475 4.3787,-1.2818 7.9811,-3.843 3.6023,-2.5611 6.7314,-4.1113 6.9536,-3.4447 0.2222,0.6665 -2.8854,4.742 -6.9057,9.0566 -10.0634,10.8002 -13.3872,17.7751 -13.4279,28.1782 -0.035,8.8134 -1.2487,10.5686 -3.3989,4.9132 z m -756.3246,-183.2465 c -0.4257,-1.1 -1.0906,-10.1 -1.4775,-20 -0.4466,-11.4264 -1.7409,-22.3825 -3.544,-30 -1.5622,-6.6 -3.9347,-16.8 -5.2722,-22.6667 -3.0094,-13.2002 -7.3783,-24.248 -21.2074,-53.629 -10.1781,-21.624 -12.1784,-27.1254 -9.8079,-26.9737 1.8298,0.1172 19.1491,27.9897 24.2611,39.0443 8.676,18.7616 11.7706,27.7612 14.7489,42.8917 1.5878,8.0667 3.4843,17.3667 4.2144,20.6667 2.4982,11.2919 0.7494,57.5524 -1.9154,50.6667 z m 123.0243,-147.8802 c 0,-0.6674 4.65,-5.3174 10.3333,-10.3333 5.6834,-5.0159 10.6334,-9.4402 11,-9.8318 0.3667,-0.3915 3.6667,-3.081 7.3334,-5.9766 17.6815,-13.9635 28.9649,-26.1028 39.6868,-42.6972 5.0946,-7.8848 14.3132,-26.1333 14.3132,-28.3332 0,-0.3759 -3.9197,4.6571 -8.7103,11.1844 -14.1909,19.3354 -15.4572,20.8307 -24.9939,29.5145 -14.9126,13.579 -35.2524,26.4127 -48.0445,30.3145 -6.0806,1.8547 -11.497,3.3722 -12.0365,3.3722 -1.0398,0 6.4266,-11.3788 16.1854,-24.6667 6.8369,-9.3093 9.651,-14.4375 10.9747,-20 0.805,-3.3828 -1.4391,-1.6221 -14.5449,11.4118 -8.5232,8.4765 -18.2769,17.3073 -21.675,19.6241 -7.2406,4.9365 -24.2711,10.9641 -30.9781,10.9641 -2.5774,0 -5.0631,0.6098 -5.5237,1.3551 -0.4606,0.7453 -1.4252,0.9919 -2.1435,0.548 -0.8415,-0.5201 -0.8129,-1.4012 0.081,-2.4778 0.7626,-0.9188 1.0404,-2.0168 0.6173,-2.4399 -0.4231,-0.4231 0.6321,-1.5159 2.3449,-2.4285 3.8406,-2.0462 6.4642,-5.4511 5.4566,-7.0815 -0.415,-0.6714 -0.1428,-0.8427 0.6048,-0.3806 1.928,1.1915 16.7588,-14.6505 20.3976,-21.7884 2.8833,-5.6559 2.4691,-5.3713 -7.801,5.3603 -5.9653,6.2333 -10.853,10.7903 -10.8616,10.1267 -0.01,-0.6637 -1.0917,-0.2328 -2.4069,0.9574 -2.8612,2.5894 -21.7627,11.5391 -32.942,15.5979 -5.2395,1.9023 -12.2599,3.1044 -20.3454,3.4838 l -12.3455,0.5793 -12.3212,-10.5407 c -6.7767,-5.7974 -17.3273,-16.3159 -23.4457,-23.3743 -6.1452,-7.0893 -11.7578,-12.4422 -12.5394,-11.9592 -0.8345,0.5158 -1.0228,0.2401 -0.4591,-0.672 0.5489,-0.8881 -3.9285,-8.7007 -10.5161,-18.3496 -12.9236,-18.9292 -19.0063,-30.3178 -24.6985,-46.24234 -5.8755,-16.4378 -14.1065,-51.3869 -16.7443,-71.098 -0.4791,-3.5799 -1.1705,-7.0049 -1.5363,-7.611 -0.3659,-0.6061 -0.6062,-13.11169 -0.5339,-27.7902 0.1616,-32.8499 3.5128,-51.65885 15.2825,-85.77449 10.2069,-29.58593 13.0263,-37.23934 18.0838,-49.08951 10.4146,-24.40214 10.4102,-25.454 -0.023,-5.54825 -3.8354,7.31743 -10.8346,20.20442 -15.5537,28.63776 -14.6219,26.12987 -18.2159,38.11154 -21.5235,71.75482 -1.2528,12.74264 -3.0314,15.9353 -5.2815,9.48057 -0.8245,-2.36499 -1.499,-6.13045 -1.499,-8.36769 0,-2.95736 -0.4002,-3.66751 -1.4661,-2.60161 -2.0812,2.08123 -2.8766,59.95708 -0.9721,70.7339 0.81,4.5833 1.9338,8.3333 2.4973,8.3333 0.5635,0 0.7386,1.0938 0.389,2.4305 -0.3496,1.3368 0.6841,6.2868 2.2971,11 3.9679,11.5944 5.1826,17.1234 3.9317,17.8965 -0.575,0.3554 -2.0697,-2.4978 -3.3216,-6.3404 -1.2519,-3.8426 -2.8801,-7.7216 -3.6181,-8.62 -0.7381,-0.8984 -2.7444,-6.8984 -4.4586,-13.3333 l -3.1166,-11.6999 -0.055,11.3333 c -0.079,16.447 1.9288,27.8075 7.2486,41.009 9.2635,22.9882 29.1358,53.65774 34.7675,53.65774 1.0321,0 1.8765,0.6 1.8765,1.3333 0,3.2382 -4.8062,0.7547 -12.2565,-6.3333 -15.1078,-14.37314 -34.6253,-48.12594 -38.4456,-66.48624 -2.0276,-9.7442 -0.9015,-26.4345 2.5657,-38.027 1.9958,-6.67302 2.7517,-15.04093 3.5368,-39.15349 0.5492,-16.86667 0.8669,-36.26874 0.7059,-43.11571 -0.2641,-11.23463 -0.065,-12.40512 2.0452,-11.99881 1.6569,0.31908 3.1093,3.2936 4.9864,10.21179 3.0495,11.23938 4.1297,10.4875 5.3898,-3.75163 1.1546,-13.04598 5.0649,-25.91377 12.293,-40.45265 11.9959,-24.12914 33.168,-57.43845 35.854,-56.40775 0.8845,0.33942 2.6509,-1.5809 3.9254,-4.26739 3.9441,-8.31415 15.5832,-27.16438 21.8611,-35.4053 18.812,-24.69467 43.4795,-48.9294 55.6856,-54.70873 12.8822,-6.09944 45.4334,-10.936 64.9423,-9.64934 12.6411,0.83371 31.6981,4.96112 40.1322,8.69195 l 5.8496,2.58752 -1.1687,-4.07481 c -0.6427,-2.24115 -3.4422,-6.83129 -6.2211,-10.20032 -18.6344,-22.59185 -34.8861,-52.53115 -41.0553,-75.63304 -3.2572,-12.19757 -2.7433,-48.49246 0.6866,-48.49246 1.1088,0 2.9702,12.16872 5.3586,35.03127 1.7444,16.69806 7.8012,32.55184 22.6062,59.17292 4.8402,8.70323 20.5364,29.24914 31.7862,41.60721 12.6197,13.86295 21.6292,26.46834 21.5248,30.11565 -0.075,2.63855 -0.137,2.64695 -1.6666,0.22767 -3.705,-5.85967 -7.9297,-10.10108 -9.2492,-9.28562 -0.7798,0.48194 -1.0534,0.28672 -0.6081,-0.43383 0.4453,-0.72055 -2.762,-4.84447 -7.1273,-9.16427 -4.3654,-4.31981 -7.937,-7.15838 -7.937,-6.30795 0,0.85043 0.6,1.91706 1.3333,2.37029 0.7333,0.45322 1.3333,1.69669 1.3333,2.76327 0,3.74626 13.1575,31.28027 19.524,40.85684 3.5396,5.32434 9.9471,13.13795 14.2389,17.36359 4.2917,4.22563 6.9179,7.68297 5.836,7.68297 -4.3919,0 -25.9944,-7.059 -31.5989,-10.32547 l -6,-3.49704 6.9008,7.97769 c 7.4725,8.63879 23.0032,22.91782 35.7659,32.88354 3.0705,2.39761 15.2816,11.07651 17.5472,12.47157 3.5235,2.16955 1.632,3.33532 -2.9684,1.82957 -2.1517,-0.70424 -8.7121,-2.80285 -14.5788,-4.66358 -5.8667,-1.86073 -17.0763,-6.5241 -24.9103,-10.36305 -7.834,-3.83894 -13.2876,-5.92613 -12.1191,-4.63819 3.1086,3.42638 29.0545,23.74614 34.3877,26.931 2.5118,1.50001 11.4632,7.52729 19.892,13.39396 8.4288,5.86667 20.5016,13.96667 26.8286,18 6.3269,4.03333 14.9059,10.63333 19.0643,14.66667 7.4381,7.2143 13.5294,16.4385 11.9189,18.04905 -0.4516,0.45154 -4.6253,-0.76402 -9.2749,-2.70125 -7.5589,-3.14938 -25.1205,-6.1711 -25.1205,-4.32235 0,0.39813 2.6584,1.6297 5.9076,2.73681 12.8756,4.38715 31.8293,20.79288 41.0957,35.57107 2.529,4.03334 6.2205,12.43334 8.2033,18.66667 1.9829,6.23333 4.1776,12.38333 4.8772,13.66667 1.8289,3.35462 -0.7309,2.98163 -5.8394,-0.85086 -2.3345,-1.7513 -7.5444,-4.9013 -11.5778,-7 -6.9747,-3.62921 -8.132,-3.80778 -23.6666,-3.65166 -8.9834,0.0903 -16.3334,-0.28584 -16.3334,-0.83581 0,-1.63109 12.8416,-6.66167 17.0052,-6.66167 6.2787,0 16.4012,3.58844 25.9948,9.21526 4.95,2.90323 9,5.05072 9,4.7722 0,-0.27851 -2.0737,-5.05683 -4.6082,-10.61848 -8.1486,-17.88099 -19.8707,-30.38082 -40.9786,-43.6977 -14.168,-8.93848 -17.7271,-11.48103 -16.9994,-12.14404 1.2315,-1.12195 15.8165,-4.86058 18.962,-4.86058 1.8142,0 5.6219,0.93203 8.4614,2.07117 l 5.1628,2.07117 -5.3333,-4.64854 c -2.9333,-2.55669 -11.6333,-8.40767 -19.3333,-13.00216 -20.6912,-12.34615 -52.4213,-33.64004 -65.3334,-43.84482 -15.185,-12.00116 -23.0974,-19.70434 -28.5268,-27.77237 -2.486,-3.69412 -4.9161,-6.32039 -5.4004,-5.83616 -0.4842,0.48423 -0.4467,-0.24971 0.083,-1.63099 0.7421,-1.93393 0.5284,-2.25867 -0.9295,-1.41226 -1.0413,0.60453 -1.4816,0.64127 -0.9784,0.0816 0.5032,-0.55965 0.3522,-2.49765 -0.3356,-4.30668 -0.9355,-2.46038 -0.7313,-3.80842 0.8102,-5.34996 2.3178,-2.31774 1.3596,-2.87089 13.6106,7.85737 3.85,3.37149 10.15,8.18775 14,10.7028 7.9177,5.17233 32.7939,18.41412 27.6869,14.73796 -31.3534,-22.56915 -46.2331,-38.06991 -56.5059,-58.86443 -2.6662,-5.39708 -4.8477,-10.04708 -4.8477,-10.3333 0,-2.24304 4.3345,0.93453 12.4764,9.14626 8.7406,8.81561 19.002,15.66636 29.3705,19.60846 3.4895,1.3267 3.3104,0.92091 -2.3932,-5.4229 -7.0451,-7.8358 -16.2917,-24.13762 -22.6963,-40.01387 -4.2756,-10.59858 -4.5644,-10.95271 -10.908,-13.37805 -21.4236,-8.19084 -52.4494,-10.72732 -78.5161,-6.41899 -24.9249,4.11962 -28.2939,5.99717 -50.0068,27.8689 -18.6254,18.76158 -41.3531,51.64623 -51.8035,74.95423 -20.1193,44.8729 -36.2204,94.78979 -40.2403,124.7537 -1.5686,11.69162 -1.1929,47.18666 0.5815,54.94852 0.4066,1.7784 1.3956,8.0784 2.1978,14 0.8022,5.9217 2.5511,15.2667 3.8864,20.7667 1.3353,5.5 3.6916,15.4 5.2362,22 5.2175,22.2949 12.5477,37.56394 30.7224,63.99564 12.1383,17.6529 17.0204,24.013 23.4263,30.5185 1.4667,1.4894 3.8667,4.317 5.3334,6.2834 1.4666,1.9665 8.3904,8.6949 15.3862,14.952 l 12.7196,11.3766 10.108,-1.7553 c 5.5594,-0.9654 15.2792,-3.8636 21.5996,-6.4404 21.0003,-8.5617 28.34,-13.5411 44.9643,-30.5044 8.4944,-8.6676 16.1972,-15.7593 17.1172,-15.7593 1.99,0 1.0625,7.6955 -2.1695,18 -3.2367,10.3195 -6.3439,15.6695 -13.9056,23.9432 l -6.9723,7.6289 5.2429,-2.1811 c 7.615,-3.1679 13.1941,-7.306 32.2274,-23.9036 21.2299,-18.5131 27.0155,-22.8914 27.0155,-20.4442 0,1.0151 -0.3659,2.2115 -0.813,2.6586 -0.4471,0.4471 -0.9814,3.9971 -1.1873,7.8889 -0.4248,8.0289 -1.7488,11.9526 -6.6568,19.7274 -1.8914,2.9962 -3.0247,6.1181 -2.5183,6.9375 0.5064,0.8193 0.3313,1.1254 -0.3891,0.6802 -0.7204,-0.4452 -3.5429,1.8621 -6.2723,5.1273 -2.7294,3.2653 -4.4107,5.9369 -3.7361,5.9369 1.3259,0 25.8189,-16.113 28.797,-18.9445 0.9963,-0.9472 4.9158,-4.1222 8.7101,-7.0555 3.7943,-2.9334 11.5113,-11.0095 17.1489,-17.9469 12.3335,-15.1771 28.5627,-32.0532 30.8246,-32.0532 1.1437,0 1.3653,1.3069 0.735,4.3334 -1.4711,7.0635 -7.4065,23.8355 -10.9706,31 -7.3409,14.7568 -26.8503,39.1759 -38.3388,47.987 -1.4666,1.1248 -6.2666,4.8107 -10.6666,8.1908 -4.4,3.3802 -7.8352,6.7175 -7.6337,7.4164 0.2015,0.6989 -0.2101,0.9144 -0.9147,0.4789 -0.7047,-0.4355 -5.0126,1.6199 -9.5731,4.5675 -8.4677,5.4729 -10.5452,6.2897 -10.5452,4.1459 z m -152.9098,-8.4944 c -2.3338,-3.094 -14.6338,-16.1389 -27.3334,-28.9887 -26.4762,-26.7894 -31.5853,-33.1174 -40.8836,-50.6367 -8.952,-16.8671 -14.1442,-31.3972 -17.4488,-48.82994 -4.1099,-21.681 -0.6378,-21.141 7.0831,1.1016 11.8197,34.05054 12.6604,36.04624 21.5089,51.06164 7.5904,12.8804 26.8136,36.2873 29.2005,35.5555 0.7974,-0.2444 0.9875,0.018 0.4226,0.5827 -1.2566,1.2567 8.351,11.3583 9.8952,10.404 0.6058,-0.3744 0.7805,0.1555 0.3883,1.1776 -0.4114,1.072 1.4288,3.7943 4.3486,6.4334 5.4789,4.952 13.1018,14.8719 17.5565,22.8468 3.8746,6.9362 0.6663,6.4569 -4.7379,-0.7079 z m 1102.9098,-30.2921 c -0.4532,-0.7333 -0.4886,-1.4083 -0.079,-1.5 10.2144,-2.284 45.715,-22.187 60.6762,-34.0174 8.6498,-6.8397 18.4635,-18.5327 16.8818,-20.1145 -0.2203,-0.2202 -3.0849,0.787 -6.3659,2.2383 -20.8368,9.2171 -55.6432,10.5146 -75.0952,2.7993 -3.8167,-1.5139 -9.46,-6.4179 -8.4856,-7.374 0.2571,-0.2523 3.1674,-0.7653 6.4674,-1.1401 16.2553,-1.8459 41.3333,-7.6192 41.3333,-9.5155 0,-0.2842 -3.2478,-0.1816 -7.2175,0.2281 -12.2899,1.2685 -55.4491,-7.6036 -55.4491,-11.3984 0,-0.5148 4.35,-2.5651 9.6666,-4.55644 5.3167,-1.9912 12.0667,-5.1657 15,-7.0543 l 5.3334,-3.4339 -10,1.0438 c -13.0973,1.3671 -31.3855,1.4 -37.6667,0.068 -4.1407,-0.8782 -5,-0.6928 -5,1.0787 0,1.1775 -0.6402,1.7434 -1.4242,1.2589 -0.7834,-0.4842 -1.0809,-1.7751 -0.6612,-2.8688 0.4842,-1.2618 -0.2135,-2.2439 -1.9091,-2.6873 -1.4697,-0.3843 -2.6648,-1.0788 -2.6558,-1.5433 0.01,-0.4644 6.3426,-4.0984 14.0747,-8.0754 12.4771,-6.4177 26.9628,-16.8263 25.4804,-18.3087 -0.2994,-0.2994 -5.0669,1.8951 -10.5945,4.8767 -22.7662,12.2799 -42.3588,17.2083 -68.7073,17.2831 -15.7532,0.045 -16.5168,-0.083 -19.4493,-3.247 -3.8338,-4.1367 -12.2069,-34.4174 -16.9707,-61.3732 -0.648,-3.6666 -1.1272,-14.06464 -1.0651,-23.10667 0.062,-9.04202 -0.1666,-16.71974 -0.5084,-17.06159 -0.3419,-0.34185 -1.0399,2.16771 -1.5511,5.57681 -1.1413,7.61117 -8.4006,25.10795 -14.1057,33.99855 -4.2015,6.5474 -16.4085,18.5929 -18.8423,18.5929 -0.6973,0 -0.8489,0.6779 -0.3368,1.5064 0.5648,0.9139 0.2025,1.2645 -0.9213,0.8914 -6.4208,-2.1313 -9.6567,-44.89288 -4.5704,-60.39776 0.4811,-1.46666 -0.4504,-0.26931 -2.0701,2.6608 -7.1768,12.98337 -16.657,23.26311 -28.3256,30.71426 -5.4992,3.5116 -6.5309,1.0819 -5.6792,-13.37506 0.7927,-13.45347 3.2626,-23.00558 8.8916,-34.38631 4.2617,-8.61625 4.0723,-8.58896 -8.0986,1.1668 -15.1891,12.1751 -28.7235,28.16048 -32.4308,38.30402 -0.4861,1.32985 -1.4188,2.08715 -2.0727,1.68295 -2.9752,-1.8387 -2.3783,-10.33541 1.9742,-28.10079 9.4356,-38.51395 32.7595,-76.03825 69.3533,-111.57841 17.96,-17.44282 25.0908,-22.12572 61.3968,-40.32006 24.5809,-12.3185 45.9194,-19.23805 60.4459,-19.60119 l 7.3333,-0.18333 -7.3333,-1.0577 c -4.0334,-0.58173 -8.8334,-1.48544 -10.6667,-2.00824 -1.8333,-0.5228 -11.2833,-1.22703 -21,-1.56496 -11.1335,-0.38721 -17.6667,-1.13546 -17.6667,-2.02339 0,-3.22261 11.0046,-11.44414 24.0544,-17.97098 13.9661,-6.98515 31.1368,-12.35842 39.4923,-12.35842 2.4493,0 4.4533,-0.52864 4.4533,-1.17477 0,-1.53471 -23.649,-3.29876 -28.3628,-2.11567 -2.0359,0.51097 -3.6372,0.35897 -3.6372,-0.34525 0,-1.30602 20.6654,-21.91823 30,-29.92288 14.0544,-12.05184 43.6347,-31.95304 62.6667,-42.16117 7.3333,-3.93336 11.8333,-6.78248 10,-6.33138 -1.8333,0.4511 -7.7793,1.99714 -13.2133,3.43565 -5.434,1.43851 -10.384,2.61547 -11,2.61547 -2.8328,0 -0.568,-4.15114 5.2133,-9.55513 12.1279,-11.33646 28.5678,-21.03123 50.6979,-29.89713 2.1248,-0.85122 -0.6943,-1.18272 -9.4261,-1.10845 -6.8515,0.0583 -13.1656,0.54369 -14.0312,1.07869 -0.9349,0.5778 -1.5739,0.18309 -1.5739,-0.97217 0,-3.17694 13.6327,-14.67509 23.4943,-19.81561 5.0448,-2.62969 14.9778,-6.41403 22.0733,-8.40963 l 12.901,-3.62838 7.7657,6.27452 c 52.7179,42.59513 88.2774,108.55072 98.8608,183.36663 13.0586,92.31404 -10.3799,189.54565 -64.4532,267.37573 -11.4451,16.4735 -30.4949,38.99744 -39.9158,47.19534 -2.1674,1.8859 -6.6674,5.8653 -10,8.8431 -22.8294,20.3981 -49.9862,37.0267 -78.9887,48.3661 -15.8692,6.2045 -15.2724,6.051 -16.4041,4.2198 z m 97.0713,-64.5949 c 7.0214,-6.8366 11.3586,-12.0428 10.794,-12.9564 -0.5587,-0.9039 -0.3567,-1.1645 0.4947,-0.6382 1.6381,1.0124 12.6159,-11.00514 23.5776,-25.81054 4.0721,-5.5 8.452,-11.4069 9.7331,-13.1264 9.9213,-13.3167 24.8176,-40.579 34.0941,-62.3971 13.2843,-31.24423 21.3012,-60.65672 26.4781,-97.14319 2.2425,-15.80507 2.2458,-73.49295 0.01,-89.33334 -6.7213,-47.51616 -20.4056,-88.02147 -41.4419,-122.66667 -9.1204,-15.02072 -11.5441,-18.32776 -24.9176,-34 -10.673,-12.50752 -14.4766,-16.23868 -28.5438,-28.00001 -3.947,-3.3 -8.1815,-6.96721 -9.4099,-8.14936 -2.0622,-1.98441 -3.4412,-1.60301 -17.969,4.96978 -13.359,6.04401 -25.9659,13.14066 -25.9659,14.61668 0,0.22426 4.116,0.0627 9.1468,-0.35908 10.0436,-0.84202 21.7243,1.28849 24.3393,4.43938 2.4998,3.01208 -0.6125,5.08154 -13.4861,8.96732 -13.8317,4.17498 -29.2811,11.54624 -43.3098,20.66411 -5.7977,3.76815 -10.2002,6.85118 -9.7833,6.85118 0.4168,0 3.3833,-0.93191 6.5921,-2.0709 9.7083,-3.44597 24.8906,-7.26356 28.8098,-7.24423 5.4582,0.0269 9.6912,1.41667 9.6912,3.18174 0,0.85557 -7.7773,5.03688 -17.2829,9.29178 -12.233,5.47571 -24.7974,12.72925 -43,24.82424 -14.1444,9.39843 -27.2495,18.49714 -29.1223,20.21937 -1.8729,1.72224 -5.7729,4.77237 -8.6667,6.77808 -2.8938,2.00571 -7.0614,5.30944 -9.2614,7.34161 -2.2,2.03217 -5.9021,5.26203 -8.2267,7.17745 l -4.2267,3.48259 5.7787,-0.65135 c 3.1783,-0.35824 8.7679,0.0657 12.4213,0.94217 6.7138,1.61063 13.6734,7.0258 11.0852,8.62537 -0.7528,0.46525 -10.0535,3.8062 -20.6682,7.42433 -10.6147,3.61813 -24.8939,9.19831 -31.7316,12.40038 l -12.432,5.82195 10.8713,-0.60282 c 6.0054,-0.333 14.062,0.11021 18,0.99023 9.2056,2.05718 23.7953,6.99098 23.7953,8.04685 0,0.45047 2.1,0.57386 4.6667,0.27422 9.4327,-1.10121 4.1349,1.89135 -13.0393,7.36557 -9.6951,3.09024 -22.4274,6.88104 -28.294,8.42399 -11.5524,3.03831 -54.0816,23.61807 -70.4666,34.09853 -18.0572,11.55005 -59.1669,56.27895 -69.6663,75.79952 -0.8064,1.4993 -3.3694,6.02601 -5.6956,10.05934 -8.1884,14.19797 -11.9676,22.22313 -15.3677,32.63356 -1.8887,5.78273 -3.254,10.69407 -3.034,10.9141 0.2201,0.22003 4.2131,-3.85878 8.8735,-9.06403 9.6073,-10.7305 22.4441,-20.61106 37.9943,-29.24438 13.3574,-7.41587 12.6957,-7.16595 12.6957,-4.79481 0,1.1 -0.4612,2.2 -1.025,2.44445 -2.0295,0.88002 -13.4096,17.98691 -18.04,27.11815 -6.1059,12.04104 -12.4898,37.99295 -9.3458,37.99295 2.3078,0 14.8347,-13.12507 20.3848,-21.35837 7.7534,-11.50157 14.7005,-19.97495 16.3771,-19.97495 0.9088,0 0.9914,3.66741 0.2479,11 -1.4057,13.86362 -1.444,36.60962 -0.079,46.83012 l 1.0459,7.83 5.772,-5.6648 c 6.5682,-6.4462 15.0831,-22.80789 22.7423,-43.70011 2.7633,-7.53763 5.627,-13.50386 6.3637,-13.25829 3.0047,1.00157 5.2464,11.89595 6.2339,30.29641 0.5867,10.93229 2.2311,24.54779 3.7842,31.33329 1.5107,6.6 3.3973,16.4603 4.1924,21.9116 0.837,5.7388 2.8858,12.5578 4.8665,16.1969 3.2528,5.9765 3.7581,6.3249 10.2832,7.0905 8.7204,1.0232 32.5846,-1.0676 42.3438,-3.7097 6.9229,-1.8743 36.358,-13.0953 46.0534,-17.5562 8.7738,-4.0368 10.0032,-1.157 3.7282,8.7336 -5.6653,8.9296 -15.1737,15.7032 -29.1606,20.7734 l -8.1024,2.9371 8.6666,0.9107 c 4.7667,0.5009 13.7667,0.2628 20,-0.5291 6.2334,-0.7919 13.7334,-1.7328 16.6667,-2.0909 8.3062,-1.014 17.932,-3.4792 18.7495,-4.8018 1.1507,-1.862 5.55,-1.4127 6.3406,0.6475 1.3622,3.5498 -16.9747,17.1827 -30.5285,22.69704 l -7.6195,3.1 7.8155,0.9765 c 4.2986,0.537 9.0366,1.2942 10.529,1.6826 1.4924,0.3884 12.1634,0.992 23.7134,1.3413 11.55,0.3493 20.9558,1.0223 20.9018,1.4954 -0.054,0.4732 -3.0015,3.3441 -6.55,6.3799 -8.353,7.146 -22.0164,11.5629 -36.1857,11.6976 -9.5391,0.091 -9.9159,0.2023 -6.0988,1.8073 11.8363,4.9768 44.9263,4.4851 62.018,-0.9215 11.9412,-3.7774 21.4672,-5.995 22.2763,-5.1858 0.4084,0.4084 -0.1066,3.207 -1.1443,6.2191 l -1.8869,5.4767 3.5015,-2.5561 c 1.9258,-1.4058 8.7835,-7.6992 15.2394,-13.9851 z m -984.4046,58.4466 c 0,-0.4482 2.3213,-3.5982 5.1585,-7 16.2701,-19.5077 26.469,-38.4978 35.6341,-66.3497 4.9717,-15.10834 6.4013,-21.76754 7.9698,-37.12314 2.6739,-26.1784 3.4304,-31.3408 4.7086,-32.1307 2.3804,-1.4712 2.8484,7.2694 1.4952,27.9224 -1.3127,20.0347 -1.8095,22.6784 -7.3079,38.88764 -9.6596,28.4765 -22.2253,51.2036 -37.8667,68.4879 -6.5901,7.2822 -9.7916,9.6709 -9.7916,7.3056 z m 128.2412,-122.93684 c -3.4587,-7.6529 -15.2347,-22.3903 -17.4848,-21.8819 -0.8917,0.2015 -1.2952,-0.1613 -0.8966,-0.8062 0.9961,-1.6119 -5.1201,-7.1639 -6.5059,-5.9057 -0.6131,0.5567 -0.7252,0.3302 -0.2491,-0.5034 1.0501,-1.8383 -2.2388,-4.8642 -3.7746,-3.4728 -0.6001,0.5436 -0.6942,0.2946 -0.2092,-0.5534 1.2802,-2.238 -11.5046,-13.2326 -18.1585,-15.6157 -3.0961,-1.1089 -10.2792,-3.3395 -15.9625,-4.95691 -5.6834,-1.61739 -10.3334,-3.4533 -10.3334,-4.07981 0,-2.26564 16.801,-1.14402 25.1629,1.67985 6.1289,2.06975 10.51,4.81607 16.4841,10.33337 17.2458,15.9268 40.1403,48.7616 35.849,51.4138 -0.5879,0.3633 -2.3525,-2.1797 -3.9214,-5.6512 z m -3.0856,-33.9149 c -4.7887,-8.9517 -30.2642,-30.82155 -43.8223,-37.61995 -3.3,-1.6547 -10.8,-4.60152 -16.6667,-6.54848 -17.8541,-5.9252 -19.1378,-8.3974 -3.1988,-6.16048 14.1394,1.98438 26.3974,8.24003 40.8314,20.83774 10.1645,8.87134 25.2043,26.33527 26.7986,31.11787 0.8904,2.6715 -2.3605,1.3299 -3.9422,-1.6267 z m 448.9677,-98.54236 c -1.2111,-1.71838 -3.3843,-6.93753 -4.8294,-11.59811 -4.9914,-16.09855 -2.7307,-52.37463 4.5878,-73.61662 l 1.7772,-5.15821 -5.9255,5.6243 c -7.245,6.87667 -13.1832,18.92572 -19.703,39.97824 -2.672,8.62799 -5.0686,16.72799 -5.3259,18 -1.0522,5.20263 -3.4501,9.75469 -4.7238,8.9675 -0.7467,-0.46146 -1.0166,-1.3907 -0.5999,-2.06496 0.4167,-0.67426 -0.054,-0.91463 -1.0451,-0.53415 -3.6447,1.39862 -11.5844,-6.53064 -16.6749,-16.65317 -4.8812,-9.70626 -4.9942,-10.26844 -4.9942,-24.85775 0,-14.65938 -0.042,-14.86373 -2.3277,-11.40248 -3.5851,5.42822 -4.9419,10.13007 -7.0766,24.52441 -0.5166,3.48333 -1.3846,6.33333 -1.929,6.33333 -1.6392,0 -2.821,-12.86261 -1.8525,-20.1632 0.7465,-5.6275 2.1043,-8.23174 7.7126,-14.793 3.7436,-4.37973 7.7066,-9.55629 8.8066,-11.50347 1.1,-1.94718 2.16,-3.80033 2.3555,-4.11811 1.6055,-2.60885 2.8535,4.83748 3.458,20.63128 0.9763,25.51027 2.491,31.85539 9.9563,41.70549 3.7137,4.90012 4.7785,4.23805 6.0454,-3.75899 5.1255,-32.35379 12.7862,-47.82194 27.6002,-55.72923 9.0974,-4.8559 9.1202,-4.73931 7.4497,38.04802 -0.8989,23.02422 -0.7265,28.4555 1.1745,37 1.2254,5.508 2.5203,10.01455 2.8775,10.01455 1.4707,0 18.887,-10.1178 25.0564,-14.55623 17.1898,-12.36663 38.4827,-32.04583 45.0276,-41.61514 17.5907,-25.71935 30.7064,-63.9196 28.5402,-83.12526 -0.758,-6.72112 0.9668,-11.37005 4.2184,-11.37005 3.5462,0 11.8932,12.54826 15.5089,23.31498 0.7308,2.17596 1.7265,1.1058 5.5827,-6 12.5119,-23.05565 20.4373,-46.25162 23.2161,-67.94801 1.5905,-12.41872 2.3061,-14.7003 4.6104,-14.7003 2.7847,0 3.5566,2.02494 6.0563,15.88692 2.3042,12.7786 2.554,29.49115 0.6243,41.77975 -0.547,3.48333 -0.6488,6.33333 -0.2262,6.33333 1.4632,0 11.5689,-15.91785 18.789,-29.59543 8.9635,-16.97999 20.6645,-44.66746 25.2459,-59.73791 11.2568,-37.02915 15.9961,-86.25772 11.5562,-120.03867 -3.3373,-25.3926 -14.5535,-71.27449 -23.4586,-95.96134 -6.312,-17.49832 -19.7683,-45.65229 -27.4105,-57.34974 -9.1012,-13.93057 -27.351,-37.01205 -36.424,-46.06718 -12.3863,-12.36188 -34.3892,-31.4179 -41.9568,-36.33734 -4.1104,-2.67206 -9.7611,-6.76027 -12.5572,-9.08491 l -5.0837,-4.22663 -22.1297,12.86623 c -20.6157,11.98599 -23.405,14.09771 -40.7704,30.86624 -19.0421,18.38769 -26.3019,26.95 -31.5159,37.17017 -3.4139,6.69181 -3.2478,6.62001 11.6777,-5.04838 9.8275,-7.6829 22.9058,-22.29219 22.9058,-25.58724 0,-0.66067 0.8788,-1.20122 1.953,-1.20122 1.0742,0 2.6298,-1.26442 3.4569,-2.80981 0.9235,-1.72556 1.9807,-2.3329 2.7397,-1.5739 1.8336,1.83361 -9.5968,34.02754 -18.2106,51.2904 -7.7251,15.48171 -14.8043,26.19023 -25.4898,38.55767 -3.5471,4.1054 -9.1375,10.7054 -12.4232,14.66667 -3.2857,3.96127 -9.3127,10.50231 -13.3934,14.53564 -8.273,8.17686 -16.3341,18.62973 -22.1074,28.66667 l -3.8347,6.66667 4.6547,-3.09578 c 9.3244,-6.20146 21.0644,-11.09461 25.5788,-10.66103 3.8947,0.37405 4.458,0.92916 4.8271,4.75681 0.2298,2.38333 -0.1713,4.33333 -0.8913,4.33333 -2.7623,0 -22.7796,18.96468 -36.5909,34.66667 -16.7208,19.00974 -36.6863,52.83413 -45.278,76.70729 -3.7286,10.36018 -6.5927,23.20825 -8.462,37.95938 l -0.7603,6 3.9585,-6.66667 c 2.1771,-3.66666 6.4032,-9.91597 9.3913,-13.88733 2.9881,-3.97137 5.1142,-7.73624 4.7248,-8.36637 -0.3895,-0.63014 -0.2098,-0.98084 0.3994,-0.77933 0.6091,0.2015 3.3057,-2.0316 5.9925,-4.96245 2.6867,-2.93085 5.3438,-4.87005 5.9045,-4.30933 0.5607,0.56072 -0.9624,5.35868 -3.3847,10.66215 -12.5057,27.38029 -22.0925,53.17397 -24.8933,66.976 -1.9302,9.51177 -3.2174,28.0916 -2.494,36 1.5134,16.54713 5.7537,38.92343 8.5905,45.33333 0.6491,1.46667 1.4108,3.52687 1.6927,4.57823 0.2818,1.05135 2.7278,-2.04989 5.4354,-6.89166 5.4254,-9.70135 11.5805,-15.28124 22.4262,-20.33009 8.0605,-3.75233 10.192,-4.00333 13.3841,-1.57609 2.0817,1.58295 2.0652,2.97502 -0.2488,20.9576 -1.3632,10.59411 -2.8517,21.36202 -3.3079,23.92868 -4.7576,26.77021 -4.4571,40.01149 1.3183,58.08744 2.562,8.01858 5.562,16.17181 6.6667,18.11829 2.5174,4.43577 2.5504,6.46094 0.1053,6.46094 -2.8548,0 -6.2298,-4.95355 -14.1406,-20.75412 l -7.1577,-14.29636 -0.548,-15.47476 c -0.8218,-23.20038 4.4301,-51.0539 12.6831,-67.26534 1.0613,-2.08481 1.6325,-4.08771 1.2694,-4.45088 -1.1221,-1.12206 -12.4346,6.13132 -18.027,11.55856 -2.9205,2.83422 -8.4096,9.09733 -12.198,13.91802 -6.876,8.74951 -10.2234,11.06313 -8.9475,6.18432 0.3779,-1.44528 -0.097,-2.87668 -1.0793,-3.25367 -2.6101,-1.0016 -10.7814,-19.0631 -14.6732,-32.43327 -7.0962,-24.3787 -7.2269,-50.2335 -0.3746,-74.10026 1.799,-6.26582 2.6866,-12.89609 2.5397,-18.97098 -0.4056,-16.76651 2.244,-37.33645 6.4031,-49.71106 9.2094,-27.40032 26.7136,-58.32884 42.5393,-75.16319 2.523,-2.68381 4.1738,-5.54867 3.6685,-6.36637 -0.5054,-0.8177 -0.3896,-1.32186 0.2574,-1.12036 0.6469,0.20151 6.8415,-5.35546 13.7658,-12.3488 l 12.5895,-12.71518 -8.3068,3.01685 c -4.5688,1.65927 -9.1929,2.67683 -10.2759,2.26124 -2.8238,-1.08357 -1.4497,-7.18313 4.3208,-19.18107 2.6453,-5.5 4.7464,-10.79 4.6691,-11.75556 -0.077,-0.96555 0.1878,-1.42719 0.5891,-1.02585 0.4014,0.40134 2.2914,-1.28836 4.2,-3.75488 1.9087,-2.46652 7.6703,-9.2472 12.8037,-15.06817 5.1333,-5.82097 10.5333,-12.04127 12,-13.82289 1.4666,-1.78163 6.4166,-7.79174 11,-13.35582 4.5833,-5.56407 8.3333,-10.53916 8.3333,-11.05575 0,-0.51659 1.2489,-2.26417 2.7752,-3.8835 1.5264,-1.61934 6.5547,-10.59925 11.1739,-19.95536 l 8.3987,-17.01111 -4.9679,4.48822 c -8.9789,8.11186 -40.1438,27.534 -44.1813,27.534 -0.8583,0 1.4723,-2.98542 5.1791,-6.63426 4.3579,-4.28962 7.6751,-9.1196 9.3863,-13.66667 5.7703,-15.33266 14.8498,-28.10277 33.2804,-46.80792 15.9824,-16.22042 36.8548,-30.4293 51.3609,-34.96388 l 5.5947,-1.74889 -5.4331,-0.0892 c -10.976,-0.18019 -35.7006,10.36541 -64.5669,27.5392 -26.9239,16.01814 -28.0019,16.5871 -27.9683,14.76114 0.017,-0.94758 4.012,-4.42287 8.8768,-7.72287 4.8648,-3.3 9.5006,-6.61272 10.3016,-7.3616 3.8916,-3.63801 26.7925,-17.51021 37.4566,-22.68924 21.7478,-10.56198 31.9715,-12.35357 51.9908,-9.11081 7.1863,1.16406 30.8136,15.54551 44.7138,27.21637 51.273,43.04982 78.6122,85.16322 97.7745,150.61195 9.8306,33.57628 12.5321,44.87756 16.096,67.33334 4.2353,26.68643 4.317,55.25241 0.2294,80.14592 -6.4942,39.5498 -9.2989,50.63706 -19.0198,75.18742 -15.5163,39.18683 -36.4695,74.206 -47.5663,79.49771 -2.5477,1.21488 -5.1546,3.86674 -6.1934,6.30012 l -1.794,4.20218 -0.5567,-3.86685 c -0.3062,-2.12677 0.088,-6.42701 0.8758,-9.55608 0.7879,-3.12907 1.7704,-9.48899 2.1833,-14.13315 0.413,-4.64416 1.0166,-9.24222 1.3414,-10.21791 0.3248,-0.97569 0.1989,-5.98773 -0.2798,-11.13787 l -0.8703,-9.36388 -3.1992,11.0815 c -3.2166,11.14146 -10.8912,29.91182 -14.5416,35.56523 -1.0788,1.67071 -1.5403,3.77071 -1.0256,4.66667 0.5147,0.89595 0.4517,1.19105 -0.14,0.65577 -1.327,-1.20033 -12.685,15.81898 -12.685,19.00767 0,2.58776 -3.6056,6.13774 -4.9095,4.8338 -0.4648,-0.46481 -1.6648,-0.16481 -2.6667,0.66667 -3.1304,2.59799 -3.3633,0.29785 -0.5091,-5.02749 1.595,-2.97595 2.4018,-6.23914 1.9309,-7.80966 -1.7393,-5.80083 -4.8636,-11.30466 -6.0137,-10.59387 -0.6648,0.41087 -0.8859,1.26943 -0.4913,1.9079 1.2239,1.98025 -4.2065,24.11139 -8.667,35.32155 -15.1874,38.16965 -25.2435,52.22194 -53.5712,74.85977 -5.373,4.29379 -10.4641,8.45909 -11.3136,9.25621 -4.619,4.33419 -16.4402,10.62273 -24.2321,12.89081 -14.4387,4.20287 -14.3598,4.19918 -16.7667,0.78421 z M 2900.51,794.05721 c -0.4881,-0.78975 -0.4744,-5.46889 0.03,-10.39808 l 0.9178,-8.96216 -5.2394,5.03332 c -6.6952,6.43175 -25.1416,14.70633 -28.6266,12.84117 -2.7955,-1.49609 -2.9466,-2.77615 -1.088,-9.21663 1.0234,-3.54637 0.8298,-6.4078 -0.8112,-11.9912 -1.1854,-4.03333 -2.5712,-8.77599 -3.0794,-10.53923 -0.8833,-3.06406 -1.141,-2.91062 -5.8235,3.46825 -11.1589,15.2015 -32.7426,22.28888 -53.6301,17.61036 -4.4,-0.98554 -9.35,-1.63737 -11,-1.4485 -3.8467,0.44031 -3.7798,-0.84913 0.3333,-6.42421 4.5255,-6.13392 4.4466,-8.41942 -0.2072,-6.00498 -7.6685,3.97845 -21.1278,5.23491 -38.2559,3.57128 -17.4233,-1.6923 -29.0797,-4.19473 -29.815,-6.4008 -0.2517,-0.75496 1.0257,-2.04851 2.8387,-2.87455 4.827,-2.19932 12.6998,-9.66832 20.0427,-19.01465 6.1902,-7.87911 6.2852,-8.12616 2.3423,-6.08719 -10.2889,5.32057 -64.2789,14.10256 -64.2789,10.45557 0,-0.5783 3.6378,-4.25362 8.0841,-8.16736 5.0998,-4.48903 7.8126,-7.82344 7.3486,-9.03253 -0.4045,-1.05415 -0.2005,-1.586 0.4533,-1.18189 1.7719,1.09506 21.6624,-20.77922 20.8411,-22.91959 -0.3831,-0.99833 -0.1332,-1.46697 0.5554,-1.04142 0.6885,0.42555 4.2979,-3.7403 8.0208,-9.25745 l 6.769,-10.03117 -11.6449,7.51224 c -27.2181,17.55864 -48.9897,29.53787 -61.0941,33.61536 -13.8639,4.67023 -26.6191,9.67304 -27.9333,10.95593 -1.6961,1.65571 -3.771,1.58223 -2.7333,-0.0968 0.4532,-0.73334 0.1886,-1.33334 -0.588,-1.33334 -2.8172,0 -1.3228,-2.43691 2.2604,-3.68603 7.1449,-2.49071 37.7058,-37.84333 52.1005,-60.26947 l 4.6785,-7.28884 -10.1889,8.88628 c -23.8039,20.76052 -41.5681,31.3486 -68.1127,40.59751 -9.1796,3.19846 -13.6073,4.16976 -14.5789,3.19818 -0.9716,-0.97158 -0.8797,-4.94498 0.3024,-13.08315 0.9337,-6.4283 1.9889,-14.98781 2.3447,-19.02114 0.6307,-7.14722 0.5957,-7.24001 -1.3786,-3.65598 -1.1142,2.02255 -4.7276,11.54136 -8.0299,21.15291 -3.3023,9.61155 -6.2594,17.73071 -6.5713,18.04259 -0.7591,0.75914 -9.1085,-7.29879 -20.3607,-19.64994 -8.432,-9.2555 -23.3681,-31.39855 -27.4679,-40.72166 -0.9275,-2.10903 -3.6726,-7.27575 -6.1003,-11.48161 -2.4277,-4.20586 -5.8441,-11.40586 -7.5919,-16 -1.7478,-4.59414 -4.9925,-12.31996 -7.2106,-17.16849 -7.9479,-17.3738 -17.6275,-62.83026 -20.1268,-94.51783 -0.7809,-9.9 -1.6844,-21.3 -2.0079,-25.33334 -0.7917,-9.87066 3.7722,-50.17907 7.9515,-70.22938 5.3519,-25.67571 22.6448,-70.94359 36.8402,-96.43729 8.9275,-16.03311 31.5198,-40.48393 57.8362,-62.59394 20.555,-17.26962 49.3781,-34.6738 73.8128,-44.57034 8.3905,-3.3983 31.2443,-9.58879 40.2125,-10.89249 25.4373,-3.6978 45.5947,-3.69608 61.308,0.005 1.8333,0.43185 7.2333,1.32725 12,1.98976 23.2465,3.23127 54.6667,20.61442 54.6667,30.24446 0,2.67822 -0.6626,3.15088 -4.4172,3.15088 -3.206,0 -5.4911,-1.13173 -8.3334,-4.12727 -2.1538,-2.27 -7.8161,-6.09908 -12.5827,-8.50907 -9.8037,-4.95663 -30.3317,-11.77752 -32.7048,-10.86687 -0.8625,0.33097 -6.0068,-0.27354 -11.4317,-1.34334 -19.8352,-3.91154 -49.814,-2.13944 -75.1969,4.44502 -47.0549,12.2063 -107.4378,52.34395 -135.8313,90.28956 -12.9488,17.30509 -21.336,34.7242 -33.5232,69.62399 -14.5728,41.73091 -20.2679,76.61528 -18.8911,115.71379 0.8641,24.53973 1.1369,27.39161 4.7918,50.10754 4.2468,26.39479 7.4305,39.72944 12.7333,53.33333 2.7156,6.96667 6.2194,15.96667 7.7861,20 3.3717,8.67998 18.4054,37.96236 21.1144,41.1263 1.0394,1.21387 2.0327,2.80704 2.2074,3.54037 1.0567,4.43519 12.6867,21.85714 24.4141,36.57292 l 3.4682,4.35192 3.7735,-13.79575 c 3.9813,-14.55581 8.3231,-24.43901 16.0268,-36.48193 4.76,-7.44105 7.081,-8.74665 9.7762,-5.4992 1.1303,1.36196 1.0236,2.96919 -0.4278,6.44289 -1.0636,2.54554 -2.2858,7.87895 -2.7161,11.85203 -0.4302,3.97309 -1.7762,13.66183 -2.9911,21.53055 -1.2148,7.86872 -1.8351,14.6804 -1.3785,15.13705 1.3742,1.37422 18.2302,-4.71935 30.7074,-11.10094 19.0619,-9.74945 35.268,-22.73832 57.7333,-46.27226 9.0634,-9.4945 16.8118,-16.92989 17.2186,-16.52308 1.1391,1.13907 -2.7313,14.72541 -6.0588,21.26878 -7.5949,14.9346 -28.1414,41.33316 -44.9261,57.72184 l -10.3404,10.09641 9.3333,-4.62818 c 5.1334,-2.54551 9.6648,-4.63828 10.0698,-4.65062 0.9081,-0.0276 38.4981,-21.52192 51.2636,-29.3129 11.1405,-6.7993 20.4496,-14.35571 34.1689,-27.7359 5.5929,-5.45467 10.4943,-9.39118 10.8919,-8.74781 0.9639,1.55951 -4.7107,13.18658 -8.3005,17.00782 -1.5702,1.67137 -4.8412,7.17755 -7.2688,12.23595 -3.8596,8.04196 -17.6683,29.25762 -22.9793,35.30528 -1.0183,1.15951 -1.5501,2.50951 -1.1818,3 0.3682,0.49049 0.2734,0.59568 -0.2107,0.23375 -0.4842,-0.36193 -3.9493,2.18807 -7.7002,5.66666 -6.2955,5.83838 -16.9191,14.81221 -21.9717,18.55968 -2.3085,1.71217 10.3372,-1.06744 33.625,-7.391 10.868,-2.95109 17.8576,-5.90925 28.4591,-12.04457 7.729,-4.473 14.5963,-8.13272 15.2604,-8.13272 2.2327,0 1.2355,2.04898 -3.2637,6.70554 -2.4592,2.54529 -5.7331,7.4949 -7.2752,10.99913 -3.2803,7.45415 -15.4199,20.69589 -24.9201,27.18254 l -6.6667,4.55194 6.6667,-0.0922 c 3.6667,-0.0507 13.2667,0.30129 21.3333,0.78223 16.3198,0.97298 25.565,-0.40374 35.6071,-5.30233 4.5104,-2.20018 6.4485,-2.60525 6.8952,-1.44114 0.8306,2.16443 -0.5604,12.68955 -2.0636,15.61429 -1.0954,2.13152 -0.2437,2.33197 9.8477,2.31751 19.3292,-0.0277 26.8116,-3.14656 43.047,-17.94313 4.4,-4.01006 8.4424,-7.30978 8.9832,-7.3327 1.2159,-0.0515 6.1331,7.65415 10.9492,17.15835 2.7478,5.42246 3.4257,8.24981 2.7902,11.6372 -0.8205,4.37337 -0.7607,4.44459 2.642,3.15085 6.1351,-2.33255 8.7301,-4.08934 7.9368,-5.37304 -0.4253,-0.68814 0.077,-0.92498 1.1156,-0.52631 1.981,0.76016 8.1853,-5.69225 10.6276,-11.0526 3.5035,-7.68921 10.8358,-0.41928 10.5872,10.49703 -0.2435,10.68938 -4.9959,21.39858 -7.6152,17.16042 z m 25.359,-49.29175 c -0.7795,-1.26132 -0.8319,-8.64409 -0.2561,-36.0685 0.039,-1.83333 -0.3378,-9.03333 -0.8363,-16 -0.4984,-6.96666 -1.507,-21.96667 -2.2413,-33.33333 -1.5446,-23.91103 -2.0079,-27.75008 -5.6319,-46.66667 -4.5434,-23.71552 -24.5402,-80.07272 -35.803,-100.90364 -6.9133,-12.78647 -18.5739,-28.60755 -20.2989,-27.54147 -0.7627,0.47142 -1.0083,0.24461 -0.5456,-0.50402 0.4627,-0.74864 -0.3446,-2.43433 -1.794,-3.746 -3.1691,-2.86798 -3.4292,-6.7149 -0.5293,-7.8277 5.5111,-2.11479 17.5421,3.83441 27.621,13.65816 l 7.7268,7.53133 -3.1551,-6 c -1.7354,-3.3 -6.3508,-12.13083 -10.2565,-19.62407 -3.9057,-7.49324 -7.6061,-13.31208 -8.2231,-12.93075 -0.617,0.38133 -0.8014,-0.14172 -0.4097,-1.16231 0.3916,-1.0206 -0.2153,-2.62523 -1.3486,-3.56585 -1.1334,-0.94061 -2.0607,-2.208 -2.0607,-2.8164 0,-2.18045 -12.6719,-19.35871 -18.9407,-25.67646 -4.2479,-4.281 -6.3926,-7.57273 -6.3926,-9.81121 0,-3.00599 0.3948,-3.27103 3.6666,-2.46153 2.0167,0.49895 7.0448,2.26521 11.1736,3.92503 l 7.5069,3.01785 -1.7282,-4.11382 c -0.9506,-2.2626 -7.4069,-15.51382 -14.3475,-29.44715 -13.1222,-26.34323 -24.1476,-53.53 -23.3623,-57.60755 1.0195,-5.29429 4.824,-3.26644 9.1702,4.88799 4.1052,7.70206 13.8375,18.84418 18.7617,21.47956 1.9256,1.03054 1.7473,-0.0944 -1.1252,-7.10107 -4.4634,-10.88715 -7.9924,-23.8512 -11.0009,-40.41292 -1.598,-8.79715 -5.0025,-19.79261 -9.882,-31.91661 -7.4187,-18.43277 -8.3025,-22.91435 -3.3027,-16.74687 9.1243,11.25504 17.9725,31.71048 19.7747,45.71549 1.8622,14.47087 6.0566,29.90164 12.1199,44.58794 7.2081,17.45905 7.2458,17.60706 4.73,18.57245 -2.2812,0.87539 -12.9499,-5.34048 -20.4759,-11.92987 -2.3901,-2.09263 -4.3456,-3.44588 -4.3456,-3.00722 0,2.84265 12.6044,27.2625 13.7168,26.575 0.7577,-0.46829 0.9587,-0.18929 0.453,0.62891 -0.4999,0.80882 3.8354,11.25152 9.634,23.20601 12.6541,26.08794 13.138,27.4577 10.1115,28.61909 -2.1492,0.82471 -3.475,0.26265 -11.1452,-4.72479 l -3.23,-2.10021 2.3758,3.62589 c 1.3067,1.99424 3.0029,3.23833 3.7693,2.76465 0.804,-0.49689 0.9969,-0.21948 0.4559,0.65576 -0.5156,0.83434 1.3943,4.97704 4.2444,9.20601 2.85,4.22896 7.9214,12.78903 11.2697,19.02236 6.8646,12.77927 21.676,49.11322 20.5002,50.28905 -1.2389,1.23889 -11.2795,-5.99336 -21.0162,-15.138 -9.5748,-8.99263 -13.8484,-11.13909 -8.9284,-4.48438 1.6265,2.2 3.3596,4 3.8512,4 1.473,0 10.0267,13.57636 15.8471,25.15261 6.5987,13.12422 18.1203,43.28778 24.5152,64.18073 8.2467,26.94357 11.9697,47.35721 13.6173,74.66667 0.4646,7.7 1.088,16.1 1.3853,18.66666 0.2974,2.56667 0.9328,13.36667 1.412,24.00001 1.1143,24.72411 -2.9839,52.90425 -6.7966,46.73516 z M 2700.3991,612.81227 c -2.1481,-1.32723 -8.4057,-7.10281 -13.9057,-12.83462 -5.5,-5.73181 -22.0989,-22.7648 -36.8864,-37.85108 -14.7875,-15.08629 -28.78,-29.82962 -31.0945,-32.76295 -2.3144,-2.93333 -6.3192,-7.87328 -8.8995,-10.97766 -19.0638,-22.93634 -31.1539,-55.53886 -27.0066,-72.82672 2.5425,-10.59866 7.2681,-20.10449 11.9547,-24.04805 8.5853,-7.22402 14.0553,-9.0711 27.1375,-9.1637 10.9717,-0.0777 12.9166,0.30685 20.3981,4.03252 19.5464,9.73379 42.8901,31.48228 54.2124,50.50773 5.9597,10.01423 6.1849,10.22367 6.2018,5.76708 0.042,-11.00347 11.5912,-56.80928 17.078,-67.73189 10.7988,-21.49732 33.5242,-34.63196 49.5243,-28.62371 16.1113,6.05003 24.5737,22.19664 24.6663,47.0644 0.091,24.5318 -6.3433,48.76557 -19.8255,74.6656 -2.8634,5.50059 -6.1043,11.80107 -7.2022,14.00107 -5.3593,10.73933 -35.9805,60.4958 -42.7793,69.51235 -1.1802,1.56513 -3.0458,4.17406 -4.1458,5.79762 -1.1,1.62356 -5.1801,7.07616 -9.067,12.11688 -5.9319,7.69292 -6.8414,9.58627 -5.663,11.78813 1.9815,3.70251 -0.1112,4.4006 -4.6976,1.567 z m 21.3132,-41.44865 c 7.1953,-11.36666 15.6169,-24.56666 18.7147,-29.33333 7.6028,-11.69876 22.4638,-38.00017 28.8172,-51.00149 20.335,-41.61253 23.301,-83.55578 7.12,-100.68532 -3.604,-3.81522 -6.223,-5.5863 -7.2876,-4.92829 -1.0087,0.62336 -1.3248,0.4816 -0.8043,-0.36064 1.0042,-1.6247 -3.2792,-2.98025 -9.4987,-3.00606 -9.804,-0.0407 -25.859,12.55445 -32.2415,25.29346 -4.8955,9.77103 -16.1506,54.81352 -16.3993,65.62935 -0.1061,4.61577 0.2155,12.71687 0.7147,18.00243 0.5162,5.46623 0.3813,9.93538 -0.313,10.36445 -0.6713,0.41488 -3.7619,-3.60967 -6.8681,-8.94345 -20.4879,-35.18076 -43.1327,-59.33142 -65.3135,-69.65674 -13.5261,-6.29648 -31.0783,-4.14107 -39.4611,4.84581 -8.3724,8.97578 -11.7099,27.18945 -7.7195,42.12713 3.2615,12.2087 8.3954,23.30346 10.2523,22.15586 0.8833,-0.54593 1.1063,-0.30929 0.5527,0.58649 -1.5193,2.45821 14.3291,24.9286 16.5946,23.52844 0.6733,-0.41613 0.9119,0.0573 0.5302,1.05198 -0.7625,1.98722 17.3477,21.60469 57.3023,62.07125 l 25.2444,25.56788 3.4906,-6.32127 c 1.9198,-3.4767 9.3776,-15.62127 16.5729,-26.98794 z m -296.5649,-24.33333 c -1.0931,-1.65 -2.2874,-3.6 -2.654,-4.33333 -0.3667,-0.73334 -2.2805,-4.03334 -4.253,-7.33334 -1.9725,-3.3 -6.3773,-13.47305 -9.7885,-22.60677 -4.8397,-12.95868 -6.5022,-19.54893 -7.568,-30 -4.2624,-41.79722 7.8436,-100.01191 27.832,-133.83674 3.1776,-5.37726 5.7775,-10.0592 5.7775,-10.4043 0,-0.34511 3.3973,-5.24553 7.5497,-10.88983 14.987,-20.37193 40.7294,-44.05525 43.369,-39.90008 0.7123,1.12118 1.0469,1.15831 1.0608,0.11772 0.011,-0.83599 2.7391,-5.21306 6.062,-9.72681 3.3228,-4.51375 5.6301,-8.87246 5.1273,-9.68602 -0.5261,-0.85124 -0.3107,-1.10624 0.5073,-0.60067 0.7881,0.4871 3.7003,-2.24288 6.5361,-6.12733 2.8131,-3.85321 5.8472,-7.90585 6.7425,-9.00585 0.8954,-1.1 5.4179,-6.8 10.0501,-12.66666 15.5628,-19.71005 35.0723,-36.95142 48.7333,-43.06762 2.9751,-1.33199 9.5011,-6.36318 14.5022,-11.18041 22.9902,-22.14479 40.7177,-34.3729 67.093,-46.27954 22.4767,-10.14671 34.1214,-14.07638 48.1725,-16.25647 18.9086,-2.93378 12.6678,1.71997 -13.8381,10.31894 -19.6868,6.38676 -48.6025,20.38498 -62.2847,30.15231 -17.33,12.37134 -33.5487,26.29935 -32.535,27.93965 0.5228,0.84588 0.2814,1.0712 -0.5783,0.53987 -1.7123,-1.05827 -21.3299,18.21943 -32.4713,31.90862 -17.6088,21.63569 -35.2599,52.01743 -36.7724,63.29418 -0.8334,6.21321 -3.026,7.12264 -3.026,1.25507 0,-13.40043 15.9633,-43.90637 38.3524,-73.29127 l 3.5557,-4.66667 -4.5451,4 c -19.205,16.90186 -39.5927,41.71678 -62.1876,75.69146 -15.2444,22.92216 -21.7405,37.63157 -27.0453,61.23951 -3.5369,15.74083 -3.9102,17.96953 -4.0311,24.06904 -0.055,2.76534 -0.7715,5 -1.6036,5 -1.5584,0 -0.966,-24.35278 0.7945,-32.66667 3.9321,-18.56857 8.1201,-30.66921 15.4591,-44.66667 l 5.243,-10 -13.4023,14 c -34.4961,36.03425 -48.7294,67.73219 -59.5711,132.66667 -0.3673,2.2 -0.7468,14.8 -0.8432,28.00001 -0.1718,23.49854 -0.087,24.27858 4.0545,37.33333 2.3265,7.33333 4.9349,16.01422 5.7964,19.29086 0.8615,3.27664 3.608,10.01166 6.1034,14.96672 2.4953,4.95505 4.5369,9.32416 4.5369,9.70914 0,1.70286 -2.1939,0.44531 -4.0126,-2.30005 z M 3462.0851,441.55618 c -0.3815,-0.99409 -1.0826,-12.24409 -1.558,-25 -0.8148,-21.86018 -2.4418,-42.18226 -4.0985,-51.19257 -5.7375,-31.20504 -18.1851,-74.827 -20.8772,-73.16316 -0.8442,0.52173 -1.095,0.30159 -0.589,-0.51709 1.0853,-1.75603 -4.7331,-17.72791 -14.8351,-40.72296 l -7.6339,-17.37719 -0.7119,10.82425 c -0.6143,9.34182 -1.7783,14.13922 -2.9548,12.17837 -0.1833,-0.30555 -3.6239,-6.95412 -7.6456,-14.77458 -4.0218,-7.82046 -7.6718,-13.99686 -8.1111,-13.72532 -0.4394,0.27154 -0.8025,-0.2299 -0.8069,-1.11431 -0.014,-2.77708 -19.5984,-31.45925 -20.9222,-30.6411 -0.6928,0.42814 -0.883,0.16914 -0.4227,-0.57557 0.8808,-1.42522 -13.4692,-21.24561 -15.0584,-20.79875 -0.5071,0.14259 -0.922,-0.46694 -0.922,-1.35451 0,-1.44608 -11.7884,-19.24312 -31.5103,-47.57142 -9.5938,-13.78039 -20.3314,-31.773959 -23.5876,-39.527059 -2.0199,-4.80949 -2.5604,-5.445 -2.1031,-2.47294 0.3385,2.2 1.0114,7.3 1.4953,11.33333 0.4839,4.03334 1.6895,10.633339 2.6791,14.666669 2.5274,10.30089 3.4513,20 1.905,20 -0.7091,0 -3.4652,-4.32066 -6.1245,-9.60147 -2.6594,-5.28081 -7.7669,-14.32834 -11.3501,-20.10561 -3.5832,-5.777279 -6.5149,-10.750479 -6.5149,-11.051559 0,-0.30108 -2.7,-4.75969 -6,-9.90803 -3.3,-5.14833 -6,-9.6863 -6,-10.08438 0,-2.00622 -6.3862,-9.76566 -7.332,-8.90853 -0.6025,0.5461 -0.6745,0.25997 -0.1598,-0.63584 0.5425,-0.94447 -3.1111,-7.6665 -8.6965,-16 -15.715,-23.44687 -20.234,-28.70108 -48.4635,-56.348269 -18.5776,-18.194322 -24.0938,-26.642977 -25.5482,-39.129553 -0.7332,-6.295194 2.2215,-3.487588 7.9025,7.509332 4.0865,7.910155 8.3822,13.334028 18.6919,23.600548 7.3623,7.331513 14.1854,13.3300235 15.1625,13.3300235 0.977,0 1.7915,0.45 1.81,1 0.018,0.55 3.9862,5.2 8.8172,10.333329 4.831,5.13334 12.2346,13.9646795 16.4524,19.6252095 4.2177,5.66053 7.95,10.01053 8.2939,9.66666 0.3438,-0.34386 0.6252,0.15371 0.6252,1.1057 0,0.95199 3.224,6.50199 7.1645,12.33333 7.1568,10.59087 13.1126,20.71291 22.91,38.93577 2.8585,5.31667 5.55,9.66667 5.9812,9.66667 0.4312,0 0.4074,-4.88336 -0.053,-10.85192 -1.1138,-14.44334 1.4604,-25.03277 6.1083,-25.12766 0.55,-0.0112 1,0.7539 1,1.70029 0,0.94639 1.8319,7.39639 4.0709,14.33334 4.399,13.62865 14.3635,31.399449 28.7958,51.354619 4.7434,6.55857 11.688,16.42467 15.4324,21.92467 3.7445,5.5 11.7114,16.6 17.7043,24.66667 17.4292,23.46043 32.1735,46.83434 38.7252,61.39044 l 4.7754,10.60956 -0.7513,-11.55565 c -0.4132,-6.35561 -1.1158,-12.50561 -1.5613,-13.66667 -0.5254,-1.36914 -0.08,-2.11102 1.2673,-2.11102 3.4576,0 15.511,23.94155 33.2278,66.00001 10.6503,25.28285 17.6827,50.65765 22.3563,80.66667 2.015,12.93838 2.5987,23.60127 2.6097,47.66667 0.013,27.64734 -0.7742,35.1514 -3.0608,29.19256 z M 2960.5185,153.50917 c 4.5325,-10.84781 1.5988,-41.88496 -6.235,-65.964239 -8.1715,-25.11722 -15.0362,-38.08482 -29.1101,-54.99026 -8.8155,-10.58901 -21.7702,-22.5693695 -23.6641,-21.88422 -0.9078,0.32845 -1.5078,-0.0863 -1.3333,-0.9216195 0.4639,-2.22024 -11.9076,-10.04928904 -19.6627,-12.443134 -21.3859,-6.601372 -32.6866,-10.6285905 -32.6866,-11.6484185 0,-1.471167 16.566,-0.09172 28.3532,2.360961 12.2793,2.5550735 22.4224,8.2694175 36.4691,20.5456215 18.9858,16.5927795 34.6119,37.2492995 41.7073,55.1336995 9.5054,23.95929 13.4679,43.095789 13.4693,65.050189 10e-4,14.70607 -0.3599,17.42526 -2.9989,22.60004 -3.7652,7.38305 -7.2126,9.11256 -4.3082,2.16138 z M 2633.16,122.92681 c 0,-2.31774 5.9932,-17.44062 9.6023,-24.229869 3.0213,-5.68363 10.3705,-15.70395 12.0628,-16.44722 0.56,-0.24597 0.6218,-1.08867 0.1372,-1.87268 -0.4845,-0.784 -0.2685,-1.04691 0.4802,-0.58423 0.7486,0.46268 2.4913,-0.43233 3.8727,-1.98891 3.3603,-3.78667 15.5271,-11.54706 21.6097,-13.78348 l 4.9018,-1.80225 -5.5031,-0.0939 c -7.292,-0.12449 -23.9894,3.65354 -29.8302,6.74951 -2.5667,1.36048 -6.6167,4.05415 -9,5.98594 -6.7531,5.47368 -5.288,-0.38345 2.6195,-10.47242 2.1881,-2.79169 3.4763,-5.66251 2.9344,-6.53934 -0.568,-0.91914 -0.3913,-1.20783 0.4291,-0.7008 0.7673,0.4742 4.31,-2.03498 7.8727,-5.57597 11.4559,-11.3862 32.965,-22.92058 56.2656,-30.17282 15.8858,-4.94439 20.5487,-5.99488 30.391,-6.84662 5.0349,-0.43571 9.6012,-1.20812 10.1473,-1.71648 1.0147,-0.94449 -18.9209,-10.3041795 -23.5492,-11.0562565 -4.6402,-0.754006 -4.0225,-3.746842 0.7784,-3.77185 2.4445,-0.01273 8.6445,-0.932676 13.7778,-2.044316 29.7009,-6.4318275 54.3468,-7.6823575 77.3334,-3.923886 21.3189,3.485801 33.6483,9.674801 63.7318,31.9913585 11.181,8.29427 5.8984,6.93314 -8.6264,-2.22274 -13.2102,-8.32717 -19.6953,-11.61171 -37.7721,-19.1305995 -2.2,-0.91507 -6.1,-2.03722104 -8.6667,-2.49366604 -2.5666,-0.456444 -6.1666,-1.126347 -8,-1.48867096 -18.5233,-3.660798 -47.8921,-3.628867 -65.3333,0.07103 -4.7667,1.01118096 -10.4667,2.01963096 -12.6667,2.241 l -4,0.402489 5.3424,2.838886 c 6.6907,3.55543 21.4402,8.4489295 25.4658,8.4489295 3.0833,0 5.4574,2.17888 3.9819,3.65439 -0.4457,0.44567 -8.3334,1.58437 -17.5283,2.53045 -33.54,3.451 -78.4708,21.54414 -96.5235,38.86895 -3.7468,3.5958 -4.8591,5.22324 -2.9049,4.2504 5.8724,-2.92339 21.9404,-7.97079 25.4002,-7.97889 3.4915,-0.008 17.3688,5.38364 17.4103,6.76454 0.013,0.41608 -3.2347,1.78333 -7.216,3.03834 -12.6752,3.9955 -26.6628,14.94246 -36.8912,28.87183 -4.5919,6.25343 -10.5367,16.569721 -10.5367,18.284991 0,0.77918 3.6994,0.0412 8.4649,-1.68855 13.0411,-4.73366 24.0197,-6.28005 37.1866,-5.23793 6.425,0.50852 11.6819,1.36351 11.6819,1.89997 0,0.53646 -7.05,1.72604 -15.6667,2.64352 -22.0158,2.34417 -40.6655,8.07197 -45.5858,14.00055 -2.1156,2.54916 -8.0809,2.79079 -8.0809,0.32732 z m 346.6674,-22.56321 c 0,-4.610789 9.5525,-24.995769 17.7967,-37.985409 1.7505,-2.75802 8.0333,-10.49343 13.9619,-17.18979 5.9285,-6.69636 10.358,-12.64255 9.8433,-13.21377 -0.5148,-0.57121 -0.2009,-0.61621 0.6974,-0.1 0.9611,0.55221 3.9797,-1.19389 7.3334,-4.2419 3.1349,-2.84925 11.2933,-9.51598 18.1297,-14.81495 12.1226,-9.3964095 12.5098,-9.5820795 15.6667,-7.5135995 4.0578,2.65879 4.0388,3.54946 -0.231,10.8352995 -1.9073,3.25458 -4.2968,8.76142 -5.31,12.23743 -2.012,6.90241 -2.4001,7.1215 5.1679,-2.91765 6.6938,-8.87944 9.8066,-11.96633 19.5338,-19.3710595 5.6164,-4.275405 16.7812,-11.832632 24.8106,-16.7938415 30.2519,-18.69206 45.409,-29.480645 54.6947,-38.930763 11.7603,-11.968621 15.226,-12.840819 10.5959,-2.666667 -6.4802,14.2397 -14.8823,21.541721 -47.8577,41.5916 -48.7744,29.656111 -52.5821,32.337511 -63.9479,45.032121 -4.7281,5.28095 -9.1728,9.04295 -10.684,9.04295 -2.379,0 -2.5225,-0.69904 -1.7784,-8.66667 0.4451,-4.76666 0.3288,-8.66666 -0.2584,-8.66666 -2.2054,0 -38.8004,36.30569 -37.9622,37.66198 0.4816,0.77919 0.2751,1.04561 -0.4587,0.59206 -1.9826,-1.22527 -22.8128,27.73496 -24.9917,34.74596 -0.9782,3.147339 -4.7532,4.206539 -4.752,1.333329 z m -88.0416,-73.190969 c -1.8559,-1.7283 -5.253,-5.87356 -7.5491,-9.21169 -8.5301,-12.4009395 -26.9415,-25.3517255 -38.7433,-27.2524395 -3.1167,-0.501947 -5.6667,-1.4027985 -5.6667,-2.0018915 0,-1.774149 10.6962,0.115774 19.8171,3.5015105 10.0009,3.712388 19.3151,10.248211 26.9458,18.9079905 6.6566,7.55439 9.5391,12.84144 8.9847,16.4801 -0.4043,2.65333 -0.4955,2.64313 -3.7885,-0.42358 z"
       id="path1" />
  </g>
</svg>
